<svg id="Layer_1" data-name="Layer 1" xmlns="http://www.w3.org/2000/svg" width="34.00026" height="34" viewBox="0 0 34.00026 34">
  <g>
    <path d="M17,2A15,15,0,1,1,2,17,15.01694,15.01694,0,0,1,17,2m0-2A17,17,0,1,0,33.99989,17,16.99992,16.99992,0,0,0,17,0Z" style="fill: #231f20"/>
    <path id="_Path_" data-name="&lt;Path&gt;" d="M14.9015,21.00825c0-1.26038-.00486-2.52076.00452-3.781.00174-.21246-.05834-.27893-.27086-.27023-.3927.01592-.78652-.00168-1.17979.00742-.15921.004-.21787-.0401-.21613-.20876q.0119-1.1795.00083-2.35967c-.00145-.15128.04415-.201.19709-.19765.40211.00926.805-.01126,1.20635.00863.2326.0114.28079-.07125.27593-.28713q-.02107-.8977-.0009-1.79641a3.44593,3.44593,0,0,1,.64762-2.00791A2.79186,2.79186,0,0,1,17.80432,8.9784c.92821-.04122,1.85879-.01834,2.78811-.02835.12959-.00147.16823.04484.16767.1708q-.00624,1.193.00056,2.38642c.00125.14148-.04492.18478-.18381.18256-.447-.00694-.894-.00353-1.34073-.00236a.88511.88511,0,0,0-.98829.89679c-.02988.4721-.00805.947-.019,1.42053-.004.16866.09622.15712.20784.157.6792-.001,1.35867.00674,2.03787-.00486.19937-.00347.26513.0424.24233.25228-.0855.79029-.15891,1.58211-.22663,2.37434-.01542.1788-.097.21284-.25763.2102-.53585-.00827-1.07225-.00571-1.60852-.0023-.38514.0023-.34773-.05642-.34773.33637-.00182,2.46694-.00514,4.934.00543,7.40093.00111.26055-.06548.32521-.32327.32063q-1.38067-.02546-2.76183.00043c-.25938.00514-.30208-.08288-.3-.31423C14.9065,23.49311,14.9015,22.25081,14.9015,21.00825Z" style="fill-rule: evenodd"/>
  </g>
</svg>
