<svg id="Layer_1" data-name="Layer 1" xmlns="http://www.w3.org/2000/svg" width="33.99953" height="34" viewBox="0 0 33.99953 34">
  <g>
    <path d="M17,2A15,15,0,1,1,2,17,15.01694,15.01694,0,0,1,17,2m0-2A17,17,0,1,0,33.99989,17,16.99992,16.99992,0,0,0,17,0Z" style="fill: #231f20"/>
    <path d="M21.36041,10.11463H12.63909a2.5263,2.5263,0,0,0-2.52451,2.52451v8.72014a2.52765,2.52765,0,0,0,2.52451,2.52609h8.72132a2.52875,2.52875,0,0,0,2.52491-2.52609V12.63914A2.5274,2.5274,0,0,0,21.36041,10.11463ZM16.99893,21.53291a4.53347,4.53347,0,1,1,4.53347-4.53347A4.53988,4.53988,0,0,1,16.99893,21.53291Zm4.68017-8.12972a1.07276,1.07276,0,1,1,1.073-1.07253A1.07322,1.07322,0,0,1,21.6791,13.40319Zm-2.06157,3.59625a2.61778,2.61778,0,1,1-2.6186-2.617A2.62138,2.62138,0,0,1,19.61753,16.99944Z"/>
  </g>
</svg>
