<svg id="Layer_1" data-name="Layer 1" xmlns="http://www.w3.org/2000/svg" width="13.77074" height="13.77074" viewBox="0 0 13.77074 13.77074">
  <path d="M11.24583,0H2.52451A2.5263,2.5263,0,0,0,0,2.52451v8.72014a2.52765,2.52765,0,0,0,2.52451,2.52609h8.72132a2.52875,2.52875,0,0,0,2.52491-2.52609V2.52451A2.5274,2.5274,0,0,0,11.24583,0ZM6.88435,11.41828a4.53347,4.53347,0,1,1,4.53347-4.53347A4.53988,4.53988,0,0,1,6.88435,11.41828Zm4.68017-8.12972a1.07276,1.07276,0,1,1,1.073-1.07253A1.07322,1.07322,0,0,1,11.56452,3.28856ZM9.503,6.88481a2.61778,2.61778,0,1,1-2.6186-2.617A2.62138,2.62138,0,0,1,9.503,6.88481Z"/>
</svg>
