<svg id="Layer_1" data-name="Layer 1" xmlns="http://www.w3.org/2000/svg" width="34" height="34" viewBox="0 0 34 34">
  <g>
    <path d="M17,2A15,15,0,1,1,2,17,15,15,0,0,1,17,2m0-2A17,17,0,1,0,34,17,17,17,0,0,0,17,0Z" style="fill: #231f20"/>
    <path d="M13.89,14.32A1.34,1.34,0,1,0,12.55,13,1.34,1.34,0,0,0,13.89,14.32Zm6.22,0A1.34,1.34,0,1,0,18.78,13a1.33,1.33,0,0,0,1.33,1.33Zm4.77,6.11-1.8-3a.89.89,0,0,0-1.19-.31.84.84,0,0,0-.32,1.15v0l.21.36a6.77,6.77,0,0,1-9.59,0l.22-.36a.84.84,0,0,0-.3-1.16h0a.88.88,0,0,0-1.19.31l-1.8,3a.83.83,0,0,0,.29,1.15h0a.88.88,0,0,0,1.19-.3l.68-1.15a8.54,8.54,0,0,0,11.4,0l.68,1.15a.88.88,0,0,0,1.19.3.84.84,0,0,0,.32-1.15Z" style="fill: #231f20"/>
  </g>
</svg>
