<svg id="Layer_1" data-name="Layer 1" xmlns="http://www.w3.org/2000/svg" width="9.99979" height="15.9998" viewBox="0 0 9.99979 15.9998">
  <path d="M4.9998,8.2575A4.30553,4.30553,0,0,0,9.4554,4.1298,4.30617,4.30617,0,0,0,4.9998,0,4.30656,4.30656,0,0,0,.5442,4.1298,4.30559,4.30559,0,0,0,4.9998,8.2575Zm0-5.8374A1.783,1.783,0,0,1,6.8446,4.1298,1.783,1.783,0,0,1,4.9998,5.8387,1.78285,1.78285,0,0,1,3.1555,4.1298,1.78284,1.78284,0,0,1,4.9998,2.4201ZM9.2955,13.9375a1.14614,1.14614,0,0,1-.0029,1.7079l-.0008.0008a1.37755,1.37755,0,0,1-1.8439-.0008L4.9994,13.377,2.5523,15.6452a1.37933,1.37933,0,0,1-1.8461.0003,1.14818,1.14818,0,0,1-.0003-1.711l2.4907-2.3088a8.721,8.721,0,0,1-2.5867-.9928A1.15862,1.15862,0,0,1,.2008,8.965l.0008-.0013a1.36642,1.36642,0,0,1,1.799-.3791,6.039,6.039,0,0,0,5.9985,0l.0011-.0005a1.36643,1.36643,0,0,1,1.799.3809,1.15867,1.15867,0,0,1-.4098,1.6679,8.71315,8.71315,0,0,1-2.5871.9928l2.4903,2.3092Z"/>
</svg>
