<svg id="Layer_1" data-name="Layer 1" xmlns="http://www.w3.org/2000/svg" width="33.99989" height="34" viewBox="0 0 33.99989 34">
  <g>
    <path d="M16.99985,17.25757a4.30553,4.30553,0,0,0,4.4556-4.1277,4.30617,4.30617,0,0,0-4.4556-4.1298,4.30656,4.30656,0,0,0-4.4556,4.1298A4.30559,4.30559,0,0,0,16.99985,17.25757Zm0-5.8374a1.783,1.783,0,0,1,1.8448,1.7097,1.84993,1.84993,0,0,1-3.6891,0A1.78284,1.78284,0,0,1,16.99985,11.42017Zm4.2957,11.5174a1.14614,1.14614,0,0,1-.0029,1.7079l-.0008.0008a1.37755,1.37755,0,0,1-1.8439-.0008l-2.4485-2.2684-2.4471,2.2682a1.37933,1.37933,0,0,1-1.8461.0003,1.14818,1.14818,0,0,1-.0003-1.711l2.4907-2.3088A8.721,8.721,0,0,1,12.61,19.633a1.15862,1.15862,0,0,1-.4091-1.6679l.0008-.0013a1.36642,1.36642,0,0,1,1.799-.3791,6.039,6.039,0,0,0,5.9985,0l.0011-.0005a1.36643,1.36643,0,0,1,1.799.3809,1.15867,1.15867,0,0,1-.4098,1.6679,8.71315,8.71315,0,0,1-2.5871.9928l2.4903,2.3092Z"/>
    <path d="M17,2A15,15,0,1,1,2,17,15.01694,15.01694,0,0,1,17,2m0-2A17,17,0,1,0,33.99989,17,16.99993,16.99993,0,0,0,17,0Z" style="fill: #231f20"/>
  </g>
</svg>
