<svg id="Layer_1" data-name="Layer 1" xmlns="http://www.w3.org/2000/svg" width="34" height="34" viewBox="0 0 34 34">
  <g>
    <path d="M18.42,16.25l-1.76-.39c-.67-.16-1.42-.37-1.42-1s.51-1.09,1.49-1.09c2,0,1.8,1.36,2.78,1.36a.84.84,0,0,0,.95-.81c0-1.22-1.95-2.12-3.6-2.12S13.2,12.92,13.2,15c0,1,.34,2,2.25,2.53l2.38.6c.72.18.93.59.93.95,0,.62-.64,1.27-1.73,1.27-2.13,0-1.84-1.71-3-1.71a.87.87,0,0,0-.91.87c0,1,1.22,2.34,3.89,2.34s3.83-1.28,3.83-2.93C20.86,17.81,20.35,16.68,18.42,16.25Z" style="fill: #231f20"/>
    <path d="M17,0A17,17,0,1,0,34,17,17,17,0,0,0,17,0Zm3.53,25a4.38,4.38,0,0,1-2.22-.59,7.09,7.09,0,0,1-1.31.12A7.53,7.53,0,0,1,9.47,17a7.09,7.09,0,0,1,.12-1.31A4.38,4.38,0,0,1,9,13.47,4.47,4.47,0,0,1,13.47,9a4.38,4.38,0,0,1,2.22.59A7.09,7.09,0,0,1,17,9.47,7.53,7.53,0,0,1,24.53,17a7.09,7.09,0,0,1-.12,1.31A4.38,4.38,0,0,1,25,20.53,4.47,4.47,0,0,1,20.53,25Z" style="fill: #231f20"/>
  </g>
</svg>
