<svg id="Layer_1" data-name="Layer 1" xmlns="http://www.w3.org/2000/svg" width="34" height="34" viewBox="0 0 34 34">
  <g>
    <path d="M17,2A15,15,0,1,1,2,17,15,15,0,0,1,17,2m0-2A17,17,0,1,0,34,17,17,17,0,0,0,17,0Z" style="fill: #231f20"/>
    <path d="M23,10,8.83,15.44c-1,.39-1,.93-.18,1.17l3.64,1.13,1.25,4.12c.16.45.08.63.56.63a.83.83,0,0,0,.34-.06,1,1,0,0,0,.17-.1,2.09,2.09,0,0,0,.22-.2l1.77-1.72,3.68,2.71c.67.38,1.16.18,1.33-.62L24,11.12C24.27,10.13,23.65,9.68,23,10ZM14,21.77l0-.06-1.28-4.24h0L21,12.54l-.42.56-6.25,5.64h0L14,21.79Z" style="fill: #010101"/>
  </g>
</svg>
