<svg id="Layer_1" data-name="Layer 1" xmlns="http://www.w3.org/2000/svg" width="34" height="34" viewBox="0 0 34 34">
  <g id="Social_Instagram_Basic" data-name="Social / Instagram / Basic">
    <path d="M23.92,10.38,9.75,15.84c-1,.39-1,.93-.18,1.17l3.64,1.14,1.25,4.11c.16.46.08.64.56.64a.86.86,0,0,0,.34-.07.59.59,0,0,0,.17-.1,2.09,2.09,0,0,0,.22-.2l1.77-1.72,3.68,2.72c.67.37,1.16.18,1.33-.63l2.41-11.37C25.19,10.53,24.57,10.08,23.92,10.38Zm-9,11.8,0-.07-1.28-4.23,0,0L21.94,13l-.42.55-6.25,5.65h0l-.34,3Z" style="fill: #010101"/>
  </g>
</svg>
