<svg id="Layer_1" data-name="Layer 1" xmlns="http://www.w3.org/2000/svg" width="34" height="34" viewBox="0 0 34 34">
  <g>
    <path d="M12.72,17.47,14,21.71v0l.34-3h0L20.6,13.1l.42-.56-8.28,4.92Z" style="fill: #231f20"/>
    <path d="M29,5a17,17,0,1,0,5,12A16.94,16.94,0,0,0,29,5Zm-5,6.14L21.61,22.5c-.17.8-.66,1-1.33.62L16.6,20.41l-1.77,1.72a2.09,2.09,0,0,1-.22.2,1,1,0,0,1-.17.1.83.83,0,0,1-.34.06c-.48,0-.4-.18-.56-.63l-1.25-4.12L8.65,16.61c-.78-.24-.79-.78.18-1.17L23,10C23.65,9.68,24.27,10.13,24,11.12Z" style="fill: #231f20"/>
  </g>
</svg>
