<svg id="Layer_1" data-name="Layer 1" xmlns="http://www.w3.org/2000/svg" width="33.99989" height="34" viewBox="0 0 33.99989 34">
  <g>
    <path d="M17,2A15,15,0,1,1,2,17,15.01693,15.01693,0,0,1,17,2m0-2A17,17,0,1,0,33.99989,17,16.99993,16.99993,0,0,0,17,0Z" style="fill: #231f20"/>
    <path d="M24.21763,21.62786a1.07975,1.07975,0,0,0-.0541-.1027,8.20717,8.20717,0,0,0-1.5912-1.8151l-.0165-.0164-.0083-.0081-.0085-.0083h-.0083a9.53048,9.53048,0,0,1-.6747-.6735.6253.6253,0,0,1-.1168-.6653,6.18311,6.18311,0,0,1,.7497-1.0758q.3417-.4353.5414-.698,1.44135-1.8891,1.2497-2.4146l-.0496-.0819a.48938.48938,0,0,0-.2582-.1355,1.32752,1.32752,0,0,0-.5332-.0205l-2.3992.0163a.3162.3162,0,0,0-.1667.0042l-.1083.0247-.0418.0206-.0332.0247a.367.367,0,0,0-.0916.0861.56163.56163,0,0,0-.0831.1437,13.322,13.322,0,0,1-.8915,1.8478q-.30825.5094-.5666.883a4.25968,4.25968,0,0,1-.433.5501,3.00222,3.00222,0,0,1-.3167.2833q-.14175.107-.2165.0904c-.0501-.011-.0972-.0219-.1417-.0329a.54717.54717,0,0,1-.1874-.2012.89219.89219,0,0,1-.0959-.3203q-.02475-.1932-.0291-.3326-.0039-.1395.0042-.3943c.0058-.1698.0084-.2847.0084-.3449q0-.31215.0123-.6776.0126-.3654.021-.5789t.0082-.4517a1.86881,1.86881,0,0,0-.0292-.3737,1.2625,1.2625,0,0,0-.0872-.2628.4428.4428,0,0,0-.1708-.1971.96943.96943,0,0,0-.279-.111,5.62366,5.62366,0,0,0-1.1247-.1067,5.53936,5.53936,0,0,0-1.9911.1972,1.11777,1.11777,0,0,0-.3165.2463q-.15.18075-.0418.197a1.026,1.026,0,0,1,.7081.3532l.05.0986a1.55725,1.55725,0,0,1,.1167.3778,3.74932,3.74932,0,0,1,.0749.5994,6.307,6.307,0,0,1,0,1.0266q-.0417.4272-.0791.6653a1.31746,1.31746,0,0,1-.1125.3859,1.64022,1.64022,0,0,1-.0999.1807.14375.14375,0,0,1-.0417.041.63145.63145,0,0,1-.2249.0412.5323.5323,0,0,1-.2833-.1151,1.9867,1.9867,0,0,1-.3456-.3162,4.21988,4.21988,0,0,1-.4042-.5626q-.22485-.36135-.4665-.854l-.1332-.2383q-.12495-.2298-.3415-.6693-.21675-.43935-.3833-.8501a.54149.54149,0,0,0-.1998-.2627l-.0418-.0247a.571.571,0,0,0-.1332-.0699.89378.89378,0,0,0-.1916-.0533l-2.2826.0164a.58456.58456,0,0,0-.4748.1561l-.0334.0492a.26187.26187,0,0,0-.0251.1314.6448.6448,0,0,0,.0501.2217q.4998,1.15815,1.087,2.2339.5874,1.076,1.0205,1.7328.4332.65715.8831,1.2401.44985.5832.5955.7474.146.1644.2292.2463l.2083.1971a4.92138,4.92138,0,0,0,.5873.4722,10.03459,10.03459,0,0,0,.8581.5423,4.70005,4.70005,0,0,0,1.0955.4351,3.83913,3.83913,0,0,0,1.2163.1356h.958a.66849.66849,0,0,0,.4416-.1807l.0331-.0412a.534.534,0,0,0,.0624-.1517.82373.82373,0,0,0,.0292-.2259,2.67651,2.67651,0,0,1,.0541-.6364,1.65339,1.65339,0,0,1,.1418-.427,1.053,1.053,0,0,1,.1789-.2422.72147.72147,0,0,1,.1419-.1191.56157.56157,0,0,1,.0665-.0288.53442.53442,0,0,1,.4708.1274,2.74912,2.74912,0,0,1,.5082.4764q.23745.2835.5706.6364a3.89156,3.89156,0,0,0,.5832.5256l.1665.0986a2.03959,2.03959,0,0,0,.4333.1807.9464.9464,0,0,0,.4664.0411l2.1326-.0328a.9769.9769,0,0,0,.4915-.1028.40885.40885,0,0,0,.2083-.2258.628.628,0,0,0,.0043-.2794A1.01881,1.01881,0,0,0,24.21763,21.62786Z"/>
  </g>
</svg>
