<svg id="Layer_1" data-name="Layer 1" xmlns="http://www.w3.org/2000/svg" width="34" height="34" viewBox="0 0 34 34">
  <g>
    <path d="M17,0A17,17,0,1,0,34,17,17,17,0,0,0,17,0Zm0,23.86h0a7.93,7.93,0,0,1-3.79-1L9,24l1.12-4.11a7.93,7.93,0,0,1,12.48-9.56A7.85,7.85,0,0,1,25,15.93,7.94,7.94,0,0,1,17,23.86Z" style="fill: #231f20"/>
    <path d="M17,9.34a6.59,6.59,0,0,0-5.58,10.1l.15.24-.66,2.44,2.49-.66.24.14a6.51,6.51,0,0,0,3.36.92h0A6.59,6.59,0,1,0,17,9.34Zm3.88,9.42a2,2,0,0,1-1.34.94,2.62,2.62,0,0,1-1.25-.08c-.28-.09-.65-.21-1.13-.41a8.91,8.91,0,0,1-3.38-3,3.9,3.9,0,0,1-.81-2,2.24,2.24,0,0,1,.69-1.66.77.77,0,0,1,.53-.24h.38c.12,0,.29,0,.45.34s.56,1.38.61,1.47a.39.39,0,0,1,0,.35,1.38,1.38,0,0,1-.2.33c-.1.12-.21.26-.3.35s-.2.21-.09.4a6.23,6.23,0,0,0,1.11,1.38,5.4,5.4,0,0,0,1.59,1c.2.1.31.08.43-.05s.49-.58.63-.78.26-.16.44-.1,1.16.55,1.35.65.33.15.38.23A1.67,1.67,0,0,1,20.88,18.76Z" style="fill: #231f20"/>
  </g>
</svg>
