<svg id="Layer_1" data-name="Layer 1" xmlns="http://www.w3.org/2000/svg" xmlns:xlink="http://www.w3.org/1999/xlink" width="24" height="24" viewBox="0 0 24 24">
  <defs>
    <clipPath id="clip-path">
      <path d="M44.6,9.4a2.48,2.48,0,0,0,.2-1,2.4,2.4,0,1,0-2.4,2.4,2.74,2.74,0,0,0,1-.2L44.8,12l-1.4,1.4a2.48,2.48,0,0,0-1-.2,2.4,2.4,0,1,0,2.4,2.4,2.74,2.74,0,0,0-.2-1L46,13.2l4.2,4.2H52v-.6Zm-2.2.2a1.2,1.2,0,1,1,1.2-1.2A1.19,1.19,0,0,1,42.4,9.6Zm0,7.2a1.2,1.2,0,1,1,1.2-1.2A1.19,1.19,0,0,1,42.4,16.8ZM50.2,6.6l-3.6,3.6,1.2,1.2L52,7.2V6.6Z" style="fill: #231f20"/>
    </clipPath>
    <clipPath id="clip-path-2">
      <path d="M-324.53,17.05a1,1,0,0,1-.94-.94,1,1,0,0,1,.94-.95,1,1,0,0,1,.95.95A1,1,0,0,1-324.53,17.05Zm-5.68,0a1,1,0,0,1-1-.94,1,1,0,0,1,1-.95,1,1,0,0,1,.95.95A1,1,0,0,1-330.21,17.05Zm7.14-2.59A4.73,4.73,0,0,0-322,11.37h-9.22l-.63-1.26H-334v1.26h1.39s1.2,2.59,1.33,2.78a2.22,2.22,0,0,0-1.14,2,2.24,2.24,0,0,0,2.21,2.21,2.25,2.25,0,0,0,2.21-1.9h1.33a2.19,2.19,0,0,0,2.21,1.9,2.24,2.24,0,0,0,2.21-2.21A2.61,2.61,0,0,0-323.07,14.46Zm-4-8.78V10H-322C-322,7.22-324.27,5.68-327,5.68Z" style="fill: #231f20"/>
    </clipPath>
  </defs>
  <title>beauty-spa</title>
  <circle id="_Ellipse_" data-name="&lt;Ellipse&gt;" cx="12" cy="12" r="12" style="fill: #fff"/>
  <g>
    <path d="M12.07,6.8a8,8,0,0,0-2,5.14,7.93,7.93,0,0,0,2,5.1,8,8,0,0,0,2-5.1A8.15,8.15,0,0,0,12.07,6.8Z" style="fill: #010101"/>
    <path d="M19.63,10.36h0a7.14,7.14,0,0,0-4,1,6.77,6.77,0,0,1,.09,1.12A7.26,7.26,0,0,1,14,17.17a6.52,6.52,0,0,0,3.75-1.8A7,7,0,0,0,19.63,10.36Z" style="fill: #010101"/>
    <path d="M8.47,11.49a7.22,7.22,0,0,0-4.1-1.13h0a6.94,6.94,0,0,0,1.89,5,6.61,6.61,0,0,0,3.92,1.83,7.3,7.3,0,0,1-1.8-4.68A5.72,5.72,0,0,1,8.47,11.49Z" style="fill: #010101"/>
  </g>
  <g>
    <path d="M44.6,9.4a2.48,2.48,0,0,0,.2-1,2.4,2.4,0,1,0-2.4,2.4,2.74,2.74,0,0,0,1-.2L44.8,12l-1.4,1.4a2.48,2.48,0,0,0-1-.2,2.4,2.4,0,1,0,2.4,2.4,2.74,2.74,0,0,0-.2-1L46,13.2l4.2,4.2H52v-.6Zm-2.2.2a1.2,1.2,0,1,1,1.2-1.2A1.19,1.19,0,0,1,42.4,9.6Zm0,7.2a1.2,1.2,0,1,1,1.2-1.2A1.19,1.19,0,0,1,42.4,16.8ZM50.2,6.6l-3.6,3.6,1.2,1.2L52,7.2V6.6Z" style="fill: #231f20"/>
    <g style="clip-path: url(#clip-path)">
      <rect x="-466.67" y="-193.33" width="960" height="586.67" style="fill: #231f20"/>
    </g>
  </g>
  <g>
    <path d="M-324.53,17.05a1,1,0,0,1-.94-.94,1,1,0,0,1,.94-.95,1,1,0,0,1,.95.95A1,1,0,0,1-324.53,17.05Zm-5.68,0a1,1,0,0,1-1-.94,1,1,0,0,1,1-.95,1,1,0,0,1,.95.95A1,1,0,0,1-330.21,17.05Zm7.14-2.59A4.73,4.73,0,0,0-322,11.37h-9.22l-.63-1.26H-334v1.26h1.39s1.2,2.59,1.33,2.78a2.22,2.22,0,0,0-1.14,2,2.24,2.24,0,0,0,2.21,2.21,2.25,2.25,0,0,0,2.21-1.9h1.33a2.19,2.19,0,0,0,2.21,1.9,2.24,2.24,0,0,0,2.21-2.21A2.61,2.61,0,0,0-323.07,14.46Zm-4-8.78V10H-322C-322,7.22-324.27,5.68-327,5.68Z" style="fill: #231f20"/>
    <g style="clip-path: url(#clip-path-2)">
      <rect x="-676.32" y="-394.11" width="909.47" height="555.79" style="fill: #231f20"/>
    </g>
  </g>
</svg>
