<svg id="Layer_1" data-name="Layer 1" xmlns="http://www.w3.org/2000/svg" xmlns:xlink="http://www.w3.org/1999/xlink" width="24" height="24" viewBox="0 0 24 24">
  <defs>
    <clipPath id="clip-path">
      <path d="M10.6,9.4a2.48,2.48,0,0,0,.2-1,2.4,2.4,0,1,0-2.4,2.4,2.74,2.74,0,0,0,1-.2L10.8,12,9.4,13.4a2.48,2.48,0,0,0-1-.2,2.4,2.4,0,1,0,2.4,2.4,2.74,2.74,0,0,0-.2-1L12,13.2l4.2,4.2H18v-.6Zm-2.2.2A1.2,1.2,0,1,1,9.6,8.4,1.19,1.19,0,0,1,8.4,9.6Zm0,7.2a1.2,1.2,0,1,1,1.2-1.2A1.19,1.19,0,0,1,8.4,16.8ZM16.2,6.6l-3.6,3.6,1.2,1.2L18,7.2V6.6Z" style="fill: #231f20"/>
    </clipPath>
    <clipPath id="clip-path-2">
      <rect x="-500.67" y="-193.33" width="960" height="586.67" style="fill: #231f20"/>
    </clipPath>
    <clipPath id="clip-path-3">
      <path d="M-358.53,17.05a1,1,0,0,1-.94-.94,1,1,0,0,1,.94-.95,1,1,0,0,1,.95.95A1,1,0,0,1-358.53,17.05Zm-5.68,0a1,1,0,0,1-1-.94,1,1,0,0,1,1-.95,1,1,0,0,1,.95.95A1,1,0,0,1-364.21,17.05Zm7.14-2.59A4.73,4.73,0,0,0-356,11.37h-9.22l-.63-1.26H-368v1.26h1.39s1.2,2.59,1.33,2.78a2.22,2.22,0,0,0-1.14,2,2.24,2.24,0,0,0,2.21,2.21,2.25,2.25,0,0,0,2.21-1.9h1.33a2.19,2.19,0,0,0,2.21,1.9,2.24,2.24,0,0,0,2.21-2.21A2.61,2.61,0,0,0-357.07,14.46Zm-4-8.78V10H-356C-356,7.22-358.27,5.68-361,5.68Z" style="fill: #231f20"/>
    </clipPath>
  </defs>
  <title>beauty-sciccors</title>
  <circle id="_Ellipse_" data-name="&lt;Ellipse&gt;" cx="12" cy="12" r="12" style="fill: #fff"/>
  <g>
    <path d="M10.6,9.4a2.48,2.48,0,0,0,.2-1,2.4,2.4,0,1,0-2.4,2.4,2.74,2.74,0,0,0,1-.2L10.8,12,9.4,13.4a2.48,2.48,0,0,0-1-.2,2.4,2.4,0,1,0,2.4,2.4,2.74,2.74,0,0,0-.2-1L12,13.2l4.2,4.2H18v-.6Zm-2.2.2A1.2,1.2,0,1,1,9.6,8.4,1.19,1.19,0,0,1,8.4,9.6Zm0,7.2a1.2,1.2,0,1,1,1.2-1.2A1.19,1.19,0,0,1,8.4,16.8ZM16.2,6.6l-3.6,3.6,1.2,1.2L18,7.2V6.6Z" style="fill: #231f20"/>
    <g style="clip-path: url(#clip-path)">
      <g>
        <rect x="-500.67" y="-193.33" width="960" height="586.67" style="fill: #231f20"/>
        <g style="clip-path: url(#clip-path-2)">
          <rect x="2.67" y="2.67" width="18.67" height="18.67" style="fill: #231f20"/>
        </g>
      </g>
    </g>
  </g>
  <g>
    <path d="M-358.53,17.05a1,1,0,0,1-.94-.94,1,1,0,0,1,.94-.95,1,1,0,0,1,.95.95A1,1,0,0,1-358.53,17.05Zm-5.68,0a1,1,0,0,1-1-.94,1,1,0,0,1,1-.95,1,1,0,0,1,.95.95A1,1,0,0,1-364.21,17.05Zm7.14-2.59A4.73,4.73,0,0,0-356,11.37h-9.22l-.63-1.26H-368v1.26h1.39s1.2,2.59,1.33,2.78a2.22,2.22,0,0,0-1.14,2,2.24,2.24,0,0,0,2.21,2.21,2.25,2.25,0,0,0,2.21-1.9h1.33a2.19,2.19,0,0,0,2.21,1.9,2.24,2.24,0,0,0,2.21-2.21A2.61,2.61,0,0,0-357.07,14.46Zm-4-8.78V10H-356C-356,7.22-358.27,5.68-361,5.68Z" style="fill: #231f20"/>
    <g style="clip-path: url(#clip-path-3)">
      <rect x="-710.32" y="-394.11" width="909.47" height="555.79" style="fill: #231f20"/>
    </g>
  </g>
</svg>
