<svg id="Layer_1" data-name="Layer 1" xmlns="http://www.w3.org/2000/svg" xmlns:xlink="http://www.w3.org/1999/xlink" width="24" height="24" viewBox="0 0 24 24">
  <defs>
    <clipPath id="clip-path">
      <path d="M248.6,9.4a2.48,2.48,0,0,0,.2-1,2.4,2.4,0,1,0-2.4,2.4,2.74,2.74,0,0,0,1-.2l1.4,1.4-1.4,1.4a2.48,2.48,0,0,0-1-.2,2.4,2.4,0,1,0,2.4,2.4,2.74,2.74,0,0,0-.2-1l1.4-1.4,4.2,4.2H256v-.6Zm-2.2.2a1.2,1.2,0,1,1,1.2-1.2A1.19,1.19,0,0,1,246.4,9.6Zm0,7.2a1.2,1.2,0,1,1,1.2-1.2A1.19,1.19,0,0,1,246.4,16.8Zm7.8-10.2-3.6,3.6,1.2,1.2L256,7.2V6.6Z" style="fill: #231f20"/>
    </clipPath>
    <clipPath id="clip-path-2">
      <path d="M-120.53,17.05a1,1,0,0,1-.94-.94,1,1,0,0,1,.94-.95,1,1,0,0,1,1,.95A1,1,0,0,1-120.53,17.05Zm-5.68,0a1,1,0,0,1-1-.94,1,1,0,0,1,1-.95,1,1,0,0,1,.95.95A1,1,0,0,1-126.21,17.05Zm7.14-2.59A4.73,4.73,0,0,0-118,11.37h-9.22l-.63-1.26H-130v1.26h1.39s1.2,2.59,1.33,2.78a2.22,2.22,0,0,0-1.14,2,2.24,2.24,0,0,0,2.21,2.21,2.25,2.25,0,0,0,2.21-1.9h1.33a2.19,2.19,0,0,0,2.21,1.9,2.24,2.24,0,0,0,2.21-2.21A2.61,2.61,0,0,0-119.07,14.46Zm-4-8.78V10h5C-118,7.22-120.27,5.68-123,5.68Z" style="fill: #231f20"/>
    </clipPath>
  </defs>
  <title>kindergarten</title>
  <g>
    <circle cx="12" cy="12" r="12" style="fill: #fff"/>
    <path d="M18.32,9a2.86,2.86,0,0,0-.79-1.76,2.91,2.91,0,0,0-1.76-.79,3,3,0,0,0-1.87.62A2.71,2.71,0,0,0,13,8.8,9.22,9.22,0,0,1,12,11.32L9.8,9.11a.74.74,0,0,0-1.06,0,.75.75,0,0,0,0,1.06L10,11.46a3.82,3.82,0,0,0-.68-.07A3.57,3.57,0,1,0,12.93,15a3.82,3.82,0,0,0-.07-.68l1.21,1.21a.75.75,0,0,0,1.06,0,.75.75,0,0,0,0-1.06l-1.5-1.5A6.6,6.6,0,0,1,16,11.86a2.71,2.71,0,0,0,1.69-.95A3,3,0,0,0,18.32,9Zm-9,8A2.07,2.07,0,1,1,11.43,15,2.07,2.07,0,0,1,9.36,17Z"/>
  </g>
  <g>
    <path d="M248.6,9.4a2.48,2.48,0,0,0,.2-1,2.4,2.4,0,1,0-2.4,2.4,2.74,2.74,0,0,0,1-.2l1.4,1.4-1.4,1.4a2.48,2.48,0,0,0-1-.2,2.4,2.4,0,1,0,2.4,2.4,2.74,2.74,0,0,0-.2-1l1.4-1.4,4.2,4.2H256v-.6Zm-2.2.2a1.2,1.2,0,1,1,1.2-1.2A1.19,1.19,0,0,1,246.4,9.6Zm0,7.2a1.2,1.2,0,1,1,1.2-1.2A1.19,1.19,0,0,1,246.4,16.8Zm7.8-10.2-3.6,3.6,1.2,1.2L256,7.2V6.6Z" style="fill: #231f20"/>
    <g style="clip-path: url(#clip-path)">
      <rect x="-262.67" y="-193.33" width="960" height="586.67" style="fill: #231f20"/>
    </g>
  </g>
  <g>
    <path d="M-120.53,17.05a1,1,0,0,1-.94-.94,1,1,0,0,1,.94-.95,1,1,0,0,1,1,.95A1,1,0,0,1-120.53,17.05Zm-5.68,0a1,1,0,0,1-1-.94,1,1,0,0,1,1-.95,1,1,0,0,1,.95.95A1,1,0,0,1-126.21,17.05Zm7.14-2.59A4.73,4.73,0,0,0-118,11.37h-9.22l-.63-1.26H-130v1.26h1.39s1.2,2.59,1.33,2.78a2.22,2.22,0,0,0-1.14,2,2.24,2.24,0,0,0,2.21,2.21,2.25,2.25,0,0,0,2.21-1.9h1.33a2.19,2.19,0,0,0,2.21,1.9,2.24,2.24,0,0,0,2.21-2.21A2.61,2.61,0,0,0-119.07,14.46Zm-4-8.78V10h5C-118,7.22-120.27,5.68-123,5.68Z" style="fill: #231f20"/>
    <g style="clip-path: url(#clip-path-2)">
      <rect x="-472.32" y="-394.11" width="909.47" height="555.79" style="fill: #231f20"/>
    </g>
  </g>
</svg>
