<svg id="Layer_1" data-name="Layer 1" xmlns="http://www.w3.org/2000/svg" xmlns:xlink="http://www.w3.org/1999/xlink" width="24" height="24" viewBox="0 0 24 24">
  <defs>
    <clipPath id="clip-path">
      <path d="M384.6,9.4a2.48,2.48,0,0,0,.2-1,2.4,2.4,0,1,0-2.4,2.4,2.74,2.74,0,0,0,1-.2l1.4,1.4-1.4,1.4a2.48,2.48,0,0,0-1-.2,2.4,2.4,0,1,0,2.4,2.4,2.74,2.74,0,0,0-.2-1l1.4-1.4,4.2,4.2H392v-.6Zm-2.2.2a1.2,1.2,0,1,1,1.2-1.2A1.19,1.19,0,0,1,382.4,9.6Zm0,7.2a1.2,1.2,0,1,1,1.2-1.2A1.19,1.19,0,0,1,382.4,16.8Zm7.8-10.2-3.6,3.6,1.2,1.2L392,7.2V6.6Z" style="fill: #231f20"/>
    </clipPath>
    <clipPath id="clip-path-2">
      <path d="M15.47,17.05a.95.95,0,1,1,1-.94A1,1,0,0,1,15.47,17.05Zm-5.68,0a.95.95,0,1,1,1-.94A1,1,0,0,1,9.79,17.05Zm7.14-2.59A4.73,4.73,0,0,0,18,11.37H8.78l-.63-1.26H6v1.26H7.39S8.59,14,8.72,14.15a2.23,2.23,0,0,0,1.07,4.17A2.25,2.25,0,0,0,12,16.42h1.33a2.19,2.19,0,0,0,2.21,1.9,2.24,2.24,0,0,0,2.21-2.21A2.61,2.61,0,0,0,16.93,14.46ZM13,5.68V10H18C18,7.22,15.73,5.68,13,5.68Z" style="fill: #231f20"/>
    </clipPath>
    <clipPath id="clip-path-3">
      <rect x="-336.32" y="-394.11" width="909.47" height="555.79" style="fill: #231f20"/>
    </clipPath>
  </defs>
  <title>child-stroller</title>
  <circle cx="12" cy="12" r="12" style="fill: #fff"/>
  <g>
    <path d="M384.6,9.4a2.48,2.48,0,0,0,.2-1,2.4,2.4,0,1,0-2.4,2.4,2.74,2.74,0,0,0,1-.2l1.4,1.4-1.4,1.4a2.48,2.48,0,0,0-1-.2,2.4,2.4,0,1,0,2.4,2.4,2.74,2.74,0,0,0-.2-1l1.4-1.4,4.2,4.2H392v-.6Zm-2.2.2a1.2,1.2,0,1,1,1.2-1.2A1.19,1.19,0,0,1,382.4,9.6Zm0,7.2a1.2,1.2,0,1,1,1.2-1.2A1.19,1.19,0,0,1,382.4,16.8Zm7.8-10.2-3.6,3.6,1.2,1.2L392,7.2V6.6Z" style="fill: #231f20"/>
    <g style="clip-path: url(#clip-path)">
      <rect x="-126.67" y="-193.33" width="960" height="586.67" style="fill: #231f20"/>
    </g>
  </g>
  <g>
    <path d="M15.47,17.05a.95.95,0,1,1,1-.94A1,1,0,0,1,15.47,17.05Zm-5.68,0a.95.95,0,1,1,1-.94A1,1,0,0,1,9.79,17.05Zm7.14-2.59A4.73,4.73,0,0,0,18,11.37H8.78l-.63-1.26H6v1.26H7.39S8.59,14,8.72,14.15a2.23,2.23,0,0,0,1.07,4.17A2.25,2.25,0,0,0,12,16.42h1.33a2.19,2.19,0,0,0,2.21,1.9,2.24,2.24,0,0,0,2.21-2.21A2.61,2.61,0,0,0,16.93,14.46ZM13,5.68V10H18C18,7.22,15.73,5.68,13,5.68Z" style="fill: #231f20"/>
    <g style="clip-path: url(#clip-path-2)">
      <g>
        <rect x="-336.32" y="-394.11" width="909.47" height="555.79" style="fill: #231f20"/>
        <g style="clip-path: url(#clip-path-3)">
          <rect x="2.84" y="2.53" width="18.32" height="18.95" style="fill: #231f20"/>
        </g>
      </g>
    </g>
  </g>
</svg>
