<svg data-name="Layer 1" xmlns="http://www.w3.org/2000/svg" width="24" height="24"><circle cx="12" cy="12" r="12" fill="#f66897"/><path fill="#fff" d="M18.32 9a2.86 2.86 0 0 0-.79-1.76 2.91 2.91 0 0 0-1.76-.79 3 3 0 0 0-1.87.62A2.71 2.71 0 0 0 13 8.8a9.22 9.22 0 0 1-1 2.52L9.8 9.11a.74.74 0 0 0-1.06 0 .75.75 0 0 0 0 1.06L10 11.46a3.82 3.82 0 0 0-.68-.07A3.57 3.57 0 1 0 12.93 15a3.82 3.82 0 0 0-.07-.68l1.21 1.21a.75.75 0 0 0 1.06 0 .75.75 0 0 0 0-1.06l-1.5-1.5A6.6 6.6 0 0 1 16 11.86a2.71 2.71 0 0 0 1.69-.95A3 3 0 0 0 18.32 9zm-9 8a2.07 2.07 0 1 1 2.11-2 2.07 2.07 0 0 1-2.07 2z"/></svg>