<svg width="24" height="24" xmlns="http://www.w3.org/2000/svg" xmlns:xlink="http://www.w3.org/1999/xlink"><defs><path d="M978 650c0-6.627 5.373-12 12-12s12 5.373 12 12-5.373 12-12 12-12-5.373-12-12z" id="a"/><path d="M989.923 650.581a1.57 1.57 0 0 1-1.58-1.56c0-.862.707-1.56 1.58-1.56.872 0 1.58.698 1.58 1.56a1.57 1.57 0 0 1-1.58 1.56zm0-5.721a4.216 4.216 0 0 0-4.213 4.22c0 2.33 4.213 7.222 4.213 7.222s4.212-4.893 4.212-7.223-1.886-4.219-4.212-4.219z" id="b"/></defs><g transform="translate(-978 -638)"><use xlink:href="#a" fill="#383855"/></g><g transform="translate(-978 -638)"><use xlink:href="#b" fill="#fff"/></g></svg>