<svg id="Layer_1" data-name="Layer 1" xmlns="http://www.w3.org/2000/svg" xmlns:xlink="http://www.w3.org/1999/xlink" width="24" height="24" viewBox="0 0 24 24">
  <defs>
    <clipPath id="clip-path">
      <path d="M-145.4,9.4a2.48,2.48,0,0,0,.2-1A2.39,2.39,0,0,0-147.6,6,2.39,2.39,0,0,0-150,8.4a2.39,2.39,0,0,0,2.4,2.4,2.74,2.74,0,0,0,1-.2l1.4,1.4-1.4,1.4a2.48,2.48,0,0,0-1-.2,2.39,2.39,0,0,0-2.4,2.4,2.39,2.39,0,0,0,2.4,2.4,2.39,2.39,0,0,0,2.4-2.4,2.74,2.74,0,0,0-.2-1l1.4-1.4,4.2,4.2h1.8v-.6Zm-2.2.2a1.19,1.19,0,0,1-1.2-1.2,1.19,1.19,0,0,1,1.2-1.2,1.19,1.19,0,0,1,1.2,1.2A1.19,1.19,0,0,1-147.6,9.6Zm0,7.2a1.19,1.19,0,0,1-1.2-1.2,1.19,1.19,0,0,1,1.2-1.2,1.19,1.19,0,0,1,1.2,1.2A1.19,1.19,0,0,1-147.6,16.8Zm7.8-10.2-3.6,3.6,1.2,1.2,4.2-4.2V6.6Z" style="fill: #231f20"/>
    </clipPath>
    <clipPath id="clip-path-2">
      <path d="M-514.53,17.05a1,1,0,0,1-.94-.94,1,1,0,0,1,.94-.95,1,1,0,0,1,.95.95A1,1,0,0,1-514.53,17.05Zm-5.68,0a1,1,0,0,1-.95-.94,1,1,0,0,1,.95-.95,1,1,0,0,1,1,.95A1,1,0,0,1-520.21,17.05Zm7.14-2.59A4.73,4.73,0,0,0-512,11.37h-9.22l-.63-1.26H-524v1.26h1.39s1.2,2.59,1.33,2.78a2.22,2.22,0,0,0-1.14,2,2.24,2.24,0,0,0,2.21,2.21,2.25,2.25,0,0,0,2.21-1.9h1.33a2.19,2.19,0,0,0,2.21,1.9,2.24,2.24,0,0,0,2.21-2.21A2.61,2.61,0,0,0-513.07,14.46Zm-4-8.78V10h5C-512,7.22-514.27,5.68-517,5.68Z" style="fill: #231f20"/>
    </clipPath>
  </defs>
  <title>pet</title>
  <g>
    <path d="M-145.4,9.4a2.48,2.48,0,0,0,.2-1A2.39,2.39,0,0,0-147.6,6,2.39,2.39,0,0,0-150,8.4a2.39,2.39,0,0,0,2.4,2.4,2.74,2.74,0,0,0,1-.2l1.4,1.4-1.4,1.4a2.48,2.48,0,0,0-1-.2,2.39,2.39,0,0,0-2.4,2.4,2.39,2.39,0,0,0,2.4,2.4,2.39,2.39,0,0,0,2.4-2.4,2.74,2.74,0,0,0-.2-1l1.4-1.4,4.2,4.2h1.8v-.6Zm-2.2.2a1.19,1.19,0,0,1-1.2-1.2,1.19,1.19,0,0,1,1.2-1.2,1.19,1.19,0,0,1,1.2,1.2A1.19,1.19,0,0,1-147.6,9.6Zm0,7.2a1.19,1.19,0,0,1-1.2-1.2,1.19,1.19,0,0,1,1.2-1.2,1.19,1.19,0,0,1,1.2,1.2A1.19,1.19,0,0,1-147.6,16.8Zm7.8-10.2-3.6,3.6,1.2,1.2,4.2-4.2V6.6Z" style="fill: #231f20"/>
    <g style="clip-path: url(#clip-path)">
      <rect x="-656.67" y="-193.33" width="960" height="586.67" style="fill: #231f20"/>
    </g>
  </g>
  <g>
    <path d="M-514.53,17.05a1,1,0,0,1-.94-.94,1,1,0,0,1,.94-.95,1,1,0,0,1,.95.95A1,1,0,0,1-514.53,17.05Zm-5.68,0a1,1,0,0,1-.95-.94,1,1,0,0,1,.95-.95,1,1,0,0,1,1,.95A1,1,0,0,1-520.21,17.05Zm7.14-2.59A4.73,4.73,0,0,0-512,11.37h-9.22l-.63-1.26H-524v1.26h1.39s1.2,2.59,1.33,2.78a2.22,2.22,0,0,0-1.14,2,2.24,2.24,0,0,0,2.21,2.21,2.25,2.25,0,0,0,2.21-1.9h1.33a2.19,2.19,0,0,0,2.21,1.9,2.24,2.24,0,0,0,2.21-2.21A2.61,2.61,0,0,0-513.07,14.46Zm-4-8.78V10h5C-512,7.22-514.27,5.68-517,5.68Z" style="fill: #231f20"/>
    <g style="clip-path: url(#clip-path-2)">
      <rect x="-866.32" y="-394.11" width="909.47" height="555.79" style="fill: #231f20"/>
    </g>
  </g>
  <circle cx="12" cy="12" r="12" style="fill: #fff"/>
  <path d="M15.74,14A2.18,2.18,0,0,1,14,17.49H10A2.17,2.17,0,0,1,8.24,14l2-2.67a2.18,2.18,0,0,1,3.46,0ZM13.61,9.67a.94.94,0,0,0,.92-.92V7.43a.92.92,0,0,0-1.84,0V8.75A.93.93,0,0,0,13.61,9.67ZM16.08,9a.92.92,0,0,0-.91.92v1.32a.92.92,0,0,0,1.83,0V9.93A.93.93,0,0,0,16.08,9Zm-5.69.66a.91.91,0,0,0,.92-.92V7.43a.92.92,0,0,0-1.84,0V8.75A.93.93,0,0,0,10.39,9.67ZM8.83,11.25V9.93A.92.92,0,1,0,7,9.93v1.32a.92.92,0,0,0,1.83,0Z" style="fill: #010101"/>
</svg>
