<svg id="Layer_1" data-name="Layer 1" xmlns="http://www.w3.org/2000/svg" xmlns:xlink="http://www.w3.org/1999/xlink" width="24" height="24" viewBox="0 0 24 24">
  <defs>
    <clipPath id="clip-path">
      <path d="M-23.4,9.4a2.48,2.48,0,0,0,.2-1A2.39,2.39,0,0,0-25.6,6,2.39,2.39,0,0,0-28,8.4a2.39,2.39,0,0,0,2.4,2.4,2.74,2.74,0,0,0,1-.2l1.4,1.4-1.4,1.4a2.48,2.48,0,0,0-1-.2A2.39,2.39,0,0,0-28,15.6,2.39,2.39,0,0,0-25.6,18a2.39,2.39,0,0,0,2.4-2.4,2.74,2.74,0,0,0-.2-1l1.4-1.4,4.2,4.2H-16v-.6Zm-2.2.2a1.19,1.19,0,0,1-1.2-1.2,1.19,1.19,0,0,1,1.2-1.2,1.19,1.19,0,0,1,1.2,1.2A1.19,1.19,0,0,1-25.6,9.6Zm0,7.2a1.19,1.19,0,0,1-1.2-1.2,1.19,1.19,0,0,1,1.2-1.2,1.19,1.19,0,0,1,1.2,1.2A1.19,1.19,0,0,1-25.6,16.8Zm7.8-10.2-3.6,3.6,1.2,1.2L-16,7.2V6.6Z" style="fill: #231f20"/>
    </clipPath>
    <clipPath id="clip-path-2">
      <path d="M-392.53,17.05a1,1,0,0,1-.94-.94,1,1,0,0,1,.94-.95,1,1,0,0,1,.95.95A1,1,0,0,1-392.53,17.05Zm-5.68,0a1,1,0,0,1-1-.94,1,1,0,0,1,1-.95,1,1,0,0,1,.95.95A1,1,0,0,1-398.21,17.05Zm7.14-2.59A4.73,4.73,0,0,0-390,11.37h-9.22l-.63-1.26H-402v1.26h1.39s1.2,2.59,1.33,2.78a2.22,2.22,0,0,0-1.14,2,2.24,2.24,0,0,0,2.21,2.21,2.25,2.25,0,0,0,2.21-1.9h1.33a2.19,2.19,0,0,0,2.21,1.9,2.24,2.24,0,0,0,2.21-2.21A2.61,2.61,0,0,0-391.07,14.46Zm-4-8.78V10H-390C-390,7.22-392.27,5.68-395,5.68Z" style="fill: #231f20"/>
    </clipPath>
  </defs>
  <title>religion-mosque</title>
  <g>
    <circle id="_Ellipse_" data-name="&lt;Ellipse&gt;" cx="12" cy="12" r="12" style="fill: #fff"/>
    <path d="M17.42,12.6a4.71,4.71,0,1,1-6.06-6.22.7.7,0,0,1-.09-.29,5.78,5.78,0,1,0,6.47,6.58A.88.88,0,0,1,17.42,12.6Z" style="fill: #231f20"/>
    <polygon points="14.13 6.33 14.88 8.64 17.31 8.64 15.34 10.07 16.09 12.38 14.13 10.95 12.16 12.38 12.91 10.07 10.95 8.64 13.38 8.64 14.13 6.33" style="fill: #231f20"/>
  </g>
  <g>
    <path d="M-23.4,9.4a2.48,2.48,0,0,0,.2-1A2.39,2.39,0,0,0-25.6,6,2.39,2.39,0,0,0-28,8.4a2.39,2.39,0,0,0,2.4,2.4,2.74,2.74,0,0,0,1-.2l1.4,1.4-1.4,1.4a2.48,2.48,0,0,0-1-.2A2.39,2.39,0,0,0-28,15.6,2.39,2.39,0,0,0-25.6,18a2.39,2.39,0,0,0,2.4-2.4,2.74,2.74,0,0,0-.2-1l1.4-1.4,4.2,4.2H-16v-.6Zm-2.2.2a1.19,1.19,0,0,1-1.2-1.2,1.19,1.19,0,0,1,1.2-1.2,1.19,1.19,0,0,1,1.2,1.2A1.19,1.19,0,0,1-25.6,9.6Zm0,7.2a1.19,1.19,0,0,1-1.2-1.2,1.19,1.19,0,0,1,1.2-1.2,1.19,1.19,0,0,1,1.2,1.2A1.19,1.19,0,0,1-25.6,16.8Zm7.8-10.2-3.6,3.6,1.2,1.2L-16,7.2V6.6Z" style="fill: #231f20"/>
    <g style="clip-path: url(#clip-path)">
      <rect x="-534.67" y="-193.33" width="960" height="586.67" style="fill: #231f20"/>
    </g>
  </g>
  <g>
    <path d="M-392.53,17.05a1,1,0,0,1-.94-.94,1,1,0,0,1,.94-.95,1,1,0,0,1,.95.95A1,1,0,0,1-392.53,17.05Zm-5.68,0a1,1,0,0,1-1-.94,1,1,0,0,1,1-.95,1,1,0,0,1,.95.95A1,1,0,0,1-398.21,17.05Zm7.14-2.59A4.73,4.73,0,0,0-390,11.37h-9.22l-.63-1.26H-402v1.26h1.39s1.2,2.59,1.33,2.78a2.22,2.22,0,0,0-1.14,2,2.24,2.24,0,0,0,2.21,2.21,2.25,2.25,0,0,0,2.21-1.9h1.33a2.19,2.19,0,0,0,2.21,1.9,2.24,2.24,0,0,0,2.21-2.21A2.61,2.61,0,0,0-391.07,14.46Zm-4-8.78V10H-390C-390,7.22-392.27,5.68-395,5.68Z" style="fill: #231f20"/>
    <g style="clip-path: url(#clip-path-2)">
      <rect x="-744.32" y="-394.11" width="909.47" height="555.79" style="fill: #231f20"/>
    </g>
  </g>
</svg>
