<svg data-name="Layer 1" xmlns="http://www.w3.org/2000/svg" width="24" height="24"><circle data-name="&lt;Ellipse&gt;" cx="12" cy="12" r="12" fill="#fff"/><path d="M12.07 6.8a8 8 0 0 0-2 5.14 7.93 7.93 0 0 0 2 5.1 8 8 0 0 0 2-5.1 8.15 8.15 0 0 0-2-5.14zM19.63 10.36a7.14 7.14 0 0 0-4 1 6.77 6.77 0 0 1 .09 1.12A7.26 7.26 0 0 1 14 17.17a6.52 6.52 0 0 0 3.75-1.8 7 7 0 0 0 1.88-5.01zM8.47 11.49a7.22 7.22 0 0 0-4.1-1.13 6.94 6.94 0 0 0 1.89 5 6.61 6.61 0 0 0 3.92 1.83 7.3 7.3 0 0 1-1.8-4.68 5.72 5.72 0 0 1 .09-1.02z" fill="#010101"/></svg>