<svg id="Layer_1" data-name="Layer 1" xmlns="http://www.w3.org/2000/svg" xmlns:xlink="http://www.w3.org/1999/xlink" width="24" height="24" viewBox="0 0 24 24">
  <defs>
    <clipPath id="clip-path">
      <path d="M350.6,9.4a2.48,2.48,0,0,0,.2-1,2.4,2.4,0,1,0-2.4,2.4,2.74,2.74,0,0,0,1-.2l1.4,1.4-1.4,1.4a2.48,2.48,0,0,0-1-.2,2.4,2.4,0,1,0,2.4,2.4,2.74,2.74,0,0,0-.2-1l1.4-1.4,4.2,4.2H358v-.6Zm-2.2.2a1.2,1.2,0,1,1,1.2-1.2A1.19,1.19,0,0,1,348.4,9.6Zm0,7.2a1.2,1.2,0,1,1,1.2-1.2A1.19,1.19,0,0,1,348.4,16.8Zm7.8-10.2-3.6,3.6,1.2,1.2L358,7.2V6.6Z" style="fill: #231f20"/>
    </clipPath>
    <clipPath id="clip-path-2">
      <path d="M-18.53,17.05a1,1,0,0,1-.94-.94,1,1,0,0,1,.94-.95,1,1,0,0,1,1,.95A1,1,0,0,1-18.53,17.05Zm-5.68,0a1,1,0,0,1-.95-.94,1,1,0,0,1,.95-.95,1,1,0,0,1,.95.95A1,1,0,0,1-24.21,17.05Zm7.14-2.59A4.73,4.73,0,0,0-16,11.37h-9.22l-.63-1.26H-28v1.26h1.39s1.2,2.59,1.33,2.78a2.22,2.22,0,0,0-1.14,2,2.24,2.24,0,0,0,2.21,2.21A2.25,2.25,0,0,0-22,16.42h1.33a2.19,2.19,0,0,0,2.21,1.9,2.24,2.24,0,0,0,2.21-2.21A2.61,2.61,0,0,0-17.07,14.46Zm-4-8.78V10H-16C-16,7.22-18.27,5.68-21,5.68Z" style="fill: #231f20"/>
    </clipPath>
  </defs>
  <title>sport-fitness</title>
  <circle cx="12" cy="12" r="12" style="fill: #fff"/>
  <path d="M18.5,9.25H17V7.5a.5.5,0,0,0-.5-.5h-1a.5.5,0,0,0-.5.5v3.75H9V7.5A.5.5,0,0,0,8.5,7h-1a.5.5,0,0,0-.5.5V9.25H5.5a.5.5,0,0,0-.5.5V14.5a.5.5,0,0,0,.5.5H7v1.5a.5.5,0,0,0,.5.5h1a.5.5,0,0,0,.5-.5V12.75h6V16.5a.5.5,0,0,0,.5.5h1a.5.5,0,0,0,.5-.5V15h1.5a.5.5,0,0,0,.5-.5V9.75A.5.5,0,0,0,18.5,9.25Z"/>
  <g>
    <path d="M350.6,9.4a2.48,2.48,0,0,0,.2-1,2.4,2.4,0,1,0-2.4,2.4,2.74,2.74,0,0,0,1-.2l1.4,1.4-1.4,1.4a2.48,2.48,0,0,0-1-.2,2.4,2.4,0,1,0,2.4,2.4,2.74,2.74,0,0,0-.2-1l1.4-1.4,4.2,4.2H358v-.6Zm-2.2.2a1.2,1.2,0,1,1,1.2-1.2A1.19,1.19,0,0,1,348.4,9.6Zm0,7.2a1.2,1.2,0,1,1,1.2-1.2A1.19,1.19,0,0,1,348.4,16.8Zm7.8-10.2-3.6,3.6,1.2,1.2L358,7.2V6.6Z" style="fill: #231f20"/>
    <g style="clip-path: url(#clip-path)">
      <rect x="-160.67" y="-193.33" width="960" height="586.67" style="fill: #231f20"/>
    </g>
  </g>
  <g>
    <path d="M-18.53,17.05a1,1,0,0,1-.94-.94,1,1,0,0,1,.94-.95,1,1,0,0,1,1,.95A1,1,0,0,1-18.53,17.05Zm-5.68,0a1,1,0,0,1-.95-.94,1,1,0,0,1,.95-.95,1,1,0,0,1,.95.95A1,1,0,0,1-24.21,17.05Zm7.14-2.59A4.73,4.73,0,0,0-16,11.37h-9.22l-.63-1.26H-28v1.26h1.39s1.2,2.59,1.33,2.78a2.22,2.22,0,0,0-1.14,2,2.24,2.24,0,0,0,2.21,2.21A2.25,2.25,0,0,0-22,16.42h1.33a2.19,2.19,0,0,0,2.21,1.9,2.24,2.24,0,0,0,2.21-2.21A2.61,2.61,0,0,0-17.07,14.46Zm-4-8.78V10H-16C-16,7.22-18.27,5.68-21,5.68Z" style="fill: #231f20"/>
    <g style="clip-path: url(#clip-path-2)">
      <rect x="-370.32" y="-394.11" width="909.47" height="555.79" style="fill: #231f20"/>
    </g>
  </g>
</svg>
