<svg id="Layer_1" data-name="Layer 1" xmlns="http://www.w3.org/2000/svg" xmlns:xlink="http://www.w3.org/1999/xlink" width="24" height="24" viewBox="0 0 24 24">
  <defs>
    <clipPath id="clip-path">
      <path d="M-101.4,9.4a2.48,2.48,0,0,0,.2-1A2.39,2.39,0,0,0-103.6,6,2.39,2.39,0,0,0-106,8.4a2.39,2.39,0,0,0,2.4,2.4,2.74,2.74,0,0,0,1-.2l1.4,1.4-1.4,1.4a2.48,2.48,0,0,0-1-.2,2.39,2.39,0,0,0-2.4,2.4,2.39,2.39,0,0,0,2.4,2.4,2.39,2.39,0,0,0,2.4-2.4,2.74,2.74,0,0,0-.2-1l1.4-1.4,4.2,4.2H-94v-.6Zm-2.2.2a1.19,1.19,0,0,1-1.2-1.2,1.19,1.19,0,0,1,1.2-1.2,1.19,1.19,0,0,1,1.2,1.2A1.19,1.19,0,0,1-103.6,9.6Zm0,7.2a1.19,1.19,0,0,1-1.2-1.2,1.19,1.19,0,0,1,1.2-1.2,1.19,1.19,0,0,1,1.2,1.2A1.19,1.19,0,0,1-103.6,16.8Zm7.8-10.2-3.6,3.6,1.2,1.2L-94,7.2V6.6Z" style="fill: #231f20"/>
    </clipPath>
    <clipPath id="clip-path-2">
      <path d="M-470.53,17.05a1,1,0,0,1-.94-.94,1,1,0,0,1,.94-.95,1,1,0,0,1,.95.95A1,1,0,0,1-470.53,17.05Zm-5.68,0a1,1,0,0,1-1-.94,1,1,0,0,1,1-.95,1,1,0,0,1,.95.95A1,1,0,0,1-476.21,17.05Zm7.14-2.59A4.73,4.73,0,0,0-468,11.37h-9.22l-.63-1.26H-480v1.26h1.39s1.2,2.59,1.33,2.78a2.22,2.22,0,0,0-1.14,2,2.24,2.24,0,0,0,2.21,2.21,2.25,2.25,0,0,0,2.21-1.9h1.33a2.19,2.19,0,0,0,2.21,1.9,2.24,2.24,0,0,0,2.21-2.21A2.61,2.61,0,0,0-469.07,14.46Zm-4-8.78V10H-468C-468,7.22-470.27,5.68-473,5.68Z" style="fill: #231f20"/>
    </clipPath>
  </defs>
  <title>sport-pool</title>
  <g>
    <path d="M-101.4,9.4a2.48,2.48,0,0,0,.2-1A2.39,2.39,0,0,0-103.6,6,2.39,2.39,0,0,0-106,8.4a2.39,2.39,0,0,0,2.4,2.4,2.74,2.74,0,0,0,1-.2l1.4,1.4-1.4,1.4a2.48,2.48,0,0,0-1-.2,2.39,2.39,0,0,0-2.4,2.4,2.39,2.39,0,0,0,2.4,2.4,2.39,2.39,0,0,0,2.4-2.4,2.74,2.74,0,0,0-.2-1l1.4-1.4,4.2,4.2H-94v-.6Zm-2.2.2a1.19,1.19,0,0,1-1.2-1.2,1.19,1.19,0,0,1,1.2-1.2,1.19,1.19,0,0,1,1.2,1.2A1.19,1.19,0,0,1-103.6,9.6Zm0,7.2a1.19,1.19,0,0,1-1.2-1.2,1.19,1.19,0,0,1,1.2-1.2,1.19,1.19,0,0,1,1.2,1.2A1.19,1.19,0,0,1-103.6,16.8Zm7.8-10.2-3.6,3.6,1.2,1.2L-94,7.2V6.6Z" style="fill: #231f20"/>
    <g style="clip-path: url(#clip-path)">
      <rect x="-612.67" y="-193.33" width="960" height="586.67" style="fill: #231f20"/>
    </g>
  </g>
  <g>
    <path d="M-470.53,17.05a1,1,0,0,1-.94-.94,1,1,0,0,1,.94-.95,1,1,0,0,1,.95.95A1,1,0,0,1-470.53,17.05Zm-5.68,0a1,1,0,0,1-1-.94,1,1,0,0,1,1-.95,1,1,0,0,1,.95.95A1,1,0,0,1-476.21,17.05Zm7.14-2.59A4.73,4.73,0,0,0-468,11.37h-9.22l-.63-1.26H-480v1.26h1.39s1.2,2.59,1.33,2.78a2.22,2.22,0,0,0-1.14,2,2.24,2.24,0,0,0,2.21,2.21,2.25,2.25,0,0,0,2.21-1.9h1.33a2.19,2.19,0,0,0,2.21,1.9,2.24,2.24,0,0,0,2.21-2.21A2.61,2.61,0,0,0-469.07,14.46Zm-4-8.78V10H-468C-468,7.22-470.27,5.68-473,5.68Z" style="fill: #231f20"/>
    <g style="clip-path: url(#clip-path-2)">
      <rect x="-822.32" y="-394.11" width="909.47" height="555.79" style="fill: #231f20"/>
    </g>
  </g>
  <circle cx="12" cy="12" r="12" style="fill: #fff"/>
  <g>
    <path d="M8.55,11.24a3.36,3.36,0,0,1-2.39,1,.75.75,0,0,0,0,1.5,4.83,4.83,0,0,0,2.92-1,4.89,4.89,0,0,0,5.84,0,4.83,4.83,0,0,0,2.92,1,.75.75,0,0,0,0-1.5,3.31,3.31,0,0,1-1.66-.45.3.3,0,0,0,0-.1v-5a2.38,2.38,0,0,0-4.75,0,.75.75,0,1,0,1.5,0,.88.88,0,0,1,1.75,0v4.43a.79.79,0,0,0-.31.17,3.38,3.38,0,0,1-4.19.47V6.64a2.38,2.38,0,0,0-4.75,0,.75.75,0,0,0,1.5,0,.88.88,0,0,1,1.75,0v4.5A.78.78,0,0,0,8.55,11.24Z" style="fill: #231f20"/>
    <path d="M17.84,15.23a3.36,3.36,0,0,1-2.39-1,.75.75,0,0,0-1.06,0,3.38,3.38,0,0,1-4.78,0,.77.77,0,0,0-1.06,0,3.36,3.36,0,0,1-2.39,1,.75.75,0,0,0,0,1.5,4.83,4.83,0,0,0,2.92-1,4.89,4.89,0,0,0,5.84,0,4.83,4.83,0,0,0,2.92,1,.75.75,0,0,0,0-1.5Z" style="fill: #231f20"/>
    <path d="M17.84,18.23a3.36,3.36,0,0,1-2.39-1,.75.75,0,0,0-1.06,0,3.38,3.38,0,0,1-4.78,0,.77.77,0,0,0-1.06,0,3.36,3.36,0,0,1-2.39,1,.75.75,0,0,0,0,1.5,4.83,4.83,0,0,0,2.92-1,4.89,4.89,0,0,0,5.84,0,4.83,4.83,0,0,0,2.92,1,.75.75,0,0,0,0-1.5Z" style="fill: #231f20"/>
  </g>
</svg>
