<svg id="Layer_1" data-name="Layer 1" xmlns="http://www.w3.org/2000/svg" xmlns:xlink="http://www.w3.org/1999/xlink" width="24" height="24" viewBox="0 0 24 24">
  <defs>
    <clipPath id="clip-path">
      <path d="M316.6,9.4a2.48,2.48,0,0,0,.2-1,2.4,2.4,0,1,0-2.4,2.4,2.74,2.74,0,0,0,1-.2l1.4,1.4-1.4,1.4a2.48,2.48,0,0,0-1-.2,2.4,2.4,0,1,0,2.4,2.4,2.74,2.74,0,0,0-.2-1l1.4-1.4,4.2,4.2H324v-.6Zm-2.2.2a1.2,1.2,0,1,1,1.2-1.2A1.19,1.19,0,0,1,314.4,9.6Zm0,7.2a1.2,1.2,0,1,1,1.2-1.2A1.19,1.19,0,0,1,314.4,16.8Zm7.8-10.2-3.6,3.6,1.2,1.2L324,7.2V6.6Z" style="fill: #231f20"/>
    </clipPath>
    <clipPath id="clip-path-2">
      <path d="M-52.53,17.05a1,1,0,0,1-.94-.94,1,1,0,0,1,.94-.95,1,1,0,0,1,1,.95A1,1,0,0,1-52.53,17.05Zm-5.68,0a1,1,0,0,1-.95-.94,1,1,0,0,1,.95-.95,1,1,0,0,1,1,.95A1,1,0,0,1-58.21,17.05Zm7.14-2.59A4.73,4.73,0,0,0-50,11.37h-9.22l-.63-1.26H-62v1.26h1.39s1.2,2.59,1.33,2.78a2.22,2.22,0,0,0-1.14,2,2.24,2.24,0,0,0,2.21,2.21A2.25,2.25,0,0,0-56,16.42h1.33a2.19,2.19,0,0,0,2.21,1.9,2.24,2.24,0,0,0,2.21-2.21A2.61,2.61,0,0,0-51.07,14.46Zm-4-8.78V10h5C-50,7.22-52.27,5.68-55,5.68Z" style="fill: #231f20"/>
    </clipPath>
  </defs>
  <title>sport-football</title>
  <circle cx="12" cy="12" r="12" style="fill: #fff"/>
  <g>
    <path d="M316.6,9.4a2.48,2.48,0,0,0,.2-1,2.4,2.4,0,1,0-2.4,2.4,2.74,2.74,0,0,0,1-.2l1.4,1.4-1.4,1.4a2.48,2.48,0,0,0-1-.2,2.4,2.4,0,1,0,2.4,2.4,2.74,2.74,0,0,0-.2-1l1.4-1.4,4.2,4.2H324v-.6Zm-2.2.2a1.2,1.2,0,1,1,1.2-1.2A1.19,1.19,0,0,1,314.4,9.6Zm0,7.2a1.2,1.2,0,1,1,1.2-1.2A1.19,1.19,0,0,1,314.4,16.8Zm7.8-10.2-3.6,3.6,1.2,1.2L324,7.2V6.6Z" style="fill: #231f20"/>
    <g style="clip-path: url(#clip-path)">
      <rect x="-194.67" y="-193.33" width="960" height="586.67" style="fill: #231f20"/>
    </g>
  </g>
  <g>
    <path d="M-52.53,17.05a1,1,0,0,1-.94-.94,1,1,0,0,1,.94-.95,1,1,0,0,1,1,.95A1,1,0,0,1-52.53,17.05Zm-5.68,0a1,1,0,0,1-.95-.94,1,1,0,0,1,.95-.95,1,1,0,0,1,1,.95A1,1,0,0,1-58.21,17.05Zm7.14-2.59A4.73,4.73,0,0,0-50,11.37h-9.22l-.63-1.26H-62v1.26h1.39s1.2,2.59,1.33,2.78a2.22,2.22,0,0,0-1.14,2,2.24,2.24,0,0,0,2.21,2.21A2.25,2.25,0,0,0-56,16.42h1.33a2.19,2.19,0,0,0,2.21,1.9,2.24,2.24,0,0,0,2.21-2.21A2.61,2.61,0,0,0-51.07,14.46Zm-4-8.78V10h5C-50,7.22-52.27,5.68-55,5.68Z" style="fill: #231f20"/>
    <g style="clip-path: url(#clip-path-2)">
      <rect x="-404.32" y="-394.11" width="909.47" height="555.79" style="fill: #231f20"/>
    </g>
  </g>
  <path d="M12,5.5A6.5,6.5,0,1,0,18.5,12h0A6.5,6.5,0,0,0,12,5.5Zm3.45,6.77-1.92.12L11.9,10.14l.58-1.56,2.71-.21,1.14,1.7ZM9.53,15l-1-1.66,1-2.53,1.93-.2L13,12.81l-.78,1.94ZM15.14,7.1,15,7.71l-2.73.21L10.9,7,11,6.26a5.79,5.79,0,0,1,4.1.84Zm-4.82-.68-.12.68L8.6,8.35c-.22,0-.59,0-1.19.07a5.84,5.84,0,0,1,2.92-2ZM6.94,9.12,8.35,9l.54,1.38L7.92,13l-1.62.24a5.83,5.83,0,0,1,.63-4.09Zm3.18,8.4h.05l-.9-1.06.34-.8,2.87-.25,1.28,1-.59,1.33a5.86,5.86,0,0,1-3.05-.19Zm3.9-.05.49-1.14L16,15.19l.82.13A5.94,5.94,0,0,1,14,17.47Zm3.14-2.78-.89-.14-.33-1.73.92-2.3.81.19A5.78,5.78,0,0,1,17.16,14.69Z" style="fill: #010101"/>
</svg>
