
<svg xmlns="http://www.w3.org/2000/svg" xmlns:xlink="http://www.w3.org/1999/xlink"
     width="120" height="120" viewBox="0 0 120 120">
    <defs>
        <linearGradient id="linear-gradient" x1="7.03" y1="112.97" x2="112.97" y2="7.03"
                        gradientUnits="userSpaceOnUse">
            <stop offset="0" stop-color="#30409a"/>
            <stop offset="1" stop-color="#662e91"/>
        </linearGradient>
        <linearGradient id="linear-gradient-2" x1="31.17" y1="88.83" x2="88.83" y2="31.17"
                        xlink:href="#linear-gradient"/>
        <linearGradient id="linear-gradient-3" x1="40" y1="60" x2="80" y2="60"
                        gradientUnits="userSpaceOnUse">
            <stop offset="0" stop-color="#373e99"/>
            <stop offset="1" stop-color="#662e91"/>
        </linearGradient>
        <linearGradient id="linear-gradient-4" x1="38.25" y1="29.25" x2="44.75" y2="22.75"
                        gradientTransform="matrix(1, 0, 0, -1, 0, 51)"
                        xlink:href="#linear-gradient"/>
        <linearGradient id="linear-gradient-5" x1="47.25" y1="29.25" x2="53.75" y2="22.75"
                        gradientTransform="matrix(1, 0, 0, -1, 0, 51)"
                        xlink:href="#linear-gradient"/>
        <linearGradient id="linear-gradient-6" x1="65.25" y1="29.25" x2="71.75" y2="22.75"
                        gradientTransform="matrix(1, 0, 0, -1, 0, 51)"
                        xlink:href="#linear-gradient"/>
        <linearGradient id="linear-gradient-7" x1="47.25" y1="-40.75" x2="53.75" y2="-47.25"
                        gradientTransform="matrix(1, 0, 0, -1, 0, 51)"
                        xlink:href="#linear-gradient"/>
        <linearGradient id="linear-gradient-8" x1="65.25" y1="-40.75" x2="71.75" y2="-47.25"
                        gradientTransform="matrix(1, 0, 0, -1, 0, 51)"
                        xlink:href="#linear-gradient"/>
        <linearGradient id="linear-gradient-9" x1="47.25" y1="29.25" x2="53.75" y2="22.75"
                        gradientTransform="matrix(0, 1, 1, 0, 68.5, 0.5)"
                        xlink:href="#linear-gradient"/>
        <linearGradient id="linear-gradient-10" x1="65.25" y1="29.25" x2="71.75" y2="22.75"
                        gradientTransform="matrix(0, 1, 1, 0, 68.5, 0.5)"
                        xlink:href="#linear-gradient"/>
        <linearGradient id="linear-gradient-11" x1="47.75" y1="-40.25" x2="54.25"
                        y2="-46.75" gradientTransform="matrix(0, 1, 1, 0, 68.5, 0.5)"
                        xlink:href="#linear-gradient"/>
        <linearGradient id="linear-gradient-12" x1="65.75" y1="-40.25" x2="72.25"
                        y2="-46.75" gradientTransform="matrix(0, 1, 1, 0, 68.5, 0.5)"
                        xlink:href="#linear-gradient"/>
        <linearGradient id="linear-gradient-13" x1="56.25" y1="29.25" x2="62.75" y2="22.75"
                        gradientTransform="matrix(1, 0, 0, -1, 0, 51)"
                        xlink:href="#linear-gradient"/>
        <linearGradient id="linear-gradient-14" x1="56.25" y1="-40.75" x2="62.75"
                        y2="-47.25" gradientTransform="matrix(1, 0, 0, -1, 0, 51)"
                        xlink:href="#linear-gradient"/>
        <linearGradient id="linear-gradient-15" x1="56.75" y1="29.75" x2="63.25" y2="23.25"
                        gradientTransform="matrix(0, 1, 1, 0, 68.5, 0.5)"
                        xlink:href="#linear-gradient"/>
        <linearGradient id="linear-gradient-16" x1="56.75" y1="-40.25" x2="63.25"
                        y2="-46.75" gradientTransform="matrix(0, 1, 1, 0, 68.5, 0.5)"
                        xlink:href="#linear-gradient"/>
        <linearGradient id="linear-gradient-17" x1="75.25" y1="29.25" x2="81.75" y2="22.75"
                        gradientTransform="matrix(1, 0, 0, -1, 0, 51)"
                        xlink:href="#linear-gradient"/>
        <linearGradient id="linear-gradient-18" x1="38.25" y1="-40.75" x2="44.75"
                        y2="-47.25" gradientTransform="matrix(1, 0, 0, -1, 0, 51)"
                        xlink:href="#linear-gradient"/>
        <linearGradient id="linear-gradient-19" x1="75.25" y1="-40.75" x2="81.75"
                        y2="-47.25" gradientTransform="matrix(1, 0, 0, -1, 0, 51)"
                        xlink:href="#linear-gradient"/>
        <linearGradient id="linear-gradient-20" x1="4.25" y1="-75.75" x2="10.75" y2="-82.25"
                        gradientTransform="matrix(0, 1, 1, 0, 104, 34)"
                        xlink:href="#linear-gradient"/>
        <linearGradient id="linear-gradient-21" x1="41.25" y1="-75.75" x2="47.75"
                        y2="-82.25" gradientTransform="matrix(0, 1, 1, 0, 104, 34)"
                        xlink:href="#linear-gradient"/>
        <linearGradient id="linear-gradient-22" x1="4.25" y1="-5.75" x2="10.75" y2="-12.25"
                        gradientTransform="matrix(0, 1, 1, 0, 104, 34)"
                        xlink:href="#linear-gradient"/>
        <linearGradient id="linear-gradient-23" x1="41.25" y1="-5.75" x2="47.75" y2="-12.25"
                        gradientTransform="matrix(0, 1, 1, 0, 104, 34)"
                        xlink:href="#linear-gradient"/>
    </defs>
    <title>investors_direction_microelectronics</title>
    <g id="Layer_1" data-name="Layer 1">
        <g>
            <path d="M112,120H24A24,24,0,0,1,0,96V8A8,8,0,0,1,8,0H96a24,24,0,0,1,24,24v88A8,8,0,0,1,112,120Z"
                  fill="#fff"/>
            <path d="M96,2a22,22,0,0,1,22,22v88a6,6,0,0,1-6,6H24A22,22,0,0,1,2,96V8A6,6,0,0,1,8,2H96m0-2H8A8,8,0,0,0,0,8V96a24,24,0,0,0,24,24h88a8,8,0,0,0,8-8V24A24,24,0,0,0,96,0Z"
                  fill="url(#linear-gradient)"/>
        </g>
        <g>
            <rect x="30" y="30" width="60" height="60" rx="4" fill="#fff"/>
            <path d="M86,33a1,1,0,0,1,1,1V86a1,1,0,0,1-1,1H34a1,1,0,0,1-1-1V34a1,1,0,0,1,1-1H86m0-3H34a4,4,0,0,0-4,4V86a4,4,0,0,0,4,4H86a4,4,0,0,0,4-4V34a4,4,0,0,0-4-4Z"
                  fill="url(#linear-gradient-2)"/>
        </g>
        <rect x="40" y="40" width="40" height="40" rx="2" fill="url(#linear-gradient-3)"/>
        <line x1="41.5" y1="20" x2="41.5" y2="30" fill="none" stroke-width="3"
              stroke="url(#linear-gradient-4)"/>
        <line x1="50.5" y1="20" x2="50.5" y2="30" fill="none" stroke-width="3"
              stroke="url(#linear-gradient-5)"/>
        <line x1="68.5" y1="20" x2="68.5" y2="30" fill="none" stroke-width="3"
              stroke="url(#linear-gradient-6)"/>
        <line x1="50.5" y1="90" x2="50.5" y2="100" fill="none" stroke-width="3"
              stroke="url(#linear-gradient-7)"/>
        <line x1="68.5" y1="90" x2="68.5" y2="100" fill="none" stroke-width="3"
              stroke="url(#linear-gradient-8)"/>
        <line x1="99.5" y1="51" x2="89.5" y2="51" fill="none" stroke-width="3"
              stroke="url(#linear-gradient-9)"/>
        <line x1="99.5" y1="69" x2="89.5" y2="69" fill="none" stroke-width="3"
              stroke="url(#linear-gradient-10)"/>
        <line x1="30" y1="51.5" x2="20" y2="51.5" fill="none" stroke-width="3"
              stroke="url(#linear-gradient-11)"/>
        <line x1="30" y1="69.5" x2="20" y2="69.5" fill="none" stroke-width="3"
              stroke="url(#linear-gradient-12)"/>
        <line x1="59.5" y1="20" x2="59.5" y2="30" fill="none" stroke-width="3"
              stroke="url(#linear-gradient-13)"/>
        <line x1="59.5" y1="90" x2="59.5" y2="100" fill="none" stroke-width="3"
              stroke="url(#linear-gradient-14)"/>
        <line x1="100" y1="60.5" x2="90" y2="60.5" fill="none" stroke-width="3"
              stroke="url(#linear-gradient-15)"/>
        <line x1="30" y1="60.5" x2="20" y2="60.5" fill="none" stroke-width="3"
              stroke="url(#linear-gradient-16)"/>
        <line x1="78.5" y1="20" x2="78.5" y2="30" fill="none" stroke-width="3"
              stroke="url(#linear-gradient-17)"/>
        <line x1="41.5" y1="90" x2="41.5" y2="100" fill="none" stroke-width="3"
              stroke="url(#linear-gradient-18)"/>
        <line x1="78.5" y1="90" x2="78.5" y2="100" fill="none" stroke-width="3"
              stroke="url(#linear-gradient-19)"/>
        <line x1="30" y1="41.5" x2="20" y2="41.5" fill="none" stroke-width="3"
              stroke="url(#linear-gradient-20)"/>
        <line x1="30" y1="78.5" x2="20" y2="78.5" fill="none" stroke-width="3"
              stroke="url(#linear-gradient-21)"/>
        <line x1="100" y1="41.5" x2="90" y2="41.5" fill="none" stroke-width="3"
              stroke="url(#linear-gradient-22)"/>
        <line x1="100" y1="78.5" x2="90" y2="78.5" fill="none" stroke-width="3"
              stroke="url(#linear-gradient-23)"/>
        <circle cx="49" cy="49" r="4" fill="#fff"/>
    </g>
</svg>