
<svg xmlns="http://www.w3.org/2000/svg" xmlns:xlink="http://www.w3.org/1999/xlink"
     width="120" height="120" viewBox="0 0 120 120">
    <defs>
        <linearGradient id="linear-gradient" x1="7.03" y1="112.97" x2="112.97" y2="7.03"
                        gradientUnits="userSpaceOnUse">
            <stop offset="0" stop-color="#30409a"/>
            <stop offset="1" stop-color="#662e91"/>
        </linearGradient>
        <linearGradient id="linear-gradient-2" x1="53.75" y1="65.63" x2="98.75" y2="65.63"
                        gradientTransform="translate(-32.25 -24.13)"
                        gradientUnits="userSpaceOnUse">
            <stop offset="0" stop-color="#30409a"/>
            <stop offset="1" stop-color="#543494"/>
        </linearGradient>
        <linearGradient id="linear-gradient-3" x1="71.46" y1="100.06" x2="107.46"
                        y2="100.06" gradientTransform="translate(133.06 -26.46) rotate(90)"
                        xlink:href="#linear-gradient-2"/>
        <linearGradient id="linear-gradient-4" x1="53.75" y1="65.63" x2="68.75" y2="65.63"
                        gradientTransform="translate(-56.33 49.01) rotate(-45)"
                        xlink:href="#linear-gradient-2"/>
        <linearGradient id="linear-gradient-5" x1="83.75" y1="65.63" x2="98.75" y2="65.63"
                        gradientTransform="translate(-56.33 49.01) rotate(-45)"
                        xlink:href="#linear-gradient-2"/>
        <linearGradient id="linear-gradient-6" x1="77.09" y1="88.96" x2="122.09" y2="88.96"
                        gradientTransform="matrix(1, 0, 0, -1, -34.59, 130.46)"
                        gradientUnits="userSpaceOnUse">
            <stop offset="0" stop-color="#30409a"/>
            <stop offset="1" stop-color="#603092"/>
        </linearGradient>
        <linearGradient id="linear-gradient-7" x1="107.09" y1="88.96" x2="122.09" y2="88.96"
                        gradientTransform="matrix(-0.71, -0.71, -0.71, 0.71, 198.33, 49.01)"
                        xlink:href="#linear-gradient-2"/>
        <linearGradient id="linear-gradient-8" x1="79.44" y1="58.75" x2="86.06" y2="58.75"
                        gradientTransform="matrix(1, 0, 0, 1, 0, 0)"
                        xlink:href="#linear-gradient-2"/>
        <linearGradient id="linear-gradient-9" x1="88.15" y1="64.75" x2="89.35" y2="64.75"
                        gradientTransform="matrix(1, 0, 0, 1, 0, 0)"
                        xlink:href="#linear-gradient-2"/>
        <linearGradient id="linear-gradient-10" x1="86.15" y1="63.25" x2="88.35" y2="63.25"
                        gradientTransform="matrix(1, 0, 0, 1, 0, 0)"
                        xlink:href="#linear-gradient-2"/>
        <linearGradient id="linear-gradient-11" x1="86.15" y1="62.75" x2="87.35" y2="62.75"
                        gradientTransform="matrix(1, 0, 0, 1, 0, 0)"
                        xlink:href="#linear-gradient-2"/>
        <linearGradient id="linear-gradient-12" x1="85.15" y1="61.75" x2="86.35" y2="61.75"
                        gradientTransform="matrix(1, 0, 0, 1, 0, 0)"
                        xlink:href="#linear-gradient-2"/>
        <linearGradient id="linear-gradient-13" x1="88.15" y1="65.25" x2="90.35" y2="65.25"
                        gradientTransform="matrix(1, 0, 0, 1, 0, 0)"
                        xlink:href="#linear-gradient-2"/>
        <linearGradient id="linear-gradient-14" x1="19.5" y1="87.5" x2="47.5" y2="87.5"
                        gradientUnits="userSpaceOnUse">
            <stop offset="0" stop-color="#373e99"/>
            <stop offset="1" stop-color="#662e91"/>
        </linearGradient>
        <linearGradient id="linear-gradient-15" x1="71.5" y1="88" x2="98.5" y2="88"
                        xlink:href="#linear-gradient-14"/>
        <linearGradient id="linear-gradient-16" x1="67" y1="77.5" x2="103" y2="77.5"
                        gradientTransform="matrix(1, 0, 0, 1, 0, 0)"
                        xlink:href="#linear-gradient-2"/>
        <linearGradient id="linear-gradient-17" x1="92" y1="64" x2="94" y2="64"
                        xlink:href="#linear-gradient-14"/>
        <linearGradient id="linear-gradient-18" x1="94" y1="61" x2="96" y2="61"
                        xlink:href="#linear-gradient-14"/>
        <linearGradient id="linear-gradient-19" x1="89" y1="61" x2="91" y2="61"
                        xlink:href="#linear-gradient-14"/>
        <linearGradient id="linear-gradient-20" x1="92" y1="58" x2="94" y2="58"
                        xlink:href="#linear-gradient-14"/>
        <linearGradient id="linear-gradient-21" x1="19.5" y1="97" x2="98.5" y2="97"
                        gradientTransform="matrix(1, 0, 0, 1, 0, 0)"
                        xlink:href="#linear-gradient-6"/>
        <linearGradient id="linear-gradient-22" x1="75.5" y1="70.5" x2="94.5" y2="70.5"
                        gradientTransform="matrix(1, 0, 0, 1, 0, 0)"
                        xlink:href="#linear-gradient-2"/>
        <linearGradient id="linear-gradient-23" x1="75.5" y1="68.5" x2="94.5" y2="68.5"
                        gradientTransform="matrix(1, 0, 0, 1, 0, 0)"
                        xlink:href="#linear-gradient-2"/>
    </defs>
    <title>investors_direction_production</title>
    <g id="Layer_1" data-name="Layer 1">
        <g>
            <path d="M112,120H24A24,24,0,0,1,0,96V8A8,8,0,0,1,8,0H96a24,24,0,0,1,24,24v88A8,8,0,0,1,112,120Z"
                  fill="#fff"/>
            <path d="M96,2a22,22,0,0,1,22,22v88a6,6,0,0,1-6,6H24A22,22,0,0,1,2,96V8A6,6,0,0,1,8,2H96m0-2H8A8,8,0,0,0,0,8V96a24,24,0,0,0,24,24h88a8,8,0,0,0,8-8V24A24,24,0,0,0,96,0Z"
                  fill="url(#linear-gradient)"/>
        </g>
        <rect x="23" y="35.5" width="42" height="12" rx="6"
              transform="translate(-16.46 43.27) rotate(-45)" fill="#fff" stroke-width="3"
              stroke="url(#linear-gradient-2)"/>
        <path d="M27,79.5v-27a6,6,0,0,1,6-6h0a6,6,0,0,1,6,6v27Z" fill="#fff"
              stroke-width="3" stroke="url(#linear-gradient-3)"/>
        <circle cx="33.39" cy="52.11" r="6" fill="#fff" stroke-width="3"
                stroke="url(#linear-gradient-4)"/>
        <circle cx="54.61" cy="30.89" r="6" fill="#fff" stroke-width="3"
                stroke="url(#linear-gradient-5)"/>
        <rect x="44" y="35.5" width="42" height="12" rx="6"
              transform="translate(81.62 116.81) rotate(-135)" fill="none" stroke-width="3"
              stroke="url(#linear-gradient-6)"/>
        <circle cx="54.39" cy="30.89" r="6" fill="#fff" stroke-width="3"
                stroke="url(#linear-gradient-7)"/>
        <line x1="80.5" y1="56.5" x2="85" y2="61" fill="none" stroke-width="3"
              stroke="url(#linear-gradient-8)"/>
        <line x1="88.5" y1="64.5" x2="89" y2="65" fill="none"
              stroke="url(#linear-gradient-9)"/>
        <line x1="86.5" y1="62.5" x2="88" y2="64" fill="none"
              stroke="url(#linear-gradient-10)"/>
        <line x1="86.5" y1="62.5" x2="87" y2="63" fill="none"
              stroke="url(#linear-gradient-11)"/>
        <line x1="85.5" y1="61.5" x2="86" y2="62" fill="none"
              stroke="url(#linear-gradient-12)"/>
        <line x1="88.5" y1="64.5" x2="90" y2="66" fill="none"
              stroke="url(#linear-gradient-13)"/>
        <path d="M21.5,79.5h24a2,2,0,0,1,2,2v14a0,0,0,0,1,0,0h-28a0,0,0,0,1,0,0v-14A2,2,0,0,1,21.5,79.5Z"
              fill="url(#linear-gradient-14)"/>
        <path d="M98.5,82.5v13h-27v-13a2,2,0,0,1,2-2h23A2,2,0,0,1,98.5,82.5Z"
              fill="url(#linear-gradient-15)"/>
        <rect x="68.5" y="73.5" width="33" height="8" rx="4" fill="#fff" stroke-width="3"
              stroke="url(#linear-gradient-16)"/>
        <circle cx="93" cy="64" r="1" fill="url(#linear-gradient-17)"/>
        <circle cx="95" cy="61" r="1" fill="url(#linear-gradient-18)"/>
        <circle cx="90" cy="61" r="1" fill="url(#linear-gradient-19)"/>
        <circle cx="93" cy="58" r="1" fill="url(#linear-gradient-20)"/>
        <line x1="19.5" y1="97" x2="98.5" y2="97" fill="none" stroke-width="3"
              stroke="url(#linear-gradient-21)"/>
        <line x1="75.5" y1="70.5" x2="94.5" y2="70.5" fill="none"
              stroke="url(#linear-gradient-22)"/>
        <line x1="75.5" y1="68.5" x2="94.5" y2="68.5" fill="none"
              stroke="url(#linear-gradient-23)"/>
    </g>
</svg>