<svg xmlns="http://www.w3.org/2000/svg" xmlns:xlink="http://www.w3.org/1999/xlink" width="160"
     height="160" viewBox="0 0 160 160">
    <defs>
        <path id="j6tpa"
              d="M1354.398 8469.607c29.11 29.11 75.63 29.796 111.318-5.892 35.687-35.687 35.002-82.209 5.892-111.32-29.11-29.11-75.637-29.801-111.325 5.886-35.687 35.688-35.002 82.21-5.885 111.326z"/>
        <path id="j6tpb"
              d="M1439.944 8371.15a.417.417 0 0 1 .518-.1c13.112 7.965 19.663 16.06 19.651 24.281a25.038 25.038 0 0 1-5.405 14.536l-3.103 4.389c-3.158 4.45-4.732 8.26-4.72 11.431a8.813 8.813 0 0 0 2.568 6.025 76.328 76.328 0 0 0 10.01 8.344c.15.165.15.418 0 .584l-7.257 10.18a.4.4 0 0 1-.55.117c-13.28-8.033-19.92-16.155-19.92-24.365a24.621 24.621 0 0 1 4.455-13.234l3.336-4.907c3.615-5.562 5.422-9.456 5.422-11.681a9.798 9.798 0 0 0-2.502-6.526 72.626 72.626 0 0 0-9.81-8.344.4.4 0 0 1 0-.55zm-33.37 0a.417.417 0 0 1 .517-.1c13.122 7.965 19.677 16.06 19.666 24.281a25.027 25.027 0 0 1-5.41 14.536l-3.104 4.389c-3.161 4.45-4.736 8.26-4.725 11.431a8.81 8.81 0 0 0 2.571 6.025 76.369 76.369 0 0 0 10.017 8.344.434.434 0 0 1 .083.584l-7.262 10.18a.4.4 0 0 1-.55.117c-13.29-8.033-19.934-16.155-19.934-24.365a24.61 24.61 0 0 1 4.458-13.234l3.339-4.907c3.617-5.562 5.425-9.456 5.425-11.681a9.794 9.794 0 0 0-2.504-6.526 72.664 72.664 0 0 0-9.816-8.344.4.4 0 0 1-.084-.55zm-33.38 0a.417.417 0 0 1 .517-.1c13.117 7.965 19.67 16.06 19.66 24.281a25.032 25.032 0 0 1-5.408 14.536l-3.104 4.389c-3.148 4.45-4.723 8.26-4.723 11.431a8.811 8.811 0 0 0 2.57 6.025 76.349 76.349 0 0 0 10.013 8.344.434.434 0 0 1 .084.584l-7.26 10.18a.4.4 0 0 1-.55.117c-13.329-8.133-19.993-16.31-19.993-24.532a24.615 24.615 0 0 1 4.456-13.234l3.337-4.906c3.616-5.563 5.424-9.457 5.424-11.682a9.796 9.796 0 0 0-2.503-6.525 72.644 72.644 0 0 0-9.813-8.345.4.4 0 0 1-.083-.55z"/>
        <linearGradient id="j6tpc" x1="1365" x2="1460.12" y1="8410.92" y2="8410.92"
                        gradientUnits="userSpaceOnUse">
            <stop offset="0" stop-color="#373e99"/>
            <stop offset="1" stop-color="#662e91"/>
        </linearGradient>
    </defs>
    <g>
        <g transform="translate(-1333 -8331)">
            <g>
                <use fill="#fff" xlink:href="#j6tpa"/>
            </g>
            <g>
                <use fill="url(#j6tpc)" xlink:href="#j6tpb"/>
            </g>
        </g>
    </g>
</svg>