<svg xmlns="http://www.w3.org/2000/svg" width="1920" height="820" viewBox="0 0 1920 820">
  <title>map-noidorf-masks</title>
  <g id="Маски">
    <path d="M857.87,417.1l9.46,67.75-191.2,7.44-370.35,14.4a6.18,6.18,0,0,1-6.38-5.47L277.62,312.29a128.54,128.54,0,0,0-8.51-33.47L217.19,150a5.13,5.13,0,0,1,3.57-6.9L443.3,90.19a40.79,40.79,0,0,1,45.1,19.88l44.08,77.75-44.19,7.37a2.14,2.14,0,0,0-1.48,3.2l1.51,2.51a2.13,2.13,0,0,1-1.48,3.2l-22.29,3.71A2.13,2.13,0,0,0,463,211l5.7,10.26a2.13,2.13,0,0,0,2.17,1.07l53.7-7.67,50.19,92.78a2.75,2.75,0,0,1-1.93,4L543,316.85a.74.74,0,0,0-.5,1.1L552.7,335.5a.75.75,0,0,0,.77.36L587.16,330a2.76,2.76,0,0,1,3,1.5c5.45,11.18,33.61,69.05,32.19,69.05s-182.86,6.92-205.66,7.79a1.91,1.91,0,0,0-1.78,2.37l5.36,21.43a1.91,1.91,0,0,0,1.93,1.44l197-7.82,1.58,18.91H657l-7.09-18.12Z" fill="#cacee5"/>
    <path d="M639.63,399l-27.39-62a2.15,2.15,0,0,1,3-2.75l16.92,9.24a81.12,81.12,0,0,0,44.45,10,55.2,55.2,0,0,0,9.89-1.47c31.69-8.34,96.92-25.48,98.11-25.48,1.57,0,48.85,64.61,48.85,64.61Z" fill="#cacee5" stroke="#30409a" stroke-miterlimit="10"/>
    <path d="M1234.78,289.67l-26.3,8.46,11,14.18-149.7,39.39-75.64-77.21L1185,226.05l212.61-54,55.15,77.21L1265.2,298.13,1252.6,284Z" fill="#cacee5" stroke="#30409a" stroke-miterlimit="10"/>
    <path d="M1754,286.8,1314.57,413.23a8.24,8.24,0,0,1-8.67-2.74L1246,336.28a2.91,2.91,0,0,1,1.51-4.65l200.52-54,9.46,14.18,39.39-11-9.45-12.6,45.69-12.61-17.33-25.21-50.42,14.18-56.73-75.63,195.89-49.73a14.92,14.92,0,0,1,15,4.73l58.39,67.91L1755.41,282A3,3,0,0,1,1754,286.8Z" fill="#cacee5" stroke="#30409a" stroke-miterlimit="10"/>
    <path d="M649.87,426.55l208-9.45,9.46,67.75L305.78,506.69a6.18,6.18,0,0,1-6.38-5.47L277.62,312.29a128.54,128.54,0,0,0-8.51-33.47L217.19,150a5.13,5.13,0,0,1,3.57-6.9L443.3,90.19a40.79,40.79,0,0,1,45.1,19.88l44.08,77.75-44.19,7.37a2.14,2.14,0,0,0-1.48,3.2l1.51,2.51a2.13,2.13,0,0,1-1.48,3.2l-22.29,3.71A2.13,2.13,0,0,0,463,211l5.7,10.26a2.13,2.13,0,0,0,2.17,1.07l53.7-7.67,50.19,92.78a2.75,2.75,0,0,1-1.93,4L543,316.85a.74.74,0,0,0-.5,1.1L552.7,335.5a.75.75,0,0,0,.77.36L587.16,330a2.76,2.76,0,0,1,3,1.5c5.45,11.18,33.61,69.05,32.19,69.05s-182.86,6.92-205.66,7.79a1.91,1.91,0,0,0-1.78,2.37l5.36,21.43a1.91,1.91,0,0,0,1.93,1.44l197-7.82,1.58,18.91H657Z" fill="none" stroke="#30409a" stroke-miterlimit="10" stroke-width="2"/>
    <path d="M502.54,430.49l9.56,68.18" fill="none" stroke="#30409a" stroke-miterlimit="10" stroke-width="2"/>
    <path d="M612.45,337.47a2.32,2.32,0,0,1,3.24-3l22.4,12.23a52.81,52.81,0,0,0,18.3,6.06c10.41,1.4,22.68,1.14,30.1-.81,31.69-8.34,96.92-25.48,98.11-25.48,1.57,0,48.85,64.61,48.85,64.61L639.63,399Z" fill="none" stroke="#30409a" stroke-miterlimit="10" stroke-width="2"/>
    <path d="M1185,226.05l212.61-54,55.15,77.21L1265.2,298.13,1252.6,284l-17.82,5.72-26.3,8.46,11,14.18-149.7,39.39-75.64-77.21Z" fill="none" stroke="#30409a" stroke-miterlimit="10" stroke-width="2"/>
    <path d="M1235.26,290.25l-50.42-64.61" fill="none" stroke="#30409a" stroke-miterlimit="10" stroke-width="2"/>
    <path d="M1408.6,168.92l195.89-49.73a14.92,14.92,0,0,1,15,4.73l58.39,67.91L1755.41,282a3,3,0,0,1-1.43,4.78L1314.57,413.23a8.23,8.23,0,0,1-8.67-2.74L1246,336.28a2.91,2.91,0,0,1,1.51-4.65l200.52-54,9.46,14.18,39.39-11-9.45-12.6,45.69-12.61-17.33-25.21-50.42,14.18Z" fill="none" stroke="#30409a" stroke-miterlimit="10" stroke-width="2"/>
    <path d="M1520.48,236.67l157.57-44.12" fill="none" stroke="#30409a" stroke-miterlimit="10" stroke-width="2"/>
    <path d="M1477.37,286.24l52.42,65.06" fill="none" stroke="#30409a" stroke-miterlimit="10" stroke-width="2"/>
    <path d="M289.81,416.31l125.83-2.51" fill="none" stroke="#30409a" stroke-miterlimit="10" stroke-width="2"/>
  </g>
</svg>
