<svg xmlns="http://www.w3.org/2000/svg" width="64" height="64">
    <linearGradient id="a" gradientUnits="userSpaceOnUse" x1="-912.286" y1="564.452" x2="-911.286" y2="564.452" gradientTransform="matrix(63 0 0 -63 57474.5 35592.5)">
        <stop offset="0" stop-color="#30409a"></stop>
        <stop offset="1" stop-color="#662d91"></stop>
    </linearGradient>
    <path d="M4 .5C2.1.5.5 2.1.5 4v48c0 6.4 5.1 11.5 11.5 11.5h48c1.9 0 3.5-1.6 3.5-3.5V12C63.5 5.6 58.4.5 52 .5H4z" fill="#fff" stroke="url(#a)"></path>
    <g transform="translate(14 20)">
        <linearGradient id="b" gradientUnits="userSpaceOnUse" x1="-913.735" y1="529.455" x2="-912.735" y2="529.455" gradientTransform="matrix(34 0 0 -22 31066.996 11659)">
            <stop offset="0" stop-color="#373e99"></stop>
            <stop offset="1" stop-color="#662e91"></stop>
        </linearGradient>
        <path d="M4.8 20.4l3.1-1.8.3-.3 1.4-5.1c0-.2.2-.3.3-.4s.3-.1.5 0l14.4 7.5h.1l4.7 1.5H33.4c.2 0 .3-.1.5-.2.1-.1.1-.3.1-.5l-.3-.9c-.1-.2-.2-.3-.4-.4l-3.5-1.2s-.1 0-.1-.1l-2.6-1.7c-.1-.1-.2-.2-.2-.4l-.2-1c0-.2.1-.4.2-.6l.1.2c.2-.1.3-.4.2-.6l-.3-.9c-.1-.2 0-.3 0-.5.1-.1.2-.2.4-.3l2.4-.5c.1 0 .2-.1.3-.1l1.9-1.6c.1-.1.2-.3.2-.4 0-.2.1-.4.4-.5l.9-.4c.2-.1.3-.3.4-.5l.2-5.1c0-.3-.2-.5-.4-.6L19.2 0c-.1 0-.3 0-.4.1L.2 12.6c-.2.2-.3.5-.2.7l4 6.9.3.3c.2 0 .4 0 .5-.1z" opacity=".1" fill="url(#b)" stroke="#fff"></path>
        <linearGradient id="c" gradientUnits="userSpaceOnUse" x1="-913.481" y1="528.8" x2="-912.77" y2="529.883" gradientTransform="matrix(34 0 0 -22 31066.996 11659)">
            <stop offset="0" stop-color="#30409a"></stop>
            <stop offset="1" stop-color="#662e91"></stop>
        </linearGradient>
        <path d="M4.8 20.4l3.1-1.8.3-.3 1.4-5.1c0-.2.2-.3.3-.4s.3-.1.5 0l14.4 7.5h.1l4.7 1.5H33.4c.2 0 .3-.1.5-.2.1-.1.1-.3.1-.5l-.3-.9c-.1-.2-.2-.3-.4-.4l-3.5-1.2s-.1 0-.1-.1l-2.6-1.7c-.1-.1-.2-.2-.2-.4l-.2-1c0-.2.1-.4.2-.6l.1.2c.2-.1.3-.4.2-.6l-.3-.9c-.1-.2 0-.3 0-.5.1-.1.2-.2.4-.3l2.4-.5c.1 0 .2-.1.3-.1l1.9-1.6c.1-.1.2-.3.2-.4 0-.2.1-.4.4-.5l.9-.4c.2-.1.3-.3.4-.5l.2-5.1c0-.3-.2-.5-.4-.6L19.2 0c-.1 0-.3 0-.4.1L.2 12.6c-.2.2-.3.5-.2.7l4 6.9.3.3c.2 0 .4 0 .5-.1z" fill="none" stroke="url(#c)" stroke-width="2" stroke-dasharray="5.97"></path>
    </g>
</svg>
