<svg xmlns="http://www.w3.org/2000/svg" width="64" height="64">
    <linearGradient id="a" gradientUnits="userSpaceOnUse" x1="-912.286" y1="564.452" x2="-911.286" y2="564.452" gradientTransform="matrix(63 0 0 -63 57474.5 35592.5)">
        <stop offset="0" stop-color="#30409a"></stop>
        <stop offset="1" stop-color="#662d91"></stop>
    </linearGradient>
    <path d="M4 .5C2.1.5.5 2.1.5 4v48c0 6.4 5.1 11.5 11.5 11.5h48c1.9 0 3.5-1.6 3.5-3.5V12C63.5 5.6 58.4.5 52 .5H4z" fill="#fff" stroke="url(#a)"></path>
    <linearGradient id="b" gradientUnits="userSpaceOnUse" x1="-899.857" y1="559.042" x2="-898.826" y2="559.042" gradientTransform="matrix(34.1325 0 0 -37.6716 30727.83 21090.822)">
        <stop offset="0" stop-color="#30409a"></stop>
        <stop offset="1" stop-color="#662e91"></stop>
    </linearGradient>
    <path d="M40.3 12l7.4 2.3c.3.1.5.5.4.8l-5.2 16c-.2.6-.5 1.2-1 1.7l-14 16.6c-.1.2-.4.2-.6.1l-13-9.7c-.3-.2-.4-.6-.2-.9l2.3-5.2c.1-.3.4-.5.7-.6.3-.1.6-.1.9 0l9.5 4.6c.5.2 1.1.3 1.6.1.5-.2.9-.6 1.2-1.2l9.4-24.3c.1-.2.4-.4.6-.3z" fill="none" stroke="url(#b)" stroke-width="2" stroke-dasharray="6"></path>
    <linearGradient id="c" gradientUnits="userSpaceOnUse" x1="-899.841" y1="559.042" x2="-898.841" y2="559.042" gradientTransform="matrix(34.1325 0 0 -37.6716 30727.83 21090.822)">
        <stop offset="0" stop-color="#373e99"></stop>
        <stop offset="1" stop-color="#662e91"></stop>
    </linearGradient>
    <path d="M40.3 12l7.4 2.3c.3.1.5.5.4.8l-5.2 16c-.2.6-.5 1.2-1 1.7l-14 16.6c-.1.2-.4.2-.6.1l-13-9.7c-.3-.2-.4-.6-.2-.9l2.3-5.2c.1-.3.4-.5.7-.6.3-.1.6-.1.9 0l9.5 4.6c.5.2 1.1.3 1.6.1.5-.2.9-.6 1.2-1.2l9.4-24.3c.1-.2.4-.4.6-.3z" opacity=".1" fill="url(#c)" stroke="#fff"></path>
</svg>
