<svg xmlns="http://www.w3.org/2000/svg" width="64" height="64">
    <linearGradient id="a" gradientUnits="userSpaceOnUse" x1="-912.286" y1="564.452" x2="-911.286" y2="564.452" gradientTransform="matrix(63 0 0 -63 57474.5 35592.5)">
        <stop offset="0" stop-color="#30409a"></stop>
        <stop offset="1" stop-color="#662d91"></stop>
    </linearGradient>
    <path d="M4 .5C2.1.5.5 2.1.5 4v48c0 6.4 5.1 11.5 11.5 11.5h48c1.9 0 3.5-1.6 3.5-3.5V12C63.5 5.6 58.4.5 52 .5H4z" fill="#fff" stroke="url(#a)"></path>
    <g transform="translate(20.2 19.2)">
        <linearGradient id="b" gradientUnits="userSpaceOnUse" x1="-911.02" y1="533.495" x2="-909.958" y2="533.495" gradientTransform="matrix(25.6 0 0 -25.6 23321.32 13670.28)">
            <stop offset="0" stop-color="#30409a"></stop>
            <stop offset="1" stop-color="#662e91"></stop>
        </linearGradient>
        <circle cx="12.8" cy="12.8" r="12.8" fill="#4f3695" stroke="url(#b)" stroke-width="3"></circle>
        <path d="M23.9 19.2c2.3-4 2.3-8.8 0-12.8S17.4 0 12.8 0v12.8l11.1 6.4z" fill="#efebf5"></path>
    </g>
    <linearGradient id="c" gradientUnits="userSpaceOnUse" x1="-854.62" y1="532.891" x2="-853.536" y2="532.891" gradientTransform="matrix(12.8 0 0 -12.8 10965.2 6853)">
        <stop offset="0" stop-color="#30409a"></stop>
        <stop offset="1" stop-color="#662e91"></stop>
    </linearGradient>
    <circle cx="33" cy="32" r="6.4" fill="#fff" stroke="url(#c)" stroke-width="2"></circle>
</svg>
