<svg xmlns="http://www.w3.org/2000/svg" xmlns:xlink="http://www.w3.org/1999/xlink" viewBox="0 0 1920 820"><defs><style>.cls-1{fill:#f7f8fb;}.cls-17,.cls-2,.cls-21,.cls-7{fill:none;}.cls-14,.cls-15,.cls-19,.cls-3{fill:#fff;}.cls-14,.cls-3{stroke:#b7bddc;}.cls-14,.cls-21,.cls-3,.cls-7{stroke-miterlimit:10;}.cls-17,.cls-19,.cls-3,.cls-7{stroke-width:2px;}.cls-4{fill:#e7eaf3;}.cls-5{fill:url(#radial-gradient);}.cls-6{fill:#cacee5;}.cls-17,.cls-19,.cls-21,.cls-7{stroke:#30409a;}.cls-8{fill:url(#radial-gradient-2);}.cls-9{fill:url(#radial-gradient-3);}.cls-10{fill:url(#radial-gradient-4);}.cls-11{fill:url(#radial-gradient-5);}.cls-12{opacity:0.5;}.cls-13{fill:url(#radial-gradient-6);}.cls-16{fill:#bcc4e3;}.cls-17,.cls-19{stroke-linecap:round;stroke-linejoin:round;}.cls-18{fill:#d7dbeb;}.cls-20{fill:#30409a;}.cls-22{opacity:0.48;}</style><radialGradient id="radial-gradient" cx="88.59" cy="7.76" r="55.24" gradientUnits="userSpaceOnUse"><stop offset="0" stop-color="#f7f8fb"/><stop offset="0.44" stop-color="#f7f8fb" stop-opacity="0.98"/><stop offset="1" stop-color="#f7f8fb" stop-opacity="0"/></radialGradient><radialGradient id="radial-gradient-2" cx="4.87" cy="568.19" r="49.1" xlink:href="#radial-gradient"/><radialGradient id="radial-gradient-3" cx="557.8" cy="783.14" r="40.63" gradientTransform="translate(-243.83 -156.55) scale(1.17 1.24)" gradientUnits="userSpaceOnUse"><stop offset="0" stop-color="#f7f8fb"/><stop offset="0.44" stop-color="#f7f8fb"/><stop offset="1" stop-color="#f7f8fb" stop-opacity="0"/></radialGradient><radialGradient id="radial-gradient-4" cx="599.67" cy="807.56" r="49.39" xlink:href="#radial-gradient"/><radialGradient id="radial-gradient-5" cx="1142.11" cy="810.56" r="54.16" xlink:href="#radial-gradient"/><radialGradient id="radial-gradient-6" cx="1996.79" cy="341.54" r="51.24" gradientTransform="matrix(0.96, 0.29, -0.29, 0.96, 97.33, -869.3)" xlink:href="#radial-gradient"/></defs><title>map-noidorf</title><g id="Фон"><rect class="cls-1" width="1920" height="820"/><path class="cls-2" d="M1623.9,113.89,1774.54,280v23.85l-19,10.55L1155.78,488l-100.52,17L288.09,528.89l-23.95-225s-72.82-167-69.83-167S452.47,78,452.47,78L476,83.58,495,95.26,622.73,313.4l17.74,22.87,18.62,8h20.4l286.87-74.76,649.56-164Z"/></g><g id="Дороги"><path class="cls-3" d="M303.71,536.44l472.71-15.78-.12.09L843.59,601a83.07,83.07,0,0,0,28.77,22l136.13,62.61a97.76,97.76,0,0,1,32.35,24L1142.2,823.33l7.47-6.66L1048.31,702.83a107.71,107.71,0,0,0-35.64-26.38L876.54,613.83a73,73,0,0,1-25.29-19.3l-62.32-74.29L1023,512.42a580,580,0,0,0,141.11-22.3l604.41-173.85a24,24,0,0,0,11.47-38.9l-138.46-158.8a10.85,10.85,0,0,1,5.71-17.69l271.9-68.34.86-8.6L679.39,336a43,43,0,0,1-47.88-20.47l-120-210.22a61.92,61.92,0,0,0-67.84-29.61L206,131.09c-2.67.37-27.11,6.69-40.91,1L162.72,131c-14.35-9-23.25-21.09-29.83-36.72L93.22,0H76.59l52.15,114.81A25.39,25.39,0,0,1,131,125.32h0a25.46,25.46,0,0,0,5.54,15.84c10.17,12.83,35,39.66,79.6,63.18l32.25,81.14a153.84,153.84,0,0,1,10.17,42.15L276.34,513A28.2,28.2,0,0,1,273.67,528h0a82.46,82.46,0,0,1-22.58,28.19c-6.64,5.37-13,12.54-13.82,20.49-1.07,10.71,8.15,17.46,16.08,21.24,34.33,16.37,73.78,33.25,76.22,34.29,1.68.83,29.21,14.77,47.35,44.6,20.28,33.34,62.41,49.62,64.19,50.3,1.29.49,129.06,49.46,153.49,95.29l8.82-4.7c-26.18-49.13-153.36-97.89-158.76-99.94-.4-.16-40.72-15.78-59.19-46.14-20.16-33.15-50.39-47.86-51.67-48.47l-.19-.09c-.41-.17-40.88-17.44-76-34.17-4.81-2.29-10.53-6-10.46-10.64.08-5.55,6.86-11.91,13.12-16.47,4.93-3.59,9.67-7.41,14.28-11.4C281.06,544.71,291.71,537.32,303.71,536.44ZM151.09,140.62c5.61,1.91,11.15,3.1,15.13,4.08,10.37,2.56,24.74,6.12,35.73,23.88l4.66,11.73C192.71,174,162,158.5,151.09,140.62Zm999.38,341.25a82.51,82.51,0,0,1-18.82,5.26c-16.68,2.58-50.69,7.77-63.44,9.71a93,93,0,0,1-10,1L552.79,517.21l-237.56,6.88a23.41,23.41,0,0,1-23.76-20.94c-4.55-42.89-14.73-139.19-19.26-184.28A154,154,0,0,0,260,272.47L207,151.42a9.32,9.32,0,0,1,6.74-11.62L443.07,83.7a50.48,50.48,0,0,1,56,24.31L541,182.68,610.8,312.19a68.05,68.05,0,0,0,76.48,33.73l104.61-26.24L949.64,280a28.7,28.7,0,0,1,28.39,8.7l11.25,12.58a8.07,8.07,0,0,1-3.41,13L960,323.16l-16.58-22.68a8,8,0,0,0-8.5-3L914.45,303a2.48,2.48,0,0,0-1.35,3.87c5.51,7.43,19.52,26.5,18.45,26.77-1.33.33-74.15,20.28-74.15,20.28l-18.27-27.27a5.92,5.92,0,0,0-6.43-2.42l-41.1,10.89,33.94,45.43,14.13-2.78a26.49,26.49,0,0,1,26.85,10.85l.15.2A7.76,7.76,0,0,1,860.59,401L727.42,405.8A8.15,8.15,0,0,0,719.7,401l-15.73.56a8,8,0,0,0-7.52,5.26L647.75,409a15.05,15.05,0,0,1-14.18-8.38L603.67,340,523.52,196.31,488.21,201l-1.48,3.2-22.3,3.72L462.92,211l7.87,11.34,53.69-7.67,50.2,92.78a3,3,0,0,1-2.27,4.08l-18,3.27L564.75,334l20.69-3.6a4.92,4.92,0,0,1,5.27,2.73l31.5,66.12c2.24,4.86-2.21,10.44-7.57,10.6l-176.25,5.33a9.06,9.06,0,0,0-8-4.58l-15.62.23L419,427.71l16-1.54a4.65,4.65,0,0,0,4.12-3.73l179.24-6.65,2.42,28.88h36l-11-29.61s10.81-.6,11.12-.6,32.85-1.32,39.92-1.61a8.17,8.17,0,0,0,7.79,5l15.73-.57a8.19,8.19,0,0,0,7.53-5.88l133.69-5.53a14.31,14.31,0,0,1,14.63,11.49,5,5,0,0,1-4.45,6l-4.48.45L871.69,464l4.74,2a3.57,3.57,0,0,1,.78,6.1l-4.52,3.5,1.67,7,173.58-7-2.33-26.27,67.18-21.94,40.48,40.48A8.55,8.55,0,0,1,1150.47,481.87Zm-99-44.14c-4.65,0-8.42-2.25-8.42-5,0-1.89,1.76-3.54,4.35-4.4l-.19-.32c-16-28-44.8-32.72-44.8-32.72h-.3a10.59,10.59,0,0,1-5.64,1.46c-4.65,0-8.42-2.25-8.42-5,0-2.43,2.89-4.45,6.73-4.92l57-12.26a14.71,14.71,0,0,1,13.81,4.3c8.64,9.16,25.34,26.37,34.09,35.36a5.14,5.14,0,0,1-2,8.45l-41.53,14.25,0,0A12.72,12.72,0,0,1,1051.49,437.73Zm-162.36,7.08-.13-.56a3.65,3.65,0,0,1,3.19-4.49l11.65-1.14-.22-4.88-11.64,1a3.65,3.65,0,0,1-.63-7.27c3.74-.33,9.36-.82,9.74-.82.58,0,0-5.76,0-5.76l-5.54.42a9.55,9.55,0,0,1-2.43-18.93L895,402l27.24-3.29a142.8,142.8,0,0,1,15.19-1l14.67-.2c28-1.31,79,17.66,81.46,45.54h0l2.44,26.6-133.24,4.65h-5.55a5.51,5.51,0,0,1-2.26-10.53l6.17-2.77v-4.87A15.11,15.11,0,0,1,889.13,444.81Zm90.13-70.61a6.13,6.13,0,0,1-3.34,9.54A12.79,12.79,0,0,1,962.25,379L936.5,343.19a4.06,4.06,0,0,1,2.19-6.33h0a17.31,17.31,0,0,1,18.59,6.47Zm-13.57-45.34h0a17.31,17.31,0,0,1,18.59,6.47l24,32.91a6.13,6.13,0,0,1-3.34,9.54A12.78,12.78,0,0,1,991.31,373L963.5,335.19A4.06,4.06,0,0,1,965.69,328.86ZM951.3,381.24a6.13,6.13,0,0,1-3.34,9.54h0A12.79,12.79,0,0,1,934.29,386L909.5,351.19a4.06,4.06,0,0,1,2.19-6.33h0a17.31,17.31,0,0,1,18.59,6.47Zm-29.56,2.89a5.51,5.51,0,0,1-3.48,8.65l-22.37,4a20.32,20.32,0,0,1-20.14-8.21l-17.33-24.28a3.52,3.52,0,0,1,1.92-5.43l19.79-5.55a23.8,23.8,0,0,1,25.69,8.93Zm121-14.63-10.44,3a9,9,0,0,1-9.54-3.09l-32.3-41.22a4.77,4.77,0,0,1,2.42-7.52l1.22-.35a20.67,20.67,0,0,1,20.9,5.72l30.67,32.81A6.47,6.47,0,0,1,1042.69,369.5ZM1292.09,443,1181,475.64l-97.1-99.09h0a5.83,5.83,0,0,1,2.85-9.35c22.11-6.32,80.49-22.6,94.21-26.43a5.7,5.7,0,0,1,5.23,1.16c3.5,3,2.18,7.71-2.29,8.85l-88.58,25L1149,430.42l23,24.27,113.65-33.62a11.42,11.42,0,1,1,6.46,21.9Zm387-260,87.21,99.91a15,15,0,0,1-7.12,24.22l-437.9,126.6-57.86-71.16-22.12-27.27-31.23,8.48a5.62,5.62,0,0,1-6-2.06h0a5.62,5.62,0,0,1,3-8.8l226.16-61.05c5-1.37,10.31-.4,13.2,3.9l10.82,16.12,39.4-11-11.18-15a6.2,6.2,0,0,1,3.22-9.65l5.33-1.57,4.32,5.09,21.22-6.58-10.14-15.25-22.38,6.76,4,5.32-218.59,56.41L1252.6,284c-.92-.95-2.19.71-3.45,1.1l-33.3,10.71c-1.83.58-7.64,1.78-6.59,3.38l10.25,13.17c3.63,4.17,3.09,9.7-2.23,11.21L1079.6,360.38a16.17,16.17,0,0,1-15.67-4.2c-16.2-16.18-57.75-57.74-75.49-75.64a6.78,6.78,0,0,1,3.14-11.34l429.47-109.47,179.38-45a27.66,27.66,0,0,1,27.73,8.83Z"/><path class="cls-4" d="M1799.46,328.07l-549,160.66a23.47,23.47,0,0,0-14.38,33.06L1385.8,820H1920V489.45l-38-56.89-40.21-85.45A35.67,35.67,0,0,0,1799.46,328.07Z"/><circle class="cls-5" cx="88.59" cy="7.76" r="55.24"/><path class="cls-4" d="M415.08,831.18c-34.42-20.25-55.4-42.61-62.38-66.48-6.08-20.82-.33-38.66,3.11-49.32.71-2.2,1.32-4.1,1.74-5.7,4.81-18.37-13.35-40.29-49.83-60.16-9.54-5.19-24.42-7.82-44.23-7.82-43.36,0-99.4,12.2-126.34,18.07-8.47,1.84-14.56,3.17-18.07,3.71l-2.15.34c-8.12,1.29-21.72,3.45-35.74,3.46-18.88,0-32.95-3.92-41.81-11.63-7.54-6.57-11.25-15.67-11-27,.69-34.35-22.58-50.69-29.28-54.68L4.4,563.14c7.64,4.37,36.8,23.82,36,65.72-.16,7.75,2.1,13.55,6.91,17.74,6.54,5.71,17.88,8.6,33.7,8.6,13.77,0,27.48-2.18,34.06-3.23l2.21-.35c3.15-.48,9.37-1.84,17.25-3.55,31.68-6.9,84.52-18.41,128.05-18.41,22.42,0,39.56,3.14,50.92,9.32,21.87,11.91,37.68,24.49,47,37.4,11,15.3,10.83,28.21,8.7,36.34-.51,1.92-1.2,4.06-1.93,6.32-3.4,10.57-8.06,25-3,42.3,6.09,20.83,25.22,40.83,56.87,59.46Z"/><path class="cls-6" d="M5.23,566c9.33,5.83,33.89,24.82,33.13,62.84-.17,8.27,2.38,14.76,7.59,19.3,6.93,6,18.71,9.09,35,9.09,13.92,0,27.74-2.2,34.38-3.25l2.19-.35c3.22-.5,9.47-1.86,17.38-3.58l.1,0c31.49-6.86,84.2-18.34,127.53-18.34,22.08,0,38.89,3.06,49.95,9.08,21.61,11.76,37.2,24.15,46.33,36.81,10.6,14.67,10.41,27,8.39,34.67-.49,1.86-1.17,4-1.89,6.22-3.49,10.8-8.25,25.59-3,43.46,6.13,21,25,41,56.07,59.61l-4,6.92c-32.93-19.71-53-41.32-59.74-64.29-5.91-20.23-.28-37.71,3.09-48.15.72-2.22,1.34-4.14,1.77-5.8,2.58-9.85-.94-20.85-10.18-31.8-8.8-10.43-22.47-20.74-40.63-30.62-9.83-5.36-25-8.07-45.18-8.07-43.57,0-99.76,12.23-126.77,18.12h-.06c-8.38,1.82-14.43,3.14-17.9,3.68l-2.15.34c-8.06,1.28-21.56,3.43-35.42,3.43-18.39,0-32-3.75-40.49-11.14C33.62,648,30.14,639.4,30.36,628.65c.66-33-20.23-50-28.68-55.45L5.23,566M3.52,560.4l-7.07,14.35c1.25.63,30.68,15.82,29.91,53.82-.24,12,3.7,21.61,11.71,28.59,10.85,9.45,27.36,12.12,43.12,12.12,14.18,0,27.75-2.16,36.05-3.48l2.15-.34c3.58-.56,9.7-1.89,18.18-3.74,26.08-5.68,82.77-18,125.92-18,17.73,0,33.18,2.09,43.27,7.58,35.61,19.39,53.41,40.49,48.85,57.9-.4,1.54-1,3.41-1.71,5.58-3.5,10.88-9.38,29.1-3.12,50.51,7.25,24.77,29.12,47.87,65,68.65l8-13.84c-32.22-18.66-51.63-38.61-57.68-59.3-4.88-16.69-.33-30.81,3-41.11.74-2.29,1.44-4.46,2-6.44,2.24-8.55,2.49-22.09-9-38-9.49-13.15-25.53-25.93-47.67-38-12.78-7-31.22-9.57-51.87-9.57-43.74,0-97.42,11.69-128.38,18.43-7.89,1.72-14.12,3.08-17.23,3.56l-2.2.35c-6.58,1-20.14,3.2-33.76,3.2-12.58,0-25.2-1.84-32.39-8.11-4.33-3.77-6.37-9.07-6.22-16.19,1-48.44-37.22-67.7-38.84-68.5Z"/><path class="cls-7" d="M415.81,833.92c-35.91-20.78-57.78-43.88-65-68.65-6.26-21.41-.38-39.63,3.12-50.51.7-2.17,1.31-4,1.71-5.58,4.56-17.41-13.24-38.51-48.85-57.9-34.63-18.86-132.39,2.43-169.19,10.44-8.48,1.85-14.6,3.18-18.18,3.74l-2.15.34c-17.52,2.78-58.56,9.31-79.17-8.64-8-7-11.95-16.6-11.71-28.59.77-38-28.66-53.19-29.91-53.82L3.52,560.4c1.62.8,39.81,20.06,38.83,68.5-.14,7.12,1.9,12.42,6.23,16.19,15,13,53.49,6.92,66.15,4.91l2.2-.35c3.11-.48,9.34-1.84,17.23-3.56,45.57-9.92,140.39-30.57,180.25-8.86,22.14,12,38.18,24.83,47.67,38,11.5,15.93,11.25,29.47,9,38-.52,2-1.22,4.15-2,6.44-3.32,10.3-7.87,24.42-3,41.11,6.05,20.69,25.46,40.64,57.68,59.3Z"/><circle class="cls-8" cx="4.87" cy="568.19" r="49.1"/><ellipse class="cls-9" cx="406.1" cy="815.61" rx="47.34" ry="50.44"/><circle class="cls-10" cx="599.67" cy="807.56" r="49.39"/><circle class="cls-11" cx="1142.11" cy="810.56" r="54.16"/><g class="cls-12"><path class="cls-6" d="M1352.53,563.39a9.11,9.11,0,0,1-9.1,9.1,7.68,7.68,0,0,1-1.43-.13s-.12,0-.17,0h-.12a1.38,1.38,0,0,0-1.39,1.4v.16l.37,5a.82.82,0,0,1-.82.82h-4.63a.82.82,0,0,1-.82-.82l.36-4.88v-.2h0a1.38,1.38,0,0,0-1.39-1.4h-.2a8.43,8.43,0,0,1-1.52.13,9.11,9.11,0,0,1-9.1-9.1,8.9,8.9,0,0,1,2.5-6.27l0,0a1.27,1.27,0,0,0,.37-.94.68.68,0,0,0,0-.28v-.09a11.39,11.39,0,0,1-.21-2A9.75,9.75,0,0,1,1335,544a9.91,9.91,0,0,1,7.09,3s0,0,.08.08h0a1.43,1.43,0,0,0,1,.41.51.51,0,0,0,.24,0s.12,0,.17,0h0a7.24,7.24,0,0,1,8.93,7.09,6.9,6.9,0,0,1-.86,3.4.14.14,0,0,1,0,.09,1.51,1.51,0,0,0-.12.61,1.71,1.71,0,0,0,.12.62h0A9.79,9.79,0,0,1,1352.53,563.39Z"/><path class="cls-6" d="M1421.94,666.45a9.1,9.1,0,0,1-9.1,9.09,8.66,8.66,0,0,1-1.44-.12l-.16,0h-.13a1.39,1.39,0,0,0-1.39,1.39v.17l.37,5a.82.82,0,0,1-.82.82h-4.63a.82.82,0,0,1-.82-.82l.37-4.88v-.2h0a1.39,1.39,0,0,0-1.4-1.4h-.2a9.27,9.27,0,0,1-1.52.12,9.1,9.1,0,0,1-9.1-9.09,9,9,0,0,1,2.5-6.28l0,0a1.27,1.27,0,0,0,.37-.94.75.75,0,0,0,0-.29v-.08a11.4,11.4,0,0,1-.2-2.05,9.74,9.74,0,0,1,9.75-9.75,9.91,9.91,0,0,1,7.09,3s0,0,.09.08h0a1.39,1.39,0,0,0,1,.41.57.57,0,0,0,.25,0l.16,0h0a7.24,7.24,0,0,1,8.93,7.09,6.79,6.79,0,0,1-.86,3.4.19.19,0,0,1,0,.09,1.51,1.51,0,0,0-.12.61,1.62,1.62,0,0,0,.12.61h0A9.73,9.73,0,0,1,1421.94,666.45Z"/><path class="cls-6" d="M1614.25,528.61a9.11,9.11,0,0,1-9.1,9.1,8.66,8.66,0,0,1-1.44-.12l-.16,0h-.13a1.38,1.38,0,0,0-1.39,1.39v.16l.37,5a.82.82,0,0,1-.82.82H1597a.82.82,0,0,1-.82-.82l.37-4.88V539h0a1.38,1.38,0,0,0-1.4-1.39h-.2a9.27,9.27,0,0,1-1.52.12,9.11,9.11,0,0,1-9.1-9.1,9,9,0,0,1,2.5-6.27l0,0a1.33,1.33,0,0,0,.36-.94.7.7,0,0,0,0-.29V521a11.58,11.58,0,0,1-.2-2,9.75,9.75,0,0,1,9.75-9.76,9.91,9.91,0,0,1,7.09,3s0,0,.09.09h0a1.44,1.44,0,0,0,1,.41.57.57,0,0,0,.25,0s.12,0,.16,0h0a7.24,7.24,0,0,1,8.93,7.1,6.82,6.82,0,0,1-.86,3.4.14.14,0,0,1,0,.08,1.51,1.51,0,0,0-.12.61,1.71,1.71,0,0,0,.12.62h0A9.66,9.66,0,0,1,1614.25,528.61Z"/><path class="cls-6" d="M1435.13,470.52h0a.75.75,0,0,0,.06-.29.65.65,0,0,0-.06-.29.07.07,0,0,1,0,0,3.3,3.3,0,0,1-.4-1.62,3.46,3.46,0,0,1,3.46-3.46,3.33,3.33,0,0,1,.78.09h0l.08,0a.23.23,0,0,0,.11,0,.69.69,0,0,0,.47-.19h0s0,0,0,0a4.71,4.71,0,0,1,3.37-1.44,4.63,4.63,0,0,1,4.63,4.63,6.38,6.38,0,0,1-.09,1v0a.34.34,0,0,0,0,.14.64.64,0,0,0,.17.45l0,0a4.24,4.24,0,0,1,1.19,3,4.33,4.33,0,0,1-4.32,4.32,4.11,4.11,0,0,1-.72-.06h-.1a.65.65,0,0,0-.66.66h0v.1l.17,2.32a.39.39,0,0,1-.39.39h-2.2a.4.4,0,0,1-.39-.39l.18-2.36v-.08a.65.65,0,0,0-.66-.66h-.06l-.08,0a3.91,3.91,0,0,1-.68.06,4.32,4.32,0,0,1-4.32-4.32A4.66,4.66,0,0,1,1435.13,470.52Z"/><path class="cls-6" d="M1428,740.56h0a.8.8,0,0,0,.06-.3.72.72,0,0,0-.06-.29.07.07,0,0,1,0,0,3.16,3.16,0,0,1-.41-1.61,3.48,3.48,0,0,1,3.46-3.47,3.27,3.27,0,0,1,.78.1h0l.08,0a.25.25,0,0,0,.12,0,.69.69,0,0,0,.47-.2h0s0,0,0,0a4.75,4.75,0,0,1,3.37-1.44,4.64,4.64,0,0,1,4.64,4.64,5.15,5.15,0,0,1-.1,1v0a.34.34,0,0,0,0,.14.59.59,0,0,0,.18.44v0a4.24,4.24,0,0,1,1.19,3,4.32,4.32,0,0,1-4.32,4.32,4.21,4.21,0,0,1-.72-.05h-.1a.65.65,0,0,0-.66.66h0v.1l.18,2.31a.39.39,0,0,1-.39.39h-2.2a.38.38,0,0,1-.39-.39l.17-2.35v-.08a.65.65,0,0,0-.66-.66h-.06l-.08,0a3.82,3.82,0,0,1-.68.05,4.32,4.32,0,0,1-4.32-4.32A4.49,4.49,0,0,1,1428,740.56Z"/><path class="cls-6" d="M1359.29,626.87h0a.8.8,0,0,0,.06-.3.72.72,0,0,0-.06-.29.07.07,0,0,1,0,0,3.16,3.16,0,0,1-.41-1.61,3.48,3.48,0,0,1,3.46-3.47,3.27,3.27,0,0,1,.78.1h0l.08,0a.25.25,0,0,0,.12,0,.69.69,0,0,0,.47-.2h0s0,0,0,0a4.75,4.75,0,0,1,3.37-1.44,4.64,4.64,0,0,1,4.64,4.64,5.15,5.15,0,0,1-.1,1v0a.34.34,0,0,0,0,.14.59.59,0,0,0,.18.44v0a4.24,4.24,0,0,1,1.19,3,4.32,4.32,0,0,1-4.32,4.32,5.55,5.55,0,0,1-.72,0h-.1a.65.65,0,0,0-.66.66h0v.1l.18,2.31a.39.39,0,0,1-.39.39h-2.2a.38.38,0,0,1-.39-.39l.17-2.35v-.08a.65.65,0,0,0-.66-.66h-.06l-.08,0a5.06,5.06,0,0,1-.68,0,4.32,4.32,0,0,1-4.32-4.32A4.49,4.49,0,0,1,1359.29,626.87Z"/><path class="cls-6" d="M1510.84,722.09h0a.79.79,0,0,0,.06-.29.73.73,0,0,0-.06-.3.07.07,0,0,1,0,0,3.27,3.27,0,0,1-.41-1.61,3.48,3.48,0,0,1,3.47-3.47,3.4,3.4,0,0,1,.78.1h0l.07,0a.25.25,0,0,0,.12,0,.69.69,0,0,0,.47-.2h0s0,0,0,0a4.71,4.71,0,0,1,3.36-1.44,4.64,4.64,0,0,1,4.64,4.64,5.15,5.15,0,0,1-.1,1v0a.34.34,0,0,0,0,.14.59.59,0,0,0,.18.44l0,0a4.25,4.25,0,0,1,1.18,3,4.32,4.32,0,0,1-4.32,4.33,4.2,4.2,0,0,1-.72-.06h-.1a.65.65,0,0,0-.66.66h0v.1l.18,2.31a.39.39,0,0,1-.39.39h-2.2a.38.38,0,0,1-.39-.39l.17-2.35V729a.65.65,0,0,0-.66-.66h-.06l-.08,0a3.82,3.82,0,0,1-.68.06,4.33,4.33,0,0,1-4.32-4.33A4.63,4.63,0,0,1,1510.84,722.09Z"/><path class="cls-6" d="M1407.4,591.47h0a.75.75,0,0,0,.06-.29.65.65,0,0,0-.06-.29.07.07,0,0,1,0,0,3.33,3.33,0,0,1-.41-1.62,3.48,3.48,0,0,1,3.47-3.47,3.33,3.33,0,0,1,.78.1h0l.08,0a.22.22,0,0,0,.11,0,.71.71,0,0,0,.47-.19h0s0,0,0,0a4.69,4.69,0,0,1,3.37-1.44,4.63,4.63,0,0,1,4.63,4.63,5.15,5.15,0,0,1-.1,1v0a.66.66,0,0,0,0,.14.62.62,0,0,0,.17.45l0,0a4.24,4.24,0,0,1,1.19,3,4.33,4.33,0,0,1-5,4.26h-.09a.65.65,0,0,0-.66.66h0v.1l.17,2.32a.39.39,0,0,1-.39.39H1413a.4.4,0,0,1-.39-.39l.18-2.36v-.08a.66.66,0,0,0-.67-.66h0l-.08,0a4,4,0,0,1-.68.06,4.33,4.33,0,0,1-4.33-4.32A4.64,4.64,0,0,1,1407.4,591.47Z"/><path class="cls-6" d="M1513.81,567.49h0a.79.79,0,0,0,.06-.29.73.73,0,0,0-.06-.3,0,0,0,0,1,0,0,3.33,3.33,0,0,1-.41-1.62,3.48,3.48,0,0,1,3.47-3.47,3.25,3.25,0,0,1,.77.1h0l.08,0a.25.25,0,0,0,.12,0,.73.73,0,0,0,.47-.19h0s0,0,0,0a4.64,4.64,0,0,1,8,3.19,5.15,5.15,0,0,1-.1,1v0a.34.34,0,0,0,0,.14.63.63,0,0,0,.18.45l0,0a4.23,4.23,0,0,1,1.18,3,4.32,4.32,0,0,1-4.32,4.33,4.2,4.2,0,0,1-.72-.06h-.1a.65.65,0,0,0-.66.66h0v.1l.18,2.32a.39.39,0,0,1-.39.38h-2.2a.38.38,0,0,1-.39-.38l.17-2.36v-.08a.65.65,0,0,0-.66-.66h-.06l-.08,0a3.82,3.82,0,0,1-.68.06,4.33,4.33,0,0,1-4.32-4.33A4.63,4.63,0,0,1,1513.81,567.49Z"/><path class="cls-6" d="M1671.58,434.13a9.1,9.1,0,0,1-9.1,9.1,8.63,8.63,0,0,1-1.43-.12l-.17,0h-.12a1.37,1.37,0,0,0-1.39,1.39v.17l.36,5a.82.82,0,0,1-.82.82h-4.63a.82.82,0,0,1-.82-.82l.37-4.88v-.21h0a1.37,1.37,0,0,0-1.39-1.39h-.21a9.24,9.24,0,0,1-1.51.12,9.11,9.11,0,0,1-9.1-9.1,8.92,8.92,0,0,1,2.5-6.27l0,0a1.27,1.27,0,0,0,.37-.94.73.73,0,0,0,0-.29v-.08a10.64,10.64,0,0,1-.21-2.05,9.75,9.75,0,0,1,9.76-9.75,9.9,9.9,0,0,1,7.09,3s0,0,.08.08h0a1.41,1.41,0,0,0,1,.41.53.53,0,0,0,.25,0l.16,0h0a7.44,7.44,0,0,1,1.64-.21,7.32,7.32,0,0,1,7.3,7.3,6.9,6.9,0,0,1-.86,3.4.14.14,0,0,1,0,.08,1.56,1.56,0,0,0-.13.62,1.67,1.67,0,0,0,.13.61h0A9.83,9.83,0,0,1,1671.58,434.13Z"/><path class="cls-6" d="M1551,515a9.11,9.11,0,0,1-9.1,9.1,8.63,8.63,0,0,1-1.43-.12l-.17,0h-.12a1.37,1.37,0,0,0-1.39,1.39v.16l.37,5a.82.82,0,0,1-.82.82h-4.64a.82.82,0,0,1-.82-.82l.37-4.87v-.21h0a1.37,1.37,0,0,0-1.39-1.39h-.21a9.24,9.24,0,0,1-1.51.12,9.11,9.11,0,0,1-9.1-9.1,8.92,8.92,0,0,1,2.5-6.27l0,0a1.28,1.28,0,0,0,.37-.94.73.73,0,0,0,0-.29v-.08a10.64,10.64,0,0,1-.21-2.05,9.76,9.76,0,0,1,9.76-9.76,9.9,9.9,0,0,1,7.09,3s0,0,.08.08h0a1.43,1.43,0,0,0,1,.41.53.53,0,0,0,.25,0l.16,0h0a6.89,6.89,0,0,1,1.64-.21,7.32,7.32,0,0,1,7.3,7.3,6.9,6.9,0,0,1-.86,3.4.14.14,0,0,1,0,.08,1.56,1.56,0,0,0-.13.62,1.67,1.67,0,0,0,.13.61h0A9.83,9.83,0,0,1,1551,515Z"/><path class="cls-6" d="M1801.52,454.54a9.1,9.1,0,0,1-9.1,9.1,8.63,8.63,0,0,1-1.43-.12s-.13,0-.17,0h-.12a1.37,1.37,0,0,0-1.39,1.39V465l.36,5a.82.82,0,0,1-.82.82h-4.63a.82.82,0,0,1-.82-.82l.37-4.88v-.21h0a1.37,1.37,0,0,0-1.39-1.39h-.21a9.24,9.24,0,0,1-1.51.12,9.11,9.11,0,0,1-9.1-9.1,8.92,8.92,0,0,1,2.5-6.27l0,0a1.31,1.31,0,0,0,.37-.94.73.73,0,0,0,0-.29v-.08a10.64,10.64,0,0,1-.21-2.05,9.75,9.75,0,0,1,9.76-9.75,9.9,9.9,0,0,1,7.09,3s0,0,.08.08h0a1.41,1.41,0,0,0,1,.41.53.53,0,0,0,.25,0l.16,0h0a7.44,7.44,0,0,1,1.64-.21,7.32,7.32,0,0,1,7.3,7.3,6.9,6.9,0,0,1-.86,3.4.14.14,0,0,1,0,.08,1.41,1.41,0,0,0-.13.62,1.49,1.49,0,0,0,.13.61h0A9.83,9.83,0,0,1,1801.52,454.54Z"/><path class="cls-6" d="M1590.34,465.52h0a.75.75,0,0,0,.06-.29.65.65,0,0,0-.06-.29.07.07,0,0,1,0,0,3.3,3.3,0,0,1-.41-1.62,3.47,3.47,0,0,1,3.47-3.46,3.39,3.39,0,0,1,.78.09h0l.07,0a.25.25,0,0,0,.12,0,.71.71,0,0,0,.47-.19h0s0,0,0,0a4.64,4.64,0,0,1,8,3.19,5.34,5.34,0,0,1-.1,1v0a.34.34,0,0,0,0,.14.61.61,0,0,0,.18.45l0,0a4.24,4.24,0,0,1,1.18,3,4.32,4.32,0,0,1-5,4.26h-.1a.65.65,0,0,0-.66.66h0v.1l.18,2.32a.4.4,0,0,1-.39.39h-2.2a.39.39,0,0,1-.39-.39l.17-2.36v-.08a.65.65,0,0,0-.66-.66H1595l-.07,0a4,4,0,0,1-.69.06,4.33,4.33,0,0,1-4.32-4.32A4.67,4.67,0,0,1,1590.34,465.52Z"/><path class="cls-6" d="M1729.31,465.52h0a.75.75,0,0,0,.06-.29.65.65,0,0,0-.06-.29.07.07,0,0,1,0,0,3.3,3.3,0,0,1-.41-1.62,3.47,3.47,0,0,1,3.47-3.46,3.25,3.25,0,0,1,.77.09h0l.08,0a.25.25,0,0,0,.12,0,.73.73,0,0,0,.47-.19h0s0,0,0,0a4.64,4.64,0,0,1,8,3.19,5.34,5.34,0,0,1-.1,1v0a.34.34,0,0,0,0,.14.61.61,0,0,0,.18.45l0,0a4.24,4.24,0,0,1,1.18,3,4.32,4.32,0,0,1-4.32,4.32,4.2,4.2,0,0,1-.72-.06h-.1a.65.65,0,0,0-.66.66h0v.1l.18,2.32a.4.4,0,0,1-.39.39h-2.2a.39.39,0,0,1-.39-.39l.17-2.36v-.08a.65.65,0,0,0-.66-.66h-.06l-.08,0a3.82,3.82,0,0,1-.68.06,4.33,4.33,0,0,1-4.32-4.32A4.67,4.67,0,0,1,1729.31,465.52Z"/><path class="cls-6" d="M1729.31,542.72h0a.72.72,0,0,0,.06-.29.68.68,0,0,0-.06-.29.07.07,0,0,1,0,0,3.3,3.3,0,0,1-.41-1.62,3.48,3.48,0,0,1,3.47-3.46,3.86,3.86,0,0,1,.77.09h0l.08,0a.25.25,0,0,0,.12,0,.68.68,0,0,0,.47-.19h0s0,0,0,0a4.64,4.64,0,0,1,8,3.19,5.25,5.25,0,0,1-.1,1v0a.27.27,0,0,0,0,.13.61.61,0,0,0,.18.45l0,0a4.24,4.24,0,0,1,1.18,3,4.32,4.32,0,0,1-4.32,4.32,4.2,4.2,0,0,1-.72-.06h-.1a.65.65,0,0,0-.66.66h0v.1l.18,2.32a.4.4,0,0,1-.39.39h-2.2a.39.39,0,0,1-.39-.39l.17-2.36v-.07a.66.66,0,0,0-.66-.67h-.06l-.08,0a3.82,3.82,0,0,1-.68.06,4.33,4.33,0,0,1-4.32-4.32A4.71,4.71,0,0,1,1729.31,542.72Z"/><path class="cls-6" d="M1692.76,508.65h0a.75.75,0,0,0,.06-.29.68.68,0,0,0-.06-.29.07.07,0,0,1,0,0,3.3,3.3,0,0,1-.41-1.62,3.48,3.48,0,0,1,3.47-3.46,3.86,3.86,0,0,1,.77.09h0l.08,0a.25.25,0,0,0,.12,0,.68.68,0,0,0,.47-.19h0s0,0,0,0a4.64,4.64,0,0,1,8,3.19,5.25,5.25,0,0,1-.1,1v0a.27.27,0,0,0,0,.13.61.61,0,0,0,.18.45l0,0a4.24,4.24,0,0,1,1.18,3,4.32,4.32,0,0,1-4.32,4.32,4.2,4.2,0,0,1-.72-.06h-.1a.65.65,0,0,0-.66.66h0v.1l.18,2.32a.4.4,0,0,1-.39.39h-2.2a.39.39,0,0,1-.39-.39l.17-2.36v-.07a.66.66,0,0,0-.66-.67h-.06l-.08,0a3.82,3.82,0,0,1-.68.06,4.33,4.33,0,0,1-4.32-4.32A4.71,4.71,0,0,1,1692.76,508.65Z"/><path class="cls-6" d="M1699.87,417.7h0a.8.8,0,0,0,.06-.3.72.72,0,0,0-.06-.29.1.1,0,0,1,0,0,3.16,3.16,0,0,1-.41-1.61,3.47,3.47,0,0,1,3.46-3.47,3.33,3.33,0,0,1,.78.1h0l.08,0a.25.25,0,0,0,.12,0,.65.65,0,0,0,.46-.2h0s0,0,0,0a4.75,4.75,0,0,1,3.37-1.44,4.63,4.63,0,0,1,4.63,4.64,5.15,5.15,0,0,1-.09,1v0a.34.34,0,0,0,0,.14.62.62,0,0,0,.17.44l0,0a4.24,4.24,0,0,1,1.19,3,4.32,4.32,0,0,1-4.32,4.32,5.43,5.43,0,0,1-.72-.05h-.1a.65.65,0,0,0-.66.66h0v.1L1708,427a.38.38,0,0,1-.39.39h-2.2a.39.39,0,0,1-.39-.39l.18-2.35v-.08a.65.65,0,0,0-.66-.66h-.06l-.08,0a5.19,5.19,0,0,1-.68.05,4.31,4.31,0,0,1-4.32-4.32A4.62,4.62,0,0,1,1699.87,417.7Z"/><path class="cls-6" d="M1550.74,666.45a9.1,9.1,0,0,1-9.1,9.09,8.84,8.84,0,0,1-1.44-.12l-.16,0h-.12a1.39,1.39,0,0,0-1.4,1.39v.17l.37,5a.82.82,0,0,1-.82.82h-4.63a.82.82,0,0,1-.82-.82L1533,677v-.2h0a1.38,1.38,0,0,0-1.39-1.4h-.21a9.24,9.24,0,0,1-1.51.12,9.09,9.09,0,0,1-9.1-9.09,8.94,8.94,0,0,1,2.5-6.28l0,0a1.31,1.31,0,0,0,.37-.94.75.75,0,0,0,0-.29v-.08a10.55,10.55,0,0,1-.21-2.05,9.75,9.75,0,0,1,9.76-9.75,9.94,9.94,0,0,1,7.09,3s0,0,.08.08h0a1.39,1.39,0,0,0,1,.41.55.55,0,0,0,.25,0l.16,0h0a7.25,7.25,0,0,1,8.94,7.09,6.9,6.9,0,0,1-.86,3.4.19.19,0,0,1,0,.09,1.36,1.36,0,0,0-.13.61,1.46,1.46,0,0,0,.13.61h0A9.87,9.87,0,0,1,1550.74,666.45Z"/><path class="cls-6" d="M1586.6,780.33a9.11,9.11,0,0,1-9.1,9.1,7.68,7.68,0,0,1-1.43-.13s-.13,0-.17,0h-.12a1.39,1.39,0,0,0-1.4,1.4v.16l.37,5a.82.82,0,0,1-.82.82h-4.63a.82.82,0,0,1-.82-.82l.37-4.88v-.2h0a1.38,1.38,0,0,0-1.39-1.4h-.21a8.24,8.24,0,0,1-1.51.13,9.1,9.1,0,0,1-9.1-9.1,8.92,8.92,0,0,1,2.5-6.27l0,0a1.35,1.35,0,0,0,.37-.95.68.68,0,0,0,0-.28v-.09a10.55,10.55,0,0,1-.21-2.05,9.76,9.76,0,0,1,9.76-9.75,9.94,9.94,0,0,1,7.09,3s0,0,.08.08h0a1.41,1.41,0,0,0,1,.41.55.55,0,0,0,.25,0l.16,0h0a7.44,7.44,0,0,1,1.64-.2,7.31,7.31,0,0,1,7.3,7.29,7,7,0,0,1-.86,3.41.14.14,0,0,1,0,.08,1.36,1.36,0,0,0-.13.61,1.53,1.53,0,0,0,.13.62h0A9.79,9.79,0,0,1,1586.6,780.33Z"/><path class="cls-6" d="M1707.29,716.42a9.11,9.11,0,0,1-9.1,9.1,8.63,8.63,0,0,1-1.43-.12l-.17,0h-.12a1.37,1.37,0,0,0-1.39,1.39v.16l.37,5a.82.82,0,0,1-.82.82H1690a.82.82,0,0,1-.82-.82l.37-4.87v-.21h0a1.37,1.37,0,0,0-1.39-1.39h-.2a9.45,9.45,0,0,1-1.52.12,9.11,9.11,0,0,1-9.1-9.1,8.92,8.92,0,0,1,2.5-6.27l0,0a1.28,1.28,0,0,0,.37-.94.73.73,0,0,0,0-.29v-.08a11.49,11.49,0,0,1-.21-2,9.76,9.76,0,0,1,9.76-9.76,9.88,9.88,0,0,1,7.09,3s0,0,.08.08h0a1.43,1.43,0,0,0,1,.41.51.51,0,0,0,.24,0l.16,0h0a6.89,6.89,0,0,1,1.64-.21,7.32,7.32,0,0,1,7.3,7.3,6.9,6.9,0,0,1-.86,3.4.14.14,0,0,1,0,.08,1.56,1.56,0,0,0-.12.62,1.66,1.66,0,0,0,.12.61h0A9.83,9.83,0,0,1,1707.29,716.42Z"/><path class="cls-6" d="M1583.22,705.13h0a.79.79,0,0,0,.06-.29.73.73,0,0,0-.06-.3.07.07,0,0,1,0,0,3.27,3.27,0,0,1-.41-1.61,3.48,3.48,0,0,1,3.47-3.47,3.33,3.33,0,0,1,.78.1h0l.08,0a.22.22,0,0,0,.11,0,.67.67,0,0,0,.47-.2h0s0,0,0,0a4.7,4.7,0,0,1,3.37-1.45,4.63,4.63,0,0,1,4.63,4.64,5.15,5.15,0,0,1-.1,1v0a.66.66,0,0,0,0,.14.62.62,0,0,0,.17.45l0,0a4.22,4.22,0,0,1,1.19,3,4.33,4.33,0,0,1-5,4.27h-.09a.65.65,0,0,0-.66.66h0v.1l.17,2.31a.38.38,0,0,1-.39.39h-2.2a.39.39,0,0,1-.39-.39l.18-2.35V712a.66.66,0,0,0-.67-.66h-.05l-.08,0a3.91,3.91,0,0,1-.68.06,4.33,4.33,0,0,1-4.33-4.33A4.63,4.63,0,0,1,1583.22,705.13Z"/><path class="cls-6" d="M1614.69,747h0a.79.79,0,0,0,.06-.29.65.65,0,0,0-.06-.29.07.07,0,0,1,0,0,3.32,3.32,0,0,1-.4-1.62,3.47,3.47,0,0,1,3.46-3.47,3.33,3.33,0,0,1,.78.1h0l.08,0a.23.23,0,0,0,.11,0,.71.71,0,0,0,.47-.19h0s0,0,0,0a4.71,4.71,0,0,1,3.37-1.44,4.63,4.63,0,0,1,4.63,4.63,6.14,6.14,0,0,1-.09,1v0a.34.34,0,0,0,0,.14.62.62,0,0,0,.17.45l0,0a4.24,4.24,0,0,1,1.19,3,4.33,4.33,0,0,1-4.32,4.32,4.11,4.11,0,0,1-.72-.06h-.1a.65.65,0,0,0-.66.66h0v.1l.17,2.32a.39.39,0,0,1-.39.39h-2.2a.4.4,0,0,1-.39-.39l.18-2.36v-.08a.65.65,0,0,0-.66-.66h-.06l-.08,0a3.91,3.91,0,0,1-.68.06,4.32,4.32,0,0,1-4.32-4.32A4.63,4.63,0,0,1,1614.69,747Z"/><path class="cls-6" d="M1789.43,525.8h0a.8.8,0,0,0,.06-.3.72.72,0,0,0-.06-.29.07.07,0,0,1,0,0,3.27,3.27,0,0,1-.41-1.61,3.48,3.48,0,0,1,3.47-3.47,3.33,3.33,0,0,1,.78.1h0l.08,0a.23.23,0,0,0,.11,0,.67.67,0,0,0,.47-.2h0s0,0,0,0a4.73,4.73,0,0,1,3.37-1.44,4.63,4.63,0,0,1,4.63,4.64,6.14,6.14,0,0,1-.09,1v0a.34.34,0,0,0,0,.14.58.58,0,0,0,.17.44l0,0a4.24,4.24,0,0,1,1.19,3,4.32,4.32,0,0,1-4.32,4.32,5.43,5.43,0,0,1-.72-.05h-.1a.65.65,0,0,0-.66.66h0v.1l.17,2.31a.38.38,0,0,1-.39.39H1795a.39.39,0,0,1-.39-.39l.18-2.35v-.08a.65.65,0,0,0-.66-.66h-.06l-.08,0a5.19,5.19,0,0,1-.68.05,4.31,4.31,0,0,1-4.32-4.32A4.62,4.62,0,0,1,1789.43,525.8Z"/><path class="cls-6" d="M1491.75,768.22h0a.79.79,0,0,0,.06-.29.73.73,0,0,0-.06-.3.07.07,0,0,1,0,0,3.27,3.27,0,0,1-.41-1.61,3.48,3.48,0,0,1,3.46-3.47,3.27,3.27,0,0,1,.78.1h0l.08,0a.25.25,0,0,0,.12,0,.69.69,0,0,0,.47-.2h0s0,0,0,0a4.72,4.72,0,0,1,3.37-1.45,4.64,4.64,0,0,1,4.64,4.64,5.15,5.15,0,0,1-.1,1v0a.34.34,0,0,0,0,.14.63.63,0,0,0,.18.45l0,0a4.26,4.26,0,0,1,1.18,3,4.32,4.32,0,0,1-4.32,4.33,4.2,4.2,0,0,1-.72-.06h-.1a.65.65,0,0,0-.66.66h0v.1l.18,2.31a.39.39,0,0,1-.39.39h-2.2a.38.38,0,0,1-.39-.39l.17-2.35v-.08a.65.65,0,0,0-.66-.66h-.06l-.08,0a3.82,3.82,0,0,1-.68.06,4.33,4.33,0,0,1-4.32-4.33A4.63,4.63,0,0,1,1491.75,768.22Z"/><path class="cls-6" d="M1794.85,635.35h0a.8.8,0,0,0,.06-.3.72.72,0,0,0-.06-.29.07.07,0,0,1,0,0,3.27,3.27,0,0,1-.41-1.61,3.48,3.48,0,0,1,3.47-3.47,3.4,3.4,0,0,1,.78.1h0l.07,0a.25.25,0,0,0,.12,0,.67.67,0,0,0,.47-.2h0s0,0,0,0a4.71,4.71,0,0,1,3.37-1.44,4.63,4.63,0,0,1,4.63,4.64,5.15,5.15,0,0,1-.1,1v0a.32.32,0,0,0,0,.13.6.6,0,0,0,.18.45l0,0a4.24,4.24,0,0,1,1.19,3,4.32,4.32,0,0,1-4.33,4.32,5.68,5.68,0,0,1-.72,0h-.09a.66.66,0,0,0-.67.66h0v.09l.18,2.32a.39.39,0,0,1-.39.39h-2.2a.39.39,0,0,1-.39-.39l.18-2.35v-.08a.66.66,0,0,0-.67-.66h-.06l-.07,0a5.31,5.31,0,0,1-.68,0,4.32,4.32,0,0,1-4.33-4.32A4.63,4.63,0,0,1,1794.85,635.35Z"/><path class="cls-6" d="M1880.32,545.54a9.11,9.11,0,0,1-9.1,9.1,7.68,7.68,0,0,1-1.43-.13l-.17,0h-.12a1.38,1.38,0,0,0-1.39,1.4V556l.37,5a.82.82,0,0,1-.82.82H1863a.82.82,0,0,1-.81-.82l.36-4.88v-.2h0a1.38,1.38,0,0,0-1.39-1.4h-.2a8.43,8.43,0,0,1-1.52.13,9.11,9.11,0,0,1-9.1-9.1,8.9,8.9,0,0,1,2.5-6.27l0,0a1.27,1.27,0,0,0,.37-.94.68.68,0,0,0,0-.28v-.09a11.39,11.39,0,0,1-.21-2,9.75,9.75,0,0,1,9.76-9.75,9.91,9.91,0,0,1,7.09,3s0,0,.08.08h0a1.43,1.43,0,0,0,1,.41.51.51,0,0,0,.24,0s.12,0,.17,0h0a7.24,7.24,0,0,1,8.93,7.09,6.9,6.9,0,0,1-.86,3.4.14.14,0,0,1,0,.09,1.51,1.51,0,0,0-.12.61,1.71,1.71,0,0,0,.12.62h0A9.79,9.79,0,0,1,1880.32,545.54Z"/><path class="cls-6" d="M1792.22,769.7a9.11,9.11,0,0,1-9.1,9.1,8.63,8.63,0,0,1-1.43-.12s-.12,0-.17,0h-.12A1.37,1.37,0,0,0,1780,780v.16l.37,5a.82.82,0,0,1-.82.82h-4.63a.82.82,0,0,1-.82-.82l.36-4.87v-.21h0a1.37,1.37,0,0,0-1.39-1.39h-.2a9.45,9.45,0,0,1-1.52.12,9.11,9.11,0,0,1-9.1-9.1,8.92,8.92,0,0,1,2.5-6.27l0,0a1.3,1.3,0,0,0,.37-.94.7.7,0,0,0,0-.29v-.08a11.58,11.58,0,0,1-.21-2.05,9.76,9.76,0,0,1,9.76-9.76,9.88,9.88,0,0,1,7.09,3s0,0,.08.08h0a1.48,1.48,0,0,0,1,.41.51.51,0,0,0,.24,0l.17,0h0a6.76,6.76,0,0,1,1.64-.21,7.31,7.31,0,0,1,7.29,7.3,6.93,6.93,0,0,1-.86,3.4.14.14,0,0,1,0,.08,1.51,1.51,0,0,0-.12.61,1.71,1.71,0,0,0,.12.62h0A9.79,9.79,0,0,1,1792.22,769.7Z"/><path class="cls-6" d="M1884.6,684.3a9.1,9.1,0,0,1-9.1,9.09,8.63,8.63,0,0,1-1.43-.12l-.16,0h-.13a1.38,1.38,0,0,0-1.39,1.39v.17l.37,5a.82.82,0,0,1-.82.82h-4.63a.82.82,0,0,1-.82-.82l.37-4.88v-.2h0a1.39,1.39,0,0,0-1.4-1.4h-.2a9.36,9.36,0,0,1-1.52.12,9.1,9.1,0,0,1-9.1-9.09,8.94,8.94,0,0,1,2.5-6.28l0,0a1.27,1.27,0,0,0,.37-.94.75.75,0,0,0,0-.29v-.08a11.4,11.4,0,0,1-.2-2,9.74,9.74,0,0,1,9.75-9.75,9.91,9.91,0,0,1,7.09,3s0,0,.08.08h0a1.43,1.43,0,0,0,1,.41.51.51,0,0,0,.24,0l.17,0h0a7.24,7.24,0,0,1,8.93,7.09,6.79,6.79,0,0,1-.86,3.4.19.19,0,0,1,0,.09,1.51,1.51,0,0,0-.12.61,1.62,1.62,0,0,0,.12.61h0A9.72,9.72,0,0,1,1884.6,684.3Z"/><path class="cls-6" d="M1714.25,759.66h0a.71.71,0,0,0,0-.29.68.68,0,0,0,0-.29.07.07,0,0,1,0,0,3.2,3.2,0,0,1-.41-1.62,3.47,3.47,0,0,1,3.46-3.46,3.27,3.27,0,0,1,.78.1h0l.08,0h.12a.64.64,0,0,0,.46-.19h0s0,0,0,0a4.71,4.71,0,0,1,3.37-1.44,4.63,4.63,0,0,1,4.64,4.63,5.17,5.17,0,0,1-.1,1v0a.3.3,0,0,0,0,.13.64.64,0,0,0,.17.45l0,0a4.24,4.24,0,0,1,1.19,3,4.33,4.33,0,0,1-4.32,4.32,4.2,4.2,0,0,1-.72-.06h-.1a.66.66,0,0,0-.66.67h0v.09l.17,2.32a.39.39,0,0,1-.38.39h-2.21a.39.39,0,0,1-.38-.39l.17-2.36v-.07a.66.66,0,0,0-.66-.67h-.06l-.08,0a3.91,3.91,0,0,1-.68.06,4.33,4.33,0,0,1-4.32-4.32A4.56,4.56,0,0,1,1714.25,759.66Z"/><path class="cls-6" d="M1841.31,495.55h0a.87.87,0,0,0,0-.58.07.07,0,0,1,0,0,3.19,3.19,0,0,1-.41-1.61,3.48,3.48,0,0,1,3.46-3.47,3.27,3.27,0,0,1,.78.1h0l.08,0a.25.25,0,0,0,.12,0,.65.65,0,0,0,.46-.2h0s0,0,0,0a4.75,4.75,0,0,1,3.37-1.44,4.64,4.64,0,0,1,4.64,4.64,5.15,5.15,0,0,1-.1,1v0a.32.32,0,0,0,0,.13.63.63,0,0,0,.17.45l0,0a4.24,4.24,0,0,1,1.19,3,4.32,4.32,0,0,1-4.32,4.32,4.2,4.2,0,0,1-.72-.06h-.1a.66.66,0,0,0-.66.67h0v.09l.17,2.32a.38.38,0,0,1-.38.39h-2.2a.38.38,0,0,1-.39-.39l.17-2.35v-.08a.65.65,0,0,0-.66-.66h-.14a3.91,3.91,0,0,1-.68.06,4.32,4.32,0,0,1-4.32-4.32A4.56,4.56,0,0,1,1841.31,495.55Z"/><path class="cls-6" d="M1858.67,776.51h0a.72.72,0,0,0,.06-.29.68.68,0,0,0-.06-.29.07.07,0,0,1,0,0,3.3,3.3,0,0,1-.41-1.62,3.48,3.48,0,0,1,3.47-3.46,3.33,3.33,0,0,1,.78.1h0l.08,0h.11a.67.67,0,0,0,.47-.19h0s0,0,0,0a4.69,4.69,0,0,1,3.37-1.44,4.63,4.63,0,0,1,4.63,4.63,5.17,5.17,0,0,1-.1,1v0a.3.3,0,0,0,0,.13.61.61,0,0,0,.18.45l0,0a4.24,4.24,0,0,1,1.19,3,4.33,4.33,0,0,1-4.33,4.32,4.28,4.28,0,0,1-.72-.06h-.09a.66.66,0,0,0-.66.67h0v.09l.17,2.32a.39.39,0,0,1-.39.39h-2.2a.4.4,0,0,1-.39-.39l.18-2.36v-.07a.67.67,0,0,0-.67-.67h0l-.08,0a4,4,0,0,1-.68.06,4.33,4.33,0,0,1-4.33-4.32A4.71,4.71,0,0,1,1858.67,776.51Z"/><path class="cls-6" d="M1812.28,690h0a.75.75,0,0,0,.06-.29.65.65,0,0,0-.06-.29.07.07,0,0,1,0,0,3.3,3.3,0,0,1-.41-1.62,3.47,3.47,0,0,1,3.47-3.46,3.25,3.25,0,0,1,.77.09h0l.08,0a.25.25,0,0,0,.12,0,.73.73,0,0,0,.47-.19h0s0,0,0,0a4.64,4.64,0,0,1,8,3.19,5.34,5.34,0,0,1-.1,1v0a.34.34,0,0,0,0,.14.61.61,0,0,0,.18.45l0,0a4.24,4.24,0,0,1,1.18,3,4.32,4.32,0,0,1-4.32,4.32,4.2,4.2,0,0,1-.72-.06h-.1a.65.65,0,0,0-.66.66h0v.1l.18,2.32a.4.4,0,0,1-.39.39h-2.2a.39.39,0,0,1-.39-.39l.17-2.36v-.08a.65.65,0,0,0-.66-.66h-.06l-.08,0a3.82,3.82,0,0,1-.68.06,4.33,4.33,0,0,1-4.32-4.32A4.67,4.67,0,0,1,1812.28,690Z"/><path class="cls-6" d="M1863,618.39h0a.8.8,0,0,0,.06-.3.72.72,0,0,0-.06-.29.07.07,0,0,1,0,0,3.27,3.27,0,0,1-.41-1.61,3.48,3.48,0,0,1,3.47-3.47,3.33,3.33,0,0,1,.78.1h0l.08,0a.23.23,0,0,0,.11,0,.67.67,0,0,0,.47-.2h0s0,0,0,0a4.75,4.75,0,0,1,3.37-1.44,4.63,4.63,0,0,1,4.63,4.64,6.14,6.14,0,0,1-.09,1v0a.34.34,0,0,0,0,.14.58.58,0,0,0,.17.44l0,0a4.24,4.24,0,0,1,1.19,3,4.32,4.32,0,0,1-4.32,4.32,4.14,4.14,0,0,1-.72-.05h-.1a.65.65,0,0,0-.66.66h0v.1l.17,2.31a.38.38,0,0,1-.39.39h-2.2a.39.39,0,0,1-.39-.39l.18-2.35v-.08a.65.65,0,0,0-.66-.66h-.06l-.08,0a3.89,3.89,0,0,1-.68.05,4.31,4.31,0,0,1-4.32-4.32A4.62,4.62,0,0,1,1863,618.39Z"/></g><circle class="cls-13" cx="1913.07" cy="28.99" r="51.24"/></g><g id="Участки"><path class="cls-14" d="M649.87,426.55,657,444.67H620.72l-1.58-18.91-197,7.82a1.91,1.91,0,0,1-1.93-1.44l-5.36-21.43a1.91,1.91,0,0,1,1.78-2.37c22.8-.87,204.18-7.79,205.66-7.79s-26.74-57.87-32.19-69.05a2.76,2.76,0,0,0-3-1.5l-33.69,5.86a.75.75,0,0,1-.77-.36L542.47,318a.74.74,0,0,1,.5-1.1l29.89-5.44a2.75,2.75,0,0,0,1.93-4L524.6,214.61l-53.7,7.67a2.13,2.13,0,0,1-2.17-1.07L463,211a2.13,2.13,0,0,1,1.52-3.14l22.29-3.71a2.13,2.13,0,0,0,1.48-3.2l-1.51-2.51a2.14,2.14,0,0,1,1.48-3.2l44.19-7.37L488.4,110.07a40.79,40.79,0,0,0-45.1-19.88L220.76,143.11a5.13,5.13,0,0,0-3.57,6.9l51.92,128.81a128.54,128.54,0,0,1,8.51,33.47L299.4,501.22a6.18,6.18,0,0,0,6.38,5.47l370.35-14.4,191.2-7.44-9.46-67.75Z"/><path class="cls-14" d="M833.45,391.1s-47.28-64.61-48.85-64.61c-1.19,0-66.42,17.14-98.11,25.48a55.2,55.2,0,0,1-9.89,1.47,81.12,81.12,0,0,1-44.45-10l-16.92-9.24a2.15,2.15,0,0,0-3,2.75l27.39,62Z"/><polygon class="cls-14" points="1252.6 283.95 1265.2 298.13 1452.72 249.28 1397.57 172.07 1184.96 226.05 994.17 274.49 1069.81 351.7 1219.51 312.31 1208.48 298.13 1234.78 289.67 1252.6 283.95"/><path class="cls-14" d="M1755.41,282l-77.55-90.19-58.39-67.91a14.92,14.92,0,0,0-15-4.73L1408.6,168.92l56.73,75.63,50.42-14.18,17.33,25.21-45.69,12.61,9.45,12.6-39.39,11L1448,277.64l-200.52,54a2.91,2.91,0,0,0-1.51,4.65l59.94,74.21a8.24,8.24,0,0,0,8.67,2.74L1754,286.8A3,3,0,0,0,1755.41,282Z"/><path class="cls-14" d="M657,444.67H620.72l-1.58-18.91-197,7.82a1.91,1.91,0,0,1-1.93-1.44l-5.36-21.43a1.91,1.91,0,0,1,1.78-2.37c22.8-.87,204.18-7.79,205.66-7.79s-26.74-57.87-32.19-69.05a2.76,2.76,0,0,0-3-1.5l-33.69,5.86a.75.75,0,0,1-.77-.36L542.47,318a.74.74,0,0,1,.5-1.1l29.89-5.44a2.75,2.75,0,0,0,1.93-4L524.6,214.61l-53.7,7.67a2.13,2.13,0,0,1-2.17-1.07L463,211a2.13,2.13,0,0,1,1.52-3.14l22.29-3.71a2.13,2.13,0,0,0,1.48-3.2l-1.51-2.51a2.14,2.14,0,0,1,1.48-3.2l44.19-7.37L488.4,110.07a40.79,40.79,0,0,0-45.1-19.88L220.76,143.11a5.13,5.13,0,0,0-3.57,6.9l51.92,128.81a128.54,128.54,0,0,1,8.51,33.47L299.4,501.22a6.18,6.18,0,0,0,6.38,5.47l561.55-21.84-9.46-67.75-208,9.45Z"/><line class="cls-14" x1="502.54" y1="430.49" x2="512.1" y2="498.67"/><path class="cls-14" d="M639.63,399l193.82-7.88s-47.28-64.61-48.85-64.61c-1.19,0-66.42,17.14-98.11,25.48-7.42,1.95-19.69,2.21-30.1.81a52.81,52.81,0,0,1-18.3-6.06l-22.4-12.23a2.32,2.32,0,0,0-3.24,3Z"/><polygon class="cls-14" points="994.17 274.49 1069.81 351.7 1219.51 312.31 1208.48 298.13 1234.78 289.67 1252.6 283.95 1265.2 298.13 1452.72 249.28 1397.57 172.07 1184.96 226.05 994.17 274.49"/><line class="cls-14" x1="1184.84" y1="225.64" x2="1235.26" y2="290.25"/><path class="cls-14" d="M1408.6,168.92l195.89-49.73a14.92,14.92,0,0,1,15,4.73l58.39,67.91L1755.41,282a3,3,0,0,1-1.43,4.78L1314.57,413.23a8.23,8.23,0,0,1-8.67-2.74L1246,336.28a2.91,2.91,0,0,1,1.51-4.65l200.52-54,9.46,14.18,39.39-11-9.45-12.6,45.69-12.61-17.33-25.21-50.42,14.18Z"/><line class="cls-14" x1="1520.48" y1="236.67" x2="1678.05" y2="192.55"/><line class="cls-14" x1="1477.37" y1="286.24" x2="1529.79" y2="351.3"/><line class="cls-14" x1="289.81" y1="416.31" x2="415.64" y2="413.8"/></g><g id="ОЭЗ"><path class="cls-15" d="M1270.19,396a6.17,6.17,0,0,1-4.38,6h0a16.76,16.76,0,0,1-18.14-5.74L1232,374.37a8,8,0,0,1-1.72-5.15l.36-11.38,8.48.66,11.1,10.31L1270,385.48Z"/><path class="cls-16" d="M1250.25,399.88c.1-.28-19.44-27.69-19.44-27.69s-.51-6.18-.51-6.51.75-4.93.75-4.93l20.58,27.13v12"/><path class="cls-17" d="M1270.19,396a6.17,6.17,0,0,1-4.38,6h0a16.76,16.76,0,0,1-18.14-5.74L1232,374.37a8,8,0,0,1-1.72-5.15"/><polyline class="cls-18" points="1197.15 385.16 1211.66 380.89 1211.66 391.54 1197.15 395.8"/><polyline class="cls-18" points="1103.95 445.61 1116.89 441.46 1116.89 452.1 1103.95 456.25"/><polyline class="cls-18" points="1067.33 462.87 1084.75 456.99 1084.75 467.63 1067.33 474.51"/><polyline class="cls-18" points="967.7 302.18 982.33 297.61 982.33 308.25 967.7 312.82"/><polygon class="cls-18" points="910.68 329.47 873.25 340.61 873.25 329.97 910.68 318.83 910.68 329.47"/><polyline class="cls-16" points="1196.71 385.45 1196.71 393.97 1188.27 384.87 1188.27 376.35"/><polyline class="cls-16" points="1103.25 446.56 1103.25 455.07 1088.94 441.07 1088.94 432.56"/><polyline class="cls-16" points="1066.57 463.46 1066.57 471.98 1053.05 458.98 1053.05 450.46"/><polyline class="cls-16" points="967.22 302.67 967.22 311.19 960.7 303.19 960.7 294.67"/><polygon class="cls-16" points="872.57 338.98 861.05 324.98 861.05 316.46 872.57 330.46 872.57 338.98"/><polyline class="cls-17" points="1117.59 441.25 1117.59 451.25 1103.95 456.25 1087.95 439.95 1087.95 429.95"/><polyline class="cls-17" points="1211.91 380.48 1211.91 390.48 1197.27 395.48 1188.27 385.18 1188.27 375.18"/><polyline class="cls-17" points="910.68 318.97 910.68 328.97 873.05 339.97 861.05 325.67 861.05 315.67"/><path class="cls-18" d="M1022.89,457.58v-50l-19.65,6.95-9.87,2.15-15,1.86s-14.84.35-15.51.33-18.12-1.5-18.12-1.5l-9.41-1.65-5.21.28s-5.4,1.18-6.29,1.21-7.43-1.39-7.43-1.39l-3.64-2.2V461l1,2.85s5.74,3.09,6.08,3.15,8.07-.79,8.07-.79l7.87-.45,23.73,3.16h14.07l18.61-2,14.88-3.41Z"/><path class="cls-18" d="M923.07,376.21c-1-.17-11.93,4.15-11.91,4.65s0,24.82,0,24.82l15.71.79,3.82-9.48Z"/><line class="cls-17" x1="932.66" y1="415.12" x2="932.66" y2="465.12"/><polygon class="cls-16" points="900.09 427.31 901.41 462.01 912.1 462.01 912.1 412.01 903.62 412.01 900.09 412.01 900.09 427.31"/><path class="cls-19" d="M912.1,412c.66,0,4.16,9.31,20.56,3.11,0,0,46.78,12.41,90.23-7.54,0,0-6.65-12.86-47.66-9.76,0,0-1.33-19.51-29.93-17.51,0,0-6.43-18.62-22.17-24.83,0,0-23.5,15.52-4.66,50.1l-16,.22s-2-.22-2,3.11a2.87,2.87,0,0,0,3.1,3.1Z"/><path class="cls-17" d="M1022.89,407.58v50c-43.45,19.95-90.23,7.54-90.23,7.54-16.4,6.2-19.9-3.11-20.56-3.11h-8.48a2.87,2.87,0,0,1-3.1-3.1v-50"/><line class="cls-17" x1="912.1" y1="412.01" x2="912.1" y2="462.01"/><line class="cls-19" x1="911.19" y1="379.04" x2="911.19" y2="405.68"/><polygon class="cls-19" points="982.33 297.93 967.7 301.93 960.7 293.63 975.33 289.63 982.33 297.93"/><polygon class="cls-19" points="1117.59 441.25 1103.95 446.25 1087.95 429.95 1101.59 424.95 1117.59 441.25"/><polygon class="cls-19" points="1084.75 456.62 1067.12 463.62 1053.12 449.31 1070.75 442.31 1084.75 456.62"/><polygon class="cls-19" points="1211.91 380.48 1197.27 385.48 1188.27 375.18 1202.91 370.18 1211.91 380.48"/><polygon class="cls-19" points="898.68 304.67 889.5 307.36 881.67 298.02 866.04 303.02 873.58 312.01 861.05 315.67 873.05 329.97 910.68 318.97 898.68 304.67"/><line class="cls-17" x1="1103.95" y1="446.25" x2="1103.95" y2="456.25"/><polyline class="cls-17" points="1084.75 456.62 1084.75 466.62 1067.12 473.62 1053.12 459.31 1053.12 449.31"/><line class="cls-17" x1="1067.12" y1="463.62" x2="1067.12" y2="473.62"/><polyline class="cls-17" points="960.7 293.63 960.7 303.63 967.7 311.93 982.33 307.93 982.33 297.93"/><line class="cls-17" x1="967.7" y1="301.93" x2="967.7" y2="311.93"/><line class="cls-17" x1="866.04" y1="303.02" x2="866.04" y2="314.21"/><line class="cls-17" x1="873.05" y1="329.97" x2="873.05" y2="339.97"/><line class="cls-17" x1="1197.27" y1="385.48" x2="1197.27" y2="395.48"/><path class="cls-19" d="M1265.81,389.94h0a16.76,16.76,0,0,1-18.14-5.74L1232,362.37a8.16,8.16,0,0,1,4-12.81h0a12.61,12.61,0,0,1,13.64,4.32l19.16,26.36A6.17,6.17,0,0,1,1265.81,389.94Z"/><line class="cls-17" x1="1270.18" y1="383.94" x2="1270.18" y2="395.95"/><line class="cls-17" x1="1230.3" y1="357.84" x2="1230.3" y2="369.22"/><line class="cls-17" x1="1265.01" y1="390.18" x2="1265.01" y2="401.22"/><line class="cls-17" x1="1252.01" y1="388.18" x2="1252.01" y2="399.22"/></g><g id="Улицы"><rect class="cls-1" x="1641.67" y="175.31" width="112.73" height="21.37" transform="translate(724.52 -1217.64) rotate(49.01)"/><rect class="cls-15" x="1048.44" y="397.53" width="115.39" height="17.73" transform="translate(622.4 -668.17) rotate(45.59)"/><rect class="cls-1" x="536.94" y="515.03" width="207.06" height="19.73" transform="translate(-19.27 24.43) rotate(-2.15)"/><rect class="cls-1" x="214.28" y="404.11" width="113.73" height="19.62" transform="translate(653.82 100.23) rotate(83.89)"/><rect class="cls-1" x="532.39" y="220.18" width="97.55" height="22.39" transform="translate(514.3 -390.57) rotate(62.16)"/><rect class="cls-1" x="1087.6" y="214.89" width="82.14" height="17.8" transform="translate(-20.16 288.32) rotate(-14.43)"/><path class="cls-20" d="M561.53,189.75l.58-.31.59,1.13-4.84,5.56,7.3-.91.58,1.09-.58.31-11.54,1.2-.53-1,.45-.23,2.39-.19Z"/><path class="cls-20" d="M558.37,201l1.09-.57.06.12a1.33,1.33,0,0,0,1.21.78,5.07,5.07,0,0,0,2.17-.72l4-2.11,2.91,5.5-7.7,4.07-.63-1.19,6.64-3.51-1.66-3.16-2.92,1.54a5.54,5.54,0,0,1-3.11.82,2.28,2.28,0,0,1-1.9-1.29Z"/><path class="cls-20" d="M563.34,210.41l2-1,.73,1.37-2,1Z"/><path class="cls-20" d="M567.35,218l10.48-5.54,3.68,7-1.15.61-3-5.66-3,1.6,1.79,3.39a3,3,0,0,1,.26,2.55,4.35,4.35,0,0,1-4.6,2.43,3,3,0,0,1-2-1.65Zm1.85.7,1.67,3.17a1.9,1.9,0,0,0,1.22,1,2.39,2.39,0,0,0,1.72-.29,2.35,2.35,0,0,0,1.21-1.27,1.91,1.91,0,0,0-.15-1.57l-1.67-3.17Z"/><path class="cls-20" d="M574.94,225.87l2.33-1.23a3,3,0,0,1,2.52-.25,4.45,4.45,0,0,1,2.48,4.7,3,3,0,0,1-1.63,1.94l-2.33,1.23a3.1,3.1,0,0,1-2.52.26,3.76,3.76,0,0,1-2-1.94,5,5,0,0,1-.51-1.47,3.2,3.2,0,0,1,.06-1.32,2.74,2.74,0,0,1,.58-1.09A3.25,3.25,0,0,1,574.94,225.87Zm.67,1.17a2,2,0,0,0-1,1.23,2.73,2.73,0,0,0,1.55,2.94,1.92,1.92,0,0,0,1.59-.17l2.25-1.18a2,2,0,0,0,1-1.22,2.27,2.27,0,0,0-.28-1.73,2.33,2.33,0,0,0-1.28-1.21,1.91,1.91,0,0,0-1.59.16Z"/><path class="cls-20" d="M574.36,237.08l10.09-5.33.38.72-.8,1a3.69,3.69,0,0,1,2.54,1.91,3,3,0,0,1,.29,2.36,3.2,3.2,0,0,1-1.69,1.84l-2.39,1.26a3.19,3.19,0,0,1-2.47.36,3,3,0,0,1-1.81-1.61,3.46,3.46,0,0,1-.17-3L575,238.27Zm5.16-1.19a3.53,3.53,0,0,0,0,2.89,1.88,1.88,0,0,0,1.17,1,2,2,0,0,0,1.58-.22l2.22-1.17a2.06,2.06,0,0,0,1.06-1.18,1.84,1.84,0,0,0-.15-1.51,3.55,3.55,0,0,0-2.41-1.63Z"/><path class="cls-20" d="M583.82,242.69l2.33-1.23a3,3,0,0,1,2.52-.25,3.73,3.73,0,0,1,2,1.94,3.77,3.77,0,0,1,.46,2.76,3,3,0,0,1-1.64,1.93l-2.33,1.23a3,3,0,0,1-2.52.26,3.72,3.72,0,0,1-2-1.93,4.81,4.81,0,0,1-.52-1.47,3.2,3.2,0,0,1,.06-1.32,2.92,2.92,0,0,1,.58-1.1A3.61,3.61,0,0,1,583.82,242.69Zm.67,1.17a1.93,1.93,0,0,0-1,1.22,2.37,2.37,0,0,0,.28,1.74A2.27,2.27,0,0,0,585,248a2,2,0,0,0,1.59-.17l2.24-1.19a2,2,0,0,0,1-1.21,2.36,2.36,0,0,0-.28-1.73,2.33,2.33,0,0,0-1.28-1.21,1.91,1.91,0,0,0-1.59.15Z"/><path class="cls-20" d="M585.64,252.63l7.7-4.06,1.86,3.51a3.12,3.12,0,0,1,.42,2,2,2,0,0,1-1.16,1.42,2,2,0,0,1-2.27-.07,1.94,1.94,0,0,1-1.09,2.25q-2.16,1.14-3.51-1.41Zm1.69.64,1.34,2.53a1.42,1.42,0,0,0,.8.77,1.31,1.31,0,0,0,1-.13c.77-.41.92-1,.47-1.9l-1.32-2.5Zm3.3-1.74,1.2,2.28a1.77,1.77,0,0,0,.36.47,1.18,1.18,0,0,0,.43.25,1.34,1.34,0,0,0,.49,0,1.36,1.36,0,0,0,.51-.18,1.16,1.16,0,0,0,.49-1.79l-1.2-2.27Z"/><path class="cls-20" d="M591.81,259.33a2.4,2.4,0,0,1,2.24-.14,4.31,4.31,0,0,1,1.89,2l1,1.93.76-.4a1.58,1.58,0,0,0,.88-1.05,2.25,2.25,0,0,0-.31-1.54,2.22,2.22,0,0,0-1.08-1.1,1.48,1.48,0,0,0-1.28.08l-.61-1.16a3.08,3.08,0,0,1,1.13-.35,2.48,2.48,0,0,1,1.08.13,2.93,2.93,0,0,1,1,.66,4.53,4.53,0,0,1,.85,1.17,3.69,3.69,0,0,1,.47,2.56,2.63,2.63,0,0,1-1.43,1.75l-5.34,2.82-.38-.72.73-1a3.84,3.84,0,0,1-1.42-.7,4,4,0,0,1-1.11-1.3,3.54,3.54,0,0,1-.43-1.44,2.17,2.17,0,0,1,.29-1.3A2.42,2.42,0,0,1,591.81,259.33Zm.76,1.13a1.25,1.25,0,0,0-.72.92,2.07,2.07,0,0,0,.28,1.33,3.7,3.7,0,0,0,2.32,1.78l1.54-.82-1-1.93C594.26,260.41,593.46,260,592.57,260.46Z"/><path class="cls-20" d="M594.11,268.66l.56-.3,3.39.4a2.49,2.49,0,0,1-.06-1.08,2.19,2.19,0,0,1,.48-1,3.29,3.29,0,0,1,1-.79,2.67,2.67,0,0,1,2-.3,2.42,2.42,0,0,1,1.49,1.28l2,3.78-7.7,4.06-.63-1.19,3-1.56-1-1.82-4-.38Zm6-1.54a1.47,1.47,0,0,0-.79.85,1.51,1.51,0,0,0,.19,1.19l1.19,2.26,2.63-1.39-1.19-2.26a1.36,1.36,0,0,0-2-.65Z"/><path class="cls-20" d="M1091.6,230.48l-.16-.62,1.23-.32,4.28,6,.82-7.31,1.19-.31.16.63-1.51,11.5-1.1.28-.12-.49.38-2.37Z"/><path class="cls-20" d="M1101.81,236.17l-.3-1.19.13,0a1.3,1.3,0,0,0,1-1,5.11,5.11,0,0,0-.2-2.28l-1.13-4.37,6-1.55,2.17,8.43-1.3.34-1.88-7.27-3.45.89.82,3.19a5.51,5.51,0,0,1,.07,3.21,2.29,2.29,0,0,1-1.69,1.55Z"/><path class="cls-20" d="M1112.12,233.52l-.56-2.16,1.51-.39.55,2.16Z"/><path class="cls-20" d="M1119.13,227.58l-1-3.7a4.1,4.1,0,0,1,.37-3.34,5.3,5.3,0,0,1,6.2-1.69,3.69,3.69,0,0,1,1.94,2.59l0,.16-1.43.37,0-.17a2.36,2.36,0,0,0-1.33-1.7,3,3,0,0,0-2.1-.18,3.84,3.84,0,0,0-1.53.74,2.26,2.26,0,0,0-.76,1.18,3.15,3.15,0,0,0,0,1.55l1,3.91a2.69,2.69,0,0,0,1.28,1.82,3.51,3.51,0,0,0,4.12-1,2.41,2.41,0,0,0,.34-2.14l0-.15,1.44-.37,0,.16a3.67,3.67,0,0,1-.45,3.21,4.63,4.63,0,0,1-2.73,1.77,4.69,4.69,0,0,1-3.51-.26A4.09,4.09,0,0,1,1119.13,227.58Z"/><path class="cls-20" d="M1131.08,228.64l-2.17-8.43,3.85-1a3.18,3.18,0,0,1,2.09.06,2,2,0,0,1,1.11,1.46,2,2,0,0,1-.59,2.19,2,2,0,0,1,1.94,1.59q.6,2.35-2.2,3.08Zm.08-5.1,2.5-.65a1.66,1.66,0,0,0,.54-.23,1.08,1.08,0,0,0,.34-.37,1,1,0,0,0,.14-.46,1.53,1.53,0,0,0,0-.55,1.16,1.16,0,0,0-1.63-.88l-2.49.63Zm.93,3.61,2.77-.71a1.49,1.49,0,0,0,.94-.61,1.34,1.34,0,0,0,.11-1q-.33-1.26-1.74-.9l-2.74.71Z"/><path class="cls-20" d="M1139.67,226.43l-.16-.62,1.17-3.2a2.36,2.36,0,0,1-1.06-.19,2.22,2.22,0,0,1-.84-.7,3.19,3.19,0,0,1-.53-1.16,2.69,2.69,0,0,1,.17-2.06,2.45,2.45,0,0,1,1.6-1.14l4.13-1.07,2.17,8.43-1.31.34-.83-3.23-2,.51-1.29,3.78Zm-.11-6.19a1.5,1.5,0,0,0,.65,1,1.55,1.55,0,0,0,1.2.1l2.47-.64-.74-2.88-2.48.63a1.57,1.57,0,0,0-1,.67A1.44,1.44,0,0,0,1139.56,220.24Z"/><path class="cls-20" d="M1147.87,221.23l1.27-.33a1.78,1.78,0,0,0,.95,1.25,2.53,2.53,0,0,0,1.8.07,2.43,2.43,0,0,0,1.34-.75,1.26,1.26,0,0,0,.24-1.19,1.19,1.19,0,0,0-.66-.83,1.84,1.84,0,0,0-1.26,0l-1.21.31-.3-1.16,1.21-.31a1.48,1.48,0,0,0,.91-.6,1.26,1.26,0,0,0-.58-1.83,2.41,2.41,0,0,0-1.46,0,2.14,2.14,0,0,0-1.36.88,1.86,1.86,0,0,0-.16,1.5l-1.27.33a3,3,0,0,1,.31-2.48,3.61,3.61,0,0,1,2.26-1.45,3.73,3.73,0,0,1,2.47.07,2.18,2.18,0,0,1,1.3,1.54,1.91,1.91,0,0,1-.06,1.21,2.22,2.22,0,0,1-.73,1,2.07,2.07,0,0,1,1.27.43,2,2,0,0,1,.71,1.14,2.38,2.38,0,0,1-.37,2.14,4,4,0,0,1-2.26,1.3,4.68,4.68,0,0,1-2,.12,2.83,2.83,0,0,1-1.5-.76A3.22,3.22,0,0,1,1147.87,221.23Z"/><path class="cls-20" d="M1157.78,221.77l-2.17-8.43,1.31-.33,1.65,6.41,2.83-7.57,1.31-.33,2.16,8.43-1.3.33-1.65-6.39-2.83,7.55Z"/><path class="cls-20" d="M259,361.5l11.78-1.27.16,1.48-5.25.56.29,2.67,1.4-.15a3.83,3.83,0,0,1,3.12.86,5.23,5.23,0,0,1,.7,6.37,4,4,0,0,1-2.89,1.48l-4.08.43a4.28,4.28,0,0,1-2.26-.29,3.54,3.54,0,0,1-1.57-1.35,5.16,5.16,0,0,1-.74-2.26,4.56,4.56,0,0,1,.74-3.32,4,4,0,0,1,2.91-1.49l1.37-.15-.28-2.66-5.24.56Zm4.41,5.2a2.63,2.63,0,0,0-1.89,1,3.41,3.41,0,0,0,.44,4.23,2.61,2.61,0,0,0,2,.55l4.21-.45a2.62,2.62,0,0,0,1.88-1,2.9,2.9,0,0,0,.51-2.19,3.38,3.38,0,0,0-.5-1.52,2.32,2.32,0,0,0-1-.9,2.82,2.82,0,0,0-1.44-.18Z"/><path class="cls-20" d="M260.56,376.28l.64-.07,4,2.09,3.34-2.74.64-.07.13,1.14-3.45,2.81.15,1.46,3.71-.4.15,1.35-3.71.39.15,1.47,4,2,.12,1.14-.64.07L266,385l-3.51,2.9-.64.06-.13-1.2,3.5-2.83-.16-1.51-3.76.4-.14-1.34,3.75-.4-.16-1.52-4-2Z"/><path class="cls-20" d="M262,390l8.65-.93.15,1.35-3.75.4.48,4.42,3.74-.4.14,1.34-8.65.93-.14-1.34,3.72-.4L265.9,391l-3.73.4Z"/><path class="cls-20" d="M266.06,399.21l2.62-.28a3.07,3.07,0,0,1,2.44.7,3.82,3.82,0,0,1,1.16,2.56,3.78,3.78,0,0,1-.59,2.73,3.11,3.11,0,0,1-2.24,1.2l-2.62.28a3.08,3.08,0,0,1-2.44-.7,3.73,3.73,0,0,1-1.16-2.54,4.69,4.69,0,0,1,.07-1.56,3.19,3.19,0,0,1,.54-1.21,3,3,0,0,1,.94-.8A3.75,3.75,0,0,1,266.06,399.21Zm.2,1.34a2,2,0,0,0-1.42.76,2.33,2.33,0,0,0-.38,1.72,2.26,2.26,0,0,0,.74,1.59,1.94,1.94,0,0,0,1.54.43l2.52-.27a1.94,1.94,0,0,0,1.41-.75,2.74,2.74,0,0,0-.36-3.31,1.92,1.92,0,0,0-1.53-.44Z"/><path class="cls-20" d="M267,408.42l2.66-.29a3.05,3.05,0,0,1,2.45.72,3.88,3.88,0,0,1,1.15,2.54,3.72,3.72,0,0,1-.58,2.65,3,3,0,0,1-2.23,1.18l-1.8.2-.61-5.75-.86.09a2,2,0,0,0-1,.37,1.78,1.78,0,0,0-.61.85,2.78,2.78,0,0,0-.12,1.25c.14,1.24.73,1.88,1.79,1.93l.14,1.34a2.85,2.85,0,0,1-2.16-.79,3.76,3.76,0,0,1-1-2.35,4.47,4.47,0,0,1,.18-2,2.89,2.89,0,0,1,1-1.36A3.25,3.25,0,0,1,267,408.42Zm2.13,1.13.47,4.41.71-.08a2.16,2.16,0,0,0,.77-.23,1.73,1.73,0,0,0,.58-.49,1.85,1.85,0,0,0,.32-.74,2.68,2.68,0,0,0,0-.95,2.74,2.74,0,0,0-.37-1.17,1.79,1.79,0,0,0-.77-.68,2,2,0,0,0-1.05-.15Z"/><path class="cls-20" d="M265.5,422.4l8.65-.93.14,1.35-7.46.8.34,3.21,7.47-.8.14,1.34-7.47.8.35,3.22,7.47-.8.14,1.34-8.65.93Z"/><path class="cls-20" d="M269.89,434.94l2.62-.28a3,3,0,0,1,2.44.7,3.78,3.78,0,0,1,1.16,2.55,3.73,3.73,0,0,1-.6,2.73,3,3,0,0,1-2.23,1.2l-2.62.28a3.11,3.11,0,0,1-2.44-.69,3.73,3.73,0,0,1-1.16-2.55,4.44,4.44,0,0,1,.07-1.56,3,3,0,0,1,.54-1.2,2.81,2.81,0,0,1,.94-.8A3.48,3.48,0,0,1,269.89,434.94Zm.19,1.34a1.92,1.92,0,0,0-1.41.75,2.38,2.38,0,0,0-.39,1.72,2.34,2.34,0,0,0,.74,1.59,1.92,1.92,0,0,0,1.54.43l2.53-.27a1.93,1.93,0,0,0,1.41-.74,2.32,2.32,0,0,0,.38-1.72,2.34,2.34,0,0,0-.74-1.59,2,2,0,0,0-1.54-.45Z"/><path class="cls-20" d="M270.88,444.14l2.62-.28a3,3,0,0,1,2.44.69,4.28,4.28,0,0,1,.58,5.12,2.91,2.91,0,0,1-2.16,1.19h-.08l-.15-1.34h.1a1.71,1.71,0,0,0,1.28-.72,2.27,2.27,0,0,0,.35-1.61,2.65,2.65,0,0,0-.37-1.17,1.71,1.71,0,0,0-.76-.68,2,2,0,0,0-1.06-.13l-2.69.28a1.87,1.87,0,0,0-1.37.73,2.31,2.31,0,0,0-.35,1.67,2.6,2.6,0,0,0,.36,1.12,1.7,1.7,0,0,0,.74.67,1.9,1.9,0,0,0,1,.15l.12,0,.14,1.35h-.1a3,3,0,0,1-2.38-.71,4.23,4.23,0,0,1-.53-5.12A3,3,0,0,1,270.88,444.14Z"/><path class="cls-20" d="M271.84,453.09l2.61-.28a3.07,3.07,0,0,1,2.45.7,3.7,3.7,0,0,1,1.15,2.49,3.74,3.74,0,0,1-.57,2.63,2.87,2.87,0,0,1-2.16,1.18h-.08l-.15-1.34h.1a1.73,1.73,0,0,0,1.28-.72,2.29,2.29,0,0,0,.35-1.62,2.88,2.88,0,0,0-.37-1.17,1.68,1.68,0,0,0-.76-.67,2,2,0,0,0-1.06-.14l-2.69.29a1.84,1.84,0,0,0-1.37.72,2.35,2.35,0,0,0-.35,1.68,2.69,2.69,0,0,0,.36,1.12,1.7,1.7,0,0,0,.74.67,1.9,1.9,0,0,0,1,.14h.12l.14,1.34h-.1a2.91,2.91,0,0,1-2.38-.71A3.62,3.62,0,0,1,269,457a3.7,3.7,0,0,1,.6-2.68A3.07,3.07,0,0,1,271.84,453.09Z"/><path class="cls-20" d="M272.75,462.05l2.66-.28a3,3,0,0,1,2.45.72A3.8,3.8,0,0,1,279,465a3.67,3.67,0,0,1-.58,2.65,3,3,0,0,1-2.22,1.19l-1.8.19-.62-5.75-.85.09a2.08,2.08,0,0,0-1,.37,1.8,1.8,0,0,0-.62.85,3,3,0,0,0-.11,1.25c.13,1.24.73,1.89,1.78,1.94l.15,1.34a2.89,2.89,0,0,1-2.16-.79,3.73,3.73,0,0,1-1-2.36,4.41,4.41,0,0,1,.18-2,2.85,2.85,0,0,1,1-1.37A3.27,3.27,0,0,1,272.75,462.05Zm2.13,1.13.47,4.41.71-.08a2,2,0,0,0,.78-.23,1.59,1.59,0,0,0,.57-.49,2,2,0,0,0,.33-.73,3,3,0,0,0,0-.95,2.65,2.65,0,0,0-.38-1.17,1.7,1.7,0,0,0-.77-.69,2,2,0,0,0-1-.14Z"/><path class="cls-20" d="M541.74,530.38l-.14-3.82a4.14,4.14,0,0,1,1.07-3.19,4.72,4.72,0,0,1,3.3-1.25,4.67,4.67,0,0,1,3.12.92,3.71,3.71,0,0,1,1.34,2.94v.17l-1.48.06V526a2.34,2.34,0,0,0-.93-1.95,3,3,0,0,0-2-.62,3.77,3.77,0,0,0-1.64.4,2.28,2.28,0,0,0-1,1,3.16,3.16,0,0,0-.29,1.52l.15,4a2.75,2.75,0,0,0,.87,2.05,3.16,3.16,0,0,0,2.28.65,3.1,3.1,0,0,0,2-.77,2.38,2.38,0,0,0,.79-2v-.16l1.48-.06v.16a3.69,3.69,0,0,1-1.12,3.05,4.62,4.62,0,0,1-3,1.15,4.7,4.7,0,0,1-3.38-1A4.1,4.1,0,0,1,541.74,530.38Z"/><path class="cls-20" d="M551.89,526.49l0-1.19,7.29-.27,0,1.19-3,.11.28,7.5-1.35,0-.28-7.5Z"/><path class="cls-20" d="M561.34,536.36l-.42-11.4.8,0,.52,1.14a3.71,3.71,0,0,1,2.83-1.46,3,3,0,0,1,2.26.76,3.23,3.23,0,0,1,.92,2.32l.1,2.7a3.2,3.2,0,0,1-.76,2.38,3,3,0,0,1-2.23.94,3.45,3.45,0,0,1-2.81-1.17l.14,3.77Zm1.16-5.16a3.53,3.53,0,0,0,2.6,1.28,1.9,1.9,0,0,0,1.41-.62,2,2,0,0,0,.48-1.52l-.09-2.5a2.06,2.06,0,0,0-.6-1.48,1.89,1.89,0,0,0-1.43-.51,3.58,3.58,0,0,0-2.52,1.46Z"/><path class="cls-20" d="M570.5,530.31l-.1-2.67a3,3,0,0,1,.88-2.39,3.85,3.85,0,0,1,2.61-1,3.66,3.66,0,0,1,2.6.77,3,3,0,0,1,1,2.3l.07,1.8-5.78.22,0,.86a2.12,2.12,0,0,0,.31,1,1.7,1.7,0,0,0,.8.66,2.68,2.68,0,0,0,1.24.21c1.24,0,1.93-.6,2-1.65l1.35,0a2.84,2.84,0,0,1-.94,2.1,3.73,3.73,0,0,1-2.42.83,4.6,4.6,0,0,1-2-.31A2.94,2.94,0,0,1,571,532,3.26,3.26,0,0,1,570.5,530.31Zm1.27-2,4.43-.17,0-.71a2,2,0,0,0-.17-.79,1.83,1.83,0,0,0-.45-.61,1.92,1.92,0,0,0-.71-.37,3.09,3.09,0,0,0-2.14.18,1.77,1.77,0,0,0-.74.72,2.09,2.09,0,0,0-.22,1Z"/><path class="cls-20" d="M579.22,533l-.05-1.23h.14a1.32,1.32,0,0,0,1.23-.75,5.19,5.19,0,0,0,.29-2.26l-.17-4.51,6.22-.24.32,8.7-1.34.05-.29-7.5-3.56.13.12,3.3a5.57,5.57,0,0,1-.61,3.15,2.31,2.31,0,0,1-2,1.16Z"/><path class="cls-20" d="M590,532.58l-.32-8.7,1.35,0,.11,3,2.85-.11a2.68,2.68,0,0,1,2,.69,3.34,3.34,0,0,1,.17,4.18,2.66,2.66,0,0,1-2,.84Zm1.31-1.25,2.67-.1a1.71,1.71,0,0,0,.83-.23,1.38,1.38,0,0,0,.53-.59,1.82,1.82,0,0,0,.16-.89,1.65,1.65,0,0,0-.48-1.2,1.47,1.47,0,0,0-1.15-.41l-2.69.1Z"/><path class="cls-20" d="M598.9,532.24l-.32-8.7,1.34,0,.14,3.76,4.45-.17-.14-3.76,1.35-.05.33,8.7-1.35,0-.14-3.74-4.45.17.14,3.74Z"/><path class="cls-20" d="M608.86,531.87l-.33-8.7,1.35,0,.25,6.61,4.37-6.79,1.35-.05.33,8.7-1.35,0-.25-6.6-4.37,6.78Z"/><path class="cls-20" d="M619,531.49l-.33-8.7,1.35,0,.14,3.76,4.45-.17-.14-3.76,1.35-.05.32,8.7-1.34,0-.15-3.75-4.44.17.14,3.74Z"/><path class="cls-20" d="M628.43,528.09l-.1-2.63a3,3,0,0,1,.86-2.39,3.68,3.68,0,0,1,2.57-1,3.73,3.73,0,0,1,2.58.74,2.89,2.89,0,0,1,1,2.24v.08l-1.35.05v-.09a1.72,1.72,0,0,0-.63-1.33,2.26,2.26,0,0,0-1.58-.46,2.87,2.87,0,0,0-1.2.29,1.6,1.6,0,0,0-.72.71,2,2,0,0,0-.21,1l.1,2.7a1.83,1.83,0,0,0,.63,1.42,2.32,2.32,0,0,0,1.65.46,2.52,2.52,0,0,0,1.14-.28,1.63,1.63,0,0,0,.71-.69,1.83,1.83,0,0,0,.22-1v-.13l1.34-.05v.11a2.94,2.94,0,0,1-.88,2.32,3.63,3.63,0,0,1-2.5,1,3.68,3.68,0,0,1-2.63-.78A3.06,3.06,0,0,1,628.43,528.09Z"/><path class="cls-20" d="M637.94,530.77l-.33-8.7L639,522l.14,3.73,1.49,0,2.65-3.84,1.13,0,0,.64-2.58,3.72,3,3.69,0,.64-1.22,0-3-3.67-1.49.06.15,3.77Z"/><path class="cls-20" d="M646.94,530.43l-.33-8.69,1.35,0,.25,6.61,4.37-6.79,1.34,0,.33,8.7-1.35.05-.24-6.6-4.38,6.77Z"/><path class="cls-20" d="M657.06,530.05l-.33-8.69,1.35-.06.25,6.62,4.35-6.79,1.37,0,.32,8.7-1.35.05-.24-6.6L658.42,530Zm.56-12v-.22l1.23,0V518a1.17,1.17,0,0,0,.41.9,1.48,1.48,0,0,0,1,.3,1.53,1.53,0,0,0,1-.38,1.15,1.15,0,0,0,.34-.93v-.18l1.23,0v.21a2.15,2.15,0,0,1-.67,1.72,2.89,2.89,0,0,1-1.9.69,2.79,2.79,0,0,1-1.93-.55A2.12,2.12,0,0,1,657.62,518.05Z"/><path class="cls-20" d="M671.38,529.52l-.33-8.7,7.06-.27.33,8.7-1.35,0-.28-7.5-4.36.16.28,7.5Z"/><path class="cls-20" d="M681.35,531.85l-.43-11.4.81,0,.51,1.14a3.74,3.74,0,0,1,2.83-1.47,3,3,0,0,1,2.26.77,3.23,3.23,0,0,1,.92,2.32l.1,2.7a3.17,3.17,0,0,1-.75,2.38,3,3,0,0,1-2.24.93,3.42,3.42,0,0,1-2.81-1.16l.14,3.77Zm1.15-5.16a3.58,3.58,0,0,0,2.6,1.28,1.9,1.9,0,0,0,1.41-.62,2.1,2.1,0,0,0,.49-1.52l-.1-2.51a2.06,2.06,0,0,0-.6-1.47,1.87,1.87,0,0,0-1.43-.51,3.54,3.54,0,0,0-2.51,1.46Z"/><path class="cls-20" d="M690.5,525.76l-.1-2.63a3,3,0,0,1,.87-2.38,3.72,3.72,0,0,1,2.62-1,3.8,3.8,0,0,1,2.69.78,3.07,3.07,0,0,1,1,2.32l.1,2.63a3.05,3.05,0,0,1-.87,2.38,3.67,3.67,0,0,1-2.61,1,4.85,4.85,0,0,1-1.56-.18,3.14,3.14,0,0,1-1.16-.62,2.9,2.9,0,0,1-.73-1A3.39,3.39,0,0,1,690.5,525.76Zm1.35-.1a1.94,1.94,0,0,0,.65,1.46,2.39,2.39,0,0,0,1.69.51,2.32,2.32,0,0,0,1.64-.63,2,2,0,0,0,.54-1.51l-.1-2.53a2,2,0,0,0-.65-1.47,2.32,2.32,0,0,0-1.68-.49,2.29,2.29,0,0,0-1.64.62,2,2,0,0,0-.55,1.5Z"/><path class="cls-20" d="M699.74,525.41l-.1-2.63a3.08,3.08,0,0,1,.87-2.39,3.67,3.67,0,0,1,2.56-1,3.73,3.73,0,0,1,2.58.74,2.9,2.9,0,0,1,1,2.24v.08l-1.35,0v-.1a1.71,1.71,0,0,0-.63-1.32,2.3,2.3,0,0,0-1.59-.46,2.64,2.64,0,0,0-1.19.29,1.67,1.67,0,0,0-.73.71,2.19,2.19,0,0,0-.21,1.05l.1,2.7a1.9,1.9,0,0,0,.63,1.42,2.35,2.35,0,0,0,1.65.46,2.66,2.66,0,0,0,1.14-.28,1.72,1.72,0,0,0,.72-.69,1.93,1.93,0,0,0,.22-1v-.12l1.35,0v.11a2.9,2.9,0,0,1-.87,2.32,3.65,3.65,0,0,1-2.5,1,3.72,3.72,0,0,1-2.64-.78A3.1,3.1,0,0,1,699.74,525.41Z"/><path class="cls-20" d="M709.25,528.09l-.33-8.7,7.07-.26.32,8.7-1.35,0-.28-7.51-4.36.17.28,7.5Z"/><path class="cls-20" d="M718.61,524.74l-.1-2.67a3,3,0,0,1,.89-2.39,3.8,3.8,0,0,1,2.61-1,3.67,3.67,0,0,1,2.6.76,3,3,0,0,1,1,2.3l.07,1.81-5.78.21,0,.86a2.09,2.09,0,0,0,.3,1.05,1.86,1.86,0,0,0,.81.67,2.79,2.79,0,0,0,1.23.2c1.25-.05,1.93-.6,2.06-1.65l1.35,0a2.91,2.91,0,0,1-.94,2.1,3.75,3.75,0,0,1-2.42.83,4.4,4.4,0,0,1-2-.31,2.88,2.88,0,0,1-1.29-1.06A3.27,3.27,0,0,1,718.61,524.74Zm1.28-2,4.43-.17,0-.71a2,2,0,0,0-.18-.79,1.7,1.7,0,0,0-.45-.61,1.84,1.84,0,0,0-.71-.37,2.82,2.82,0,0,0-.94-.11,2.72,2.72,0,0,0-1.2.3,1.81,1.81,0,0,0-.73.72,1.93,1.93,0,0,0-.22,1Z"/><path class="cls-20" d="M728.26,527.38l-.33-8.7,1.35,0,.14,3.73,1.49-.06,2.65-3.83,1.13-.05,0,.65-2.58,3.72,3,3.68,0,.65-1.22,0-3-3.67-1.49.06.15,3.78Z"/><path class="cls-20" d="M736,519.57l0-1.19,7.29-.28,0,1.2-3,.11.28,7.5-1.35.05-.28-7.5Z"/><path class="cls-20" d="M1662.93,143.75l.49-.42.84,1-3.46,6.52,6.91-2.55.81.94-.49.42-11,3.8-.75-.86.38-.33,2.29-.73Z"/><path class="cls-20" d="M1662.41,155.44l.93-.81.09.1a1.32,1.32,0,0,0,1.36.48,4.79,4.79,0,0,0,1.94-1.19l3.41-3,4.08,4.7-6.57,5.71-.88-1,5.67-4.93-2.34-2.69-2.49,2.17a5.66,5.66,0,0,1-2.85,1.5,2.33,2.33,0,0,1-2.14-.82Z"/><path class="cls-20" d="M1669.39,163.47l1.69-1.47,1,1.18-1.69,1.46Z"/><path class="cls-20" d="M1677.44,167l1,1.12a2.46,2.46,0,0,0-1,1.94,3.3,3.3,0,0,0,.91,2.11,2.9,2.9,0,0,0,1.71,1.07,2.09,2.09,0,0,0,1.71-.58,1.87,1.87,0,0,0,.71-1.48,2.74,2.74,0,0,0-.77-1.71l-1.09-1.25,1-.85,1.1,1.26a2.34,2.34,0,0,0,1.41.87,1.79,1.79,0,0,0,1.44-.5,2.11,2.11,0,0,0,.64-.95,1.89,1.89,0,0,0,0-1.13,3,3,0,0,0-.66-1.18,2.67,2.67,0,0,0-1.79-1,2.64,2.64,0,0,0-2,.76l-1-1.12a3.86,3.86,0,0,1,3-1.08,4.29,4.29,0,0,1,2.73,1.56,4.24,4.24,0,0,1,1.2,2.79,3.14,3.14,0,0,1-1.14,2.38,2.62,2.62,0,0,1-3.2.39,3,3,0,0,1,.31,1.18,2.5,2.5,0,0,1-.22,1.16,3,3,0,0,1-.78,1,3.32,3.32,0,0,1-2.71.88,4.32,4.32,0,0,1-2.73-1.65,4.77,4.77,0,0,1-1.32-3.08A3.78,3.78,0,0,1,1677.44,167Z"/><path class="cls-20" d="M1683.1,175.7a2.43,2.43,0,0,1,2.15-.66,4.42,4.42,0,0,1,2.3,1.56l1.43,1.65.66-.57a1.56,1.56,0,0,0,.61-1.21,2.19,2.19,0,0,0-.65-1.43,2.26,2.26,0,0,0-1.3-.83,1.46,1.46,0,0,0-1.23.37l-.86-1a3.34,3.34,0,0,1,1-.6,2.38,2.38,0,0,1,1.09-.11,2.86,2.86,0,0,1,1.12.4,4.77,4.77,0,0,1,1.1.95,3.67,3.67,0,0,1,1,2.39,2.62,2.62,0,0,1-1,2l-4.55,4-.54-.61.5-1.1a4.08,4.08,0,0,1-2.92-1.38,3.69,3.69,0,0,1-.75-1.3,2.27,2.27,0,0,1,0-1.34A2.38,2.38,0,0,1,1683.1,175.7Zm1,.92a1.27,1.27,0,0,0-.49,1.06,2.13,2.13,0,0,0,.58,1.24,3.72,3.72,0,0,0,2.66,1.2l1.32-1.15-1.44-1.65C1685.73,176.19,1684.86,176,1684.09,176.62Z"/><path class="cls-20" d="M1687.8,184.65l6.57-5.71,2.61,3a3.09,3.09,0,0,1,.88,1.9,2.08,2.08,0,0,1-.8,1.65,2,2,0,0,1-2.23.45,2,2,0,0,1-.55,2.44c-1.23,1.07-2.48.87-3.74-.58Zm1.79.24,1.88,2.16a1.45,1.45,0,0,0,1,.57,1.32,1.32,0,0,0,1-.37,1.23,1.23,0,0,0,0-1.95l-1.86-2.14Zm2.82-2.45,1.69,1.95a1.9,1.9,0,0,0,.45.38,1,1,0,0,0,.48.14,1.16,1.16,0,0,0,.48-.08,1.71,1.71,0,0,0,.47-.29,1.17,1.17,0,0,0,.06-1.86l-1.68-1.93Z"/><path class="cls-20" d="M1696,189.46l2-1.73a3,3,0,0,1,2.4-.81,4.43,4.43,0,0,1,3.49,4,3,3,0,0,1-1.15,2.25l-2,1.73a3.07,3.07,0,0,1-2.4.83,3.78,3.78,0,0,1-2.41-1.42,4.75,4.75,0,0,1-.83-1.32,3.26,3.26,0,0,1-.25-1.3,3,3,0,0,1,.32-1.2A3.49,3.49,0,0,1,1696,189.46Zm.93,1a1.9,1.9,0,0,0-.73,1.43,2.37,2.37,0,0,0,.66,1.63,2.31,2.31,0,0,0,1.52.88,1.94,1.94,0,0,0,1.51-.53l1.92-1.66a2,2,0,0,0,.73-1.42,2.33,2.33,0,0,0-.67-1.62,2.29,2.29,0,0,0-1.52-.89,1.91,1.91,0,0,0-1.51.51Z"/><path class="cls-20" d="M1700.38,197.3l.52.6a5.61,5.61,0,0,0,3.61-1.7l2.77-2.41,4.11,4.73-5.67,4.93.86,1-2.54,2.2-.88-1,1.63-1.42-4.46-5.13-1.63,1.42-.86-1Zm1.49,1.71,3,3.42,4.76-4.14-2.36-2.72-2,1.75A7,7,0,0,1,1701.87,199Z"/><path class="cls-20" d="M1709.05,204.47l2-1.73a3,3,0,0,1,2.4-.82,4.25,4.25,0,0,1,3.4,3.86,2.89,2.89,0,0,1-1.09,2.21l-.06,0-.89-1,.07-.06a1.76,1.76,0,0,0,.65-1.32,2.26,2.26,0,0,0-.65-1.52,2.69,2.69,0,0,0-1-.76,1.69,1.69,0,0,0-1-.11,2,2,0,0,0-.94.49l-2,1.78a1.84,1.84,0,0,0-.71,1.37,2.32,2.32,0,0,0,.68,1.58,2.63,2.63,0,0,0,.93.71,1.8,1.8,0,0,0,1,.13,2,2,0,0,0,.92-.47l.09-.08.89,1-.09.07a2.94,2.94,0,0,1-2.35.78,4.22,4.22,0,0,1-3.36-3.89A3,3,0,0,1,1709.05,204.47Z"/><path class="cls-20" d="M1712.92,213.56l6.57-5.71.89,1-2.82,2.45,1,1.13,4.65-.34.74.85-.49.42-4.51.32-1,4.65-.49.43-.8-.92,1-4.63-1-1.13-2.85,2.49Z"/><path class="cls-20" d="M1720,218.16a2.45,2.45,0,0,1,2.15-.65,4.3,4.3,0,0,1,2.3,1.56l1.43,1.65.66-.57a1.58,1.58,0,0,0,.61-1.22,2.74,2.74,0,0,0-2-2.25,1.46,1.46,0,0,0-1.23.37l-.86-1a3,3,0,0,1,1-.6,2.52,2.52,0,0,1,1.09-.12,2.89,2.89,0,0,1,1.12.41,4.54,4.54,0,0,1,1.1.95,3.64,3.64,0,0,1,1,2.38,2.67,2.67,0,0,1-1,2l-4.55,4-.54-.62.5-1.1a3.75,3.75,0,0,1-1.54-.36,3.66,3.66,0,0,1-1.38-1,3.56,3.56,0,0,1-.75-1.29,2.35,2.35,0,0,1,0-1.34A2.55,2.55,0,0,1,1720,218.16Zm1,.92a1.29,1.29,0,0,0-.49,1.07,2.1,2.1,0,0,0,.58,1.23,3.68,3.68,0,0,0,2.66,1.2l1.31-1.14-1.43-1.65C1722.64,218.65,1721.77,218.42,1721,219.08Z"/><path class="cls-20" d="M1724.37,226.72l.48-.42,3.39-.38a2.22,2.22,0,0,1-.3-1,2.05,2.05,0,0,1,.24-1.06,3.29,3.29,0,0,1,.8-1,2.7,2.7,0,0,1,1.92-.77,2.43,2.43,0,0,1,1.74.91l2.8,3.23-6.57,5.71-.88-1,2.52-2.19-1.35-1.55-4,.53Zm5.48-2.86a1.36,1.36,0,0,0-.12,2.12l1.68,1.94,2.24-2L1732,224a1.52,1.52,0,0,0-1-.59A1.44,1.44,0,0,0,1729.85,223.86Z"/><path class="cls-20" d="M855.56,584.23v-.5L860,572.38h1.47l4.43,11.35v.5h-1.46l-1.18-3.16h-5.11l-1.22,3.16Zm3-4.4h4.21l-2.09-5.49Z"/><path class="cls-20" d="M866.82,583h.79a5.58,5.58,0,0,0,1.09-3.83v-3.68H875V583h1.31v3.36h-1.35v-2.16h-6.8v2.16h-1.31Zm2.27,0h4.53v-6.31H870v2.67A7,7,0,0,1,869.09,583Z"/><path class="cls-20" d="M878.31,584.23v-8.71h1.35l3.07,4.27,3-4.27h1.35v8.71h-1.35v-6.61L883,581.4h-.64l-2.72-3.78v6.61Z"/><path class="cls-20" d="M889.88,584.23v-8.71h1.35v6.62l4.62-6.62h1.35v8.71h-1.35v-6.61l-4.62,6.61Z"/><path class="cls-20" d="M900,584.23v-8.71h1.35v3.77h4.45v-3.77h1.35v8.71h-1.35v-3.75h-4.45v3.75Z"/><path class="cls-20" d="M910,584.23v-8.71h1.35v6.62l4.62-6.62h1.35v8.71h-1.35v-6.61l-4.62,6.61Z"/><path class="cls-20" d="M919.71,581.19v-2.63a3,3,0,0,1,.95-2.36,4.31,4.31,0,0,1,5.15,0,2.89,2.89,0,0,1,1,2.27v.09h-1.35v-.1a1.73,1.73,0,0,0-.58-1.35,2.26,2.26,0,0,0-1.57-.52,2.81,2.81,0,0,0-1.21.24,1.6,1.6,0,0,0-.74.69,2,2,0,0,0-.25,1v2.7a1.86,1.86,0,0,0,.57,1.44,2.32,2.32,0,0,0,1.63.53,2.57,2.57,0,0,0,1.15-.24,1.71,1.71,0,0,0,.74-.66,1.93,1.93,0,0,0,.26-1v-.12h1.35v.1a2.94,2.94,0,0,1-1,2.29,4.25,4.25,0,0,1-5.14,0A3.06,3.06,0,0,1,919.71,581.19Z"/><path class="cls-20" d="M928.08,576.72v-1.2h7.3v1.2h-3v7.51h-1.35v-7.51Z"/><path class="cls-20" d="M937.16,586.93V575.52H938l.48,1.16a3.69,3.69,0,0,1,2.88-1.35,3,3,0,0,1,2.22.84,3.21,3.21,0,0,1,.84,2.36v2.7a3.14,3.14,0,0,1-.85,2.35,3,3,0,0,1-2.26.85,3.46,3.46,0,0,1-2.77-1.27v3.77Zm1.35-5.11a3.54,3.54,0,0,0,2.55,1.38,1.88,1.88,0,0,0,1.43-.57,2.1,2.1,0,0,0,.55-1.5v-2.51a2.09,2.09,0,0,0-.55-1.49,1.85,1.85,0,0,0-1.41-.57,3.58,3.58,0,0,0-2.57,1.37Z"/><path class="cls-20" d="M946.33,581.9a2.46,2.46,0,0,1,.92-2,4.38,4.38,0,0,1,2.69-.71h2.18v-.87a1.58,1.58,0,0,0-.51-1.26,2.72,2.72,0,0,0-3,0,1.47,1.47,0,0,0-.53,1.17h-1.31A3.11,3.11,0,0,1,947,577a2.49,2.49,0,0,1,.63-.9,2.9,2.9,0,0,1,1-.58,4.56,4.56,0,0,1,1.44-.2,3.66,3.66,0,0,1,2.48.77,2.65,2.65,0,0,1,.88,2.09v6h-.81l-.5-1.1a4,4,0,0,1-1.29.93,3.81,3.81,0,0,1-1.67.37,3.45,3.45,0,0,1-1.47-.29,2.26,2.26,0,0,1-1-.86A2.5,2.5,0,0,1,946.33,581.9Zm1.35-.14a1.25,1.25,0,0,0,.48,1.06,2.09,2.09,0,0,0,1.32.38,3.67,3.67,0,0,0,2.64-1.22v-1.75h-2.18C948.43,580.23,947.68,580.74,947.68,581.76Z"/><path class="cls-20" d="M955.16,576.72v-1.2h7.3v1.2h-3v7.51h-1.36v-7.51Z"/><path class="cls-20" d="M964.24,584.23v-8.71h1.35v6.62l4.62-6.62h1.35v8.71h-1.35v-6.61l-4.62,6.61Z"/><path class="cls-20" d="M974.37,584.23v-8.71h4a3.16,3.16,0,0,1,2,.58,2,2,0,0,1,.72,1.69,2,2,0,0,1-1.12,2,2,2,0,0,1,1.48,2c0,1.63-1,2.45-2.9,2.45Zm1.35-4.93h2.58a1.72,1.72,0,0,0,.58-.09,1,1,0,0,0,.42-.27,1.1,1.1,0,0,0,.26-.41,1.8,1.8,0,0,0,.08-.54c0-.85-.45-1.27-1.36-1.27h-2.56Zm0,3.73h2.86a1.44,1.44,0,0,0,1.06-.35,1.31,1.31,0,0,0,.36-1c0-.87-.48-1.3-1.45-1.3h-2.83Z"/><path class="cls-20" d="M983.77,584.23v-8.71h1.35v3.77h4.45v-3.77h1.35v8.71h-1.35v-3.75h-4.45v3.75Z"/><path class="cls-20" d="M993.34,581.19v-2.63a3.07,3.07,0,0,1,.95-2.35,3.79,3.79,0,0,1,2.67-.88,3.74,3.74,0,0,1,2.65.88,3.07,3.07,0,0,1,.95,2.35v2.63a3.07,3.07,0,0,1-.95,2.35,3.7,3.7,0,0,1-2.65.89,4.67,4.67,0,0,1-1.55-.24,3,3,0,0,1-1.14-.66,2.92,2.92,0,0,1-.69-1A3.43,3.43,0,0,1,993.34,581.19Zm1.35-.05a2,2,0,0,0,.6,1.49,2.33,2.33,0,0,0,1.67.57,2.29,2.29,0,0,0,1.66-.57,2,2,0,0,0,.59-1.49v-2.53a2,2,0,0,0-.59-1.49,2.74,2.74,0,0,0-3.33,0,1.93,1.93,0,0,0-.6,1.48Z"/><path class="cls-20" d="M1002.64,579.56v-1.24h5.3v1.24Z"/><path class="cls-20" d="M1008.89,583h.79a5.58,5.58,0,0,0,1.09-3.83v-3.68H1017V583h1.3v3.36H1017v-2.16h-6.8v2.16h-1.31Zm2.27,0h4.53v-6.31h-3.61v2.67A7,7,0,0,1,1011.16,583Z"/><path class="cls-20" d="M1020,581.23v-2.67a3,3,0,0,1,1-2.36,3.86,3.86,0,0,1,2.65-.87,3.65,3.65,0,0,1,2.57.86,3,3,0,0,1,.94,2.34v1.8h-5.78v.86a2,2,0,0,0,.26,1.06,1.78,1.78,0,0,0,.78.7,2.87,2.87,0,0,0,1.23.25c1.24,0,1.95-.53,2.11-1.58h1.35a2.87,2.87,0,0,1-1,2.07,3.79,3.79,0,0,1-2.45.74,4.48,4.48,0,0,1-1.94-.39,2.88,2.88,0,0,1-1.25-1.11A3.21,3.21,0,0,1,1020,581.23Zm1.35-2h4.43v-.71a2.07,2.07,0,0,0-.15-.8,1.66,1.66,0,0,0-.42-.62,1.79,1.79,0,0,0-.7-.4,2.77,2.77,0,0,0-.94-.15,2.6,2.6,0,0,0-1.2.25,1.77,1.77,0,0,0-.76.69,2,2,0,0,0-.26,1Z"/><path class="cls-20" d="M1028.6,584.23V583h.14a1.29,1.29,0,0,0,1.25-.7,5,5,0,0,0,.38-2.25v-4.52h6.22v8.71h-1.34v-7.51h-3.57V580a5.67,5.67,0,0,1-.73,3.14,2.33,2.33,0,0,1-2,1.08Z"/><path class="cls-20" d="M1039,581.19v-2.63a3,3,0,0,1,1-2.35,4.46,4.46,0,0,1,5.32,0,3.07,3.07,0,0,1,1,2.35v2.63a3.07,3.07,0,0,1-1,2.35,3.72,3.72,0,0,1-2.66.89,4.65,4.65,0,0,1-1.54-.24,3,3,0,0,1-1.14-.66,2.94,2.94,0,0,1-.7-1A3.43,3.43,0,0,1,1039,581.19Zm1.35-.05a1.94,1.94,0,0,0,.61,1.49,2.72,2.72,0,0,0,3.33,0,2,2,0,0,0,.59-1.49v-2.53a2,2,0,0,0-.59-1.49,2.36,2.36,0,0,0-1.67-.56,2.31,2.31,0,0,0-1.66.57,1.9,1.9,0,0,0-.61,1.48Z"/><path class="cls-20" d="M1048.63,584.23v-8.71h4a3.16,3.16,0,0,1,2,.58,2,2,0,0,1,.72,1.69,2,2,0,0,1-1.12,2,2,2,0,0,1,1.48,2c0,1.63-1,2.45-2.9,2.45Zm1.35-4.93h2.58a1.72,1.72,0,0,0,.58-.09,1,1,0,0,0,.42-.27,1.1,1.1,0,0,0,.26-.41,1.53,1.53,0,0,0,.08-.54c0-.85-.45-1.27-1.35-1.27H1050Zm0,3.73h2.86a1.44,1.44,0,0,0,1.06-.35,1.31,1.31,0,0,0,.36-1c0-.87-.48-1.3-1.45-1.3H1050Z"/><path class="cls-20" d="M1057.63,581.19v-2.63a3,3,0,0,1,1-2.35,4.46,4.46,0,0,1,5.32,0,3.07,3.07,0,0,1,.95,2.35v2.63a3.07,3.07,0,0,1-.95,2.35,3.72,3.72,0,0,1-2.66.89,4.65,4.65,0,0,1-1.54-.24,3,3,0,0,1-1.14-.66,2.92,2.92,0,0,1-.69-1A3.26,3.26,0,0,1,1057.63,581.19Zm1.35-.05a1.94,1.94,0,0,0,.61,1.49,2.72,2.72,0,0,0,3.33,0,2,2,0,0,0,.59-1.49v-2.53a2,2,0,0,0-.59-1.49,2.36,2.36,0,0,0-1.67-.56,2.31,2.31,0,0,0-1.66.57,1.9,1.9,0,0,0-.61,1.48Z"/><path class="cls-20" d="M1067.28,584.23v-8.71h1.35v6.62l4.61-6.62h1.36v8.71h-1.35v-6.61l-4.61,6.61Zm1-12V572h1.23v.18a1.16,1.16,0,0,0,.37.92,1.49,1.49,0,0,0,1,.33,1.54,1.54,0,0,0,1-.33,1.17,1.17,0,0,0,.38-.92V572h1.23v.21a2.11,2.11,0,0,1-.74,1.69,3.23,3.23,0,0,1-3.83,0A2.14,2.14,0,0,1,1068.29,572.25Z"/><path class="cls-20" d="M943.35,604.33v-8.7h1.35v7.51H949v-7.51h1.35v7.51h1.33v3.36h-1.35v-2.17Z"/><path class="cls-20" d="M953.32,601.34v-2.68a3,3,0,0,1,1-2.35,3.82,3.82,0,0,1,2.65-.88,3.7,3.7,0,0,1,2.57.86,3,3,0,0,1,.94,2.34v1.81h-5.78v.86a2.1,2.1,0,0,0,.26,1.05,1.84,1.84,0,0,0,.78.7,2.73,2.73,0,0,0,1.23.25c1.24,0,1.95-.52,2.11-1.57h1.35a2.85,2.85,0,0,1-1,2.06,3.73,3.73,0,0,1-2.45.75,4.48,4.48,0,0,1-1.94-.39,2.88,2.88,0,0,1-1.25-1.11A3.23,3.23,0,0,1,953.32,601.34Zm1.35-2h4.43v-.71a2.28,2.28,0,0,0-.14-.8,1.82,1.82,0,0,0-.43-.62,1.92,1.92,0,0,0-.7-.4,2.77,2.77,0,0,0-.94-.14,2.6,2.6,0,0,0-1.2.25,1.65,1.65,0,0,0-.76.69,1.89,1.89,0,0,0-.26,1Z"/><path class="cls-20" d="M962.86,604.33v-8.7h1.35v3.76h4.45v-3.76H970v8.7h-1.35v-3.75h-4.45v3.75Z"/><path class="cls-20" d="M971.8,596.82v-1.19h7.29v1.19h-3v7.51h-1.35v-7.51Z"/><path class="cls-20" d="M980.88,607V595.63h.81l.47,1.16a3.7,3.7,0,0,1,2.88-1.36,3,3,0,0,1,2.23.85,3.22,3.22,0,0,1,.83,2.35v2.71a3.2,3.2,0,0,1-.84,2.35,3.08,3.08,0,0,1-2.27.85,3.45,3.45,0,0,1-2.76-1.27V607Zm1.35-5.11a3.56,3.56,0,0,0,2.55,1.37,1.9,1.9,0,0,0,1.43-.57,2.09,2.09,0,0,0,.54-1.5v-2.5a2.09,2.09,0,0,0-.54-1.5,1.91,1.91,0,0,0-1.41-.56,3.55,3.55,0,0,0-2.57,1.36Z"/><circle class="cls-21" cx="964.83" cy="555.19" r="2"/><circle class="cls-21" cx="964.83" cy="438.19" r="2"/><line class="cls-21" x1="964.83" y1="553.19" x2="964.83" y2="440.08"/><path class="cls-20" d="M1071,365.64l.47-.45.89.91-3.06,6.71,6.74-2.95.87.88-.47.45-10.72,4.45-.79-.82.36-.35,2.24-.86Z"/><path class="cls-20" d="M1071.17,377.34l.88-.87.1.1a1.3,1.3,0,0,0,1.38.4,5.05,5.05,0,0,0,1.87-1.3l3.22-3.16L1083,377l-6.22,6.1-.94-1,5.36-5.25-2.49-2.55-2.36,2.31a5.67,5.67,0,0,1-2.75,1.67,2.33,2.33,0,0,1-2.19-.7Z"/><path class="cls-20" d="M1078.62,384.94l1.59-1.56,1.09,1.11-1.6,1.56Z"/><path class="cls-20" d="M1087.26,388.05l2.75-2.7a4,4,0,0,1,3.09-1.3,5.45,5.45,0,0,1,4.65,4.75,4,4,0,0,1-1.36,3.06l-2.76,2.7a4.38,4.38,0,0,1-2,1.2,3.63,3.63,0,0,1-2.16-.11,5.39,5.39,0,0,1-2-1.37,4.73,4.73,0,0,1-1.52-3.17A4,4,0,0,1,1087.26,388.05Zm1,1.1a2.72,2.72,0,0,0-.91,2,3.13,3.13,0,0,0,1,2.15,3.19,3.19,0,0,0,2.14,1.08,2.7,2.7,0,0,0,2-.86l2.86-2.8a2.67,2.67,0,0,0,.89-2,3.15,3.15,0,0,0-1-2.15,3.1,3.1,0,0,0-2.13-1.08,2.69,2.69,0,0,0-2,.86Z"/><path class="cls-20" d="M1092.14,398.74l.46-.45,4.62-.62.7-4.54.46-.46.86.89-.66,4,4-.6.87.89-.47.45-4.55.61-.68,4.63-.47.46-.85-.88.66-4.11-4.07.63Z"/><path class="cls-20" d="M1100.42,402.86l1.88-1.84a3,3,0,0,1,2.35-1,3.76,3.76,0,0,1,2.49,1.28,3.72,3.72,0,0,1,1.23,2.51,3.11,3.11,0,0,1-1,2.33l-1.89,1.84a3.08,3.08,0,0,1-2.34,1,3.74,3.74,0,0,1-2.49-1.28,4.54,4.54,0,0,1-.91-1.27,2.92,2.92,0,0,1-.32-1.28,2.84,2.84,0,0,1,.24-1.21A3.45,3.45,0,0,1,1100.42,402.86Zm1,.93a2,2,0,0,0-.64,1.47,2.72,2.72,0,0,0,2.33,2.38,2,2,0,0,0,1.47-.62l1.82-1.77a2,2,0,0,0,.64-1.46,2.3,2.3,0,0,0-.76-1.59,2.36,2.36,0,0,0-1.57-.79,2,2,0,0,0-1.48.61Z"/><path class="cls-20" d="M1109.65,405.89l.85-.84,5.11,5.21-.85.84-2.08-2.12-5.36,5.26-1-1,5.37-5.26Z"/><path class="cls-20" d="M1110.64,417.63l6.22-6.09.94,1-2.69,2.63,3.12,3.18,2.69-2.63.94,1-6.22,6.09-.94-1,2.67-2.62-3.11-3.18-2.68,2.62Z"/><path class="cls-20" d="M1117.61,424.75l6.22-6.09.94,1-4.72,4.63,8-1.33.94,1-6.22,6.09-.94-1,4.72-4.62-8,1.32Z"/><path class="cls-20" d="M1128.51,427.54l2-2,1,1-2,1.91c-.79.79-.67,1.72.39,2.8a7.39,7.39,0,0,0,1.64,1.27l3-2.89.94,1-6.22,6.09-.94-1,2.39-2.34a8.76,8.76,0,0,1-1.78-1.41,4,4,0,0,1-1.27-2.3A2.44,2.44,0,0,1,1128.51,427.54Z"/><path class="cls-20" d="M1131.22,438.64l6.22-6.09.94,1-2.14,2.1,2,2a2.62,2.62,0,0,1,.86,2,3.32,3.32,0,0,1-3,2.93,2.66,2.66,0,0,1-2-.91Zm1.8.13,1.87,1.91a1.74,1.74,0,0,0,.72.45,1.36,1.36,0,0,0,.8,0,1.83,1.83,0,0,0,.77-.48,1.66,1.66,0,0,0,.56-1.16,1.49,1.49,0,0,0-.47-1.13l-1.88-1.92Z"/><path class="cls-20" d="M1137.09,444.63l.46-.44,3.37-.59a2.18,2.18,0,0,1-.37-1,2.08,2.08,0,0,1,.18-1.08,3.18,3.18,0,0,1,.74-1,2.7,2.7,0,0,1,1.87-.88,2.46,2.46,0,0,1,1.79.81l3,3.05-6.22,6.09-.94-1,2.38-2.34-1.44-1.47-3.92.77Zm5.31-3.18a1.46,1.46,0,0,0-.51,1.05,1.55,1.55,0,0,0,.51,1.08l1.79,1.83,2.13-2.09-1.79-1.82a1.52,1.52,0,0,0-1.08-.54A1.47,1.47,0,0,0,1142.4,441.45Z"/><circle class="cls-21" cx="1219.32" cy="411.81" r="2"/><circle class="cls-21" cx="1282.15" cy="480.8" r="2"/><line class="cls-21" x1="1220.66" y1="413.29" x2="1280.78" y2="479.29"/><path class="cls-20" d="M1282.53,497.23v-2.06h8.87v2.06h-3.25v9.55h-2.36v-9.55Z"/><path class="cls-20" d="M1291.29,504.4a2.52,2.52,0,0,1,.9-2.08,4,4,0,0,1,2.62-.73h1.79V501c0-.79-.46-1.18-1.39-1.18a1.7,1.7,0,0,0-1,.26.86.86,0,0,0-.36.72h-2.1a2.7,2.7,0,0,1,.9-2.15,3.82,3.82,0,0,1,2.6-.8,3.9,3.9,0,0,1,2.63.8,2.75,2.75,0,0,1,.92,2.19v5.9h-1.25l-.63-.84a3.74,3.74,0,0,1-2.66,1.05,3.33,3.33,0,0,1-2.1-.68A2.31,2.31,0,0,1,1291.29,504.4Zm2.16-.29c0,.61.4.92,1.22.92a2.48,2.48,0,0,0,1.93-.86v-.95h-1.79a1.71,1.71,0,0,0-1,.25A.76.76,0,0,0,1293.45,504.11Z"/><path class="cls-20" d="M1301.26,506.78V498.1h2.16l2.4,3.82,2.33-3.82h2.15v8.68h-2.15v-5.35l-1.89,3.08h-1l-1.85-3.08v5.35Z"/><path class="cls-20" d="M1312.5,503.77v-2.65a3,3,0,0,1,1-2.35,4.83,4.83,0,0,1,5.56,0,3,3,0,0,1,1,2.35v2.65a3,3,0,0,1-1,2.33,4.81,4.81,0,0,1-5.56,0A3,3,0,0,1,1312.5,503.77Zm2.15-.1a1.23,1.23,0,0,0,.43,1,1.76,1.76,0,0,0,1.2.38,1.69,1.69,0,0,0,1.18-.38,1.23,1.23,0,0,0,.42-1v-2.46a1.24,1.24,0,0,0-.42-1,1.69,1.69,0,0,0-1.18-.37,1.76,1.76,0,0,0-1.2.37,1.23,1.23,0,0,0-.43,1Z"/><path class="cls-20" d="M1321.58,506.78v-1l2.17-3.4-2-3.27v-1h1.77l2.12,3.42h.87V498.1h2.16v3.42h.87l2.12-3.42h1.77v1l-2,3.27,2.16,3.4v1h-1.89l-2.07-3.4h-.92v3.4h-2.16v-3.4h-.92l-2,3.4Z"/><path class="cls-20" d="M1335,503.8v-2.68a2.93,2.93,0,0,1,1-2.34,4.13,4.13,0,0,1,2.75-.89,3.86,3.86,0,0,1,2.64.85,2.92,2.92,0,0,1,1,2.33v2.07h-5.25v.63a1.09,1.09,0,0,0,.43.92,1.9,1.9,0,0,0,1.2.34c.81,0,1.3-.3,1.44-.89h2.16a3,3,0,0,1-1.07,2.1,4,4,0,0,1-2.53.75,4.16,4.16,0,0,1-2.76-.85A2.89,2.89,0,0,1,1335,503.8Zm2.15-2.28h3.09v-.45a1.1,1.1,0,0,0-.41-.89,1.76,1.76,0,0,0-1.14-.32,1.71,1.71,0,0,0-1.13.32,1.1,1.1,0,0,0-.41.89Z"/><path class="cls-20" d="M1344.63,506.78V498.1h2.16v3.4h3.15v-3.4h2.15v8.68h-2.15v-3.42h-3.15v3.42Z"/><path class="cls-20" d="M1354.68,506.78V498.1h2.16v3.4H1360v-3.4h2.15v8.68H1360v-3.42h-3.15v3.42Z"/><path class="cls-20" d="M1364.14,504.4a2.54,2.54,0,0,1,.89-2.08,4.06,4.06,0,0,1,2.63-.73h1.79V501c0-.79-.47-1.18-1.4-1.18a1.67,1.67,0,0,0-1,.26.86.86,0,0,0-.36.72h-2.1a2.7,2.7,0,0,1,.9-2.15,3.79,3.79,0,0,1,2.59-.8,3.91,3.91,0,0,1,2.64.8,2.78,2.78,0,0,1,.92,2.19v5.9h-1.25l-.63-.84a3.74,3.74,0,0,1-2.66,1.05,3.33,3.33,0,0,1-2.1-.68A2.31,2.31,0,0,1,1364.14,504.4Zm2.15-.29c0,.61.41.92,1.22.92a2.5,2.5,0,0,0,1.94-.86v-.95h-1.79a1.69,1.69,0,0,0-1,.25A.77.77,0,0,0,1366.29,504.11Z"/><path class="cls-20" d="M1373.56,500.91a2.85,2.85,0,0,1,.71-2.06,2.43,2.43,0,0,1,1.85-.75h4.67v8.68h-2.15V503.6h-1l-2,3.18h-2v-1l1.57-2.25A2.46,2.46,0,0,1,1373.56,500.91Zm2.15.07a1.18,1.18,0,0,0,0,.27,1.82,1.82,0,0,0,.07.25.9.9,0,0,0,.14.2.75.75,0,0,0,.2.15.92.92,0,0,0,.25.09,1.66,1.66,0,0,0,.32,0h1.92v-2h-1.92A.9.9,0,0,0,1375.71,501Z"/><path class="cls-20" d="M1386.74,503.58h2.09c0,1,.56,1.45,1.69,1.45a1.79,1.79,0,0,0,1-.26.81.81,0,0,0,.37-.69c0-.55-.32-.83-1-.83h-1.31v-1.63h1.3a.8.8,0,0,0,.6-.23.86.86,0,0,0,.22-.62.78.78,0,0,0-.33-.67,1.58,1.58,0,0,0-.93-.24c-1,0-1.49.46-1.49,1.39h-2.09a3.25,3.25,0,0,1,.94-2.49,3.84,3.84,0,0,1,2.71-.87,4.67,4.67,0,0,1,1.83.33,2.7,2.7,0,0,1,1.21.92,2.41,2.41,0,0,1,.42,1.42,2,2,0,0,1-.9,1.79,1.9,1.9,0,0,1,1,1.79,2.5,2.5,0,0,1-.94,2.1,4.15,4.15,0,0,1-2.66.75,4,4,0,0,1-2.8-.92A3.22,3.22,0,0,1,1386.74,503.58Z"/><path class="cls-20" d="M1396,503.77v-2.65a3,3,0,0,1,1-2.35,4.82,4.82,0,0,1,5.55,0,3,3,0,0,1,1,2.35v2.65a2.93,2.93,0,0,1-1,2.33,4.79,4.79,0,0,1-5.55,0A3,3,0,0,1,1396,503.77Zm2.15-.1a1.23,1.23,0,0,0,.43,1,1.73,1.73,0,0,0,1.19.38,1.72,1.72,0,0,0,1.19-.38,1.23,1.23,0,0,0,.42-1v-2.46a1.24,1.24,0,0,0-.42-1,2.1,2.1,0,0,0-2.38,0,1.23,1.23,0,0,0-.43,1Z"/><path class="cls-20" d="M1405.74,506.78V498.1h2.16v3.4h3.15v-3.4h2.15v8.68h-2.15v-3.42h-3.15v3.42Z"/><path class="cls-20" d="M1415.2,504.4a2.54,2.54,0,0,1,.89-2.08,4.06,4.06,0,0,1,2.63-.73h1.79V501c0-.79-.46-1.18-1.4-1.18a1.69,1.69,0,0,0-1,.26.86.86,0,0,0-.36.72h-2.1a2.7,2.7,0,0,1,.9-2.15,3.79,3.79,0,0,1,2.59-.8,3.91,3.91,0,0,1,2.64.8,2.75,2.75,0,0,1,.92,2.19v5.9h-1.25l-.63-.84a3.74,3.74,0,0,1-2.66,1.05,3.33,3.33,0,0,1-2.1-.68A2.31,2.31,0,0,1,1415.2,504.4Zm2.15-.29c0,.61.41.92,1.22.92a2.5,2.5,0,0,0,1.94-.86v-.95h-1.79a1.71,1.71,0,0,0-1,.25A.77.77,0,0,0,1417.35,504.11Z"/><rect class="cls-20" x="994.51" y="343.23" width="10" height="10" rx="1"/><path class="cls-15" d="M997.38,351.18v-6.24h2.79a1.69,1.69,0,0,1,1.31.52,2.1,2.1,0,0,1,.48,1.45,2,2,0,0,1-.48,1.43,1.66,1.66,0,0,1-1.31.53h-1.53v2.31Zm1.26-3.41h1.3a.69.69,0,0,0,.53-.23.9.9,0,0,0,.21-.64.89.89,0,0,0-.21-.63.7.7,0,0,0-.53-.23h-1.3Z"/><rect class="cls-20" x="966.51" y="349.23" width="10" height="10" rx="1"/><path class="cls-15" d="M969.38,357.18v-6.24h2.79a1.69,1.69,0,0,1,1.31.52,2.1,2.1,0,0,1,.48,1.45,2,2,0,0,1-.48,1.43,1.66,1.66,0,0,1-1.31.53h-1.53v2.31Zm1.26-3.41h1.3a.69.69,0,0,0,.53-.23.9.9,0,0,0,.21-.64.89.89,0,0,0-.21-.63.7.7,0,0,0-.53-.23h-1.3Z"/><rect class="cls-20" x="933.51" y="347.23" width="10" height="10" rx="1"/><path class="cls-15" d="M936.38,355.18v-6.24h2.79a1.69,1.69,0,0,1,1.31.52,2.1,2.1,0,0,1,.48,1.45,2,2,0,0,1-.48,1.43,1.66,1.66,0,0,1-1.31.53h-1.53v2.31Zm1.26-3.41h1.3a.69.69,0,0,0,.53-.23.9.9,0,0,0,.21-.64.89.89,0,0,0-.21-.63.7.7,0,0,0-.53-.23h-1.3Z"/><rect class="cls-20" x="523.83" y="410.27" width="10" height="10" rx="1"/><path class="cls-15" d="M526.71,418.22V412h2.79a1.69,1.69,0,0,1,1.31.53,2.4,2.4,0,0,1,0,2.88,1.69,1.69,0,0,1-1.31.53H528v2.3Zm1.26-3.41h1.29a.68.68,0,0,0,.54-.23A.89.89,0,0,0,530,414a.9.9,0,0,0-.21-.64.7.7,0,0,0-.54-.22H528Z"/><rect class="cls-20" x="766.27" y="401.39" width="10" height="10" rx="1"/><path class="cls-15" d="M769.14,409.34V403.1h2.79a1.7,1.7,0,0,1,1.32.53,2.1,2.1,0,0,1,.48,1.45,2,2,0,0,1-.48,1.43,1.7,1.7,0,0,1-1.32.53h-1.52v2.3Zm1.27-3.41h1.29a.7.7,0,0,0,.54-.22.91.91,0,0,0,.2-.64.89.89,0,0,0-.2-.64.7.7,0,0,0-.54-.22h-1.29Z"/><line class="cls-17" x1="1174.95" y1="481.56" x2="1159.59" y2="464.54"/><polygon class="cls-20" points="1164.22 464.14 1160.42 465.45 1158.72 469.1 1155.59 460.11 1164.22 464.14"/><line class="cls-17" x1="1150.09" y1="489.45" x2="1197.92" y2="475.68"/><line class="cls-17" x1="970.32" y1="269.97" x2="986.78" y2="287.78"/><polygon class="cls-20" points="982.15 288.23 985.94 286.87 987.59 283.2 990.83 292.16 982.15 288.23"/><line class="cls-17" x1="995.47" y1="263.04" x2="947.14" y2="274.95"/><path class="cls-20" d="M941.59,263.29l-2.9-11.48,4.84-1.23a3.91,3.91,0,0,1,1.75-.08,2.46,2.46,0,0,1,1.32.76,3.48,3.48,0,0,1,.78,1.56,2.54,2.54,0,0,1-.86,2.89,2.69,2.69,0,0,1,2.65,2.33,2.92,2.92,0,0,1-2.33,3.92Zm-.18-6.75,3.19-.81a1.92,1.92,0,0,0,1.26-.85,2,2,0,0,0,.13-1.53,2,2,0,0,0-.85-1.31,1.94,1.94,0,0,0-1.54-.13l-3.16.8Zm1.3,5.13,3.55-.9a2,2,0,0,0,1.31-.87,2,2,0,0,0,.14-1.57,2.07,2.07,0,0,0-.87-1.34,2,2,0,0,0-1.57-.16l-3.56.9Z"/><path class="cls-20" d="M949,253.67l-.3-1.16,3.68-.93.74,2.9,2.72-.69a2.91,2.91,0,0,1,1.52,0,2.27,2.27,0,0,1,1.17.73,3.19,3.19,0,0,1,.69,1.39,2.86,2.86,0,0,1-.2,2.2,2.69,2.69,0,0,1-1.77,1.24l-4,1-1.84-7.28Zm5.23,5.19,2.55-.65a1.5,1.5,0,0,0,1-.71,1.9,1.9,0,0,0-.59-2.35A1.55,1.55,0,0,0,956,255l-2.56.65Z"/><path class="cls-20" d="M960.72,255.36l-.66-2.59a3,3,0,0,1,.37-2.52,3.79,3.79,0,0,1,2.35-1.5,3.65,3.65,0,0,1,2.7.2,3,3,0,0,1,1.49,2l.44,1.75-5.61,1.42.21.83a2.13,2.13,0,0,0,.52,1,1.75,1.75,0,0,0,.93.49,3,3,0,0,0,1.25-.06c1.21-.31,1.76-1,1.66-2l1.31-.33a2.89,2.89,0,0,1-.48,2.25,3.7,3.7,0,0,1-2.19,1.32,4.32,4.32,0,0,1-2,.1,2.84,2.84,0,0,1-1.49-.76A3.31,3.31,0,0,1,960.72,255.36Zm.82-2.26,4.29-1.09-.17-.69a2,2,0,0,0-.34-.74,1.61,1.61,0,0,0-.57-.5,1.87,1.87,0,0,0-.77-.21,2.66,2.66,0,0,0-1,.09,2.63,2.63,0,0,0-1.1.53,1.72,1.72,0,0,0-.57.86,2.11,2.11,0,0,0,0,1.06Z"/><path class="cls-20" d="M969.52,253.13l1.27-.32a1.77,1.77,0,0,0,.94,1.25,2.54,2.54,0,0,0,1.81.08,2.44,2.44,0,0,0,1.34-.74,1.28,1.28,0,0,0,.24-1.2,1.15,1.15,0,0,0-.66-.82,1.89,1.89,0,0,0-1.26-.06l-1.21.31-.29-1.16,1.21-.3a1.53,1.53,0,0,0,.92-.6,1.23,1.23,0,0,0,.15-1,1.18,1.18,0,0,0-.73-.83,2.4,2.4,0,0,0-1.46,0,2.13,2.13,0,0,0-1.36.87,1.88,1.88,0,0,0-.17,1.51l-1.27.32a3,3,0,0,1,.32-2.48,3.64,3.64,0,0,1,2.26-1.44,3.78,3.78,0,0,1,2.47.08,2.2,2.2,0,0,1,1.3,1.54,2,2,0,0,1-.06,1.22,2.23,2.23,0,0,1-.74,1,2,2,0,0,1,1.26.44,2.09,2.09,0,0,1,.72,1.14,2.41,2.41,0,0,1-.38,2.14,4,4,0,0,1-2.27,1.29,4.67,4.67,0,0,1-2,.11,2.91,2.91,0,0,1-1.5-.76A3.24,3.24,0,0,1,969.52,253.13Z"/><path class="cls-20" d="M978.3,252.77l.77-.2a5.58,5.58,0,0,0,.12-4l-.9-3.57,6.07-1.53,1.84,7.28,1.27-.32.83,3.26L987,254l-.53-2.1-6.59,1.66.53,2.11-1.27.32Zm2.2-.56,4.39-1.11L983.34,245l-3.49.88.65,2.6A6.82,6.82,0,0,1,980.5,252.21Z"/><path class="cls-20" d="M1165.26,509.45l-3.33-11.37,4.79-1.41a4,4,0,0,1,1.75-.14,2.46,2.46,0,0,1,1.34.7,3.52,3.52,0,0,1,.85,1.54,2.54,2.54,0,0,1-.76,2.92,2.68,2.68,0,0,1,2.74,2.23,2.93,2.93,0,0,1-2.19,4Zm-.43-6.75,3.15-.92a1.92,1.92,0,0,0,1.23-.9,2,2,0,0,0,.07-1.53,2,2,0,0,0-.89-1.28,1.94,1.94,0,0,0-1.55-.07l-3.13.91Zm1.49,5.08,3.51-1a1.82,1.82,0,0,0,1.36-2.49,2.06,2.06,0,0,0-.92-1.31,2,2,0,0,0-1.58-.09l-3.52,1Z"/><path class="cls-20" d="M1172.31,499.55l-.34-1.14,3.64-1.07.85,2.87,2.69-.79a3,3,0,0,1,1.52-.08,2.28,2.28,0,0,1,1.19.68,3.36,3.36,0,0,1,.75,1.37,2.86,2.86,0,0,1-.12,2.21,2.69,2.69,0,0,1-1.72,1.3l-4,1.17-2.11-7.21Zm5.42,5,2.53-.74a1.5,1.5,0,0,0,1-.75,1.89,1.89,0,0,0-.68-2.32,1.47,1.47,0,0,0-1.22-.11l-2.54.74Z"/><path class="cls-20" d="M1184.07,500.81l-.75-2.57a3,3,0,0,1,.28-2.53,3.77,3.77,0,0,1,2.29-1.59,3.69,3.69,0,0,1,2.7.1,3,3,0,0,1,1.57,2l.51,1.74-5.55,1.62.24.83a2,2,0,0,0,.55.94,1.7,1.7,0,0,0,.94.45,2.75,2.75,0,0,0,1.25-.11c1.2-.35,1.72-1.05,1.59-2.1l1.29-.38a2.86,2.86,0,0,1-.39,2.26,3.72,3.72,0,0,1-2.14,1.41,4.56,4.56,0,0,1-2,.17,2.87,2.87,0,0,1-1.51-.71A3.3,3.3,0,0,1,1184.07,500.81Zm.74-2.3,4.25-1.25-.2-.68a2,2,0,0,0-.36-.72,1.69,1.69,0,0,0-.59-.48,2,2,0,0,0-.78-.19,2.91,2.91,0,0,0-.94.13,2.64,2.64,0,0,0-1.09.58,1.72,1.72,0,0,0-.53.88,2,2,0,0,0,0,1.05Z"/><path class="cls-20" d="M1192.79,498.25l1.25-.37a1.85,1.85,0,0,0,1,1.22,2.59,2.59,0,0,0,1.81,0,2.44,2.44,0,0,0,1.31-.8,1.25,1.25,0,0,0,.2-1.2,1.18,1.18,0,0,0-.69-.8,1.86,1.86,0,0,0-1.26,0l-1.2.36-.33-1.15,1.19-.35a1.46,1.46,0,0,0,.9-.63,1.22,1.22,0,0,0,.11-1,1.15,1.15,0,0,0-.76-.8,2.47,2.47,0,0,0-1.46.06,2.06,2.06,0,0,0-1.32.92,1.85,1.85,0,0,0-.12,1.51l-1.25.37a3,3,0,0,1,.22-2.49,3.62,3.62,0,0,1,2.21-1.52,3.73,3.73,0,0,1,2.47,0,2.17,2.17,0,0,1,1.35,1.5,1.92,1.92,0,0,1,0,1.21.79.79,0,1,0,.58,1.38,2,2,0,0,1,.75,1.12,2.37,2.37,0,0,1-.3,2.15,4,4,0,0,1-2.21,1.38,4.75,4.75,0,0,1-2,.18,2.8,2.8,0,0,1-1.52-.71A3.14,3.14,0,0,1,1192.79,498.25Z"/><path class="cls-20" d="M1201.55,497.56l.76-.23a5.64,5.64,0,0,0,0-4l-1-3.52,6-1.76,2.11,7.2,1.26-.37.94,3.23-1.29.38-.61-2.08-6.53,1.91.62,2.08-1.26.37Zm2.18-.64,4.34-1.28-1.77-6.06-3.46,1,.75,2.57A7,7,0,0,1,1203.73,496.92Z"/><g class="cls-22"><path class="cls-20" d="M1552.39,616.41l1.39-9.9H1561l-1.39,9.9h-1.23l1.23-8.81h-4.73l-1.24,8.81Z"/><path class="cls-20" d="M1561.85,614.47a2.42,2.42,0,0,1,1-1.72,4,4,0,0,1,2.33-.59H1567l.1-.73a1.15,1.15,0,0,0-.29-1,1.64,1.64,0,0,0-1.2-.38,2.14,2.14,0,0,0-1.29.37,1.42,1.42,0,0,0-.57,1h-1.1a2.84,2.84,0,0,1,.32-1,2.52,2.52,0,0,1,.63-.75,2.89,2.89,0,0,1,.94-.49,4.18,4.18,0,0,1,1.22-.17,2.7,2.7,0,0,1,2,.65,1.92,1.92,0,0,1,.49,1.74l-.7,5h-.68l-.3-.92a3.91,3.91,0,0,1-1.18.78,3.66,3.66,0,0,1-1.44.31,2.79,2.79,0,0,1-1.2-.24,1.64,1.64,0,0,1-.75-.72A2,2,0,0,1,1561.85,614.47Zm1.15-.13a.93.93,0,0,0,.27.9,1.61,1.61,0,0,0,1.06.31,3.54,3.54,0,0,0,2.35-1l.21-1.46h-1.83C1563.8,613.07,1563.12,613.5,1563,614.34Z"/><path class="cls-20" d="M1569.49,618.67l1.34-9.54h.68l.26,1a3.57,3.57,0,0,1,2.56-1.14,2.2,2.2,0,0,1,1.77.71,2.42,2.42,0,0,1,.41,2l-.31,2.27a3.1,3.1,0,0,1-1,2,2.93,2.93,0,0,1-2,.71,2.48,2.48,0,0,1-2.16-1.06l-.44,3.15Zm1.73-4.27a2.52,2.52,0,0,0,2,1.15,1.8,1.8,0,0,0,1.26-.48,2,2,0,0,0,.63-1.25l.3-2.09a1.59,1.59,0,0,0-.28-1.25A1.36,1.36,0,0,0,1574,610a3.48,3.48,0,0,0-2.3,1.14Z"/><path class="cls-20" d="M1578,616.41l1-7.28h1.13l-.44,3.12h1.25l2.77-3.12h1l-.08.54-2.7,3,2,3.17-.08.54h-1l-1.93-3.16h-1.25l-.44,3.16Z"/><path class="cls-20" d="M1589,616.41l1-7.28h5.91l-1,7.28h-1.13l.88-6.28H1591l-.88,6.28Z"/><path class="cls-20" d="M1597,614.47a2.38,2.38,0,0,1,1-1.72,4,4,0,0,1,2.33-.59h1.82l.1-.73a1.15,1.15,0,0,0-.28-1,1.64,1.64,0,0,0-1.2-.38,2.14,2.14,0,0,0-1.29.37,1.44,1.44,0,0,0-.58,1h-1.09a2.83,2.83,0,0,1,.31-1,2.52,2.52,0,0,1,.63-.75,2.89,2.89,0,0,1,.94-.49A4.28,4.28,0,0,1,1601,609a2.72,2.72,0,0,1,2,.65,2,2,0,0,1,.49,1.74l-.71,5h-.68l-.29-.92a4,4,0,0,1-1.18.78,3.67,3.67,0,0,1-1.45.31,2.75,2.75,0,0,1-1.19-.24,1.55,1.55,0,0,1-.75-.72A1.82,1.82,0,0,1,1597,614.47Zm1.14-.13a1,1,0,0,0,.28.9,1.58,1.58,0,0,0,1,.31,3.57,3.57,0,0,0,2.36-1l.2-1.46h-1.83C1599,613.07,1598.3,613.5,1598.18,614.34Z"/><path class="cls-20" d="M1605,616.41l1-7.28h1.12l2.07,3.57,3-3.57h1.13l-1,7.28h-1.12l.77-5.52-2.7,3.16h-.54l-1.82-3.16-.78,5.52Z"/><path class="cls-20" d="M1614.22,616.41l.07-.54,2-2.35a1.68,1.68,0,0,1-.77-.37,1.52,1.52,0,0,1-.43-.74,2.58,2.58,0,0,1,0-1,2.61,2.61,0,0,1,.8-1.63,2.31,2.31,0,0,1,1.61-.6H1621l-1,7.28h-1.13l.39-2.79h-1.72l-2.22,2.79Zm1.9-5a1.13,1.13,0,0,0,.2.92,1.16,1.16,0,0,0,.9.32h2.14l.35-2.49h-2.14a1.44,1.44,0,0,0-1,.33A1.5,1.5,0,0,0,1616.12,611.38Z"/><path class="cls-20" d="M1622.35,610.13l.14-1h6.1l-.14,1H1626l-.88,6.28H1624l.88-6.28Z"/><path class="cls-20" d="M1629.06,616.41l1-7.28h1.13l-.78,5.54,4.64-5.54h1.13l-1,7.28h-1.12l.77-5.52-4.64,5.52Z"/><path class="cls-20" d="M1640.46,615.41h.66a5.38,5.38,0,0,0,1.36-3.21l.43-3.07h5.24l-.89,6.28h1.1l-.4,2.81h-1.13l.26-1.81h-5.68l-.26,1.81h-1.09Zm1.89,0h3.79l.74-5.28h-3l-.31,2.24A6.56,6.56,0,0,1,1642.35,615.41Z"/><path class="cls-20" d="M1649.94,613.91l.32-2.24a2.94,2.94,0,0,1,1.09-2,3.57,3.57,0,0,1,2.31-.73,2.71,2.71,0,0,1,2,.72,2.21,2.21,0,0,1,.51,1.95l-.21,1.51h-4.83l-.1.72a1.58,1.58,0,0,0,.09.88,1.21,1.21,0,0,0,.57.59,2.15,2.15,0,0,0,1,.21,1.8,1.8,0,0,0,2-1.32h1.13a2.85,2.85,0,0,1-1.1,1.73,3.51,3.51,0,0,1-2.13.62,3.38,3.38,0,0,1-1.57-.33,1.85,1.85,0,0,1-.91-.92A2.52,2.52,0,0,1,1649.94,613.91Zm1.36-1.67H1655l.08-.6a1.45,1.45,0,0,0,0-.66,1.05,1.05,0,0,0-.28-.52,1.25,1.25,0,0,0-.53-.34,2.3,2.3,0,0,0-.77-.12,2.44,2.44,0,0,0-1,.21,1.8,1.8,0,0,0-.72.58,1.92,1.92,0,0,0-.33.85Z"/><path class="cls-20" d="M1657.59,613.87l.31-2.2a3,3,0,0,1,1.07-2,3.48,3.48,0,0,1,2.28-.73,2.76,2.76,0,0,1,2,.7,2.17,2.17,0,0,1,.53,1.91v.06h-1.13v-.08a1.3,1.3,0,0,0-.32-1.13,1.73,1.73,0,0,0-1.26-.43,2.4,2.4,0,0,0-1,.21,1.67,1.67,0,0,0-.71.57,2,2,0,0,0-.33.86l-.32,2.27a1.4,1.4,0,0,0,.31,1.2,1.76,1.76,0,0,0,1.31.44,2.43,2.43,0,0,0,1-.2,1.76,1.76,0,0,0,1-1.39l0-.1h1.12V614a2.87,2.87,0,0,1-1.07,1.91,3.44,3.44,0,0,1-2.22.72,2.71,2.71,0,0,1-2.07-.73A2.27,2.27,0,0,1,1657.59,613.87Z"/><path class="cls-20" d="M1664.86,614.47a2.42,2.42,0,0,1,1-1.72,4,4,0,0,1,2.33-.59H1670l.1-.73a1.15,1.15,0,0,0-.29-1,1.64,1.64,0,0,0-1.2-.38,2.09,2.09,0,0,0-1.28.37,1.4,1.4,0,0,0-.58,1h-1.1a2.84,2.84,0,0,1,.32-1,2.52,2.52,0,0,1,.63-.75,2.89,2.89,0,0,1,.94-.49,4.18,4.18,0,0,1,1.22-.17,2.7,2.7,0,0,1,2,.65,2,2,0,0,1,.5,1.74l-.71,5h-.68l-.3-.92a3.91,3.91,0,0,1-1.18.78,3.66,3.66,0,0,1-1.44.31,2.79,2.79,0,0,1-1.2-.24,1.64,1.64,0,0,1-.75-.72A2,2,0,0,1,1664.86,614.47Zm1.15-.13a.93.93,0,0,0,.27.9,1.61,1.61,0,0,0,1.06.31,3.54,3.54,0,0,0,2.35-1l.21-1.46h-1.83C1666.81,613.07,1666.13,613.5,1666,614.34Z"/><path class="cls-20" d="M1672.82,616.41l1-7.28H1675l-.44,3.15h3.72l.44-3.15h1.13l-1,7.28h-1.12l.44-3.13h-3.72l-.44,3.13Z"/><path class="cls-20" d="M1681.17,610.13l.14-1h6.1l-.14,1h-2.47l-.89,6.28h-1.12l.88-6.28Z"/><path class="cls-20" d="M1687.88,616.41l1-7.28H1690l-.44,3.15h3.72l.44-3.15h1.13l-1,7.28h-1.12l.44-3.13h-3.72l-.44,3.13Z"/><path class="cls-20" d="M1696.21,616.41l1-7.28h1.13l-.78,5.54,4.64-5.54h1.13l-1,7.28h-1.12l.77-5.52-4.64,5.52Z"/><path class="cls-20" d="M1704.67,616.41l1-7.28h1.13l-.44,3.12h1.24l2.78-3.12h.94l-.07.54-2.7,3,1.94,3.17-.07.54h-1l-1.94-3.16h-1.24l-.44,3.16Z"/><path class="cls-20" d="M1712,613.87l.31-2.2a3,3,0,0,1,1.08-2,3.57,3.57,0,0,1,2.33-.74,2.76,2.76,0,0,1,2.11.74,2.28,2.28,0,0,1,.52,2l-.31,2.2a3,3,0,0,1-1.07,2,3.55,3.55,0,0,1-2.32.74,3.7,3.7,0,0,1-1.26-.2,2.12,2.12,0,0,1-.88-.56,2,2,0,0,1-.46-.85A2.85,2.85,0,0,1,1712,613.87Zm1.14,0a1.41,1.41,0,0,0,.33,1.24,1.69,1.69,0,0,0,1.32.48,2.21,2.21,0,0,0,1.46-.47,1.93,1.93,0,0,0,.67-1.25l.3-2.12a1.47,1.47,0,0,0-.32-1.24,1.74,1.74,0,0,0-1.33-.47,2.24,2.24,0,0,0-1.46.47,1.89,1.89,0,0,0-.67,1.24Z"/><path class="cls-20" d="M1719.69,616.41l1-7.28H1724a2.33,2.33,0,0,1,1.61.49,1.48,1.48,0,0,1,.4,1.41,2,2,0,0,1-1.17,1.65,1.38,1.38,0,0,1,1,1.68c-.19,1.37-1.09,2-2.7,2Zm1.27-1h2.39a1.34,1.34,0,0,0,.92-.3,1.25,1.25,0,0,0,.42-.81c.1-.73-.25-1.09-1.06-1.09h-2.37Zm.43-3.12h2.16a1.31,1.31,0,0,0,.5-.08,1,1,0,0,0,.38-.22,1,1,0,0,0,.26-.35,1.49,1.49,0,0,0,.14-.45c.1-.7-.23-1.06-1-1.06h-2.14Z"/></g><g class="cls-22"><path class="cls-20" d="M137,672.7l-.36-9.63.67-.12.43.91a3.6,3.6,0,0,1,2.32-1.57,2.21,2.21,0,0,1,1.86.39,2.44,2.44,0,0,1,.76,1.86l.08,2.29a3.05,3.05,0,0,1-.61,2.1,2.93,2.93,0,0,1-1.84,1.05,2.5,2.5,0,0,1-2.32-.66l.12,3.18Zm1-4.51A2.52,2.52,0,0,0,140,669a1.83,1.83,0,0,0,1.16-.69,2,2,0,0,0,.4-1.35l-.08-2.11a1.56,1.56,0,0,0-.49-1.18,1.4,1.4,0,0,0-1.18-.27,3.49,3.49,0,0,0-2.07,1.53Z"/><path class="cls-20" d="M144.7,669l-.07-1.88,1.28-.23.07,1.88Z"/><path class="cls-20" d="M151.38,664.42l-.12-3.23a3.94,3.94,0,0,1,.88-2.82,4.4,4.4,0,0,1,2.71-1.44,3.34,3.34,0,0,1,2.57.42,2.71,2.71,0,0,1,1.11,2.33v.15l-1.22.22v-.15a1.76,1.76,0,0,0-.77-1.55,2.22,2.22,0,0,0-1.66-.28,3.29,3.29,0,0,0-1.35.52,2.23,2.23,0,0,0-.82,1,2.83,2.83,0,0,0-.24,1.32l.13,3.41a2,2,0,0,0,.71,1.64,2.37,2.37,0,0,0,1.87.29,3,3,0,0,0,1.62-.88,2.37,2.37,0,0,0,.65-1.81v-.13l1.22-.22v.14a3.61,3.61,0,0,1-.93,2.71,4.36,4.36,0,0,1-2.5,1.32,3.45,3.45,0,0,1-2.78-.45A3,3,0,0,1,151.38,664.42Z"/><path class="cls-20" d="M159.72,660l0-1,6-1.07,0,1-2.44.43.24,6.33-1.11.2-.24-6.33Z"/><path class="cls-20" d="M167.52,667.23l-.36-9.62.66-.12.43.91a3.58,3.58,0,0,1,2.33-1.57,2.13,2.13,0,0,1,1.85.39,2.37,2.37,0,0,1,.76,1.86l.09,2.28a3.12,3.12,0,0,1-.62,2.11,2.94,2.94,0,0,1-1.84,1,2.45,2.45,0,0,1-2.31-.66l.12,3.18Zm.94-4.51a2.52,2.52,0,0,0,2.15.78,1.73,1.73,0,0,0,1.15-.69,2,2,0,0,0,.41-1.34l-.08-2.11a1.55,1.55,0,0,0-.5-1.18,1.33,1.33,0,0,0-1.18-.27,3.45,3.45,0,0,0-2.07,1.53Z"/><path class="cls-20" d="M175.05,661l-.09-2.25a2.92,2.92,0,0,1,.73-2.13,3.6,3.6,0,0,1,2.15-1.13,2.71,2.71,0,0,1,2.14.35,2.21,2.21,0,0,1,.85,1.83l.06,1.53-4.76.85,0,.72a1.52,1.52,0,0,0,.25.85,1.17,1.17,0,0,0,.66.48,2.15,2.15,0,0,0,1,0,1.82,1.82,0,0,0,1.69-1.64l1.11-.2a2.88,2.88,0,0,1-.77,1.89,3.49,3.49,0,0,1-2,1,3.57,3.57,0,0,1-1.61,0,1.89,1.89,0,0,1-1.06-.76A2.44,2.44,0,0,1,175.05,661Zm1-1.88,3.64-.65,0-.6a1.68,1.68,0,0,0-.15-.65,1.05,1.05,0,0,0-.37-.46,1.32,1.32,0,0,0-.58-.24,2.3,2.3,0,0,0-.78,0,2.46,2.46,0,0,0-1,.39,1.82,1.82,0,0,0-.61.69,1.91,1.91,0,0,0-.18.9Z"/><path class="cls-20" d="M182.23,662.3l0-1,.11,0a1.3,1.3,0,0,0,1-.78,4.67,4.67,0,0,0,.24-2l-.14-3.81,5.12-.91.27,7.33-1.11.2-.23-6.33-2.94.53.11,2.78a5.21,5.21,0,0,1-.51,2.74,2.25,2.25,0,0,1-1.63,1.21Z"/><path class="cls-20" d="M191.09,660.72l-.27-7.34,1.11-.2.11,3.14,1.23-.22,2.18-3.55.93-.17,0,.54-2.13,3.46,2.48,2.78,0,.54-1,.18-2.46-2.77-1.23.22.12,3.19Z"/><path class="cls-20" d="M197.7,657.56a2.41,2.41,0,0,1,.69-1.87,4,4,0,0,1,2.19-1l1.8-.32,0-.73a1.16,1.16,0,0,0-.47-1,1.67,1.67,0,0,0-1.24-.16,2.13,2.13,0,0,0-1.21.59,1.46,1.46,0,0,0-.4,1.07l-1.07.19a2.78,2.78,0,0,1,.14-1,2.31,2.31,0,0,1,.48-.85,2.77,2.77,0,0,1,.84-.65,4.54,4.54,0,0,1,1.18-.38,2.69,2.69,0,0,1,2.07.29,2,2,0,0,1,.79,1.63l.19,5.09-.67.12-.45-.85a4,4,0,0,1-1,1,3.36,3.36,0,0,1-1.36.56,2.91,2.91,0,0,1-1.22,0,1.59,1.59,0,0,1-.87-.58A1.93,1.93,0,0,1,197.7,657.56Zm1.1-.32a1,1,0,0,0,.43.83,1.61,1.61,0,0,0,1.1.12,3.56,3.56,0,0,0,2.14-1.42l-.06-1.47-1.8.32C199.38,655.85,198.77,656.38,198.8,657.24Z"/></g></g></svg>