<svg xmlns="http://www.w3.org/2000/svg" width="64" height="64">
    <linearGradient id="a" gradientUnits="userSpaceOnUse" x1="-912.286" y1="564.452" x2="-911.286" y2="564.452" gradientTransform="matrix(63 0 0 -63 57474.5 35592.5)">
        <stop offset="0" stop-color="#30409a"></stop>
        <stop offset="1" stop-color="#662d91"></stop>
    </linearGradient>
    <path d="M4 .5C2.1.5.5 2.1.5 4v48c0 6.4 5.1 11.5 11.5 11.5h48c1.9 0 3.5-1.6 3.5-3.5V12C63.5 5.6 58.4.5 52 .5H4z" fill="#fff" stroke="url(#a)"></path>
    <g transform="translate(12.267 9.067)">
        <linearGradient id="b" gradientUnits="userSpaceOnUse" x1="-915.178" y1="547.205" x2="-914.178" y2="547.205" gradientTransform="matrix(38.4817 0 0 -31.2415 35218.05 17125.756)">
            <stop offset="0" stop-color="#373e99"></stop>
            <stop offset="1" stop-color="#662e91"></stop>
        </linearGradient>
        <path d="M26.3 44.2c-.6.1-.7-.2-.5-.8.3-1 .6-2 1-3 .1-.4.2-.8-.2-1.1-.8-.5-.8-.5-.6-1.6v-.2c-.7-.2-1.5-.5-2.2 0-.2.1-.6-.1-.9-.2-.1.2-.1.3-.2.5.9 1.5.6 1.6-.2 1.9 0 .5.1.9.1 1.4 0 .5.2.9.6 1.2.2.1.2.5.3.9h-.8c-.6-.1-1.1-.4-1.7-.6-.2-.2-.4-.5-.4-.7 0-.5.1-1 .3-1.5-.2-.1-.4-.3-.6-.5-.1 0-.1-.4 0-.4.6-.5 1-1.2.8-2 0-.2.2-.5.4-.8-.4 0-.9.1-1.3.2-.5.1-.7 0-1-.4-.2-.2-.4-.3-.7-.3-.4.1-.8.3-1.1.5-.2.1-.5.1-.7.1-.1-.1-.1-.3-.1-.4-.1-.5-.5-.9-.8-.5-.5.6-.8.2-1.2-.3-.5-.6-.7-.6-1.3 0-.1.1-.3.1-.4.1-.4-.1-.9-.2-1.3-.2s-.8.2-.9-.4c-.1-.4-.1-.7-.2-1.1.1 0 .1-.1.1-.1-.2-.1-.5-.2-.7-.3-.6-.1-1.2-.5-1.6-.9 0 0 0-.4.1-.4.8-.3.5-1 .5-1.6S9 29.6 9 29c.1-.4 0-.7-.2-1-.2-.3-.5-.5-.9-.5-.3-.1-.9 0-.9-.9.6.1 1.2.1 1.8.2s1 .4 1.3-.4c0-.1.5 0 .7-.1.2-.1.4-.1.7-.1.2 0 .3.1.4 0 1-.4 1.9-.8 2.9-1.2.2-.1.3-.3.3-.4 0-.4-.9-1.6-1.2-1.8-.1 0-.2-.1-.3-.3s0-.3.2-.4c.5-.3.4-.7.1-1.2-.1-.2-.2-.3-.2-.5-.1-.6-.6-1-1.2-1-.8-.2-1.7-.6-2.6-.8-.9-.2-1.7-.2-2.6-.2h-2c-.7-.1-1.5.2-1.9.9-.1.2-.3.4-.5.5-.3.3-.7.5-1.1.6-.2.1-.4 0-.6 0-.2-.4-.2-.6-.3-1-.4-.2-.5-.5-.2-1.1.4-.7.9-1.4 1.5-2.1.4-.4.5 0 .6.2h1.1c.5-1.1 1.5-1.4 2.5-1.4.2 0 .3.1.5-.2.2-.3 1.4-.3 1.6.1.2.3.4.6.8.5.1 0 .2.1.3.2.4.7 1.1.7 1.6.9.4.1.8.2 1.1.3l1 .3c.6.1 1.1.3 1.7.5.2.1.4.4.6.6.2.3.5.5.7.7.6-.9.9-.9 1.7-.7.6.2 1.2.3 1.8.4.2.1.4.2.6.4.3-.2.5-.3.7-.6.4-.3.6-.2.8.2.1.2.2.5.4.7.4.6 1.1.4 1.6.4.5-.1.7-.1 1 .5.4 1 1.3 1.8 2.4 1.9.1 0 .2.1.3.2.6.7 1.4 1.1 1.6 2.1 0 .1.1.2.2.2.1-.1.2-.2.4-.3l1.3 1.3c-.3.1-.4.2-.6.2-.9 0-.9 0-.8 1 0 .4.1.7.1 1.1 0 .5.3 1 .8 1.3.5.3.6 1 .4 1.5-.1.2-.1.3-.1.5.3.4.1.7-.3.9v.2c.6.1 1.1.2 1.7.4.2.1.4.4.6.5l.9.6c.8.8 1.7.7 2.7.7.2 0 .5-.1.7.1.5.4.9.6 1.2-.2.5 1.1-.5 1.7-.3 2.7-.2-.1-.4-.1-.6-.1-.7-.2-1 .3-.9 1.1 0 .2-.1.3-.2.5-.8.5-.8.4-1.4-.3-.3.2-.7.3-1 .4-.3.1-.4.2-.3.5.1.7.3 1.3-.6 1.2-.1 0-.2.1-.2.2.1.7-.3.8-.6.9.3.7.6 1.4 1 2.1-1.3.7-1.3.7-2.4-.4-.1.5-.1 1-.7 1.1-.4 0-.8.2-1.3-.1-.6-.4-1.4.2-1.7 1.1-.2.5-.3.7-.8.4-.1 0-.2-.2-.2-.3v-.7c.3-.1.2-.3.1-.5zm-3.6-16.3c-.3-.6-1-.9-1.6-.8-.3 0-.5.1-.8.1-1 0-2.1-.1-3.2 0-.9.1-1.8-.6-1.9-1.5 0-.1-.1 0-.1-.1-.5.3-1 .7-1.8.7-.9 0-1.8.7-2.6 1.1.4.3.8.6 1.3.9.3.2.2 1.5-.1 1.6-.1 0-.2 0-.2-.1-.3-.1-.8-.2-1.2-.4-.2-.2-.4-.7-.6-1.1l-.3 3.5 1.9-.2c.4 0 .9-.3.9.5 0 .1.1.1.2.1.5.2 1 .3 1.5.5.3.1.6.2 1 .2.6 0 1.2.6 1.8.1.1 0 .2 0 .2.1.4.2.9.5 1.3.7.4.3 1 .3 1.5.1.6-.2 1.3-.4 1.9-.4 1.1-.1 1.3-.1 1-1.3 0-.1 0-.1.1-.2.2.1.3.2.5.2s.4 0 .5-.1c.2-.6.4-1.2.6-1.7-.7-.5-1.5-.3-1.8-1.4-.3-.4-.4-.9 0-1.1z" opacity=".1" fill="url(#b)"></path>
        <linearGradient id="c" gradientUnits="userSpaceOnUse" x1="-915.184" y1="547.677" x2="-914.171" y2="547.677" gradientTransform="matrix(38.4817 0 0 -31.2415 35218.05 17125.756)">
            <stop offset="0" stop-color="#30409a"></stop>
            <stop offset="1" stop-color="#662e91"></stop>
        </linearGradient>
        <path d="M26.3 44.2c-.6.1-.7-.2-.5-.8.3-1 .6-2 1-3 .1-.4.2-.8-.2-1.1-.8-.5-.8-.5-.6-1.6v-.2c-.7-.2-1.5-.5-2.2 0-.2.1-.6-.1-.9-.2-.1.2-.1.3-.2.5.9 1.5.6 1.6-.2 1.9 0 .5.1.9.1 1.4 0 .5.2.9.6 1.2.2.1.2.5.3.9h-.8c-.6-.1-1.1-.4-1.7-.6-.2-.2-.4-.5-.4-.7 0-.5.1-1 .3-1.5-.2-.1-.4-.3-.6-.5-.1 0-.1-.4 0-.4.6-.5 1-1.2.8-2 0-.2.2-.5.4-.8-.4 0-.9.1-1.3.2-.5.1-.7 0-1-.4-.2-.2-.4-.3-.7-.3-.4.1-.8.3-1.1.5-.2.1-.5.1-.7.1-.1-.1-.1-.3-.1-.4-.1-.5-.5-.9-.8-.5-.5.6-.8.2-1.2-.3-.5-.6-.7-.6-1.3 0-.1.1-.3.1-.4.1-.4-.1-.9-.2-1.3-.2s-.8.2-.9-.4c-.1-.4-.1-.7-.2-1.1.1 0 .1-.1.1-.1-.2-.1-.5-.2-.7-.3-.6-.1-1.2-.5-1.6-.9 0 0 0-.4.1-.4.8-.3.5-1 .5-1.6S9 29.6 9 29c.1-.4 0-.7-.2-1-.2-.3-.5-.5-.9-.5-.3-.1-.9 0-.9-.9.6.1 1.2.1 1.8.2s1 .4 1.3-.4c0-.1.5 0 .7-.1.2-.1.4-.1.7-.1.2 0 .3.1.4 0 1-.4 1.9-.8 2.9-1.2.2-.1.3-.3.3-.4 0-.4-.9-1.6-1.2-1.8-.1 0-.2-.1-.3-.3s0-.3.2-.4c.5-.3.4-.7.1-1.2-.1-.2-.2-.3-.2-.5-.1-.6-.6-1-1.2-1-.8-.2-1.7-.6-2.6-.8-.9-.2-1.7-.2-2.6-.2h-2c-.7-.1-1.5.2-1.9.9-.1.2-.3.4-.5.5-.3.3-.7.5-1.1.6-.2.1-.4 0-.6 0-.2-.4-.2-.6-.3-1-.4-.2-.5-.5-.2-1.1.4-.7.9-1.4 1.5-2.1.4-.4.5 0 .6.2h1.1c.5-1.1 1.5-1.4 2.5-1.4.2 0 .3.1.5-.2.2-.3 1.4-.3 1.6.1.2.3.4.6.8.5.1 0 .2.1.3.2.4.7 1.1.7 1.6.9.4.1.8.2 1.1.3l1 .3c.6.1 1.1.3 1.7.5.2.1.4.4.6.6.2.3.5.5.7.7.6-.9.9-.9 1.7-.7.6.2 1.2.3 1.8.4.2.1.4.2.6.4.3-.2.5-.3.7-.6.4-.3.6-.2.8.2.1.2.2.5.4.7.4.6 1.1.4 1.6.4.5-.1.7-.1 1 .5.4 1 1.3 1.8 2.4 1.9.1 0 .2.1.3.2.6.7 1.4 1.1 1.6 2.1 0 .1.1.2.2.2.1-.1.2-.2.4-.3l1.3 1.3c-.3.1-.4.2-.6.2-.9 0-.9 0-.8 1 0 .4.1.7.1 1.1 0 .5.3 1 .8 1.3.5.3.6 1 .4 1.5-.1.2-.1.3-.1.5.3.4.1.7-.3.9v.2c.6.1 1.1.2 1.7.4.2.1.4.4.6.5l.9.6c.8.8 1.7.7 2.7.7.2 0 .5-.1.7.1.5.4.9.6 1.2-.2.5 1.1-.5 1.7-.3 2.7-.2-.1-.4-.1-.6-.1-.7-.2-1 .3-.9 1.1 0 .2-.1.3-.2.5-.8.5-.8.4-1.4-.3-.3.2-.7.3-1 .4-.3.1-.4.2-.3.5.1.7.3 1.3-.6 1.2-.1 0-.2.1-.2.2.1.7-.3.8-.6.9.3.7.6 1.4 1 2.1-1.3.7-1.3.7-2.4-.4-.1.5-.1 1-.7 1.1-.4 0-.8.2-1.3-.1-.6-.4-1.4.2-1.7 1.1-.2.5-.3.7-.8.4-.1 0-.2-.2-.2-.3v-.7c.3-.1.2-.3.1-.5zm-3.6-16.3c-.3-.6-1-.9-1.6-.8-.3 0-.5.1-.8.1-1 0-2.1-.1-3.2 0-.9.1-1.8-.6-1.9-1.5 0-.1-.1 0-.1-.1-.5.3-1 .7-1.8.7-.9 0-1.8.7-2.6 1.1.4.3.8.6 1.3.9.3.2.2 1.5-.1 1.6-.1 0-.2 0-.2-.1-.3-.1-.8-.2-1.2-.4-.2-.2-.4-.7-.6-1.1l-.3 3.5 1.9-.2c.4 0 .9-.3.9.5 0 .1.1.1.2.1.5.2 1 .3 1.5.5.3.1.6.2 1 .2.6 0 1.2.6 1.8.1.1 0 .2 0 .2.1.4.2.9.5 1.3.7.4.3 1 .3 1.5.1.6-.2 1.3-.4 1.9-.4 1.1-.1 1.3-.1 1-1.3 0-.1 0-.1.1-.2.2.1.3.2.5.2s.4 0 .5-.1c.2-.6.4-1.2.6-1.7-.7-.5-1.5-.3-1.8-1.4-.3-.4-.4-.9 0-1.1z" fill="none" stroke="url(#c)"></path>
        <linearGradient id="d" gradientUnits="userSpaceOnUse" x1="-884.298" y1="540.928" x2="-883.298" y2="540.928" gradientTransform="matrix(16.864 0 0 -22.528 14926.231 12197.282)">
            <stop offset="0" stop-color="#373e99"></stop>
            <stop offset="1" stop-color="#662e91"></stop>
        </linearGradient>
        <path d="M21.9 0c-4.7 0-8.4 3.6-8.4 8 0 6.8 8.4 14.6 8.4 14.6s8.4-8.2 8.4-14.6c0-4.4-3.8-8-8.4-8m-.1 12.5c-2.2 0-4-1.8-4-4s1.8-4 4-4 4 1.8 4 4-1.8 4-4 4" fill-rule="evenodd" clip-rule="evenodd" fill="url(#d)" stroke="#fff"></path>
    </g>
</svg>
