<svg width="16" height="36" xmlns="http://www.w3.org/2000/svg" xmlns:xlink="http://www.w3.org/1999/xlink">
    <defs>
        <path d="M162.938 450.993l-2.934 2.898-2.933-2.898a.867.867 0 0 0-1.244 0 .842.842 0 0 0 0 1.23l3.555 3.512c.178.175.4.263.622.263a.883.883 0 0 0 .623-.263l3.555-3.512a.842.842 0 0 0 0-1.23.867.867 0 0 0-1.244 0z" id="a"/>
        <path d="M164.182 446.163a.867.867 0 0 0-1.244 0l-2.934 2.898-2.933-2.898a.867.867 0 0 0-1.244 0 .842.842 0 0 0 0 1.23l3.555 3.512c.178.175.4.263.622.263a.883.883 0 0 0 .623-.263l3.555-3.512a.842.842 0 0 0 0-1.23z" id="b"/>
        <path d="M160 441.941c-3.422 0-6.222-2.764-6.222-6.143v-7.899c0-3.378 2.8-6.143 6.222-6.143 3.422 0 6.222 2.765 6.222 6.143v7.899c0 3.379-2.8 6.143-6.222 6.143zm8-6.136v-7.903c0-4.346-3.6-7.902-8-7.902s-8 3.556-8 7.902v7.903c0 4.346 3.6 7.902 8 7.902s8-3.556 8-7.902z" id="c"/>
        <path d="M159.999 424.83a.886.886 0 0 0-.889.878v2.634c0 .483.4.878.889.878a.886.886 0 0 0 .889-.878v-2.634c0-.483-.4-.878-.89-.878z" id="d"/>
    </defs>
    <g transform="translate(-152 -420)">
        <use xlink:href="#a" fill="#fff"/>
        <use xlink:href="#b" fill="#fff"/>
        <g>
            <use xlink:href="#c" fill="#fff"/>
        </g>
        <g>
            <use xlink:href="#d" fill="#fff"/>
        </g>
    </g>
</svg>
