<svg xmlns="http://www.w3.org/2000/svg" xmlns:xlink="http://www.w3.org/1999/xlink" width="160" height="160">
  <defs>
    <path id="a" d="M768.398 7371.607c29.11 29.11 75.63 29.796 111.318-5.892 35.687-35.687 35.002-82.209 5.892-111.32-29.11-29.11-75.637-29.801-111.325 5.886-35.687 35.688-35.002 82.21-5.885 111.326z"/>
    <path id="c" d="M867.025 7299.972a11.733 11.733 0 0 0-19.472 11.845l-13.521 12.292a11.775 11.775 0 0 0-8.59-.265l-9.583-11.021c5.191-7.176 4.209-17.099-2.29-23.118-6.498-6.018-16.466-6.239-23.224-.514-6.759 5.725-8.18 15.595-3.31 22.994 4.868 7.399 14.494 9.999 22.426 6.058l9.625 11.062a11.72 11.72 0 1 0 20.952.685l12.753-11.538a11.733 11.733 0 0 0 14.234-18.48z"/>
    <linearGradient id="b" x1="802.94" x2="849.26" y1="7328.53" y2="7282.2" gradientUnits="userSpaceOnUse">
      <stop offset="0" stop-color="#30409a"/>
      <stop offset="1" stop-color="#662e91"/>
    </linearGradient>
  </defs>
  <use fill="#efeff4" xlink:href="#a" transform="translate(-747 -7233)"/>
  <use fill="url(#b)" xlink:href="#c" transform="translate(-747 -7233)"/>
</svg>
