<svg id="Layer_1" xmlns="http://www.w3.org/2000/svg" width="120" height="120">
  <style>
    .st0{fill:#fff}
  </style>
  <path class="st0" d="M112 120H24c-13.3 0-24-10.7-24-24V8c0-4.4 3.6-8 8-8h88c13.3 0 24 10.7 24 24v88c0 4.4-3.6 8-8 8z"/>
  <linearGradient id="SVGID_1_" gradientUnits="userSpaceOnUse" x1="-891.45" y1="596.067" x2="-890.567" y2="596.95" gradientTransform="matrix(120 0 0 -120 106981 71641)">
    <stop offset="0" stop-color="#30409a"/>
    <stop offset="1" stop-color="#662e91"/>
  </linearGradient>
  <path d="M96 2c5.8 0 11.4 2.3 15.6 6.4S118 18.2 118 24v88c0 3.3-2.7 6-6 6H24c-12.2 0-22-9.8-22-22V8c0-3.3 2.7-6 6-6h88zm0-2H8C3.6 0 0 3.6 0 8v88c0 13.3 10.7 24 24 24h88c4.4 0 8-3.6 8-8V24c0-13.3-10.7-24-24-24z" fill="url(#SVGID_1_)"/>
  <linearGradient id="SVGID_2_" gradientUnits="userSpaceOnUse" x1="-883.83" y1="587.778" x2="-882.83" y2="587.778" gradientTransform="matrix(59.26 0 0 -37.65 52407.105 22206.65)">
    <stop offset="0" stop-color="#373e99"/>
    <stop offset="1" stop-color="#662e91"/>
  </linearGradient>
  <path d="M90.3 79.1s-.1-4.3-.1-5.3c0-.9-5.3-4.8-5.3-4.8s.2-1.7.9-1.6c1.1.1 2.3 0 3.4-.3.8-.4.3-2.1-.4-2.5-1-.4-2.1-.6-3.2-.7-.9.2-1.5.9-1.7 1.8 0 .6.3 2.6-.2 2-.5-.6-5.6-8.1-6.8-8.8s-13.1-1-16-1-14.7.4-16 1-6.3 8.2-6.8 8.8c-.5.6-.2-1.4-.2-2-.2-.9-.9-1.6-1.8-1.8-1.1 0-2.2.3-3.2.7-.6.4-1.1 2.1-.4 2.5 1.1.4 2.3.5 3.4.3.7-.1.9 1.6.9 1.6s-5.2 3.8-5.2 4.8-.1 5.3-.1 5.3-.1 13.6-.1 14.9.7 1.6 1.7 1.6h3.4c1.4 0 2.1-.3 2.1-1.6v-1.7c2.9.1 22.4-.3 22.4-.3h.2s19.5.4 22.4.3V94c0 1.2.7 1.6 2.1 1.6h3.4c.9 0 1.7-.3 1.7-1.6-.2-1.4-.5-14.9-.5-14.9zM44.5 62.4c.9-1.1 2.2-2 3.6-2.4 1.2-.3 12.9-.5 12.9-.5s11.8.3 12.9.5c1.4.4 2.7 1.3 3.6 2.4.8 1.1 4.3 5.9 4.3 5.9s-18.5.5-20.8.3c-2.3.3-20.8-.3-20.8-.3s3.5-4.8 4.3-5.9zm-2.9 18s-4.6-.4-6-1.4-1.8-4.3-.6-5.9c3.3.2 8.2 4.7 8.2 4.7l-1.6 2.6zM69 90.6H52.8V87H69v3.6zm6.9-8c-2.1 2.2-6.6 3-15 3s-12.8-.8-15-3c-2.2-2.2-1.2-3.9-.2-4.4 1-.5 12.3-.7 15.1-.7h.2c2.8 0 14.1.2 15.1.7 1 .4 2 2.2-.2 4.4zM86.4 79c-1.4 1.1-6 1.4-6 1.4l-1.5-2.6s4.8-4.5 8.2-4.7c1.1 1.5.8 4.8-.7 5.9z" fill="url(#SVGID_2_)"/>
  <linearGradient id="SVGID_3_" gradientUnits="userSpaceOnUse" x1="-869.033" y1="584.533" x2="-868.033" y2="584.533" gradientTransform="matrix(30 0 0 -30 26117 17570)">
    <stop offset="0" stop-color="#373e99"/>
    <stop offset="1" stop-color="#662e91"/>
  </linearGradient>
  <path d="M49 19h24c1.7 0 3 1.3 3 3v24c0 1.7-1.3 3-3 3H49c-1.7 0-3-1.3-3-3V22c0-1.7 1.3-3 3-3z" fill="url(#SVGID_3_)"/>
  <path class="st0" d="M55.3 25c1.9-.3 3.8-.4 5.7-.4 2.6 0 4.4.5 5.7 1.5 1.3 1 2 2.6 2 4.3.1 1.6-.5 3.2-1.7 4.4a8.73 8.73 0 0 1-6 2c-.5 0-1 0-1.4-.1v6.7h-4.2V25zm4.2 8.5c.5.1.9.1 1.4.1 2.2 0 3.6-1.1 3.6-3 0-1.7-1.2-2.7-3.3-2.7-.6 0-1.1 0-1.7.1v5.5z"/>
</svg>
