<svg xmlns="http://www.w3.org/2000/svg" width="120" height="120">
  <path d="M112 120H24c-13.3 0-24-10.7-24-24V8c0-4.4 3.6-8 8-8h88c13.3 0 24 10.7 24 24v88c0 4.4-3.6 8-8 8z" fill="#fff"/>
  <linearGradient id="a" gradientUnits="userSpaceOnUse" x1="-891.45" y1="596.067" x2="-890.567" y2="596.95" gradientTransform="matrix(120 0 0 -120 106981 71641)">
    <stop offset="0" stop-color="#30409a"/>
    <stop offset="1" stop-color="#662e91"/>
  </linearGradient>
  <path d="M96 2c5.8 0 11.4 2.3 15.6 6.4S118 18.2 118 24v88c0 3.3-2.7 6-6 6H24c-12.2 0-22-9.8-22-22V8c0-3.3 2.7-6 6-6h88zm0-2H8C3.6 0 0 3.6 0 8v88c0 13.3 10.7 24 24 24h88c4.4 0 8-3.6 8-8V24c0-13.3-10.7-24-24-24z" fill="url(#a)"/>
  <linearGradient id="b" gradientUnits="userSpaceOnUse" x1="-875.367" y1="593.016" x2="-874.367" y2="593.016" gradientTransform="matrix(38.0394 0 0 -64.006 33339.41 38016.582)">
    <stop offset="0" stop-color="#30409a"/>
    <stop offset="1" stop-color="#662e91"/>
  </linearGradient>
  <path d="M77.6 87.2c-4.2-3.7-9.5-5.9-15-6.4V70h11.2c1.3 0 2.5-.5 3.4-1.4.9-.9 1.4-2.1 1.4-3.4-.1-2.6-2.2-4.7-4.8-4.8h-8.9v-3.5h5.3c1.1 0 2.2-.5 2.9-1.3.8-.8 1.1-1.9 1.1-3L73 31.8c-.2-2.1-1.9-3.8-4.1-3.8h-18c-2.1 0-3.8 1.7-4 3.8l-1.2 20.8c-.1 1.1.3 2.2 1.1 3 .8.8 1.8 1.3 2.9 1.3H55v3.3h-8.9c-2.6.1-4.6 2.3-4.6 4.9s2 4.7 4.6 4.9h11.2v10.9c-5.3.5-10.4 2.6-14.5 6.1-1.2.4-2 1.6-1.8 2.9.3 1.3 1.4 2.1 2.7 2 1.3-.1 2.3-1.2 2.2-2.5 0-.5-.1-.9-.4-1.3 3.8-2.8 8.4-4.4 13.2-4.7v3.9c-.8.4-1.2 1.3-1.2 2.1 0 1.2.8 2.2 2 2.5 1.2.2 2.4-.4 2.8-1.5.5-1.1.1-2.4-1-3.1v-3.9c4.7.3 9.2 1.9 13 4.6-.3.4-.4.9-.4 1.4 0 1.2.9 2.3 2.1 2.5s2.4-.5 2.8-1.7c.5-1.1 0-2.4-1.2-3z" fill="url(#b)"/>
</svg>
