<svg xmlns="http://www.w3.org/2000/svg" width="120" height="120">
  <path d="M112 120H24c-13.3 0-24-10.7-24-24V8c0-4.4 3.6-8 8-8h88c13.3 0 24 10.7 24 24v88c0 4.4-3.6 8-8 8z" fill="#fff"/>
  <linearGradient id="a" gradientUnits="userSpaceOnUse" x1="-891.45" y1="596.067" x2="-890.567" y2="596.95" gradientTransform="matrix(120 0 0 -120 106981 71641)">
    <stop offset="0" stop-color="#30409a"/>
    <stop offset="1" stop-color="#662e91"/>
  </linearGradient>
  <path d="M96 2c5.8 0 11.4 2.3 15.6 6.4S118 18.2 118 24v88c0 3.3-2.7 6-6 6H24c-12.2 0-22-9.8-22-22V8c0-3.3 2.7-6 6-6h88zm0-2H8C3.6 0 0 3.6 0 8v88c0 13.3 10.7 24 24 24h88c4.4 0 8-3.6 8-8V24c0-13.3-10.7-24-24-24z" fill="url(#a)"/>
  <g transform="translate(24 20)">
    <linearGradient id="b" gradientUnits="userSpaceOnUse" x1="-899.527" y1="573.035" x2="-898.527" y2="573.035" gradientTransform="matrix(38.3 0 0 -64.1661 34468.754 36801.527)">
      <stop offset="0" stop-color="#373e99"/>
      <stop offset="1" stop-color="#662e91"/>
    </linearGradient>
    <path d="M23.1 51.9c0-13.3 10.8-23.9 12.6-25.6.2-.1.4-.1.5 0C38 28 48.8 38.5 48.8 51.9c-.1 4.1-1 8.2-2.6 11.9 0 .1 0 .3.1.3.1.1.3 0 .4-.1 4.4-7.1 8.4-16.3 8.4-26.2C55.2 19 40.7 4 36.9.4c-.5-.5-1.3-.5-1.8 0C31.3 4 16.9 19 16.9 37.8c0 9.9 4 19.1 8.4 26.2.1.1.2.2.4.1.1-.1.2-.2.1-.3-1.7-3.8-2.6-7.8-2.7-11.9z" fill="url(#b)"/>
    <linearGradient id="c" gradientUnits="userSpaceOnUse" x1="-851.54" y1="561.718" x2="-850.537" y2="561.718" gradientTransform="matrix(12.58 0 0 -25.5036 10742.071 14383.433)">
      <stop offset="0" stop-color="#373e99"/>
      <stop offset="1" stop-color="#662e91"/>
    </linearGradient>
    <path d="M42.3 57.3c0 6.2-4.8 11.6-6 12.9-.1.1-.2.1-.3.1s-.2 0-.3-.1c-1.2-1.3-6-6.7-6-12.9s4.8-11.2 6-12.4c.2-.2.4-.2.6 0 1.2 1.2 6 6.2 6 12.4z" fill="url(#c)"/>
    <linearGradient id="d" gradientUnits="userSpaceOnUse" x1="-910.263" y1="560.56" x2="-909.263" y2="560.56" gradientTransform="matrix(70.58 0 0 -24.0221 64247.05 13533.837)">
      <stop offset="0" stop-color="#373e99"/>
      <stop offset="1" stop-color="#662e91"/>
    </linearGradient>
    <path d="M63.1 56c-.1 0-.2 0-.2.1v.2c2.7 1.9 4.2 4.1 4.2 6.5 0 7.1-13.9 12.9-31.1 12.9S4.9 69.9 4.9 62.8c0-2.4 1.5-4.6 4.2-6.5.1-.1.1-.1 0-.2 0-.1-.1-.1-.2-.1C3.8 58.5.7 61.8.7 65.4.7 73.4 16.5 80 36 80s35.3-6.6 35.3-14.6c0-3.6-3.1-6.9-8.2-9.4z" fill="url(#d)"/>
  </g>
</svg>
