<svg id="Layer_1" xmlns="http://www.w3.org/2000/svg" width="120" height="120">
  <style>
    .st0{fill:#fff}
  </style>
  <path class="st0" d="M112 120H24c-13.3 0-24-10.7-24-24V8c0-4.4 3.6-8 8-8h88c13.3 0 24 10.7 24 24v88c0 4.4-3.6 8-8 8z"/>
  <linearGradient id="SVGID_1_" gradientUnits="userSpaceOnUse" x1="-891.45" y1="596.067" x2="-890.567" y2="596.95" gradientTransform="matrix(120 0 0 -120 106981 71641)">
    <stop offset="0" stop-color="#30409a"/>
    <stop offset="1" stop-color="#662e91"/>
  </linearGradient>
  <path d="M96 2c5.8 0 11.4 2.3 15.6 6.4S118 18.2 118 24v88c0 3.3-2.7 6-6 6H24c-12.2 0-22-9.8-22-22V8c0-3.3 2.7-6 6-6h88zm0-2H8C3.6 0 0 3.6 0 8v88c0 13.3 10.7 24 24 24h88c4.4 0 8-3.6 8-8V24c0-13.3-10.7-24-24-24z" fill="url(#SVGID_1_)"/>
  <g transform="translate(32 45)">
    <linearGradient id="SVGID_2_" gradientUnits="userSpaceOnUse" x1="-916.953" y1="525.563" x2="-915.953" y2="525.563" gradientTransform="matrix(64 0 0 -16 58690 8417)">
      <stop offset="0" stop-color="#373e99"/>
      <stop offset="1" stop-color="#662e91"/>
    </linearGradient>
    <path fill="url(#SVGID_2_)" d="M5 0h64v16H5z"/>
    <path class="st0" d="M18 18h-6L22 2h6zM6 18H0L10 2h6zM30 18h-6L34 2h6zM42 18h-6L46 2h6zM54 18h-6L58 2h6zM66 18h-6L70 2h6zM78 18h-6L82 2h6z"/>
    <linearGradient id="SVGID_3_" gradientUnits="userSpaceOnUse" x1="-917.739" y1="525.563" x2="-916.169" y2="525.563" gradientTransform="matrix(65 0 0 -16 59621 8417)">
      <stop offset="0" stop-color="#373e99"/>
      <stop offset="1" stop-color="#662e91"/>
    </linearGradient>
    <path d="M68 2v12H7V2h61zm2-2H5v16h65V0z" fill="url(#SVGID_3_)"/>
  </g>
  <linearGradient id="SVGID_4_" gradientUnits="userSpaceOnUse" x1="-824.083" y1="591.791" x2="-823.083" y2="591.791" gradientTransform="matrix(12 0 0 -55 9914 32611)">
    <stop offset="0" stop-color="#373e99"/>
    <stop offset="1" stop-color="#662e91"/>
  </linearGradient>
  <path fill="url(#SVGID_4_)" d="M25 35h12v55H25z"/>
  <linearGradient id="SVGID_5_" gradientUnits="userSpaceOnUse" x1="-842.813" y1="361" x2="-841.813" y2="361" gradientTransform="matrix(16 0 0 -2 13508 811)">
    <stop offset="0" stop-color="#373e99"/>
    <stop offset="1" stop-color="#662e91"/>
  </linearGradient>
  <path fill="url(#SVGID_5_)" d="M23 88h16v2H23z"/>
  <linearGradient id="SVGID_6_" gradientUnits="userSpaceOnUse" x1="-824.083" y1="361" x2="-823.083" y2="361" gradientTransform="matrix(12 0 0 -2 9914 754)">
    <stop offset="0" stop-color="#373e99"/>
    <stop offset="1" stop-color="#662e91"/>
  </linearGradient>
  <path fill="url(#SVGID_6_)" d="M25 31h12v2H25z"/>
  <linearGradient id="SVGID_7_" gradientUnits="userSpaceOnUse" x1="-824.083" y1="520.667" x2="-823.083" y2="520.667" gradientTransform="matrix(12 0 0 -6 9914 3150)">
    <stop offset="0" stop-color="#373e99"/>
    <stop offset="1" stop-color="#662e91"/>
  </linearGradient>
  <path d="M25 29c0-3.3 2.7-6 6-6s6 2.7 6 6H25z" fill="url(#SVGID_7_)"/>
</svg>
