<svg xmlns="http://www.w3.org/2000/svg" width="120" height="120">
  <path d="M112 120H24c-13.3 0-24-10.7-24-24V8c0-4.4 3.6-8 8-8h88c13.3 0 24 10.7 24 24v88c0 4.4-3.6 8-8 8z" fill="#fff"/>
  <g transform="translate(20 24)">
    <linearGradient id="a" gradientUnits="userSpaceOnUse" x1="-907.611" y1="569.018" x2="-906.611" y2="569.018" gradientTransform="matrix(78.9367 0 0 -64.0202 71643.852 36466.8)">
      <stop offset="0" stop-color="#373e99"/>
      <stop offset="1" stop-color="#662e91"/>
    </linearGradient>
    <path d="M52.9 66.7c-1.2.2-1.4-.4-1.1-1.6.7-2 1.3-4 2-6.2.3-.8.5-1.6-.4-2.2-1.7-1-1.7-1.1-1.3-3.2 0-.1.1-.2 0-.4-1.5-.4-3-1-4.5 0-.4.3-1.3-.2-1.9-.4-.2.4-.2.6-.4 1 1.8 3 1.2 3.3-.3 4 0 1 .1 1.9.2 2.9 0 1 .5 1.9 1.3 2.5.4.3.5 1.1.7 1.8-.5.1-1 .1-1.6 0-1.2-.3-2.3-.8-3.4-1.3-.5-.4-.7-.9-.7-1.5.1-1 .3-2 .5-3-.4-.3-.8-.6-1.2-1-.1-.1-.2-.7 0-.8 1.3-1 2-2.6 1.7-4.1-.1-.4.4-1 .8-1.7-.9 0-1.8.2-2.7.4-.9.3-1.4.1-2.1-.9-.3-.4-.9-.7-1.5-.6-.8.2-1.5.6-2.3 1-.5.2-1 .3-1.5.3-.1-.3-.2-.5-.2-.9-.1-1.1-1-1.8-1.5-1-1.1 1.3-1.7.3-2.5-.5-1.1-1.2-1.5-1.2-2.6 0-.3.1-.5.2-.8.3-.7-.4-1.6-.6-2.6-.7-.8 0-1.6.3-1.9-.7-.2-.7-.3-1.5-.4-2.3.1 0 .2-.2.3-.2l-1.5-.6c-1.3-.3-2.4-1-3.3-1.9 0 0 0-.8.2-.8 1.6-.5.9-2.1 1-3.3.1-1.2-.2-2.4-.1-3.7.1-.7 0-1.5-.5-2.1-.4-.6-1.1-1-1.8-1.2-.7-.2-1.8-.1-1.9-1.8 1.3.2 2.5.3 3.7.5s2.1.8 2.6-.8c.1-.2 1-.1 1.5-.2s.9-.2 1.4-.3c.3-.1.6.1.9 0 2-.7 3.9-1.6 5.9-2.4.3-.2.5-.5.6-.9.1-.8-1.8-3.3-2.5-3.7-.3-.1-.5-.3-.6-.6 0-.3.1-.5.3-.7 1-.6.8-1.5.3-2.4-.2-.3-.3-.7-.4-1.1-.3-1.1-1.3-2-2.5-2-1.7-.3-3.5-1.3-5.3-1.7-1.8-.3-3.5-.5-5.3-.4-1.2-.1-2.7 0-4.1-.1-1.5-.2-3 .5-3.9 1.8-.3.4-.6.7-1 1-.7.5-1.5.9-2.3 1.2-.4.1-.9.1-1.2-.1-.3-.3-.3-.8-.4-1.6-.9-.4-1.1-1-.3-2.2.9-1.5 1.9-2.9 3-4.3.7-.8 1-.1 1.2.4.9-.1 1.6 0 2.3 0 1-2.3 3-2.9 5.2-2.8.5 0 .7.2 1-.4s2.9-.6 3.4.2c.5.6.8 1.3 1.7 1 .1 0 .4.1.5.3.8 1.4 2.2 1.5 3.4 1.8.8.2 1.6.5 2.3.7l2.1.6c1.2.3 2.3.6 3.4 1 .5.2.7.9 1.2 1.3l1.5 1.5c1.2-1.8 1.8-1.9 3.5-1.4 1.2.4 2.5.7 3.8.9.5.2.9.5 1.3.9.5-.3 1-.8 1.4-1.2.8-.7 1.3-.4 1.7.5.2.5.5 1 .8 1.4.9 1.3 2.2.9 3.3.8s1.5-.3 2.1.9c.8 2.1 2.7 3.6 5 3.8.3.1.5.2.6.4 1.2 1.3 2.8 2.2 3.2 4.3 0 .2.3.4.4.5.3-.2.5-.4.8-.6.8.8 1.7 1.7 2.7 2.6-.6.2-.8.4-1.2.3-1.8 0-1.8 0-1.6 2.1 0 .8.2 1.5.2 2.3 0 1.1.6 2.1 1.6 2.6 1 .7 1.3 2 .7 3.1-.2.3-.2.7-.2 1.1.5.9.3 1.5-.5 1.9l.1.4c1.2.2 2.3.4 3.5.7.4.3.8.7 1.3 1.1.5.4 1.3.8 1.8 1.2 1.7 1.6 3.5 1.5 5.5 1.5.4 0 1.1-.1 1.5.1 1.1.8 1.8 1.2 2.5-.4 1.1 2.2-1.1 3.6-.7 5.6-.4-.1-.8-.2-1.2-.2-1.4-.4-2.1.5-1.8 2.2 0 .4-.1.7-.4 1-1.6 1-1.7.9-2.9-.5l-2.1.9c-.6.1-.8.5-.7 1.1.3 1.4.6 2.7-1.3 2.5-.1 0-.4.3-.4.4.3 1.4-.6 1.7-1.3 1.8.6 1.4 1.2 2.9 2 4.3-2.6 1.4-2.6 1.4-4.9-.9-.1 1-.3 2.1-1.5 2.2-.9.1-1.7.4-2.6-.3-1.2-.8-2.8.3-3.6 2.3-.4 1-.7 1.5-1.6.9-.1-.1-.4-.4-.3-.6-.1-.4 0-.9 0-1.3.1-.5-.1-1-.3-1.4zm-7.5-33.4c-.6-1.3-2-1.9-3.3-1.6-.5.1-1.1.1-1.7.1-2.1 0-4.3-.1-6.5 0-1.9.2-3.6-1.2-3.9-3.1 0-.1-.1-.1-.3-.2-1.1.7-2 1.5-3.6 1.5-1.9 0-3.7 1.4-5.3 2.2.8.5 1.7 1.2 2.6 1.9.5.4.5 3-.1 3.3-.1.1-.3.1-.5 0-.7-.2-1.5-.5-2.5-.8-.3-.5-.8-1.4-1.3-2.2l-.6 7c1.4-.2 2.7-.3 3.9-.4.9-.1 1.9-.7 1.8 1.1 0 .1.3.2.4.3 1 .4 2 .7 3 1 .6.3 1.3.4 2 .4 1.2 0 2.5 1.2 3.6.3.2 0 .3 0 .5.1.9.5 1.8 1.1 2.6 1.5.9.6 2.1.6 3.1.2 1.3-.5 2.6-.7 4-.8 2.2-.2 2.6-.2 2-2.6 0-.1.1-.1.1-.5.3.2.7.4 1.1.5.3 0 .9-.1.9-.3.4-1.2.8-2.5 1.2-3.6-1.3-1.1-3.2-.7-3.7-2.8-.1-1.1-.3-2.2.5-2.5z" opacity=".1" fill="url(#a)"/>
    <linearGradient id="b" gradientUnits="userSpaceOnUse" x1="-907.618" y1="569.472" x2="-906.605" y2="569.472" gradientTransform="matrix(78.9367 0 0 -64.0202 71643.852 36466.8)">
      <stop offset="0" stop-color="#30409a"/>
      <stop offset="1" stop-color="#662e91"/>
    </linearGradient>
    <path d="M52.9 66.7c-1.2.2-1.4-.4-1.1-1.6.7-2 1.3-4 2-6.2.3-.8.5-1.6-.4-2.2-1.7-1-1.7-1.1-1.3-3.2 0-.1.1-.2 0-.4-1.5-.4-3-1-4.5 0-.4.3-1.3-.2-1.9-.4-.2.4-.2.6-.4 1 1.8 3 1.2 3.3-.3 4 0 1 .1 1.9.2 2.9 0 1 .5 1.9 1.3 2.5.4.3.5 1.1.7 1.8-.5.1-1 .1-1.6 0-1.2-.3-2.3-.8-3.4-1.3-.5-.4-.7-.9-.7-1.5.1-1 .3-2 .5-3-.4-.3-.8-.6-1.2-1-.1-.1-.2-.7 0-.8 1.3-1 2-2.6 1.7-4.1-.1-.4.4-1 .8-1.7-.9 0-1.8.2-2.7.4-.9.3-1.4.1-2.1-.9-.3-.4-.9-.7-1.5-.6-.8.2-1.5.6-2.3 1-.5.2-1 .3-1.5.3-.1-.3-.2-.5-.2-.9-.1-1.1-1-1.8-1.5-1-1.1 1.3-1.7.3-2.5-.5-1.1-1.2-1.5-1.2-2.6 0-.3.1-.5.2-.8.3-.7-.4-1.6-.6-2.6-.7-.8 0-1.6.3-1.9-.7-.2-.7-.3-1.5-.4-2.3.1 0 .2-.2.3-.2l-1.5-.6c-1.3-.3-2.4-1-3.3-1.9 0 0 0-.8.2-.8 1.6-.5.9-2.1 1-3.3.1-1.2-.2-2.4-.1-3.7.1-.7 0-1.5-.5-2.1-.4-.6-1.1-1-1.8-1.2-.7-.2-1.8-.1-1.9-1.8 1.3.2 2.5.3 3.7.5s2.1.8 2.6-.8c.1-.2 1-.1 1.5-.2s.9-.2 1.4-.3c.3-.1.6.1.9 0 2-.7 3.9-1.6 5.9-2.4.3-.2.5-.5.6-.9.1-.8-1.8-3.3-2.5-3.7-.3-.1-.5-.3-.6-.6 0-.3.1-.5.3-.7 1-.6.8-1.5.3-2.4-.2-.3-.3-.7-.4-1.1-.3-1.1-1.3-2-2.5-2-1.7-.3-3.5-1.3-5.3-1.7-1.8-.3-3.5-.5-5.3-.4-1.2-.1-2.7 0-4.1-.1-1.5-.2-3 .5-3.9 1.8-.3.4-.6.7-1 1-.7.5-1.5.9-2.3 1.2-.4.1-.9.1-1.2-.1-.3-.3-.3-.8-.4-1.6-.9-.4-1.1-1-.3-2.2.9-1.5 1.9-2.9 3-4.3.7-.8 1-.1 1.2.4.9-.1 1.6 0 2.3 0 1-2.3 3-2.9 5.2-2.8.5 0 .7.2 1-.4s2.9-.6 3.4.2c.5.6.8 1.3 1.7 1 .1 0 .4.1.5.3.8 1.4 2.2 1.5 3.4 1.8.8.2 1.6.5 2.3.7l2.1.6c1.2.3 2.3.6 3.4 1 .5.2.7.9 1.2 1.3l1.5 1.5c1.2-1.8 1.8-1.9 3.5-1.4 1.2.4 2.5.7 3.8.9.5.2.9.5 1.3.9.5-.3 1-.8 1.4-1.2.8-.7 1.3-.4 1.7.5.2.5.5 1 .8 1.4.9 1.3 2.2.9 3.3.8s1.5-.3 2.1.9c.8 2.1 2.7 3.6 5 3.8.3.1.5.2.6.4 1.2 1.3 2.8 2.2 3.2 4.3 0 .2.3.4.4.5.3-.2.5-.4.8-.6.8.8 1.7 1.7 2.7 2.6-.6.2-.8.4-1.2.3-1.8 0-1.8 0-1.6 2.1 0 .8.2 1.5.2 2.3 0 1.1.6 2.1 1.6 2.6 1 .7 1.3 2 .7 3.1-.2.3-.2.7-.2 1.1.5.9.3 1.5-.5 1.9l.1.4c1.2.2 2.3.4 3.5.7.4.3.8.7 1.3 1.1.5.4 1.3.8 1.8 1.2 1.7 1.6 3.5 1.5 5.5 1.5.4 0 1.1-.1 1.5.1 1.1.8 1.8 1.2 2.5-.4 1.1 2.2-1.1 3.6-.7 5.6-.4-.1-.8-.2-1.2-.2-1.4-.4-2.1.5-1.8 2.2 0 .4-.1.7-.4 1-1.6 1-1.7.9-2.9-.5l-2.1.9c-.6.1-.8.5-.7 1.1.3 1.4.6 2.7-1.3 2.5-.1 0-.4.3-.4.4.3 1.4-.6 1.7-1.3 1.8.6 1.4 1.2 2.9 2 4.3-2.6 1.4-2.6 1.4-4.9-.9-.1 1-.3 2.1-1.5 2.2-.9.1-1.7.4-2.6-.3-1.2-.8-2.8.3-3.6 2.3-.4 1-.7 1.5-1.6.9-.1-.1-.4-.4-.3-.6-.1-.4 0-.9 0-1.3.1-.5-.1-1-.3-1.4zm-7.5-33.4c-.6-1.3-2-1.9-3.3-1.6-.5.1-1.1.1-1.7.1-2.1 0-4.3-.1-6.5 0-1.9.2-3.6-1.2-3.9-3.1 0-.1-.1-.1-.3-.2-1.1.7-2 1.5-3.6 1.5-1.9 0-3.7 1.4-5.3 2.2.8.5 1.7 1.2 2.6 1.9.5.4.5 3-.1 3.3-.1.1-.3.1-.5 0-.7-.2-1.5-.5-2.5-.8-.3-.5-.8-1.4-1.3-2.2l-.6 7c1.4-.2 2.7-.3 3.9-.4.9-.1 1.9-.7 1.8 1.1 0 .1.3.2.4.3 1 .4 2 .7 3 1 .6.3 1.3.4 2 .4 1.2 0 2.5 1.2 3.6.3.2 0 .3 0 .5.1.9.5 1.8 1.1 2.6 1.5.9.6 2.1.6 3.1.2 1.3-.5 2.6-.7 4-.8 2.2-.2 2.6-.2 2-2.6 0-.1.1-.1.1-.5.3.2.7.4 1.1.5.3 0 .9-.1.9-.3.4-1.2.8-2.5 1.2-3.6-1.3-1.1-3.2-.7-3.7-2.8-.1-1.1-.3-2.2.5-2.5z" fill="none" stroke="url(#b)"/>
    <ellipse cx="33.5" cy="17.6" rx="10.9" ry="11.5" fill="#fff" stroke="#fff"/>
    <linearGradient id="c" gradientUnits="userSpaceOnUse" x1="-893.012" y1="566.135" x2="-892.012" y2="566.135" gradientTransform="matrix(34.5928 0 0 -46.2113 30906.16 26184.908)">
      <stop offset="0" stop-color="#373e99"/>
      <stop offset="1" stop-color="#662e91"/>
    </linearGradient>
    <path d="M31.7 0c-9.6 0-17.3 7.3-17.3 16.3 0 14 17.3 29.9 17.3 29.9S49 29.4 49 16.3C49 7.3 41.2 0 31.7 0m-.2 25.6c-3.3 0-6.3-2-7.6-5.1s-.6-6.6 1.8-8.9 5.9-3 8.9-1.8c3.1 1.3 5.1 4.3 5.1 7.6.1 4.5-3.6 8.2-8.2 8.2" fill-rule="evenodd" clip-rule="evenodd" fill="url(#c)" stroke="#fff"/>
  </g>
  <linearGradient id="d" gradientUnits="userSpaceOnUse" x1="-891.45" y1="596.067" x2="-890.567" y2="596.95" gradientTransform="matrix(120 0 0 -120 106981 71641)">
    <stop offset="0" stop-color="#30409a"/>
    <stop offset="1" stop-color="#662e91"/>
  </linearGradient>
  <path d="M96 2c5.8 0 11.4 2.3 15.6 6.4S118 18.2 118 24v88c0 3.3-2.7 6-6 6H24c-12.2 0-22-9.8-22-22V8c0-3.3 2.7-6 6-6h88zm0-2H8C3.6 0 0 3.6 0 8v88c0 13.3 10.7 24 24 24h88c4.4 0 8-3.6 8-8V24c0-13.3-10.7-24-24-24z" fill="url(#d)"/>
</svg>
