<svg xmlns="http://www.w3.org/2000/svg" width="120" height="120">
  <path d="M112 120H24c-13.3 0-24-10.7-24-24V8c0-4.4 3.6-8 8-8h88c13.3 0 24 10.7 24 24v88c0 4.4-3.6 8-8 8z" fill="#fff"/>
  <linearGradient id="a" gradientUnits="userSpaceOnUse" x1="-891.45" y1="596.067" x2="-890.567" y2="596.95" gradientTransform="matrix(120 0 0 -120 106981 71641)">
    <stop offset="0" stop-color="#30409a"/>
    <stop offset="1" stop-color="#662e91"/>
  </linearGradient>
  <path d="M96 2c5.8 0 11.4 2.3 15.6 6.4S118 18.2 118 24v88c0 3.3-2.7 6-6 6H24c-12.2 0-22-9.8-22-22V8c0-3.3 2.7-6 6-6h88zm0-2H8C3.6 0 0 3.6 0 8v88c0 13.3 10.7 24 24 24h88c4.4 0 8-3.6 8-8V24c0-13.3-10.7-24-24-24z" fill="url(#a)"/>
  <linearGradient id="b" gradientUnits="userSpaceOnUse" x1="23.94" y1="68.732" x2="96.06" y2="68.732">
    <stop offset="0" stop-color="#373e99"/>
    <stop offset="1" stop-color="#662e91"/>
  </linearGradient>
  <path d="M72.3 94.9c-1.1.2-1.3-.4-1-1.4.6-1.9 1.2-3.7 1.8-5.7.3-.8.4-1.4-.4-2-1.5-.9-1.5-1-1.2-2.9 0-.1.1-.2 0-.4-1.4-.3-2.7-.9-4.1 0-.4.3-1.2-.2-1.7-.4-.1.3-.2.5-.3.9 1.7 2.7 1.1 3-.3 3.6.1.9 0 1.7.2 2.6.1.9.4 1.8 1.2 2.3.4.2.4 1 .6 1.6-.5 0-1 .1-1.4 0-1.1-.3-2.2-.7-3.1-1.2-.4-.2-.7-.9-.7-1.4 0-.8.3-1.7.5-2.7-.2-.2-.7-.5-1.1-.9-.1-.1-.1-.7 0-.7 1-.9 1.8-2 1.6-3.8-.1-.4.3-.9.7-1.6-.9.1-1.7.1-2.5.4-.9.3-1.3.1-1.9-.8-.2-.4-.9-.6-1.3-.5-.7.1-1.4.6-2.1.9-.4.2-.8.2-1.4.3-.1-.3-.2-.5-.2-.8-.1-1-.9-1.6-1.4-.9-1 1.2-1.6.3-2.2-.5-1-1.1-1.3-1.1-2.4 0-.2.1-.6.2-.8.3-.8-.1-1.7-.4-2.5-.4-.7 0-1.5.3-1.8-.7-.2-.7-.2-1.4-.3-2.1.1 0 .2-.1.3-.2-.5-.2-.9-.4-1.3-.5-1.2-.2-2.1-.9-3-1.7 0 0 .1-.7.2-.7 1.4-.5.8-1.9.9-3 .1-1.1-.1-2.2-.1-3.4.1-1.6-.6-2.5-2.1-2.9-.6-.2-1.6-.1-1.8-1.7 1.2.2 2.3.3 3.4.5.9.1 1.9.7 2.4-.7.1-.2.9-.1 1.4-.2.4-.1.9-.3 1.3-.3.3-.1.5.1.8 0 1.8-.7 3.6-1.4 5.4-2.2.3-.2.5-.5.5-.8.1-.7-1.6-3-2.3-3.4-.2-.1-.5-.3-.5-.5s.1-.5.3-.7c.9-.6.7-1.4.3-2.2-.2-.3-.3-.6-.4-.9-.3-1.2-1-1.7-2.2-1.9-1.6-.3-3.2-1.2-4.8-1.6-1.6-.4-3.2-.4-4.9-.5-1.1-.1-2.5 0-3.8-.1-1.4 0-2.7.2-3.6 1.6-.2.4-.6.6-.9.9-.6.4-1.4.9-2.1 1.1-.3.2-.8.1-1.1-.1-.3-.3-.3-.8-.4-1.5-.8-.4-1-.9-.3-2 .8-1.4 1.8-2.7 2.8-3.9.7-.7.9-.1 1.1.4.8-.1 1.4 0 2.1 0 .9-2.1 2.7-2.7 4.8-2.6.4 0 .6.2.9-.4.4-.7 2.6-.5 3.1.2.4.5.7 1.2 1.5.9.1 0 .3.1.5.3.8 1.3 2 1.3 3.1 1.6l2.1.6c.6.2 1.3.4 1.9.5 1.1.3 2.1.5 3.1.9.5.2.7.8 1.1 1.2l1.4 1.4c1.1-1.6 1.7-1.8 3.2-1.3 1.1.4 2.3.6 3.4.8.4.1.7.5 1.2.8.4-.3.9-.6 1.3-1.1.7-.6 1.2-.3 1.5.4.2.5.5.9.8 1.3.8 1.2 2 .8 3 .7.9-.2 1.4-.3 1.9.8.9 2 2.4 3.4 4.6 3.5.2.1.5.2.6.4 1.1 1.2 2.5 2 2.9 3.9 0 .2.3.4.4.4.3-.2.4-.4.7-.5.8.8 1.5 1.5 2.5 2.4-.6.2-.7.4-1.1.3-1.6 0-1.6 0-1.5 1.9 0 .7.2 1.4.2 2.1.1 1.1.5 1.8 1.4 2.4s1.1 1.8.7 2.8c-.1.3-.3.8-.2 1 .5.8.3 1.4-.5 1.7 0 .1 0 .2.1.4 1.1.2 2.1.4 3.2.7.4.2.7.7 1.2 1 .6.4 1.2.7 1.6 1.1 1.5 1.4 3.2 1.4 5.1 1.3.4 0 1-.1 1.4.1 1 .7 1.6 1.1 2.3-.4 1 2-1 3.3-.6 5.1-.4-.1-.7-.2-1.1-.2-1.3-.4-1.9.5-1.6 2 .1.3-.2.7-.3.9-1.5.9-1.6.8-2.6-.5-.7.2-1.3.7-1.9.8s-.7.5-.6 1c.3 1.3.6 2.4-1.2 2.3-.1 0-.4.3-.3.4.3 1.3-.5 1.5-1.2 1.7.6 1.3 1.1 2.6 1.8 3.9-2.4 1.3-2.4 1.3-4.5-.8-.1.9-.2 1.9-1.3 2-.8.1-1.5.4-2.4-.2-1.1-.7-2.6.3-3.3 2.1-.3.9-.6 1.4-1.5.8-.1-.1-.4-.3-.3-.5-.1-.4 0-.8 0-1.2-.1-.1-.4-.5-.6-1.1zm-6.8-30.6c-.7-1.3-1.8-1.7-3-1.4-.5.1-1 .1-1.5.1-2 0-4-.1-6 0-1.9 0-3-.8-3.5-2.9 0-.1-.1-.1-.2-.2-1 .6-1.9 1.4-3.3 1.4-1.7 0-3.4 1.3-4.8 2 .7.5 1.5 1.1 2.4 1.8.5.4.5 2.8-.1 3-.1 0-.3.1-.4 0-.6-.2-1.4-.4-2.3-.8-.3-.5-.8-1.3-1.2-2-.2 2.2-.4 4.4-.5 6.5 1.3-.2 2.5-.3 3.6-.4.8-.1 1.7-.6 1.6 1 0 .1.2.2.4.2.9.3 1.8.7 2.7.9.5.2 1.2.4 1.8.4 1.1 0 2.3 1.1 3.3.3.1 0 .3 0 .4.1.8.5 1.6 1 2.4 1.4.9.4 1.8.7 2.8.2 1.1-.5 2.4-.6 3.6-.7 2-.2 2.4-.2 1.9-2.4 0-.1.1-.1.1-.4.3.1.7.4 1 .4.3 0 .8-.1.9-.3.4-1.1.8-2.3 1.1-3.3-1.2-1-2.9-.6-3.4-2.6-.4-.9-.6-1.9.2-2.3z" opacity=".1" fill="url(#b)"/>
  <linearGradient id="c" gradientUnits="userSpaceOnUse" x1="23.44" y1="68.732" x2="96.56" y2="68.732">
    <stop offset="0" stop-color="#30409a"/>
    <stop offset="1" stop-color="#662e91"/>
  </linearGradient>
  <path d="M72.3 94.9c-1.1.2-1.3-.4-1-1.4.6-1.9 1.2-3.7 1.8-5.7.3-.8.4-1.4-.4-2-1.5-.9-1.5-1-1.2-2.9 0-.1.1-.2 0-.4-1.4-.3-2.7-.9-4.1 0-.4.3-1.2-.2-1.7-.4-.1.3-.2.5-.3.9 1.7 2.7 1.1 3-.3 3.6.1.9 0 1.7.2 2.6.1.9.4 1.8 1.2 2.3.4.2.4 1 .6 1.6-.5 0-1 .1-1.4 0-1.1-.3-2.2-.7-3.1-1.2-.4-.2-.7-.9-.7-1.4 0-.8.3-1.7.5-2.7-.2-.2-.7-.5-1.1-.9-.1-.1-.1-.7 0-.7 1-.9 1.8-2 1.6-3.8-.1-.4.3-.9.7-1.6-.9.1-1.7.1-2.5.4-.9.3-1.3.1-1.9-.8-.2-.4-.9-.6-1.3-.5-.7.1-1.4.6-2.1.9-.4.2-.8.2-1.4.3-.1-.3-.2-.5-.2-.8-.1-1-.9-1.6-1.4-.9-1 1.2-1.6.3-2.2-.5-1-1.1-1.3-1.1-2.4 0-.2.1-.6.2-.8.3-.8-.1-1.7-.4-2.5-.4-.7 0-1.5.3-1.8-.7-.2-.7-.2-1.4-.3-2.1.1 0 .2-.1.3-.2-.5-.2-.9-.4-1.3-.5-1.2-.2-2.1-.9-3-1.7 0 0 .1-.7.2-.7 1.4-.5.8-1.9.9-3 .1-1.1-.1-2.2-.1-3.4.1-1.6-.6-2.5-2.1-2.9-.6-.2-1.6-.1-1.8-1.7 1.2.2 2.3.3 3.4.5.9.1 1.9.7 2.4-.7.1-.2.9-.1 1.4-.2.4-.1.9-.3 1.3-.3.3-.1.5.1.8 0 1.8-.7 3.6-1.4 5.4-2.2.3-.2.5-.5.5-.8.1-.7-1.6-3-2.3-3.4-.2-.1-.5-.3-.5-.5s.1-.5.3-.7c.9-.6.7-1.4.3-2.2-.2-.3-.3-.6-.4-.9-.3-1.2-1-1.7-2.2-1.9-1.6-.3-3.2-1.2-4.8-1.6-1.6-.4-3.2-.4-4.9-.5-1.1-.1-2.5 0-3.8-.1-1.4 0-2.7.2-3.6 1.6-.2.4-.6.6-.9.9-.6.4-1.4.9-2.1 1.1-.3.2-.8.1-1.1-.1-.3-.3-.3-.8-.4-1.5-.8-.4-1-.9-.3-2 .8-1.4 1.8-2.7 2.8-3.9.7-.7.9-.1 1.1.4.8-.1 1.4 0 2.1 0 .9-2.1 2.7-2.7 4.8-2.6.4 0 .6.2.9-.4.4-.7 2.6-.5 3.1.2.4.5.7 1.2 1.5.9.1 0 .3.1.5.3.8 1.3 2 1.3 3.1 1.6l2.1.6c.6.2 1.3.4 1.9.5 1.1.3 2.1.5 3.1.9.5.2.7.8 1.1 1.2l1.4 1.4c1.1-1.6 1.7-1.8 3.2-1.3 1.1.4 2.3.6 3.4.8.4.1.7.5 1.2.8.4-.3.9-.6 1.3-1.1.7-.6 1.2-.3 1.5.4.2.5.5.9.8 1.3.8 1.2 2 .8 3 .7.9-.2 1.4-.3 1.9.8.9 2 2.4 3.4 4.6 3.5.2.1.5.2.6.4 1.1 1.2 2.5 2 2.9 3.9 0 .2.3.4.4.4.3-.2.4-.4.7-.5.8.8 1.5 1.5 2.5 2.4-.6.2-.7.4-1.1.3-1.6 0-1.6 0-1.5 1.9 0 .7.2 1.4.2 2.1.1 1.1.5 1.8 1.4 2.4s1.1 1.8.7 2.8c-.1.3-.3.8-.2 1 .5.8.3 1.4-.5 1.7 0 .1 0 .2.1.4 1.1.2 2.1.4 3.2.7.4.2.7.7 1.2 1 .6.4 1.2.7 1.6 1.1 1.5 1.4 3.2 1.4 5.1 1.3.4 0 1-.1 1.4.1 1 .7 1.6 1.1 2.3-.4 1 2-1 3.3-.6 5.1-.4-.1-.7-.2-1.1-.2-1.3-.4-1.9.5-1.6 2 .1.3-.2.7-.3.9-1.5.9-1.6.8-2.6-.5-.7.2-1.3.7-1.9.8s-.7.5-.6 1c.3 1.3.6 2.4-1.2 2.3-.1 0-.4.3-.3.4.3 1.3-.5 1.5-1.2 1.7.6 1.3 1.1 2.6 1.8 3.9-2.4 1.3-2.4 1.3-4.5-.8-.1.9-.2 1.9-1.3 2-.8.1-1.5.4-2.4-.2-1.1-.7-2.6.3-3.3 2.1-.3.9-.6 1.4-1.5.8-.1-.1-.4-.3-.3-.5-.1-.4 0-.8 0-1.2-.1-.1-.4-.5-.6-1.1zm-6.8-30.6c-.7-1.3-1.8-1.7-3-1.4-.5.1-1 .1-1.5.1-2 0-4-.1-6 0-1.9 0-3-.8-3.5-2.9 0-.1-.1-.1-.2-.2-1 .6-1.9 1.4-3.3 1.4-1.7 0-3.4 1.3-4.8 2 .7.5 1.5 1.1 2.4 1.8.5.4.5 2.8-.1 3-.1 0-.3.1-.4 0-.6-.2-1.4-.4-2.3-.8-.3-.5-.8-1.3-1.2-2-.2 2.2-.4 4.4-.5 6.5 1.3-.2 2.5-.3 3.6-.4.8-.1 1.7-.6 1.6 1 0 .1.2.2.4.2.9.3 1.8.7 2.7.9.5.2 1.2.4 1.8.4 1.1 0 2.3 1.1 3.3.3.1 0 .3 0 .4.1.8.5 1.6 1 2.4 1.4.9.4 1.8.7 2.8.2 1.1-.5 2.4-.6 3.6-.7 2-.2 2.4-.2 1.9-2.4 0-.1.1-.1.1-.4.3.1.7.4 1 .4.3 0 .8-.1.9-.3.4-1.1.8-2.3 1.1-3.3-1.2-1-2.9-.6-3.4-2.6-.4-.9-.6-1.9.2-2.3z" fill="none" stroke="url(#c)"/>
  <linearGradient id="d" gradientUnits="userSpaceOnUse" x1="48.188" y1="33.12" x2="79.812" y2="33.12">
    <stop offset="0" stop-color="#373e99"/>
    <stop offset="1" stop-color="#662e91"/>
  </linearGradient>
  <path d="M64 12c-8.7 0-15.8 6.7-15.8 14.9C48.2 39.7 64 54.2 64 54.2s15.8-15.3 15.8-27.3C79.8 18.7 72.7 12 64 12m-.1 23.4c-4.1 0-7.5-3.4-7.5-7.5s3.4-7.5 7.5-7.5 7.5 3.4 7.5 7.5-3.4 7.5-7.5 7.5" fill-rule="evenodd" clip-rule="evenodd" fill="url(#d)" stroke="#fff"/>
</svg>
