<svg xmlns="http://www.w3.org/2000/svg" width="64" height="64">
    <linearGradient id="a" gradientUnits="userSpaceOnUse" x1="-912.286" y1="564.452" x2="-911.286" y2="564.452" gradientTransform="matrix(63 0 0 -63 57474.5 35592.5)">
        <stop offset="0" stop-color="#30409a"></stop>
        <stop offset="1" stop-color="#662d91"></stop>
    </linearGradient>
    <path d="M4 .5C2.1.5.5 2.1.5 4v48c0 6.4 5.1 11.5 11.5 11.5h48c1.9 0 3.5-1.6 3.5-3.5V12C63.5 5.6 58.4.5 52 .5H4z" fill="#fff" stroke="url(#a)"></path>
    <g transform="translate(18.067 17.067)">
        <linearGradient id="b" gradientUnits="userSpaceOnUse" x1="-655.38" y1="396.995" x2="-654.38" y2="396.995" gradientTransform="matrix(3.2 0 0 -3.2 2097.214 1271.986)">
            <stop offset="0" stop-color="#30409a"></stop>
            <stop offset="1" stop-color="#662e91"></stop>
        </linearGradient>
        <path d="M1.6 0c.9 0 1.6.7 1.6 1.6 0 .9-.7 1.6-1.6 1.6C.7 3.2 0 2.5 0 1.6 0 .7.7 0 1.6 0z" fill="url(#b)"></path>
        <linearGradient id="c" gradientUnits="userSpaceOnUse" x1="-655.38" y1="396.995" x2="-654.38" y2="396.995" gradientTransform="matrix(3.2 0 0 -3.2 2102.547 1271.986)">
            <stop offset="0" stop-color="#30409a"></stop>
            <stop offset="1" stop-color="#662e91"></stop>
        </linearGradient>
        <path d="M6.9 0c.9 0 1.6.7 1.6 1.6 0 .9-.7 1.6-1.6 1.6-.9 0-1.6-.7-1.6-1.6C5.3.7 6 0 6.9 0z" fill="url(#c)"></path>
        <linearGradient id="d" gradientUnits="userSpaceOnUse" x1="-655.38" y1="396.995" x2="-654.38" y2="396.995" gradientTransform="matrix(3.2 0 0 -3.2 2107.881 1271.986)">
            <stop offset="0" stop-color="#30409a"></stop>
            <stop offset="1" stop-color="#662e91"></stop>
        </linearGradient>
        <path d="M12.3 0c.9 0 1.6.7 1.6 1.6 0 .9-.7 1.6-1.6 1.6-.9 0-1.6-.7-1.6-1.6 0-.9.7-1.6 1.6-1.6z" fill="url(#d)"></path>
        <linearGradient id="e" gradientUnits="userSpaceOnUse" x1="-655.38" y1="396.995" x2="-654.38" y2="396.995" gradientTransform="matrix(3.2 0 0 -3.2 2113.214 1271.986)">
            <stop offset="0" stop-color="#30409a"></stop>
            <stop offset="1" stop-color="#662e91"></stop>
        </linearGradient>
        <path d="M17.6 0c.9 0 1.6.7 1.6 1.6 0 .9-.7 1.6-1.6 1.6-.9 0-1.6-.7-1.6-1.6 0-.9.7-1.6 1.6-1.6z" fill="url(#e)"></path>
        <linearGradient id="f" gradientUnits="userSpaceOnUse" x1="-655.38" y1="396.995" x2="-654.38" y2="396.995" gradientTransform="matrix(3.2 0 0 -3.2 2118.547 1271.986)">
            <stop offset="0" stop-color="#30409a"></stop>
            <stop offset="1" stop-color="#662e91"></stop>
        </linearGradient>
        <path d="M22.9 0c.9 0 1.6.7 1.6 1.6 0 .9-.7 1.6-1.6 1.6-.9 0-1.6-.7-1.6-1.6 0-.9.7-1.6 1.6-1.6z" fill="url(#f)"></path>
        <linearGradient id="g" gradientUnits="userSpaceOnUse" x1="-655.38" y1="396.995" x2="-654.38" y2="396.995" gradientTransform="matrix(3.2 0 0 -3.2 2123.881 1271.986)">
            <stop offset="0" stop-color="#30409a"></stop>
            <stop offset="1" stop-color="#662e91"></stop>
        </linearGradient>
        <path d="M28.3 0c.9 0 1.6.7 1.6 1.6 0 .9-.7 1.6-1.6 1.6-.9 0-1.6-.7-1.6-1.6 0-.9.7-1.6 1.6-1.6z" fill="url(#g)"></path>
        <linearGradient id="h" gradientUnits="userSpaceOnUse" x1="-655.38" y1="396.995" x2="-654.38" y2="396.995" gradientTransform="matrix(3.2 0 0 -3.2 2097.214 1277.319)">
            <stop offset="0" stop-color="#30409a"></stop>
            <stop offset="1" stop-color="#662e91"></stop>
        </linearGradient>
        <path d="M1.6 5.3c.9 0 1.6.7 1.6 1.6 0 .9-.7 1.6-1.6 1.6C.7 8.5 0 7.8 0 6.9c0-.9.7-1.6 1.6-1.6z" fill="url(#h)"></path>
        <linearGradient id="i" gradientUnits="userSpaceOnUse" x1="-655.38" y1="396.995" x2="-654.38" y2="396.995" gradientTransform="matrix(3.2 0 0 -3.2 2102.547 1277.319)">
            <stop offset="0" stop-color="#30409a"></stop>
            <stop offset="1" stop-color="#662e91"></stop>
        </linearGradient>
        <path d="M6.9 5.3c.9 0 1.6.7 1.6 1.6 0 .9-.7 1.6-1.6 1.6-.9 0-1.6-.7-1.6-1.6 0-.9.7-1.6 1.6-1.6z" fill="url(#i)"></path>
        <linearGradient id="j" gradientUnits="userSpaceOnUse" x1="-655.38" y1="396.995" x2="-654.38" y2="396.995" gradientTransform="matrix(3.2 0 0 -3.2 2107.881 1277.319)">
            <stop offset="0" stop-color="#30409a"></stop>
            <stop offset="1" stop-color="#662e91"></stop>
        </linearGradient>
        <path d="M12.3 5.3c.9 0 1.6.7 1.6 1.6 0 .9-.7 1.6-1.6 1.6-.9 0-1.6-.7-1.6-1.6 0-.9.7-1.6 1.6-1.6z" fill="url(#j)"></path>
        <linearGradient id="k" gradientUnits="userSpaceOnUse" x1="-655.38" y1="396.995" x2="-654.38" y2="396.995" gradientTransform="matrix(3.2 0 0 -3.2 2113.214 1277.319)">
            <stop offset="0" stop-color="#30409a"></stop>
            <stop offset="1" stop-color="#662e91"></stop>
        </linearGradient>
        <path d="M17.6 5.3c.9 0 1.6.7 1.6 1.6 0 .9-.7 1.6-1.6 1.6-.9 0-1.6-.7-1.6-1.6 0-.9.7-1.6 1.6-1.6z" fill="url(#k)"></path>
        <linearGradient id="l" gradientUnits="userSpaceOnUse" x1="-655.38" y1="396.995" x2="-654.38" y2="396.995" gradientTransform="matrix(3.2 0 0 -3.2 2118.547 1277.319)">
            <stop offset="0" stop-color="#30409a"></stop>
            <stop offset="1" stop-color="#662e91"></stop>
        </linearGradient>
        <path d="M22.9 5.3c.9 0 1.6.7 1.6 1.6 0 .9-.7 1.6-1.6 1.6-.9 0-1.6-.7-1.6-1.6 0-.9.7-1.6 1.6-1.6z" fill="url(#l)"></path>
        <linearGradient id="m" gradientUnits="userSpaceOnUse" x1="-655.38" y1="396.995" x2="-654.38" y2="396.995" gradientTransform="matrix(3.2 0 0 -3.2 2123.881 1277.319)">
            <stop offset="0" stop-color="#30409a"></stop>
            <stop offset="1" stop-color="#662e91"></stop>
        </linearGradient>
        <path d="M28.3 5.3c.9 0 1.6.7 1.6 1.6 0 .9-.7 1.6-1.6 1.6-.9 0-1.6-.7-1.6-1.6 0-.9.7-1.6 1.6-1.6z" fill="url(#m)"></path>
        <linearGradient id="n" gradientUnits="userSpaceOnUse" x1="-655.38" y1="396.995" x2="-654.38" y2="396.995" gradientTransform="matrix(3.2 0 0 -3.2 2097.214 1282.653)">
            <stop offset="0" stop-color="#30409a"></stop>
            <stop offset="1" stop-color="#662e91"></stop>
        </linearGradient>
        <path d="M1.6 10.7c.9 0 1.6.7 1.6 1.6 0 .9-.7 1.6-1.6 1.6-.9 0-1.6-.7-1.6-1.6 0-.9.7-1.6 1.6-1.6z" fill="url(#n)"></path>
        <linearGradient id="o" gradientUnits="userSpaceOnUse" x1="-655.38" y1="396.995" x2="-654.38" y2="396.995" gradientTransform="matrix(3.2 0 0 -3.2 2102.547 1282.653)">
            <stop offset="0" stop-color="#30409a"></stop>
            <stop offset="1" stop-color="#662e91"></stop>
        </linearGradient>
        <path d="M6.9 10.7c.9 0 1.6.7 1.6 1.6 0 .9-.7 1.6-1.6 1.6-.9 0-1.6-.7-1.6-1.6 0-.9.7-1.6 1.6-1.6z" fill="url(#o)"></path>
        <linearGradient id="p" gradientUnits="userSpaceOnUse" x1="-655.38" y1="396.995" x2="-654.38" y2="396.995" gradientTransform="matrix(3.2 0 0 -3.2 2107.881 1282.653)">
            <stop offset="0" stop-color="#30409a"></stop>
            <stop offset="1" stop-color="#662e91"></stop>
        </linearGradient>
        <path d="M12.3 10.7c.9 0 1.6.7 1.6 1.6 0 .9-.7 1.6-1.6 1.6-.9 0-1.6-.7-1.6-1.6 0-.9.7-1.6 1.6-1.6z" fill="url(#p)"></path>
        <linearGradient id="q" gradientUnits="userSpaceOnUse" x1="-655.38" y1="396.995" x2="-654.38" y2="396.995" gradientTransform="matrix(3.2 0 0 -3.2 2113.214 1282.653)">
            <stop offset="0" stop-color="#30409a"></stop>
            <stop offset="1" stop-color="#662e91"></stop>
        </linearGradient>
        <path d="M17.6 10.7c.9 0 1.6.7 1.6 1.6 0 .9-.7 1.6-1.6 1.6-.9 0-1.6-.7-1.6-1.6 0-.9.7-1.6 1.6-1.6z" fill="url(#q)"></path>
        <linearGradient id="r" gradientUnits="userSpaceOnUse" x1="-655.38" y1="396.995" x2="-654.38" y2="396.995" gradientTransform="matrix(3.2 0 0 -3.2 2118.547 1282.653)">
            <stop offset="0" stop-color="#30409a"></stop>
            <stop offset="1" stop-color="#662e91"></stop>
        </linearGradient>
        <path d="M22.9 10.7c.9 0 1.6.7 1.6 1.6 0 .9-.7 1.6-1.6 1.6-.9 0-1.6-.7-1.6-1.6 0-.9.7-1.6 1.6-1.6z" fill="url(#r)"></path>
        <linearGradient id="s" gradientUnits="userSpaceOnUse" x1="-655.38" y1="396.995" x2="-654.38" y2="396.995" gradientTransform="matrix(3.2 0 0 -3.2 2123.881 1282.653)">
            <stop offset="0" stop-color="#30409a"></stop>
            <stop offset="1" stop-color="#662e91"></stop>
        </linearGradient>
        <path d="M28.3 10.7c.9 0 1.6.7 1.6 1.6 0 .9-.7 1.6-1.6 1.6-.9 0-1.6-.7-1.6-1.6 0-.9.7-1.6 1.6-1.6z" fill="url(#s)"></path>
        <linearGradient id="t" gradientUnits="userSpaceOnUse" x1="-655.38" y1="396.995" x2="-654.38" y2="396.995" gradientTransform="matrix(3.2 0 0 -3.2 2097.214 1287.986)">
            <stop offset="0" stop-color="#30409a"></stop>
            <stop offset="1" stop-color="#662e91"></stop>
        </linearGradient>
        <path d="M1.6 16c.9 0 1.6.7 1.6 1.6 0 .9-.7 1.6-1.6 1.6-.9 0-1.6-.7-1.6-1.6 0-.9.7-1.6 1.6-1.6z" fill="url(#t)"></path>
        <linearGradient id="u" gradientUnits="userSpaceOnUse" x1="-655.38" y1="396.995" x2="-654.38" y2="396.995" gradientTransform="matrix(3.2 0 0 -3.2 2102.547 1287.986)">
            <stop offset="0" stop-color="#30409a"></stop>
            <stop offset="1" stop-color="#662e91"></stop>
        </linearGradient>
        <path d="M6.9 16c.9 0 1.6.7 1.6 1.6 0 .9-.7 1.6-1.6 1.6-.9 0-1.6-.7-1.6-1.6 0-.9.7-1.6 1.6-1.6z" fill="url(#u)"></path>
        <linearGradient id="v" gradientUnits="userSpaceOnUse" x1="-655.38" y1="396.995" x2="-654.38" y2="396.995" gradientTransform="matrix(3.2 0 0 -3.2 2107.881 1287.986)">
            <stop offset="0" stop-color="#30409a"></stop>
            <stop offset="1" stop-color="#662e91"></stop>
        </linearGradient>
        <path d="M12.3 16c.9 0 1.6.7 1.6 1.6 0 .9-.7 1.6-1.6 1.6-.9 0-1.6-.7-1.6-1.6 0-.9.7-1.6 1.6-1.6z" fill="url(#v)"></path>
        <linearGradient id="w" gradientUnits="userSpaceOnUse" x1="-655.38" y1="396.995" x2="-654.38" y2="396.995" gradientTransform="matrix(3.2 0 0 -3.2 2113.214 1287.986)">
            <stop offset="0" stop-color="#30409a"></stop>
            <stop offset="1" stop-color="#662e91"></stop>
        </linearGradient>
        <path d="M17.6 16c.9 0 1.6.7 1.6 1.6 0 .9-.7 1.6-1.6 1.6-.9 0-1.6-.7-1.6-1.6 0-.9.7-1.6 1.6-1.6z" fill="url(#w)"></path>
        <linearGradient id="x" gradientUnits="userSpaceOnUse" x1="-655.38" y1="396.995" x2="-654.38" y2="396.995" gradientTransform="matrix(3.2 0 0 -3.2 2118.547 1287.986)">
            <stop offset="0" stop-color="#30409a"></stop>
            <stop offset="1" stop-color="#662e91"></stop>
        </linearGradient>
        <path d="M22.9 16c.9 0 1.6.7 1.6 1.6 0 .9-.7 1.6-1.6 1.6-.9 0-1.6-.7-1.6-1.6 0-.9.7-1.6 1.6-1.6z" fill="url(#x)"></path>
        <linearGradient id="y" gradientUnits="userSpaceOnUse" x1="-655.38" y1="396.995" x2="-654.38" y2="396.995" gradientTransform="matrix(3.2 0 0 -3.2 2123.881 1287.986)">
            <stop offset="0" stop-color="#30409a"></stop>
            <stop offset="1" stop-color="#662e91"></stop>
        </linearGradient>
        <path d="M28.3 16c.9 0 1.6.7 1.6 1.6 0 .9-.7 1.6-1.6 1.6-.9 0-1.6-.7-1.6-1.6 0-.9.7-1.6 1.6-1.6z" fill="url(#y)"></path>
        <linearGradient id="z" gradientUnits="userSpaceOnUse" x1="-655.38" y1="396.995" x2="-654.38" y2="396.995" gradientTransform="matrix(3.2 0 0 -3.2 2097.214 1293.319)">
            <stop offset="0" stop-color="#30409a"></stop>
            <stop offset="1" stop-color="#662e91"></stop>
        </linearGradient>
        <path d="M1.6 21.3c.9 0 1.6.7 1.6 1.6 0 .9-.7 1.6-1.6 1.6-.9 0-1.6-.7-1.6-1.6 0-.9.7-1.6 1.6-1.6z" fill="url(#z)"></path>
        <linearGradient id="A" gradientUnits="userSpaceOnUse" x1="-655.38" y1="396.995" x2="-654.38" y2="396.995" gradientTransform="matrix(3.2 0 0 -3.2 2102.547 1293.319)">
            <stop offset="0" stop-color="#30409a"></stop>
            <stop offset="1" stop-color="#662e91"></stop>
        </linearGradient>
        <path d="M6.9 21.3c.9 0 1.6.7 1.6 1.6 0 .9-.7 1.6-1.6 1.6-.9 0-1.6-.7-1.6-1.6 0-.9.7-1.6 1.6-1.6z" fill="url(#A)"></path>
        <linearGradient id="B" gradientUnits="userSpaceOnUse" x1="-655.38" y1="396.995" x2="-654.38" y2="396.995" gradientTransform="matrix(3.2 0 0 -3.2 2107.881 1293.319)">
            <stop offset="0" stop-color="#30409a"></stop>
            <stop offset="1" stop-color="#662e91"></stop>
        </linearGradient>
        <path d="M12.3 21.3c.9 0 1.6.7 1.6 1.6 0 .9-.7 1.6-1.6 1.6-.9 0-1.6-.7-1.6-1.6 0-.9.7-1.6 1.6-1.6z" fill="url(#B)"></path>
        <linearGradient id="C" gradientUnits="userSpaceOnUse" x1="-655.38" y1="396.995" x2="-654.38" y2="396.995" gradientTransform="matrix(3.2 0 0 -3.2 2113.214 1293.319)">
            <stop offset="0" stop-color="#30409a"></stop>
            <stop offset="1" stop-color="#662e91"></stop>
        </linearGradient>
        <path d="M17.6 21.3c.9 0 1.6.7 1.6 1.6 0 .9-.7 1.6-1.6 1.6-.9 0-1.6-.7-1.6-1.6 0-.9.7-1.6 1.6-1.6z" fill="url(#C)"></path>
        <linearGradient id="D" gradientUnits="userSpaceOnUse" x1="-655.38" y1="396.995" x2="-654.38" y2="396.995" gradientTransform="matrix(3.2 0 0 -3.2 2118.547 1293.319)">
            <stop offset="0" stop-color="#30409a"></stop>
            <stop offset="1" stop-color="#662e91"></stop>
        </linearGradient>
        <path d="M22.9 21.3c.9 0 1.6.7 1.6 1.6 0 .9-.7 1.6-1.6 1.6-.9 0-1.6-.7-1.6-1.6 0-.9.7-1.6 1.6-1.6z" fill="url(#D)"></path>
        <linearGradient id="E" gradientUnits="userSpaceOnUse" x1="-655.38" y1="396.995" x2="-654.38" y2="396.995" gradientTransform="matrix(3.2 0 0 -3.2 2123.881 1293.319)">
            <stop offset="0" stop-color="#30409a"></stop>
            <stop offset="1" stop-color="#662e91"></stop>
        </linearGradient>
        <path d="M28.3 21.3c.9 0 1.6.7 1.6 1.6 0 .9-.7 1.6-1.6 1.6-.9 0-1.6-.7-1.6-1.6 0-.9.7-1.6 1.6-1.6z" fill="url(#E)"></path>
        <linearGradient id="F" gradientUnits="userSpaceOnUse" x1="-655.38" y1="396.995" x2="-654.38" y2="396.995" gradientTransform="matrix(3.2 0 0 -3.2 2097.214 1298.653)">
            <stop offset="0" stop-color="#30409a"></stop>
            <stop offset="1" stop-color="#662e91"></stop>
        </linearGradient>
        <path d="M1.6 26.7c.9 0 1.6.7 1.6 1.6 0 .9-.7 1.6-1.6 1.6-.9 0-1.6-.7-1.6-1.6 0-.9.7-1.6 1.6-1.6z" fill="url(#F)"></path>
        <linearGradient id="G" gradientUnits="userSpaceOnUse" x1="-655.38" y1="396.995" x2="-654.38" y2="396.995" gradientTransform="matrix(3.2 0 0 -3.2 2102.547 1298.653)">
            <stop offset="0" stop-color="#30409a"></stop>
            <stop offset="1" stop-color="#662e91"></stop>
        </linearGradient>
        <path d="M6.9 26.7c.9 0 1.6.7 1.6 1.6 0 .9-.7 1.6-1.6 1.6-.9 0-1.6-.7-1.6-1.6 0-.9.7-1.6 1.6-1.6z" fill="url(#G)"></path>
    </g>
</svg>
