<svg xmlns="http://www.w3.org/2000/svg" xmlns:xlink="http://www.w3.org/1999/xlink" width="120" height="120" viewBox="0 0 120 120">
  <defs>
    <linearGradient id="linear-gradient" x1="7.03" y1="112.97" x2="112.97" y2="7.03" gradientUnits="userSpaceOnUse">
      <stop offset="0" stop-color="#30409a"/>
      <stop offset="1" stop-color="#662e91"/>
    </linearGradient>
    <linearGradient id="linear-gradient-2" x1="32" y1="35" x2="38" y2="35" xlink:href="#linear-gradient"/>
    <linearGradient id="linear-gradient-3" x1="42" y1="35" x2="48" y2="35" xlink:href="#linear-gradient"/>
    <linearGradient id="linear-gradient-4" x1="52" y1="35" x2="58" y2="35" xlink:href="#linear-gradient"/>
    <linearGradient id="linear-gradient-5" x1="62" y1="35" x2="68" y2="35" xlink:href="#linear-gradient"/>
    <linearGradient id="linear-gradient-6" x1="72" y1="35" x2="78" y2="35" xlink:href="#linear-gradient"/>
    <linearGradient id="linear-gradient-7" x1="82" y1="35" x2="88" y2="35" xlink:href="#linear-gradient"/>
    <linearGradient id="linear-gradient-8" x1="32" y1="45" x2="38" y2="45" xlink:href="#linear-gradient"/>
    <linearGradient id="linear-gradient-9" x1="42" y1="45" x2="48" y2="45" xlink:href="#linear-gradient"/>
    <linearGradient id="linear-gradient-10" x1="52" y1="45" x2="58" y2="45" xlink:href="#linear-gradient"/>
    <linearGradient id="linear-gradient-11" x1="62" y1="45" x2="68" y2="45" xlink:href="#linear-gradient"/>
    <linearGradient id="linear-gradient-12" x1="72" y1="45" x2="78" y2="45" xlink:href="#linear-gradient"/>
    <linearGradient id="linear-gradient-13" x1="82" y1="45" x2="88" y2="45" xlink:href="#linear-gradient"/>
    <linearGradient id="linear-gradient-14" x1="32" y1="55" x2="38" y2="55" xlink:href="#linear-gradient"/>
    <linearGradient id="linear-gradient-15" x1="42" y1="55" x2="48" y2="55" xlink:href="#linear-gradient"/>
    <linearGradient id="linear-gradient-16" x1="52" y1="55" x2="58" y2="55" xlink:href="#linear-gradient"/>
    <linearGradient id="linear-gradient-17" x1="62" y1="55" x2="68" y2="55" xlink:href="#linear-gradient"/>
    <linearGradient id="linear-gradient-18" x1="72" y1="55" x2="78" y2="55" xlink:href="#linear-gradient"/>
    <linearGradient id="linear-gradient-19" x1="82" y1="55" x2="88" y2="55" xlink:href="#linear-gradient"/>
    <linearGradient id="linear-gradient-20" x1="32" y1="65" x2="38" y2="65" xlink:href="#linear-gradient"/>
    <linearGradient id="linear-gradient-21" x1="42" y1="65" x2="48" y2="65" xlink:href="#linear-gradient"/>
    <linearGradient id="linear-gradient-22" x1="52" y1="65" x2="58" y2="65" xlink:href="#linear-gradient"/>
    <linearGradient id="linear-gradient-23" x1="62" y1="65" x2="68" y2="65" xlink:href="#linear-gradient"/>
    <linearGradient id="linear-gradient-24" x1="72" y1="65" x2="78" y2="65" xlink:href="#linear-gradient"/>
    <linearGradient id="linear-gradient-25" x1="82" y1="65" x2="88" y2="65" xlink:href="#linear-gradient"/>
    <linearGradient id="linear-gradient-26" x1="32" y1="75" x2="38" y2="75" xlink:href="#linear-gradient"/>
    <linearGradient id="linear-gradient-27" x1="42" y1="75" x2="48" y2="75" xlink:href="#linear-gradient"/>
    <linearGradient id="linear-gradient-28" x1="52" y1="75" x2="58" y2="75" xlink:href="#linear-gradient"/>
    <linearGradient id="linear-gradient-29" x1="62" y1="75" x2="68" y2="75" xlink:href="#linear-gradient"/>
    <linearGradient id="linear-gradient-30" x1="72" y1="75" x2="78" y2="75" xlink:href="#linear-gradient"/>
    <linearGradient id="linear-gradient-31" x1="82" y1="75" x2="88" y2="75" xlink:href="#linear-gradient"/>
    <linearGradient id="linear-gradient-32" x1="32" y1="85" x2="38" y2="85" xlink:href="#linear-gradient"/>
    <linearGradient id="linear-gradient-33" x1="42" y1="85" x2="48" y2="85" xlink:href="#linear-gradient"/>
    <linearGradient id="linear-gradient-34" x1="52" y1="85" x2="58" y2="85" xlink:href="#linear-gradient"/>
    <linearGradient id="linear-gradient-35" x1="62" y1="85" x2="68" y2="85" xlink:href="#linear-gradient"/>
    <linearGradient id="linear-gradient-36" x1="72" y1="85" x2="78" y2="85" xlink:href="#linear-gradient"/>
    <linearGradient id="linear-gradient-37" x1="82" y1="85" x2="88" y2="85" xlink:href="#linear-gradient"/>
  </defs>
  <title>novoolov_res</title>
  <g id="Layer_1" data-name="Layer 1">
    <g>
      <path d="M112,120H24A24,24,0,0,1,0,96V8A8,8,0,0,1,8,0H96a24,24,0,0,1,24,24v88A8,8,0,0,1,112,120Z" style="fill: #fff"/>
      <path d="M96,2a22,22,0,0,1,22,22v88a6,6,0,0,1-6,6H24A22,22,0,0,1,2,96V8A6,6,0,0,1,8,2H96m0-2H8A8,8,0,0,0,0,8V96a24,24,0,0,0,24,24h88a8,8,0,0,0,8-8V24A24,24,0,0,0,96,0Z" style="fill: url(#linear-gradient)"/>
    </g>
    <g>
      <rect x="32" y="32" width="6" height="6" rx="3" style="fill: url(#linear-gradient-2)"/>
      <rect x="42" y="32" width="6" height="6" rx="3" style="fill: url(#linear-gradient-3)"/>
      <rect x="52" y="32" width="6" height="6" rx="3" style="fill: url(#linear-gradient-4)"/>
      <rect x="62" y="32" width="6" height="6" rx="3" style="fill: url(#linear-gradient-5)"/>
      <rect x="72" y="32" width="6" height="6" rx="3" style="fill: url(#linear-gradient-6)"/>
      <rect x="82" y="32" width="6" height="6" rx="3" style="fill: url(#linear-gradient-7)"/>
      <rect x="32" y="42" width="6" height="6" rx="3" style="fill: url(#linear-gradient-8)"/>
      <rect x="42" y="42" width="6" height="6" rx="3" style="fill: url(#linear-gradient-9)"/>
      <rect x="52" y="42" width="6" height="6" rx="3" style="fill: url(#linear-gradient-10)"/>
      <rect x="62" y="42" width="6" height="6" rx="3" style="fill: url(#linear-gradient-11)"/>
      <rect x="72" y="42" width="6" height="6" rx="3" style="fill: url(#linear-gradient-12)"/>
      <rect x="82" y="42" width="6" height="6" rx="3" style="fill: url(#linear-gradient-13)"/>
      <rect x="32" y="52" width="6" height="6" rx="3" style="fill: url(#linear-gradient-14)"/>
      <rect x="42" y="52" width="6" height="6" rx="3" style="fill: url(#linear-gradient-15)"/>
      <rect x="52" y="52" width="6" height="6" rx="3" style="fill: url(#linear-gradient-16)"/>
      <rect x="62" y="52" width="6" height="6" rx="3" style="fill: url(#linear-gradient-17)"/>
      <rect x="72" y="52" width="6" height="6" rx="3" style="fill: url(#linear-gradient-18)"/>
      <rect x="82" y="52" width="6" height="6" rx="3" style="fill: url(#linear-gradient-19)"/>
      <rect x="32" y="62" width="6" height="6" rx="3" style="fill: url(#linear-gradient-20)"/>
      <rect x="42" y="62" width="6" height="6" rx="3" style="fill: url(#linear-gradient-21)"/>
      <rect x="52" y="62" width="6" height="6" rx="3" style="fill: url(#linear-gradient-22)"/>
      <rect x="62" y="62" width="6" height="6" rx="3" style="fill: url(#linear-gradient-23)"/>
      <rect x="72" y="62" width="6" height="6" rx="3" style="fill: url(#linear-gradient-24)"/>
      <rect x="82" y="62" width="6" height="6" rx="3" style="fill: url(#linear-gradient-25)"/>
      <rect x="32" y="72" width="6" height="6" rx="3" style="fill: url(#linear-gradient-26)"/>
      <rect x="42" y="72" width="6" height="6" rx="3" style="fill: url(#linear-gradient-27)"/>
      <rect x="52" y="72" width="6" height="6" rx="3" style="fill: url(#linear-gradient-28)"/>
      <rect x="62" y="72" width="6" height="6" rx="3" style="fill: url(#linear-gradient-29)"/>
      <rect x="72" y="72" width="6" height="6" rx="3" style="fill: url(#linear-gradient-30)"/>
      <rect x="82" y="72" width="6" height="6" rx="3" style="fill: url(#linear-gradient-31)"/>
      <rect x="32" y="82" width="6" height="6" rx="3" style="fill: url(#linear-gradient-32)"/>
      <rect x="42" y="82" width="6" height="6" rx="3" style="fill: url(#linear-gradient-33)"/>
      <rect x="52" y="82" width="6" height="6" rx="3" style="fill: url(#linear-gradient-34)"/>
      <rect x="62" y="82" width="6" height="6" rx="3" style="fill: url(#linear-gradient-35)"/>
      <rect x="72" y="82" width="6" height="6" rx="3" style="fill: url(#linear-gradient-36)"/>
      <rect x="82" y="82" width="6" height="6" rx="3" style="fill: url(#linear-gradient-37)"/>
    </g>
  </g>
</svg>
