<svg xmlns="http://www.w3.org/2000/svg" xmlns:xlink="http://www.w3.org/1999/xlink" width="160" height="160">
  <defs>
    <path id="a" d="M1301.398 7371.607c29.11 29.11 75.63 29.796 111.318-5.892 35.687-35.687 35.002-82.209 5.892-111.32-29.11-29.11-75.637-29.801-111.325 5.886-35.687 35.688-35.002 82.21-5.885 111.326z"/>
    <path id="c" d="M1351.17 7342.528a1.626 1.626 0 0 1-2.286 0 62.236 62.236 0 0 1-16.663-30.517 1.621 1.621 0 1 1 3.17-.68 59.923 59.923 0 0 0 15.758 28.906c.636.627.646 1.652.021 2.29zm45.555-57.716a2.159 2.159 0 0 0-1.596-1.502 98.508 98.508 0 0 1-31.276-12.968 2.153 2.153 0 0 0-2.33 0 98.508 98.508 0 0 1-31.275 12.968 2.159 2.159 0 0 0-1.64 1.502c-7.84 27.566 1.64 60.85 33.271 73.039a2.153 2.153 0 0 0 1.575 0c31.632-12.179 41.111-45.462 33.27-73.04z"/>
    <linearGradient id="b" x1="1326" x2="1399.33" y1="7313.99" y2="7313.99" gradientUnits="userSpaceOnUse">
      <stop offset="0" stop-color="#373e99"/>
      <stop offset="1" stop-color="#662e91"/>
    </linearGradient>
  </defs>
  <use fill="#efeff4" xlink:href="#a" transform="translate(-1280 -7233)"/>
  <use fill="url(#b)" xlink:href="#c" transform="translate(-1280 -7233)"/>
</svg>
