<svg xmlns="http://www.w3.org/2000/svg" xmlns:xlink="http://www.w3.org/1999/xlink" width="9" height="13" viewBox="0 0 9 13"><defs><path id="ybk4a" d="M1637.432 4654.622a.33.33 0 0 1 .368.279.529.529 0 0 1 0 .081c-.086.93.479 2.158 1.143 2.626.153.095.199.296.103.448a.328.328 0 0 1-.451.103l-.023-.017c-.93-.658-1.54-2.01-1.425-3.22.01-.155.13-.28.285-.3zm2.954-7.622c-2.279 2.516-4.386 5.496-4.386 8.165 0 2.669 1.965 4.835 4.386 4.835 2.422 0 4.387-2.164 4.387-4.835s-2.107-5.649-4.387-8.165z"/><linearGradient id="ybk4b" x1="1636" x2="1644.77" y1="4653.5" y2="4653.5" gradientUnits="userSpaceOnUse"><stop offset="0" stop-color="#373e99"/><stop offset="1" stop-color="#662e91"/></linearGradient></defs><g><g transform="translate(-1636 -4647)"><use fill="url(#ybk4b)" xlink:href="#ybk4a"/></g></g></svg>