<svg xmlns="http://www.w3.org/2000/svg" xmlns:xlink="http://www.w3.org/1999/xlink" width="160" height="160">
  <defs>
    <path id="a" d="M1301.398 6848.607c29.11 29.11 75.63 29.796 111.318-5.892 35.687-35.687 35.002-82.209 5.892-111.32-29.11-29.11-75.637-29.801-111.325 5.886-35.687 35.688-35.002 82.21-5.885 111.326z"/>
    <path id="c" d="M1337.002 6798.629a2.534 2.534 0 0 1 2.824 2.145c.016.21.016.42 0 .63-.662 7.144 3.664 16.596 8.748 20.193a2.503 2.503 0 0 1 .79 3.451 2.506 2.506 0 0 1-3.453.79l-.178-.128c-7.118-5.065-11.798-15.468-10.91-24.775a2.5 2.5 0 0 1 2.179-2.306zm22.74-58.629c-17.532 19.355-33.742 42.274-33.742 62.806 0 20.533 15.113 37.194 33.742 37.194 18.629 0 33.742-16.645 33.742-37.194 0-20.548-16.21-43.451-33.742-62.806z"/>
    <linearGradient id="b" x1="1326" x2="1393.48" y1="6790" y2="6790" gradientUnits="userSpaceOnUse">
      <stop offset="0" stop-color="#373e99"/>
      <stop offset="1" stop-color="#662e91"/>
    </linearGradient>
  </defs>
  <use fill="#efeff4" xlink:href="#a" transform="translate(-1280 -6710)"/>
  <use fill="url(#b)" xlink:href="#c" transform="translate(-1280 -6710)"/>
</svg>
