<svg xmlns="http://www.w3.org/2000/svg" xmlns:xlink="http://www.w3.org/1999/xlink" width="292" height="171" viewBox="0 0 292 171">
  <defs>
    <radialGradient id="radial-gradient" cx="89.25" cy="76.45" r="5.63" gradientUnits="userSpaceOnUse">
      <stop offset="0.25" stop-color="#fff" stop-opacity="0.8"/>
      <stop offset="0.7" stop-color="#fff" stop-opacity="0"/>
    </radialGradient>
    <radialGradient id="radial-gradient-2" cx="66.37" cy="93.53" r="86.38" xlink:href="#radial-gradient"/>
    <radialGradient id="radial-gradient-3" cx="110.47" cy="40.51" fx="71.63631232022834" fy="89.26828705128631" r="110.67" gradientUnits="userSpaceOnUse">
      <stop offset="0.22" stop-color="#fff" stop-opacity="0.8"/>
      <stop offset="0.59" stop-color="#fff" stop-opacity="0"/>
    </radialGradient>
    <radialGradient id="radial-gradient-4" cx="89.23" cy="76.43" r="5.98" gradientUnits="userSpaceOnUse">
      <stop offset="0.34" stop-color="#fff"/>
      <stop offset="1" stop-color="#fff"/>
    </radialGradient>
    <radialGradient id="radial-gradient-5" cx="83.73" cy="85.73" r="57.37" xlink:href="#radial-gradient-4"/>
  </defs>
  <title>Logo-white-footer</title>
  <g style="isolation: isolate">
    <g id="Layer_1" data-name="Layer 1">
      <g>
        <g style="mix-blend-mode: hard-light">
          <path d="M78,155.5l.31-.79a3.87,3.87,0,0,0,1.64.34c.76,0,1.48-.26,1.48-1,0-1.51-3.24-1.14-3.24-3.36,0-1.15,1-1.69,2.1-1.69a3.89,3.89,0,0,1,1.75.36l-.28.74a4.12,4.12,0,0,0-1.45-.27c-.7,0-1.15.28-1.15.83,0,1.33,3.28,1.19,3.28,3.33,0,1.34-1.15,1.92-2.47,1.92A4,4,0,0,1,78,155.5Z" fill="#fff"/>
          <path d="M83.64,150.62h1V151A2.5,2.5,0,0,1,86,150.5c1.36,0,2.15.85,2.15,2.54,0,2.16-1.25,2.87-2.6,2.87a7,7,0,0,1-.93-.07v2.06h-1Zm3.5,2.57c0-1.05-.29-1.85-1.39-1.85a2.73,2.73,0,0,0-1.13.39V155a4.87,4.87,0,0,0,1,.1C86.62,155.12,87.14,154.29,87.14,153.19Z" fill="#fff"/>
          <path d="M89.14,153.3c0-2.1,1-2.81,2.41-2.81s2,.93,2,2.61v.35h-3.4c0,1.42.78,1.65,1.78,1.65a7.87,7.87,0,0,0,1.33-.21l.16.79a6,6,0,0,1-1.72.24C90.13,155.92,89.14,155.31,89.14,153.3Zm3.36-.54c0-.92-.33-1.55-1.06-1.55s-1.21.53-1.29,1.55Z" fill="#fff"/>
          <path d="M94.47,153.2A2.44,2.44,0,0,1,97,150.49a3.14,3.14,0,0,1,1.48.31l-.29.76a2.73,2.73,0,0,0-1.19-.24c-.88,0-1.53.6-1.53,1.87s.39,1.89,1.81,1.89a5.83,5.83,0,0,0,1-.14l.15.78a4.63,4.63,0,0,1-1.25.18C95.27,155.9,94.47,155.11,94.47,153.2Z" fill="#fff"/>
          <path d="M99.3,149l.74-.75.76.75-.76.76Zm.26,1.61h1v5.19h-1Z" fill="#fff"/>
          <path d="M101.65,154.39c0-1.28,1.16-1.55,2-1.56l1.14,0v-.58c0-.72-.38-.88-1.21-.88a5.66,5.66,0,0,0-1.36.24l-.2-.75a4.78,4.78,0,0,1,1.78-.34c1.27,0,2,.4,2,1.46v2.72c0,.32.23.39.48.41l0,.77H106c-.48,0-1-.17-1.11-.63a2.7,2.7,0,0,1-1.7.65A1.39,1.39,0,0,1,101.65,154.39Zm3.19.25v-1.2l-1.11.05c-.71,0-1.11.34-1.11.82s.34.79.83.79A3.61,3.61,0,0,0,104.84,154.64Z" fill="#fff"/>
          <path d="M107.51,148.65h1v7.16h-1Z" fill="#fff"/>
          <path d="M112.19,149.09h3.92v.82H113.2V152h2.7v.8h-2.7V155h3.13v.83h-4.14Z" fill="#fff"/>
          <path d="M117.14,153.2a2.45,2.45,0,0,1,2.54-2.71,3.11,3.11,0,0,1,1.48.31l-.29.76a2.73,2.73,0,0,0-1.19-.24c-.88,0-1.53.6-1.53,1.87s.39,1.89,1.81,1.89a5.83,5.83,0,0,0,1-.14l.15.78a4.56,4.56,0,0,1-1.25.18C118,155.9,117.14,155.11,117.14,153.2Z" fill="#fff"/>
          <path d="M121.81,153.27c0-1.77,1-2.78,2.47-2.78,1.63,0,2.4,1,2.4,2.73a2.39,2.39,0,0,1-2.47,2.7C122.7,155.92,121.81,154.94,121.81,153.27Zm3.87-.05c0-.93-.28-1.93-1.43-1.93s-1.44,1-1.44,1.93.35,1.9,1.46,1.9S125.68,154.2,125.68,153.22Z" fill="#fff"/>
          <path d="M127.94,150.62h1v.57a3.16,3.16,0,0,1,1.77-.7c1.55,0,1.64,1,1.64,2v3.32h-1v-3.17c0-.85-.13-1.29-1-1.29a3.1,3.1,0,0,0-1.47.55v3.91h-1Z" fill="#fff"/>
          <path d="M133.56,153.27c0-1.77,1-2.78,2.47-2.78,1.62,0,2.4,1,2.4,2.73a2.39,2.39,0,0,1-2.47,2.7C134.45,155.92,133.56,154.94,133.56,153.27Zm3.86-.05c0-.93-.27-1.93-1.42-1.93s-1.44,1-1.44,1.93.35,1.9,1.46,1.9S137.42,154.2,137.42,153.22Z" fill="#fff"/>
          <path d="M139.68,150.62h1v.59a2.85,2.85,0,0,1,1.67-.71,1.41,1.41,0,0,1,1.43.77,3,3,0,0,1,1.83-.77c1.56,0,1.62,1.11,1.62,2v3.32h-1v-3.17c0-.76-.13-1.28-.93-1.28a2.69,2.69,0,0,0-1.41.54,2.78,2.78,0,0,1,.05.58v3.33h-1v-3.17c0-.78-.11-1.28-.92-1.28a2.82,2.82,0,0,0-1.37.55v3.9h-1Z" fill="#fff"/>
          <path d="M148.49,149l.73-.75.76.75-.76.76Zm.25,1.61h1v5.19h-1Z" fill="#fff"/>
          <path d="M151,153.2a2.44,2.44,0,0,1,2.54-2.71,3.06,3.06,0,0,1,1.47.31l-.28.76a2.73,2.73,0,0,0-1.19-.24c-.88,0-1.53.6-1.53,1.87s.39,1.89,1.8,1.89a5.83,5.83,0,0,0,1-.14l.15.78a4.63,4.63,0,0,1-1.25.18C151.77,155.9,151,155.11,151,153.2Z" fill="#fff"/>
          <path d="M157.49,155l3.39-5h-3.15v-.87h4.35v.73l-3.43,5.12h3.63v.87h-4.79Z" fill="#fff"/>
          <path d="M163,153.27c0-1.77,1-2.78,2.47-2.78,1.63,0,2.4,1,2.4,2.73a2.39,2.39,0,0,1-2.47,2.7C163.89,155.92,163,154.94,163,153.27Zm3.87-.05c0-.93-.28-1.93-1.43-1.93s-1.44,1-1.44,1.93.35,1.9,1.46,1.9S166.87,154.2,166.87,153.22Z" fill="#fff"/>
          <path d="M169.13,150.62h1v.57a3.13,3.13,0,0,1,1.77-.7c1.55,0,1.64,1,1.64,2v3.32h-1v-3.17c0-.85-.13-1.29-1-1.29a3.1,3.1,0,0,0-1.47.55v3.91h-1Z" fill="#fff"/>
          <path d="M174.76,153.3c0-2.1,1-2.81,2.41-2.81s2,.93,2,2.61v.35h-3.39c0,1.42.77,1.65,1.77,1.65a7.87,7.87,0,0,0,1.33-.21l.17.79a6.17,6.17,0,0,1-1.72.24C175.76,155.92,174.76,155.31,174.76,153.3Zm3.36-.54c0-.92-.33-1.55-1.06-1.55s-1.21.53-1.29,1.55Z" fill="#fff"/>
        </g>
        <g style="mix-blend-mode: hard-light">
          <path d="M77.07,140.6l1-2.66a11.69,11.69,0,0,0,4.7.89c2.18,0,3.73-.68,3.73-2.32,0-3.64-8.92-2.72-8.92-9,0-3.37,3.06-4.9,6.21-4.9a11.48,11.48,0,0,1,5.3,1.13l-1,2.56a12.16,12.16,0,0,0-4.17-.77c-1.92,0-2.83.74-2.83,1.93,0,3.14,9,2.93,9,8.86,0,3.91-3.52,5.49-7.27,5.49A11.24,11.24,0,0,1,77.07,140.6Z" fill="#fff"/>
          <path d="M92.34,137.54c0-3.61,3.25-4.35,5.9-4.38l2.83,0v-1.26c0-1.66-.94-2.06-3-2.06a17.74,17.74,0,0,0-4,.63l-.71-2.61a15.21,15.21,0,0,1,5.32-1c4,0,5.8,1.19,5.8,4.28v7c0,.69.58.85,1.31.9l-.15,2.69h-.76c-1.53,0-3.18-.37-3.49-1.63a7.35,7.35,0,0,1-4.46,1.74C94,141.79,92.34,140.31,92.34,137.54Zm8.73.58v-2.85l-2.65.11c-1.65,0-2.7.71-2.7,1.9s.89,1.74,2,1.74A11.31,11.31,0,0,0,101.07,138.12Z" fill="#fff"/>
          <path d="M108,122.66l2.46-2.48,2.49,2.48-2.49,2.51Zm.76,4.49h3.49v14.4h-3.49Z" fill="#fff"/>
          <path d="M116,127.15h3.49v1.53a8.51,8.51,0,0,1,4.8-1.9c4.38,0,4.67,2.66,4.67,5.64v9.13h-3.46v-8.73c0-2.19-.42-3-2.34-3A8,8,0,0,0,119.5,131v10.58H116Z" fill="#fff"/>
          <path d="M133.29,137.25v-7.41h-2.1v-2.69h2.1v-3h3.46v3h4.46v2.69h-4.46v7.38c0,1.45.48,1.64,2,1.64a21.7,21.7,0,0,0,2.79-.32l.39,2.8a11.71,11.71,0,0,1-3.12.5C136.1,141.84,133.29,141.89,133.29,137.25Z" fill="#fff"/>
          <path d="M151,122.9h6.77c4,0,6.72,2.3,6.72,6.33,0,3.54-2.73,6.49-8.08,6.49h-1.26V132.9h1.41c2.84,0,4.23-1.37,4.23-3.56s-1-3.59-3.6-3.59H154.6v15.8H151Z" fill="#fff"/>
          <path d="M166.14,134.58c0-5.88,3-7.78,7-7.78s5.82,2.75,5.82,7.26v1.27h-9.34c0,3.16,2,3.69,4.52,3.69a25.72,25.72,0,0,0,3.88-.58l.55,2.71a18.17,18.17,0,0,1-5.06.72C169,141.87,166.14,140.23,166.14,134.58Zm9.24-1.6c0-2.17-.84-3.67-2.57-3.67s-2.94,1.29-3.1,3.67Z" fill="#fff"/>
          <path d="M182.65,137.25v-7.41h-2.1v-2.69h2.1v-3h3.46v3h4.46v2.69h-4.46v7.38c0,1.45.47,1.64,2,1.64a21.48,21.48,0,0,0,2.78-.32l.39,2.8a11.64,11.64,0,0,1-3.12.5C185.46,141.84,182.65,141.89,182.65,137.25Z" fill="#fff"/>
          <path d="M192.74,134.58c0-5.88,3-7.78,7-7.78s5.83,2.75,5.83,7.26v1.27h-9.34c0,3.16,2,3.69,4.51,3.69a25.54,25.54,0,0,0,3.88-.58l.56,2.71a18.25,18.25,0,0,1-5.07.72C195.6,141.87,192.74,140.23,192.74,134.58ZM202,133c0-2.17-.84-3.67-2.58-3.67s-2.93,1.29-3.09,3.67Z" fill="#fff"/>
          <path d="M208.67,127.15h3.49v1.92a5,5,0,0,1,3.86-2.21,5.78,5.78,0,0,1,1.86.23l-.5,2.91a7.47,7.47,0,0,0-1.83-.16,4.61,4.61,0,0,0-3.39,1.63v10.08h-3.49Z" fill="#fff"/>
          <path d="M219.05,141.26l.42-2.72a29.09,29.09,0,0,0,4.07.48c2.23,0,2.89-.69,2.89-1.48,0-2.21-7.22-1.35-7.22-6.44,0-2.9,2.62-4.32,5.62-4.32a12.93,12.93,0,0,1,4.3.74l-.58,2.61a14.59,14.59,0,0,0-3.72-.53c-1.61,0-2.13.71-2.13,1.32,0,2.29,7.16,1.66,7.16,6.44,0,3.61-3.59,4.51-6,4.51A17.84,17.84,0,0,1,219.05,141.26Z" fill="#fff"/>
          <path d="M232.68,141V121.66h3.47v17.07a9.24,9.24,0,0,0,2.28.31c2.57,0,4-2.32,4-5.22s-.79-4.38-3.54-4.38a7.2,7.2,0,0,0-2.18.37l-.21-2.45a9.35,9.35,0,0,1,3-.58c4.07,0,6.48,2.06,6.48,6.86,0,6.14-3.67,8.17-7.61,8.17A16,16,0,0,1,232.68,141Z" fill="#fff"/>
          <path d="M248.74,136.19v-9h3.49v8.65c0,2.08.34,3,2.23,3a8.52,8.52,0,0,0,3.73-1.13v-10.5h3.49v14.4h-3.49V140a8.69,8.69,0,0,1-4.83,1.88C249.06,141.87,248.74,139.15,248.74,136.19Z" fill="#fff"/>
          <path d="M265.47,127.15H269v1.92a5,5,0,0,1,3.86-2.21,5.78,5.78,0,0,1,1.86.23l-.5,2.91a7.47,7.47,0,0,0-1.83-.16,4.59,4.59,0,0,0-3.39,1.63v10.08h-3.49Z" fill="#fff"/>
          <path d="M276.55,146.72l.58-2.85a24.72,24.72,0,0,0,4.35.58c2.21,0,3.7-.31,3.7-2.85v-.76a4.44,4.44,0,0,1-2.7.95c-3.28,0-7-.85-7-7.36,0-5,3.41-7.65,7.53-7.65a26.85,26.85,0,0,1,5.61.66V142c0,4-3.41,5.49-6.63,5.49A22.73,22.73,0,0,1,276.55,146.72Zm8.6-8.31V130a8.42,8.42,0,0,0-2.15-.29c-2.86,0-4,2-4,4.77,0,3.43,1.39,4.59,3.7,4.59A5.46,5.46,0,0,0,285.15,138.41Z" fill="#fff"/>
        </g>
        <g style="mix-blend-mode: hard-light">
          <path d="M79.61,162.34H77.38v-.83h5.47v.83H80.62v5.89h-1Z" fill="#fff"/>
          <path d="M82.67,165.72c0-2.1,1-2.81,2.41-2.81s2,.93,2,2.61v.35H83.66c0,1.42.78,1.64,1.78,1.64a7,7,0,0,0,1.33-.21l.16.79a5.62,5.62,0,0,1-1.72.25C83.66,168.34,82.67,167.73,82.67,165.72Zm3.35-.54c0-.93-.33-1.55-1-1.55s-1.21.53-1.29,1.55Z" fill="#fff"/>
          <path d="M88,165.61a2.44,2.44,0,0,1,2.54-2.7,3.06,3.06,0,0,1,1.47.31l-.28.76a2.71,2.71,0,0,0-1.19-.25c-.88,0-1.53.61-1.53,1.87s.39,1.89,1.8,1.89a5.69,5.69,0,0,0,1-.13l.15.78a4.48,4.48,0,0,1-1.24.18C88.8,168.32,88,167.52,88,165.61Z" fill="#fff"/>
          <path d="M93.09,161.06h1v2.55a3.08,3.08,0,0,1,1.76-.7c1.55,0,1.64,1,1.64,2v3.33h-1V165c0-.84-.14-1.27-1-1.27a3.46,3.46,0,0,0-1.47.54v3.92h-1Z" fill="#fff"/>
          <path d="M99,163h1v.57a3.06,3.06,0,0,1,1.76-.7c1.55,0,1.65,1,1.65,2v3.32h-1v-3.18c0-.84-.13-1.28-1-1.28a3,3,0,0,0-1.47.54v3.92H99Z" fill="#fff"/>
          <path d="M104.62,165.69c0-1.78,1-2.78,2.46-2.78,1.63,0,2.4,1,2.4,2.72a2.39,2.39,0,0,1-2.46,2.71C105.51,168.34,104.62,167.36,104.62,165.69Zm3.86-.06c0-.92-.27-1.93-1.43-1.93s-1.43,1-1.43,1.94.35,1.89,1.45,1.89S108.48,166.62,108.48,165.63Z" fill="#fff"/>
          <path d="M110.75,161.06h1v7.17h-1Z" fill="#fff"/>
          <path d="M113,165.69c0-1.78,1-2.78,2.47-2.78,1.62,0,2.4,1,2.4,2.72a2.39,2.39,0,0,1-2.47,2.71C113.88,168.34,113,167.36,113,165.69Zm3.87-.06c0-.92-.28-1.93-1.43-1.93s-1.44,1-1.44,1.94.35,1.89,1.46,1.89S116.86,166.62,116.86,165.63Z" fill="#fff"/>
          <path d="M119.24,170.15l.17-.83a9.52,9.52,0,0,0,1.46.2c.84,0,1.45-.14,1.45-1.2v-.41a1.63,1.63,0,0,1-1.09.39c-1.12,0-2.39-.31-2.39-2.65a2.49,2.49,0,0,1,2.58-2.74,9.31,9.31,0,0,1,1.87.21v5.35c0,1.34-1.05,1.9-2.24,1.9A8.13,8.13,0,0,1,119.24,170.15Zm3.07-3v-3.32a3.77,3.77,0,0,0-.9-.11c-1.15,0-1.59.85-1.59,1.94,0,1.35.53,1.84,1.48,1.84A1.91,1.91,0,0,0,122.31,167.16Z" fill="#fff"/>
          <path d="M126.39,168.23H126L124.28,163h1.07l1.05,3.52.26.91.29-.9,1.2-3.53h1l-2.53,7.28h-.94Z" fill="#fff"/>
        </g>
      </g>
      <g>
        <g>
          <g>
            <path d="M50.57,73.73H48.45v5.42H50c2.61,0,3.72-1.08,3.72-2.81S52.92,73.73,50.57,73.73Z" fill="#fff"/>
            <path d="M84.55,75c0,1.51,3.42,2.08,6,3.7a24.78,24.78,0,0,0-2.85-5.14c-.25,0-.48,0-.75,0C85.12,73.55,84.55,74.24,84.55,75Z" fill="url(#radial-gradient)"/>
          </g>
          <path d="M90.11,88l0,0c-.25.11-.51.21-.77.3h0a10.74,10.74,0,0,1-1.65.39l-.2,0-.65.07-.22,0q-.42,0-.84,0a12.06,12.06,0,0,1-6.12-1.29l1.24-3.15a12.88,12.88,0,0,0,4.83.83c2.2,0,3.2-.68,3.2-1.79,0-3-8.68-2.17-8.68-8.36a5,5,0,0,1,.09-.89l0-.18a4.5,4.5,0,0,1,.24-.76.54.54,0,0,0,0-.11,4.19,4.19,0,0,1,.36-.62l.06-.1a4,4,0,0,1,.51-.58l.09-.09A5.64,5.64,0,0,1,83,70.81l.08,0a7.61,7.61,0,0,1,1.73-.56c-6.93-7.16-18.29-12.39-31.73-14.7a96.33,96.33,0,0,0-26.7-.79C-6.14,58.16-29.57,76.41-26,95.48s32.87,31.75,65.36,28.29C55,122.12,68.56,117,78,110.06c8.9-6.63,14.16-14.88,14.06-23.48h0A5.93,5.93,0,0,1,90.11,88Zm-29.93.9c-3.56-.18-5.5-2-7.41-4.26l-2.06-2.4c-.31,0-.65,0-1,0H48.38v6.31H44V70.27h7.1c4.1,0,7,1.89,7,6a5.46,5.46,0,0,1-2.95,4.92l1.86,2a7.75,7.75,0,0,0,4.14,2.32Zm18.26-8.39c0,6.38-4.29,8.39-8.37,8.39S61.58,87,61.58,81.09V70.27H66V80.93c0,2.79,1.26,4.34,4,4.34s4.06-1.62,4.06-4.88V70.27h4.31Z" fill="url(#radial-gradient-2)"/>
          <g>
            <path d="M143.55,70.37a2.61,2.61,0,0,0-2.73,2.88,2.72,2.72,0,1,0,2.73-2.88Zm1.71,4.75a1.52,1.52,0,0,1-1.07-.58c-.1-.11-.6-.78-.66-.87a1.09,1.09,0,0,1-.26,0h-.35v1.37h-.69V71.25h1.31c.77,0,1.34.32,1.34,1.19a1.08,1.08,0,0,1-.68,1c.33.41.66,1,1.2,1.11Z" fill="#fff"/>
            <path d="M143.44,71.8h-.52v1.33h.39c.53,0,.85-.16.85-.66S143.94,71.8,143.44,71.8Z" fill="#fff"/>
            <path d="M184.88-44C159.13-60.71,112.56-40.87,80.73.35c-14,18.15-22.75,37.41-26,54.73a79,79,0,0,0-1.4,15.42c2.91.59,4.86,2.44,4.86,5.74a5.46,5.46,0,0,1-2.95,4.92l1.86,2a7.75,7.75,0,0,0,4.14,2.32l-1,3.36a8.3,8.3,0,0,1-4-1.18,34.46,34.46,0,0,0,13.57,17.58,35.26,35.26,0,0,0,9.84,4.36C106.28,117,145.93,97.32,174,61,205.74,19.72,210.63-27.24,184.88-44ZM78.51,80.47c0,6.38-4.29,8.39-8.37,8.39S61.65,87,61.65,81.09V70.27h4.44V80.93c0,2.79,1.26,4.34,4,4.34s4.06-1.62,4.06-4.88V70.27h4.31Zm7.28,8.34a12.06,12.06,0,0,1-6.12-1.29l1.24-3.15a12.85,12.85,0,0,0,4.83.83c2.2,0,3.2-.68,3.2-1.79,0-3-8.68-2.17-8.68-8.36,0-3.52,3.34-5,6.56-5a12.2,12.2,0,0,1,5.71,1.24l-1.26,3A13.61,13.61,0,0,0,87,73.55c-1.83,0-2.4.69-2.4,1.47,0,2.43,8.83,2.43,8.83,8.24C93.38,87.26,89.56,88.81,85.79,88.81Zm14.57,0a12,12,0,0,1-6.12-1.29l1.24-3.15a12.81,12.81,0,0,0,4.83.83c2.19,0,3.2-.68,3.2-1.79,0-3-8.68-2.17-8.68-8.36,0-3.52,3.33-5,6.56-5a12.23,12.23,0,0,1,5.71,1.24l-1.26,3a13.61,13.61,0,0,0-4.32-.75c-1.83,0-2.4.69-2.4,1.47,0,2.43,8.83,2.43,8.83,8.24C108,87.26,104.13,88.81,100.36,88.81Zm22.39-.28H110.17V70.27h12V73.7h-7.59v4.06h7V81h-7v4.13h8.19Zm16.19,0H124.6v-3L133,73.91h-7.72V70.27h13.11v2.79L129.9,84.88h9Zm4.52-11.79a3.17,3.17,0,0,1-3.31-3.48,3.25,3.25,0,0,1,3.48-3.45,3.14,3.14,0,0,1,3.29,3.46A3.23,3.23,0,0,1,143.46,76.74Z" fill="url(#radial-gradient-3)"/>
          </g>
        </g>
        <g>
          <path d="M90.52,78.7a24.23,24.23,0,0,0-2.86-5.12c-.23,0-.45,0-.71,0-1.83,0-2.4.69-2.4,1.47C84.55,76.53,87.94,77.1,90.52,78.7Z" fill="url(#radial-gradient-4)"/>
          <path d="M85.79,88.81a12.06,12.06,0,0,1-6.12-1.29l1.24-3.15a12.85,12.85,0,0,0,4.83.83c2.2,0,3.2-.68,3.2-1.79,0-3-8.68-2.17-8.68-8.36,0-2.78,2.1-4.31,4.57-4.83-6.69-6.9-17.45-12-30.21-14.49A78.16,78.16,0,0,0,53.35,70.5c2.9.6,4.84,2.44,4.84,5.74a5.46,5.46,0,0,1-2.95,4.92l1.86,2a7.75,7.75,0,0,0,4.14,2.32l-1,3.36a8.41,8.41,0,0,1-4-1.17,34.45,34.45,0,0,0,13.56,17.57,35.74,35.74,0,0,0,9,4.06c8.42-6.43,13.36-14.42,13.27-22.75C90.72,88.14,88.25,88.81,85.79,88.81Zm-7.28-8.34c0,6.38-4.29,8.39-8.37,8.39S61.65,87,61.65,81.09V70.27h4.44V80.93c0,2.79,1.26,4.34,4,4.34s4.06-1.62,4.06-4.88V70.27h4.31Z" fill="url(#radial-gradient-5)"/>
        </g>
      </g>
    </g>
  </g>
</svg>
