<svg xmlns="http://www.w3.org/2000/svg" xmlns:xlink="http://www.w3.org/1999/xlink" width="320" height="104.89" viewBox="0 0 320 104.89">
  <defs>
    <radialGradient id="radial-gradient" cx="87.14" cy="37.82" fx="55.99900289236534" fy="76.92071394207741" r="88.75" gradientUnits="userSpaceOnUse">
      <stop offset="0.22" stop-color="#662d91"/>
      <stop offset="0.59" stop-color="#662f90" stop-opacity="0"/>
    </radialGradient>
    <radialGradient id="radial-gradient-2" cx="51.84" cy="50.54" r="69.27" gradientTransform="matrix(1, 0, 0, -1, 0, 124)" gradientUnits="userSpaceOnUse">
      <stop offset="0.25" stop-color="#374ea2"/>
      <stop offset="0.7" stop-color="#374fa2" stop-opacity="0"/>
    </radialGradient>
    <radialGradient id="radial-gradient-3" cx="65.7" cy="55.06" r="46.01" gradientTransform="matrix(1, 0, 0, -1, 0, 124)" gradientUnits="userSpaceOnUse">
      <stop offset="0.34" stop-color="#32409a"/>
      <stop offset="1" stop-color="#643e98"/>
    </radialGradient>
  </defs>
  <title>Logo-color</title>
  <g style="isolation: isolate">
    <g id="Layer_1" data-name="Layer 1">
      <g>
        <path d="M146.82-29.93c-20.65-13.42-58,2.49-83.52,35.54-11.22,14.56-18.25,30-20.85,43.89-3.3,17.63.56,32.73,12.11,40.24a28.6,28.6,0,0,0,7.89,3.5c21.34,5.94,53.13-9.86,75.63-39C163.55,21.15,167.47-16.51,146.82-29.93Z" fill="url(#radial-gradient)"/>
        <path d="M72.17,71.85c-2-10.9-14.56-19.18-31-22a77.19,77.19,0,0,0-21.41-.64C-6.31,52-25.1,66.61-22.24,81.9s26.36,25.46,52.42,22.69c12.55-1.33,23.41-5.41,31-11C69.32,87.53,73.66,79.78,72.17,71.85Z" fill="url(#radial-gradient-2)"/>
        <path d="M72.17,71.85c-2-10.63-14-18.77-29.81-21.83-3.12,17.41.76,32.28,12.2,39.72A28.33,28.33,0,0,0,61.81,93C69.54,87.1,73.62,79.56,72.17,71.85Z" fill="url(#radial-gradient-3)"/>
      </g>
      <g style="mix-blend-mode: hard-light">
        <path d="M148.86,75.71l.24-.62a3.13,3.13,0,0,0,1.29.27c.6,0,1.16-.2,1.16-.77,0-1.17-2.54-.88-2.54-2.6,0-.89.78-1.31,1.64-1.31A3.07,3.07,0,0,1,152,71l-.22.57a3.21,3.21,0,0,0-1.13-.21c-.56,0-.91.22-.91.65,0,1,2.57.92,2.57,2.58,0,1-.9,1.49-1.94,1.49A3.05,3.05,0,0,1,148.86,75.71Z" fill="#58595b"/>
        <path d="M153.28,71.93h.78v.32a1.93,1.93,0,0,1,1.08-.42c1.07,0,1.68.67,1.68,2,0,1.68-1,2.23-2,2.23a5.74,5.74,0,0,1-.72-.06v1.6h-.78Zm2.76,2c0-.81-.23-1.43-1.1-1.43a2.13,2.13,0,0,0-.88.3v2.55a4.24,4.24,0,0,0,.75.07C155.62,75.41,156,74.77,156,73.92Z" fill="#58595b"/>
        <path d="M157.6,74c0-1.63.82-2.18,1.89-2.18s1.55.72,1.55,2v.27h-2.66c0,1.1.61,1.28,1.39,1.28a6.79,6.79,0,0,0,1-.16l.13.61a4.89,4.89,0,0,1-1.35.19C158.38,76,157.6,75.57,157.6,74Zm2.63-.42c0-.72-.26-1.2-.83-1.2s-1,.41-1,1.2Z" fill="#58595b"/>
        <path d="M161.78,73.92a1.9,1.9,0,0,1,2-2.09,2.35,2.35,0,0,1,1.15.24l-.22.59a2,2,0,0,0-.93-.19c-.69,0-1.2.47-1.2,1.45s.3,1.46,1.41,1.46a4.53,4.53,0,0,0,.8-.1l.12.6a3.67,3.67,0,0,1-1,.14C162.41,76,161.78,75.4,161.78,73.92Z" fill="#58595b"/>
        <path d="M165.57,70.68l.58-.58.6.58-.6.59Zm.2,1.25h.78v4h-.78Z" fill="#58595b"/>
        <path d="M167.42,74.85c0-1,.9-1.21,1.61-1.21l.89,0v-.45c0-.56-.3-.67-.95-.67a4.64,4.64,0,0,0-1.07.18l-.15-.58a3.66,3.66,0,0,1,1.39-.27c1,0,1.53.31,1.53,1.14v2.1c0,.25.18.31.37.32l0,.6h-.17c-.37,0-.8-.13-.86-.48a2.21,2.21,0,0,1-1.34.5A1.08,1.08,0,0,1,167.42,74.85Zm2.5.19v-.92l-.87,0c-.56,0-.88.27-.88.64s.27.61.66.61A2.87,2.87,0,0,0,169.92,75Z" fill="#58595b"/>
        <path d="M172,70.4h.78V76H172Z" fill="#58595b"/>
        <path d="M175.68,70.74h3.08v.64h-2.28V73h2.12v.61h-2.12v1.67h2.45V76h-3.25Z" fill="#58595b"/>
        <path d="M179.57,73.92a1.9,1.9,0,0,1,2-2.09,2.36,2.36,0,0,1,1.16.24l-.22.59a2.07,2.07,0,0,0-.94-.19c-.69,0-1.2.47-1.2,1.45s.31,1.46,1.42,1.46a4.8,4.8,0,0,0,.8-.1l.12.6a3.73,3.73,0,0,1-1,.14C180.2,76,179.57,75.4,179.57,73.92Z" fill="#58595b"/>
        <path d="M183.23,74a1.92,1.92,0,0,1,1.94-2.15c1.27,0,1.88.78,1.88,2.11a1.86,1.86,0,0,1-1.93,2.1A1.81,1.81,0,0,1,183.23,74Zm3,0c0-.72-.22-1.5-1.12-1.5S184,73.22,184,74s.27,1.46,1.14,1.46S186.27,74.71,186.27,73.94Z" fill="#58595b"/>
        <path d="M188,71.93h.77v.44a2.43,2.43,0,0,1,1.39-.54c1.21,0,1.29.79,1.29,1.55V76h-.77V73.49c0-.66-.1-1-.75-1a2.44,2.44,0,0,0-1.16.42v3H188Z" fill="#58595b"/>
        <path d="M192.45,74a1.91,1.91,0,0,1,1.93-2.15c1.28,0,1.89.78,1.89,2.11a1.87,1.87,0,0,1-1.94,2.1A1.81,1.81,0,0,1,192.45,74Zm3,0c0-.72-.21-1.5-1.12-1.5s-1.12.78-1.12,1.51.27,1.46,1.14,1.46S195.48,74.71,195.48,73.94Z" fill="#58595b"/>
        <path d="M197.25,71.93H198v.46a2.2,2.2,0,0,1,1.31-.56,1.11,1.11,0,0,1,1.12.6,2.36,2.36,0,0,1,1.44-.6c1.22,0,1.26.87,1.26,1.55V76h-.77V73.49c0-.59-.1-1-.73-1a2.13,2.13,0,0,0-1.11.42,2.22,2.22,0,0,1,0,.45V76h-.76V73.49c0-.6-.09-1-.73-1a2.17,2.17,0,0,0-1.07.43v3h-.78Z" fill="#58595b"/>
        <path d="M204.16,70.68l.58-.58.59.58-.59.59Zm.2,1.25h.78v4h-.78Z" fill="#58595b"/>
        <path d="M206.11,73.92a1.9,1.9,0,0,1,2-2.09,2.39,2.39,0,0,1,1.16.24l-.22.59a2.07,2.07,0,0,0-.94-.19c-.69,0-1.2.47-1.2,1.45s.3,1.46,1.42,1.46a4.8,4.8,0,0,0,.8-.1l.12.6a3.73,3.73,0,0,1-1,.14C206.74,76,206.11,75.4,206.11,73.92Z" fill="#58595b"/>
        <path d="M211.22,75.33l2.66-3.92h-2.47v-.67h3.41v.57l-2.69,4H215V76h-3.76Z" fill="#58595b"/>
        <path d="M215.55,74a1.91,1.91,0,0,1,1.93-2.15c1.28,0,1.89.78,1.89,2.11a1.87,1.87,0,0,1-1.94,2.1A1.81,1.81,0,0,1,215.55,74Zm3,0c0-.72-.21-1.5-1.12-1.5s-1.12.78-1.12,1.51.27,1.46,1.14,1.46S218.58,74.71,218.58,73.94Z" fill="#58595b"/>
        <path d="M220.35,71.93h.77v.44a2.46,2.46,0,0,1,1.39-.54c1.22,0,1.29.79,1.29,1.55V76H223V73.49c0-.66-.11-1-.76-1a2.44,2.44,0,0,0-1.16.42v3h-.77Z" fill="#58595b"/>
        <path d="M224.78,74c0-1.63.81-2.18,1.89-2.18s1.55.72,1.55,2v.27h-2.67c0,1.1.61,1.28,1.4,1.28a6.66,6.66,0,0,0,1-.16l.13.61a4.76,4.76,0,0,1-1.35.19C225.55,76,224.78,75.57,224.78,74Zm2.63-.42c0-.72-.26-1.2-.83-1.2s-1,.41-1,1.2Z" fill="#58595b"/>
      </g>
      <g style="mix-blend-mode: hard-light">
        <path d="M148.13,64.16,149,62.1a9.17,9.17,0,0,0,3.69.69c1.7,0,2.92-.53,2.92-1.8,0-2.82-7-2.1-7-7,0-2.61,2.41-3.8,4.88-3.8a9.11,9.11,0,0,1,4.16.88l-.81,2a9.91,9.91,0,0,0-3.27-.59c-1.5,0-2.22.57-2.22,1.49,0,2.44,7.08,2.27,7.08,6.87,0,3-2.76,4.25-5.7,4.25A9,9,0,0,1,148.13,64.16Z" fill="#652d90"/>
        <path d="M160.11,61.79c0-2.8,2.55-3.37,4.63-3.39l2.22,0v-1c0-1.29-.74-1.6-2.36-1.6a14.17,14.17,0,0,0-3.13.49l-.56-2a12,12,0,0,1,4.18-.8c3.11,0,4.55.92,4.55,3.31v5.44c0,.53.45.66,1,.7L170.54,65H170c-1.2,0-2.49-.29-2.74-1.27a5.71,5.71,0,0,1-3.5,1.35C161.43,65.08,160.11,63.94,160.11,61.79Zm6.85.45V60l-2.08.08c-1.29,0-2.12.56-2.12,1.48s.7,1.35,1.57,1.35A9.16,9.16,0,0,0,167,62.24Z" fill="#652d90"/>
        <path d="M172.38,50.26l1.93-1.92,2,1.92-2,1.94Zm.59,3.48h2.74V64.9H173Z" fill="#652d90"/>
        <path d="M178.68,53.74h2.74v1.18a6.74,6.74,0,0,1,3.77-1.47c3.43,0,3.66,2.07,3.66,4.38V64.9h-2.72V58.13c0-1.69-.33-2.31-1.83-2.31a6.28,6.28,0,0,0-2.88.88v8.2h-2.74Z" fill="#652d90"/>
        <path d="M192.24,61.57V55.82h-1.65V53.74h1.65V51.45H195v2.29h3.49v2.08H195v5.73c0,1.12.37,1.26,1.58,1.26a18,18,0,0,0,2.18-.24l.31,2.16a9,9,0,0,1-2.45.39C194.44,65.12,192.24,65.16,192.24,61.57Z" fill="#652d90"/>
        <path d="M206.13,50.44h5.31c3.13,0,5.27,1.78,5.27,4.91,0,2.74-2.14,5-6.34,5h-1V58.19h1.11c2.22,0,3.31-1.06,3.31-2.76S213,52.65,211,52.65h-2V64.9h-2.82Z" fill="#652d90"/>
        <path d="M218,59.5c0-4.56,2.33-6,5.5-6s4.57,2.13,4.57,5.62v1h-7.33c0,2.46,1.54,2.87,3.54,2.87a20.28,20.28,0,0,0,3.05-.45l.43,2.1a14.34,14.34,0,0,1-4,.55C220.26,65.14,218,63.88,218,59.5Zm7.25-1.24c0-1.68-.66-2.85-2-2.85s-2.3,1-2.43,2.85Z" fill="#652d90"/>
        <path d="M231,61.57V55.82h-1.64V53.74H231V51.45h2.72v2.29h3.5v2.08h-3.5v5.73c0,1.12.37,1.26,1.58,1.26a18,18,0,0,0,2.18-.24l.31,2.16a8.85,8.85,0,0,1-2.45.39C233.16,65.12,231,65.16,231,61.57Z" fill="#652d90"/>
        <path d="M238.88,59.5c0-4.56,2.33-6,5.49-6s4.57,2.13,4.57,5.62v1h-7.32c0,2.46,1.54,2.87,3.54,2.87a20,20,0,0,0,3-.45l.44,2.1a14.36,14.36,0,0,1-4,.55C241.12,65.14,238.88,63.88,238.88,59.5Zm7.24-1.24c0-1.68-.65-2.85-2-2.85s-2.31,1-2.43,2.85Z" fill="#652d90"/>
        <path d="M251.38,53.74h2.74v1.49a3.87,3.87,0,0,1,3-1.72,4.48,4.48,0,0,1,1.47.19l-.4,2.25a5.84,5.84,0,0,0-1.44-.13,3.62,3.62,0,0,0-2.65,1.27V64.9h-2.74Z" fill="#652d90"/>
        <path d="M259.52,64.67l.33-2.1a24.1,24.1,0,0,0,3.19.37c1.75,0,2.27-.54,2.27-1.15,0-1.72-5.66-1-5.66-5,0-2.25,2.06-3.35,4.4-3.35a10.56,10.56,0,0,1,3.38.57l-.46,2a11.47,11.47,0,0,0-2.92-.41c-1.25,0-1.67.55-1.67,1,0,1.78,5.62,1.29,5.62,5,0,2.8-2.82,3.49-4.69,3.49A14,14,0,0,1,259.52,64.67Z" fill="#652d90"/>
        <path d="M270.22,64.45v-15h2.71V62.71a7.35,7.35,0,0,0,1.79.25c2,0,3.11-1.8,3.11-4.05s-.61-3.39-2.78-3.39a5.68,5.68,0,0,0-1.7.28l-.17-1.9a7.26,7.26,0,0,1,2.37-.45c3.19,0,5.08,1.6,5.08,5.32,0,4.76-2.88,6.33-6,6.33A12.62,12.62,0,0,1,270.22,64.45Z" fill="#652d90"/>
        <path d="M282.82,60.75v-7h2.73v6.7c0,1.62.27,2.31,1.75,2.31a6.73,6.73,0,0,0,2.93-.88V53.74H293V64.9h-2.73V63.69a6.94,6.94,0,0,1-3.79,1.45C283.06,65.14,282.82,63,282.82,60.75Z" fill="#652d90"/>
        <path d="M295.94,53.74h2.74v1.49a3.87,3.87,0,0,1,3-1.72,4.37,4.37,0,0,1,1.46.19L302.77,56a5.84,5.84,0,0,0-1.44-.13,3.62,3.62,0,0,0-2.65,1.27V64.9h-2.74Z" fill="#652d90"/>
        <path d="M304.63,68.91l.45-2.21a20.24,20.24,0,0,0,3.42.45c1.73,0,2.9-.25,2.9-2.21v-.59a3.45,3.45,0,0,1-2.12.73c-2.57,0-5.47-.65-5.47-5.7a5.56,5.56,0,0,1,5.91-5.93,21.37,21.37,0,0,1,4.4.51V65.23c0,3.06-2.68,4.25-5.21,4.25A18.47,18.47,0,0,1,304.63,68.91Zm6.75-6.44V55.92a6.77,6.77,0,0,0-1.68-.22c-2.25,0-3.15,1.53-3.15,3.7,0,2.66,1.09,3.56,2.9,3.56A4.45,4.45,0,0,0,311.38,62.47Z" fill="#652d90"/>
      </g>
      <g style="mix-blend-mode: hard-light">
        <path d="M150.13,81h-1.75v-.64h4.29V81h-1.75v4.56h-.79Z" fill="#58595b"/>
        <path d="M152.52,83.63c0-1.63.82-2.18,1.89-2.18s1.55.72,1.55,2v.28H153.3c0,1.09.61,1.27,1.4,1.27a5.65,5.65,0,0,0,1-.16l.13.61a4.82,4.82,0,0,1-1.35.19C153.3,85.66,152.52,85.19,152.52,83.63Zm2.64-.42c0-.72-.26-1.2-.83-1.2s-1,.41-1,1.2Z" fill="#58595b"/>
        <path d="M156.7,83.55a1.91,1.91,0,0,1,2-2.1,2.47,2.47,0,0,1,1.15.24l-.22.59a2.16,2.16,0,0,0-.93-.19c-.69,0-1.2.47-1.2,1.45s.3,1.46,1.41,1.46a4.53,4.53,0,0,0,.8-.1l.12.61a3.67,3.67,0,0,1-1,.14C157.33,85.65,156.7,85,156.7,83.55Z" fill="#58595b"/>
        <path d="M160.7,80h.77v2a2.48,2.48,0,0,1,1.38-.54c1.22,0,1.29.79,1.29,1.54v2.58h-.76V83.1c0-.65-.1-1-.76-1a2.77,2.77,0,0,0-1.15.42v3h-.77Z" fill="#58595b"/>
        <path d="M165.33,81.55h.77V82a2.5,2.5,0,0,1,1.39-.54c1.21,0,1.29.79,1.29,1.55v2.57H168V83.11c0-.65-.11-1-.76-1a2.44,2.44,0,0,0-1.16.42v3h-.77Z" fill="#58595b"/>
        <path d="M169.74,83.61a1.91,1.91,0,0,1,1.94-2.16c1.27,0,1.88.78,1.88,2.11a1.86,1.86,0,0,1-1.93,2.1A1.81,1.81,0,0,1,169.74,83.61Zm3,0c0-.71-.21-1.49-1.11-1.49s-1.13.77-1.13,1.5S170.8,85,171.67,85,172.77,84.33,172.77,83.56Z" fill="#58595b"/>
        <path d="M174.56,80h.77v5.55h-.77Z" fill="#58595b"/>
        <path d="M176.31,83.61a1.92,1.92,0,0,1,1.94-2.16c1.27,0,1.88.78,1.88,2.11a1.86,1.86,0,0,1-1.93,2.1A1.81,1.81,0,0,1,176.31,83.61Zm3,0c0-.71-.22-1.49-1.12-1.49s-1.13.77-1.13,1.5.27,1.46,1.14,1.46S179.35,84.33,179.35,83.56Z" fill="#58595b"/>
        <path d="M181.21,87.06l.14-.64a6.67,6.67,0,0,0,1.15.15c.66,0,1.13-.11,1.13-.92v-.32a1.31,1.31,0,0,1-.85.3c-.88,0-1.88-.24-1.88-2a2,2,0,0,1,2-2.13,6.87,6.87,0,0,1,1.46.17v4.14c0,1-.82,1.48-1.75,1.48A6,6,0,0,1,181.21,87.06Zm2.41-2.31V82.17a2.92,2.92,0,0,0-.7-.08c-.91,0-1.25.65-1.25,1.5,0,1,.42,1.43,1.16,1.43A1.44,1.44,0,0,0,183.62,84.75Z" fill="#58595b"/>
        <path d="M186.82,85.57h-.32l-1.33-4H186l.82,2.73.21.7.23-.69.94-2.74H189l-2,5.64h-.75Z" fill="#58595b"/>
      </g>
      <g>
        <path d="M111,64.08a2.61,2.61,0,0,1,2.79-2.77,2.52,2.52,0,0,1,2.64,2.78,2.59,2.59,0,0,1-2.78,2.78A2.54,2.54,0,0,1,111,64.08Zm4.9,0a2.12,2.12,0,0,0-2.18-2.32,2.09,2.09,0,0,0-2.19,2.3,2.13,2.13,0,0,0,2.15,2.35A2.11,2.11,0,0,0,115.85,64.09Zm-1.66,1c-.09-.09-.49-.63-.53-.7l-.21,0h-.28v1.1h-.56V62.47h1.06c.62,0,1.07.25,1.07,1a.88.88,0,0,1-.55.85c.27.33.53.76,1,.89l-.1.41A1.21,1.21,0,0,1,114.19,65.11ZM113.48,64c.43,0,.68-.13.68-.53s-.17-.54-.58-.54h-.41V64Z" fill="#fff"/>
        <g>
          <path d="M40.93,73.18l-1.65-1.93c-.25,0-.52,0-.79,0H37.41v5H33.87V61.68h5.7c3.29,0,5.65,1.52,5.65,4.79a4.41,4.41,0,0,1-2.36,4L44.35,72a6.3,6.3,0,0,0,3.31,1.86l-.78,2.69C44,76.45,42.47,75,40.93,73.18Zm-2.32-4.37c2.1,0,3-.87,3-2.26s-.6-2.09-2.48-2.09h-1.7v4.35Z" fill="#fff"/>
          <path d="M48,70.36V61.68h3.57v8.56c0,2.23,1,3.48,3.25,3.48s3.25-1.31,3.25-3.92V61.68h3.46v8.19c0,5.11-3.44,6.72-6.71,6.72S48,75.1,48,70.36Z" fill="#fff"/>
          <path d="M62.45,75.52l1-2.53a10.27,10.27,0,0,0,3.87.66c1.77,0,2.57-.53,2.57-1.43,0-2.38-7-1.74-7-6.71,0-2.81,2.68-4,5.26-4a9.78,9.78,0,0,1,4.58,1l-1,2.45a10.66,10.66,0,0,0-3.46-.61c-1.47,0-1.93.56-1.93,1.18,0,2,7.08,2,7.08,6.61,0,3.21-3.06,4.45-6.08,4.45A9.68,9.68,0,0,1,62.45,75.52Z" fill="#fff"/>
          <path d="M74.13,75.52l1-2.53a10.29,10.29,0,0,0,3.88.66c1.76,0,2.56-.53,2.56-1.43,0-2.38-7-1.74-7-6.71,0-2.81,2.67-4,5.26-4a9.74,9.74,0,0,1,4.57,1l-1,2.45A10.66,10.66,0,0,0,80,64.31c-1.47,0-1.93.56-1.93,1.18,0,2,7.09,2,7.09,6.61,0,3.21-3.07,4.45-6.09,4.45A9.7,9.7,0,0,1,74.13,75.52Z" fill="#fff"/>
          <path d="M86.91,61.68h9.61v2.76H90.43v3.25h5.63v2.57H90.43v3.31H97v2.75H86.91Z" fill="#fff"/>
          <path d="M98.48,74l6.73-9.36H99V61.68h10.52v2.24l-6.81,9.48H110v2.92H98.48Z" fill="#fff"/>
        </g>
      </g>
    </g>
  </g>
</svg>
