<svg xmlns="http://www.w3.org/2000/svg" width="320" height="104.89"><defs><radialGradient id="a" cx="88.93" cy="43.62" fx="57.789" fy="82.721" r="88.75" gradientUnits="userSpaceOnUse"><stop offset=".22" stop-color="#662d91"/><stop offset=".59" stop-color="#662f90" stop-opacity="0"/></radialGradient><radialGradient id="b" cx="51.84" cy="73.46" r="69.27" gradientUnits="userSpaceOnUse"><stop offset=".25" stop-color="#374ea2"/><stop offset=".7" stop-color="#374fa2" stop-opacity="0"/></radialGradient><radialGradient id="c" cx="65.7" cy="68.94" r="46.01" gradientUnits="userSpaceOnUse"><stop offset=".34" stop-color="#32409a"/><stop offset="1" stop-color="#643e98"/></radialGradient></defs><g style="isolation:isolate"><path d="M146.82-29.93c-20.65-13.42-58 2.49-83.52 35.54-11.22 14.56-18.25 30-20.85 43.89-3.3 17.63.56 32.73 12.11 40.24a28.28 28.28 0 0 0 7.89 3.5c21.34 5.94 53.13-9.86 75.63-39 25.47-33.09 29.39-70.75 8.74-84.17z" fill="url(#a)"/><path d="M72.17 71.85c-2-10.9-14.56-19.18-31-22a77.36 77.36 0 0 0-21.41-.64c-26.07 2.76-44.86 17.4-42 32.69s26.36 25.46 52.42 22.69c12.55-1.33 23.41-5.41 31-11 8.14-6.06 12.48-13.81 10.99-21.74z" fill="url(#b)"/><path d="M72.17 71.85c-2-10.63-14-18.77-29.81-21.83-3.12 17.41.76 32.28 12.2 39.72A28.5 28.5 0 0 0 61.81 93c7.73-5.9 11.81-13.44 10.36-21.15z" fill="url(#c)"/><g style="mix-blend-mode:hard-light" fill="#fff"><path d="M148 72.87a2.42 2.42 0 0 1 2.65-2.58 2.34 2.34 0 0 1 2.51 2.6 2.43 2.43 0 0 1-2.64 2.61 2.38 2.38 0 0 1-2.52-2.63zm4.38 0a1.81 1.81 0 1 0-3.61 0 1.81 1.81 0 1 0 3.61 0zM153.87 73.45a1.85 1.85 0 0 1 1.93-2 2.36 2.36 0 0 1 1.11.23l-.21.58a2.08 2.08 0 0 0-.9-.19c-.67 0-1.16.46-1.16 1.41s.29 1.42 1.36 1.42a4.4 4.4 0 0 0 .77-.1l.12.59a3.54 3.54 0 0 1-.95.13c-1.46-.04-2.07-.64-2.07-2.07zM157.42 73.5a1.85 1.85 0 0 1 1.87-2.09c1.23 0 1.81.76 1.81 2a1.8 1.8 0 0 1-1.86 2 1.75 1.75 0 0 1-1.82-1.91zm2.92 0c0-.69-.2-1.45-1.07-1.45s-1.09.75-1.09 1.46.26 1.42 1.1 1.42 1.06-.73 1.06-1.47zM161.89 73.23a4.2 4.2 0 0 1 .6-2.48 6.54 6.54 0 0 1 2.66-.85l.13.67a7 7 0 0 0-2.29.59 1.84 1.84 0 0 0-.34 1 2.72 2.72 0 0 1 1.32-.35c.94 0 1.54.46 1.54 1.65a1.79 1.79 0 0 1-1.89 2c-1.07.02-1.73-.65-1.73-2.23zm2.87.26c0-.62-.27-1.1-1-1.1a2.62 2.62 0 0 0-1.17.33v.45c0 1.16.35 1.71 1.06 1.71s1.11-.72 1.11-1.39zM166.2 74.35c0-1 .87-1.18 1.55-1.18h.86v-.43c0-.55-.29-.66-.92-.66a4.36 4.36 0 0 0-1 .18l-.14-.57a3.77 3.77 0 0 1 1.34-.25c1 0 1.48.3 1.48 1.1v2c0 .25.17.29.36.31v.58h-.16c-.36 0-.77-.13-.83-.48a2.09 2.09 0 0 1-1.29.49 1 1 0 0 1-1.25-1.09zm2.41.18v-.9h-.84c-.53 0-.84.26-.84.61s.26.6.63.6a2.71 2.71 0 0 0 1.05-.31zM170.44 74.88a1.12 1.12 0 0 0 .82-.55l.26-.42a1.11 1.11 0 0 1-.73-1.08 1.33 1.33 0 0 1 1.48-1.32h1.45v3.9H173v-1.32h-.71l-.46.68a1.43 1.43 0 0 1-1.26.71zm2.56-1.35V72.1h-.64a.69.69 0 0 0-.78.73c0 .49.41.7.88.7zM176 75.26l.18-.59a4.15 4.15 0 0 0 1.18.16 1.79 1.79 0 0 0 2-1.66h-2.57v-.6h2.58a1.68 1.68 0 0 0-1.91-1.57 4 4 0 0 0-1.27.19l-.21-.59a3.43 3.43 0 0 1 1.5-.26 2.36 2.36 0 0 1 2.64 2.57 2.44 2.44 0 0 1-2.67 2.61 3.92 3.92 0 0 1-1.45-.26zM181.09 71.51h.75v3.9h-.75zm1.91 3.23l-1.09-1.33 1.53-1.9h.85l-1.57 1.84.75.86a2.13 2.13 0 0 0 1 .71l-.12.56a1.68 1.68 0 0 1-1.35-.74zM184.86 73.5a1.85 1.85 0 0 1 1.86-2.09c1.23 0 1.82.76 1.82 2a1.8 1.8 0 0 1-1.87 2 1.75 1.75 0 0 1-1.81-1.91zm2.92 0c0-.69-.21-1.45-1.08-1.45s-1.09.75-1.09 1.46.27 1.42 1.11 1.42 1.06-.73 1.06-1.47zM189.5 71.51h.75v1.65h1.84v-1.65h.75v3.9h-.75v-1.66h-1.84v1.66h-.75zM193.8 73.5a1.86 1.86 0 0 1 1.87-2.09c1.23 0 1.82.76 1.82 2a1.81 1.81 0 0 1-1.87 2 1.75 1.75 0 0 1-1.82-1.91zm2.93 0c0-.69-.21-1.45-1.08-1.45s-1.09.75-1.09 1.46.27 1.42 1.1 1.42 1.07-.73 1.07-1.47zM198.45 71.51h1l1.13 3.33 1.26-3.33h1v3.9h-.71v-2.95l-1.09 3h-.9l-1-3v2.96h-.71zM204 71.51h.74v2.91l.33-.53 1.67-2.38h.74v3.9h-.74V72.5l-.33.55-1.67 2.36H204zM210.78 73.77a3.63 3.63 0 0 1-1.13.2c-1 0-1.26-.43-1.26-1.24v-1.22h.74v1.16c0 .45.14.7.75.7a2.55 2.55 0 0 0 .9-.19v-1.67h.75v3.9h-.75zM212.51 73.53c0-1.59.78-2.12 1.82-2.12s1.5.7 1.5 2v.27h-2.57c0 1.07.58 1.24 1.34 1.24a5.33 5.33 0 0 0 1-.16l.12.59a4.39 4.39 0 0 1-1.3.19c-1.16-.04-1.91-.54-1.91-2.01zm2.54-.41c0-.7-.25-1.17-.81-1.17s-.91.4-1 1.17zM216.55 73.45a1.85 1.85 0 0 1 1.93-2 2.33 2.33 0 0 1 1.11.23l-.21.58a2 2 0 0 0-.9-.19c-.67 0-1.16.46-1.16 1.41s.29 1.42 1.36 1.42a4.4 4.4 0 0 0 .78-.1l.11.59a3.52 3.52 0 0 1-.94.13c-1.47-.04-2.08-.64-2.08-2.07zM220.42 71.51h.74v3.9h-.74zm1.86 3.23l-1.09-1.33 1.52-1.9h.85L222 73.35l.75.86a2.06 2.06 0 0 0 1 .71l-.12.56a1.65 1.65 0 0 1-1.35-.74zM224.28 74.35c0-1 .87-1.18 1.55-1.18h.86v-.43c0-.55-.29-.66-.92-.66a4.36 4.36 0 0 0-1 .18l-.15-.57a3.77 3.77 0 0 1 1.34-.25c1 0 1.48.3 1.48 1.1v2c0 .25.18.29.36.31v.58h-.16c-.37 0-.77-.13-.84-.48a2 2 0 0 1-1.28.49 1 1 0 0 1-1.24-1.09zm2.41.18v-.9h-.84c-.54 0-.84.26-.84.61s.25.6.63.6a2.71 2.71 0 0 0 1.05-.31zM228.52 74.88a1.12 1.12 0 0 0 .82-.55l.26-.42a1.11 1.11 0 0 1-.73-1.08 1.33 1.33 0 0 1 1.48-1.32h1.45v3.9h-.75v-1.32h-.71l-.46.68a1.43 1.43 0 0 1-1.26.71zm2.53-1.35V72.1h-.64a.69.69 0 0 0-.78.73c0 .49.41.7.88.7zM234 75.12l.26-.6a2.92 2.92 0 0 0 1.26.31c.62 0 1.12-.23 1.12-.85s-.52-.82-1.19-.82h-.57v-.59h.57c.6 0 1-.31 1-.83s-.33-.78-.91-.78a3 3 0 0 0-1.06.23l-.25-.53a3 3 0 0 1 1.39-.33c1.05 0 1.62.55 1.62 1.26a1.35 1.35 0 0 1-.76 1.23 1.2 1.2 0 0 1 1 1.17c0 .68-.44 1.47-1.85 1.47a3.41 3.41 0 0 1-1.63-.34zM238.19 73.5a1.86 1.86 0 0 1 1.87-2.09c1.23 0 1.82.76 1.82 2a1.81 1.81 0 0 1-1.87 2 1.75 1.75 0 0 1-1.82-1.91zm2.93 0c0-.69-.21-1.45-1.08-1.45s-1.09.75-1.09 1.46.26 1.42 1.1 1.42 1.07-.73 1.07-1.47zM242.84 71.51h.74v1.65h1.85v-1.65h.74v3.9h-.74v-1.66h-1.85v1.66h-.74zM247.05 74.35c0-1 .87-1.18 1.55-1.18h.86v-.43c0-.55-.28-.66-.91-.66a4.27 4.27 0 0 0-1 .18l-.15-.57a3.77 3.77 0 0 1 1.34-.25c1 0 1.48.3 1.48 1.1v2c0 .25.17.29.36.31v.58h-.15c-.37 0-.78-.13-.84-.48a2 2 0 0 1-1.29.49 1 1 0 0 1-1.25-1.09zm2.41.18v-.9h-.83c-.54 0-.85.26-.85.61s.26.6.63.6a2.65 2.65 0 0 0 1.05-.31z"/></g><g style="mix-blend-mode:hard-light" fill="#fff"><path d="M147.39 57.75c0-4.7 2.6-7.28 7.5-7.28a10 10 0 0 1 4.25.77l-.71 2a10.43 10.43 0 0 0-3.5-.54c-2.68 0-4.76 1.45-4.76 4.83s2.18 5 5.16 5a11.08 11.08 0 0 0 3.28-.44l.59 2.09a11.82 11.82 0 0 1-4.23.63c-4.97.07-7.58-2.61-7.58-7.06zM160.53 61.67c0-2.72 2.46-3.28 4.47-3.3h2.14v-1c0-1.25-.72-1.55-2.28-1.55a13.17 13.17 0 0 0-3 .48l-.54-2a11.51 11.51 0 0 1 4-.77c3 0 4.39.89 4.39 3.21v5.28c0 .52.44.64 1 .68l-.12 2H170c-1.15 0-2.4-.28-2.64-1.23a5.54 5.54 0 0 1-3.36 1.39c-2.2 0-3.47-1.11-3.47-3.19zm6.61.43V60l-2 .08c-1.25 0-2 .53-2 1.43s.68 1.31 1.51 1.31a8.71 8.71 0 0 0 2.49-.72zM173 53.84h2.64v4.39h4.55v-4.39h2.64v10.84h-2.63v-4.42h-4.55v4.42H173zM185.77 53.84h2.64v4.91l3.69-4.91h3l-4.19 5.09L192.7 61a5.44 5.44 0 0 0 2.72 1.89l-.36 2a5 5 0 0 1-4.06-2.07l-2.56-3.2v5.06h-2.64zM199.91 55.87h-3.52v-2H206v2h-3.51v8.81h-2.62zM206.13 57.91h5.92v2.17h-5.92zM214.64 50.65h11.83v14h-2.7v-11.9h-6.43v11.93h-2.7zM229 59.44c0-4.42 2.24-5.85 5.3-5.85s4.4 2.06 4.4 5.45v1h-7.06c0 2.38 1.48 2.78 3.41 2.78a18.55 18.55 0 0 0 2.94-.44l.41 2a13.72 13.72 0 0 1-3.83.54c-3.43 0-5.57-1.23-5.57-5.48zm7-1.21c0-1.63-.63-2.76-1.94-2.76s-2.22 1-2.34 2.76zM243.41 55.87h-3.52v-2h9.65v2H246v8.81h-2.62zM250.7 59.44c0-4.42 2.24-5.85 5.3-5.85s4.4 2.06 4.4 5.45v1h-7.06c0 2.38 1.49 2.78 3.41 2.78a18.55 18.55 0 0 0 2.94-.44l.42 2a13.84 13.84 0 0 1-3.83.54c-3.42 0-5.58-1.23-5.58-5.48zm7-1.21c0-1.63-.64-2.76-1.95-2.76s-2.22 1-2.34 2.76zM262.77 53.84h2.63v.82a5.22 5.22 0 0 1 2.77-1.07c2.92 0 4.65 1.58 4.65 5.24 0 4.52-2.76 6-5.76 6-.65 0-1.21-.06-1.66-.1V69h-2.63zm7.37 5.2c0-2.06-.7-3.23-2.72-3.23a5.93 5.93 0 0 0-2 .58v6.29a12.6 12.6 0 0 0 1.74.16c1.93 0 2.98-1.63 2.98-3.84zM274.64 58.75c0-2.35.41-5.82 1.8-7 1.15-1 4.23-1.79 7.63-2.38l.41 2.36c-3 .48-5.62.89-6.31 1.47a3.72 3.72 0 0 0-.93 2.44 7.26 7.26 0 0 1 3.61-.89c2.68 0 4.29 1.33 4.29 4.52 0 3.89-2.37 5.62-5.52 5.62s-4.98-1.89-4.98-6.14zm7.84.63c0-1.51-.68-2.62-2.44-2.62a6.46 6.46 0 0 0-2.88.78v1.17c0 2.8.91 4.07 2.66 4.07 2.06 0 2.66-1.78 2.66-3.4zM290.54 64.68h-1l-3.64-10.84h2.84l2.06 6.93.5 1.83.57-1.81 2.37-6.95h2.68l-5.3 15.21h-2.54zM298.67 53.84h2.62v.82a5.22 5.22 0 0 1 2.78-1.07c2.92 0 4.64 1.58 4.64 5.24 0 4.52-2.76 6-5.75 6-.66 0-1.22-.06-1.67-.1V69h-2.62zM306 59c0-2.06-.69-3.23-2.72-3.23a6 6 0 0 0-2 .58v6.29a12.79 12.79 0 0 0 1.75.16c1.97.04 2.97-1.59 2.97-3.8zM311.08 53.84h7.59v2h-4.95v8.81h-2.64z"/></g><g style="mix-blend-mode:hard-light" fill="#fff"><path d="M149.12 80.33h-1.69v-.63h4.14v.63h-1.69v4.43h-.76zM151.4 82.87c0-1.58.78-2.12 1.82-2.12s1.5.7 1.5 2V83h-2.57c0 1.07.59 1.24 1.34 1.24a5.33 5.33 0 0 0 1-.16l.12.6a4.48 4.48 0 0 1-1.3.18c-1.16-.02-1.91-.48-1.91-1.99zm2.54-.41c0-.69-.25-1.16-.8-1.16s-.92.4-1 1.16zM156.66 82.76l-1.31-1.91h.87l.86 1.42.86-1.42h.85l-1.29 1.9 1.39 2H158l-.91-1.51-.93 1.51h-.88zM159.64 80.85h.75v1.65h1.84v-1.65h.77v3.91h-.75V83.1h-1.84v1.66h-.75zM163.94 82.85a1.85 1.85 0 0 1 1.86-2.1c1.24 0 1.82.76 1.82 2a1.8 1.8 0 0 1-1.87 2 1.74 1.74 0 0 1-1.81-1.9zm2.92 0c0-.69-.21-1.45-1.08-1.45s-1.08.75-1.08 1.46.26 1.42 1.1 1.42 1.06-.73 1.06-1.48zM168 84.25a1.35 1.35 0 0 0 .74-.57 8.31 8.31 0 0 0 .4-2.83h2.51v3.91h-.74v-3.32h-1.12a7.15 7.15 0 0 1-.5 2.67 1.72 1.72 0 0 1-1.07.77zM172.64 82.85a1.86 1.86 0 0 1 1.87-2.1c1.23 0 1.82.76 1.82 2a1.81 1.81 0 0 1-1.87 2 1.75 1.75 0 0 1-1.82-1.9zm2.93 0c0-.69-.21-1.45-1.08-1.45s-1.09.75-1.09 1.46.27 1.42 1.1 1.42 1.07-.73 1.07-1.48zM177.29 80.85h2.57v.6H178v3.31h-.74zM180.68 80.85h.75v2.91l.34-.53 1.66-2.38h.75v3.91h-.75v-2.91l-.34.54-1.66 2.37h-.75zM185.35 80.85h.74v2.91l.34-.53 1.67-2.38h.74v3.91h-.74v-2.91l-.34.54-1.66 2.37h-.74z"/></g><g style="mix-blend-mode:hard-light" fill="#fff"><path d="M111 64.07a2.5 2.5 0 0 1 2.67-2.66 2.42 2.42 0 0 1 2.53 2.67 2.48 2.48 0 0 1-2.66 2.66 2.42 2.42 0 0 1-2.54-2.67zm4.69 0a2.1 2.1 0 1 0-2.13 2.24 2 2 0 0 0 2.15-2.24zm-1.59 1c-.08-.08-.46-.6-.51-.66h-.47v1.06h-.53v-2.94h1c.6 0 1 .24 1 .91a.83.83 0 0 1-.52.81c.26.32.51.73.92.85l-.11.4a1.18 1.18 0 0 1-.76-.45zm-.66-1.07c.42 0 .66-.13.66-.51s-.17-.51-.56-.51h-.4v1zM33.86 61.72h5.27c3 0 5.23 1.84 5.23 5 0 2.74-2.18 5-6.22 5h-1v4h-3.28zm3.28 7.43h1.11c2 0 2.76-1.09 2.76-2.39s-.56-2.41-2.3-2.41h-1.57zM45.18 68.67c0-4.72 2.83-7.16 7.45-7.16 4.92 0 7 2.84 7 7.2 0 4.64-2.59 7.2-7.41 7.2s-7.04-2.76-7.04-7.24zm11.18 0c0-2.61-1.16-4.54-3.9-4.54s-4 1.93-4 4.5 1.09 4.62 3.85 4.62c3 .02 4.05-1.95 4.05-4.56zM60.78 68.79c0-4.86 2.51-7.26 7.43-7.26a9.11 9.11 0 0 1 4.21.85l-.86 2.42a10.49 10.49 0 0 0-3.31-.51c-2.45 0-4.16 1.38-4.16 4.3s1.8 4.48 4.54 4.48a11 11 0 0 0 3.14-.39l.69 2.52a10.62 10.62 0 0 1-4.17.67c-4.96 0-7.51-2.5-7.51-7.08zM72.77 68.67c0-4.72 2.83-7.16 7.45-7.16 4.92 0 7 2.84 7 7.2 0 4.64-2.59 7.2-7.41 7.2s-7.04-2.76-7.04-7.24zm11.19 0c0-2.61-1.17-4.54-3.91-4.54s-4 1.93-4 4.5 1.1 4.62 3.85 4.62c3 .02 4.1-1.95 4.1-4.56zM87.66 75.2l.7-2.52a11 11 0 0 0 3.14.39c2.31 0 3.94-1.1 4.4-3.2h-6.18v-2.42h6.22a3.7 3.7 0 0 0-4.06-3.12 10.47 10.47 0 0 0-3.31.47l-.87-2.42a9.23 9.23 0 0 1 4.22-.81c4.92 0 7.43 2.36 7.43 7.22 0 4.58-2.55 7.08-7.51 7.08a10.67 10.67 0 0 1-4.18-.67zM99.47 74.61l1.06-2.47a8.32 8.32 0 0 0 3.54 1c1.36 0 2.36-.49 2.36-1.68s-1.07-1.65-2.49-1.65h-1.84v-2.4h1.9c1.24 0 2-.65 2-1.58s-.63-1.5-1.94-1.5a7.67 7.67 0 0 0-2.89.69l-1-2.27a9.18 9.18 0 0 1 4.27-1.1c3.28 0 4.88 1.59 4.88 3.53a3.56 3.56 0 0 1-1.83 3.25 3.36 3.36 0 0 1 2.39 3.32c0 1.87-1.25 4-5.38 4a9.71 9.71 0 0 1-5.03-1.14z"/></g></g></svg>