<svg data-name="Layer 1" xmlns="http://www.w3.org/2000/svg" width="34" height="34"><path d="M17 2A15 15 0 1 1 2 17 15.017 15.017 0 0 1 17 2m0-2a17 17 0 1 0 17 17A17 17 0 0 0 17 0z" fill="#231f20"/><path data-name="&lt;Path&gt;" d="M14.902 21.008c0-1.26-.005-2.52.004-3.78.002-.213-.058-.28-.27-.271-.394.016-.787-.002-1.18.007-.16.004-.219-.04-.217-.208q.012-1.18.001-2.36c-.001-.151.044-.201.197-.198.402.01.805-.01 1.207.009.232.011.28-.071.275-.287q-.02-.898 0-1.797a3.446 3.446 0 0 1 .647-2.007 2.792 2.792 0 0 1 2.238-1.138c.929-.04 1.86-.018 2.788-.028.13-.001.169.045.168.17q-.006 1.194 0 2.387c.002.142-.044.185-.183.183-.447-.007-.894-.004-1.34-.003a.885.885 0 0 0-.99.897c-.029.472-.007.947-.018 1.42-.004.17.096.158.208.158.679-.001 1.358.007 2.038-.005.199-.004.265.042.242.252-.086.79-.159 1.582-.227 2.375-.015.178-.097.212-.257.21a73.838 73.838 0 0 0-1.609-.003c-.385.003-.348-.056-.348.337-.001 2.467-.005 4.934.006 7.4 0 .261-.066.326-.323.321q-1.381-.025-2.762 0c-.26.006-.302-.082-.3-.313.01-1.243.005-2.485.005-3.728z" fill-rule="evenodd"/></svg>