<svg data-name="Layer 1" xmlns="http://www.w3.org/2000/svg" width="7.521" height="16.1"><path data-name="&lt;Path&gt;" d="M1.662 12.058c0-1.26-.005-2.52.005-3.78.002-.213-.059-.28-.271-.271-.393.016-.787-.002-1.18.007-.159.004-.218-.04-.216-.208q.012-1.18 0-2.36c0-.151.045-.201.198-.198.402.01.805-.01 1.206.009.233.011.281-.071.276-.287q-.02-.898 0-1.797a3.446 3.446 0 0 1 .647-2.007A2.792 2.792 0 0 1 4.565.028C5.493-.012 6.424.01 7.353 0c.13-.001.168.045.168.17q-.006 1.194 0 2.387c.002.142-.044.185-.183.183-.447-.007-.894-.004-1.341-.003a.885.885 0 0 0-.988.897c-.03.472-.008.947-.02 1.42-.003.17.097.158.208.158.68-.001 1.36.006 2.038-.005.2-.004.265.042.243.252-.086.79-.16 1.582-.227 2.375-.015.178-.097.212-.258.21a73.838 73.838 0 0 0-1.608-.003c-.385.003-.348-.056-.348.337-.002 2.467-.005 4.934.006 7.4 0 .261-.066.326-.324.321q-1.38-.025-2.762 0c-.259.006-.302-.082-.3-.313.01-1.243.005-2.485.005-3.728z" fill-rule="evenodd"/></svg>