<svg data-name="Layer 1" xmlns="http://www.w3.org/2000/svg" width="34" height="34"><path d="M17 2A15 15 0 1 1 2 17 15.017 15.017 0 0 1 17 2m0-2a17 17 0 1 0 17 17A17 17 0 0 0 17 0z" fill="#231f20"/><path d="M21.36 10.115h-8.72a2.526 2.526 0 0 0-2.525 2.524v8.72a2.528 2.528 0 0 0 2.524 2.526h8.721a2.529 2.529 0 0 0 2.525-2.526v-8.72a2.527 2.527 0 0 0-2.525-2.524zM17 21.533a4.533 4.533 0 1 1 4.533-4.534A4.54 4.54 0 0 1 17 21.533zm4.68-8.13a1.073 1.073 0 1 1 1.073-1.072 1.073 1.073 0 0 1-1.073 1.072zM19.618 17a2.618 2.618 0 1 1-2.62-2.617A2.621 2.621 0 0 1 19.619 17z"/></svg>