<svg data-name="Layer 1" xmlns="http://www.w3.org/2000/svg" width="34" height="34"><path d="M13.89 14.33A1.33 1.33 0 1 0 12.55 13a1.33 1.33 0 0 0 1.34 1.33zm6.22 0A1.33 1.33 0 1 0 18.78 13a1.32 1.32 0 0 0 1.33 1.33zm4.77 6.11l-1.8-3a.88.88 0 0 0-1.19-.3.83.83 0 0 0-.32 1.14l.21.36a6.76 6.76 0 0 1-9.59 0l.22-.37a.83.83 0 0 0-.3-1.15.87.87 0 0 0-1.19.3l-1.8 3a.85.85 0 0 0 .29 1.16.89.89 0 0 0 1.19-.31l.68-1.15a8.54 8.54 0 0 0 11.4 0l.68 1.15a.88.88 0 0 0 1.19.31.84.84 0 0 0 .32-1.15z" fill="#231f20"/></svg>