<svg data-name="Layer 1" xmlns="http://www.w3.org/2000/svg" width="34" height="34"><path d="M29 5a17 17 0 1 0 5 12 16.94 16.94 0 0 0-5-12zm-8.91 6.67A1.34 1.34 0 1 1 18.78 13a1.33 1.33 0 0 1 1.33-1.35zm-6.22 0A1.34 1.34 0 1 1 12.55 13a1.34 1.34 0 0 1 1.34-1.35zm10.68 9.94a.88.88 0 0 1-1.19-.3l-.68-1.15a8.54 8.54 0 0 1-11.4 0l-.68 1.15a.88.88 0 0 1-1.19.3.83.83 0 0 1-.29-1.15l1.8-3a.88.88 0 0 1 1.19-.31.84.84 0 0 1 .3 1.16l-.22.36a6.77 6.77 0 0 0 9.59 0l-.21-.36a.84.84 0 0 1 .32-1.15.89.89 0 0 1 1.19.31l1.8 3a.84.84 0 0 1-.31 1.12z" fill="#231f20"/></svg>