<svg data-name="Layer 1" xmlns="http://www.w3.org/2000/svg" width="10" height="16"><path d="M5 8.258A4.306 4.306 0 0 0 9.455 4.13 4.306 4.306 0 0 0 5 0 4.307 4.307 0 0 0 .544 4.13 4.306 4.306 0 0 0 5 8.258zM5 2.42a1.783 1.783 0 0 1 1.845 1.71A1.783 1.783 0 0 1 5 5.839a1.783 1.783 0 0 1-1.845-1.71A1.783 1.783 0 0 1 5 2.42zm4.296 11.517a1.146 1.146 0 0 1-.003 1.708l-.001.001a1.378 1.378 0 0 1-1.844 0l-2.449-2.269-2.447 2.268a1.38 1.38 0 0 1-1.846 0 1.148 1.148 0 0 1 0-1.71l2.49-2.31a8.721 8.721 0 0 1-2.586-.992A1.159 1.159 0 0 1 .2 8.965l.002-.001A1.366 1.366 0 0 1 2 8.584a6.039 6.039 0 0 0 5.998 0H8a1.366 1.366 0 0 1 1.8.381 1.159 1.159 0 0 1-.41 1.668 8.713 8.713 0 0 1-2.588.993l2.49 2.309z"/></svg>