<svg data-name="Layer 1" xmlns="http://www.w3.org/2000/svg" width="34" height="34"><path d="M17 17.258a4.306 4.306 0 0 0 4.455-4.128A4.306 4.306 0 0 0 17 9a4.307 4.307 0 0 0-4.456 4.13A4.306 4.306 0 0 0 17 17.258zm0-5.838a1.783 1.783 0 0 1 1.845 1.71 1.85 1.85 0 0 1-3.69 0A1.783 1.783 0 0 1 17 11.42zm4.296 11.518a1.146 1.146 0 0 1-.003 1.707l-.001.001a1.378 1.378 0 0 1-1.844 0l-2.449-2.269-2.447 2.268a1.38 1.38 0 0 1-1.846 0 1.148 1.148 0 0 1 0-1.71l2.49-2.31a8.721 8.721 0 0 1-2.586-.992 1.159 1.159 0 0 1-.41-1.668l.002-.001a1.366 1.366 0 0 1 1.799-.38 6.039 6.039 0 0 0 5.998 0H20a1.366 1.366 0 0 1 1.8.381 1.159 1.159 0 0 1-.41 1.668 8.713 8.713 0 0 1-2.588.993l2.49 2.309z"/><path d="M17 2A15 15 0 1 1 2 17 15.017 15.017 0 0 1 17 2m0-2a17 17 0 1 0 17 17A17 17 0 0 0 17 0z" fill="#231f20"/></svg>