<svg data-name="Layer 1" xmlns="http://www.w3.org/2000/svg" width="34" height="34"><g fill="#231f20"><path d="M17 2A15 15 0 1 1 2 17 15 15 0 0 1 17 2m0-2a17 17 0 1 0 17 17A17 17 0 0 0 17 0z"/><path d="M17 21.81c-2.67 0-3.89-1.35-3.89-2.34a.86.86 0 0 1 .91-.86c1.14 0 .85 1.7 3 1.7 1.09 0 1.73-.65 1.73-1.27 0-.36-.21-.77-.93-.95l-2.38-.6C13.54 17 13.2 15.94 13.2 15c0-2 1.88-2.77 3.66-2.77s3.6.9 3.6 2.12a.84.84 0 0 1-.95.81c-1 0-.82-1.36-2.78-1.36-1 0-1.49.45-1.49 1.09s.75.85 1.42 1l1.76.39c1.93.43 2.44 1.56 2.44 2.63 0 1.65-1.29 2.93-3.83 2.93m7.38-3.5a7.09 7.09 0 0 0 .12-1.34A7.53 7.53 0 0 0 17 9.47a7.09 7.09 0 0 0-1.31.12A4.38 4.38 0 0 0 13.47 9 4.47 4.47 0 0 0 9 13.47a4.38 4.38 0 0 0 .59 2.22A7.09 7.09 0 0 0 9.47 17 7.53 7.53 0 0 0 17 24.53a7.09 7.09 0 0 0 1.31-.12 4.38 4.38 0 0 0 2.22.59A4.47 4.47 0 0 0 25 20.53a4.38 4.38 0 0 0-.59-2.22"/></g></svg>