<svg data-name="Layer 1" xmlns="http://www.w3.org/2000/svg" width="34" height="34"><path d="M17 2A15 15 0 1 1 2 17 15 15 0 0 1 17 2m0-2a17 17 0 1 0 17 17A17 17 0 0 0 17 0z" fill="#231f20"/><path d="M23 10L8.83 15.44c-1 .39-1 .93-.18 1.17l3.64 1.13 1.25 4.12c.16.45.08.63.56.63a.83.83 0 0 0 .34-.06 1 1 0 0 0 .17-.1 2.09 2.09 0 0 0 .22-.2l1.77-1.72 3.68 2.71c.67.38 1.16.18 1.33-.62L24 11.12c.27-.99-.35-1.44-1-1.12zm-9 11.77v-.06l-1.28-4.24L21 12.54l-.42.56-6.25 5.64-.33 3.05z" fill="#010101"/></svg>