<svg data-name="Layer 1" xmlns="http://www.w3.org/2000/svg" width="34" height="34"><g fill="#231f20"><path d="M17 2A15 15 0 1 1 2 17 15 15 0 0 1 17 2m0-2a17 17 0 1 0 17 17A17 17 0 0 0 17 0z"/><path d="M22.87 10.56c-.39-.36-2-1.53-5.58-1.55 0 0-4.22-.25-6.28 1.63-1.14 1.15-1.55 2.83-1.59 4.9s-.1 6 3.66 7v1.61s0 .66.41.79.82-.33 1.32-.87c.27-.29.64-.73.93-1.05a14.73 14.73 0 0 0 4.76-.35 4.7 4.7 0 0 0 3.93-4.44c.49-3.98-.24-6.52-1.56-7.67zm.44 7.44a3.72 3.72 0 0 1-3.22 3.6 13.25 13.25 0 0 1-4.1.34s-1.63 2-2.13 2.48a.29.29 0 0 1-.24.09c-.09 0-.11-.12-.11-.27v-2.68c-3.17-.88-3-4.2-2.95-5.93a5.73 5.73 0 0 1 1.33-4.12c1.74-1.57 5.33-1.34 5.33-1.34 3 0 4.47.93 4.81 1.23 1.13.93 1.69 3.22 1.28 6.6z"/><path d="M17.56 14a.21.21 0 0 0-.21.19.21.21 0 0 0 .19.22 1 1 0 0 1 1 1.06.21.21 0 0 0 .2.19.22.22 0 0 0 .2-.21A1.37 1.37 0 0 0 17.56 14z"/><path d="M19.8 16a.2.2 0 0 0 .2-.2 2.77 2.77 0 0 0-.71-2 2.93 2.93 0 0 0-2-.89.2.2 0 0 0-.22.19.2.2 0 0 0 .19.21 2.53 2.53 0 0 1 1.76.77 2.33 2.33 0 0 1 .61 1.71.21.21 0 0 0 .17.21z"/><path d="M16.89 11.87a.2.2 0 0 0 0 .4 3.74 3.74 0 0 1 2.68 1.06 3.9 3.9 0 0 1 1.09 2.89.2.2 0 0 0 .2.2.2.2 0 0 0 .2-.2 4.34 4.34 0 0 0-1.2-3.22 4.15 4.15 0 0 0-2.97-1.13zM20.59 18.54s-.46-.39-.69-.56-.55-.36-.74-.47a.65.65 0 0 0-.83.12L18 18a.56.56 0 0 1-.44.17A3.9 3.9 0 0 1 15 15.53a.55.55 0 0 1 .16-.44l.38-.29a.66.66 0 0 0 .11-.84 6.41 6.41 0 0 0-.47-.74c-.17-.23-.55-.69-.55-.69a.58.58 0 0 0-.75-.12 3.18 3.18 0 0 0-.77.62 1.17 1.17 0 0 0-.31.63.26.26 0 0 0 0 .09.63.63 0 0 0 0 .27 8.82 8.82 0 0 0 .8 1.73 10.27 10.27 0 0 0 1 1.46c.17.21.36.43.58.66a6.63 6.63 0 0 0 .65.58 10.56 10.56 0 0 0 1.46 1 9.8 9.8 0 0 0 1.74.8.84.84 0 0 0 .27 0h.09a1.2 1.2 0 0 0 .64-.3 2.92 2.92 0 0 0 .62-.76.58.58 0 0 0-.06-.65z"/></g></svg>