<svg data-name="Layer 1" xmlns="http://www.w3.org/2000/svg" width="34" height="34"><g fill="#231f20"><path d="M17.23 10.14s-3.59-.23-5.33 1.34a5.73 5.73 0 0 0-1.33 4.12c0 1.73-.22 5 2.95 5.93v2.68c0 .22 0 .25.11.27a.29.29 0 0 0 .24-.09c.5-.52 2.13-2.48 2.13-2.48a13.25 13.25 0 0 0 4.1-.34A3.72 3.72 0 0 0 23.31 18c.41-3.35-.15-5.64-1.27-6.6-.34-.33-1.79-1.24-4.81-1.26zm3.49 9.14a2.92 2.92 0 0 1-.62.76 1.2 1.2 0 0 1-.64.3h-.09a.84.84 0 0 1-.27 0 9.8 9.8 0 0 1-1.74-.8 10.56 10.56 0 0 1-1.46-1 6.63 6.63 0 0 1-.65-.58c-.22-.23-.41-.45-.58-.66a10.27 10.27 0 0 1-1-1.46 8.82 8.82 0 0 1-.8-1.73.63.63 0 0 1 0-.27.26.26 0 0 1 0-.09 1.17 1.17 0 0 1 .31-.63 3.18 3.18 0 0 1 .77-.62.58.58 0 0 1 .75.12s.38.46.55.69a6.41 6.41 0 0 1 .47.74.66.66 0 0 1-.11.84l-.38.29a.55.55 0 0 0-.16.44 3.9 3.9 0 0 0 2.63 2.64.56.56 0 0 0 .3-.26l.3-.37a.65.65 0 0 1 .83-.12c.19.11.53.32.74.47s.69.56.69.56a.58.58 0 0 1 .16.74zm-3.49-6a.2.2 0 0 1-.19-.21.2.2 0 0 1 .22-.19 2.93 2.93 0 0 1 2 .89 2.77 2.77 0 0 1 .71 2 .2.2 0 0 1-.2.2.21.21 0 0 1-.2-.21 2.33 2.33 0 0 0-.57-1.67 2.53 2.53 0 0 0-1.77-.77zM19 15.45a.22.22 0 0 1-.2.21.21.21 0 0 1-.2-.19 1 1 0 0 0-1-1.06.21.21 0 0 1-.19-.22.21.21 0 0 1 .21-.19A1.37 1.37 0 0 1 19 15.45zm1.9 1a.2.2 0 0 1-.2-.2 3.9 3.9 0 0 0-1.09-2.89 3.74 3.74 0 0 0-2.68-1.06.2.2 0 0 1 0-.4 4.15 4.15 0 0 1 3 1.17 4.34 4.34 0 0 1 1.21 3.18.2.2 0 0 1-.27.17z"/><path d="M17 0a17 17 0 1 0 17 17A17 17 0 0 0 17 0zm7.43 18.26a4.7 4.7 0 0 1-3.93 4.44 14.73 14.73 0 0 1-4.76.35c-.29.32-.66.76-.93 1.05-.5.54-.81 1-1.32.87s-.41-.79-.41-.79v-1.61c-3.76-1.05-3.7-4.95-3.66-7s.45-3.75 1.59-4.9C13.07 8.76 17.29 9 17.29 9c3.58 0 5.19 1.19 5.58 1.55 1.32 1.16 2.05 3.7 1.56 7.71z"/></g></svg>