<svg data-name="Layer 1" xmlns="http://www.w3.org/2000/svg" width="16" height="9"><path d="M15.915 8.128a1.08 1.08 0 0 0-.054-.103 8.207 8.207 0 0 0-1.59-1.815l-.017-.017-.009-.008-.008-.008h-.009a9.53 9.53 0 0 1-.674-.673.625.625 0 0 1-.117-.666 6.183 6.183 0 0 1 .75-1.076q.341-.435.541-.698Q16.17 1.175 15.978.65l-.05-.082a.49.49 0 0 0-.258-.136 1.328 1.328 0 0 0-.533-.02l-2.4.016a.316.316 0 0 0-.166.004l-.108.025-.042.02-.033.025a.367.367 0 0 0-.092.087.562.562 0 0 0-.083.143 13.322 13.322 0 0 1-.892 1.848q-.308.51-.566.883a4.26 4.26 0 0 1-.433.55 3.002 3.002 0 0 1-.317.283q-.142.107-.216.09a5.565 5.565 0 0 1-.142-.032.547.547 0 0 1-.188-.201.892.892 0 0 1-.095-.32q-.025-.194-.03-.333-.003-.14.005-.394c.005-.17.008-.285.008-.345q0-.312.012-.678l.021-.579q.008-.214.009-.452a1.869 1.869 0 0 0-.03-.373 1.262 1.262 0 0 0-.087-.263.443.443 0 0 0-.17-.197.97.97 0 0 0-.28-.111A5.624 5.624 0 0 0 7.698 0a5.54 5.54 0 0 0-1.991.197 1.118 1.118 0 0 0-.317.247q-.15.18-.042.197a1.026 1.026 0 0 1 .708.353l.05.098a1.557 1.557 0 0 1 .117.378 3.75 3.75 0 0 1 .075.6 6.307 6.307 0 0 1 0 1.026q-.042.427-.08.666a1.317 1.317 0 0 1-.112.385 1.64 1.64 0 0 1-.1.181.144.144 0 0 1-.041.041.631.631 0 0 1-.225.041.532.532 0 0 1-.283-.115 1.987 1.987 0 0 1-.346-.316 4.22 4.22 0 0 1-.404-.563q-.225-.36-.467-.854l-.133-.238q-.125-.23-.341-.67-.217-.438-.384-.85a.541.541 0 0 0-.2-.262L3.141.518a.571.571 0 0 0-.134-.07.894.894 0 0 0-.191-.053L.533.412A.585.585 0 0 0 .06.568L.025.617A.262.262 0 0 0 0 .748.645.645 0 0 0 .05.97q.5 1.158 1.087 2.234.588 1.076 1.02 1.733.434.657.884 1.24t.595.747q.146.165.23.246l.208.198a4.921 4.921 0 0 0 .587.472 10.035 10.035 0 0 0 .858.542 4.7 4.7 0 0 0 1.096.435 3.84 3.84 0 0 0 1.216.136h.958a.668.668 0 0 0 .442-.18l.033-.042a.534.534 0 0 0 .062-.152.824.824 0 0 0 .03-.226 2.677 2.677 0 0 1 .053-.636 1.653 1.653 0 0 1 .142-.427 1.053 1.053 0 0 1 .179-.242.721.721 0 0 1 .142-.12.562.562 0 0 1 .066-.028.534.534 0 0 1 .471.127 2.75 2.75 0 0 1 .508.477q.238.283.571.636a3.892 3.892 0 0 0 .583.526l.167.098a2.04 2.04 0 0 0 .433.18.946.946 0 0 0 .466.042l2.133-.033a.977.977 0 0 0 .491-.103.409.409 0 0 0 .209-.225.628.628 0 0 0 .004-.28 1.019 1.019 0 0 0-.059-.217z"/></svg>