<svg data-name="Layer 1" xmlns="http://www.w3.org/2000/svg" width="34" height="34"><path d="M17 0A17 17 0 1 1 0 17 17 17 0 0 1 17 0z" fill-rule="evenodd"/><path d="M24.218 21.628a1.08 1.08 0 0 0-.054-.103 8.207 8.207 0 0 0-1.592-1.815l-.016-.016-.008-.008-.009-.009h-.008a9.53 9.53 0 0 1-.675-.673.625.625 0 0 1-.117-.666 6.183 6.183 0 0 1 .75-1.075q.342-.436.541-.698 1.442-1.89 1.25-2.415l-.05-.082a.49.49 0 0 0-.258-.135 1.328 1.328 0 0 0-.533-.02l-2.4.015a.316.316 0 0 0-.166.005l-.108.024-.042.021-.033.025a.367.367 0 0 0-.092.086.562.562 0 0 0-.083.143 13.322 13.322 0 0 1-.891 1.848q-.309.51-.567.883a4.26 4.26 0 0 1-.433.55 3.002 3.002 0 0 1-.317.284q-.141.107-.216.09a5.565 5.565 0 0 1-.142-.033.547.547 0 0 1-.187-.201.892.892 0 0 1-.096-.32q-.025-.194-.03-.333-.003-.14.005-.394c.006-.17.008-.285.008-.345q0-.312.013-.678l.02-.579q.009-.214.009-.451a1.869 1.869 0 0 0-.03-.374 1.262 1.262 0 0 0-.087-.263.443.443 0 0 0-.17-.197.97.97 0 0 0-.28-.11A5.624 5.624 0 0 0 16 13.5a5.54 5.54 0 0 0-1.991.198 1.118 1.118 0 0 0-.317.246q-.15.18-.041.197a1.026 1.026 0 0 1 .708.353l.05.099a1.557 1.557 0 0 1 .116.377 3.75 3.75 0 0 1 .075.6 6.307 6.307 0 0 1 0 1.026q-.041.428-.079.666a1.317 1.317 0 0 1-.112.386 1.64 1.64 0 0 1-.1.18.144.144 0 0 1-.042.041.631.631 0 0 1-.225.042.532.532 0 0 1-.283-.116 1.987 1.987 0 0 1-.346-.316 4.22 4.22 0 0 1-.404-.562q-.225-.362-.466-.854l-.134-.239q-.125-.23-.341-.669-.217-.44-.383-.85a.541.541 0 0 0-.2-.263l-.042-.024a.571.571 0 0 0-.133-.07.894.894 0 0 0-.192-.054l-2.282.017a.585.585 0 0 0-.475.156l-.034.05a.262.262 0 0 0-.025.13.645.645 0 0 0 .05.222q.5 1.158 1.087 2.234.588 1.076 1.02 1.733.434.657.884 1.24t.595.747q.146.165.23.247l.208.197a4.921 4.921 0 0 0 .587.472 10.035 10.035 0 0 0 .858.542 4.7 4.7 0 0 0 1.096.435 3.84 3.84 0 0 0 1.216.136h.958a.668.668 0 0 0 .442-.18l.033-.042a.534.534 0 0 0 .062-.152.824.824 0 0 0 .03-.226 2.677 2.677 0 0 1 .054-.636 1.653 1.653 0 0 1 .141-.427 1.053 1.053 0 0 1 .18-.242.721.721 0 0 1 .141-.12.562.562 0 0 1 .067-.028.534.534 0 0 1 .47.127 2.75 2.75 0 0 1 .509.477q.237.283.57.636a3.892 3.892 0 0 0 .583.526l.167.098a2.04 2.04 0 0 0 .433.181.946.946 0 0 0 .467.041l2.132-.033a.977.977 0 0 0 .492-.102.409.409 0 0 0 .208-.226.628.628 0 0 0 .004-.28 1.019 1.019 0 0 0-.058-.217z" fill="#fff"/></svg>