<svg width="47" height="47" viewBox="0 0 47 47" fill="none" xmlns="http://www.w3.org/2000/svg">
<g opacity="0.48">
<path fill-rule="evenodd" clip-rule="evenodd" d="M23.3143 0C10.4379 0 0 10.4366 0 23.3143C0 36.1906 10.4379 46.6286 23.3143 46.6286C36.1906 46.6286 46.6286 36.1906 46.6286 23.3143C46.6286 10.4366 36.1906 0 23.3143 0M23.3143 2.74286C34.6574 2.74286 43.8857 11.9712 43.8857 23.3143C43.8857 34.6574 34.6574 43.8857 23.3143 43.8857C11.9712 43.8857 2.74286 34.6574 2.74286 23.3143C2.74286 11.9712 11.9712 2.74286 23.3143 2.74286" fill="white"/>
</g>
<path opacity="0.48" d="M23.8931 29.4797C17.0599 29.4797 13.1624 24.7951 13 17H16.4229C16.5353 22.7214 19.0587 25.1449 21.0574 25.6446V17H24.2805V21.9344C26.2543 21.722 28.3277 19.4735 29.0273 17H32.2503C31.7132 20.0481 29.4646 22.2967 27.8656 23.2211C29.4646 23.9706 32.0256 25.9319 33 29.4797H29.4521C28.6901 27.1062 26.7914 25.2698 24.2805 25.02V29.4797H23.8931Z" fill="white"/>
</svg>
