<svg data-name="Layer 1" xmlns="http://www.w3.org/2000/svg" width="34" height="34"><path d="M17 2A15 15 0 1 1 2 17 15 15 0 0 1 17 2m0-2a17 17 0 1 0 17 17A17 17 0 0 0 17 0z" fill="#231f20"/><path d="M22.64 11.33a7.93 7.93 0 0 0-12.48 9.56L9 25l4.2-1.1a7.93 7.93 0 0 0 3.79 1A7.94 7.94 0 0 0 25 16.93a7.85 7.85 0 0 0-2.36-5.6zM17 23.52a6.47 6.47 0 0 1-3.35-.92l-.24-.14-2.5.66.67-2.44-.16-.24A6.59 6.59 0 0 1 17 10.34a6.59 6.59 0 0 1 0 13.18zm3.62-4.93c-.2-.1-1.17-.58-1.36-.65s-.31-.1-.44.1a9.24 9.24 0 0 1-.63.78c-.11.13-.23.15-.43.05a5.53 5.53 0 0 1-1.59-1 5.81 5.81 0 0 1-1.1-1.38c-.12-.19 0-.3.08-.4s.2-.23.3-.35a1.38 1.38 0 0 0 .2-.33.36.36 0 0 0 0-.35c-.05-.09-.44-1.07-.61-1.47s-.32-.33-.44-.34h-.38a.74.74 0 0 0-.53.24 2.24 2.24 0 0 0-.7 1.66 3.9 3.9 0 0 0 .81 2 8.89 8.89 0 0 0 3.39 3 11.28 11.28 0 0 0 1.13.41 2.58 2.58 0 0 0 1.24.08 2 2 0 0 0 1.34-.94 1.62 1.62 0 0 0 .12-.94c-.02-.02-.17-.07-.37-.17z" fill="#231f20" fill-rule="evenodd" data-name="WA Logo"/></svg>