<svg xmlns="http://www.w3.org/2000/svg" xmlns:xlink="http://www.w3.org/1999/xlink" width="122" height="122" viewBox="0 0 122 122"><defs><path id="k6e3a" d="M592 1203h-88c-13.255 0-24-10.745-24-24v-88a8 8 0 0 1 8-8h88c13.255 0 24 10.745 24 24v88a8 8 0 0 1-8 8z"/><path id="k6e3b" d="M531.5 1143a8.5 8.5 0 1 1 17 0 8.5 8.5 0 0 1-17 0z"/><path id="k6e3d" d="M510.5 1142.5L540 1113"/><path id="k6e3e" d="M502.5 1143a7.5 7.5 0 1 1 15 0 7.5 7.5 0 0 1-15 0z"/><path id="k6e3f" d="M570.5 1113.5v30l-30 30"/><path id="k6e3g" d="M562.5 1143a7.5 7.5 0 1 1 15 0 7.5 7.5 0 0 1-15 0z"/><path id="k6e3h" d="M562.5 1113a7.5 7.5 0 1 1 15 0 7.5 7.5 0 0 1-15 0z"/><path id="k6e3i" d="M532.5 1113a7.5 7.5 0 1 1 15 0 7.5 7.5 0 0 1-15 0z"/><path id="k6e3j" d="M540.5 1173.5h-30"/><path id="k6e3k" d="M501.5 1113a8.5 8.5 0 1 1 17 0 8.5 8.5 0 0 1-17 0z"/><path id="k6e3m" d="M502.5 1173a7.5 7.5 0 1 1 15 0 7.5 7.5 0 0 1-15 0z"/><path id="k6e3n" d="M532.5 1173a7.5 7.5 0 1 1 15 0 7.5 7.5 0 0 1-15 0z"/><path id="k6e3o" d="M561.5 1173a8.5 8.5 0 1 1 17 0 8.5 8.5 0 0 1-17 0z"/><linearGradient id="k6e3c" x1="531.5" x2="548.5" y1="1143" y2="1143" gradientUnits="userSpaceOnUse"><stop offset="0" stop-color="#373e99"/><stop offset="1" stop-color="#662e91"/></linearGradient><linearGradient id="k6e3l" x1="501.5" x2="518.5" y1="1113" y2="1113" gradientUnits="userSpaceOnUse"><stop offset="0" stop-color="#373e99"/><stop offset="1" stop-color="#662e91"/></linearGradient><linearGradient id="k6e3p" x1="561.5" x2="578.5" y1="1173" y2="1173" gradientUnits="userSpaceOnUse"><stop offset="0" stop-color="#373e99"/><stop offset="1" stop-color="#662e91"/></linearGradient></defs><g><g transform="translate(-479 -1082)"><g><use fill="#fff" xlink:href="#k6e3a"/><use fill="#fff" fill-opacity="0" stroke="#000" stroke-miterlimit="50" stroke-width="2" xlink:href="#k6e3a"/></g><g><use fill="url(#k6e3c)" xlink:href="#k6e3b"/></g><g><use fill="#fff" fill-opacity="0" stroke="#000" stroke-miterlimit="50" stroke-width="3" xlink:href="#k6e3d"/></g><g><use fill="#fff" xlink:href="#k6e3e"/><use fill="#fff" fill-opacity="0" stroke="#000" stroke-miterlimit="50" stroke-width="3" xlink:href="#k6e3e"/></g><g><use fill="#fff" fill-opacity="0" stroke="#000" stroke-miterlimit="50" stroke-width="3" xlink:href="#k6e3f"/></g><g><use fill="#fff" xlink:href="#k6e3g"/><use fill="#fff" fill-opacity="0" stroke="#000" stroke-miterlimit="50" stroke-width="3" xlink:href="#k6e3g"/></g><g><use fill="#fff" xlink:href="#k6e3h"/><use fill="#fff" fill-opacity="0" stroke="#000" stroke-miterlimit="50" stroke-width="3" xlink:href="#k6e3h"/></g><g><use fill="#fff" xlink:href="#k6e3i"/><use fill="#fff" fill-opacity="0" stroke="#000" stroke-miterlimit="50" stroke-width="3" xlink:href="#k6e3i"/></g><g><use fill="#fff" fill-opacity="0" stroke="#000" stroke-miterlimit="50" stroke-width="3" xlink:href="#k6e3j"/></g><g><use fill="url(#k6e3l)" xlink:href="#k6e3k"/></g><g><use fill="#fff" xlink:href="#k6e3m"/><use fill="#fff" fill-opacity="0" stroke="#000" stroke-miterlimit="50" stroke-width="3" xlink:href="#k6e3m"/></g><g><use fill="#fff" xlink:href="#k6e3n"/><use fill="#fff" fill-opacity="0" stroke="#000" stroke-miterlimit="50" stroke-width="3" xlink:href="#k6e3n"/></g><g><use fill="url(#k6e3p)" xlink:href="#k6e3o"/></g></g></g></svg>