<svg xmlns="http://www.w3.org/2000/svg" xmlns:xlink="http://www.w3.org/1999/xlink" width="122" height="122" viewBox="0 0 122 122"><defs><path id="qj4va" d="M1552 1203h-88c-13.255 0-24-10.745-24-24v-88a8 8 0 0 1 8-8h88c13.255 0 24 10.745 24 24v88a8 8 0 0 1-8 8z"/><path id="qj4vb" d="M1470 1117a4 4 0 0 1 4-4h52a4 4 0 0 1 4 4v52a4 4 0 0 1-4 4h-52a4 4 0 0 1-4-4z"/><path id="qj4vc" d="M1526 1113h-52a4 4 0 0 0-4 4v52a4 4 0 0 0 4 4h52a4 4 0 0 0 4-4v-52a4 4 0 0 0-4-4zm0 3a1 1 0 0 1 1 1v52a1 1 0 0 1-1 1h-52a1 1 0 0 1-1-1v-52a1 1 0 0 1 1-1h52z"/><path id="qj4ve" d="M1480 1125a2 2 0 0 1 2-2h36a2 2 0 0 1 2 2v36a2 2 0 0 1-2 2h-36a2 2 0 0 1-2-2z"/><path id="qj4vg" d="M1481.5 1103v10"/><path id="qj4vh" d="M1490.5 1103v10"/><path id="qj4vi" d="M1508.5 1103v10"/><path id="qj4vj" d="M1490.5 1173v10"/><path id="qj4vk" d="M1508.5 1173v10"/><path id="qj4vl" d="M1539.5 1134h-10"/><path id="qj4vm" d="M1539.5 1152h-10"/><path id="qj4vn" d="M1470 1134.5h-10"/><path id="qj4vo" d="M1470 1152.5h-10"/><path id="qj4vp" d="M1499.5 1103v10"/><path id="qj4vq" d="M1499.5 1173v10"/><path id="qj4vr" d="M1540 1143.5h-10"/><path id="qj4vs" d="M1470 1143.5h-10"/><path id="qj4vt" d="M1518.5 1103v10"/><path id="qj4vu" d="M1481.5 1173v10"/><path id="qj4vv" d="M1518.5 1173v10"/><path id="qj4vw" d="M1470 1124.5h-10"/><path id="qj4vx" d="M1470 1161.5h-10"/><path id="qj4vy" d="M1540 1124.5h-10"/><path id="qj4vz" d="M1540 1161.5h-10"/><path id="qj4vA" d="M1485 1132a4 4 0 1 1 8 0 4 4 0 0 1-8 0z"/><linearGradient id="qj4vd" x1="1471.17" x2="1528.83" y1="1171.83" y2="1114.17" gradientUnits="userSpaceOnUse"><stop offset="0" stop-color="#30409a"/><stop offset="1" stop-color="#662e91"/></linearGradient><linearGradient id="qj4vf" x1="1480" x2="1520" y1="1143" y2="1143" gradientUnits="userSpaceOnUse"><stop offset="0" stop-color="#373e99"/><stop offset="1" stop-color="#662e91"/></linearGradient></defs><g><g transform="translate(-1439 -1082)"><g><use fill="#fff" xlink:href="#qj4va"/><use fill="#fff" fill-opacity="0" stroke="#000" stroke-miterlimit="50" stroke-width="2" xlink:href="#qj4va"/></g><g><use fill="#fff" xlink:href="#qj4vb"/></g><g><use fill="url(#qj4vd)" xlink:href="#qj4vc"/></g><g><use fill="url(#qj4vf)" xlink:href="#qj4ve"/></g><g><use fill="#fff" fill-opacity="0" stroke="#000" stroke-miterlimit="50" stroke-width="3" xlink:href="#qj4vg"/></g><g><use fill="#fff" fill-opacity="0" stroke="#000" stroke-miterlimit="50" stroke-width="3" xlink:href="#qj4vh"/></g><g><use fill="#fff" fill-opacity="0" stroke="#000" stroke-miterlimit="50" stroke-width="3" xlink:href="#qj4vi"/></g><g><use fill="#fff" fill-opacity="0" stroke="#000" stroke-miterlimit="50" stroke-width="3" xlink:href="#qj4vj"/></g><g><use fill="#fff" fill-opacity="0" stroke="#000" stroke-miterlimit="50" stroke-width="3" xlink:href="#qj4vk"/></g><g><use fill="#fff" fill-opacity="0" stroke="#000" stroke-miterlimit="50" stroke-width="3" xlink:href="#qj4vl"/></g><g><use fill="#fff" fill-opacity="0" stroke="#000" stroke-miterlimit="50" stroke-width="3" xlink:href="#qj4vm"/></g><g><use fill="#fff" fill-opacity="0" stroke="#000" stroke-miterlimit="50" stroke-width="3" xlink:href="#qj4vn"/></g><g><use fill="#fff" fill-opacity="0" stroke="#000" stroke-miterlimit="50" stroke-width="3" xlink:href="#qj4vo"/></g><g><use fill="#fff" fill-opacity="0" stroke="#000" stroke-miterlimit="50" stroke-width="3" xlink:href="#qj4vp"/></g><g><use fill="#fff" fill-opacity="0" stroke="#000" stroke-miterlimit="50" stroke-width="3" xlink:href="#qj4vq"/></g><g><use fill="#fff" fill-opacity="0" stroke="#000" stroke-miterlimit="50" stroke-width="3" xlink:href="#qj4vr"/></g><g><use fill="#fff" fill-opacity="0" stroke="#000" stroke-miterlimit="50" stroke-width="3" xlink:href="#qj4vs"/></g><g><use fill="#fff" fill-opacity="0" stroke="#000" stroke-miterlimit="50" stroke-width="3" xlink:href="#qj4vt"/></g><g><use fill="#fff" fill-opacity="0" stroke="#000" stroke-miterlimit="50" stroke-width="3" xlink:href="#qj4vu"/></g><g><use fill="#fff" fill-opacity="0" stroke="#000" stroke-miterlimit="50" stroke-width="3" xlink:href="#qj4vv"/></g><g><use fill="#fff" fill-opacity="0" stroke="#000" stroke-miterlimit="50" stroke-width="3" xlink:href="#qj4vw"/></g><g><use fill="#fff" fill-opacity="0" stroke="#000" stroke-miterlimit="50" stroke-width="3" xlink:href="#qj4vx"/></g><g><use fill="#fff" fill-opacity="0" stroke="#000" stroke-miterlimit="50" stroke-width="3" xlink:href="#qj4vy"/></g><g><use fill="#fff" fill-opacity="0" stroke="#000" stroke-miterlimit="50" stroke-width="3" xlink:href="#qj4vz"/></g><g><use fill="#fff" xlink:href="#qj4vA"/></g></g></g></svg>