<svg xmlns="http://www.w3.org/2000/svg" xmlns:xlink="http://www.w3.org/1999/xlink" width="122" height="122" viewBox="0 0 122 122"><defs><path id="wt9za" d="M1232 1203h-88c-13.255 0-24-10.745-24-24v-88a8 8 0 0 1 8-8h88c13.255 0 24 10.745 24 24v88a8 8 0 0 1-8 8z"/><path id="wt9zb" d="M1143 1124.5a6 6 0 0 1 6-6h30a6 6 0 1 1 0 12h-30a6 6 0 0 1-6-6z"/><path id="wt9zc" d="M1147 1162.5v-27a6 6 0 1 1 12 0v27z"/><path id="wt9zd" d="M1147.39 1135.11a6 6 0 1 1 12 0 6 6 0 0 1-12 0z"/><path id="wt9ze" d="M1168.61 1113.89a6 6 0 1 1 12 0 6 6 0 0 1-12 0z"/><path id="wt9zf" d="M1164 1124.5a6 6 0 0 1 6-6h30a6 6 0 1 1 0 12h-30a6 6 0 0 1-6-6z"/><path id="wt9zg" d="M1168.39 1113.89a6 6 0 1 1 12 0 6 6 0 0 1-12 0z"/><path id="wt9zh" d="M1200.5 1139.5l4.5 4.5"/><path id="wt9zi" d="M1208.5 1147.5l.5.5"/><path id="wt9zj" d="M1206.5 1145.5l1.5 1.5"/><path id="wt9zk" d="M1206.5 1145.5l.5.5"/><path id="wt9zl" d="M1205.5 1144.5l.5.5"/><path id="wt9zm" d="M1208.5 1147.5l1.5 1.5"/><path id="wt9zn" d="M1141.5 1162.5h24a2 2 0 0 1 2 2v14h-28v-14a2 2 0 0 1 2-2z"/><path id="wt9zp" d="M1218.5 1165.5v13h-27v-13a2 2 0 0 1 2-2h23a2 2 0 0 1 2 2z"/><path id="wt9zr" d="M1188.5 1160.5a4 4 0 0 1 4-4h25a4 4 0 1 1 0 8h-25a4 4 0 0 1-4-4z"/><path id="wt9zs" d="M1212 1147a1 1 0 1 1 2 0 1 1 0 0 1-2 0z"/><path id="wt9zu" d="M1214 1144a1 1 0 1 1 2 0 1 1 0 0 1-2 0z"/><path id="wt9zw" d="M1209 1144a1 1 0 1 1 2 0 1 1 0 0 1-2 0z"/><path id="wt9zy" d="M1212 1141a1 1 0 1 1 2 0 1 1 0 0 1-2 0z"/><path id="wt9zA" d="M1139.5 1180h79"/><path id="wt9zB" d="M1195.5 1153.5h19"/><path id="wt9zC" d="M1195.5 1151.5h19"/><linearGradient id="wt9zo" x1="1139.5" x2="1167.5" y1="1170.5" y2="1170.5" gradientUnits="userSpaceOnUse"><stop offset="0" stop-color="#373e99"/><stop offset="1" stop-color="#662e91"/></linearGradient><linearGradient id="wt9zq" x1="1191.5" x2="1218.5" y1="1171" y2="1171" gradientUnits="userSpaceOnUse"><stop offset="0" stop-color="#373e99"/><stop offset="1" stop-color="#662e91"/></linearGradient><linearGradient id="wt9zt" x1="1212" x2="1214" y1="1147" y2="1147" gradientUnits="userSpaceOnUse"><stop offset="0" stop-color="#373e99"/><stop offset="1" stop-color="#662e91"/></linearGradient><linearGradient id="wt9zv" x1="1214" x2="1216" y1="1144" y2="1144" gradientUnits="userSpaceOnUse"><stop offset="0" stop-color="#373e99"/><stop offset="1" stop-color="#662e91"/></linearGradient><linearGradient id="wt9zx" x1="1209" x2="1211" y1="1144" y2="1144" gradientUnits="userSpaceOnUse"><stop offset="0" stop-color="#373e99"/><stop offset="1" stop-color="#662e91"/></linearGradient><linearGradient id="wt9zz" x1="1212" x2="1214" y1="1141" y2="1141" gradientUnits="userSpaceOnUse"><stop offset="0" stop-color="#373e99"/><stop offset="1" stop-color="#662e91"/></linearGradient></defs><g><g transform="translate(-1119 -1082)"><g><use fill="#fff" xlink:href="#wt9za"/><use fill="#fff" fill-opacity="0" stroke="#000" stroke-miterlimit="50" stroke-width="2" xlink:href="#wt9za"/></g><g transform="rotate(-45 1164 1124.5)"><use fill="#fff" xlink:href="#wt9zb"/><use fill="#fff" fill-opacity="0" stroke="#000" stroke-miterlimit="50" stroke-width="3" xlink:href="#wt9zb"/></g><g><use fill="#fff" xlink:href="#wt9zc"/><use fill="#fff" fill-opacity="0" stroke="#000" stroke-miterlimit="50" stroke-width="3" xlink:href="#wt9zc"/></g><g><use fill="#fff" xlink:href="#wt9zd"/><use fill="#fff" fill-opacity="0" stroke="#000" stroke-miterlimit="50" stroke-width="3" xlink:href="#wt9zd"/></g><g><use fill="#fff" xlink:href="#wt9ze"/><use fill="#fff" fill-opacity="0" stroke="#000" stroke-miterlimit="50" stroke-width="3" xlink:href="#wt9ze"/></g><g transform="rotate(-135 1185 1124.5)"><use fill="#fff" fill-opacity="0" stroke="#000" stroke-miterlimit="50" stroke-width="3" xlink:href="#wt9zf"/></g><g><use fill="#fff" xlink:href="#wt9zg"/><use fill="#fff" fill-opacity="0" stroke="#000" stroke-miterlimit="50" stroke-width="3" xlink:href="#wt9zg"/></g><g><use fill="#fff" fill-opacity="0" stroke="#000" stroke-miterlimit="50" stroke-width="3" xlink:href="#wt9zh"/></g><g><use fill="#fff" fill-opacity="0" stroke="#000" stroke-miterlimit="50" xlink:href="#wt9zi"/></g><g><use fill="#fff" fill-opacity="0" stroke="#000" stroke-miterlimit="50" xlink:href="#wt9zj"/></g><g><use fill="#fff" fill-opacity="0" stroke="#000" stroke-miterlimit="50" xlink:href="#wt9zk"/></g><g><use fill="#fff" fill-opacity="0" stroke="#000" stroke-miterlimit="50" xlink:href="#wt9zl"/></g><g><use fill="#fff" fill-opacity="0" stroke="#000" stroke-miterlimit="50" xlink:href="#wt9zm"/></g><g><use fill="url(#wt9zo)" xlink:href="#wt9zn"/></g><g><use fill="url(#wt9zq)" xlink:href="#wt9zp"/></g><g><use fill="#fff" xlink:href="#wt9zr"/><use fill="#fff" fill-opacity="0" stroke="#000" stroke-miterlimit="50" stroke-width="3" xlink:href="#wt9zr"/></g><g><use fill="url(#wt9zt)" xlink:href="#wt9zs"/></g><g><use fill="url(#wt9zv)" xlink:href="#wt9zu"/></g><g><use fill="url(#wt9zx)" xlink:href="#wt9zw"/></g><g><use fill="url(#wt9zz)" xlink:href="#wt9zy"/></g><g><use fill="#fff" fill-opacity="0" stroke="#000" stroke-miterlimit="50" stroke-width="3" xlink:href="#wt9zA"/></g><g><use fill="#fff" fill-opacity="0" stroke="#000" stroke-miterlimit="50" xlink:href="#wt9zB"/></g><g><use fill="#fff" fill-opacity="0" stroke="#000" stroke-miterlimit="50" xlink:href="#wt9zC"/></g></g></g></svg>