<svg xmlns="http://www.w3.org/2000/svg" xmlns:xlink="http://www.w3.org/1999/xlink" width="122" height="122" viewBox="0 0 122 122"><defs><path id="r9daa" d="M272 1203h-88c-13.255 0-24-10.745-24-24v-88a8 8 0 0 1 8-8h88c13.255 0 24 10.745 24 24v88a8 8 0 0 1-8 8z"/><path id="r9dab" d="M220 1099c-11 0-20 19.7-20 44s9 44 20 44 20-19.7 20-44-9-44-20-44zm0 3c4 0 8.2 4.06 11.41 11.13 3.59 7.93 5.59 18.54 5.59 29.87 0 11.33-2 21.94-5.59 29.87C228.2 1179.94 224 1184 220 1184s-8.2-4.06-11.41-11.13c-3.59-7.93-5.59-18.54-5.59-29.87 0-11.33 2-21.94 5.59-29.87C211.8 1106.06 216 1102 220 1102z"/><path id="r9dad" d="M242.664 1119c-8.82 0-19.92 2.62-31.11 7.84-22 10.27-36.1 26.71-31.43 36.73 2.3 4.95 8.69 7.43 17.22 7.43 8.82 0 19.92-2.62 31.11-7.84 22-10.27 36.1-26.71 31.43-36.73-2.3-4.95-8.69-7.43-17.22-7.43zm0 3c7.54 0 12.83 2.06 14.5 5.64 1.67 3.58-.21 9.15-5.26 15-5.67 6.61-14.44 12.9-24.72 17.69-10.45 4.95-21.05 7.67-29.84 7.67-7.54 0-12.83-2.06-14.5-5.64-1.67-3.58.21-9.15 5.26-15 5.67-6.61 14.44-12.9 24.72-17.69 10.45-4.95 21.05-7.67 29.84-7.67z"/><path id="r9dae" d="M242.664 1117c-8.82 0-19.92 2.62-31.11 7.84-22 10.27-36.1 26.71-31.43 36.73 2.3 4.95 8.69 7.43 17.22 7.43 8.82 0 19.92-2.62 31.11-7.84 22-10.27 36.1-26.71 31.43-36.73-2.3-4.95-8.69-7.43-17.22-7.43zm0 3c7.54 0 12.83 2.06 14.5 5.64 1.67 3.58-.21 9.15-5.26 15-5.67 6.61-14.44 12.9-24.72 17.69-10.45 4.95-21.05 7.67-29.84 7.67-7.54 0-12.83-2.06-14.5-5.64-1.67-3.58.21-9.15 5.26-15 5.67-6.61 14.44-12.9 24.72-17.69 10.45-4.95 21.05-7.67 29.84-7.67z"/><path id="r9dag" d="M180.12 1128.398c4.67-10 26.31-9.8 48.33.47 22.02 10.27 36.1 26.71 31.43 36.73"/><path id="r9dah" d="M197.345 1117c-8.52 0-14.92 2.45-17.22 7.37-4.67 10 9.4 26.46 31.43 36.73 11.2 5.25 22.29 7.9 31.11 7.9 8.52 0 14.92-2.45 17.22-7.37 4.67-10-9.4-26.46-31.43-36.73-11.2-5.25-22.29-7.9-31.11-7.9zm0 0v3c8.79 0 19.39 2.69 29.84 7.56 10.28 4.79 19 11.08 24.72 17.69 5 5.9 7 11.39 5.26 15-1.74 3.61-6.96 5.75-14.5 5.75-8.79 0-19.39-2.69-29.84-7.56-10.28-4.79-19-11.08-24.72-17.69-5.05-5.9-7-11.39-5.26-15 1.74-3.61 6.96-5.75 14.5-5.75v-3z"/><path id="r9daj" d="M233 1154a6 6 0 1 1 12 0 6 6 0 0 1-12 0z"/><path id="r9dal" d="M196 1131a6 6 0 1 1 12 0 6 6 0 0 1-12 0z"/><path id="r9dan" d="M214 1143a6 6 0 1 1 12 0 6 6 0 0 1-12 0z"/><linearGradient id="r9dac" x1="195.83" x2="244.17" y1="1167.17" y2="1118.83" gradientUnits="userSpaceOnUse"><stop offset="0" stop-color="#30409a"/><stop offset="1" stop-color="#662e91"/></linearGradient><linearGradient id="r9daf" x1="187.88" x2="252.12" y1="1131.31" y2="1154.69" gradientUnits="userSpaceOnUse"><stop offset="0" stop-color="#30409a"/><stop offset="1" stop-color="#662e91"/></linearGradient><linearGradient id="r9dai" x1="231.69" x2="208.31" y1="1175.12" y2="1110.88" gradientUnits="userSpaceOnUse"><stop offset="0" stop-color="#30409a"/><stop offset="1" stop-color="#662e91"/></linearGradient><linearGradient id="r9dak" x1="233" x2="245" y1="1154" y2="1154" gradientUnits="userSpaceOnUse"><stop offset="0" stop-color="#373e99"/><stop offset="1" stop-color="#662e91"/></linearGradient><linearGradient id="r9dam" x1="196" x2="208" y1="1131" y2="1131" gradientUnits="userSpaceOnUse"><stop offset="0" stop-color="#373e99"/><stop offset="1" stop-color="#662e91"/></linearGradient><linearGradient id="r9dao" x1="214" x2="226" y1="1143" y2="1143" gradientUnits="userSpaceOnUse"><stop offset="0" stop-color="#373e99"/><stop offset="1" stop-color="#662e91"/></linearGradient></defs><g><g transform="translate(-159 -1082)"><g><use fill="#fff" xlink:href="#r9daa"/><use fill="#fff" fill-opacity="0" stroke="#000" stroke-miterlimit="50" stroke-width="2" xlink:href="#r9daa"/></g><g><use fill="url(#r9dac)" xlink:href="#r9dab"/></g><g><use fill="#fff" xlink:href="#r9dad"/></g><g><use fill="url(#r9daf)" xlink:href="#r9dae"/></g><g><use fill="#fff" fill-opacity="0" stroke="#fff" stroke-miterlimit="50" stroke-width="2" xlink:href="#r9dag"/></g><g><use fill="url(#r9dai)" xlink:href="#r9dah"/></g><g><use fill="url(#r9dak)" xlink:href="#r9daj"/></g><g><use fill="url(#r9dam)" xlink:href="#r9dal"/></g><g><use fill="url(#r9dao)" xlink:href="#r9dan"/></g></g></g></svg>