<svg id="Layer_1" data-name="Layer 1" xmlns="http://www.w3.org/2000/svg" width="720.96" height="721" viewBox="0 0 720.96 721">
  <title>1</title>
  <g id="line1" opacity="0.24">
    <path d="M360.46,721A359,359,0,0,1,137.6,643.88l.62-.78A358,358,0,0,0,360.46,720ZM80.64,587.81A358.88,358.88,0,0,1,0,366.22l1,0a357.9,357.9,0,0,0,80.42,221ZM721,360.5h-1a360.56,360.56,0,0,0-12.91-95.81l1-.27A361.36,361.36,0,0,1,721,360.5ZM8.51,286.86l-1-.21A361.83,361.83,0,0,1,128.73,84.33l.65.76A360.8,360.8,0,0,0,8.51,286.86Zm668.9-96.16A361.94,361.94,0,0,0,504.62,31.07l.4-.91A362.87,362.87,0,0,1,678.29,190.23ZM195.69,40.9l-.46-.89A356.5,356.5,0,0,1,360.46,0a364.06,364.06,0,0,1,68.21,6.44l-.18,1a362.15,362.15,0,0,0-68-6.43A355.47,355.47,0,0,0,195.69,40.9Z" fill="#fff"/>
  </g>
</svg>
