<svg id="Layer_1" data-name="Layer 1" xmlns="http://www.w3.org/2000/svg" width="540.27" height="540.26" viewBox="0 0 540.27 540.26">
  <title>5</title>
  <g id="line6" opacity="0.48">
    <path d="M329.91,7.57A271,271,0,0,0,270.5,1V0a272.43,272.43,0,0,1,59.63,6.59Z" fill="#fff"/>
    <path d="M290.7,540.26l-.08-1a269.57,269.57,0,0,0,120.47-38.79l.53.85A270.65,270.65,0,0,1,290.7,540.26ZM165.29,519.78A272.37,272.37,0,0,1,63.13,444.2l.76-.64a271.31,271.31,0,0,0,101.79,75.29ZM501.43,411.43l-.85-.52a269.73,269.73,0,0,0,38.7-120.51l1,.07A270.52,270.52,0,0,1,501.43,411.43Zm17.34-246A271.44,271.44,0,0,0,443.39,63.75L444,63a272.26,272.26,0,0,1,75.66,102.09Z" fill="#fff"/>
    <path d="M6.59,330.13A272.36,272.36,0,0,1,0,270.5H1a271,271,0,0,0,6.57,59.41Z" fill="#fff"/>
  </g>
</svg>
