<svg id="Layer_1" data-name="Layer 1" xmlns="http://www.w3.org/2000/svg" width="500.2" height="500.21" viewBox="0 0 500.2 500.21">
  <title>6</title>
  <g id="line8" opacity="0.24">
    <path d="M1,249.71H0a252,252,0,0,1,7.12-59.56l1,.24A251,251,0,0,0,1,249.71Z" fill="#fff"/>
    <path d="M414,439.52l-.66-.76a251.12,251.12,0,0,0,68-94.27l.92.38A252.11,252.11,0,0,1,414,439.52ZM499.2,229.61a249.49,249.49,0,0,0-36.06-110.47l.86-.53a250.68,250.68,0,0,1,36.2,110.93ZM61.33,87l-.76-.66A252.2,252.2,0,0,1,155.17,18l.38.93A251.15,251.15,0,0,0,61.33,87ZM380.91,37A249.44,249.44,0,0,0,270.4,1l.08-1a250.65,250.65,0,0,1,111,36.12Z" fill="#fff"/>
    <path d="M250.5,500.21v-1a250.47,250.47,0,0,0,59.32-7.09l.24,1A251.45,251.45,0,0,1,250.5,500.21Z" fill="#fff"/>
  </g>
</svg>
