<svg id="Layer_1" data-name="Layer 1" xmlns="http://www.w3.org/2000/svg" width="520.25" height="520.23" viewBox="0 0 520.25 520.23">
  <title>7</title>
  <g id="line_7" data-name="line 7" opacity="0.24">
    <path d="M259.75,520.23a261.59,261.59,0,0,1-59.6-6.85l.23-1a261.26,261.26,0,0,0,59.37,6.82Z" fill="#fff"/>
    <path d="M91.31,458.45a262.2,262.2,0,0,1-72-98.35l.92-.38a261.34,261.34,0,0,0,71.74,98ZM1,239.83l-1-.07a260.5,260.5,0,0,1,37.48-116l.85.52A259.62,259.62,0,0,0,1,239.83Zm456.58-148a261.18,261.18,0,0,0-98-71.66l.38-.93a262.36,262.36,0,0,1,98.41,71.94ZM124.16,38.42l-.52-.85A260.66,260.66,0,0,1,239.56,0l.07,1A259.54,259.54,0,0,0,124.16,38.42Z" fill="#fff"/>
    <path d="M520.25,259.73h-1a260.71,260.71,0,0,0-6.83-59.37l1-.23A262.15,262.15,0,0,1,520.25,259.73Z" fill="#fff"/>
  </g>
</svg>
