<svg width="19" height="8" xmlns="http://www.w3.org/2000/svg" xmlns:xlink="http://www.w3.org/1999/xlink"><defs><path d="M266.242 653.752a1.333 1.333 0 0 1-1.507-2.2 1.333 1.333 0 0 1 1.507 2.2zm6.867-1.04a12.653 12.653 0 0 0-17.907 0 .64.64 0 0 0 0 .933.64.64 0 0 0 .933 0 11.36 11.36 0 0 1 5.76-3.08 3.227 3.227 0 0 0-1.746 2.747 3.72 3.72 0 0 0 4 3.333 3.707 3.707 0 0 0 4-3.333 3.213 3.213 0 0 0-1.734-2.747 11.267 11.267 0 0 1 5.747 3.08c.127.128.3.2.48.2a.667.667 0 0 0 .467-1.133z" id="a"/></defs><g transform="translate(-255 -649)"><use xlink:href="#a" fill="#292f30"/></g></svg>