<svg id="Layer_1" data-name="Layer 1" xmlns="http://www.w3.org/2000/svg" width="24" height="24" viewBox="0 0 24 24">
    <title>child-playgrounds</title>
    <circle cx="12" cy="12" r="12" fill="#fff"/>
    <path d="M19.73,14.38a.75.75,0,0,0-1.05.1,5.23,5.23,0,0,1-1,.79,7.62,7.62,0,0,1-.87-.87,7.38,7.38,0,0,1-1.25-2.06,1,1,0,0,1,.14-1.23.73.73,0,0,1,1,.22,4.83,4.83,0,0,1,.63,1.73A1.76,1.76,0,0,0,18.6,13a1.07,1.07,0,0,0,.57-1.19,7.51,7.51,0,0,0-.92-1,3,3,0,0,0-3.81-.54c-3,1.59-3.28-1.37-3.92-2.61A2.36,2.36,0,0,0,8.63,6.2L8.56,6a.92.92,0,0,0-.19-.25l-.2.11a1,1,0,0,0-.32.36,1.3,1.3,0,0,0-.54.24,1,1,0,0,0-.43.73S5,8.85,5.75,9.57,7.1,9,7.9,9s1.07,1.09.47,3a9.76,9.76,0,0,1-2,3.34,4.86,4.86,0,0,1-1-.82.75.75,0,0,0-1.15,1c.1.11,2.41,2.81,7.85,2.81s7.72-2.7,7.81-2.82A.75.75,0,0,0,19.73,14.38ZM7.55,15.93C7.92,14.84,9.74,14,11.93,14s4.07.85,4.4,2a11.65,11.65,0,0,1-4.31.76A11.56,11.56,0,0,1,7.55,15.93Z"/>
</svg>
