<svg id="Layer_1" data-name="Layer 1" xmlns="http://www.w3.org/2000/svg" width="24" height="24" viewBox="0 0 24 24">
    <title>rest</title>
    <circle cx="12" cy="12" r="12" fill="#fff"/>
    <path d="M12,5.43A6.57,6.57,0,1,0,18.57,12,6.57,6.57,0,0,0,12,5.43Zm2.63,3.64a1.18,1.18,0,1,1-1.18,1.18A1.17,1.17,0,0,1,14.63,9.07Zm-5.26,0A1.18,1.18,0,1,1,8.2,10.25,1.18,1.18,0,0,1,9.37,9.07Zm6.69,5.08a4.39,4.39,0,0,1-4,2.34A4.49,4.49,0,0,1,8,14.16a.5.5,0,0,1,.23-.67.52.52,0,0,1,.67.23A3.52,3.52,0,0,0,12,15.49a3.4,3.4,0,0,0,3.12-1.76.5.5,0,0,1,.91.42Z"/>
</svg>
