<svg id="Layer_1" data-name="Layer 1" xmlns="http://www.w3.org/2000/svg" width="24" height="24" viewBox="0 0 24 24">
    <title>shops</title>
    <circle cx="11.47" cy="12" r="12" fill="#4bb6de"/>
    <path fill="#ffffff" d="M10.19,15.57a1.34,1.34,0,1,0,1.34,1.33A1.34,1.34,0,0,0,10.19,15.57Z"/>
    <circle fill="#ffffff" cx="15.84" cy="16.93" r="1.36"/>
    <path fill="#ffffff"
          d="M18.53,9.44l-9.77,0C8.38,8.06,8.15,7,8.15,7l-.1-.44-2.67-.8A.75.75,0,0,0,5,7.18l1.83.55a32.32,32.32,0,0,0,2,6.07A2.46,2.46,0,0,0,11,15l.3,0,5.43-.83a.76.76,0,0,0,.62-.57l.18,0Z"/>
</svg>
