<svg id="Layer_1" data-name="Layer 1" xmlns="http://www.w3.org/2000/svg" width="24" height="24" viewBox="0 0 24 24">
    <title>transport</title>
    <circle cx="12" cy="12" r="12" fill="#fff"/>
    <circle cx="8" cy="15.25" r="1.5" fill="#010101"/>
    <circle cx="16" cy="15.25" r="1.5" fill="#010101"/>
    <path d="M18.5,7.25H5.5a1,1,0,0,0-1,1v6a1,1,0,0,0,1,1,2.5,2.5,0,0,1,5-.41.51.51,0,0,0,.51.41h2a.51.51,0,0,0,.51-.41,2.5,2.5,0,0,1,5,.41,1,1,0,0,0,1-1v-6A1,1,0,0,0,18.5,7.25Zm-12,4h-1v-3h1Zm4,0h-3v-3h3Zm4,0h-3v-3h3Zm4,0h-3v-3H18a.5.5,0,0,1,.5.5Z"
          fill="#010101"/>
</svg>
