<svg version="1.1" id="Layer_1" xmlns="http://www.w3.org/2000/svg" xmlns:xlink="http://www.w3.org/1999/xlink" x="0px" y="0px" viewBox="0 0 16 16" style="enable-background:new 0 0 16 16;" fill="#ffffff" xml:space="preserve">
    <path d="M6.2,12.2c-0.5-0.1-0.9-0.2-1.4-0.4c-0.4-0.2-0.8-0.4-1.2-0.7c-0.4-0.3-0.7-0.6-1-1C2.4,9.8,2.2,9.4,2,9
        C1.8,8.6,1.7,8.1,1.6,7.6c-0.1-0.5-0.1-1,0-1.4C1.7,5.7,1.8,5.3,2,4.8C2.2,4.4,2.4,4,2.7,3.7c0.3-0.4,0.6-0.7,1-1
        C4,2.4,4.4,2.2,4.8,2c0.4-0.2,0.9-0.3,1.4-0.4c0.5-0.1,1-0.1,1.4,0C8.1,1.7,8.6,1.8,9,2c0.4,0.2,0.8,0.4,1.2,0.7
        c0.2,0.1,0.4,0.3,0.5,0.5c0.2,0.2,0.3,0.3,0.5,0.5c0.3,0.4,0.5,0.8,0.7,1.2c0.2,0.4,0.3,0.9,0.4,1.4c0.1,0.5,0.1,1,0,1.4
        C12.2,8.1,12,8.6,11.9,9c-0.2,0.4-0.4,0.8-0.7,1.2c-0.3,0.4-0.6,0.7-1,1c-0.4,0.3-0.8,0.5-1.2,0.7c-0.4,0.2-0.9,0.3-1.4,0.4
        C7.2,12.3,6.7,12.3,6.2,12.2z M16,14.7l-3.5-3.5c0.3-0.4,0.6-0.9,0.8-1.4c0.2-0.5,0.4-0.9,0.5-1.4c0.1-0.5,0.2-1,0.1-1.5
        c0-0.5-0.1-1-0.2-1.5c-0.1-0.5-0.3-0.9-0.5-1.4c-0.3-0.7-0.8-1.4-1.4-2c0,0,0,0,0,0c-1.4-1.4-3.3-2.1-5.3-2c-2,0.1-3.8,1.1-5,2.6
        C1.2,3,0.9,3.4,0.7,3.9C0.5,4.3,0.3,4.8,0.2,5.3c-0.2,1-0.2,2-0.1,2.9c0.3,1.9,1.6,3.7,3.3,4.7c1.7,1,3.7,1.2,5.6,0.7
        c0.8-0.2,1.5-0.6,2.2-1.1l3.6,3.6L16,14.7z"/>
</svg>
