<svg xmlns="http://www.w3.org/2000/svg" xmlns:xlink="http://www.w3.org/1999/xlink" width="320" height="104.89" viewBox="0 0 320 104.89">
  <defs>
    <radialGradient id="radial-gradient" cx="87.14" cy="37.82" fx="55.99900289236612" fy="76.92071394207697" r="88.75" gradientUnits="userSpaceOnUse">
      <stop offset="0.22" stop-color="#662d91"/>
      <stop offset="0.59" stop-color="#662f90" stop-opacity="0"/>
    </radialGradient>
    <radialGradient id="radial-gradient-2" cx="51.84" cy="50.54" r="69.27" gradientTransform="matrix(1, 0, 0, -1, 0, 124)" gradientUnits="userSpaceOnUse">
      <stop offset="0.25" stop-color="#374ea2"/>
      <stop offset="0.7" stop-color="#374fa2" stop-opacity="0"/>
    </radialGradient>
    <radialGradient id="radial-gradient-3" cx="65.7" cy="55.06" r="46.01" gradientTransform="matrix(1, 0, 0, -1, 0, 124)" gradientUnits="userSpaceOnUse">
      <stop offset="0.34" stop-color="#32409a"/>
      <stop offset="1" stop-color="#643e98"/>
    </radialGradient>
  </defs>
  <title>Logo-white-text</title>
  <g style="isolation: isolate">
    <g id="Layer_1" data-name="Layer 1">
      <g>
        <path d="M146.82-29.93c-20.65-13.42-58,2.49-83.52,35.54-11.22,14.56-18.25,30-20.85,43.89-3.3,17.63.56,32.73,12.11,40.24a28.6,28.6,0,0,0,7.89,3.5c21.34,5.94,53.13-9.86,75.63-39C163.55,21.15,167.47-16.51,146.82-29.93Z" fill="url(#radial-gradient)"/>
        <path d="M72.17,71.85c-2-10.9-14.56-19.18-31-22a77.19,77.19,0,0,0-21.41-.64C-6.31,52-25.1,66.61-22.24,81.9s26.36,25.46,52.42,22.69c12.55-1.33,23.41-5.41,31-11C69.32,87.53,73.66,79.78,72.17,71.85Z" fill="url(#radial-gradient-2)"/>
        <path d="M72.17,71.85c-2-10.63-14-18.77-29.81-21.83-3.12,17.41.76,32.28,12.2,39.72A28.33,28.33,0,0,0,61.81,93C69.54,87.1,73.62,79.56,72.17,71.85Z" fill="url(#radial-gradient-3)"/>
      </g>
      <g style="mix-blend-mode: hard-light">
        <path d="M148.86,75.71l.24-.62a3.13,3.13,0,0,0,1.29.27c.6,0,1.16-.2,1.16-.77,0-1.17-2.54-.88-2.54-2.6,0-.89.78-1.31,1.64-1.31A3.07,3.07,0,0,1,152,71l-.22.57a3.21,3.21,0,0,0-1.13-.21c-.56,0-.91.22-.91.65,0,1,2.57.92,2.57,2.58,0,1-.9,1.49-1.94,1.49A3.05,3.05,0,0,1,148.86,75.71Z" fill="#fff"/>
        <path d="M153.28,71.93h.78v.32a1.93,1.93,0,0,1,1.08-.42c1.07,0,1.68.67,1.68,2,0,1.68-1,2.23-2,2.23a5.74,5.74,0,0,1-.72-.06v1.6h-.78Zm2.76,2c0-.81-.23-1.43-1.1-1.43a2.13,2.13,0,0,0-.88.3v2.55a4.24,4.24,0,0,0,.75.07C155.62,75.41,156,74.77,156,73.92Z" fill="#fff"/>
        <path d="M157.6,74c0-1.63.82-2.18,1.89-2.18s1.55.72,1.55,2v.27h-2.66c0,1.1.61,1.28,1.39,1.28a6.79,6.79,0,0,0,1-.16l.13.61a4.89,4.89,0,0,1-1.35.19C158.38,76,157.6,75.57,157.6,74Zm2.63-.42c0-.72-.26-1.2-.83-1.2s-1,.41-1,1.2Z" fill="#fff"/>
        <path d="M161.78,73.92a1.9,1.9,0,0,1,2-2.09,2.35,2.35,0,0,1,1.15.24l-.22.59a2,2,0,0,0-.93-.19c-.69,0-1.2.47-1.2,1.45s.3,1.46,1.41,1.46a4.53,4.53,0,0,0,.8-.1l.12.6a3.67,3.67,0,0,1-1,.14C162.41,76,161.78,75.4,161.78,73.92Z" fill="#fff"/>
        <path d="M165.57,70.68l.58-.58.6.58-.6.59Zm.2,1.25h.78v4h-.78Z" fill="#fff"/>
        <path d="M167.42,74.85c0-1,.9-1.21,1.61-1.21l.89,0v-.45c0-.56-.3-.67-.95-.67a4.64,4.64,0,0,0-1.07.18l-.15-.58a3.66,3.66,0,0,1,1.39-.27c1,0,1.53.31,1.53,1.14v2.1c0,.25.18.31.37.32l0,.6h-.17c-.37,0-.8-.13-.86-.48a2.21,2.21,0,0,1-1.34.5A1.08,1.08,0,0,1,167.42,74.85Zm2.5.19v-.92l-.87,0c-.56,0-.88.27-.88.64s.27.61.66.61A2.87,2.87,0,0,0,169.92,75Z" fill="#fff"/>
        <path d="M172,70.4h.78V76H172Z" fill="#fff"/>
        <path d="M175.68,70.74h3.08v.64h-2.28V73h2.12v.61h-2.12v1.67h2.45V76h-3.25Z" fill="#fff"/>
        <path d="M179.57,73.92a1.9,1.9,0,0,1,2-2.09,2.36,2.36,0,0,1,1.16.24l-.22.59a2.07,2.07,0,0,0-.94-.19c-.69,0-1.2.47-1.2,1.45s.31,1.46,1.42,1.46a4.8,4.8,0,0,0,.8-.1l.12.6a3.73,3.73,0,0,1-1,.14C180.2,76,179.57,75.4,179.57,73.92Z" fill="#fff"/>
        <path d="M183.23,74a1.92,1.92,0,0,1,1.94-2.15c1.27,0,1.88.78,1.88,2.11a1.86,1.86,0,0,1-1.93,2.1A1.81,1.81,0,0,1,183.23,74Zm3,0c0-.72-.22-1.5-1.12-1.5S184,73.22,184,74s.27,1.46,1.14,1.46S186.27,74.71,186.27,73.94Z" fill="#fff"/>
        <path d="M188,71.93h.77v.44a2.43,2.43,0,0,1,1.39-.54c1.21,0,1.29.79,1.29,1.55V76h-.77V73.49c0-.66-.1-1-.75-1a2.44,2.44,0,0,0-1.16.42v3H188Z" fill="#fff"/>
        <path d="M192.45,74a1.91,1.91,0,0,1,1.93-2.15c1.28,0,1.89.78,1.89,2.11a1.87,1.87,0,0,1-1.94,2.1A1.81,1.81,0,0,1,192.45,74Zm3,0c0-.72-.21-1.5-1.12-1.5s-1.12.78-1.12,1.51.27,1.46,1.14,1.46S195.48,74.71,195.48,73.94Z" fill="#fff"/>
        <path d="M197.25,71.93H198v.46a2.2,2.2,0,0,1,1.31-.56,1.11,1.11,0,0,1,1.12.6,2.36,2.36,0,0,1,1.44-.6c1.22,0,1.26.87,1.26,1.55V76h-.77V73.49c0-.59-.1-1-.73-1a2.13,2.13,0,0,0-1.11.42,2.22,2.22,0,0,1,0,.45V76h-.76V73.49c0-.6-.09-1-.73-1a2.17,2.17,0,0,0-1.07.43v3h-.78Z" fill="#fff"/>
        <path d="M204.16,70.68l.58-.58.59.58-.59.59Zm.2,1.25h.78v4h-.78Z" fill="#fff"/>
        <path d="M206.11,73.92a1.9,1.9,0,0,1,2-2.09,2.39,2.39,0,0,1,1.16.24l-.22.59a2.07,2.07,0,0,0-.94-.19c-.69,0-1.2.47-1.2,1.45s.3,1.46,1.42,1.46a4.8,4.8,0,0,0,.8-.1l.12.6a3.73,3.73,0,0,1-1,.14C206.74,76,206.11,75.4,206.11,73.92Z" fill="#fff"/>
        <path d="M211.22,75.33l2.66-3.92h-2.47v-.67h3.41v.57l-2.69,4H215V76h-3.76Z" fill="#fff"/>
        <path d="M215.55,74a1.91,1.91,0,0,1,1.93-2.15c1.28,0,1.89.78,1.89,2.11a1.87,1.87,0,0,1-1.94,2.1A1.81,1.81,0,0,1,215.55,74Zm3,0c0-.72-.21-1.5-1.12-1.5s-1.12.78-1.12,1.51.27,1.46,1.14,1.46S218.58,74.71,218.58,73.94Z" fill="#fff"/>
        <path d="M220.35,71.93h.77v.44a2.46,2.46,0,0,1,1.39-.54c1.22,0,1.29.79,1.29,1.55V76H223V73.49c0-.66-.11-1-.76-1a2.44,2.44,0,0,0-1.16.42v3h-.77Z" fill="#fff"/>
        <path d="M224.78,74c0-1.63.81-2.18,1.89-2.18s1.55.72,1.55,2v.27h-2.67c0,1.1.61,1.28,1.4,1.28a6.66,6.66,0,0,0,1-.16l.13.61a4.76,4.76,0,0,1-1.35.19C225.55,76,224.78,75.57,224.78,74Zm2.63-.42c0-.72-.26-1.2-.83-1.2s-1,.41-1,1.2Z" fill="#fff"/>
      </g>
      <g>
        <path d="M111,64.08a2.61,2.61,0,0,1,2.79-2.77,2.52,2.52,0,0,1,2.64,2.78,2.59,2.59,0,0,1-2.78,2.78A2.54,2.54,0,0,1,111,64.08Zm4.9,0a2.12,2.12,0,0,0-2.18-2.32,2.09,2.09,0,0,0-2.19,2.3,2.13,2.13,0,0,0,2.15,2.35A2.11,2.11,0,0,0,115.85,64.09Zm-1.66,1c-.09-.09-.49-.63-.53-.7l-.21,0h-.28v1.1h-.56V62.47h1.06c.62,0,1.07.25,1.07,1a.88.88,0,0,1-.55.85c.27.33.53.76,1,.89l-.1.41A1.21,1.21,0,0,1,114.19,65.11ZM113.48,64c.43,0,.68-.13.68-.53s-.17-.54-.58-.54h-.41V64Z" fill="#fff"/>
        <g>
          <path d="M40.93,73.18l-1.65-1.93c-.25,0-.52,0-.79,0H37.41v5H33.87V61.68h5.7c3.29,0,5.65,1.52,5.65,4.79a4.41,4.41,0,0,1-2.36,4L44.35,72a6.3,6.3,0,0,0,3.31,1.86l-.78,2.69C44,76.45,42.47,75,40.93,73.18Zm-2.32-4.37c2.1,0,3-.87,3-2.26s-.6-2.09-2.48-2.09h-1.7v4.35Z" fill="#fff"/>
          <path d="M48,70.36V61.68h3.57v8.56c0,2.23,1,3.48,3.25,3.48s3.25-1.31,3.25-3.92V61.68h3.46v8.19c0,5.11-3.44,6.72-6.71,6.72S48,75.1,48,70.36Z" fill="#fff"/>
          <path d="M62.45,75.52l1-2.53a10.27,10.27,0,0,0,3.87.66c1.77,0,2.57-.53,2.57-1.43,0-2.38-7-1.74-7-6.71,0-2.81,2.68-4,5.26-4a9.78,9.78,0,0,1,4.58,1l-1,2.45a10.66,10.66,0,0,0-3.46-.61c-1.47,0-1.93.56-1.93,1.18,0,2,7.08,2,7.08,6.61,0,3.21-3.06,4.45-6.08,4.45A9.68,9.68,0,0,1,62.45,75.52Z" fill="#fff"/>
          <path d="M74.13,75.52l1-2.53a10.29,10.29,0,0,0,3.88.66c1.76,0,2.56-.53,2.56-1.43,0-2.38-7-1.74-7-6.71,0-2.81,2.67-4,5.26-4a9.74,9.74,0,0,1,4.57,1l-1,2.45A10.66,10.66,0,0,0,80,64.31c-1.47,0-1.93.56-1.93,1.18,0,2,7.09,2,7.09,6.61,0,3.21-3.07,4.45-6.09,4.45A9.7,9.7,0,0,1,74.13,75.52Z" fill="#fff"/>
          <path d="M86.91,61.68h9.61v2.76H90.43v3.25h5.63v2.57H90.43v3.31H97v2.75H86.91Z" fill="#fff"/>
          <path d="M98.48,74l6.73-9.36H99V61.68h10.52v2.24l-6.81,9.48H110v2.92H98.48Z" fill="#fff"/>
        </g>
      </g>
      <g>
        <path d="M153.29,80.69l-2.15.8V87a1.43,1.43,0,0,1-1.52,1.54H148l-.73-1.62a5.7,5.7,0,0,0,1.47.17c.61,0,.92-.17.92-.52V82.08l-2.33.86-1-1.25,3.33-1.15V76.25H147V74.83h2.62V71.06h1.48v3.77h2v1.42h-2V80l2.15-.76Zm10.93,6.36-.95,1.3a13.73,13.73,0,0,1-5.11-2.72,15.56,15.56,0,0,1-5,2.8L152,87.14a13,13,0,0,0,5.06-2.54,13,13,0,0,1-2.52-4.51h-.95V78.66h3.71V75.43h-4V74h4V71h1.48v3h4.51v1.42H158.8v3.23h3.42a10.39,10.39,0,0,1-3,6A13.55,13.55,0,0,0,164.22,87.05Zm-3.8-7h-4.28a10.72,10.72,0,0,0,2.06,3.54A9.14,9.14,0,0,0,160.42,80.09Z" fill="#fff"/>
        <path d="M183.65,85.58l-1.05,1.19a12.08,12.08,0,0,1-3.79-3.35A16.51,16.51,0,0,1,175.88,77h-.43V88.43H174V77h-.43q-1.54,6.9-6.67,9.71l-1.05-1.14A13.12,13.12,0,0,0,172.11,77h-5.76V75.61H174V71.16h1.48v4.45H183V77h-5.73Q179.23,83.17,183.65,85.58Zm-2.85-11.2-1.14.92a7.45,7.45,0,0,0-3.08-2.68l1-1A7.88,7.88,0,0,1,180.8,74.38Z" fill="#fff"/>
        <path d="M193.33,75.75a59.23,59.23,0,0,1-5.2,6.37l.05,0,4.2-.88v1.31l-5.89,1.33-.68-1.31a25.5,25.5,0,0,0,1.88-2c.73-.86,1.26-1.47,1.58-1.83-.51.07-1.44.24-2.8.53L185.81,78a62.54,62.54,0,0,0,4.09-6.9l1.21.84q-2.06,3.66-3.43,5.73c.09,0,.46-.06,1.12-.17s1.21-.18,1.64-.21c.36-.48.91-1.28,1.66-2.4Zm-.41,9.32-6.25,2.41L185.83,86c1.18-.35,2.52-.8,4-1.35s2.53-.91,3-1.09ZM203,87.73H191.32V86.38h5v-4h-3.49V81h8.46v1.42h-3.48v4H203ZM203,80l-1,1a18.58,18.58,0,0,0-4.81-3,12.38,12.38,0,0,1-4.86,2.74l-1-1.26a12.67,12.67,0,0,0,7.53-6.2h-6.56V72h8.48v1.25a20.47,20.47,0,0,1-2.62,3.69A19,19,0,0,1,203,80Z" fill="#fff"/>
        <path d="M209.89,81q-1.77,5.17-3.81,7l-1.14-.9a17.23,17.23,0,0,0,3.6-6.7Zm-.58-2.63-1.06.9a10.51,10.51,0,0,0-3.19-2.93l.95-.88A10.21,10.21,0,0,1,209.31,78.41Zm.61-4.36-1.13.86a8.44,8.44,0,0,0-3.12-2.76l1-.9A10.86,10.86,0,0,1,209.92,74.05Zm12.92,5.33-1.07,1.35a17.4,17.4,0,0,1-5.58-2.19,14.6,14.6,0,0,1-5.8,2.15l-.89-1.31a15.1,15.1,0,0,0,5.44-1.68,18.93,18.93,0,0,1-2.63-3h-1.9V73.32h5a5,5,0,0,0-1.85-1.83l1-.72a7.26,7.26,0,0,1,2.18,2.12l-.84.4v0h5.89v1.36h-1.73a10.58,10.58,0,0,1-2.68,3A16.83,16.83,0,0,0,222.84,79.38Zm-8,2.89a6.16,6.16,0,0,1-3.95,6.06L210,87.1A5.34,5.34,0,0,0,211.8,86,5,5,0,0,0,213,84.41a4.91,4.91,0,0,0,.34-2V80.18h1.49Zm3.5-7.59h-4.44a16.87,16.87,0,0,0,2.28,2.2A8.51,8.51,0,0,0,218.35,74.68Zm1.11,13.54H218V80.28h1.48Z" fill="#fff"/>
        <path d="M232.15,80.54l-1.92.84v7h-1.49V82.06l-2.4,1-1.09-1.22,3.49-1.44v-4h-1.36a15.53,15.53,0,0,1-1.25,3l-1.38-.72A13,13,0,0,0,226.58,73l1.42.39c0,.45-.1,1-.21,1.64h1V71h1.49V75H232v1.43h-1.76v3.25l1.92-.75Zm10.08,1.7H240V86.5a1.76,1.76,0,0,1-.46,1.31,2.57,2.57,0,0,1-1.73.49h-1.44l-.65-1.5c.93.07,1.58.1,1.95.1.56,0,.84-.18.84-.53V82.24h-6.62V80.81h6.62V79.05H240v1.76h2.27Zm-.4-3.4h-9.59V77.41h3.94V74.79H233V73.36h3.21V70.84h1.49v2.52h3.47v1.43h-3.47v2.62h4.16Zm-5,6.14-1.13,1a7.34,7.34,0,0,0-3.1-2.46l1-1A7.6,7.6,0,0,1,236.83,85Z" fill="#fff"/>
        <path d="M261.56,87.08H247.41V88.2h-1.49V71.76h15v1.41h-13.5V85.68h14.15Zm-2-2.7-1.28.86a28,28,0,0,0-3.51-4.84,22.08,22.08,0,0,1-5.2,5l-1.15-1.25a18.79,18.79,0,0,0,5.36-4.87,37.15,37.15,0,0,0-5-4.53l1.12-.93A42.26,42.26,0,0,1,254.56,78a41.87,41.87,0,0,0,2.66-4.25l1.25.69c-.41.83-1.36,2.4-2.86,4.69A24.62,24.62,0,0,1,259.52,84.38Z" fill="#fff"/>
      </g>
      <g>
        <path d="M175.13,51.51,173.56,54a46,46,0,0,1-12.68-4,76.46,76.46,0,0,1-8.83,3.22,23.53,23.53,0,0,1-4.13.66l-1.59-2.36a34.4,34.4,0,0,0,12-3.15,28.57,28.57,0,0,1-6-6.33h-3.24V39.52h21.46v2.34a34.37,34.37,0,0,1-7.13,6.53A28.88,28.88,0,0,0,171,50.8Zm-.71,13.79H147.09V62.75h12.32V58.36h-9.27V55.92h9.27V52H162v3.94h9.32v2.44H162v4.39h12.4Zm-7.94-23.24H155.62a23.53,23.53,0,0,0,5.32,4.9A27.78,27.78,0,0,0,166.48,42.06Z" fill="#fff"/>
        <path d="M188.11,46.63a39.22,39.22,0,0,1-3.27,4.45V66.56H182.4V53.68a16.78,16.78,0,0,1-2.47,1.77L178,53.87a21.89,21.89,0,0,0,8.27-9Zm-1-7.65a23.25,23.25,0,0,1-6.7,8.16l-1.83-1.89a17.64,17.64,0,0,0,6.64-7.62ZM207.19,64.6l-1.76,2.05a27.48,27.48,0,0,1-7.4-4.74,29.25,29.25,0,0,1-7.31,4.82L189,64.83a24.27,24.27,0,0,0,7.31-4.55,20.32,20.32,0,0,1-3.85-8.1h-1.19q.18,9.1-3.88,14.28l-2.08-1.63a14.07,14.07,0,0,0,2.92-6,27,27,0,0,0,.61-4.84V42.25H196V37.54h2.5v4.71h7.67a25.63,25.63,0,0,1-1.74,6.3c-.15,0-.5-.14-1.07-.33s-1-.31-1.23-.37c.64-1.64,1-2.73,1.21-3.27h-4.78v5.25H204a18.58,18.58,0,0,1-4.54,10.39A23.25,23.25,0,0,0,207.19,64.6ZM196,49.83V44.58h-4.77v5.25Zm5.22,2.35h-6.42a16.37,16.37,0,0,0,3,6.3A18.44,18.44,0,0,0,201.26,52.18Z" fill="#fff"/>
        <path d="M220,46.74A26.28,26.28,0,0,1,217.35,51v15.6h-2.43V53.78A27.82,27.82,0,0,1,212,56.15l-2-1.44a21.88,21.88,0,0,0,8.15-9.59ZM219.6,39a26.25,26.25,0,0,1-7.12,8.43l-1.92-1.67a20.24,20.24,0,0,0,7-8.08Zm19.18,19.22h-4.35v5.42a2.78,2.78,0,0,1-.81,1.93,2.41,2.41,0,0,1-1.82.88h-3.21l-1-2.5a26.09,26.09,0,0,0,3.45.2c.64,0,1-.37,1-1.12V58.23H218.72V55.89H232v-2H220.52V51.57h16.94V53.9h-3v2h4.35ZM228.37,62l-1.64,1.77a12.85,12.85,0,0,0-5.88-3.64l1.53-1.58A12.72,12.72,0,0,1,228.37,62Zm7.46-12H221.32V39.29h14.51Zm-2.43-6.58v-1.8h-9.64v1.8Zm0,4.25V45.77h-9.64v1.92Z" fill="#fff"/>
        <path d="M251,38.59a29.57,29.57,0,0,1-1.34,3.69l-.94,2.08V57h-2.43V48a26.75,26.75,0,0,1-2.69,2.77L241.7,49.1a22.53,22.53,0,0,0,7.15-11.31ZM270.14,65h-27.7V62.64h12.65V60.31h-10V58h10V55.09h2.54V58h9.9v2.34h-9.9v2.33h12.51Zm.23-10.54L269,56.56a14.93,14.93,0,0,1-8-5.79l.06,6.12h-2.44V50.71q-2.42,3.76-8.26,5.69l-1.43-2q5-1.74,7.07-4.19h-5.57V47.94h8.19v-1.5h-6.05V39.26H267.1v7.18h-6v1.5h8.17v2.22h-5.6A14.63,14.63,0,0,0,270.37,54.45Zm-5.71-10.22V41.48h-9.6v2.75Z" fill="#fff"/>
        <path d="M302.25,44.3H289.69v4.28h9V60c0,1.87-.86,2.8-2.57,2.8h-2.88l-.83-2.47,2.85.13c.67,0,1-.24,1-.8V50.93h-6.54V66.56h-2.44V50.93H281V63.25h-2.47V48.58h8.74V44.3H274.82V42h12.43v-4h2.44v4h12.56Z" fill="#fff"/>
      </g>
    </g>
  </g>
</svg>
