<svg xmlns="http://www.w3.org/2000/svg" xmlns:xlink="http://www.w3.org/1999/xlink" width="160" height="160" viewBox="0 0 160 160"><defs><path id="oy2pa" d="M607.398 8469.607c29.11 29.11 75.63 29.796 111.318-5.892 35.687-35.687 35.002-82.209 5.892-111.32-29.11-29.11-75.637-29.801-111.325 5.886-35.687 35.688-35.002 82.21-5.885 111.326z"/><path id="oy2pb" d="M643.002 8419.629a2.534 2.534 0 0 1 2.824 2.145c.016.21.016.42 0 .63-.662 7.144 3.664 16.596 8.748 20.193a2.503 2.503 0 0 1 .79 3.451 2.506 2.506 0 0 1-3.453.79l-.178-.128c-7.118-5.065-11.798-15.468-10.91-24.775a2.5 2.5 0 0 1 2.179-2.306zm22.74-58.629C648.21 8380.355 632 8403.274 632 8423.806c0 20.533 15.113 37.194 33.742 37.194 18.629 0 33.742-16.645 33.742-37.194 0-20.548-16.21-43.451-33.742-62.806z"/><linearGradient id="oy2pc" x1="632" x2="699.48" y1="8411" y2="8411" gradientUnits="userSpaceOnUse"><stop offset="0" stop-color="#373e99"/><stop offset="1" stop-color="#662e91"/></linearGradient></defs><g><g transform="translate(-586 -8331)"><g><use fill="#fff" xlink:href="#oy2pa"/></g><g><use fill="url(#oy2pc)" xlink:href="#oy2pb"/></g></g></g></svg>