<svg xmlns="http://www.w3.org/2000/svg" xmlns:xlink="http://www.w3.org/1999/xlink" width="160" height="160" viewBox="0 0 160 160"><defs><path id="6ld1a" d="M981.398 8468.607c29.11 29.11 75.63 29.796 111.318-5.892 35.687-35.687 35.002-82.209 5.892-111.32-29.11-29.11-75.637-29.801-111.325 5.886-35.687 35.688-35.002 82.21-5.885 111.326z"/><path id="6ld1b" d="M1026.078 8423.395c0-17.311 14.023-31.01 16.427-33.224a.492.492 0 0 1 .693 0c2.405 2.214 16.428 15.913 16.428 33.224a39.598 39.598 0 0 1-3.433 15.488.37.37 0 1 0 .66.336c5.658-9.215 10.88-21.248 10.88-34.074 0-24.401-18.753-43.938-23.696-48.668a1.711 1.711 0 0 0-2.37 0c-4.943 4.73-23.697 24.267-23.697 48.724 0 12.871 5.222 24.859 10.88 34.074a.37.37 0 1 0 .66-.336 39.598 39.598 0 0 1-3.432-15.544z"/><path id="6ld1d" d="M1051.056 8430.501c0 8.052-6.206 15.063-7.828 16.774a.514.514 0 0 1-.76 0c-1.622-1.688-7.828-8.7-7.828-16.774 0-8.074 6.251-14.538 7.828-16.07a.526.526 0 0 1 .738 0c1.6 1.51 7.85 7.985 7.85 16.07z"/><path id="6ld1f" d="M1078.03 8428.748a.224.224 0 0 0-.234.38c3.5 2.483 5.513 5.368 5.513 8.455 0 9.26-18.094 16.83-40.46 16.83-22.365 0-40.459-7.57-40.459-16.774 0-3.087 2.013-5.972 5.513-8.454a.224.224 0 0 0-.235-.38c-6.653 3.242-10.668 7.492-10.668 12.189 0 10.5 20.532 19.01 45.85 19.01 25.317 0 45.849-8.51 45.849-19.01 0-4.697-4.015-8.947-10.668-12.246z"/><linearGradient id="6ld1c" x1="1017.97" x2="1067.73" y1="8397.7" y2="8397.7" gradientUnits="userSpaceOnUse"><stop offset="0" stop-color="#373e99"/><stop offset="1" stop-color="#662e91"/></linearGradient><linearGradient id="6ld1e" x1="1034.64" x2="1051.06" y1="8430.85" y2="8430.85" gradientUnits="userSpaceOnUse"><stop offset="0" stop-color="#373e99"/><stop offset="1" stop-color="#662e91"/></linearGradient><linearGradient id="6ld1g" x1="997" x2="1088.7" y1="8444.34" y2="8444.34" gradientUnits="userSpaceOnUse"><stop offset="0" stop-color="#373e99"/><stop offset="1" stop-color="#662e91"/></linearGradient></defs><g><g transform="translate(-960 -8330)"><use fill="#fff" xlink:href="#6ld1a"/></g><g transform="translate(-960 -8330)"><g><use fill="url(#6ld1c)" xlink:href="#6ld1b"/></g><g><use fill="url(#6ld1e)" xlink:href="#6ld1d"/></g><g><use fill="url(#6ld1g)" xlink:href="#6ld1f"/></g></g></g></svg>