<svg xmlns="http://www.w3.org/2000/svg" viewBox="0 0 403.5 69.3" class="b-kelnik__icon"><path d="M10.4 67.2c0 .4-.3.6-.6.6H.6c-.4 0-.6-.3-.6-.6V1.6c0-.3.3-.6.6-.6h9.1c.4 0 .6.3.6.6v65.6zM117.9 67.2c0 .4-.3.6-.7.6h-8.5c-.4 0-.6-.3-.6-.6V1.6c0-.3.3-.6.6-.6h8.5c.4 0 .7.3.7.6v65.6zM210.2 67.2c0 .4-.3.6-.6.6h-8.5c-.4 0-.6-.3-.6-.6V1.7c0-.4.3-.7.6-.7h8.5c.4 0 .6.3.6.7v65.5zM190.8 67.2c0 .4-.3.6-.6.6h-8.5c-.4 0-.6-.3-.6-.6V19.5c0-.4.3-.6.6-.6h8.5c.4 0 .6.3.6.6v47.7zM190.8 10.3c0 .4-.3.6-.6.6h-8.5c-.4 0-.6-.3-.6-.6V1.7c0-.4.3-.7.6-.7h8.5c.4 0 .6.3.6.7v8.6zM24.9 34.4c3.9-4.5 28-31.8 28.6-32.5.3-.3 0-.9-.4-.9H42c-.3 0-.6.2-.9.6L16.3 30.1v8.6l24.9 28.5c.3.3.6.6.9.6H54c.3 0 .7-.6.4-.9-.7-.6-25.9-28.5-29.5-32.5zM223.1 42.7c5-5.9 18.6-22.3 19.2-23 .3-.3-.1-.9-.4-.9h-9.4c-.3 0-.6.2-.9.6l-15.5 19V47l16.3 20.2c.3.4.6.6.9.6h10.2c.4 0 .7-.6.4-.9-.6-.6-8.3-9.1-20.8-24.2zM149.7 17.6c-5.9 0-22.2 0-22.2 22.2v27.3c0 .4.3.6.6.6h8.5c.4 0 .6-.3.6-.6V38.8c0-12.8 8.8-12.7 12.2-12.7 3.3 0 12.2.1 12.2 12.7v28.4c0 .4.3.6.6.6h8.5c.4 0 .7-.3.7-.6V39.8c0-22.2-15.6-22.2-21.7-22.2zM93.6 24.2c-4-4.5-9.3-6.6-16.2-6.6-7.1 0-12.5 2.1-16.5 6.7-4.1 4.6-6.1 10.9-6.1 19 0 8.2 2.1 14.6 6.1 19.2 4 4.7 9.3 6.6 16.3 6.6 5.6 0 10.2-1.2 14.2-4.3 3.9-3 6.3-7 7.3-11.9v-.1c.1-.4-.4-.4-.4-.4h-9c-.6 2.5-1.9 4.8-3.8 6.2-1.9 1.4-4.9 2.3-7.7 2.3-3.9 0-7.4-1.4-9.6-3.8-2.2-2.4-3.8-6.3-3.7-10.9h33.8c.7 0 1-.4 1-1 .1-1.5.1-2 .1-2.6.1-7.8-1.9-13.9-5.8-18.4zm-29 14.6c.3-4.1 1.8-7.5 3.8-9.7 2-2.1 5.3-3.4 8.8-3.4 3.7 0 7.3 1.3 9.3 3.4 2 2.2 3.3 5.6 3.3 9.6H64.6z"/><g><path d="M355.2 56.3c0-1.2-.8-2.7-1.8-3.3l-20-14.2c-1-.7-1.8-.2-1.8.9v25.8c0 1.2 1 2.1 2.1 2.1H353c1.2 0 2.1-1 2.1-2.1l.1-9.2zM285 2.1c0-1.2 1-2.1 2.2-2.1h17.6c1.2 0 2.1 1 2.1 2.1v63.4c0 1.2-1 2.1-2.1 2.1h-17.6c-1.2 0-2.2-1-2.2-2.1V2.1zM355.2 11.4c0 1.2-.8 2.7-1.8 3.3l-20 14.2c-1 .7-1.8.2-1.8-.9V2.1c0-1.2 1-2.1 2.1-2.1H353c1.2 0 2.1 1 2.1 2.1l.1 9.3zM403.4 56.3c0-1.2-.8-2.7-1.8-3.3l-20-14.2c-.9-.7-1.8-.2-1.8.9v25.8c0 1.2 1 2.1 2.1 2.1h19.2c1.2 0 2.1-1 2.1-2.1l.2-9.2zM403.4 11.4c0 1.2-.8 2.7-1.8 3.3l-20 14.2c-.9.7-1.8.2-1.8-.9V2.1c0-1.2 1-2.1 2.1-2.1h19.2c1.2 0 2.1 1 2.1 2.1l.2 9.3z"/></g></svg>