<svg id="SVGDoc" width="13" height="18" xmlns="http://www.w3.org/2000/svg" version="1.1" xmlns:xlink="http://www.w3.org/1999/xlink" xmlns:avocode="https://avocode.com/" viewBox="0 0 13 18"><defs><path d="M45.5,586c-3.58992,0 -6.5,2.74381 -6.5,6.12851c0,5.2774 6.5,11.23569 6.5,11.23569c0,0 6.5,-6.29873 6.5,-11.23569c0,-3.3847 -2.91008,-6.12851 -6.5,-6.12851M45.4539,595.61938c-1.69995,0 -3.07813,-1.38037 -3.07813,-3.08314c0,-1.70277 1.37818,-3.08313 3.07813,-3.08313c1.69995,0 3.07814,1.38036 3.07814,3.08313c0,1.70277 -1.37819,3.08314 -3.07814,3.08314" id="Path-0"/><radialGradient id="RadialGradient1036" gradientUnits="userSpaceOnUse" cx="41.378466796875" cy="601.7206328124998" r="15.8456470831935"><stop stop-opacity="1" stop-color="#30409a" offset="0"></stop><stop stop-opacity="1" stop-color="#662e91" offset="1"></stop></radialGradient></defs><desc>Generated with Avocode.</desc><g transform="matrix(1,0,0,1,-39,-586)"><g><title>Fill 3</title><use xlink:href="#Path-0" fill="url(#RadialGradient1036)"/></g></g></svg>