<svg width="63" height="64" xmlns="http://www.w3.org/2000/svg" xmlns:xlink="http://www.w3.org/1999/xlink"><defs><path id="a" d="M0 0v63.277h62.05V0z"/></defs><g transform="translate(0 .668)" fill="none" fill-rule="evenodd" opacity=".7"><mask id="b" fill="#fff"><use xlink:href="#a"/></mask><path d="M24.334 54.219l13.273-11.136-8.665 15.001a20.507 20.507 0 0 1-4.608-3.865zm-3.498-5.545c-.066-.154-.13-.31-.19-.465l16.315-5.945-13.298 11.157a20.3 20.3 0 0 1-2.828-4.747zm4.216-22.12l.168-.17.05-.05.084-.082a18.6 18.6 0 0 1 1.143-1.024 20.174 20.174 0 0 1 2.447-1.77l8.678 15.025L24.33 27.329c.235-.265.475-.524.723-.776zm10.454-5.679l3.005 17.062-8.665-15.002a20.096 20.096 0 0 1 5.66-2.06zm13.73 2.063l-8.667 15.027 3.02-17.086a20.066 20.066 0 0 1 5.647 2.059zm4.25 3.081l.015.015a20.308 20.308 0 0 1 1.252 1.296L41.485 38.463l8.653-15.002a20.377 20.377 0 0 1 2.453 1.772c.273.225.542.46.806.704l.088.082zM19.251 40.06l.005-.146.004-.081a20.437 20.437 0 0 1 .023-.417v-.01a20.148 20.148 0 0 1 1.003-5.083l16.296 5.926H19.246l.002-.08.004-.108zm-.001 1.4v-.011l-.005-.157h17.34l-16.298 5.938a19.717 19.717 0 0 1-.142-.44l-.007-.023a20.237 20.237 0 0 1-.888-5.308zm10.594 17.147l8.676-15.02-3.013 17.084a20.144 20.144 0 0 1-5.663-2.064zm18.464.482a20.045 20.045 0 0 1-.474.22l-.042.019a20.311 20.311 0 0 1-4.204 1.342l-3.012-17.08 8.665 15.022c-.292.16-.588.311-.887.455l-.046.022zm6.32-4.729a20.424 20.424 0 0 1-4.485 3.73l-8.643-14.986L54.752 54.22l-.123.138zm5.204-12.905a20.224 20.224 0 0 1-1.037 5.775l-16.3-5.938h17.341l-.004.16v.003zm-.033-2.036a20.566 20.566 0 0 1 .032.64l.003.112.002.078H42.501l16.295-5.926A20.149 20.149 0 0 1 59.8 39.4v.018zm-3.575-10.214l.067.095.098.145.021.032.112.167.006.01a20.257 20.257 0 0 1 1.91 3.69l-16.29 5.924 13.275-11.139c.259.324.507.656.745.995l.056.08zm-15.59-8.698a19.328 19.328 0 0 1 .243.014l.06.004.182.013.063.005.18.015.062.006a20.87 20.87 0 0 1 .338.033l.123.014.165.02.058.007c.062.007.123.015.184.024l.035.004a20.302 20.302 0 0 1 .21.03l.025.004-2.13 12.049V20.497h.009l.193.01zm-2.822.042l.176-.014.063-.004a20.255 20.255 0 0 1 .544-.032V32.41l-2.063-11.714c.42-.062.842-.11 1.266-.147h.014zm-14.233 7.68l.079-.1 13.276 11.139-16.29-5.924a20.304 20.304 0 0 1 2.92-5.097l.015-.019zM39.33 61.07h-.023a20.883 20.883 0 0 1-.228-.004 20.366 20.366 0 0 1-2.544-.217l3.014-17.091 3.013 17.09c-.77.115-1.55.186-2.335.212h-.004l-.215.006h-.023l-.207.003h-.025a20.59 20.59 0 0 1-.423 0zm18.75-12.008a20.843 20.843 0 0 1-.22.474l-.021.046a20.32 20.32 0 0 1-2.416 3.84l-13.3-11.159 16.316 5.945c-.108.273-.22.544-.34.812l-.019.042zm-46.214 10.91l-2.085-3.618 3.623 2.081a6.167 6.167 0 0 1-1.538 1.537zm-6.121.522l2.081-3.613v4.168a6.082 6.082 0 0 1-2.081-.555zM4.84 49.873l2.082 3.623-3.618-2.085a6.173 6.173 0 0 1 1.536-1.538zm4.028 3.126v-4.203a6.121 6.121 0 0 1 2.094.558L8.87 52.999zm3.018-3.107c-.402.974-.8 1.787-1.168 2.392l-.005.007a8.625 8.625 0 0 1-.095.153l-.024.036-.02.031-.023.034-.02.03a6.138 6.138 0 0 1-.234.322l-.005.007-.049.06-.003.004-.023.029-.01.01a3.548 3.548 0 0 1-.017.021l-.014.016-.013.015a4.067 4.067 0 0 1-.049.056l-.003.004a3.71 3.71 0 0 1-.051.055l-.001.001c-.07.075-.139.141-.206.201l2.011-3.5.022.016zm1.003.885c.185.201.355.414.51.636l-1.084.623c.189-.381.38-.801.574-1.26zM8.87 56.859l2.094 3.634a6.113 6.113 0 0 1-2.094.557V56.86zm-2.626-7.714c.024-.01.048-.018.072-.026.488-.172.993-.28 1.511-.323v4.18l-2.082-3.624a6.17 6.17 0 0 1 .499-.207zm-3.459 3.17l3.635 2.094H2.227a6.113 6.113 0 0 1 .557-2.094zM2.253 55.7a6.16 6.16 0 0 1-.026-.249h4.168l-3.613 2.082a6.08 6.08 0 0 1-.53-1.833zm1.912 3.729a6.243 6.243 0 0 1-.862-.993l3.63-2.091-2.092 3.63a6.152 6.152 0 0 1-.676-.546zm9.855-2.108c-.03.071-.062.142-.095.212l-3.623-2.082h4.179a6.077 6.077 0 0 1-.46 1.87zm.446-3.06a5.978 5.978 0 0 1 .015.148h-3.755c.164-.156.321-.332.475-.53l2.72-1.563c.286.609.472 1.265.545 1.945zm47.135-17.98a22.386 22.386 0 0 0-3.322-7.982 22.662 22.662 0 0 0-5.971-6.062 22.385 22.385 0 0 0-11.875-3.947v-.518h.007a202.82 202.82 0 0 1 .207 0h.099a127.503 127.503 0 0 1 1.163.013 41.71 41.71 0 0 1 2.327.054l.072.004c.598.031 1.275.072 2.016.16.195.022.395.048.599.078h.006a41.623 41.623 0 0 1 3.012.541c.26.056.502.11.715.157.558.124.962.214 1.272.236l.018.001.065.002h.049l.018-.001.019-.001.018-.001.018-.001a1.818 1.818 0 0 0 .088-.009l.017-.002.017-.003.016-.002a1.152 1.152 0 0 0 .032-.006l.017-.004.015-.003.016-.004.015-.004.015-.004.016-.004.014-.005.016-.005.013-.004a.903.903 0 0 0 .025-.01l.012-.004.018-.007.011-.006.015-.006.012-.006.014-.007.011-.006.014-.007.01-.007a.724.724 0 0 0 .014-.008l.01-.007a.624.624 0 0 0 .035-.024l.01-.007a.697.697 0 0 0 .072-.064l.008-.009.01-.01.008-.01.01-.011.007-.01.01-.012.007-.01.009-.013.006-.009a.67.67 0 0 0 .01-.015l.004-.008a.67.67 0 0 0 .026-.046l.004-.01.003-.005a.626.626 0 0 0 .054-.19v-.005l.002-.01a.684.684 0 0 0-.092-.41.9.9 0 0 0-.019-.033l-.002-.003a.96.96 0 0 0-.088-.12l-.002-.002a.795.795 0 0 0-.01-.013l-.002-.002-.009-.01-.004-.004-.007-.007-.007-.007-.006-.006-.008-.008-.005-.005-.01-.01-.002-.001a.978.978 0 0 0-.013-.012l-.005-.004a1.037 1.037 0 0 0-.028-.024c-.13-.107-.314-.208-.595-.31h-.003a4.322 4.322 0 0 0-.073-.026l-.02-.006-.02-.007-.017-.006-.023-.007-.013-.005-.029-.009-.006-.002a6.32 6.32 0 0 0-.08-.024l-.032-.01a11.672 11.672 0 0 0-.996-.236l-.016-.002a20.929 20.929 0 0 0-.132-.026 26.822 26.822 0 0 0-1.065-.176l-.008-.002-.43-.062-.051-.007-.04-.006-.05-.007-.042-.006-.061-.008-.032-.004-.06-.008-.033-.005a54.75 54.75 0 0 0-4.132-.401h-.002a40.044 40.044 0 0 0-3.35-.045v-4.06a.52.52 0 0 0-.187-.4c1.667-2.139 2.29-4.367 1.754-6.352-.29-1.076-.906-2.036-1.829-2.854-.932-.826-2.158-1.485-3.644-1.958l-.003-.001C36.196.343 35.074.207 33.837.26a1.738 1.738 0 0 0-.524-.213c-.342-.071-.737-.05-1.193-.024l-.252.014-.148.007c-.532.026-1.136.055-1.62.12a.517.517 0 0 0-.016.003c-.634.105-1.062.297-1.309.585-.308.36-.337.864-.073 1.286a.542.542 0 0 0 .012.019c.219.318.61.559 1.101.677.006 0 .01.002.016.003.202.042.414.059.645.059.214 0 .443-.014.695-.036.488-.04 1.092-.108 1.614-.18.564-.077.985-.17 1.275-.37a8.451 8.451 0 0 1 2.27.288l.052.014c2.24.613 3.73 1.637 4.343 2.978.066.145.122.293.167.444.178.592.2 1.235.068 1.92a5.204 5.204 0 0 1-.084.36 6.05 6.05 0 0 1-.143.462c-.349.983-.976 2.006-1.866 3.045h-.475a.521.521 0 0 0-.52.52v4.281c-1.616.169-3.106.363-4.517.684h-.003-.002c-.397.089-.78.186-1.15.294a1.06 1.06 0 0 0-.168-.36 1.302 1.302 0 0 0-.817-.523c.282-.41.438-.812.472-1.216.062-.526-.132-.956-.548-1.21a.496.496 0 0 0-.01-.006c-.289-.167-.802-.324-1.606-.123a.678.678 0 0 0-.011.003c-.57.157-1.235.502-1.939.867l-.12.062-.003.002c-.699.37-1.447.746-2.242.939-.74.166-1.567.181-2.528.046a16.208 16.208 0 0 1-3.697-1.06c-.44-.175-.855-.34-1.251-.446a3.334 3.334 0 0 0-1.008-.134 1.863 1.863 0 0 0-.987.306c-.539.377-.91 1.088-.946 1.81-.032.623.2 1.266.653 1.81.368.444.884.808 1.67 1.178l.004.002a12.73 12.73 0 0 0 2.79.914c.787.147 1.68.227 2.483.227.19 0 .373-.004.55-.013a9.472 9.472 0 0 0 1.42-.16c-.373.295-.72.6-1.02.864l-.008.006c-.477.393-.81.671-1.084.945-.345.345-.55.654-.628.946a.515.515 0 0 0-.009.038c-.074.399.064.744.346.927a21.963 21.963 0 0 0-3.443 4.867c-.688 1.327-1.247 2.77-1.73 4.243l-.016.051-.045.139-.036.11-.047.149-.032.1-.031.102-.046.147-.001.003-.075.247-.02.066-.055.184-.012.038a83.515 83.515 0 0 0-.617 2.201 128 128 0 0 0-.209.777c-.207.781-.413 1.58-.627 2.415-.463 1.802-.941 3.659-1.46 5.395a61.616 61.616 0 0 1-.775 2.41 8.317 8.317 0 0 0-4.334-1.203 8.316 8.316 0 0 0-5.903 2.444A8.316 8.316 0 0 0 0 54.93a8.316 8.316 0 0 0 2.444 5.903 8.316 8.316 0 0 0 5.903 2.444 8.316 8.316 0 0 0 5.903-2.444 8.316 8.316 0 0 0 2.445-5.903 8.31 8.31 0 0 0-.883-3.75 8.43 8.43 0 0 0-2.077-2.636 62.688 62.688 0 0 0 .816-2.54l.004-.013.104-.351.01-.036.043-.148c.054-.184.106-.369.159-.554l.01-.036.146-.523v-.001c.345-1.248.673-2.524.994-3.773l.212-.82a357.41 357.41 0 0 1 .216-.836 149 149 0 0 1 .405-1.523v-.002a66.245 66.245 0 0 1 1.013-3.468c.468-1.431 1.01-2.829 1.67-4.103 1.032-2.002 2.434-3.867 4.168-5.542l.003-.004a23.768 23.768 0 0 1 .567-.539l.058-.053.087-.08.027-.024.12-.107.005-.005c.096-.086.193-.17.29-.255l.01-.007a25.027 25.027 0 0 1 3-2.22l.005-.003.16-.1.017-.01.15-.092.04-.024c.041-.026.083-.051.126-.076l.052-.031.114-.067.071-.041.096-.056a17.995 17.995 0 0 1 5.116-1.963l.052-.011.104-.023.062-.012.095-.02.067-.013a26.21 26.21 0 0 1 .413-.08l.067-.011.098-.018.062-.01.11-.02.051-.008.161-.027.034-.005.129-.02.06-.01.103-.016.068-.01.096-.015.07-.01a39.918 39.918 0 0 1 .26-.037l.071-.01.097-.013.069-.009.102-.013.063-.009.121-.015.045-.006.165-.02.046-.006.12-.014.065-.008.103-.012.069-.008a58.737 58.737 0 0 1 .267-.03l.07-.008.1-.011.068-.008.103-.01.063-.008.116-.012.05-.005.162-.017h.005l.172-.019c.01 0 .018-.002.028-.003l.14-.014.047-.005.088-.009v.451a22.412 22.412 0 0 0-11.842 3.968 22.655 22.655 0 0 0-5.95 6.058 22.372 22.372 0 0 0-3.756 12.453A22.407 22.407 0 0 0 20.89 53.35a22.675 22.675 0 0 0 6.074 6.08 22.367 22.367 0 0 0 12.577 3.846 22.39 22.39 0 0 0 12.582-3.846 22.687 22.687 0 0 0 6.08-6.08A22.391 22.391 0 0 0 62.05 40.77c0-1.51-.15-3.02-.448-4.488z" fill="#000" mask="url(#b)"/></g></svg>