<svg data-name="Layer 1" xmlns="http://www.w3.org/2000/svg" xmlns:xlink="http://www.w3.org/1999/xlink" width="64" height="64"><defs><clipPath id="b"><circle cx="32" cy="32" r="32" fill="none"/></clipPath><linearGradient id="c" x1="14.76" y1="2.63" x2="33.85" y2="13.78" gradientTransform="matrix(1 0 0 -1 -7 27)" gradientUnits="userSpaceOnUse"><stop offset="0" stop-color="#a52a22" stop-opacity=".6"/><stop offset=".66" stop-color="#a52a22" stop-opacity="0"/></linearGradient><linearGradient id="d" x1="44.41" y1="-29.91" x2="23.2" y2="-17.48" gradientTransform="matrix(1 0 0 -1 -7 27)" gradientUnits="userSpaceOnUse"><stop offset="0" stop-color="#0d562b" stop-opacity=".4"/><stop offset=".33" stop-color="#0d562b" stop-opacity="0"/></linearGradient><clipPath id="e"><path fill="none" d="M0 64h30.46L44.6 49.86V39.27H19.4L0 5.99V64z"/></clipPath><linearGradient id="f" x1="48.4" y1="11.8" x2="53.74" y2="-11.59" gradientTransform="matrix(1 0 0 -1 -7 27)" gradientUnits="userSpaceOnUse"><stop offset="0" stop-color="#e86324" stop-opacity=".3"/><stop offset=".66" stop-color="#e86324" stop-opacity="0"/></linearGradient><clipPath id="g"><path fill="none" d="M32 17.45l12.6 21.82L30.46 64H64V17.45H32z"/></clipPath><radialGradient id="a" cx="613.61" cy="9.56" r="30.57" gradientTransform="matrix(1 0 0 -1 -583 27)" gradientUnits="userSpaceOnUse"><stop offset="0" stop-color="#3e2823" stop-opacity=".2"/><stop offset="1" stop-color="#3e2823" stop-opacity="0"/></radialGradient><clipPath id="h"><path fill="none" d="M5.08 0v14.67l14.32 24.6L32 17.45h32V0H5.08z"/></clipPath><radialGradient id="i" cx="588.05" cy="12.27" r="28.38" xlink:href="#a"/><radialGradient id="j" cx="614.94" cy="-5.05" r="31.95" gradientTransform="matrix(1 0 0 -1 -583 27)" gradientUnits="userSpaceOnUse"><stop offset="0" stop-color="#273339" stop-opacity=".2"/><stop offset="1" stop-color="#273339" stop-opacity="0"/></radialGradient><radialGradient id="k" cx="16.56" cy="18.27" r="64.27" gradientTransform="matrix(1 0 0 -1 -7 27)" gradientUnits="userSpaceOnUse"><stop offset="0" stop-color="#fff" stop-opacity=".1"/><stop offset="1" stop-color="#fff" stop-opacity="0"/></radialGradient></defs><g clip-path="url(#b)"><path d="M5.08 0v39.27H19.4L32 17.45h32V0z" fill="#dc4537"/><path d="M5.08 0v39.27H19.4L32 17.45h32V0z" fill="url(#c)"/></g><g clip-path="url(#b)"><path d="M19.75 39.15L5.27 14.31l-.22.36 14.38 24.65z" fill="#3e2823" fill-opacity=".15"/></g><g clip-path="url(#b)"><path d="M0 64h30.46L44.6 49.86V39.27H19.4L0 6z" fill="#0f9d58"/><path d="M0 64h30.46L44.6 49.86V39.27H19.4L0 6z" fill="url(#d)"/></g><g clip-path="url(#b)"><path d="M44.31 39.76l-.31-.18L30 64h.42l13.9-24.23z" fill="#273339" fill-opacity=".15"/></g><g clip-path="url(#b)"><g clip-path="url(#e)"><path d="M32 17.45l12.6 21.82L30.46 64H64V17.45z" fill="#ffce41"/><path d="M32 17.45l12.6 21.82L30.46 64H64V17.45z" fill="url(#f)"/></g><g clip-path="url(#b)"><path d="M32 17.45l12.6 21.82L30.46 64H64V17.45z" fill="#ffce41"/><path d="M32 17.45l12.6 21.82L30.46 64H64V17.45z" fill="url(#f)"/></g><g clip-path="url(#b)"><g clip-path="url(#g)"><path d="M5.08 0v39.27H19.4L32 17.45h32V0z" fill="#dc4537"/><path d="M5.08 0v39.27H19.4L32 17.45h32V0z" fill="url(#c)"/></g><g clip-path="url(#b)"><path d="M32 17.45v7.62l28.51-7.62z" fill="url(#a)"/></g><g clip-path="url(#b)"><g clip-path="url(#h)"><path d="M0 64h30.46L44.6 49.86V39.27H19.4L0 6z" fill="#0f9d58"/><path d="M0 64h30.46L44.6 49.86V39.27H19.4L0 6z" fill="url(#d)"/></g><g clip-path="url(#b)"><path d="M5.08 14.71L25.9 35.52l-6.5 3.75z" fill="url(#i)"/></g><g clip-path="url(#b)"><path d="M30.48 64l7.63-28.44 6.49 3.75z" fill="url(#j)"/></g><g clip-path="url(#b)"><circle cx="32" cy="32" r="14.55" fill="#f2f2f2"/><circle cx="32" cy="32" r="11.64" fill="#557ebf"/></g><g clip-path="url(#b)"><path d="M32 17.09a14.55 14.55 0 0 0-14.55 14.55V32A14.56 14.56 0 0 1 32 17.45h32v-.36z" fill="#3e2823" fill-opacity=".2"/><path d="M44.58 39.27a14.52 14.52 0 0 1-25.17 0L0 6v.37l19.4 33.27a14.53 14.53 0 0 0 25.17 0v-.37z" fill="#fff" fill-opacity=".1"/><path d="M32.36 17.45h-.18a14.53 14.53 0 0 1 0 29.06h.18a14.55 14.55 0 0 0 0-29.1z" fill="#3e2823" opacity=".1" style="isolation:isolate"/><path d="M44.73 39.76A14.52 14.52 0 0 0 46 28.1a14.31 14.31 0 0 1-1.41 11.16L30.46 64h.42l13.85-24.23z" fill="#fff" fill-opacity=".2"/></g><g clip-path="url(#b)"><path d="M32 .36a32 32 0 0 1 32 31.82V32a32 32 0 0 0-64 0v.18A32 32 0 0 1 32 .36z" fill="#fff" fill-opacity=".2"/><path d="M32 63.64a32 32 0 0 0 32-31.82V32a32 32 0 0 1-64 0v-.18a32 32 0 0 0 32 31.82z" fill="#3e2823" fill-opacity=".15"/></g><circle cx="32" cy="32" r="32" fill="url(#k)"/></g></g></g></svg>