<svg width="107" height="107" viewBox="0 0 107 107" fill="none" xmlns="http://www.w3.org/2000/svg">
<path d="M104.263 53.5C104.263 81.5359 81.5359 104.263 53.5 104.263C25.4641 104.263 2.73653 81.5359 2.73653 53.5C2.73653 25.4641 25.4641 2.73653 53.5 2.73653C81.5359 2.73653 104.263 25.4641 104.263 53.5Z" fill="#313F9A"/>
<path d="M104.263 53.5C104.263 81.5359 81.5359 104.263 53.5 104.263C25.4641 104.263 2.73653 81.5359 2.73653 53.5C2.73653 25.4641 25.4641 2.73653 53.5 2.73653C81.5359 2.73653 104.263 25.4641 104.263 53.5Z" fill="url(#paint0_linear)"/>
<path d="M83.733 35.0604L25.5467 34.8758L46.5566 56.7766L52.6201 62.9228C49.3128 62.1597 49.1096 61.69 47.6468 60.4943C46.8795 59.8671 45.3987 58.1644 43.1486 55.864C36.1253 48.6844 24.2077 36.5014 24.2077 36.5014L24.0937 72.4356L25.5906 73.9341L25.422 74.1076L54.5 104.5C55.3014 104.543 55.6882 104.498 56.5 104.5C85 101.5 102 80 104 58.5C104.002 57.7325 104.035 56.6223 104 55.864L83.733 35.0604Z" fill="#232323" fill-opacity="0.27"/>
<path d="M24.208 36.451L24.0975 71.2767L41.1361 53.8473L24.208 36.451Z" fill="white"/>
<path d="M82.9847 36.6375L82.8742 71.4632L66.0307 53.9967L82.9847 36.6375Z" fill="white"/>
<path d="M25.498 34.8756L81.5939 35.0536L59.4745 57.9397C57.9003 59.5685 55.7301 60.4851 53.4651 60.4779C51.2001 60.4707 49.0358 59.5404 47.4719 57.9017L25.498 34.8756Z" fill="white"/>
<path d="M60.7424 59.165C58.8446 61.1285 56.1902 62.2499 53.4594 62.2412C50.7288 62.2325 48.0814 61.0947 46.1963 59.119L42.4691 55.2134L25.3773 72.8972L81.4731 73.0752L64.4941 55.2832L60.7424 59.165Z" fill="white"/>
<defs>
<linearGradient id="paint0_linear" x1="105.858" y1="61.9817" x2="16.7191" y2="60.9907" gradientUnits="userSpaceOnUse">
<stop stop-color="#662E91"/>
<stop offset="1" stop-color="#652D91" stop-opacity="0"/>
</linearGradient>
</defs>
</svg>
