<svg width="31" height="43" viewBox="0 0 31 43" fill="none" xmlns="http://www.w3.org/2000/svg">
<path d="M28.3267 7.36353C25.7171 2.85996 21.0818 0.10855 15.9273 0.00340136C15.7072 -0.00113379 15.4858 -0.00113379 15.2656 0.00340136C10.1112 0.10855 5.47593 2.85996 2.8662 7.36353C0.198693 11.9669 0.125711 17.4964 2.67094 22.1551L13.3338 41.672C13.3386 41.6806 13.3434 41.6893 13.3484 41.6978C13.8175 42.5132 14.6579 43 15.5966 43C16.5352 43 17.3757 42.5131 17.8447 41.6978C17.8497 41.6893 17.8545 41.6806 17.8592 41.672L28.5221 22.1551C31.0672 17.4964 30.9942 11.9669 28.3267 7.36353ZM15.5965 19.4844C12.2622 19.4844 9.54959 16.7718 9.54959 13.4375C9.54959 10.1033 12.2622 7.39066 15.5965 7.39066C18.9307 7.39066 21.6433 10.1033 21.6433 13.4375C21.6433 16.7718 18.9308 19.4844 15.5965 19.4844Z" fill="white"/>
</svg>
