<?xml version="1.0" standalone="no"?>
<!DOCTYPE svg PUBLIC "-//W3C//DTD SVG 1.1//EN" "http://www.w3.org/Graphics/SVG/1.1/DTD/svg11.dtd" >
<svg xmlns="http://www.w3.org/2000/svg">
    <defs>
        <font id="Montserrat-Medium">
            <font-face font-family="Montserrat-Medium"
                       units-per-em="1000"
                       ascent="968"
                       descent="-251"
                       bbox="-92 -202 1153 886"
                    />
            <missing-glyph horiz-adv-x="0" />
            
            <glyph glyph-name="!" unicode="&#x21;" horiz-adv-x="199" d=" M78,700 L191,700 L172,221 L96,221 M107,-6 Q69,31 69,58 Q69,85 88,103.5 Q107,122 135,122 Q163,122 181,103.5 Q199,85 199,58 Q199,31 180.5,12.5 Q162,-6 135,-6"/> 
            <glyph glyph-name="&quot;" unicode="&#x22;" horiz-adv-x="328" d=" M63,700 L147,700 L140,430 L69,430 M244,700 L328,700 L321,430 L250,430"/> 
            <glyph glyph-name="#" unicode="&#x23;" horiz-adv-x="676" d=" M529,447 L505,253 L644,253 L644,180 L496,180 L474,0 L403,0 L425,180 L236,180 L214,0 L143,0 L165,180 L27,180 L27,253 L174,253 L199,447 L59,447 L59,520 L208,520 L230,700 L301,700 L279,520 L467,520 L489,700 L560,700 L538,520 L676,520 L676,447 M458,447 L270,447 L245,253 L434,253"/> 
            <glyph glyph-name="$" unicode="&#x24;" horiz-adv-x="580" d=" M580,112 Q461,2 348,-7 L348,-120 L284,-120 L284,-7 Q211,-3 145.5,20.5 Q80,44 41,80 L78,158 Q114,125 169,103.5 Q224,82 284,78 L284,310 Q214,327 167.5,347 Q121,367 89.5,406 Q58,445 58,508 Q58,587 115.5,642 Q173,697 284,706 L284,820 L348,820 L348,707 Q405,705 458.5,689 Q512,673 551,646 L518,566 Q437,617 348,622 L348,389 Q421,371 468,351.5 Q515,332 547.5,293.5 Q580,255 580,191 M156,469 Q222,421 284,405 L284,621 Q220,613 188,583.5 Q156,554 156,512 M415,85 Q482,142 482,185 Q482,229 447.5,252.5 Q413,276 348,294 L348,79"/> 
            <glyph glyph-name="%" unicode="&#x25;" horiz-adv-x="806" d=" M127,324 Q37,430 37,515 Q37,600 82,653 Q127,706 200,706 Q273,706 317.5,653.5 Q362,601 362,515 Q362,429 317.5,376.5 Q273,324 200,324 M622,700 L699,700 L221,0 L144,0 M246,381 Q298,452 298,515 Q298,578 272,613.5 Q246,649 200,649 Q155,649 128.5,613 Q102,577 102,515 Q102,453 128.5,417 Q155,381 200,381 M570,-6 Q481,99 481,185 Q481,271 525.5,323.5 Q570,376 643,376 Q716,376 761,323 Q806,270 806,185 Q806,100 761,47 Q716,-6 643,-6 M688,51 Q741,123 741,185 Q741,247 714.5,283 Q688,319 643,319 Q597,319 571,283.5 Q545,248 545,185 Q545,122 571,86.5 Q597,51 643,51"/> 
            <glyph glyph-name="&amp;" unicode="&#x26;" horiz-adv-x="671" d=" M617,-11 L524,82 Q431,-8 290,-8 Q220,-8 164,15 Q108,38 76.5,79.5 Q45,121 45,174 Q45,238 84.5,287.5 Q124,337 215,389 Q169,435 150,472 Q131,509 131,549 Q131,620 182.5,663 Q234,706 320,706 Q400,706 447,667 Q494,628 494,560 Q494,507 459.5,465 Q425,423 345,377 L518,205 Q548,262 561,332 L638,307 Q620,215 577,147 L671,53 M273,636 Q220,589 220,551 Q220,524 234.5,499 Q249,474 291,431 Q360,470 386.5,498 Q413,526 413,559 Q413,594 388.5,615 Q364,636 320,636 M400,72 L467,138 L268,336 Q196,296 167.5,261.5 Q139,227 139,184 Q139,134 182.5,103 Q226,72 296,72"/> 
            <glyph glyph-name="'" unicode="&#x27;" horiz-adv-x="147" d=" M63,700 L147,700 L140,430 L69,430"/> 
            <glyph glyph-name="(" unicode="&#x28;" horiz-adv-x="305" d=" M157,-102 Q95,137 95,274 Q95,411 126,531.5 Q157,652 214,742 L305,742 Q245,637 217,522 Q189,407 189,274 Q189,141 217,26 Q245,-89 305,-194 L214,-194"/> 
            <glyph glyph-name=")" unicode="&#x29;" horiz-adv-x="243" d=" M32,-194 Q92,-89 120.5,26 Q149,141 149,274 Q149,407 120.5,522 Q92,637 32,742 L123,742 Q181,652 212,532 Q243,412 243,274 Q243,137 212,17 Q181,-103 123,-194"/> 
            <glyph glyph-name="*" unicode="&#x2A;" horiz-adv-x="381" d=" M262,556 L381,489 L350,434 L229,505 L230,369 L170,369 L171,505 L50,434 L19,489 L139,556 L19,622 L50,678 L171,607 L170,742 L230,742 L229,607 L350,678 L381,622"/> 
            <glyph glyph-name="+" unicode="&#x2B;" horiz-adv-x="515" d=" M515,310 L333,310 L333,131 L249,131 L249,310 L67,310 L67,389 L249,389 L249,569 L333,569 L333,389 L515,389"/> 
            <glyph glyph-name="," unicode="&#x2C;" horiz-adv-x="180" d=" M143,131 Q180,92 180,63 Q180,48 176.5,34 Q173,20 163,-9 L116,-148 L53,-148 L90,1 Q71,8 59.5,24.5 Q48,41 48,63 Q48,93 67,112 Q86,131 115,131"/> 
            <glyph glyph-name="-" unicode="&#x2D;" horiz-adv-x="326" d=" M57,316 L326,316 L326,233 L57,233"/> 
            <glyph glyph-name="." unicode="&#x2E;" horiz-adv-x="180" d=" M86,-6 Q46,33 46,63 Q46,92 66,111.5 Q86,131 114,131 Q142,131 161,112 Q180,93 180,63 Q180,33 160.5,13.5 Q141,-6 114,-6"/> 
            <glyph glyph-name="/" unicode="&#x2F;" horiz-adv-x="389" d=" M302,842 L389,842 L59,-100 L-28,-100"/> 
            <glyph glyph-name="0" unicode="&#x30;" horiz-adv-x="619" d=" M251,-8 Q122,77 85,158 Q48,239 48,350 Q48,461 85,542 Q122,623 186.5,665.5 Q251,708 334,708 Q416,708 480.5,665.5 Q545,623 582,542 Q619,461 619,350 Q619,239 582,158 Q545,77 480.5,34.5 Q416,-8 334,-8 M418,81 Q519,219 519,350 Q519,481 468.5,550 Q418,619 334,619 Q249,619 198.5,550 Q148,481 148,350 Q148,219 198.5,150 Q249,81 334,81"/> 
            <glyph glyph-name="1" unicode="&#x31;" horiz-adv-x="265" d=" M265,700 L265,0 L166,0 L166,613 L8,613 L8,700"/> 
            <glyph glyph-name="2" unicode="&#x32;" horiz-adv-x="540" d=" M540,87 L540,0 L37,0 L37,68 L322,343 Q374,393 392,429.5 Q410,466 410,503 Q410,558 371.5,588.5 Q333,619 261,619 Q145,619 82,543 L14,602 Q55,652 121.5,680 Q188,708 270,708 Q380,708 445,655.5 Q510,603 510,513 Q510,457 486,407 Q462,357 395,293 L181,87"/> 
            <glyph glyph-name="3" unicode="&#x33;" horiz-adv-x="527" d=" M419,396 Q527,289 527,206 Q527,146 497,97.5 Q467,49 407.5,20.5 Q348,-8 262,-8 Q187,-8 118,14.5 Q49,37 5,77 L51,156 Q87,122 143,101.5 Q199,81 262,81 Q340,81 383.5,114 Q427,147 427,205 Q427,263 384,295 Q341,327 254,327 L198,327 L198,397 L374,613 L37,613 L37,700 L499,700 L499,632 L316,406"/> 
            <glyph glyph-name="4" unicode="&#x34;" horiz-adv-x="657" d=" M657,172 L524,172 L524,0 L427,0 L427,172 L38,172 L38,242 L396,700 L504,700 L161,258 L430,258 L430,410 L524,410 L524,258 L657,258"/> 
            <glyph glyph-name="5" unicode="&#x35;" horiz-adv-x="539" d=" M398,421 Q539,308 539,210 Q539,148 509.5,98.5 Q480,49 420.5,20.5 Q361,-8 274,-8 Q200,-8 131,14.5 Q62,37 17,77 L63,156 Q99,122 155,101.5 Q211,81 273,81 Q352,81 395.5,114.5 Q439,148 439,206 Q439,269 391,301.5 Q343,334 227,334 L68,334 L105,700 L500,700 L500,613 L189,613 L170,421 L248,421"/> 
            <glyph glyph-name="6" unicode="&#x36;" horiz-adv-x="590" d=" M419,425 Q528,373 559,324.5 Q590,276 590,213 Q590,147 557.5,97 Q525,47 468.5,19.5 Q412,-8 342,-8 Q201,-8 124.5,83 Q48,174 48,341 Q48,458 89.5,540.5 Q131,623 205.5,665.5 Q280,708 379,708 Q430,708 475,697.5 Q520,687 553,667 L515,589 Q465,622 381,622 Q272,622 210,554.5 Q148,487 148,358 Q148,342 149,333 Q179,378 231.5,401.5 Q284,425 350,425 M407,73 Q493,147 493,209 Q493,271 449.5,307.5 Q406,344 333,344 Q286,344 249.5,326 Q213,308 192.5,277 Q172,246 172,208 Q172,171 191.5,140.5 Q211,110 248.5,91.5 Q286,73 338,73"/> 
            <glyph glyph-name="7" unicode="&#x37;" horiz-adv-x="558" d=" M558,700 L558,632 L275,0 L169,0 L446,613 L126,613 L126,488 L30,488 L30,700"/> 
            <glyph glyph-name="8" unicode="&#x38;" horiz-adv-x="600" d=" M536,344 Q600,258 600,198 Q600,135 566,88.5 Q532,42 469,17 Q406,-8 321,-8 Q237,-8 174.5,17 Q112,42 78,88.5 Q44,135 44,198 Q44,258 75.5,301 Q107,344 167,367 Q119,390 94,428 Q69,466 69,518 Q69,576 100.5,619 Q132,662 189,685 Q246,708 321,708 Q397,708 454.5,685 Q512,662 543.5,619 Q575,576 575,518 Q575,467 549.5,428.5 Q524,390 476,367 M250,627 Q168,566 168,514 Q168,462 208.5,432 Q249,402 321,402 Q394,402 435.5,432 Q477,462 477,514 Q477,566 434.5,596.5 Q392,627 321,627 M404,73 Q500,142 500,201 Q500,259 452,292.5 Q404,326 321,326 Q238,326 191,292.5 Q144,259 144,201 Q144,142 191,107.5 Q238,73 321,73"/> 
            <glyph glyph-name="9" unicode="&#x39;" horiz-adv-x="569" d=" M416,708 Q569,526 569,359 Q569,242 527.5,159.5 Q486,77 411.5,34.5 Q337,-8 238,-8 Q187,-8 142,2.5 Q97,13 64,33 L102,111 Q153,78 237,78 Q346,78 407.5,145.5 Q469,213 469,342 L469,367 Q439,322 386,298.5 Q333,275 267,275 Q198,275 143.5,301 Q89,327 58.5,375.5 Q28,424 28,487 Q28,553 60.5,603 Q93,653 149,680.5 Q205,708 275,708 M331,356 Q405,392 425.5,423 Q446,454 446,492 Q446,529 426.5,559.5 Q407,590 369.5,608.5 Q332,627 279,627 Q210,627 167.5,590 Q125,553 125,491 Q125,429 168,392.5 Q211,356 284,356"/> 
            <glyph glyph-name=":" unicode="&#x3A;" horiz-adv-x="180" d=" M86,398 Q46,437 46,467 Q46,496 66,515.5 Q86,535 114,535 Q142,535 161,516 Q180,497 180,467 Q180,437 160.5,417.5 Q141,398 114,398 M86,-6 Q46,33 46,63 Q46,92 66,111.5 Q86,131 114,131 Q142,131 161,112 Q180,93 180,63 Q180,33 160.5,13.5 Q141,-6 114,-6"/> 
            <glyph glyph-name=";" unicode="&#x3B;" horiz-adv-x="180" d=" M86,398 Q46,437 46,467 Q46,496 66,515.5 Q86,535 114,535 Q142,535 161,516 Q180,497 180,467 Q180,437 160.5,417.5 Q141,398 114,398 M143,131 Q180,92 180,63 Q180,48 176.5,34 Q173,20 163,-9 L116,-148 L53,-148 L90,1 Q71,8 59.5,24.5 Q48,41 48,63 Q48,93 67,112 Q86,131 115,131"/> 
            <glyph glyph-name="&lt;" unicode="&#x3C;" horiz-adv-x="515" d=" M515,487 L160,350 L515,213 L515,130 L67,307 L67,393 L515,570"/> 
            <glyph glyph-name="=" unicode="&#x3D;" horiz-adv-x="515" d=" M67,508 L515,508 L515,429 L67,429 M67,271 L515,271 L515,192 L67,192"/> 
            <glyph glyph-name="&gt;" unicode="&#x3E;" horiz-adv-x="515" d=" M515,393 L515,307 L67,130 L67,213 L423,350 L67,487 L67,570"/> 
            <glyph glyph-name="?" unicode="&#x3F;" horiz-adv-x="505" d=" M228,261 Q255,322 274.5,343 Q294,364 326,393 Q366,428 385,453.5 Q404,479 404,515 Q404,564 366,593.5 Q328,623 261,623 Q144,623 82,544 L9,596 Q51,650 116.5,679 Q182,708 268,708 Q377,708 441,660.5 Q505,613 505,530 Q505,489 491.5,457.5 Q478,426 459,405 Q440,384 408,355 Q367,318 347.5,290 Q328,262 328,221 L228,221 M251,-6 Q214,31 214,58 Q214,85 232.5,103.5 Q251,122 279,122 Q307,122 325,103.5 Q343,85 343,58 Q343,31 324.5,12.5 Q306,-6 279,-6"/> 
            <glyph glyph-name="@" unicode="&#x40;" horiz-adv-x="986" d=" M655,707 Q867,596 926.5,496 Q986,396 986,268 Q986,140 939,67 Q892,-6 808,-6 Q760,-6 728.5,18.5 Q697,43 688,89 Q658,43 609.5,18.5 Q561,-6 498,-6 Q428,-6 372,27 Q316,60 284.5,118.5 Q253,177 253,251 Q253,324 284.5,382.5 Q316,441 372,473.5 Q428,506 498,506 Q556,506 603,484.5 Q650,463 681,421 L681,502 L768,502 L768,142 Q768,105 784,87.5 Q800,70 825,70 Q869,70 893.5,121.5 Q918,173 918,267 Q918,378 868,462.5 Q818,547 727.5,594 Q637,641 520,641 Q402,641 311.5,592 Q221,543 171,455 Q121,367 121,254 Q121,140 170.5,52 Q220,-36 309.5,-85.5 Q399,-135 516,-135 Q565,-135 616,-124 Q667,-113 709,-91 L731,-155 Q687,-178 629,-190 Q571,-202 516,-202 Q379,-202 272.5,-143.5 Q166,-85 107,19 Q48,123 48,254 Q48,385 107.5,488 Q167,591 274.5,649 Q382,707 520,707 M561,72 Q638,116 660.5,156.5 Q683,197 683,251 Q683,305 660.5,345.5 Q638,386 599.5,407.5 Q561,429 512,429 Q436,429 389,380.5 Q342,332 342,251 Q342,170 389.5,121 Q437,72 512,72"/> 
            <glyph glyph-name="A" unicode="&#x41;" horiz-adv-x="733" d=" M551,175 L179,175 L102,0 L-1,0 L316,700 L415,700 L733,0 L628,0 M516,255 L365,598 L214,255"/> 
            <glyph glyph-name="B" unicode="&#x42;" horiz-adv-x="707" d=" M637,346 Q707,257 707,189 Q707,98 638.5,49 Q570,0 439,0 L105,0 L105,700 L419,700 Q539,700 604.5,652 Q670,604 670,519 Q670,464 644.5,424 Q619,384 576,363 M205,619 L205,395 L410,395 Q487,395 528.5,423.5 Q570,452 570,507 Q570,562 528.5,590.5 Q487,619 410,619 M520,81 Q606,137 606,197 Q606,314 435,314 L205,314 L205,81 L435,81"/> 
            <glyph glyph-name="C" unicode="&#x43;" horiz-adv-x="685" d=" M313,-8 Q144,85 96,166.5 Q48,248 48,350 Q48,452 96,533.5 Q144,615 229,661.5 Q314,708 419,708 Q501,708 569,680.5 Q637,653 685,599 L620,536 Q541,619 423,619 Q345,619 282,584 Q219,549 183.5,487.5 Q148,426 148,350 Q148,274 183.5,212.5 Q219,151 282,116 Q345,81 423,81 Q540,81 620,165 L685,102 Q637,48 568.5,20 Q500,-8 418,-8"/> 
            <glyph glyph-name="D" unicode="&#x44;" horiz-adv-x="778" d=" M105,700 L400,700 Q511,700 597,656 Q683,612 730.5,532.5 Q778,453 778,350 Q778,247 730.5,167.5 Q683,88 597,44 Q511,0 400,0 L105,0 M394,87 Q479,87 543.5,120 Q608,153 643,212.5 Q678,272 678,350 Q678,428 643,487.5 Q608,547 543.5,580 Q479,613 394,613 L205,613 L205,87"/> 
            <glyph glyph-name="E" unicode="&#x45;" horiz-adv-x="613" d=" M613,87 L613,0 L105,0 L105,700 L599,700 L599,613 L205,613 L205,398 L556,398 L556,313 L205,313 L205,87"/> 
            <glyph glyph-name="F" unicode="&#x46;" horiz-adv-x="599" d=" M205,613 L205,369 L556,369 L556,283 L205,283 L205,0 L105,0 L105,700 L599,700 L599,613"/> 
            <glyph glyph-name="G" unicode="&#x47;" horiz-adv-x="692" d=" M590,354 L686,354 L686,81 Q634,38 565,15 Q496,-8 421,-8 Q315,-8 230,38.5 Q145,85 96.5,166.5 Q48,248 48,350 Q48,452 96.5,534 Q145,616 230.5,662 Q316,708 423,708 Q507,708 575.5,680.5 Q644,653 692,600 L630,538 Q546,619 427,619 Q347,619 283.5,584.5 Q220,550 184,488.5 Q148,427 148,350 Q148,274 184,212.5 Q220,151 283.5,116 Q347,81 426,81 Q520,81 590,126"/> 
            <glyph glyph-name="H" unicode="&#x48;" horiz-adv-x="707" d=" M707,700 L707,0 L607,0 L607,312 L205,312 L205,0 L105,0 L105,700 L205,700 L205,399 L607,399 L607,700"/> 
            <glyph glyph-name="I" unicode="&#x49;" horiz-adv-x="205" d=" M105,700 L205,700 L205,0 L105,0"/> 
            <glyph glyph-name="J" unicode="&#x4A;" horiz-adv-x="414" d=" M132,-8 Q24,45 -9,93 L49,161 Q107,78 195,78 Q254,78 284.5,114 Q315,150 315,220 L315,613 L62,613 L62,700 L414,700 L414,225 Q414,109 358.5,50.5 Q303,-8 195,-8"/> 
            <glyph glyph-name="K" unicode="&#x4B;" horiz-adv-x="718" d=" M333,311 L205,181 L205,0 L105,0 L105,700 L205,700 L205,309 L585,700 L699,700 L400,385 L718,0 L601,0"/> 
            <glyph glyph-name="L" unicode="&#x4C;" horiz-adv-x="584" d=" M105,700 L205,700 L205,87 L584,87 L584,0 L105,0"/> 
            <glyph glyph-name="M" unicode="&#x4D;" horiz-adv-x="850" d=" M754,0 L753,510 L500,85 L454,85 L201,507 L201,0 L105,0 L105,700 L187,700 L479,208 L767,700 L849,700 L850,0"/> 
            <glyph glyph-name="N" unicode="&#x4E;" horiz-adv-x="707" d=" M707,700 L707,0 L625,0 L205,522 L205,0 L105,0 L105,700 L187,700 L607,178 L607,700"/> 
            <glyph glyph-name="O" unicode="&#x4F;" horiz-adv-x="792" d=" M315,-8 Q145,85 96.5,167 Q48,249 48,350 Q48,451 96.5,533 Q145,615 230,661.5 Q315,708 421,708 Q526,708 611,661.5 Q696,615 744,533.5 Q792,452 792,350 Q792,248 744,166.5 Q696,85 611,38.5 Q526,-8 421,-8 M498,81 Q621,151 656.5,212.5 Q692,274 692,350 Q692,426 656.5,487.5 Q621,549 559.5,584 Q498,619 421,619 Q344,619 281.5,584 Q219,549 183.5,487.5 Q148,426 148,350 Q148,274 183.5,212.5 Q219,151 281.5,116 Q344,81 421,81"/> 
            <glyph glyph-name="P" unicode="&#x50;" horiz-adv-x="670" d=" M514,700 Q670,570 670,456 Q670,342 592,277 Q514,212 378,212 L205,212 L205,0 L105,0 L105,700 L378,700 M470,299 Q570,380 570,456 Q570,532 520,572.5 Q470,613 375,613 L205,613 L205,299 L375,299"/> 
            <glyph glyph-name="Q" unicode="&#x51;" horiz-adv-x="826" d=" M826,-64 Q792,-104 747,-125 Q702,-146 650,-146 Q584,-146 526.5,-114.5 Q469,-83 395,-7 Q296,-2 216.5,46 Q137,94 92.5,173.5 Q48,253 48,350 Q48,451 96.5,533 Q145,615 230,661.5 Q315,708 421,708 Q526,708 611,661.5 Q696,615 744,533.5 Q792,452 792,350 Q792,264 757.5,192 Q723,120 660.5,71 Q598,22 517,3 Q552,-34 584.5,-50.5 Q617,-67 651,-67 Q725,-67 779,-7 M148,274 Q219,151 281.5,116 Q344,81 421,81 Q497,81 559,116 Q621,151 656.5,212.5 Q692,274 692,350 Q692,426 656.5,487.5 Q621,549 559,584 Q497,619 421,619 Q344,619 281.5,584 Q219,549 183.5,487.5 Q148,426 148,350"/> 
            <glyph glyph-name="R" unicode="&#x52;" horiz-adv-x="682" d=" M573,0 L422,215 Q394,213 378,213 L205,213 L205,0 L105,0 L105,700 L378,700 Q514,700 592,635 Q670,570 670,456 Q670,375 630,318 Q590,261 516,235 L682,0 M470,298 Q570,380 570,456 Q570,532 520,572.5 Q470,613 375,613 L205,613 L205,298 L375,298"/> 
            <glyph glyph-name="S" unicode="&#x53;" horiz-adv-x="580" d=" M230,-8 Q83,41 41,80 L78,158 Q118,122 180.5,99.5 Q243,77 309,77 Q396,77 439,106.5 Q482,136 482,185 Q482,221 458.5,243.5 Q435,266 400.5,278 Q366,290 303,305 Q224,324 175.5,343 Q127,362 92.5,401.5 Q58,441 58,508 Q58,564 87.5,609 Q117,654 177,681 Q237,708 326,708 Q388,708 448,692 Q508,676 551,646 L518,566 Q474,594 424,608.5 Q374,623 326,623 Q241,623 198.5,592 Q156,561 156,512 Q156,476 180,453.5 Q204,431 239.5,418.5 Q275,406 336,392 Q415,373 463,354 Q511,335 545.5,296 Q580,257 580,191 Q580,136 550,90.5 Q520,45 459,18.5 Q398,-8 309,-8"/> 
            <glyph glyph-name="T" unicode="&#x54;" horiz-adv-x="583" d=" M244,613 L4,613 L4,700 L583,700 L583,613 L343,613 L343,0 L244,0"/> 
            <glyph glyph-name="U" unicode="&#x55;" horiz-adv-x="691" d=" M255,-8 Q99,152 99,302 L99,700 L199,700 L199,306 Q199,81 396,81 Q492,81 543,136.5 Q594,192 594,306 L594,700 L691,700 L691,302 Q691,151 613,71.5 Q535,-8 395,-8"/> 
            <glyph glyph-name="V" unicode="&#x56;" horiz-adv-x="713" d=" M713,700 L406,0 L307,0 L-1,700 L107,700 L359,125 L613,700"/> 
            <glyph glyph-name="W" unicode="&#x57;" horiz-adv-x="1094" d=" M1094,700 L860,0 L755,0 L564,559 L373,0 L266,0 L32,700 L135,700 L324,131 L521,700 L613,700 L806,128 L999,700"/> 
            <glyph glyph-name="X" unicode="&#x58;" horiz-adv-x="660" d=" M545,0 L335,289 L128,0 L13,0 L276,359 L29,700 L143,700 L339,431 L533,700 L642,700 L395,362 L660,0"/> 
            <glyph glyph-name="Y" unicode="&#x59;" horiz-adv-x="651" d=" M373,242 L373,0 L274,0 L274,244 L-4,700 L103,700 L327,331 L552,700 L651,700"/> 
            <glyph glyph-name="Z" unicode="&#x5A;" horiz-adv-x="628" d=" M628,87 L628,0 L43,0 L43,68 L483,613 L50,613 L50,700 L615,700 L615,632 L177,87"/> 
            <glyph glyph-name="[" unicode="&#x5B;" horiz-adv-x="314" d=" M105,742 L314,742 L314,663 L201,663 L201,-115 L314,-115 L314,-194 L105,-194"/> 
            <glyph glyph-name="]" unicode="&#x5D;" horiz-adv-x="228" d=" M19,-194 L19,-115 L132,-115 L132,663 L19,663 L19,742 L228,742 L228,-194"/> 
            <glyph glyph-name="^" unicode="&#x5E;" horiz-adv-x="508" d=" M431,142 L292,479 L152,142 L75,142 L252,558 L332,558 L508,142"/> 
            <glyph glyph-name="_" unicode="&#x5F;" horiz-adv-x="500" d=" M0,0 L500,0 L500,-62 L0,-62"/> 
            <glyph glyph-name="a" unicode="&#x61;" horiz-adv-x="511" d=" M394,535 Q511,427 511,320 L511,0 L420,0 L420,70 Q396,33 351.5,13.5 Q307,-6 246,-6 Q157,-6 103.5,37 Q50,80 50,150 Q50,220 101,262.5 Q152,305 263,305 L415,305 L415,324 Q415,386 379,419 Q343,452 273,452 Q226,452 181,436.5 Q136,421 105,395 L65,467 Q106,500 163,517.5 Q220,535 284,535 M317,68 Q397,117 415,162 L415,236 L267,236 Q145,236 145,154 Q145,114 176,91 Q207,68 262,68"/> 
            <glyph glyph-name="b" unicode="&#x62;" horiz-adv-x="640" d=" M449,535 Q571,467 605.5,406 Q640,345 640,265 Q640,185 605.5,123.5 Q571,62 510,28 Q449,-6 372,-6 Q313,-6 264,17 Q215,40 183,84 L183,0 L91,0 L91,742 L187,742 L187,450 Q219,492 267,513.5 Q315,535 372,535 M415,78 Q496,125 519.5,167.5 Q543,210 543,265 Q543,320 519.5,362.5 Q496,405 455.5,428 Q415,451 364,451 Q314,451 273,428 Q232,405 209,362.5 Q186,320 186,265 Q186,210 209,167.5 Q232,125 273,101.5 Q314,78 364,78"/> 
            <glyph glyph-name="c" unicode="&#x63;" horiz-adv-x="538" d=" M241,-6 Q114,64 78,125.5 Q42,187 42,265 Q42,343 78,404.5 Q114,466 177.5,500.5 Q241,535 322,535 Q394,535 450.5,506 Q507,477 538,422 L465,375 Q440,413 403,432 Q366,451 321,451 Q269,451 227.5,428 Q186,405 162.5,362.5 Q139,320 139,265 Q139,209 162.5,166.5 Q186,124 227.5,101 Q269,78 321,78 Q366,78 403,97 Q440,116 465,154 L538,108 Q507,53 450.5,23.5 Q394,-6 322,-6"/> 
            <glyph glyph-name="d" unicode="&#x64;" horiz-adv-x="591" d=" M591,742 L591,0 L499,0 L499,84 Q467,40 418,17 Q369,-6 310,-6 Q233,-6 172,28 Q111,62 76.5,123.5 Q42,185 42,265 Q42,345 76.5,406 Q111,467 172,501 Q233,535 310,535 Q367,535 415,513.5 Q463,492 495,450 L495,742 M368,78 Q450,125 473,167.5 Q496,210 496,265 Q496,320 473,362.5 Q450,405 409,428 Q368,451 318,451 Q267,451 226.5,428 Q186,405 162.5,362.5 Q139,320 139,265 Q139,210 162.5,167.5 Q186,125 226.5,101.5 Q267,78 318,78"/> 
            <glyph glyph-name="e" unicode="&#x65;" horiz-adv-x="570" d=" M570,251 L568,233 L138,233 Q147,163 199.5,120.5 Q252,78 330,78 Q425,78 483,142 L536,80 Q500,38 446.5,16 Q393,-6 327,-6 Q243,-6 178,28.5 Q113,63 77.5,125 Q42,187 42,265 Q42,342 76.5,404 Q111,466 171.5,500.5 Q232,535 308,535 Q384,535 443.5,500.5 Q503,466 536.5,404 Q570,342 570,262 M239,454 Q146,370 138,302 L478,302 Q470,369 423.5,411.5 Q377,454 308,454"/> 
            <glyph glyph-name="f" unicode="&#x66;" horiz-adv-x="388" d=" M199,669 L199,576 L199,530 L353,530 L353,451 L201,451 L201,0 L105,0 L105,451 L15,451 L15,530 L105,530 L105,577 Q105,656 151,702 Q197,748 280,748 Q312,748 340,740 Q368,732 388,717 L359,644 Q326,669 285,669"/> 
            <glyph glyph-name="g" unicode="&#x67;" horiz-adv-x="598" d=" M598,530 L598,72 Q598,-67 529,-133.5 Q460,-200 323,-200 Q248,-200 180,-179.5 Q112,-159 70,-121 L116,-47 Q153,-79 207.5,-97.5 Q262,-116 320,-116 Q413,-116 457.5,-72 Q502,-28 502,62 L502,104 Q468,63 418.5,42.5 Q369,22 311,22 Q235,22 173.5,54.5 Q112,87 77,145.5 Q42,204 42,279 Q42,354 77,412.5 Q112,471 173.5,503 Q235,535 311,535 Q371,535 422.5,513 Q474,491 507,448 L507,530 M374,106 Q457,150 480.5,189.5 Q504,229 504,279 Q504,356 453,403.5 Q402,451 322,451 Q241,451 190,403.5 Q139,356 139,279 Q139,229 162.5,189.5 Q186,150 227.5,128 Q269,106 322,106"/> 
            <glyph glyph-name="h" unicode="&#x68;" horiz-adv-x="594" d=" M475,535 Q594,418 594,305 L594,0 L498,0 L498,294 Q498,371 461,410 Q424,449 355,449 Q277,449 232,403.5 Q187,358 187,273 L187,0 L91,0 L91,742 L187,742 L187,455 Q217,493 265.5,514 Q314,535 374,535"/> 
            <glyph glyph-name="i" unicode="&#x69;" horiz-adv-x="204" d=" M111,632 Q74,668 74,694 Q74,720 92.5,738.5 Q111,757 139,757 Q167,757 185.5,739.5 Q204,722 204,696 Q204,669 185.5,650.5 Q167,632 139,632 M91,530 L187,530 L187,0 L91,0"/> 
            <glyph glyph-name="j" unicode="&#x6A;" horiz-adv-x="209" d=" M116,632 Q79,668 79,694 Q79,720 97.5,738.5 Q116,757 144,757 Q172,757 190.5,739.5 Q209,722 209,696 Q209,669 190.5,650.5 Q172,632 144,632 M-12,-200 Q-72,-184 -92,-168 L-61,-94 Q-31,-119 17,-119 Q55,-119 75.5,-95.5 Q96,-72 96,-26 L96,530 L192,530 L192,-24 Q192,-106 148,-153 Q104,-200 23,-200"/> 
            <glyph glyph-name="k" unicode="&#x6B;" horiz-adv-x="614" d=" M297,247 L187,145 L187,0 L91,0 L91,742 L187,742 L187,266 L476,530 L592,530 L369,311 L614,0 L496,0"/> 
            <glyph glyph-name="l" unicode="&#x6C;" horiz-adv-x="187" d=" M91,742 L187,742 L187,0 L91,0"/> 
            <glyph glyph-name="m" unicode="&#x6D;" horiz-adv-x="971" d=" M854,535 Q971,419 971,305 L971,0 L875,0 L875,294 Q875,371 839.5,410 Q804,449 738,449 Q665,449 622,403.5 Q579,358 579,273 L579,0 L483,0 L483,294 Q483,371 447.5,410 Q412,449 346,449 Q273,449 230,403.5 Q187,358 187,273 L187,0 L91,0 L91,530 L183,530 L183,451 Q212,492 259,513.5 Q306,535 366,535 Q428,535 476,510 Q524,485 550,437 Q580,483 633.5,509 Q687,535 754,535"/> 
            <glyph glyph-name="n" unicode="&#x6E;" horiz-adv-x="594" d=" M475,535 Q594,418 594,305 L594,0 L498,0 L498,294 Q498,371 461,410 Q424,449 355,449 Q277,449 232,403.5 Q187,358 187,273 L187,0 L91,0 L91,530 L183,530 L183,450 Q212,491 261.5,513 Q311,535 374,535"/> 
            <glyph glyph-name="o" unicode="&#x6F;" horiz-adv-x="593" d=" M239,-6 Q113,64 77.5,125.5 Q42,187 42,265 Q42,343 77.5,404.5 Q113,466 176,500.5 Q239,535 318,535 Q397,535 459.5,500.5 Q522,466 557.5,404.5 Q593,343 593,265 Q593,187 557.5,125.5 Q522,64 459.5,29 Q397,-6 318,-6 M369,78 Q450,125 473,167.5 Q496,210 496,265 Q496,320 473,362.5 Q450,405 409.5,428 Q369,451 318,451 Q267,451 226.5,428 Q186,405 162.5,362.5 Q139,320 139,265 Q139,210 162.5,167.5 Q186,125 226.5,101.5 Q267,78 318,78"/> 
            <glyph glyph-name="p" unicode="&#x70;" horiz-adv-x="640" d=" M449,535 Q571,467 605.5,406 Q640,345 640,265 Q640,185 605.5,123.5 Q571,62 510,28 Q449,-6 372,-6 Q315,-6 267.5,16 Q220,38 187,80 L187,-194 L91,-194 L91,530 L183,530 L183,446 Q215,490 264,512.5 Q313,535 372,535 M415,78 Q496,125 519.5,167.5 Q543,210 543,265 Q543,320 519.5,362.5 Q496,405 455.5,428 Q415,451 364,451 Q314,451 273.5,427.5 Q233,404 209.5,362 Q186,320 186,265 Q186,210 209,167.5 Q232,125 273,101.5 Q314,78 364,78"/> 
            <glyph glyph-name="q" unicode="&#x71;" horiz-adv-x="591" d=" M591,530 L591,-194 L495,-194 L495,80 Q462,38 414.5,16 Q367,-6 310,-6 Q233,-6 172,28 Q111,62 76.5,123.5 Q42,185 42,265 Q42,345 76.5,406 Q111,467 172,501 Q233,535 310,535 Q369,535 418,512.5 Q467,490 499,446 L499,530 M368,78 Q450,125 473,167.5 Q496,210 496,265 Q496,320 472.5,362 Q449,404 408.5,427.5 Q368,451 318,451 Q267,451 226.5,428 Q186,405 162.5,362.5 Q139,320 139,265 Q139,210 162.5,167.5 Q186,125 226.5,101.5 Q267,78 318,78"/> 
            <glyph glyph-name="r" unicode="&#x72;" horiz-adv-x="376" d=" M208,487 Q306,535 376,535 L376,442 Q368,443 354,443 Q276,443 231.5,396.5 Q187,350 187,264 L187,0 L91,0 L91,530 L183,530 L183,441"/> 
            <glyph glyph-name="s" unicode="&#x73;" horiz-adv-x="472" d=" M178,-6 Q58,29 24,56 L64,132 Q99,107 149,92 Q199,77 250,77 Q376,77 376,149 Q376,173 359,187 Q342,201 316.5,207.5 Q291,214 244,222 Q180,232 139.5,245 Q99,258 70,289 Q41,320 41,376 Q41,448 101,491.5 Q161,535 262,535 Q315,535 368,522 Q421,509 455,487 L414,411 Q349,453 261,453 Q200,453 168,433 Q136,413 136,380 Q136,354 154,339 Q172,324 198.5,317 Q225,310 273,301 Q337,290 376.5,277.5 Q416,265 444,235 Q472,205 472,151 Q472,79 410.5,36.5 Q349,-6 243,-6"/> 
            <glyph glyph-name="t" unicode="&#x74;" horiz-adv-x="389" d=" M389,31 Q368,13 337,3.5 Q306,-6 273,-6 Q193,-6 149,37 Q105,80 105,160 L105,451 L15,451 L15,530 L105,530 L105,646 L201,646 L201,530 L353,530 L353,451 L201,451 L201,164 Q201,121 222.5,98 Q244,75 284,75 Q328,75 359,100"/> 
            <glyph glyph-name="u" unicode="&#x75;" horiz-adv-x="585" d=" M585,530 L585,0 L494,0 L494,80 Q465,39 417.5,16.5 Q370,-6 314,-6 Q208,-6 147,52.5 Q86,111 86,225 L86,530 L182,530 L182,236 Q182,159 219,119.5 Q256,80 325,80 Q401,80 445,126 Q489,172 489,256 L489,530"/> 
            <glyph glyph-name="v" unicode="&#x76;" horiz-adv-x="560" d=" M560,530 L328,0 L230,0 L-2,530 L98,530 L280,105 L466,530"/> 
            <glyph glyph-name="w" unicode="&#x77;" horiz-adv-x="893" d=" M893,530 L695,0 L603,0 L450,402 L295,0 L203,0 L6,530 L97,530 L251,108 L411,530 L492,530 L649,106 L807,530"/> 
            <glyph glyph-name="x" unicode="&#x78;" horiz-adv-x="538" d=" M429,0 L276,203 L121,0 L14,0 L223,271 L24,530 L131,530 L277,339 L422,530 L527,530 L327,271 L538,0"/> 
            <glyph glyph-name="y" unicode="&#x79;" horiz-adv-x="560" d=" M560,530 L303,-53 Q269,-134 223.5,-167 Q178,-200 114,-200 Q75,-200 38.5,-187.5 Q2,-175 -22,-151 L19,-79 Q60,-118 114,-118 Q149,-118 172.5,-99.5 Q196,-81 215,-36 L232,1 L-2,530 L98,530 L283,106 L466,530"/> 
            <glyph glyph-name="z" unicode="&#x7A;" horiz-adv-x="484" d=" M484,79 L484,0 L40,0 L40,62 L353,451 L46,451 L46,530 L476,530 L476,467 L163,79"/> 
            <glyph glyph-name="{" unicode="&#x7B;" horiz-adv-x="332" d=" M233,325 Q207,283 178,274 Q207,265 220,244 Q233,223 233,182 L233,-37 Q233,-115 307,-115 L332,-115 L332,-194 L288,-194 Q213,-194 175,-156.5 Q137,-119 137,-46 L137,184 Q137,234 92,234 L57,234 L57,314 L92,314 Q137,314 137,364 L137,594 Q137,667 175,704.5 Q213,742 288,742 L332,742 L332,663 L307,663 Q233,663 233,585 L233,366"/> 
            <glyph glyph-name="|" unicode="&#x7C;" horiz-adv-x="194" d=" M105,742 L194,742 L194,-194 L105,-194"/> 
            <glyph glyph-name="}" unicode="&#x7D;" horiz-adv-x="293" d=" M293,314 L293,234 L259,234 Q215,234 215,184 L215,-46 Q215,-119 176.5,-156.5 Q138,-194 63,-194 L19,-194 L19,-115 L43,-115 Q119,-115 119,-37 L119,182 Q119,224 131.5,244.5 Q144,265 173,274 Q144,283 131.5,303.5 Q119,324 119,366 L119,585 Q119,663 43,663 L19,663 L19,742 L63,742 Q138,742 176.5,704.5 Q215,667 215,594 L215,364 Q215,314 259,314"/> 
            <glyph glyph-name="«" unicode="&#xAB;" horiz-adv-x="470" d=" M238,265 L382,457 L470,457 L329,265 L470,74 L382,74 M46,265 L190,457 L278,457 L137,265 L278,74 L190,74"/> 
            <glyph glyph-name="»" unicode="&#xBB;" horiz-adv-x="458" d=" M226,74 L367,265 L226,457 L314,457 L458,265 L314,74 M34,74 L175,265 L34,457 L122,457 L266,265 L122,74"/> 
            <glyph glyph-name="Ё" unicode="&#x401;" horiz-adv-x="617" d=" M243,774 Q213,803 213,825 Q213,847 228,862 Q243,877 264,877 Q285,877 300,862 Q315,847 315,825 Q315,803 300,788.5 Q285,774 264,774 M429,774 Q399,803 399,825 Q399,847 414,862 Q429,877 450,877 Q471,877 486,862 Q501,847 501,825 Q501,803 486,788.5 Q471,774 450,774 M617,87 L617,0 L109,0 L109,700 L603,700 L603,613 L209,613 L209,398 L560,398 L560,313 L209,313 L209,87"/> 
            <glyph glyph-name="А" unicode="&#x410;" horiz-adv-x="746" d=" M564,175 L192,175 L115,0 L12,0 L329,700 L428,700 L746,0 L641,0 M529,255 L378,598 L227,255"/> 
            <glyph glyph-name="Б" unicode="&#x411;" horiz-adv-x="681" d=" M109,700 L637,700 L637,615 L208,615 L208,415 L426,415 Q551,415 616,363 Q681,311 681,213 Q681,110 610.5,55 Q540,0 409,0 L109,0 M405,79 Q491,79 536,112 Q581,145 581,209 Q581,336 405,336 L208,336 L208,79"/> 
            <glyph glyph-name="В" unicode="&#x412;" horiz-adv-x="689" d=" M616,346 Q689,259 689,191 Q689,100 622.5,50 Q556,0 429,0 L109,0 L109,700 L410,700 Q525,700 589.5,653.5 Q654,607 654,520 Q654,463 625.5,423 Q597,383 545,363 M208,392 L403,392 Q476,392 514.5,421 Q553,450 553,506 Q553,562 514,591.5 Q475,621 403,621 L208,621 M588,79 L588,199 Q588,259 547.5,287.5 Q507,316 427,316 L208,316 L208,79 L427,79"/> 
            <glyph glyph-name="Г" unicode="&#x413;" horiz-adv-x="568" d=" M567,613 L207,613 L208,0 L109,0 L109,700 L568,700"/> 
            <glyph glyph-name="Д" unicode="&#x414;" horiz-adv-x="776" d=" M776,87 L776,-153 L683,-153 L683,0 L107,0 L106,-153 L13,-153 L14,87 L48,87 Q114,91 141,191.5 Q168,292 174,475 L181,700 L673,700 L673,87 M257,318 Q220,124 179,87 L574,87 L574,613 L267,613 L262,466"/> 
            <glyph glyph-name="Е" unicode="&#x415;" horiz-adv-x="617" d=" M617,87 L617,0 L109,0 L109,700 L603,700 L603,613 L209,613 L209,398 L560,398 L560,313 L209,313 L209,87"/> 
            <glyph glyph-name="Ж" unicode="&#x416;" horiz-adv-x="1010" d=" M697,308 L564,308 L564,0 L466,0 L466,308 L332,308 L136,0 L19,0 L250,364 L36,700 L143,700 L330,396 L466,396 L466,700 L564,700 L564,396 L698,396 L886,700 L993,700 L779,362 L1010,0 L893,0"/> 
            <glyph glyph-name="З" unicode="&#x417;" horiz-adv-x="584" d=" M510,347 Q584,258 584,196 Q584,134 544.5,87.5 Q505,41 439.5,16.5 Q374,-8 297,-8 Q227,-8 158,13 Q89,34 32,76 L67,150 Q113,114 170,96 Q227,78 285,78 Q369,78 426,113.5 Q483,149 483,211 Q483,264 440,292.5 Q397,321 319,321 L163,321 L163,402 L312,402 Q379,402 416.5,429.5 Q454,457 454,506 Q454,561 405,593 Q356,625 281,625 Q232,625 181.5,611 Q131,597 86,569 L54,651 Q107,681 166,696 Q225,711 284,711 Q358,711 420,688 Q482,665 518.5,621 Q555,577 555,518 Q555,465 525.5,425 Q496,385 444,365"/> 
            <glyph glyph-name="И" unicode="&#x418;" horiz-adv-x="714" d=" M109,700 L208,700 L208,160 L622,700 L714,700 L714,0 L616,0 L616,539 L201,0 L109,0"/> 
            <glyph glyph-name="Й" unicode="&#x419;" horiz-adv-x="714" d=" M328,749 Q239,820 238,886 L309,886 Q310,847 336.5,825.5 Q363,804 410,804 Q455,804 482.5,825.5 Q510,847 511,886 L581,886 Q580,821 535.5,785 Q491,749 410,749 M109,700 L208,700 L208,160 L622,700 L714,700 L714,0 L616,0 L616,539 L201,0 L109,0"/> 
            <glyph glyph-name="К" unicode="&#x41A;" horiz-adv-x="694" d=" M353,308 L207,308 L207,0 L109,0 L109,700 L207,700 L207,396 L355,396 L575,700 L682,700 L432,361 L694,0 L580,0"/> 
            <glyph glyph-name="Л" unicode="&#x41B;" horiz-adv-x="681" d=" M681,700 L681,0 L583,0 L583,613 L273,613 L266,408 Q261,263 242.5,173 Q224,83 184,37.5 Q144,-8 76,-8 Q45,-8 13,0 L20,89 Q36,85 52,85 Q95,85 121,119.5 Q147,154 160,223 Q173,292 177,405 L188,700"/> 
            <glyph glyph-name="М" unicode="&#x41C;" horiz-adv-x="854" d=" M758,0 L757,510 L504,85 L458,85 L205,507 L205,0 L109,0 L109,700 L191,700 L483,208 L771,700 L853,700 L854,0"/> 
            <glyph glyph-name="Н" unicode="&#x41D;" horiz-adv-x="711" d=" M711,700 L711,0 L611,0 L611,312 L209,312 L209,0 L109,0 L109,700 L209,700 L209,399 L611,399 L611,700"/> 
            <glyph glyph-name="О" unicode="&#x41E;" horiz-adv-x="795" d=" M318,-8 Q148,85 99.5,167 Q51,249 51,350 Q51,451 99.5,533 Q148,615 233,661.5 Q318,708 424,708 Q529,708 614,661.5 Q699,615 747,533.5 Q795,452 795,350 Q795,248 747,166.5 Q699,85 614,38.5 Q529,-8 424,-8 M501,81 Q624,151 659.5,212.5 Q695,274 695,350 Q695,426 659.5,487.5 Q624,549 562.5,584 Q501,619 424,619 Q347,619 284.5,584 Q222,549 186.5,487.5 Q151,426 151,350 Q151,274 186.5,212.5 Q222,151 284.5,116 Q347,81 424,81"/> 
            <glyph glyph-name="П" unicode="&#x41F;" horiz-adv-x="712" d=" M712,700 L712,0 L614,0 L614,613 L208,613 L208,0 L109,0 L109,700"/> 
            <glyph glyph-name="Р" unicode="&#x420;" horiz-adv-x="674" d=" M518,700 Q674,570 674,456 Q674,342 596,277 Q518,212 382,212 L209,212 L209,0 L109,0 L109,700 L382,700 M474,299 Q574,380 574,456 Q574,532 524,572.5 Q474,613 379,613 L209,613 L209,299 L379,299"/> 
            <glyph glyph-name="С" unicode="&#x421;" horiz-adv-x="689" d=" M317,-8 Q148,85 100,166.5 Q52,248 52,350 Q52,452 100,533.5 Q148,615 233,661.5 Q318,708 423,708 Q505,708 573,680.5 Q641,653 689,599 L624,536 Q545,619 427,619 Q349,619 286,584 Q223,549 187.5,487.5 Q152,426 152,350 Q152,274 187.5,212.5 Q223,151 286,116 Q349,81 427,81 Q544,81 624,165 L689,102 Q641,48 572.5,20 Q504,-8 422,-8"/> 
            <glyph glyph-name="Т" unicode="&#x422;" horiz-adv-x="590" d=" M590,613 L350,613 L350,0 L252,0 L252,613 L13,613 L13,700 L590,700"/> 
            <glyph glyph-name="У" unicode="&#x423;" horiz-adv-x="682" d=" M682,700 L371,123 Q334,54 284,20 Q234,-14 175,-14 Q129,-14 81,7 L107,87 Q144,74 173,74 Q239,74 282,144 L298,169 L16,700 L123,700 L350,256 L583,700"/> 
            <glyph glyph-name="Ф" unicode="&#x424;" horiz-adv-x="881" d=" M881,212 Q687,54 510,48 L510,-26 L417,-26 L417,48 Q240,55 142.5,134 Q45,213 45,351 Q45,490 142.5,569 Q240,648 417,655 L417,726 L510,726 L510,655 Q686,648 783.5,568.5 Q881,489 881,351 M644,134 Q785,249 785,352 Q785,453 713.5,510.5 Q642,568 510,576 L510,126 M142,249 Q285,134 417,126 L417,576 Q283,568 212.5,511 Q142,454 142,351"/> 
            <glyph glyph-name="Х" unicode="&#x425;" horiz-adv-x="651" d=" M149,700 L332,444 L515,700 L632,700 L395,364 L651,0 L533,0 L332,279 L132,0 L17,0 L272,360 L34,700"/> 
            <glyph glyph-name="Ц" unicode="&#x426;" horiz-adv-x="805" d=" M805,87 L805,-159 L712,-159 L712,0 L109,0 L109,700 L208,700 L208,87 L598,87 L598,700 L697,700 L697,87"/> 
            <glyph glyph-name="Ч" unicode="&#x427;" horiz-adv-x="627" d=" M627,700 L627,0 L528,0 L528,277 Q417,234 323,234 Q195,234 124.5,296 Q54,358 54,473 L54,700 L152,700 L152,484 Q152,406 199.5,364 Q247,322 334,322 Q431,322 528,366 L528,700"/> 
            <glyph glyph-name="Ш" unicode="&#x428;" horiz-adv-x="986" d=" M986,700 L986,0 L109,0 L109,700 L208,700 L208,87 L499,87 L499,700 L597,700 L597,87 L888,87 L888,700"/> 
            <glyph glyph-name="Щ" unicode="&#x429;" horiz-adv-x="1091" d=" M1091,87 L1091,-153 L999,-153 L999,0 L886,0 L886,87 M986,700 L986,0 L109,0 L109,700 L208,700 L208,87 L499,87 L499,700 L597,700 L597,87 L888,87 L888,700"/> 
            <glyph glyph-name="Ъ" unicode="&#x42A;" horiz-adv-x="788" d=" M656,456 Q788,344 788,235 Q788,120 716.5,60 Q645,0 512,0 L224,0 L224,613 L13,613 L13,700 L323,700 L323,456 L531,456 M597,79 Q688,158 688,233 Q688,377 510,377 L323,377 L323,79 L510,79"/> 
            <glyph glyph-name="Ы" unicode="&#x42B;" horiz-adv-x="884" d=" M785,700 L884,700 L884,0 L785,0 M541,456 Q674,344 674,235 Q674,120 602.5,60 Q531,0 398,0 L109,0 L109,700 L208,700 L208,456 L416,456 M481,79 Q574,158 574,233 Q574,377 394,377 L208,377 L208,79 L394,79"/> 
            <glyph glyph-name="Ь" unicode="&#x42C;" horiz-adv-x="674" d=" M541,456 Q674,344 674,235 Q674,120 602.5,60 Q531,0 398,0 L109,0 L109,700 L208,700 L208,456 L416,456 M481,79 Q574,158 574,233 Q574,377 394,377 L208,377 L208,79 L394,79"/> 
            <glyph glyph-name="Э" unicode="&#x42D;" horiz-adv-x="654" d=" M402,708 Q562,615 608,533.5 Q654,452 654,350 Q654,248 608,166.5 Q562,85 482,38.5 Q402,-8 302,-8 Q216,-8 146,20 Q76,48 29,102 L92,165 Q171,82 297,82 Q364,82 419,111.5 Q474,141 509,194 Q544,247 551,315 L212,315 L212,397 L550,397 Q540,462 505,512 Q470,562 416,590 Q362,618 297,618 Q172,618 92,535 L29,598 Q76,652 146.5,680 Q217,708 302,708"/> 
            <glyph glyph-name="Ю" unicode="&#x42E;" horiz-adv-x="1045" d=" M790,708 Q952,615 998.5,533.5 Q1045,452 1045,350 Q1045,248 998.5,166.5 Q952,85 871,38.5 Q790,-8 689,-8 Q595,-8 518,33 Q441,74 393,146 Q345,218 336,310 L208,310 L208,0 L109,0 L109,700 L208,700 L208,400 L337,400 Q348,489 396.5,559 Q445,629 521,668.5 Q597,708 689,708 M761,82 Q878,151 911.5,212 Q945,273 945,350 Q945,427 911.5,488 Q878,549 819.5,583.5 Q761,618 689,618 Q618,618 560,583.5 Q502,549 468.5,488 Q435,427 435,350 Q435,273 468.5,212 Q502,151 560,116.5 Q618,82 689,82"/> 
            <glyph glyph-name="Я" unicode="&#x42F;" horiz-adv-x="622" d=" M622,700 L622,0 L524,0 L524,204 L331,204 Q313,204 304,205 L164,0 L58,0 L213,222 Q138,247 98,305.5 Q58,364 58,448 Q58,567 134.5,633.5 Q211,700 341,700 M159,371 Q250,288 339,288 L524,288 L524,613 L345,613 Q255,613 207,571 Q159,529 159,449"/> 
            <glyph glyph-name="а" unicode="&#x430;" horiz-adv-x="509" d=" M648,535 Q765,427 765,320 L765,0 L674,0 L674,70 Q650,33 605.5,13.5 Q561,-6 500,-6 Q411,-6 357.5,37 Q304,80 304,150 Q304,220 355,262.5 Q406,305 517,305 L669,305 L669,324 Q669,386 633,419 Q597,452 527,452 Q480,452 435,436.5 Q390,421 359,395 L319,467 Q360,500 417,517.5 Q474,535 538,535 M571,68 Q651,117 669,162 L669,236 L521,236 Q399,236 399,154 Q399,114 430,91 Q461,68 516,68"/> 
            <glyph glyph-name="б" unicode="&#x431;" horiz-adv-x="618" d=" M437,512 Q553,446 585.5,387.5 Q618,329 618,254 Q618,177 583.5,117.5 Q549,58 486.5,25 Q424,-8 344,-8 Q209,-8 135.5,84.5 Q62,177 62,345 Q62,508 129,600.5 Q196,693 334,723 L576,777 L590,689 L367,641 Q263,618 212,563 Q161,508 154,405 Q188,456 242,484 Q296,512 363,512 M397,72 Q476,118 498,158.5 Q520,199 520,251 Q520,330 472,378 Q424,426 346,426 Q268,426 219.5,378 Q171,330 171,251 Q171,199 193.5,158.5 Q216,118 256,95 Q296,72 346,72"/> 
            <glyph glyph-name="в" unicode="&#x432;" horiz-adv-x="557" d=" M557,249 L557,146 Q557,76 504.5,38 Q452,0 348,0 L93,0 L93,530 L339,530 Q433,530 486,494.5 Q539,459 539,394 Q539,352 516.5,321.5 Q494,291 454,275 M187,302 L331,302 Q386,302 414.5,322 Q443,342 443,380 Q443,456 331,456 L187,456 M401,74 Q461,112 461,152 Q461,193 433.5,213 Q406,233 347,233 L187,233 L187,74 L341,74"/> 
            <glyph glyph-name="г" unicode="&#x433;" horiz-adv-x="483" d=" M483,446 L189,446 L189,0 L93,0 L93,530 L483,530"/> 
            <glyph glyph-name="д" unicode="&#x434;" horiz-adv-x="632" d=" M632,84 L632,-123 L542,-123 L542,0 L99,0 L99,-123 L8,-123 L8,84 L36,84 Q87,87 106,156 Q125,225 132,351 L140,530 L551,530 L551,84 M216,244 Q191,113 158,84 L455,84 L455,446 L225,446 L220,344"/> 
            <glyph glyph-name="е" unicode="&#x435;" horiz-adv-x="572" d=" M572,251 L570,233 L140,233 Q149,163 201.5,120.5 Q254,78 332,78 Q427,78 485,142 L538,80 Q502,38 448.5,16 Q395,-6 329,-6 Q245,-6 180,28.5 Q115,63 79.5,125 Q44,187 44,265 Q44,342 78.5,404 Q113,466 173.5,500.5 Q234,535 310,535 Q386,535 445.5,500.5 Q505,466 538.5,404 Q572,342 572,262 M241,454 Q148,370 140,302 L480,302 Q472,369 425.5,411.5 Q379,454 310,454"/> 
            <glyph glyph-name="ж" unicode="&#x436;" horiz-adv-x="836" d=" M575,224 L472,224 L472,0 L376,0 L376,224 L273,224 L127,0 L13,0 L195,274 L27,530 L129,530 L272,306 L376,306 L376,530 L472,530 L472,306 L576,306 L719,530 L822,530 L654,273 L836,0 L722,0"/> 
            <glyph glyph-name="з" unicode="&#x437;" horiz-adv-x="491" d=" M433,262 Q491,200 491,154 Q491,107 459,70.5 Q427,34 370.5,13.5 Q314,-7 244,-7 Q185,-7 128.5,8.5 Q72,24 28,53 L57,126 Q95,102 144,88.5 Q193,75 243,75 Q311,75 351.5,98.5 Q392,122 392,162 Q392,199 359.5,219 Q327,239 268,239 L171,239 L171,308 L261,308 Q315,308 346,327 Q377,346 377,379 Q377,415 340.5,435 Q304,455 242,455 Q163,455 75,414 L49,488 Q146,537 252,537 Q316,537 367,519 Q418,501 447,468 Q476,435 476,393 Q476,354 450,323 Q424,292 380,276"/> 
            <glyph glyph-name="и" unicode="&#x438;" horiz-adv-x="601" d=" M93,530 L189,530 L189,144 L514,530 L601,530 L601,0 L505,0 L505,386 L181,0 L93,0"/> 
            <glyph glyph-name="й" unicode="&#x439;" horiz-adv-x="601" d=" M267,599 Q185,670 184,737 L249,737 Q250,700 274.5,677.5 Q299,655 340,655 Q381,655 406,677.5 Q431,700 432,737 L499,737 Q498,670 456,634.5 Q414,599 341,599 M93,530 L189,530 L189,144 L514,530 L601,530 L601,0 L505,0 L505,386 L181,0 L93,0"/> 
            <glyph glyph-name="к" unicode="&#x43A;" horiz-adv-x="590" d=" M299,224 L189,224 L189,0 L93,0 L93,530 L189,530 L189,306 L301,306 L473,530 L576,530 L375,275 L590,0 L477,0"/> 
            <glyph glyph-name="л" unicode="&#x43B;" horiz-adv-x="548" d=" M548,530 L548,0 L452,0 L452,446 L224,446 L218,328 Q213,221 199,149.5 Q185,78 153,35 Q121,-8 64,-8 Q38,-8 5,1 L11,82 Q24,79 35,79 Q75,79 95,114 Q115,149 121,197 Q127,245 132,334 L141,530"/> 
            <glyph glyph-name="м" unicode="&#x43C;" horiz-adv-x="704" d=" M704,530 L704,0 L617,0 L617,387 L419,60 L377,60 L181,388 L181,0 L93,0 L93,530 L192,530 L400,172 L614,530"/> 
            <glyph glyph-name="н" unicode="&#x43D;" horiz-adv-x="587" d=" M93,530 L189,530 L189,305 L491,305 L491,530 L587,530 L587,0 L491,0 L491,222 L189,222 L189,0 L93,0"/> 
            <glyph glyph-name="о" unicode="&#x43E;" horiz-adv-x="595" d=" M241,-6 Q115,64 79.5,125.5 Q44,187 44,265 Q44,343 79.5,404.5 Q115,466 178,500.5 Q241,535 320,535 Q399,535 461.5,500.5 Q524,466 559.5,404.5 Q595,343 595,265 Q595,187 559.5,125.5 Q524,64 461.5,29 Q399,-6 320,-6 M371,78 Q452,125 475,167.5 Q498,210 498,265 Q498,320 475,362.5 Q452,405 411.5,428 Q371,451 320,451 Q269,451 228.5,428 Q188,405 164.5,362.5 Q141,320 141,265 Q141,210 164.5,167.5 Q188,125 228.5,101.5 Q269,78 320,78"/> 
            <glyph glyph-name="п" unicode="&#x43F;" horiz-adv-x="584" d=" M584,530 L584,0 L488,0 L488,446 L189,446 L189,0 L93,0 L93,530"/> 
            <glyph glyph-name="р" unicode="&#x440;" horiz-adv-x="642" d=" M451,535 Q573,467 607.5,406 Q642,345 642,265 Q642,185 607.5,123.5 Q573,62 512,28 Q451,-6 374,-6 Q317,-6 269.5,16 Q222,38 189,80 L189,-194 L93,-194 L93,530 L185,530 L185,446 Q217,490 266,512.5 Q315,535 374,535 M417,78 Q498,125 521.5,167.5 Q545,210 545,265 Q545,320 521.5,362.5 Q498,405 457.5,428 Q417,451 366,451 Q316,451 275.5,427.5 Q235,404 211.5,362 Q188,320 188,265 Q188,210 211,167.5 Q234,125 275,101.5 Q316,78 366,78"/> 
            <glyph glyph-name="с" unicode="&#x441;" horiz-adv-x="540" d=" M243,-6 Q116,64 80,125.5 Q44,187 44,265 Q44,343 80,404.5 Q116,466 179.5,500.5 Q243,535 324,535 Q396,535 452.5,506 Q509,477 540,422 L467,375 Q442,413 405,432 Q368,451 323,451 Q271,451 229.5,428 Q188,405 164.5,362.5 Q141,320 141,265 Q141,209 164.5,166.5 Q188,124 229.5,101 Q271,78 323,78 Q368,78 405,97 Q442,116 467,154 L540,108 Q509,53 452.5,23.5 Q396,-6 324,-6"/> 
            <glyph glyph-name="т" unicode="&#x442;" horiz-adv-x="488" d=" M488,446 L294,446 L294,0 L198,0 L198,446 L4,446 L4,530 L488,530"/> 
            <glyph glyph-name="у" unicode="&#x443;" horiz-adv-x="566" d=" M566,530 L309,-53 Q275,-134 229.5,-167 Q184,-200 120,-200 Q81,-200 44.5,-187.5 Q8,-175 -16,-151 L25,-79 Q66,-118 120,-118 Q155,-118 178.5,-99.5 Q202,-81 221,-36 L238,1 L4,530 L104,530 L289,106 L472,530"/> 
            <glyph glyph-name="ф" unicode="&#x444;" horiz-adv-x="762" d=" M762,143 Q598,1 449,-7 L449,-194 L355,-194 L355,-7 Q206,1 124.5,71.5 Q43,142 43,266 Q43,389 124,458 Q205,527 355,535 L355,742 L449,742 L449,535 Q598,527 680,457.5 Q762,388 762,266 M138,181 Q247,85 355,78 L355,450 Q246,443 192,396 Q138,349 138,266 M667,94 L667,266 Q667,350 612,396.5 Q557,443 449,450 L449,77"/> 
            <glyph glyph-name="х" unicode="&#x445;" horiz-adv-x="533" d=" M680,0 L527,203 L372,0 L265,0 L474,271 L275,530 L382,530 L528,339 L673,530 L778,530 L578,271 L789,0"/> 
            <glyph glyph-name="ц" unicode="&#x446;" horiz-adv-x="659" d=" M659,84 L659,-127 L568,-127 L568,0 L93,0 L93,530 L189,530 L189,84 L479,84 L479,530 L575,530 L575,84"/> 
            <glyph glyph-name="ч" unicode="&#x447;" horiz-adv-x="516" d=" M516,530 L516,0 L420,0 L420,214 Q334,174 249,174 Q150,174 96,220 Q42,266 42,358 L42,530 L138,530 L138,364 Q138,309 172.5,281 Q207,253 269,253 Q339,253 420,288 L420,530"/> 
            <glyph glyph-name="ш" unicode="&#x448;" horiz-adv-x="848" d=" M848,530 L848,0 L93,0 L93,530 L189,530 L189,84 L423,84 L423,530 L519,530 L519,84 L752,84 L752,530"/> 
            <glyph glyph-name="щ" unicode="&#x449;" horiz-adv-x="927" d=" M927,84 L927,-113 L837,-113 L837,0 L748,0 L748,84 M848,530 L848,0 L93,0 L93,530 L189,530 L189,84 L423,84 L423,530 L519,530 L519,84 L752,84 L752,530"/> 
            <glyph glyph-name="ъ" unicode="&#x44A;" horiz-adv-x="609" d=" M504,351 Q609,260 609,178 Q609,93 551.5,46.5 Q494,0 389,0 L166,0 L166,446 L4,446 L4,530 L262,530 L262,351 L406,351 M448,73 Q512,127 512,180 Q512,231 480.5,255.5 Q449,280 386,280 L262,280 L262,73 L386,73"/> 
            <glyph glyph-name="ы" unicode="&#x44B;" horiz-adv-x="713" d=" M432,349 Q538,259 538,177 Q538,91 480.5,44.5 Q423,-2 316,-1 L93,0 L93,530 L189,530 L189,351 L332,350 M617,530 L713,530 L713,0 L617,0 M374,71 Q441,125 441,178 Q441,230 408,254 Q375,278 309,279 L189,281 L189,73 L309,72"/> 
            <glyph glyph-name="ь" unicode="&#x44C;" horiz-adv-x="545" d=" M439,349 Q545,259 545,177 Q545,91 487.5,44.5 Q430,-2 323,-1 L93,0 L93,530 L189,530 L189,351 L338,350 M380,71 Q447,125 447,178 Q447,230 414.5,254 Q382,278 315,279 L189,281 L189,73 L315,72"/> 
            <glyph glyph-name="э" unicode="&#x44D;" horiz-adv-x="532" d=" M327,536 Q458,466 495,404 Q532,342 532,265 Q532,187 495,125 Q458,63 392.5,28 Q327,-7 246,-7 Q176,-7 119.5,15 Q63,37 24,79 L80,135 Q144,72 242,72 Q320,72 375,116.5 Q430,161 441,233 L175,233 L175,304 L439,304 Q426,373 372,415.5 Q318,458 242,458 Q145,458 80,394 L24,449 Q63,492 120,514 Q177,536 246,536"/> 
            <glyph glyph-name="ю" unicode="&#x44E;" horiz-adv-x="831" d=" M639,535 Q761,466 796,404.5 Q831,343 831,265 Q831,187 796,125.5 Q761,64 700,29 Q639,-6 562,-6 Q492,-6 435,23 Q378,52 341.5,104.5 Q305,157 296,224 L189,224 L189,0 L93,0 L93,530 L189,530 L189,313 L297,313 Q307,379 343.5,429.5 Q380,480 436.5,507.5 Q493,535 562,535 M611,78 Q690,124 713,166.5 Q736,209 736,265 Q736,320 713,362.5 Q690,405 650.5,428 Q611,451 562,451 Q513,451 473,428 Q433,405 410.5,362.5 Q388,320 388,265 Q388,209 410.5,166.5 Q433,124 473,101 Q513,78 562,78"/> 
            <glyph glyph-name="я" unicode="&#x44F;" horiz-adv-x="518" d=" M518,530 L518,0 L432,0 L432,168 L278,168 L267,168 L151,0 L48,0 L177,181 Q117,199 85,240.5 Q53,282 53,344 Q53,435 115,482.5 Q177,530 286,530 M151,288 Q218,237 285,237 L432,237 L432,446 L289,446 Q151,446 151,341"/> 
            <glyph glyph-name="ё" unicode="&#x451;" horiz-adv-x="572" d=" M195,624 Q165,653 165,675 Q165,697 180,712 Q195,727 216,727 Q237,727 252,712 Q267,697 267,675 Q267,653 252,638.5 Q237,624 216,624 M381,624 Q351,653 351,675 Q351,697 366,712 Q381,727 402,727 Q423,727 438,712 Q453,697 453,675 Q453,653 438,638.5 Q423,624 402,624 M570,233 L140,233 Q149,163 201.5,120.5 Q254,78 332,78 Q427,78 485,142 L538,80 Q502,38 448.5,16 Q395,-6 329,-6 Q245,-6 180,28.5 Q115,63 79.5,125 Q44,187 44,265 Q44,342 78.5,404 Q113,466 173.5,500.5 Q234,535 310,535 Q386,535 445.5,500.5 Q505,466 538.5,404 Q572,342 572,262 Q572,251 570,233 M241,454 Q148,370 140,302 L480,302 Q472,369 425.5,411.5 Q379,454 310,454"/> 
            <glyph glyph-name="№" unicode="&#x2116;" horiz-adv-x="1153" d=" M925,383 Q844,425 821,462 Q798,499 798,545 Q798,591 821,628 Q844,665 884.5,685.5 Q925,706 976,706 Q1027,706 1067.5,685.5 Q1108,665 1130.5,628 Q1153,591 1153,545 Q1153,499 1130.5,462 Q1108,425 1067.5,404 Q1027,383 976,383 M607,700 L707,700 L707,0 L625,0 L205,522 L205,0 L105,0 L105,700 L187,700 L607,178 M926,649 Q865,591 865,545 Q865,499 896,470 Q927,441 976,441 Q1025,441 1055.5,470 Q1086,499 1086,545 Q1086,591 1055.5,620 Q1025,649 976,649 M818,304 L1134,304 L1134,239 L818,239"/> 
            <glyph glyph-name="	" unicode="&#x9;" horiz-adv-x="199" d=" M78,700 L191,700 L172,221 L96,221 M107,-6 Q69,31 69,58 Q69,85 88,103.5 Q107,122 135,122 Q163,122 181,103.5 Q199,85 199,58 Q199,31 180.5,12.5 Q162,-6 135,-6"/> 
            <glyph glyph-name="" unicode="&#xD;" horiz-adv-x="199" d=" M78,700 L191,700 L172,221 L96,221 M107,-6 Q69,31 69,58 Q69,85 88,103.5 Q107,122 135,122 Q163,122 181,103.5 Q199,85 199,58 Q199,31 180.5,12.5 Q162,-6 135,-6"/> 
            <glyph glyph-name="!" unicode="&#x21;" horiz-adv-x="328" d=" M63,700 L147,700 L140,430 L69,430 M244,700 L328,700 L321,430 L250,430"/> 
            <glyph glyph-name="&quot;" unicode="&#x22;" horiz-adv-x="676" d=" M529,447 L505,253 L644,253 L644,180 L496,180 L474,0 L403,0 L425,180 L236,180 L214,0 L143,0 L165,180 L27,180 L27,253 L174,253 L199,447 L59,447 L59,520 L208,520 L230,700 L301,700 L279,520 L467,520 L489,700 L560,700 L538,520 L676,520 L676,447 M458,447 L270,447 L245,253 L434,253"/> 
            <glyph glyph-name="#" unicode="&#x23;" horiz-adv-x="580" d=" M580,112 Q461,2 348,-7 L348,-120 L284,-120 L284,-7 Q211,-3 145.5,20.5 Q80,44 41,80 L78,158 Q114,125 169,103.5 Q224,82 284,78 L284,310 Q214,327 167.5,347 Q121,367 89.5,406 Q58,445 58,508 Q58,587 115.5,642 Q173,697 284,706 L284,820 L348,820 L348,707 Q405,705 458.5,689 Q512,673 551,646 L518,566 Q437,617 348,622 L348,389 Q421,371 468,351.5 Q515,332 547.5,293.5 Q580,255 580,191 M156,469 Q222,421 284,405 L284,621 Q220,613 188,583.5 Q156,554 156,512 M415,85 Q482,142 482,185 Q482,229 447.5,252.5 Q413,276 348,294 L348,79"/> 
            <glyph glyph-name="$" unicode="&#x24;" horiz-adv-x="806" d=" M127,324 Q37,430 37,515 Q37,600 82,653 Q127,706 200,706 Q273,706 317.5,653.5 Q362,601 362,515 Q362,429 317.5,376.5 Q273,324 200,324 M622,700 L699,700 L221,0 L144,0 M246,381 Q298,452 298,515 Q298,578 272,613.5 Q246,649 200,649 Q155,649 128.5,613 Q102,577 102,515 Q102,453 128.5,417 Q155,381 200,381 M570,-6 Q481,99 481,185 Q481,271 525.5,323.5 Q570,376 643,376 Q716,376 761,323 Q806,270 806,185 Q806,100 761,47 Q716,-6 643,-6 M688,51 Q741,123 741,185 Q741,247 714.5,283 Q688,319 643,319 Q597,319 571,283.5 Q545,248 545,185 Q545,122 571,86.5 Q597,51 643,51"/> 
            <glyph glyph-name="%" unicode="&#x25;" horiz-adv-x="671" d=" M617,-11 L524,82 Q431,-8 290,-8 Q220,-8 164,15 Q108,38 76.5,79.5 Q45,121 45,174 Q45,238 84.5,287.5 Q124,337 215,389 Q169,435 150,472 Q131,509 131,549 Q131,620 182.5,663 Q234,706 320,706 Q400,706 447,667 Q494,628 494,560 Q494,507 459.5,465 Q425,423 345,377 L518,205 Q548,262 561,332 L638,307 Q620,215 577,147 L671,53 M273,636 Q220,589 220,551 Q220,524 234.5,499 Q249,474 291,431 Q360,470 386.5,498 Q413,526 413,559 Q413,594 388.5,615 Q364,636 320,636 M400,72 L467,138 L268,336 Q196,296 167.5,261.5 Q139,227 139,184 Q139,134 182.5,103 Q226,72 296,72"/> 
            <glyph glyph-name="&amp;" unicode="&#x26;" horiz-adv-x="147" d=" M63,700 L147,700 L140,430 L69,430"/> 
            <glyph glyph-name="'" unicode="&#x27;" horiz-adv-x="305" d=" M157,-102 Q95,137 95,274 Q95,411 126,531.5 Q157,652 214,742 L305,742 Q245,637 217,522 Q189,407 189,274 Q189,141 217,26 Q245,-89 305,-194 L214,-194"/> 
            <glyph glyph-name="(" unicode="&#x28;" horiz-adv-x="243" d=" M32,-194 Q92,-89 120.5,26 Q149,141 149,274 Q149,407 120.5,522 Q92,637 32,742 L123,742 Q181,652 212,532 Q243,412 243,274 Q243,137 212,17 Q181,-103 123,-194"/> 
            <glyph glyph-name=")" unicode="&#x29;" horiz-adv-x="381" d=" M262,556 L381,489 L350,434 L229,505 L230,369 L170,369 L171,505 L50,434 L19,489 L139,556 L19,622 L50,678 L171,607 L170,742 L230,742 L229,607 L350,678 L381,622"/> 
            <glyph glyph-name="*" unicode="&#x2A;" horiz-adv-x="515" d=" M515,310 L333,310 L333,131 L249,131 L249,310 L67,310 L67,389 L249,389 L249,569 L333,569 L333,389 L515,389"/> 
            <glyph glyph-name="+" unicode="&#x2B;" horiz-adv-x="180" d=" M143,131 Q180,92 180,63 Q180,48 176.5,34 Q173,20 163,-9 L116,-148 L53,-148 L90,1 Q71,8 59.5,24.5 Q48,41 48,63 Q48,93 67,112 Q86,131 115,131"/> 
            <glyph glyph-name="," unicode="&#x2C;" horiz-adv-x="326" d=" M57,316 L326,316 L326,233 L57,233"/> 
            <glyph glyph-name="-" unicode="&#x2D;" horiz-adv-x="180" d=" M86,-6 Q46,33 46,63 Q46,92 66,111.5 Q86,131 114,131 Q142,131 161,112 Q180,93 180,63 Q180,33 160.5,13.5 Q141,-6 114,-6"/> 
            <glyph glyph-name="." unicode="&#x2E;" horiz-adv-x="389" d=" M302,842 L389,842 L59,-100 L-28,-100"/> 
            <glyph glyph-name="/" unicode="&#x2F;" horiz-adv-x="619" d=" M251,-8 Q122,77 85,158 Q48,239 48,350 Q48,461 85,542 Q122,623 186.5,665.5 Q251,708 334,708 Q416,708 480.5,665.5 Q545,623 582,542 Q619,461 619,350 Q619,239 582,158 Q545,77 480.5,34.5 Q416,-8 334,-8 M418,81 Q519,219 519,350 Q519,481 468.5,550 Q418,619 334,619 Q249,619 198.5,550 Q148,481 148,350 Q148,219 198.5,150 Q249,81 334,81"/> 
            <glyph glyph-name="0" unicode="&#x30;" horiz-adv-x="265" d=" M265,700 L265,0 L166,0 L166,613 L8,613 L8,700"/> 
            <glyph glyph-name="1" unicode="&#x31;" horiz-adv-x="540" d=" M540,87 L540,0 L37,0 L37,68 L322,343 Q374,393 392,429.5 Q410,466 410,503 Q410,558 371.5,588.5 Q333,619 261,619 Q145,619 82,543 L14,602 Q55,652 121.5,680 Q188,708 270,708 Q380,708 445,655.5 Q510,603 510,513 Q510,457 486,407 Q462,357 395,293 L181,87"/> 
            <glyph glyph-name="2" unicode="&#x32;" horiz-adv-x="527" d=" M419,396 Q527,289 527,206 Q527,146 497,97.5 Q467,49 407.5,20.5 Q348,-8 262,-8 Q187,-8 118,14.5 Q49,37 5,77 L51,156 Q87,122 143,101.5 Q199,81 262,81 Q340,81 383.5,114 Q427,147 427,205 Q427,263 384,295 Q341,327 254,327 L198,327 L198,397 L374,613 L37,613 L37,700 L499,700 L499,632 L316,406"/> 
            <glyph glyph-name="3" unicode="&#x33;" horiz-adv-x="657" d=" M657,172 L524,172 L524,0 L427,0 L427,172 L38,172 L38,242 L396,700 L504,700 L161,258 L430,258 L430,410 L524,410 L524,258 L657,258"/> 
            <glyph glyph-name="4" unicode="&#x34;" horiz-adv-x="539" d=" M398,421 Q539,308 539,210 Q539,148 509.5,98.5 Q480,49 420.5,20.5 Q361,-8 274,-8 Q200,-8 131,14.5 Q62,37 17,77 L63,156 Q99,122 155,101.5 Q211,81 273,81 Q352,81 395.5,114.5 Q439,148 439,206 Q439,269 391,301.5 Q343,334 227,334 L68,334 L105,700 L500,700 L500,613 L189,613 L170,421 L248,421"/> 
            <glyph glyph-name="5" unicode="&#x35;" horiz-adv-x="590" d=" M419,425 Q528,373 559,324.5 Q590,276 590,213 Q590,147 557.5,97 Q525,47 468.5,19.5 Q412,-8 342,-8 Q201,-8 124.5,83 Q48,174 48,341 Q48,458 89.5,540.5 Q131,623 205.5,665.5 Q280,708 379,708 Q430,708 475,697.5 Q520,687 553,667 L515,589 Q465,622 381,622 Q272,622 210,554.5 Q148,487 148,358 Q148,342 149,333 Q179,378 231.5,401.5 Q284,425 350,425 M407,73 Q493,147 493,209 Q493,271 449.5,307.5 Q406,344 333,344 Q286,344 249.5,326 Q213,308 192.5,277 Q172,246 172,208 Q172,171 191.5,140.5 Q211,110 248.5,91.5 Q286,73 338,73"/> 
            <glyph glyph-name="6" unicode="&#x36;" horiz-adv-x="558" d=" M558,700 L558,632 L275,0 L169,0 L446,613 L126,613 L126,488 L30,488 L30,700"/> 
            <glyph glyph-name="7" unicode="&#x37;" horiz-adv-x="600" d=" M536,344 Q600,258 600,198 Q600,135 566,88.5 Q532,42 469,17 Q406,-8 321,-8 Q237,-8 174.5,17 Q112,42 78,88.5 Q44,135 44,198 Q44,258 75.5,301 Q107,344 167,367 Q119,390 94,428 Q69,466 69,518 Q69,576 100.5,619 Q132,662 189,685 Q246,708 321,708 Q397,708 454.5,685 Q512,662 543.5,619 Q575,576 575,518 Q575,467 549.5,428.5 Q524,390 476,367 M250,627 Q168,566 168,514 Q168,462 208.5,432 Q249,402 321,402 Q394,402 435.5,432 Q477,462 477,514 Q477,566 434.5,596.5 Q392,627 321,627 M404,73 Q500,142 500,201 Q500,259 452,292.5 Q404,326 321,326 Q238,326 191,292.5 Q144,259 144,201 Q144,142 191,107.5 Q238,73 321,73"/> 
            <glyph glyph-name="8" unicode="&#x38;" horiz-adv-x="569" d=" M416,708 Q569,526 569,359 Q569,242 527.5,159.5 Q486,77 411.5,34.5 Q337,-8 238,-8 Q187,-8 142,2.5 Q97,13 64,33 L102,111 Q153,78 237,78 Q346,78 407.5,145.5 Q469,213 469,342 L469,367 Q439,322 386,298.5 Q333,275 267,275 Q198,275 143.5,301 Q89,327 58.5,375.5 Q28,424 28,487 Q28,553 60.5,603 Q93,653 149,680.5 Q205,708 275,708 M331,356 Q405,392 425.5,423 Q446,454 446,492 Q446,529 426.5,559.5 Q407,590 369.5,608.5 Q332,627 279,627 Q210,627 167.5,590 Q125,553 125,491 Q125,429 168,392.5 Q211,356 284,356"/> 
            <glyph glyph-name="9" unicode="&#x39;" horiz-adv-x="180" d=" M86,398 Q46,437 46,467 Q46,496 66,515.5 Q86,535 114,535 Q142,535 161,516 Q180,497 180,467 Q180,437 160.5,417.5 Q141,398 114,398 M86,-6 Q46,33 46,63 Q46,92 66,111.5 Q86,131 114,131 Q142,131 161,112 Q180,93 180,63 Q180,33 160.5,13.5 Q141,-6 114,-6"/> 
            <glyph glyph-name=":" unicode="&#x3A;" horiz-adv-x="180" d=" M86,398 Q46,437 46,467 Q46,496 66,515.5 Q86,535 114,535 Q142,535 161,516 Q180,497 180,467 Q180,437 160.5,417.5 Q141,398 114,398 M143,131 Q180,92 180,63 Q180,48 176.5,34 Q173,20 163,-9 L116,-148 L53,-148 L90,1 Q71,8 59.5,24.5 Q48,41 48,63 Q48,93 67,112 Q86,131 115,131"/> 
            <glyph glyph-name=";" unicode="&#x3B;" horiz-adv-x="515" d=" M515,487 L160,350 L515,213 L515,130 L67,307 L67,393 L515,570"/> 
            <glyph glyph-name="&lt;" unicode="&#x3C;" horiz-adv-x="515" d=" M67,508 L515,508 L515,429 L67,429 M67,271 L515,271 L515,192 L67,192"/> 
            <glyph glyph-name="=" unicode="&#x3D;" horiz-adv-x="515" d=" M515,393 L515,307 L67,130 L67,213 L423,350 L67,487 L67,570"/> 
            <glyph glyph-name="&gt;" unicode="&#x3E;" horiz-adv-x="505" d=" M228,261 Q255,322 274.5,343 Q294,364 326,393 Q366,428 385,453.5 Q404,479 404,515 Q404,564 366,593.5 Q328,623 261,623 Q144,623 82,544 L9,596 Q51,650 116.5,679 Q182,708 268,708 Q377,708 441,660.5 Q505,613 505,530 Q505,489 491.5,457.5 Q478,426 459,405 Q440,384 408,355 Q367,318 347.5,290 Q328,262 328,221 L228,221 M251,-6 Q214,31 214,58 Q214,85 232.5,103.5 Q251,122 279,122 Q307,122 325,103.5 Q343,85 343,58 Q343,31 324.5,12.5 Q306,-6 279,-6"/> 
            <glyph glyph-name="?" unicode="&#x3F;" horiz-adv-x="986" d=" M655,707 Q867,596 926.5,496 Q986,396 986,268 Q986,140 939,67 Q892,-6 808,-6 Q760,-6 728.5,18.5 Q697,43 688,89 Q658,43 609.5,18.5 Q561,-6 498,-6 Q428,-6 372,27 Q316,60 284.5,118.5 Q253,177 253,251 Q253,324 284.5,382.5 Q316,441 372,473.5 Q428,506 498,506 Q556,506 603,484.5 Q650,463 681,421 L681,502 L768,502 L768,142 Q768,105 784,87.5 Q800,70 825,70 Q869,70 893.5,121.5 Q918,173 918,267 Q918,378 868,462.5 Q818,547 727.5,594 Q637,641 520,641 Q402,641 311.5,592 Q221,543 171,455 Q121,367 121,254 Q121,140 170.5,52 Q220,-36 309.5,-85.5 Q399,-135 516,-135 Q565,-135 616,-124 Q667,-113 709,-91 L731,-155 Q687,-178 629,-190 Q571,-202 516,-202 Q379,-202 272.5,-143.5 Q166,-85 107,19 Q48,123 48,254 Q48,385 107.5,488 Q167,591 274.5,649 Q382,707 520,707 M561,72 Q638,116 660.5,156.5 Q683,197 683,251 Q683,305 660.5,345.5 Q638,386 599.5,407.5 Q561,429 512,429 Q436,429 389,380.5 Q342,332 342,251 Q342,170 389.5,121 Q437,72 512,72"/> 
            <glyph glyph-name="@" unicode="&#x40;" horiz-adv-x="733" d=" M551,175 L179,175 L102,0 L-1,0 L316,700 L415,700 L733,0 L628,0 M516,255 L365,598 L214,255"/> 
            <glyph glyph-name="A" unicode="&#x41;" horiz-adv-x="707" d=" M637,346 Q707,257 707,189 Q707,98 638.5,49 Q570,0 439,0 L105,0 L105,700 L419,700 Q539,700 604.5,652 Q670,604 670,519 Q670,464 644.5,424 Q619,384 576,363 M205,619 L205,395 L410,395 Q487,395 528.5,423.5 Q570,452 570,507 Q570,562 528.5,590.5 Q487,619 410,619 M520,81 Q606,137 606,197 Q606,314 435,314 L205,314 L205,81 L435,81"/> 
            <glyph glyph-name="B" unicode="&#x42;" horiz-adv-x="685" d=" M313,-8 Q144,85 96,166.5 Q48,248 48,350 Q48,452 96,533.5 Q144,615 229,661.5 Q314,708 419,708 Q501,708 569,680.5 Q637,653 685,599 L620,536 Q541,619 423,619 Q345,619 282,584 Q219,549 183.5,487.5 Q148,426 148,350 Q148,274 183.5,212.5 Q219,151 282,116 Q345,81 423,81 Q540,81 620,165 L685,102 Q637,48 568.5,20 Q500,-8 418,-8"/> 
            <glyph glyph-name="C" unicode="&#x43;" horiz-adv-x="778" d=" M105,700 L400,700 Q511,700 597,656 Q683,612 730.5,532.5 Q778,453 778,350 Q778,247 730.5,167.5 Q683,88 597,44 Q511,0 400,0 L105,0 M394,87 Q479,87 543.5,120 Q608,153 643,212.5 Q678,272 678,350 Q678,428 643,487.5 Q608,547 543.5,580 Q479,613 394,613 L205,613 L205,87"/> 
            <glyph glyph-name="D" unicode="&#x44;" horiz-adv-x="613" d=" M613,87 L613,0 L105,0 L105,700 L599,700 L599,613 L205,613 L205,398 L556,398 L556,313 L205,313 L205,87"/> 
            <glyph glyph-name="E" unicode="&#x45;" horiz-adv-x="599" d=" M205,613 L205,369 L556,369 L556,283 L205,283 L205,0 L105,0 L105,700 L599,700 L599,613"/> 
            <glyph glyph-name="F" unicode="&#x46;" horiz-adv-x="692" d=" M590,354 L686,354 L686,81 Q634,38 565,15 Q496,-8 421,-8 Q315,-8 230,38.5 Q145,85 96.5,166.5 Q48,248 48,350 Q48,452 96.5,534 Q145,616 230.5,662 Q316,708 423,708 Q507,708 575.5,680.5 Q644,653 692,600 L630,538 Q546,619 427,619 Q347,619 283.5,584.5 Q220,550 184,488.5 Q148,427 148,350 Q148,274 184,212.5 Q220,151 283.5,116 Q347,81 426,81 Q520,81 590,126"/> 
            <glyph glyph-name="G" unicode="&#x47;" horiz-adv-x="707" d=" M707,700 L707,0 L607,0 L607,312 L205,312 L205,0 L105,0 L105,700 L205,700 L205,399 L607,399 L607,700"/> 
            <glyph glyph-name="H" unicode="&#x48;" horiz-adv-x="205" d=" M105,700 L205,700 L205,0 L105,0"/> 
            <glyph glyph-name="I" unicode="&#x49;" horiz-adv-x="414" d=" M132,-8 Q24,45 -9,93 L49,161 Q107,78 195,78 Q254,78 284.5,114 Q315,150 315,220 L315,613 L62,613 L62,700 L414,700 L414,225 Q414,109 358.5,50.5 Q303,-8 195,-8"/> 
            <glyph glyph-name="J" unicode="&#x4A;" horiz-adv-x="718" d=" M333,311 L205,181 L205,0 L105,0 L105,700 L205,700 L205,309 L585,700 L699,700 L400,385 L718,0 L601,0"/> 
            <glyph glyph-name="K" unicode="&#x4B;" horiz-adv-x="584" d=" M105,700 L205,700 L205,87 L584,87 L584,0 L105,0"/> 
            <glyph glyph-name="L" unicode="&#x4C;" horiz-adv-x="850" d=" M754,0 L753,510 L500,85 L454,85 L201,507 L201,0 L105,0 L105,700 L187,700 L479,208 L767,700 L849,700 L850,0"/> 
            <glyph glyph-name="M" unicode="&#x4D;" horiz-adv-x="707" d=" M707,700 L707,0 L625,0 L205,522 L205,0 L105,0 L105,700 L187,700 L607,178 L607,700"/> 
            <glyph glyph-name="N" unicode="&#x4E;" horiz-adv-x="792" d=" M315,-8 Q145,85 96.5,167 Q48,249 48,350 Q48,451 96.5,533 Q145,615 230,661.5 Q315,708 421,708 Q526,708 611,661.5 Q696,615 744,533.5 Q792,452 792,350 Q792,248 744,166.5 Q696,85 611,38.5 Q526,-8 421,-8 M498,81 Q621,151 656.5,212.5 Q692,274 692,350 Q692,426 656.5,487.5 Q621,549 559.5,584 Q498,619 421,619 Q344,619 281.5,584 Q219,549 183.5,487.5 Q148,426 148,350 Q148,274 183.5,212.5 Q219,151 281.5,116 Q344,81 421,81"/> 
            <glyph glyph-name="O" unicode="&#x4F;" horiz-adv-x="670" d=" M514,700 Q670,570 670,456 Q670,342 592,277 Q514,212 378,212 L205,212 L205,0 L105,0 L105,700 L378,700 M470,299 Q570,380 570,456 Q570,532 520,572.5 Q470,613 375,613 L205,613 L205,299 L375,299"/> 
            <glyph glyph-name="P" unicode="&#x50;" horiz-adv-x="826" d=" M826,-64 Q792,-104 747,-125 Q702,-146 650,-146 Q584,-146 526.5,-114.5 Q469,-83 395,-7 Q296,-2 216.5,46 Q137,94 92.5,173.5 Q48,253 48,350 Q48,451 96.5,533 Q145,615 230,661.5 Q315,708 421,708 Q526,708 611,661.5 Q696,615 744,533.5 Q792,452 792,350 Q792,264 757.5,192 Q723,120 660.5,71 Q598,22 517,3 Q552,-34 584.5,-50.5 Q617,-67 651,-67 Q725,-67 779,-7 M148,274 Q219,151 281.5,116 Q344,81 421,81 Q497,81 559,116 Q621,151 656.5,212.5 Q692,274 692,350 Q692,426 656.5,487.5 Q621,549 559,584 Q497,619 421,619 Q344,619 281.5,584 Q219,549 183.5,487.5 Q148,426 148,350"/> 
            <glyph glyph-name="Q" unicode="&#x51;" horiz-adv-x="682" d=" M573,0 L422,215 Q394,213 378,213 L205,213 L205,0 L105,0 L105,700 L378,700 Q514,700 592,635 Q670,570 670,456 Q670,375 630,318 Q590,261 516,235 L682,0 M470,298 Q570,380 570,456 Q570,532 520,572.5 Q470,613 375,613 L205,613 L205,298 L375,298"/> 
            <glyph glyph-name="R" unicode="&#x52;" horiz-adv-x="580" d=" M230,-8 Q83,41 41,80 L78,158 Q118,122 180.5,99.5 Q243,77 309,77 Q396,77 439,106.5 Q482,136 482,185 Q482,221 458.5,243.5 Q435,266 400.5,278 Q366,290 303,305 Q224,324 175.5,343 Q127,362 92.5,401.5 Q58,441 58,508 Q58,564 87.5,609 Q117,654 177,681 Q237,708 326,708 Q388,708 448,692 Q508,676 551,646 L518,566 Q474,594 424,608.5 Q374,623 326,623 Q241,623 198.5,592 Q156,561 156,512 Q156,476 180,453.5 Q204,431 239.5,418.5 Q275,406 336,392 Q415,373 463,354 Q511,335 545.5,296 Q580,257 580,191 Q580,136 550,90.5 Q520,45 459,18.5 Q398,-8 309,-8"/> 
            <glyph glyph-name="S" unicode="&#x53;" horiz-adv-x="583" d=" M244,613 L4,613 L4,700 L583,700 L583,613 L343,613 L343,0 L244,0"/> 
            <glyph glyph-name="T" unicode="&#x54;" horiz-adv-x="691" d=" M255,-8 Q99,152 99,302 L99,700 L199,700 L199,306 Q199,81 396,81 Q492,81 543,136.5 Q594,192 594,306 L594,700 L691,700 L691,302 Q691,151 613,71.5 Q535,-8 395,-8"/> 
            <glyph glyph-name="U" unicode="&#x55;" horiz-adv-x="713" d=" M713,700 L406,0 L307,0 L-1,700 L107,700 L359,125 L613,700"/> 
            <glyph glyph-name="V" unicode="&#x56;" horiz-adv-x="1094" d=" M1094,700 L860,0 L755,0 L564,559 L373,0 L266,0 L32,700 L135,700 L324,131 L521,700 L613,700 L806,128 L999,700"/> 
            <glyph glyph-name="W" unicode="&#x57;" horiz-adv-x="660" d=" M545,0 L335,289 L128,0 L13,0 L276,359 L29,700 L143,700 L339,431 L533,700 L642,700 L395,362 L660,0"/> 
            <glyph glyph-name="X" unicode="&#x58;" horiz-adv-x="651" d=" M373,242 L373,0 L274,0 L274,244 L-4,700 L103,700 L327,331 L552,700 L651,700"/> 
            <glyph glyph-name="Y" unicode="&#x59;" horiz-adv-x="628" d=" M628,87 L628,0 L43,0 L43,68 L483,613 L50,613 L50,700 L615,700 L615,632 L177,87"/> 
            <glyph glyph-name="Z" unicode="&#x5A;" horiz-adv-x="314" d=" M105,742 L314,742 L314,663 L201,663 L201,-115 L314,-115 L314,-194 L105,-194"/> 
            <glyph glyph-name="[" unicode="&#x5B;" horiz-adv-x="228" d=" M19,-194 L19,-115 L132,-115 L132,663 L19,663 L19,742 L228,742 L228,-194"/> 
            <glyph glyph-name="]" unicode="&#x5D;" horiz-adv-x="508" d=" M431,142 L292,479 L152,142 L75,142 L252,558 L332,558 L508,142"/> 
            <glyph glyph-name="^" unicode="&#x5E;" horiz-adv-x="500" d=" M0,0 L500,0 L500,-62 L0,-62"/> 
            <glyph glyph-name="_" unicode="&#x5F;" horiz-adv-x="511" d=" M394,535 Q511,427 511,320 L511,0 L420,0 L420,70 Q396,33 351.5,13.5 Q307,-6 246,-6 Q157,-6 103.5,37 Q50,80 50,150 Q50,220 101,262.5 Q152,305 263,305 L415,305 L415,324 Q415,386 379,419 Q343,452 273,452 Q226,452 181,436.5 Q136,421 105,395 L65,467 Q106,500 163,517.5 Q220,535 284,535 M317,68 Q397,117 415,162 L415,236 L267,236 Q145,236 145,154 Q145,114 176,91 Q207,68 262,68"/> 
            <glyph glyph-name="a" unicode="&#x61;" horiz-adv-x="640" d=" M449,535 Q571,467 605.5,406 Q640,345 640,265 Q640,185 605.5,123.5 Q571,62 510,28 Q449,-6 372,-6 Q313,-6 264,17 Q215,40 183,84 L183,0 L91,0 L91,742 L187,742 L187,450 Q219,492 267,513.5 Q315,535 372,535 M415,78 Q496,125 519.5,167.5 Q543,210 543,265 Q543,320 519.5,362.5 Q496,405 455.5,428 Q415,451 364,451 Q314,451 273,428 Q232,405 209,362.5 Q186,320 186,265 Q186,210 209,167.5 Q232,125 273,101.5 Q314,78 364,78"/> 
            <glyph glyph-name="b" unicode="&#x62;" horiz-adv-x="538" d=" M241,-6 Q114,64 78,125.5 Q42,187 42,265 Q42,343 78,404.5 Q114,466 177.5,500.5 Q241,535 322,535 Q394,535 450.5,506 Q507,477 538,422 L465,375 Q440,413 403,432 Q366,451 321,451 Q269,451 227.5,428 Q186,405 162.5,362.5 Q139,320 139,265 Q139,209 162.5,166.5 Q186,124 227.5,101 Q269,78 321,78 Q366,78 403,97 Q440,116 465,154 L538,108 Q507,53 450.5,23.5 Q394,-6 322,-6"/> 
            <glyph glyph-name="c" unicode="&#x63;" horiz-adv-x="591" d=" M591,742 L591,0 L499,0 L499,84 Q467,40 418,17 Q369,-6 310,-6 Q233,-6 172,28 Q111,62 76.5,123.5 Q42,185 42,265 Q42,345 76.5,406 Q111,467 172,501 Q233,535 310,535 Q367,535 415,513.5 Q463,492 495,450 L495,742 M368,78 Q450,125 473,167.5 Q496,210 496,265 Q496,320 473,362.5 Q450,405 409,428 Q368,451 318,451 Q267,451 226.5,428 Q186,405 162.5,362.5 Q139,320 139,265 Q139,210 162.5,167.5 Q186,125 226.5,101.5 Q267,78 318,78"/> 
            <glyph glyph-name="d" unicode="&#x64;" horiz-adv-x="570" d=" M570,251 L568,233 L138,233 Q147,163 199.5,120.5 Q252,78 330,78 Q425,78 483,142 L536,80 Q500,38 446.5,16 Q393,-6 327,-6 Q243,-6 178,28.5 Q113,63 77.5,125 Q42,187 42,265 Q42,342 76.5,404 Q111,466 171.5,500.5 Q232,535 308,535 Q384,535 443.5,500.5 Q503,466 536.5,404 Q570,342 570,262 M239,454 Q146,370 138,302 L478,302 Q470,369 423.5,411.5 Q377,454 308,454"/> 
            <glyph glyph-name="e" unicode="&#x65;" horiz-adv-x="388" d=" M199,669 L199,576 L199,530 L353,530 L353,451 L201,451 L201,0 L105,0 L105,451 L15,451 L15,530 L105,530 L105,577 Q105,656 151,702 Q197,748 280,748 Q312,748 340,740 Q368,732 388,717 L359,644 Q326,669 285,669"/> 
            <glyph glyph-name="f" unicode="&#x66;" horiz-adv-x="598" d=" M598,530 L598,72 Q598,-67 529,-133.5 Q460,-200 323,-200 Q248,-200 180,-179.5 Q112,-159 70,-121 L116,-47 Q153,-79 207.5,-97.5 Q262,-116 320,-116 Q413,-116 457.5,-72 Q502,-28 502,62 L502,104 Q468,63 418.5,42.5 Q369,22 311,22 Q235,22 173.5,54.5 Q112,87 77,145.5 Q42,204 42,279 Q42,354 77,412.5 Q112,471 173.5,503 Q235,535 311,535 Q371,535 422.5,513 Q474,491 507,448 L507,530 M374,106 Q457,150 480.5,189.5 Q504,229 504,279 Q504,356 453,403.5 Q402,451 322,451 Q241,451 190,403.5 Q139,356 139,279 Q139,229 162.5,189.5 Q186,150 227.5,128 Q269,106 322,106"/> 
            <glyph glyph-name="g" unicode="&#x67;" horiz-adv-x="594" d=" M475,535 Q594,418 594,305 L594,0 L498,0 L498,294 Q498,371 461,410 Q424,449 355,449 Q277,449 232,403.5 Q187,358 187,273 L187,0 L91,0 L91,742 L187,742 L187,455 Q217,493 265.5,514 Q314,535 374,535"/> 
            <glyph glyph-name="h" unicode="&#x68;" horiz-adv-x="204" d=" M111,632 Q74,668 74,694 Q74,720 92.5,738.5 Q111,757 139,757 Q167,757 185.5,739.5 Q204,722 204,696 Q204,669 185.5,650.5 Q167,632 139,632 M91,530 L187,530 L187,0 L91,0"/> 
            <glyph glyph-name="i" unicode="&#x69;" horiz-adv-x="209" d=" M116,632 Q79,668 79,694 Q79,720 97.5,738.5 Q116,757 144,757 Q172,757 190.5,739.5 Q209,722 209,696 Q209,669 190.5,650.5 Q172,632 144,632 M-12,-200 Q-72,-184 -92,-168 L-61,-94 Q-31,-119 17,-119 Q55,-119 75.5,-95.5 Q96,-72 96,-26 L96,530 L192,530 L192,-24 Q192,-106 148,-153 Q104,-200 23,-200"/> 
            <glyph glyph-name="j" unicode="&#x6A;" horiz-adv-x="614" d=" M297,247 L187,145 L187,0 L91,0 L91,742 L187,742 L187,266 L476,530 L592,530 L369,311 L614,0 L496,0"/> 
            <glyph glyph-name="k" unicode="&#x6B;" horiz-adv-x="187" d=" M91,742 L187,742 L187,0 L91,0"/> 
            <glyph glyph-name="l" unicode="&#x6C;" horiz-adv-x="971" d=" M854,535 Q971,419 971,305 L971,0 L875,0 L875,294 Q875,371 839.5,410 Q804,449 738,449 Q665,449 622,403.5 Q579,358 579,273 L579,0 L483,0 L483,294 Q483,371 447.5,410 Q412,449 346,449 Q273,449 230,403.5 Q187,358 187,273 L187,0 L91,0 L91,530 L183,530 L183,451 Q212,492 259,513.5 Q306,535 366,535 Q428,535 476,510 Q524,485 550,437 Q580,483 633.5,509 Q687,535 754,535"/> 
            <glyph glyph-name="m" unicode="&#x6D;" horiz-adv-x="594" d=" M475,535 Q594,418 594,305 L594,0 L498,0 L498,294 Q498,371 461,410 Q424,449 355,449 Q277,449 232,403.5 Q187,358 187,273 L187,0 L91,0 L91,530 L183,530 L183,450 Q212,491 261.5,513 Q311,535 374,535"/> 
            <glyph glyph-name="n" unicode="&#x6E;" horiz-adv-x="593" d=" M239,-6 Q113,64 77.5,125.5 Q42,187 42,265 Q42,343 77.5,404.5 Q113,466 176,500.5 Q239,535 318,535 Q397,535 459.5,500.5 Q522,466 557.5,404.5 Q593,343 593,265 Q593,187 557.5,125.5 Q522,64 459.5,29 Q397,-6 318,-6 M369,78 Q450,125 473,167.5 Q496,210 496,265 Q496,320 473,362.5 Q450,405 409.5,428 Q369,451 318,451 Q267,451 226.5,428 Q186,405 162.5,362.5 Q139,320 139,265 Q139,210 162.5,167.5 Q186,125 226.5,101.5 Q267,78 318,78"/> 
            <glyph glyph-name="o" unicode="&#x6F;" horiz-adv-x="640" d=" M449,535 Q571,467 605.5,406 Q640,345 640,265 Q640,185 605.5,123.5 Q571,62 510,28 Q449,-6 372,-6 Q315,-6 267.5,16 Q220,38 187,80 L187,-194 L91,-194 L91,530 L183,530 L183,446 Q215,490 264,512.5 Q313,535 372,535 M415,78 Q496,125 519.5,167.5 Q543,210 543,265 Q543,320 519.5,362.5 Q496,405 455.5,428 Q415,451 364,451 Q314,451 273.5,427.5 Q233,404 209.5,362 Q186,320 186,265 Q186,210 209,167.5 Q232,125 273,101.5 Q314,78 364,78"/> 
            <glyph glyph-name="p" unicode="&#x70;" horiz-adv-x="591" d=" M591,530 L591,-194 L495,-194 L495,80 Q462,38 414.5,16 Q367,-6 310,-6 Q233,-6 172,28 Q111,62 76.5,123.5 Q42,185 42,265 Q42,345 76.5,406 Q111,467 172,501 Q233,535 310,535 Q369,535 418,512.5 Q467,490 499,446 L499,530 M368,78 Q450,125 473,167.5 Q496,210 496,265 Q496,320 472.5,362 Q449,404 408.5,427.5 Q368,451 318,451 Q267,451 226.5,428 Q186,405 162.5,362.5 Q139,320 139,265 Q139,210 162.5,167.5 Q186,125 226.5,101.5 Q267,78 318,78"/> 
            <glyph glyph-name="q" unicode="&#x71;" horiz-adv-x="376" d=" M208,487 Q306,535 376,535 L376,442 Q368,443 354,443 Q276,443 231.5,396.5 Q187,350 187,264 L187,0 L91,0 L91,530 L183,530 L183,441"/> 
            <glyph glyph-name="r" unicode="&#x72;" horiz-adv-x="472" d=" M178,-6 Q58,29 24,56 L64,132 Q99,107 149,92 Q199,77 250,77 Q376,77 376,149 Q376,173 359,187 Q342,201 316.5,207.5 Q291,214 244,222 Q180,232 139.5,245 Q99,258 70,289 Q41,320 41,376 Q41,448 101,491.5 Q161,535 262,535 Q315,535 368,522 Q421,509 455,487 L414,411 Q349,453 261,453 Q200,453 168,433 Q136,413 136,380 Q136,354 154,339 Q172,324 198.5,317 Q225,310 273,301 Q337,290 376.5,277.5 Q416,265 444,235 Q472,205 472,151 Q472,79 410.5,36.5 Q349,-6 243,-6"/> 
            <glyph glyph-name="s" unicode="&#x73;" horiz-adv-x="389" d=" M389,31 Q368,13 337,3.5 Q306,-6 273,-6 Q193,-6 149,37 Q105,80 105,160 L105,451 L15,451 L15,530 L105,530 L105,646 L201,646 L201,530 L353,530 L353,451 L201,451 L201,164 Q201,121 222.5,98 Q244,75 284,75 Q328,75 359,100"/> 
            <glyph glyph-name="t" unicode="&#x74;" horiz-adv-x="585" d=" M585,530 L585,0 L494,0 L494,80 Q465,39 417.5,16.5 Q370,-6 314,-6 Q208,-6 147,52.5 Q86,111 86,225 L86,530 L182,530 L182,236 Q182,159 219,119.5 Q256,80 325,80 Q401,80 445,126 Q489,172 489,256 L489,530"/> 
            <glyph glyph-name="u" unicode="&#x75;" horiz-adv-x="560" d=" M560,530 L328,0 L230,0 L-2,530 L98,530 L280,105 L466,530"/> 
            <glyph glyph-name="v" unicode="&#x76;" horiz-adv-x="893" d=" M893,530 L695,0 L603,0 L450,402 L295,0 L203,0 L6,530 L97,530 L251,108 L411,530 L492,530 L649,106 L807,530"/> 
            <glyph glyph-name="w" unicode="&#x77;" horiz-adv-x="538" d=" M429,0 L276,203 L121,0 L14,0 L223,271 L24,530 L131,530 L277,339 L422,530 L527,530 L327,271 L538,0"/> 
            <glyph glyph-name="x" unicode="&#x78;" horiz-adv-x="560" d=" M560,530 L303,-53 Q269,-134 223.5,-167 Q178,-200 114,-200 Q75,-200 38.5,-187.5 Q2,-175 -22,-151 L19,-79 Q60,-118 114,-118 Q149,-118 172.5,-99.5 Q196,-81 215,-36 L232,1 L-2,530 L98,530 L283,106 L466,530"/> 
            <glyph glyph-name="y" unicode="&#x79;" horiz-adv-x="484" d=" M484,79 L484,0 L40,0 L40,62 L353,451 L46,451 L46,530 L476,530 L476,467 L163,79"/> 
            <glyph glyph-name="z" unicode="&#x7A;" horiz-adv-x="332" d=" M233,325 Q207,283 178,274 Q207,265 220,244 Q233,223 233,182 L233,-37 Q233,-115 307,-115 L332,-115 L332,-194 L288,-194 Q213,-194 175,-156.5 Q137,-119 137,-46 L137,184 Q137,234 92,234 L57,234 L57,314 L92,314 Q137,314 137,364 L137,594 Q137,667 175,704.5 Q213,742 288,742 L332,742 L332,663 L307,663 Q233,663 233,585 L233,366"/> 
            <glyph glyph-name="{" unicode="&#x7B;" horiz-adv-x="194" d=" M105,742 L194,742 L194,-194 L105,-194"/> 
            <glyph glyph-name="|" unicode="&#x7C;" horiz-adv-x="293" d=" M293,314 L293,234 L259,234 Q215,234 215,184 L215,-46 Q215,-119 176.5,-156.5 Q138,-194 63,-194 L19,-194 L19,-115 L43,-115 Q119,-115 119,-37 L119,182 Q119,224 131.5,244.5 Q144,265 173,274 Q144,283 131.5,303.5 Q119,324 119,366 L119,585 Q119,663 43,663 L19,663 L19,742 L63,742 Q138,742 176.5,704.5 Q215,667 215,594 L215,364 Q215,314 259,314"/> 
            <glyph glyph-name="}" unicode="&#x7D;" horiz-adv-x="470" d=" M238,265 L382,457 L470,457 L329,265 L470,74 L382,74 M46,265 L190,457 L278,457 L137,265 L278,74 L190,74"/> 
            <glyph glyph-name="Ç" unicode="&#xC7;" horiz-adv-x="458" d=" M226,74 L367,265 L226,457 L314,457 L458,265 L314,74 M34,74 L175,265 L34,457 L122,457 L266,265 L122,74"/> 
            <glyph glyph-name="È" unicode="&#xC8;" horiz-adv-x="617" d=" M243,774 Q213,803 213,825 Q213,847 228,862 Q243,877 264,877 Q285,877 300,862 Q315,847 315,825 Q315,803 300,788.5 Q285,774 264,774 M429,774 Q399,803 399,825 Q399,847 414,862 Q429,877 450,877 Q471,877 486,862 Q501,847 501,825 Q501,803 486,788.5 Q471,774 450,774 M617,87 L617,0 L109,0 L109,700 L603,700 L603,613 L209,613 L209,398 L560,398 L560,313 L209,313 L209,87"/> 
            <glyph glyph-name="!" unicode="&#x21;" horiz-adv-x="676" d=" M529,447 L505,253 L644,253 L644,180 L496,180 L474,0 L403,0 L425,180 L236,180 L214,0 L143,0 L165,180 L27,180 L27,253 L174,253 L199,447 L59,447 L59,520 L208,520 L230,700 L301,700 L279,520 L467,520 L489,700 L560,700 L538,520 L676,520 L676,447 M458,447 L270,447 L245,253 L434,253"/> 
            <glyph glyph-name="&quot;" unicode="&#x22;" horiz-adv-x="580" d=" M580,112 Q461,2 348,-7 L348,-120 L284,-120 L284,-7 Q211,-3 145.5,20.5 Q80,44 41,80 L78,158 Q114,125 169,103.5 Q224,82 284,78 L284,310 Q214,327 167.5,347 Q121,367 89.5,406 Q58,445 58,508 Q58,587 115.5,642 Q173,697 284,706 L284,820 L348,820 L348,707 Q405,705 458.5,689 Q512,673 551,646 L518,566 Q437,617 348,622 L348,389 Q421,371 468,351.5 Q515,332 547.5,293.5 Q580,255 580,191 M156,469 Q222,421 284,405 L284,621 Q220,613 188,583.5 Q156,554 156,512 M415,85 Q482,142 482,185 Q482,229 447.5,252.5 Q413,276 348,294 L348,79"/> 
            <glyph glyph-name="#" unicode="&#x23;" horiz-adv-x="806" d=" M127,324 Q37,430 37,515 Q37,600 82,653 Q127,706 200,706 Q273,706 317.5,653.5 Q362,601 362,515 Q362,429 317.5,376.5 Q273,324 200,324 M622,700 L699,700 L221,0 L144,0 M246,381 Q298,452 298,515 Q298,578 272,613.5 Q246,649 200,649 Q155,649 128.5,613 Q102,577 102,515 Q102,453 128.5,417 Q155,381 200,381 M570,-6 Q481,99 481,185 Q481,271 525.5,323.5 Q570,376 643,376 Q716,376 761,323 Q806,270 806,185 Q806,100 761,47 Q716,-6 643,-6 M688,51 Q741,123 741,185 Q741,247 714.5,283 Q688,319 643,319 Q597,319 571,283.5 Q545,248 545,185 Q545,122 571,86.5 Q597,51 643,51"/> 
            <glyph glyph-name="$" unicode="&#x24;" horiz-adv-x="671" d=" M617,-11 L524,82 Q431,-8 290,-8 Q220,-8 164,15 Q108,38 76.5,79.5 Q45,121 45,174 Q45,238 84.5,287.5 Q124,337 215,389 Q169,435 150,472 Q131,509 131,549 Q131,620 182.5,663 Q234,706 320,706 Q400,706 447,667 Q494,628 494,560 Q494,507 459.5,465 Q425,423 345,377 L518,205 Q548,262 561,332 L638,307 Q620,215 577,147 L671,53 M273,636 Q220,589 220,551 Q220,524 234.5,499 Q249,474 291,431 Q360,470 386.5,498 Q413,526 413,559 Q413,594 388.5,615 Q364,636 320,636 M400,72 L467,138 L268,336 Q196,296 167.5,261.5 Q139,227 139,184 Q139,134 182.5,103 Q226,72 296,72"/> 
            <glyph glyph-name="%" unicode="&#x25;" horiz-adv-x="147" d=" M63,700 L147,700 L140,430 L69,430"/> 
            <glyph glyph-name="&amp;" unicode="&#x26;" horiz-adv-x="305" d=" M157,-102 Q95,137 95,274 Q95,411 126,531.5 Q157,652 214,742 L305,742 Q245,637 217,522 Q189,407 189,274 Q189,141 217,26 Q245,-89 305,-194 L214,-194"/> 
            <glyph glyph-name="'" unicode="&#x27;" horiz-adv-x="243" d=" M32,-194 Q92,-89 120.5,26 Q149,141 149,274 Q149,407 120.5,522 Q92,637 32,742 L123,742 Q181,652 212,532 Q243,412 243,274 Q243,137 212,17 Q181,-103 123,-194"/> 
            <glyph glyph-name="(" unicode="&#x28;" horiz-adv-x="381" d=" M262,556 L381,489 L350,434 L229,505 L230,369 L170,369 L171,505 L50,434 L19,489 L139,556 L19,622 L50,678 L171,607 L170,742 L230,742 L229,607 L350,678 L381,622"/> 
            <glyph glyph-name=")" unicode="&#x29;" horiz-adv-x="515" d=" M515,310 L333,310 L333,131 L249,131 L249,310 L67,310 L67,389 L249,389 L249,569 L333,569 L333,389 L515,389"/> 
            <glyph glyph-name="*" unicode="&#x2A;" horiz-adv-x="180" d=" M143,131 Q180,92 180,63 Q180,48 176.5,34 Q173,20 163,-9 L116,-148 L53,-148 L90,1 Q71,8 59.5,24.5 Q48,41 48,63 Q48,93 67,112 Q86,131 115,131"/> 
            <glyph glyph-name="+" unicode="&#x2B;" horiz-adv-x="326" d=" M57,316 L326,316 L326,233 L57,233"/> 
            <glyph glyph-name="," unicode="&#x2C;" horiz-adv-x="180" d=" M86,-6 Q46,33 46,63 Q46,92 66,111.5 Q86,131 114,131 Q142,131 161,112 Q180,93 180,63 Q180,33 160.5,13.5 Q141,-6 114,-6"/> 
            <glyph glyph-name="-" unicode="&#x2D;" horiz-adv-x="389" d=" M302,842 L389,842 L59,-100 L-28,-100"/> 
            <glyph glyph-name="." unicode="&#x2E;" horiz-adv-x="619" d=" M251,-8 Q122,77 85,158 Q48,239 48,350 Q48,461 85,542 Q122,623 186.5,665.5 Q251,708 334,708 Q416,708 480.5,665.5 Q545,623 582,542 Q619,461 619,350 Q619,239 582,158 Q545,77 480.5,34.5 Q416,-8 334,-8 M418,81 Q519,219 519,350 Q519,481 468.5,550 Q418,619 334,619 Q249,619 198.5,550 Q148,481 148,350 Q148,219 198.5,150 Q249,81 334,81"/> 
            <glyph glyph-name="/" unicode="&#x2F;" horiz-adv-x="265" d=" M265,700 L265,0 L166,0 L166,613 L8,613 L8,700"/> 
            <glyph glyph-name="0" unicode="&#x30;" horiz-adv-x="540" d=" M540,87 L540,0 L37,0 L37,68 L322,343 Q374,393 392,429.5 Q410,466 410,503 Q410,558 371.5,588.5 Q333,619 261,619 Q145,619 82,543 L14,602 Q55,652 121.5,680 Q188,708 270,708 Q380,708 445,655.5 Q510,603 510,513 Q510,457 486,407 Q462,357 395,293 L181,87"/> 
            <glyph glyph-name="1" unicode="&#x31;" horiz-adv-x="527" d=" M419,396 Q527,289 527,206 Q527,146 497,97.5 Q467,49 407.5,20.5 Q348,-8 262,-8 Q187,-8 118,14.5 Q49,37 5,77 L51,156 Q87,122 143,101.5 Q199,81 262,81 Q340,81 383.5,114 Q427,147 427,205 Q427,263 384,295 Q341,327 254,327 L198,327 L198,397 L374,613 L37,613 L37,700 L499,700 L499,632 L316,406"/> 
            <glyph glyph-name="2" unicode="&#x32;" horiz-adv-x="657" d=" M657,172 L524,172 L524,0 L427,0 L427,172 L38,172 L38,242 L396,700 L504,700 L161,258 L430,258 L430,410 L524,410 L524,258 L657,258"/> 
            <glyph glyph-name="3" unicode="&#x33;" horiz-adv-x="539" d=" M398,421 Q539,308 539,210 Q539,148 509.5,98.5 Q480,49 420.5,20.5 Q361,-8 274,-8 Q200,-8 131,14.5 Q62,37 17,77 L63,156 Q99,122 155,101.5 Q211,81 273,81 Q352,81 395.5,114.5 Q439,148 439,206 Q439,269 391,301.5 Q343,334 227,334 L68,334 L105,700 L500,700 L500,613 L189,613 L170,421 L248,421"/> 
            <glyph glyph-name="4" unicode="&#x34;" horiz-adv-x="590" d=" M419,425 Q528,373 559,324.5 Q590,276 590,213 Q590,147 557.5,97 Q525,47 468.5,19.5 Q412,-8 342,-8 Q201,-8 124.5,83 Q48,174 48,341 Q48,458 89.5,540.5 Q131,623 205.5,665.5 Q280,708 379,708 Q430,708 475,697.5 Q520,687 553,667 L515,589 Q465,622 381,622 Q272,622 210,554.5 Q148,487 148,358 Q148,342 149,333 Q179,378 231.5,401.5 Q284,425 350,425 M407,73 Q493,147 493,209 Q493,271 449.5,307.5 Q406,344 333,344 Q286,344 249.5,326 Q213,308 192.5,277 Q172,246 172,208 Q172,171 191.5,140.5 Q211,110 248.5,91.5 Q286,73 338,73"/> 
            <glyph glyph-name="5" unicode="&#x35;" horiz-adv-x="558" d=" M558,700 L558,632 L275,0 L169,0 L446,613 L126,613 L126,488 L30,488 L30,700"/> 
            <glyph glyph-name="6" unicode="&#x36;" horiz-adv-x="600" d=" M536,344 Q600,258 600,198 Q600,135 566,88.5 Q532,42 469,17 Q406,-8 321,-8 Q237,-8 174.5,17 Q112,42 78,88.5 Q44,135 44,198 Q44,258 75.5,301 Q107,344 167,367 Q119,390 94,428 Q69,466 69,518 Q69,576 100.5,619 Q132,662 189,685 Q246,708 321,708 Q397,708 454.5,685 Q512,662 543.5,619 Q575,576 575,518 Q575,467 549.5,428.5 Q524,390 476,367 M250,627 Q168,566 168,514 Q168,462 208.5,432 Q249,402 321,402 Q394,402 435.5,432 Q477,462 477,514 Q477,566 434.5,596.5 Q392,627 321,627 M404,73 Q500,142 500,201 Q500,259 452,292.5 Q404,326 321,326 Q238,326 191,292.5 Q144,259 144,201 Q144,142 191,107.5 Q238,73 321,73"/> 
            <glyph glyph-name="7" unicode="&#x37;" horiz-adv-x="569" d=" M416,708 Q569,526 569,359 Q569,242 527.5,159.5 Q486,77 411.5,34.5 Q337,-8 238,-8 Q187,-8 142,2.5 Q97,13 64,33 L102,111 Q153,78 237,78 Q346,78 407.5,145.5 Q469,213 469,342 L469,367 Q439,322 386,298.5 Q333,275 267,275 Q198,275 143.5,301 Q89,327 58.5,375.5 Q28,424 28,487 Q28,553 60.5,603 Q93,653 149,680.5 Q205,708 275,708 M331,356 Q405,392 425.5,423 Q446,454 446,492 Q446,529 426.5,559.5 Q407,590 369.5,608.5 Q332,627 279,627 Q210,627 167.5,590 Q125,553 125,491 Q125,429 168,392.5 Q211,356 284,356"/> 
            <glyph glyph-name="8" unicode="&#x38;" horiz-adv-x="180" d=" M86,398 Q46,437 46,467 Q46,496 66,515.5 Q86,535 114,535 Q142,535 161,516 Q180,497 180,467 Q180,437 160.5,417.5 Q141,398 114,398 M86,-6 Q46,33 46,63 Q46,92 66,111.5 Q86,131 114,131 Q142,131 161,112 Q180,93 180,63 Q180,33 160.5,13.5 Q141,-6 114,-6"/> 
            <glyph glyph-name="9" unicode="&#x39;" horiz-adv-x="180" d=" M86,398 Q46,437 46,467 Q46,496 66,515.5 Q86,535 114,535 Q142,535 161,516 Q180,497 180,467 Q180,437 160.5,417.5 Q141,398 114,398 M143,131 Q180,92 180,63 Q180,48 176.5,34 Q173,20 163,-9 L116,-148 L53,-148 L90,1 Q71,8 59.5,24.5 Q48,41 48,63 Q48,93 67,112 Q86,131 115,131"/> 
            <glyph glyph-name=":" unicode="&#x3A;" horiz-adv-x="515" d=" M515,487 L160,350 L515,213 L515,130 L67,307 L67,393 L515,570"/> 
            <glyph glyph-name=";" unicode="&#x3B;" horiz-adv-x="515" d=" M67,508 L515,508 L515,429 L67,429 M67,271 L515,271 L515,192 L67,192"/> 
            <glyph glyph-name="&lt;" unicode="&#x3C;" horiz-adv-x="515" d=" M515,393 L515,307 L67,130 L67,213 L423,350 L67,487 L67,570"/> 
            <glyph glyph-name="=" unicode="&#x3D;" horiz-adv-x="505" d=" M228,261 Q255,322 274.5,343 Q294,364 326,393 Q366,428 385,453.5 Q404,479 404,515 Q404,564 366,593.5 Q328,623 261,623 Q144,623 82,544 L9,596 Q51,650 116.5,679 Q182,708 268,708 Q377,708 441,660.5 Q505,613 505,530 Q505,489 491.5,457.5 Q478,426 459,405 Q440,384 408,355 Q367,318 347.5,290 Q328,262 328,221 L228,221 M251,-6 Q214,31 214,58 Q214,85 232.5,103.5 Q251,122 279,122 Q307,122 325,103.5 Q343,85 343,58 Q343,31 324.5,12.5 Q306,-6 279,-6"/> 
            <glyph glyph-name="&gt;" unicode="&#x3E;" horiz-adv-x="986" d=" M655,707 Q867,596 926.5,496 Q986,396 986,268 Q986,140 939,67 Q892,-6 808,-6 Q760,-6 728.5,18.5 Q697,43 688,89 Q658,43 609.5,18.5 Q561,-6 498,-6 Q428,-6 372,27 Q316,60 284.5,118.5 Q253,177 253,251 Q253,324 284.5,382.5 Q316,441 372,473.5 Q428,506 498,506 Q556,506 603,484.5 Q650,463 681,421 L681,502 L768,502 L768,142 Q768,105 784,87.5 Q800,70 825,70 Q869,70 893.5,121.5 Q918,173 918,267 Q918,378 868,462.5 Q818,547 727.5,594 Q637,641 520,641 Q402,641 311.5,592 Q221,543 171,455 Q121,367 121,254 Q121,140 170.5,52 Q220,-36 309.5,-85.5 Q399,-135 516,-135 Q565,-135 616,-124 Q667,-113 709,-91 L731,-155 Q687,-178 629,-190 Q571,-202 516,-202 Q379,-202 272.5,-143.5 Q166,-85 107,19 Q48,123 48,254 Q48,385 107.5,488 Q167,591 274.5,649 Q382,707 520,707 M561,72 Q638,116 660.5,156.5 Q683,197 683,251 Q683,305 660.5,345.5 Q638,386 599.5,407.5 Q561,429 512,429 Q436,429 389,380.5 Q342,332 342,251 Q342,170 389.5,121 Q437,72 512,72"/> 
            <glyph glyph-name="?" unicode="&#x3F;" horiz-adv-x="733" d=" M551,175 L179,175 L102,0 L-1,0 L316,700 L415,700 L733,0 L628,0 M516,255 L365,598 L214,255"/> 
            <glyph glyph-name="@" unicode="&#x40;" horiz-adv-x="707" d=" M637,346 Q707,257 707,189 Q707,98 638.5,49 Q570,0 439,0 L105,0 L105,700 L419,700 Q539,700 604.5,652 Q670,604 670,519 Q670,464 644.5,424 Q619,384 576,363 M205,619 L205,395 L410,395 Q487,395 528.5,423.5 Q570,452 570,507 Q570,562 528.5,590.5 Q487,619 410,619 M520,81 Q606,137 606,197 Q606,314 435,314 L205,314 L205,81 L435,81"/> 
            <glyph glyph-name="A" unicode="&#x41;" horiz-adv-x="685" d=" M313,-8 Q144,85 96,166.5 Q48,248 48,350 Q48,452 96,533.5 Q144,615 229,661.5 Q314,708 419,708 Q501,708 569,680.5 Q637,653 685,599 L620,536 Q541,619 423,619 Q345,619 282,584 Q219,549 183.5,487.5 Q148,426 148,350 Q148,274 183.5,212.5 Q219,151 282,116 Q345,81 423,81 Q540,81 620,165 L685,102 Q637,48 568.5,20 Q500,-8 418,-8"/> 
            <glyph glyph-name="B" unicode="&#x42;" horiz-adv-x="778" d=" M105,700 L400,700 Q511,700 597,656 Q683,612 730.5,532.5 Q778,453 778,350 Q778,247 730.5,167.5 Q683,88 597,44 Q511,0 400,0 L105,0 M394,87 Q479,87 543.5,120 Q608,153 643,212.5 Q678,272 678,350 Q678,428 643,487.5 Q608,547 543.5,580 Q479,613 394,613 L205,613 L205,87"/> 
            <glyph glyph-name="C" unicode="&#x43;" horiz-adv-x="613" d=" M613,87 L613,0 L105,0 L105,700 L599,700 L599,613 L205,613 L205,398 L556,398 L556,313 L205,313 L205,87"/> 
            <glyph glyph-name="D" unicode="&#x44;" horiz-adv-x="599" d=" M205,613 L205,369 L556,369 L556,283 L205,283 L205,0 L105,0 L105,700 L599,700 L599,613"/> 
            <glyph glyph-name="E" unicode="&#x45;" horiz-adv-x="692" d=" M590,354 L686,354 L686,81 Q634,38 565,15 Q496,-8 421,-8 Q315,-8 230,38.5 Q145,85 96.5,166.5 Q48,248 48,350 Q48,452 96.5,534 Q145,616 230.5,662 Q316,708 423,708 Q507,708 575.5,680.5 Q644,653 692,600 L630,538 Q546,619 427,619 Q347,619 283.5,584.5 Q220,550 184,488.5 Q148,427 148,350 Q148,274 184,212.5 Q220,151 283.5,116 Q347,81 426,81 Q520,81 590,126"/> 
            <glyph glyph-name="F" unicode="&#x46;" horiz-adv-x="707" d=" M707,700 L707,0 L607,0 L607,312 L205,312 L205,0 L105,0 L105,700 L205,700 L205,399 L607,399 L607,700"/> 
            <glyph glyph-name="G" unicode="&#x47;" horiz-adv-x="205" d=" M105,700 L205,700 L205,0 L105,0"/> 
            <glyph glyph-name="H" unicode="&#x48;" horiz-adv-x="414" d=" M132,-8 Q24,45 -9,93 L49,161 Q107,78 195,78 Q254,78 284.5,114 Q315,150 315,220 L315,613 L62,613 L62,700 L414,700 L414,225 Q414,109 358.5,50.5 Q303,-8 195,-8"/> 
            <glyph glyph-name="I" unicode="&#x49;" horiz-adv-x="718" d=" M333,311 L205,181 L205,0 L105,0 L105,700 L205,700 L205,309 L585,700 L699,700 L400,385 L718,0 L601,0"/> 
            <glyph glyph-name="J" unicode="&#x4A;" horiz-adv-x="584" d=" M105,700 L205,700 L205,87 L584,87 L584,0 L105,0"/> 
            <glyph glyph-name="K" unicode="&#x4B;" horiz-adv-x="850" d=" M754,0 L753,510 L500,85 L454,85 L201,507 L201,0 L105,0 L105,700 L187,700 L479,208 L767,700 L849,700 L850,0"/> 
            <glyph glyph-name="L" unicode="&#x4C;" horiz-adv-x="707" d=" M707,700 L707,0 L625,0 L205,522 L205,0 L105,0 L105,700 L187,700 L607,178 L607,700"/> 
            <glyph glyph-name="M" unicode="&#x4D;" horiz-adv-x="792" d=" M315,-8 Q145,85 96.5,167 Q48,249 48,350 Q48,451 96.5,533 Q145,615 230,661.5 Q315,708 421,708 Q526,708 611,661.5 Q696,615 744,533.5 Q792,452 792,350 Q792,248 744,166.5 Q696,85 611,38.5 Q526,-8 421,-8 M498,81 Q621,151 656.5,212.5 Q692,274 692,350 Q692,426 656.5,487.5 Q621,549 559.5,584 Q498,619 421,619 Q344,619 281.5,584 Q219,549 183.5,487.5 Q148,426 148,350 Q148,274 183.5,212.5 Q219,151 281.5,116 Q344,81 421,81"/> 
            <glyph glyph-name="N" unicode="&#x4E;" horiz-adv-x="670" d=" M514,700 Q670,570 670,456 Q670,342 592,277 Q514,212 378,212 L205,212 L205,0 L105,0 L105,700 L378,700 M470,299 Q570,380 570,456 Q570,532 520,572.5 Q470,613 375,613 L205,613 L205,299 L375,299"/> 
            <glyph glyph-name="O" unicode="&#x4F;" horiz-adv-x="826" d=" M826,-64 Q792,-104 747,-125 Q702,-146 650,-146 Q584,-146 526.5,-114.5 Q469,-83 395,-7 Q296,-2 216.5,46 Q137,94 92.5,173.5 Q48,253 48,350 Q48,451 96.5,533 Q145,615 230,661.5 Q315,708 421,708 Q526,708 611,661.5 Q696,615 744,533.5 Q792,452 792,350 Q792,264 757.5,192 Q723,120 660.5,71 Q598,22 517,3 Q552,-34 584.5,-50.5 Q617,-67 651,-67 Q725,-67 779,-7 M148,274 Q219,151 281.5,116 Q344,81 421,81 Q497,81 559,116 Q621,151 656.5,212.5 Q692,274 692,350 Q692,426 656.5,487.5 Q621,549 559,584 Q497,619 421,619 Q344,619 281.5,584 Q219,549 183.5,487.5 Q148,426 148,350"/> 
            <glyph glyph-name="P" unicode="&#x50;" horiz-adv-x="682" d=" M573,0 L422,215 Q394,213 378,213 L205,213 L205,0 L105,0 L105,700 L378,700 Q514,700 592,635 Q670,570 670,456 Q670,375 630,318 Q590,261 516,235 L682,0 M470,298 Q570,380 570,456 Q570,532 520,572.5 Q470,613 375,613 L205,613 L205,298 L375,298"/> 
            <glyph glyph-name="Q" unicode="&#x51;" horiz-adv-x="580" d=" M230,-8 Q83,41 41,80 L78,158 Q118,122 180.5,99.5 Q243,77 309,77 Q396,77 439,106.5 Q482,136 482,185 Q482,221 458.5,243.5 Q435,266 400.5,278 Q366,290 303,305 Q224,324 175.5,343 Q127,362 92.5,401.5 Q58,441 58,508 Q58,564 87.5,609 Q117,654 177,681 Q237,708 326,708 Q388,708 448,692 Q508,676 551,646 L518,566 Q474,594 424,608.5 Q374,623 326,623 Q241,623 198.5,592 Q156,561 156,512 Q156,476 180,453.5 Q204,431 239.5,418.5 Q275,406 336,392 Q415,373 463,354 Q511,335 545.5,296 Q580,257 580,191 Q580,136 550,90.5 Q520,45 459,18.5 Q398,-8 309,-8"/> 
            <glyph glyph-name="R" unicode="&#x52;" horiz-adv-x="583" d=" M244,613 L4,613 L4,700 L583,700 L583,613 L343,613 L343,0 L244,0"/> 
            <glyph glyph-name="S" unicode="&#x53;" horiz-adv-x="691" d=" M255,-8 Q99,152 99,302 L99,700 L199,700 L199,306 Q199,81 396,81 Q492,81 543,136.5 Q594,192 594,306 L594,700 L691,700 L691,302 Q691,151 613,71.5 Q535,-8 395,-8"/> 
            <glyph glyph-name="T" unicode="&#x54;" horiz-adv-x="713" d=" M713,700 L406,0 L307,0 L-1,700 L107,700 L359,125 L613,700"/> 
            <glyph glyph-name="U" unicode="&#x55;" horiz-adv-x="1094" d=" M1094,700 L860,0 L755,0 L564,559 L373,0 L266,0 L32,700 L135,700 L324,131 L521,700 L613,700 L806,128 L999,700"/> 
            <glyph glyph-name="V" unicode="&#x56;" horiz-adv-x="660" d=" M545,0 L335,289 L128,0 L13,0 L276,359 L29,700 L143,700 L339,431 L533,700 L642,700 L395,362 L660,0"/> 
            <glyph glyph-name="W" unicode="&#x57;" horiz-adv-x="651" d=" M373,242 L373,0 L274,0 L274,244 L-4,700 L103,700 L327,331 L552,700 L651,700"/> 
            <glyph glyph-name="X" unicode="&#x58;" horiz-adv-x="628" d=" M628,87 L628,0 L43,0 L43,68 L483,613 L50,613 L50,700 L615,700 L615,632 L177,87"/> 
            <glyph glyph-name="Y" unicode="&#x59;" horiz-adv-x="314" d=" M105,742 L314,742 L314,663 L201,663 L201,-115 L314,-115 L314,-194 L105,-194"/> 
            <glyph glyph-name="Z" unicode="&#x5A;" horiz-adv-x="228" d=" M19,-194 L19,-115 L132,-115 L132,663 L19,663 L19,742 L228,742 L228,-194"/> 
            <glyph glyph-name="[" unicode="&#x5B;" horiz-adv-x="508" d=" M431,142 L292,479 L152,142 L75,142 L252,558 L332,558 L508,142"/> 
            <glyph glyph-name="]" unicode="&#x5D;" horiz-adv-x="500" d=" M0,0 L500,0 L500,-62 L0,-62"/> 
            <glyph glyph-name="^" unicode="&#x5E;" horiz-adv-x="511" d=" M394,535 Q511,427 511,320 L511,0 L420,0 L420,70 Q396,33 351.5,13.5 Q307,-6 246,-6 Q157,-6 103.5,37 Q50,80 50,150 Q50,220 101,262.5 Q152,305 263,305 L415,305 L415,324 Q415,386 379,419 Q343,452 273,452 Q226,452 181,436.5 Q136,421 105,395 L65,467 Q106,500 163,517.5 Q220,535 284,535 M317,68 Q397,117 415,162 L415,236 L267,236 Q145,236 145,154 Q145,114 176,91 Q207,68 262,68"/> 
            <glyph glyph-name="_" unicode="&#x5F;" horiz-adv-x="640" d=" M449,535 Q571,467 605.5,406 Q640,345 640,265 Q640,185 605.5,123.5 Q571,62 510,28 Q449,-6 372,-6 Q313,-6 264,17 Q215,40 183,84 L183,0 L91,0 L91,742 L187,742 L187,450 Q219,492 267,513.5 Q315,535 372,535 M415,78 Q496,125 519.5,167.5 Q543,210 543,265 Q543,320 519.5,362.5 Q496,405 455.5,428 Q415,451 364,451 Q314,451 273,428 Q232,405 209,362.5 Q186,320 186,265 Q186,210 209,167.5 Q232,125 273,101.5 Q314,78 364,78"/> 
            <glyph glyph-name="a" unicode="&#x61;" horiz-adv-x="538" d=" M241,-6 Q114,64 78,125.5 Q42,187 42,265 Q42,343 78,404.5 Q114,466 177.5,500.5 Q241,535 322,535 Q394,535 450.5,506 Q507,477 538,422 L465,375 Q440,413 403,432 Q366,451 321,451 Q269,451 227.5,428 Q186,405 162.5,362.5 Q139,320 139,265 Q139,209 162.5,166.5 Q186,124 227.5,101 Q269,78 321,78 Q366,78 403,97 Q440,116 465,154 L538,108 Q507,53 450.5,23.5 Q394,-6 322,-6"/> 
            <glyph glyph-name="b" unicode="&#x62;" horiz-adv-x="591" d=" M591,742 L591,0 L499,0 L499,84 Q467,40 418,17 Q369,-6 310,-6 Q233,-6 172,28 Q111,62 76.5,123.5 Q42,185 42,265 Q42,345 76.5,406 Q111,467 172,501 Q233,535 310,535 Q367,535 415,513.5 Q463,492 495,450 L495,742 M368,78 Q450,125 473,167.5 Q496,210 496,265 Q496,320 473,362.5 Q450,405 409,428 Q368,451 318,451 Q267,451 226.5,428 Q186,405 162.5,362.5 Q139,320 139,265 Q139,210 162.5,167.5 Q186,125 226.5,101.5 Q267,78 318,78"/> 
            <glyph glyph-name="c" unicode="&#x63;" horiz-adv-x="570" d=" M570,251 L568,233 L138,233 Q147,163 199.5,120.5 Q252,78 330,78 Q425,78 483,142 L536,80 Q500,38 446.5,16 Q393,-6 327,-6 Q243,-6 178,28.5 Q113,63 77.5,125 Q42,187 42,265 Q42,342 76.5,404 Q111,466 171.5,500.5 Q232,535 308,535 Q384,535 443.5,500.5 Q503,466 536.5,404 Q570,342 570,262 M239,454 Q146,370 138,302 L478,302 Q470,369 423.5,411.5 Q377,454 308,454"/> 
            <glyph glyph-name="d" unicode="&#x64;" horiz-adv-x="388" d=" M199,669 L199,576 L199,530 L353,530 L353,451 L201,451 L201,0 L105,0 L105,451 L15,451 L15,530 L105,530 L105,577 Q105,656 151,702 Q197,748 280,748 Q312,748 340,740 Q368,732 388,717 L359,644 Q326,669 285,669"/> 
            <glyph glyph-name="e" unicode="&#x65;" horiz-adv-x="598" d=" M598,530 L598,72 Q598,-67 529,-133.5 Q460,-200 323,-200 Q248,-200 180,-179.5 Q112,-159 70,-121 L116,-47 Q153,-79 207.5,-97.5 Q262,-116 320,-116 Q413,-116 457.5,-72 Q502,-28 502,62 L502,104 Q468,63 418.5,42.5 Q369,22 311,22 Q235,22 173.5,54.5 Q112,87 77,145.5 Q42,204 42,279 Q42,354 77,412.5 Q112,471 173.5,503 Q235,535 311,535 Q371,535 422.5,513 Q474,491 507,448 L507,530 M374,106 Q457,150 480.5,189.5 Q504,229 504,279 Q504,356 453,403.5 Q402,451 322,451 Q241,451 190,403.5 Q139,356 139,279 Q139,229 162.5,189.5 Q186,150 227.5,128 Q269,106 322,106"/> 
            <glyph glyph-name="f" unicode="&#x66;" horiz-adv-x="594" d=" M475,535 Q594,418 594,305 L594,0 L498,0 L498,294 Q498,371 461,410 Q424,449 355,449 Q277,449 232,403.5 Q187,358 187,273 L187,0 L91,0 L91,742 L187,742 L187,455 Q217,493 265.5,514 Q314,535 374,535"/> 
            <glyph glyph-name="g" unicode="&#x67;" horiz-adv-x="204" d=" M111,632 Q74,668 74,694 Q74,720 92.5,738.5 Q111,757 139,757 Q167,757 185.5,739.5 Q204,722 204,696 Q204,669 185.5,650.5 Q167,632 139,632 M91,530 L187,530 L187,0 L91,0"/> 
            <glyph glyph-name="h" unicode="&#x68;" horiz-adv-x="209" d=" M116,632 Q79,668 79,694 Q79,720 97.5,738.5 Q116,757 144,757 Q172,757 190.5,739.5 Q209,722 209,696 Q209,669 190.5,650.5 Q172,632 144,632 M-12,-200 Q-72,-184 -92,-168 L-61,-94 Q-31,-119 17,-119 Q55,-119 75.5,-95.5 Q96,-72 96,-26 L96,530 L192,530 L192,-24 Q192,-106 148,-153 Q104,-200 23,-200"/> 
            <glyph glyph-name="i" unicode="&#x69;" horiz-adv-x="614" d=" M297,247 L187,145 L187,0 L91,0 L91,742 L187,742 L187,266 L476,530 L592,530 L369,311 L614,0 L496,0"/> 
            <glyph glyph-name="j" unicode="&#x6A;" horiz-adv-x="187" d=" M91,742 L187,742 L187,0 L91,0"/> 
            <glyph glyph-name="k" unicode="&#x6B;" horiz-adv-x="971" d=" M854,535 Q971,419 971,305 L971,0 L875,0 L875,294 Q875,371 839.5,410 Q804,449 738,449 Q665,449 622,403.5 Q579,358 579,273 L579,0 L483,0 L483,294 Q483,371 447.5,410 Q412,449 346,449 Q273,449 230,403.5 Q187,358 187,273 L187,0 L91,0 L91,530 L183,530 L183,451 Q212,492 259,513.5 Q306,535 366,535 Q428,535 476,510 Q524,485 550,437 Q580,483 633.5,509 Q687,535 754,535"/> 
            <glyph glyph-name="l" unicode="&#x6C;" horiz-adv-x="594" d=" M475,535 Q594,418 594,305 L594,0 L498,0 L498,294 Q498,371 461,410 Q424,449 355,449 Q277,449 232,403.5 Q187,358 187,273 L187,0 L91,0 L91,530 L183,530 L183,450 Q212,491 261.5,513 Q311,535 374,535"/> 
            </font>
</defs>
</svg>
