<?xml version="1.0" encoding="UTF-8"?>
<svg width="63px" height="64px" viewBox="0 0 63 64" version="1.1" xmlns="http://www.w3.org/2000/svg"
     xmlns:xlink="http://www.w3.org/1999/xlink">
    <!-- Generator: Sketch 48.2 (47327) - http://www.bohemiancoding.com/sketch -->
    <title>Page 1</title>
    <desc>Created with Sketch.</desc>
    <defs>
        <polygon id="path-1"
                 points="5.56268551e-22 4.37405654e-05 5.56268551e-22 63.2773237 62.0496579 63.2773237 62.0496579 4.37405654e-05"></polygon>
    </defs>
    <g id="Helvetica" stroke="none" stroke-width="1" fill="none" fill-rule="evenodd"
       transform="translate(-438.000000, -291.000000)" opacity="0.7">
        <g id="Page-1" transform="translate(438.000000, 291.668430)">
            <mask id="mask-2" fill="white">
                <use xlink:href="#path-1"></use>
            </mask>
            <g id="Clip-2"></g>
            <path d="M24.3340621,54.2190337 L37.6067954,43.0828353 L28.9423631,58.0844544 C28.088633,57.5607292 27.2715291,56.9727405 26.4957031,56.3228007 C26.0371168,55.9383834 25.591323,55.5295304 25.1612633,55.0997716 C24.8771745,54.8147115 24.6011854,54.5208814 24.3340621,54.2190337 Z M20.8356691,48.6742277 C20.7702565,48.5196782 20.7068687,48.3645267 20.6454512,48.2087869 L36.9606728,42.2640211 L23.6633807,53.420838 C23.3278074,53.0003555 23.0087344,52.5671489 22.708378,52.1227643 C21.974774,51.0374152 21.3447002,49.8771582 20.8356691,48.6742277 Z M25.0518637,26.5532474 C25.1077127,26.4963585 25.1639038,26.4398116 25.2204507,26.3835658 C25.2369509,26.3672024 25.2535606,26.3510031 25.2701156,26.3347218 C25.2980538,26.3071119 25.3260604,26.2795568 25.3541765,26.2520974 C25.7229282,25.8937029 26.1029536,25.5531905 26.4923374,25.2325167 C26.4939792,25.2311622 26.495621,25.229794 26.4972491,25.2284258 C27.271187,24.5749424 28.0885099,23.9838343 28.9441965,23.4575368 L37.6221327,38.4825518 L24.3291367,27.3293607 C24.5635195,27.0643444 24.8044148,26.8052933 25.0518637,26.5532474 Z M35.5063394,20.8753449 L38.5112302,37.9374419 L29.8461139,22.9346051 C30.6347871,22.5044085 31.452794,22.1268321 32.2969058,21.8042702 C33.341538,21.4050629 34.4137526,21.0951292 35.5063394,20.8753449 Z M49.2357846,22.9380118 L40.5686707,37.9649697 L43.5897881,20.8791895 C44.6697466,21.0976604 45.7303044,21.4047071 46.7646478,21.799249 C47.6152311,22.1236853 48.4400652,22.5040528 49.2357846,22.9380118 Z M53.4852122,26.0194249 C53.4905344,26.0244051 53.4958566,26.0293989 53.5011515,26.0343928 C53.6754712,26.1994089 53.8468082,26.3674213 54.0149438,26.5382795 C54.2678927,26.7953193 54.5140145,27.0596652 54.7533227,27.3302226 L41.4852549,38.462508 L50.1378251,23.4607383 C50.9932107,23.9863244 51.8112587,24.5765979 52.5870026,25.2290552 C52.5883844,25.2302181 52.5897663,25.2313674 52.5911618,25.2325167 C52.8644966,25.4576232 53.1331934,25.6926079 53.3966636,25.9365953 C53.4262026,25.9641778 53.4558374,25.9916645 53.4852122,26.0194249 Z M19.251646,40.0596246 C19.2533289,40.0108353 19.255258,39.9620871 19.2572692,39.9133388 C19.2584048,39.8861531 19.2595267,39.8589674 19.2607444,39.8317817 C19.2633166,39.775399 19.266094,39.7190437 19.2691314,39.6627158 C19.2700344,39.645723 19.2709647,39.6287302 19.2719224,39.6117238 C19.2756165,39.5459691 19.2795295,39.4802417 19.2838666,39.4145691 C19.2840719,39.4113813 19.2843045,39.4081797 19.2845097,39.4049782 C19.3997925,37.6692651 19.7355984,35.9668398 20.2873029,34.32248 L36.5828912,40.248146 L19.2461596,40.248146 C19.24683,40.221658 19.2475689,40.1951701 19.248335,40.1686958 C19.2493885,40.1323296 19.2504147,40.0959634 19.251646,40.0596246 Z M19.2507704,41.4580678 C19.2506609,41.45462 19.2505378,41.4511722 19.2504283,41.4477244 C19.2487181,41.3954189 19.247432,41.343045 19.2461186,41.2906848 L36.5866674,41.2906848 L20.2880691,47.2294032 C20.2777393,47.1986602 20.267437,47.1678899 20.2572577,47.1370921 C20.2499653,47.1149413 20.2427276,47.0927768 20.2355037,47.0705986 C20.2211651,47.0267348 20.2069908,46.98283 20.1929533,46.9388977 C20.1770687,46.8890139 20.1612662,46.8391301 20.1457648,46.7891505 C20.1434115,46.7815571 20.1410035,46.7739637 20.1386502,46.7663566 C19.6084945,45.048895 19.3108745,43.2702348 19.2507704,41.4580678 Z M29.8448004,58.6064969 L38.5205749,43.585217 L35.5076939,60.6702036 C34.4809849,60.4625824 33.4712003,60.1748817 32.4838949,59.8081139 C31.5741378,59.4701463 30.6931673,59.0686541 29.8448004,58.6064969 Z M48.3094178,59.0882464 C48.2598076,59.1120391 48.2100743,59.1355718 48.1602726,59.1589539 C48.1285035,59.1738397 48.096707,59.1886571 48.0648421,59.2033924 C48.0335929,59.2178541 48.002289,59.2321789 47.970985,59.24649 C47.9258488,59.2670675 47.8806989,59.2876038 47.8353985,59.3078529 C47.8212378,59.3142012 47.8070224,59.3204538 47.7928618,59.3267748 C47.4048599,59.4992338 47.0110705,59.6598033 46.611699,59.8080592 C45.6252145,60.1742523 44.6159088,60.4615836 43.5892955,60.6691364 L40.5772081,43.5886511 L49.2418182,58.6112992 C48.9498214,58.7702953 48.6540621,58.9221495 48.3549782,59.0664377 C48.3398051,59.0737437 48.3246183,59.0809677 48.3094178,59.0882464 Z M54.6288321,54.3590942 C54.154457,54.8813282 53.6536624,55.3821365 53.1314284,55.8565115 C52.4272403,56.4909499 51.6783948,57.0773515 50.8952627,57.6062895 C50.6487442,57.7727969 50.3981622,57.9336674 50.1442829,58.0892841 L41.5005375,43.1028381 L54.7521324,54.2212912 C54.7112922,54.2674672 54.6700963,54.3133149 54.6288321,54.3590942 Z M59.8328793,41.4543053 C59.7676582,43.4312148 59.4196755,45.3682281 58.7956217,47.2294716 L42.4968319,41.2906848 L59.8373806,41.2906848 C59.8360398,41.3439343 59.8347537,41.3971975 59.8330024,41.4503787 C59.8329614,41.4516921 59.8329067,41.4530056 59.8328793,41.4543053 Z M59.7998241,39.4175928 C59.803997,39.4811721 59.8078006,39.5448472 59.8113852,39.6085222 C59.8124387,39.6273894 59.8134922,39.6462703 59.8145047,39.6651512 C59.8174463,39.7199878 59.8201416,39.7748518 59.8226453,39.8297568 C59.8239314,39.8582696 59.8251217,39.8867825 59.8262984,39.915309 C59.8282822,39.9629764 59.8301566,40.0106711 59.8317985,40.0583795 C59.8330709,40.0955666 59.8341244,40.1327811 59.8351915,40.1700093 C59.8359577,40.1960457 59.8366828,40.2220958 59.8373533,40.248146 L42.500608,40.248146 L58.7961963,34.32248 C59.3473946,35.9653348 59.6830637,37.666132 59.7986612,39.4002169 C59.7990306,39.4060043 59.799441,39.4117917 59.7998241,39.4175928 Z M56.225415,29.203684 C56.2475248,29.2354942 56.2696893,29.2672906 56.2916075,29.2992239 C56.324608,29.3473154 56.3573075,29.3955574 56.3898565,29.4438952 C56.3970257,29.454526 56.4042361,29.4651157 56.4113643,29.4757464 C56.4487429,29.5314587 56.4858479,29.5873488 56.5226383,29.6434031 C56.5247453,29.6466046 56.526866,29.6498062 56.5289593,29.6530077 C57.2907204,30.8147833 57.9297011,32.0488125 58.4392247,33.3429321 L42.1487397,39.2667511 L55.4240588,28.1283636 C55.6825763,28.4524442 55.9312839,28.7841319 56.1691418,29.1227015 C56.1880227,29.1496272 56.2066573,29.1766761 56.225415,29.203684 Z M40.6350958,20.5060734 C40.653963,20.5070585 40.6728165,20.5080983 40.69167,20.5091381 C40.7537032,20.5125449 40.8157091,20.5162526 40.8776466,20.5202204 C40.8978272,20.5215201 40.9179805,20.5228062 40.9381474,20.5241607 C40.9987578,20.5282242 41.059286,20.5326297 41.1197869,20.5372268 C41.14072,20.5388139 41.1616806,20.5403326 41.1826,20.5419881 C41.2428273,20.5467494 41.3029724,20.5519074 41.3630765,20.5572022 C41.3838181,20.5590219 41.4045597,20.5607048 41.4252603,20.5625929 C41.488689,20.5683803 41.5520221,20.5746055 41.6153414,20.5809675 C41.6645548,20.585934 41.7137272,20.5911605 41.7628858,20.5964827 C41.8039175,20.6009019 41.8449766,20.605239 41.8859672,20.6099045 C41.9411322,20.6162255 41.9962288,20.6229296 42.0513117,20.6297021 C42.0706988,20.632069 42.0901132,20.6343402 42.1094867,20.6367755 C42.1706443,20.6444647 42.2317335,20.6524822 42.2927816,20.6607324 C42.3044522,20.6623058 42.3161501,20.6638381 42.3278207,20.6654252 C42.3952035,20.6746467 42.4625042,20.6841693 42.5297502,20.6940612 C42.5323087,20.6944306 42.5348946,20.6948137 42.5374668,20.6951968 C42.5459495,20.6964418 42.5544322,20.6978237 42.5629149,20.6990824 L40.4324274,32.7480068 L40.4324274,20.4965098 C40.4355058,20.496633 40.4385842,20.4967835 40.4416763,20.4969066 C40.5062133,20.499684 40.5706819,20.5027077 40.6350958,20.5060734 Z M37.8131442,20.5481449 C37.8718527,20.5432468 37.9306297,20.5387318 37.9894204,20.53434 C38.0103398,20.5327802 38.0312456,20.5311795 38.0521514,20.5296745 C38.1030477,20.5260214 38.153985,20.5226284 38.204936,20.5193584 C38.2344613,20.5174566 38.2639866,20.5156233 38.2935256,20.5138583 C38.3389217,20.5111357 38.3843316,20.5085361 38.4297825,20.5061144 C38.4662171,20.5041853 38.5026791,20.5024067 38.5391548,20.5006691 C38.5582135,20.4997524 38.5772722,20.4988904 38.5963447,20.4980285 L38.5963447,32.4098613 L36.5333768,20.6961272 C36.9528742,20.6341076 37.3749711,20.5850994 37.7993529,20.5493352 C37.80395,20.5489521 37.8085471,20.548528 37.8131442,20.5481449 Z M23.5795524,28.2272282 C23.6057257,28.1939267 23.6321999,28.1608168 23.6585921,28.1276521 L36.9347458,39.2667511 L20.6442609,33.3429321 C21.3651134,31.5121032 22.3452769,29.801633 23.5650497,28.2457534 C23.569893,28.2395829 23.574709,28.233385 23.5795524,28.2272282 Z M39.3298392,61.0706696 C39.3220953,61.0705875 39.314324,61.0705465 39.3065938,61.0704644 C39.2367893,61.0696708 39.1670395,61.0685079 39.0973308,61.0670166 C39.0912971,61.0668934 39.0852498,61.0667566 39.0792161,61.0666198 C38.2230643,61.0474927 37.3739313,60.9749655 36.5346218,60.850037 L39.5485837,43.7589484 L42.5623813,60.8489972 C41.7915765,60.9638011 41.0122754,61.0346181 40.2266396,61.0605451 C40.2253261,61.0605861 40.2240263,61.0606409 40.2227129,61.0606819 C40.151075,61.0630352 40.0793551,61.0649643 40.0076078,61.0665651 C40.0000144,61.0667293 39.992421,61.0668934 39.9848276,61.0670576 C39.9158987,61.0685216 39.8469425,61.0696708 39.7779178,61.0704644 C39.7697635,61.0705465 39.7616228,61.0705875 39.7534685,61.0706696 C39.6829388,61.0713948 39.6123682,61.0718326 39.5417428,61.0718326 C39.4710626,61.0718326 39.4004372,61.0713948 39.3298392,61.0706696 Z M58.0802008,49.0630643 C58.059938,49.1083647 58.0394017,49.1535283 58.0188243,49.1986645 C58.0045131,49.2299684 57.9901746,49.2612724 57.9757129,49.2925216 C57.9609913,49.3243728 57.9461603,49.356183 57.9312745,49.3879521 C57.9079197,49.4377127 57.8844007,49.4873913 57.8606491,49.5369468 C57.853343,49.552202 57.846078,49.5674845 57.8387445,49.5827261 C57.4143901,50.46226 56.9253344,51.3134727 56.3786237,52.1229285 C56.0780074,52.5680109 55.7586197,53.0019015 55.4226907,53.422986 L42.1228264,42.2640211 L58.4388553,48.2090879 C58.3313437,48.4822859 58.2180996,48.7528023 58.099109,49.0205276 C58.092788,49.0347019 58.0865354,49.0488899 58.0802008,49.0630643 Z M11.8660508,59.9727879 L9.7813152,56.3545835 L13.404322,58.4363091 C13.1969471,58.7336555 12.9626738,59.0131334 12.7025555,59.2728822 C12.4428341,59.5322479 12.1633561,59.7659056 11.8660508,59.9727879 Z M5.74450263,60.4950082 L7.82598198,56.882427 L7.82598198,61.0501196 C7.18058451,60.996268 6.55376692,60.8420195 5.95654304,60.5894536 C5.88513777,60.5592579 5.81445763,60.5277488 5.74450263,60.4950082 Z M4.84102554,49.8730126 L6.92275115,53.4960057 L3.30454667,51.4112838 C3.51144272,51.1139785 3.74508668,50.8345005 4.0044524,50.5747791 C4.26420121,50.3146609 4.54367916,50.0803875 4.84102554,49.8730126 Z M8.86853449,52.9991652 L8.86853449,48.7962009 C9.40323258,48.8404752 9.92571283,48.9529395 10.4274925,49.1324036 C10.610076,49.1977068 10.7886645,49.2717116 10.9631894,49.3536655 L8.86853449,52.9991652 Z M11.887066,49.8916335 C11.4848077,50.8656676 11.0871738,51.6794195 10.7185863,52.2837853 C10.7170677,52.2862617 10.715549,52.2887381 10.7140303,52.2912282 C10.701703,52.3113952 10.6894167,52.3312611 10.6771442,52.3509766 C10.6729849,52.357667 10.668812,52.3643437 10.664639,52.3709931 C10.6551165,52.3861935 10.6456213,52.4012025 10.6361262,52.4161293 C10.630284,52.4253235 10.6244146,52.434545 10.6185861,52.4436434 C10.6107464,52.4558612 10.6029341,52.4678601 10.5951218,52.4798728 C10.588322,52.4903393 10.5814948,52.500888 10.5747086,52.5112314 C10.567211,52.5226147 10.5597544,52.5337653 10.5522842,52.5449844 C10.5456485,52.5549584 10.5389991,52.5650419 10.5323635,52.5748928 C10.518408,52.5956207 10.50448,52.6160887 10.4906203,52.6361462 C10.4256318,52.730017 10.3614916,52.8167595 10.2983091,52.8969895 C10.2964894,52.8993018 10.2946697,52.9015456 10.2928363,52.9038578 C10.2766097,52.9243805 10.2604379,52.9445611 10.2443344,52.9642219 C10.2433083,52.9654806 10.2422958,52.9666846 10.2412834,52.9679296 C10.2333753,52.9775753 10.2254809,52.9871525 10.2175865,52.996593 C10.2145081,53.0003007 10.2114297,53.0039127 10.2083513,53.0075658 C10.2025365,53.0145024 10.1967081,53.0214528 10.190907,53.0282663 C10.1863783,53.0335885 10.1818633,53.0388013 10.1773483,53.0440688 C10.1730386,53.0490763 10.1687288,53.0541386 10.1644327,53.0591051 C10.1480146,53.078027 10.1316648,53.0964837 10.1153972,53.1145574 C10.1141658,53.1159256 10.1129481,53.1173211 10.1117168,53.1186619 C10.0946419,53.1375975 10.0776354,53.1560406 10.0607248,53.1740458 C10.0603143,53.1744699 10.0599175,53.1749351 10.0595071,53.1753593 C9.98963416,53.2496651 9.9211568,53.3163364 9.85419811,53.3763585 L11.8651889,49.8764878 C11.8724539,49.8815774 11.8798284,49.8865029 11.887066,49.8916335 Z M12.8901329,50.7768181 C13.0748097,50.9780772 13.2449838,51.1906239 13.3999849,51.4128435 L12.3157576,52.036268 C12.5049768,51.6547786 12.6966176,51.2346245 12.8901329,50.7768181 Z M8.86853449,56.8586891 L10.9626011,60.4930654 C10.8912505,60.5264353 10.8191612,60.5585465 10.7463193,60.5892895 C10.1467832,60.8422111 9.51716086,60.9965554 8.86853449,61.0502837 L8.86853449,56.8586891 Z M6.24257457,49.144512 C6.26658612,49.1357419 6.29062502,49.1271224 6.31473234,49.1186671 C6.80266607,48.9473026 7.30831772,48.8395448 7.82598198,48.7963377 L7.82598198,52.9753452 L5.74403745,49.3519553 C5.814184,49.3190916 5.885042,49.2874867 5.95663881,49.2571815 C6.00393676,49.237165 6.05141258,49.2177643 6.09906626,49.1989928 C6.14671994,49.1802214 6.19456516,49.162052 6.24257457,49.144512 Z M2.78426919,52.3147335 L6.41865923,54.4088001 L2.22705087,54.4088001 C2.28077926,53.7601738 2.43512355,53.1305514 2.68805883,52.5310153 C2.71878814,52.4581734 2.7508993,52.3860841 2.78426919,52.3147335 Z M2.25292314,55.6996908 C2.24266179,55.6172307 2.23415172,55.5344422 2.22721505,55.451339 L6.39492132,55.451339 L2.78232637,57.532832 C2.74959953,57.462877 2.71807668,57.3922105 2.68788097,57.3208053 C2.49784089,56.8714131 2.3634036,56.4052745 2.28556789,55.9270822 C2.28146335,55.9019077 2.277523,55.8767059 2.27373314,55.8514766 C2.26616711,55.8010045 2.25923044,55.7504092 2.25292314,55.6996908 Z M4.16529554,59.4286084 C4.11078728,59.3778626 4.05708625,59.3260497 4.00419244,59.2731422 C3.81025305,59.0792028 3.63066585,58.8743316 3.46589604,58.6592265 C3.40982806,58.5860426 3.35556607,58.5116273 3.3029459,58.4361039 L6.93250627,56.3448283 L4.84123076,59.9743887 C4.6042895,59.8093316 4.37863571,59.6272406 4.16529554,59.4286084 Z M14.0201531,57.3206958 C13.9898616,57.3923063 13.9582293,57.4631506 13.9253793,57.5332972 L10.3019758,55.451339 L14.4809969,55.451339 C14.427118,56.0968185 14.2728284,56.7236224 14.0201531,57.3206958 Z M14.4664668,54.2606811 C14.4694768,54.2883046 14.4722953,54.3159829 14.4749222,54.3436748 C14.4769881,54.3653604 14.4788352,54.3870734 14.4806685,54.4088001 L10.7258103,54.4088001 C10.8895266,54.2530056 11.0473735,54.0771945 11.2013073,53.8796979 L13.9213843,52.3156639 C14.2070737,52.9249004 14.3926399,53.5814348 14.4664668,54.2606811 Z M61.6014287,36.2806864 C61.3114705,34.84953 60.8786744,33.4409348 60.3150804,32.0940445 C59.7617203,30.7716583 59.0766046,29.4949009 58.2787236,28.2992218 C57.4886412,27.1152133 56.5808133,25.999901 55.5804964,24.9842469 C54.580508,23.9689485 53.4794384,23.0444835 52.3078666,22.2365053 C51.1255136,21.4210979 49.8605225,20.7169372 48.5480283,20.143588 C47.2119466,19.5599228 45.812573,19.1057694 44.3887773,18.7937151 C43.0948219,18.5101189 41.76632,18.3409573 40.4324274,18.2893769 L40.4324274,17.7719042 C40.4348217,17.7719042 40.437216,17.7719179 40.4395966,17.7719179 C40.4931882,17.7719863 40.5464241,17.772082 40.5994821,17.7721915 C40.6152024,17.7722325 40.6309228,17.7722736 40.6466021,17.7723146 C40.6798352,17.7723967 40.7127947,17.7725062 40.7457951,17.7726156 C41.1501331,17.7757624 41.5345915,17.7791008 41.8998679,17.7852987 C41.9028095,17.7853534 41.9057648,17.7853807 41.9086927,17.7853807 C42.0471114,17.7853807 42.1808646,17.7857775 42.3109237,17.7865847 C43.0131553,17.7909629 43.6067809,17.8074632 44.2355002,17.8394375 C44.2595939,17.8406552 44.2838243,17.8419002 44.3081642,17.8431453 C44.9058943,17.8739977 45.5830883,17.9151662 46.3242583,18.0020866 C46.5194017,18.0249763 46.7189096,18.0509717 46.9226725,18.0808664 C46.924629,18.08114 46.9265718,18.0814137 46.9285146,18.0816873 C47.7858567,18.1975447 48.883369,18.3944667 49.9396033,18.6219676 C49.9401369,18.622077 49.9406705,18.6221865 49.9411904,18.6223096 C50.2015001,18.6775156 50.4428743,18.7313398 50.6558314,18.7788293 C51.2141716,18.9033199 51.6175655,18.993264 51.927677,19.0154148 C51.9338475,19.0158527 51.9400317,19.016181 51.9462022,19.0163999 C51.9682846,19.0171935 51.9899155,19.0175218 52.0112865,19.0175903 C52.0131335,19.0175903 52.0150763,19.017686 52.0169233,19.017686 C52.0184968,19.017686 52.0200291,19.017645 52.0216025,19.017645 C52.027773,19.0176313 52.0338614,19.0175355 52.0399635,19.0174534 C52.0465034,19.0173713 52.0530706,19.0172893 52.0595421,19.0171524 C52.0657126,19.0170019 52.0718421,19.016783 52.0779578,19.0165778 C52.0842378,19.0163589 52.0905177,19.01614 52.0967156,19.0158527 C52.1028313,19.015579 52.108906,19.015237 52.1149397,19.0149086 C52.1210281,19.0145529 52.1271302,19.0141972 52.1331365,19.0137867 C52.1391702,19.0133626 52.1451765,19.0129111 52.1511417,19.0124322 C52.1570386,19.0119534 52.1629081,19.0114608 52.1687365,19.0109272 C52.1746881,19.0103663 52.1805986,19.0097916 52.1864818,19.0091759 C52.1922008,19.008574 52.1979061,19.0079446 52.203584,19.0072742 C52.2093988,19.0065901 52.2152272,19.0058786 52.2209873,19.0051261 C52.2265694,19.004401 52.2321106,19.0036211 52.2376517,19.0028413 C52.2433433,19.0020204 52.2490076,19.0011858 52.2546445,19.0003101 C52.2601172,18.9994482 52.2655489,18.9985178 52.2709669,18.9976012 C52.276508,18.9966571 52.2820491,18.9956994 52.2875081,18.9946869 C52.2928851,18.9937018 52.2981936,18.9926347 52.3034885,18.9915675 C52.3088654,18.9905003 52.314256,18.9894331 52.3195509,18.9882975 C52.3248731,18.9871619 52.3300859,18.9859306 52.3353123,18.9847266 C52.3404977,18.98355 52.3457105,18.9823733 52.3508138,18.9811146 C52.3560813,18.9798285 52.3612393,18.9784466 52.3664384,18.9770785 C52.3713912,18.9757787 52.3763577,18.9745063 52.3812558,18.9731518 C52.3864959,18.9716878 52.3916403,18.9701281 52.396812,18.9685958 C52.4015322,18.9672002 52.4062935,18.9658594 52.4109453,18.9643954 C52.4163496,18.9627126 52.4216307,18.9608929 52.426953,18.959128 C52.4312217,18.9577051 52.4355588,18.9563369 52.4397865,18.9548729 C52.4483376,18.9518766 52.4567519,18.9487708 52.4650841,18.9455693 C52.4691202,18.9440233 52.4730606,18.9423951 52.477042,18.9407944 C52.4829252,18.9384274 52.4888631,18.9360741 52.4946368,18.9335977 C52.4985224,18.9319422 52.5022986,18.9301773 52.5061295,18.9284671 C52.511137,18.9262232 52.5161856,18.9240068 52.5211247,18.9216946 C52.5250514,18.9198339 52.528896,18.9178774 52.5327679,18.9159619 C52.5374608,18.9136634 52.5421673,18.9113785 52.5467644,18.9089979 C52.5506774,18.906973 52.5544946,18.904866 52.5583529,18.9027727 C52.5627721,18.9003783 52.567246,18.8979977 52.5715969,18.895535 C52.5754141,18.8933596 52.5791766,18.8911158 52.5829391,18.8888856 C52.5871941,18.8863682 52.5914491,18.8838507 52.5956221,18.8812649 C52.5993298,18.8789663 52.6029966,18.8765857 52.6066496,18.8742188 C52.6107405,18.8715782 52.6148313,18.8689376 52.6188401,18.8662149 C52.6224384,18.8637932 52.625982,18.8613031 52.6294982,18.8588131 C52.6334522,18.8560357 52.6373789,18.8532446 52.6412372,18.8503851 C52.6447124,18.8478403 52.6481328,18.845227 52.6515532,18.8426138 C52.6553431,18.8396996 52.6591056,18.836758 52.6628407,18.8337617 C52.6661654,18.8310801 52.6694627,18.8283848 52.6727463,18.8256484 C52.6763994,18.8225837 52.6800251,18.8194916 52.6836097,18.8163585 C52.6868112,18.8135674 52.6899717,18.8107489 52.6931185,18.8079031 C52.6966621,18.8046879 52.7001236,18.8014316 52.7035714,18.798148 C52.7066225,18.7952475 52.7096735,18.7923469 52.7126561,18.7893917 C52.7160629,18.7860122 52.7194149,18.7825781 52.7227396,18.7791303 C52.7256401,18.776134 52.7285407,18.7731514 52.7313728,18.7701003 C52.7346701,18.7665431 52.7378854,18.7629174 52.7411279,18.7592917 C52.7438506,18.7562133 52.7465733,18.7531623 52.7492412,18.7500291 C52.7524565,18.746294 52.7555485,18.7424494 52.7586817,18.7386322 C52.7612265,18.7354991 52.7638123,18.7323796 52.7663024,18.7291918 C52.7694492,18.7251967 52.7724729,18.7211058 52.7755103,18.7170287 C52.7778635,18.7138818 52.7802442,18.7107761 52.782529,18.7075882 C52.7856485,18.7032374 52.7886585,18.6987908 52.7916822,18.6943442 C52.7937618,18.6912932 52.7958961,18.6882969 52.7979347,18.6852048 C52.8012184,18.6801836 52.8044062,18.6750392 52.8075667,18.6699086 C52.8091948,18.6672817 52.8108914,18.6647095 52.8124785,18.6620552 C52.8171987,18.6542019 52.8217821,18.6462391 52.826215,18.6381258 C52.8298954,18.6314217 52.8337673,18.6240062 52.8377487,18.6159202 C52.8393769,18.6126366 52.8409366,18.6093256 52.8424963,18.6060146 C52.8432488,18.6044138 52.8440013,18.6027857 52.8447675,18.6011302 C52.8729657,18.5406293 52.8911625,18.4768585 52.8990842,18.411268 C52.8992894,18.4096262 52.8995357,18.4080117 52.8997136,18.4063562 C52.9000693,18.4032094 52.900384,18.4000626 52.9006987,18.3969158 C52.9126018,18.2825907 52.8961153,18.1412168 52.8093727,17.9861474 C52.8093453,17.98612 52.8093317,17.9860789 52.809318,17.9860379 C52.803257,17.9752156 52.7968676,17.9643249 52.7901087,17.9533658 C52.7893289,17.9520934 52.7885901,17.9508073 52.7878102,17.9495349 C52.7806683,17.9380969 52.7732254,17.9266042 52.76529,17.9150294 C52.7457797,17.8860787 52.7242583,17.8576343 52.7000826,17.8295866 C52.6995216,17.8289299 52.6989743,17.8282732 52.6983997,17.8276028 C52.6947193,17.8233614 52.6909705,17.8191337 52.6871533,17.8149197 C52.6866607,17.8143725 52.6862092,17.8138252 52.6857304,17.8132916 C52.6828982,17.8101722 52.6799566,17.807039 52.6770561,17.8039196 C52.6755511,17.8022914 52.6740598,17.8006496 52.6725274,17.7990078 C52.6704341,17.796805 52.668245,17.7946023 52.6661107,17.7923858 C52.663689,17.7898547 52.6613084,17.7873372 52.6588183,17.7848198 C52.6568344,17.7828086 52.6547548,17.7807837 52.6527299,17.7787724 C52.6500209,17.7760908 52.6473803,17.7733955 52.6446303,17.7707276 C52.6429748,17.7691131 52.6412372,17.7674986 52.6395543,17.7658979 C52.6363254,17.7628058 52.6331239,17.7597137 52.6298266,17.7566353 C52.6291698,17.7560333 52.6284857,17.7554313 52.627829,17.7548156 C52.6234645,17.7507658 52.6190453,17.746716 52.6145166,17.7426662 C52.6130116,17.7413391 52.6114382,17.7399846 52.6099196,17.7386437 C52.6009033,17.7306809 52.5916407,17.7227455 52.5820224,17.7148374 C52.5818035,17.7146459 52.5815435,17.7144543 52.5813246,17.7142765 C52.4521959,17.6082973 52.2675875,17.507011 51.986796,17.4056016 C51.9857152,17.4052048 51.9845933,17.4048217 51.9835261,17.4044386 C51.9600892,17.3959833 51.9360366,17.3875553 51.9112315,17.3791 C51.9048284,17.3769245 51.8982201,17.3747355 51.8917213,17.3725464 C51.8850582,17.3703162 51.8785047,17.3680724 51.8717459,17.3658423 C51.865808,17.3638858 51.8597196,17.3619156 51.8536996,17.3599591 C51.8461609,17.3574964 51.8387454,17.3550337 51.8310836,17.352571 C51.826637,17.3511344 51.8220125,17.3496978 51.8175249,17.3482612 C51.8081392,17.3452649 51.7988082,17.3422823 51.7892447,17.3392859 C51.7871513,17.3386292 51.7849759,17.3379725 51.7828826,17.3373158 C51.7565999,17.3291204 51.7297152,17.3209113 51.7020506,17.3126885 C51.6917345,17.3096375 51.6812132,17.3065728 51.6707056,17.3035081 C51.6659717,17.3021262 51.6613473,17.3007443 51.6565586,17.2993625 C51.4124071,17.2287097 51.1153343,17.157195 50.7519733,17.0832449 C50.7265662,17.0780732 50.7009129,17.0729015 50.6748627,17.0677024 C50.669691,17.0666762 50.6643688,17.0656364 50.6591697,17.0646103 C50.6172077,17.0562644 50.5745615,17.0479185 50.5309029,17.0395179 C50.5296032,17.0392716 50.5283034,17.0390253 50.5270036,17.0387928 C50.3953301,17.0145076 50.2539287,16.9896751 50.104031,16.9645143 C50.1037985,16.9644869 50.1035659,16.9644459 50.103347,16.9644049 C49.9036886,16.9309118 49.6890076,16.8968442 49.4622729,16.8627491 C49.4594955,16.862325 49.4566908,16.8619146 49.4539134,16.8614904 C49.3146327,16.840571 49.1708645,16.8196378 49.0232106,16.7988004 C49.0063956,16.7964335 48.9894302,16.7940665 48.9725058,16.7916996 C48.9592208,16.7898389 48.9460179,16.7879782 48.9326645,16.7861174 C48.9159453,16.7837778 48.899062,16.7814656 48.8822607,16.779126 C48.8684011,16.7772243 48.8546235,16.7752951 48.8407228,16.7733934 C48.8204327,16.7705886 48.7999921,16.7678112 48.7796063,16.7650338 C48.7691534,16.7636109 48.7587963,16.762188 48.7483297,16.7607651 C48.7281354,16.758015 48.7077769,16.7552787 48.6874594,16.752556 C48.6765413,16.7510784 48.6656917,16.7496007 48.6547326,16.7481368 C47.3713668,16.5760882 45.85931,16.4185698 44.5225032,16.3467951 C44.5220517,16.3467677 44.5216002,16.3467541 44.521135,16.3467267 C43.2054529,16.2723388 42.0742971,16.2784956 41.1712441,16.3022609 L41.1712441,12.242887 C41.1712441,12.0819071 41.0982381,11.9380157 40.983571,11.8423936 C42.6510941,9.70334131 43.2732598,7.47491952 42.7378777,5.48995154 C42.4476732,4.41402914 41.8324851,3.45386838 40.9094294,2.63614875 C39.9771247,1.81023372 38.7508531,1.15130496 37.2646822,0.677655026 C37.2638613,0.677381391 37.2630404,0.677135118 37.2622195,0.676875164 C36.1961753,0.342929998 35.073598,0.206536219 33.836682,0.260893977 C33.7014512,0.176422596 33.5359973,0.103553375 33.3335068,0.0529170648 C33.32683,0.0512478863 33.320126,0.0497155256 33.3133945,0.0483063011 C32.9707888,-0.0230579231 32.5764932,-0.00105760248 32.1199729,0.0244178932 C32.0386346,0.028960248 31.954519,0.0336667842 31.8682279,0.0379765486 L31.7200952,0.0451321255 C31.1877504,0.0707170755 30.5843697,0.0997224734 30.0999111,0.165189846 C30.0946026,0.165901299 30.0893077,0.166708524 30.0840266,0.167584159 C29.4504228,0.273180226 29.0222922,0.464670579 28.7751717,0.752973288 C28.4669483,1.11257181 28.4380523,1.61732046 28.7015499,2.03891119 C28.7055724,2.04534163 28.7097316,2.05168998 28.7140277,2.05795624 C28.9329911,2.37644098 29.3241672,2.61677533 29.8154803,2.73469869 C29.82057,2.73591637 29.825687,2.73706564 29.8308176,2.73813282 C30.0325557,2.78016328 30.2450476,2.79678666 30.4759004,2.79678666 C30.6897605,2.79678666 30.9193546,2.78251655 31.1707302,2.76096773 C31.6590881,2.72027808 32.2625372,2.65266267 32.7851953,2.58009445 C33.3492408,2.50384582 33.7701201,2.41184946 34.0596405,2.21156171 C34.7634455,2.20389991 35.4584395,2.2853613 36.1740245,2.45976309 C36.2257554,2.4723777 36.2775957,2.4854575 36.3295591,2.49904351 C36.3471813,2.5037911 36.3645982,2.50864813 36.3821246,2.51343676 C38.6228189,3.12602529 40.1114389,4.14951906 40.7247525,5.49141549 C40.7907125,5.63577207 40.846671,5.78378169 40.892245,5.93538962 C41.0700262,6.5268261 41.0922865,7.16961035 40.9596415,7.85424719 C40.9481078,7.91377667 40.9353974,7.97362082 40.9215241,8.03377966 C40.907637,8.09395218 40.8926008,8.15441201 40.8763742,8.21518653 C40.8358213,8.36712283 40.7879624,8.52096089 40.7327838,8.67659127 C40.3842812,9.65957326 39.7567384,10.6830944 38.8665053,11.7216108 L38.3924723,11.7216108 C38.10458,11.7216108 37.8712097,11.9549948 37.8712097,12.242887 L37.8712097,16.5232355 C36.2561563,16.6916583 34.7662776,16.8859808 33.3548093,17.2065452 C33.3545357,17.2066136 33.3542347,17.2066683 33.353961,17.2067367 C33.3537695,17.2067778 33.3535779,17.2068188 33.3534138,17.2068599 C33.3527707,17.2069967 33.3521414,17.2071472 33.351512,17.207284 C33.3510742,17.2073798 33.35065,17.2074892 33.3501985,17.207585 C32.9530709,17.2959147 32.5707195,17.3932469 32.1992315,17.5006627 C32.1689537,17.3770477 32.1132551,17.2562238 32.0321768,17.1413515 C31.8804321,16.9263968 31.6586092,16.7590548 31.4075073,16.6701232 C31.3448036,16.6479177 31.2804582,16.6308565 31.2149634,16.6183376 C31.4971777,16.2074734 31.6525345,15.8061044 31.6871631,15.4015749 C31.7492921,14.8755647 31.5550107,14.4464353 31.1393168,14.1924055 C31.1357869,14.1902438 31.1322433,14.1881368 31.1286724,14.1860708 C30.8401234,14.0190298 30.3273983,13.8620723 29.5233878,14.0630715 C29.5194474,14.0640703 29.5155071,14.0650964 29.5115941,14.0661636 C28.9410771,14.2230664 28.2767303,14.5679433 27.5733768,14.9330556 L27.4533601,14.9953351 C27.4521835,14.9959508 27.4509931,14.9965665 27.4498165,14.9971958 C26.7513611,15.3661937 26.0029534,15.7425388 25.2077129,15.9355889 C24.4679932,16.1020279 23.641011,16.1172694 22.6798651,15.9822301 C21.8041347,15.8462741 20.8233281,15.5973613 19.9176483,15.2812161 C19.5845651,15.1629918 19.2786539,15.0409092 18.9827851,14.9228216 C18.5432439,14.7473937 18.1280563,14.5816935 17.7315716,14.4758648 C17.3575388,14.3739902 17.0280129,14.3302495 16.7241676,14.3420569 C16.3520229,14.3565596 16.0233452,14.4572302 15.7472877,14.6412914 C15.7439904,14.6434805 15.7407342,14.6456969 15.7374916,14.6479681 C15.1984427,15.0253119 14.8267905,15.7358621 14.7907116,16.4575492 C14.7587373,17.0808643 14.9908352,17.7238127 15.4442634,18.2680196 C15.8124131,18.7124316 16.3275325,19.0757652 17.1142355,19.4459808 C17.1154122,19.4465281 17.1165888,19.4470754 17.1177517,19.4476226 C17.7398628,19.7347487 18.7278797,20.1263079 19.9019142,20.3611148 C19.9041033,20.3615526 19.9062924,20.3619768 19.9084952,20.3623872 C20.6951298,20.5092202 21.5876477,20.5894776 22.3913435,20.5894776 C22.580248,20.5894776 22.7644049,20.585031 22.9409548,20.5759873 C23.535155,20.55489 23.9628204,20.487644 24.3606459,20.4168955 C23.988036,20.7108351 23.6405048,21.0160348 23.3404904,21.2796966 L23.3330476,21.2862365 C22.856415,21.6787945 22.522935,21.9572463 22.2487656,22.231402 C21.9042854,22.5758958 21.6989902,22.8852412 21.6211544,23.1771422 C21.617775,23.1897705 21.6148882,23.2025356 21.6124802,23.2153828 C21.5377502,23.6139744 21.6756764,23.9592891 21.9583285,24.1418316 C20.563593,25.6448174 19.4080699,27.277534 18.515251,29.0094026 C17.8273305,30.3360848 17.2679094,31.7793633 16.7856536,33.2515515 C16.780003,33.2687768 16.7742567,33.2859612 16.7686335,33.3032002 C16.7535835,33.3493215 16.7387935,33.3955249 16.723894,33.441701 C16.7120456,33.4784092 16.700074,33.5150901 16.6883214,33.5518394 C16.6724778,33.6013675 16.6568806,33.650964 16.6412013,33.7005331 C16.6306389,33.7339714 16.6199398,33.7673687 16.6094321,33.8008207 C16.598774,33.8348062 16.5882938,33.8688465 16.5777041,33.9028731 C16.5623941,33.9520318 16.5469884,34.0011768 16.531829,34.0503765 C16.5315143,34.051389 16.5312133,34.0523741 16.5309123,34.0534002 C16.505601,34.1355457 16.4804813,34.2177185 16.4555941,34.2999324 C16.448931,34.321919 16.4424185,34.343892 16.4357828,34.365865 C16.4173124,34.4271594 16.3988283,34.4884401 16.3805631,34.5497482 C16.3767733,34.5624449 16.3730792,34.575128 16.369303,34.5878247 C16.1503533,35.3245618 15.9466451,36.0619146 15.7520216,36.7891702 C15.6819982,37.0463742 15.6125768,37.30496 15.543388,37.5655434 C15.3358352,38.3471705 15.1302526,39.1467891 14.9157495,39.9811048 C14.4525388,41.7827504 13.9750306,43.6400126 13.4566275,45.3762045 C13.4030359,45.5557096 13.3490065,45.7339287 13.2944983,45.9106427 C13.0912963,46.5695167 12.886343,47.1960196 12.6814309,47.7862247 C11.3796358,46.9969632 9.8949288,46.5828154 8.34725823,46.5828154 C7.22030275,46.5828154 6.12692239,46.8035164 5.09749072,47.2387889 C4.10335807,47.6591346 3.21073063,48.2608461 2.44437244,49.0271906 C1.67804162,49.7935351 1.07633012,50.6861625 0.655984437,51.6802952 C0.220711923,52.7097405 -2.73635829e-06,53.8031209 -2.73635829e-06,54.9300764 C-2.73635829e-06,56.0570319 0.220711923,57.1504122 0.655984437,58.1798439 C1.07633012,59.1739765 1.67804162,60.066604 2.44437244,60.8329485 C3.21073063,61.5993067 4.10335807,62.2010045 5.09749072,62.6213502 C6.12692239,63.0566227 7.22030275,63.2773237 8.34725823,63.2773237 C9.47421371,63.2773237 10.5676078,63.0566227 11.5970394,62.6213502 C12.5911584,62.2010045 13.4837995,61.5993067 14.250144,60.8329485 C15.0164885,60.066604 15.6181864,59.1739765 16.0385457,58.1798439 C16.4738182,57.1504122 16.6945192,56.0570319 16.6945192,54.9300764 C16.6945192,54.2680829 16.6173676,53.6094825 16.4651987,52.9725814 C16.317107,52.3527689 16.0971448,51.7497029 15.8114417,51.1801299 C15.3086495,50.1778019 14.5949525,49.2731892 13.7349972,48.5442234 C13.9725678,47.856686 14.191285,47.1861277 14.3864694,46.5464218 C14.3864831,46.5463671 14.3864968,46.5463124 14.3865104,46.5462577 C14.4418122,46.3669578 14.4966078,46.1862624 14.5509245,46.0043356 C14.5523064,45.9997385 14.5536609,45.9951141 14.5550291,45.990517 C14.5897808,45.8740576 14.6243547,45.7571467 14.6587234,45.6397569 C14.6621712,45.6280042 14.6655916,45.6161832 14.6690257,45.6044031 C14.68346,45.5550256 14.6978806,45.5056343 14.7122465,45.4561062 C14.7122876,45.455942 14.7123423,45.4557778 14.7123833,45.4556 C14.7656329,45.2720314 14.8184446,45.0874503 14.8708595,44.902021 C14.8742253,44.8901179 14.8775636,44.87816 14.8809293,44.8662431 C14.9300059,44.6923339 14.9787541,44.5177542 15.0271603,44.3425589 L15.027434,44.3415191 C15.3719962,43.0943006 15.7000308,41.8184052 16.0212382,40.5690661 C16.0925341,40.2917635 16.1628448,40.0182782 16.2325535,39.7481039 C16.2809734,39.5604307 16.3290922,39.3744404 16.3770606,39.1897499 C16.3954079,39.1191109 16.4137278,39.0486359 16.432034,38.9783936 C16.4377393,38.9565028 16.4434446,38.9346393 16.44915,38.9127894 C16.5839293,38.3963155 16.7179424,37.8901029 16.8540763,37.3901429 C16.8542815,37.3894177 16.854473,37.3886926 16.8546783,37.3879538 C17.1615608,36.241146 17.490991,35.06967 17.8672266,33.9197291 C18.3354312,32.4887642 18.8761903,31.0912103 19.5371166,29.8165735 C20.569011,27.8149685 21.9712168,25.9503729 23.7048092,24.2745587 C23.7058627,24.2735462 23.7069162,24.2725064 23.7079697,24.2714803 C23.8231977,24.1581813 23.9400813,24.0458949 24.0581825,23.9344293 C24.1299161,23.8667455 24.2020055,23.7992943 24.2747379,23.7323082 C24.294084,23.7145219 24.3136079,23.6968587 24.3330086,23.6790997 C24.361932,23.6526528 24.3907595,23.6261512 24.4198333,23.5998138 C24.4289591,23.59155 24.4381806,23.5833682 24.44732,23.5751181 C24.486833,23.5394223 24.5263871,23.5037676 24.5661737,23.4683181 C24.568185,23.4665257 24.5702235,23.4647471 24.5722211,23.4629548 C24.6682125,23.3774573 24.7649565,23.2925891 24.8624803,23.2084051 C24.8654766,23.2058329 24.8685003,23.2032744 24.8714829,23.2007022 C25.8148151,22.387265 26.8277602,21.6374481 27.8716672,20.9807084 C27.8733227,20.9796686 27.8749782,20.9786561 27.87662,20.9776163 C27.9300748,20.9440139 27.9835979,20.9106166 28.0372169,20.877493 C28.0428401,20.8740178 28.048477,20.8706247 28.0541002,20.8671495 C28.1037241,20.8365571 28.1534026,20.8061014 28.2031633,20.7759194 C28.216462,20.7678608 28.2298154,20.759939 28.2431278,20.7519078 C28.2852677,20.7264597 28.3274077,20.7010389 28.3696297,20.6759055 C28.3871697,20.6654663 28.4047645,20.6552186 28.4223319,20.6448341 C28.4603536,20.6223413 28.4983616,20.5997937 28.5364518,20.5775608 C28.5599844,20.5638242 28.5835855,20.5503203 28.6071319,20.5366796 C28.6392431,20.518086 28.6713132,20.4993967 28.7034517,20.480981 C30.3153446,19.5712239 31.8920479,18.9582797 33.6649618,18.5522041 C33.7162138,18.540602 33.7676847,18.5291913 33.8192651,18.5179175 C33.8366136,18.5141277 33.8540579,18.5104336 33.8714474,18.5066985 C33.9060076,18.4992282 33.9405952,18.4917853 33.9752922,18.4844792 C33.9959791,18.4801284 34.0167481,18.4758597 34.0374896,18.47155 C34.0691083,18.4649827 34.1007543,18.4584428 34.1324823,18.4519987 C34.154469,18.4475247 34.176524,18.4431329 34.1985517,18.4387137 C34.229281,18.4325705 34.260024,18.4264685 34.2908491,18.4204211 C34.3133693,18.4160156 34.3359169,18.4116374 34.3584918,18.4072729 C34.3891391,18.401376 34.4198136,18.3955202 34.4505429,18.3897055 C34.4731179,18.3854368 34.4957065,18.3811817 34.5183225,18.3769677 C34.5495444,18.371153 34.580862,18.3654066 34.6121796,18.3597013 C34.6342894,18.3556652 34.6563855,18.3516154 34.6785363,18.347634 C34.7111947,18.3417645 34.7439216,18.3359771 34.7766621,18.3302307 C34.7974995,18.3265503 34.8182821,18.3228562 34.8391332,18.3192306 C34.8759646,18.3128412 34.9128643,18.3065612 34.9497778,18.300295 C34.9666475,18.2974355 34.9834624,18.2945076 35.0003457,18.2916754 C35.0538278,18.2827002 35.1074057,18.2738344 35.1611068,18.2651328 C35.1722574,18.2633131 35.1834628,18.2615618 35.1946408,18.2597695 C35.2376017,18.2528328 35.2806172,18.2459372 35.3237149,18.2391784 C35.3437724,18.2360179 35.3638983,18.2329532 35.3839832,18.2298337 C35.4182424,18.2245115 35.4525152,18.219203 35.4868292,18.2139765 C35.5093905,18.2105561 35.5319791,18.2071767 35.554554,18.2037836 C35.5865968,18.1989813 35.6186396,18.194179 35.650737,18.1894588 C35.6742697,18.1859836 35.6978298,18.1825632 35.7214035,18.179129 C35.7527485,18.174573 35.7841208,18.1700443 35.8155205,18.1655567 C35.8393269,18.1621499 35.8631605,18.1587705 35.8869942,18.1554185 C35.9185307,18.1509719 35.9500946,18.1465664 35.9816449,18.1421882 C36.0051912,18.1389319 36.0287239,18.1356757 36.0522703,18.1324468 C36.0845319,18.1280412 36.116821,18.1236767 36.1491237,18.1193396 C36.172027,18.1162612 36.1949303,18.1131554 36.2178747,18.1101181 C36.2518876,18.1056031 36.2859553,18.1011291 36.3200092,18.0966826 C36.3411066,18.0939325 36.3621765,18.0911551 36.3832875,18.0884324 C36.4235667,18.0832197 36.4639006,18.078089 36.5042619,18.0729857 C36.519134,18.0710976 36.5340198,18.0691685 36.5489193,18.0672941 C36.6039475,18.0603711 36.6590167,18.0535302 36.7141269,18.0467851 C36.7295189,18.044897 36.7449383,18.0430499 36.7603303,18.0411755 C36.800418,18.0362911 36.8405056,18.0314341 36.880607,18.0266318 C36.9019506,18.024087 36.9233078,18.0215695 36.9446377,18.0190384 C36.9790611,18.0149749 37.0134572,18.0108977 37.0478942,18.0068753 C37.0708249,18.00418 37.0937556,18.0015394 37.1167,17.9988851 C37.1495636,17.9950816 37.1824273,17.9912917 37.2153046,17.9875429 C37.2388236,17.9848476 37.2623426,17.9821796 37.2858753,17.9795117 C37.3185611,17.9758176 37.3512469,17.9721372 37.3839464,17.9684705 C37.4072602,17.9658709 37.4305466,17.9632577 37.4538467,17.9606855 C37.4869155,17.9570051 37.5199981,17.9533658 37.5530807,17.9497264 C37.5759019,17.9472227 37.5987231,17.9447189 37.6215444,17.9422288 C37.6559267,17.9384937 37.6903364,17.9347722 37.7247461,17.9310645 C37.7459529,17.9287796 37.7671597,17.9264811 37.7883665,17.9242099 C37.8270175,17.9200643 37.8656549,17.9159598 37.9043196,17.9118552 C37.9210798,17.9100903 37.9378537,17.908298 37.9546276,17.9065193 C38.0084107,17.9008551 38.0621938,17.8952182 38.1159496,17.8896086 C38.1176598,17.8894308 38.1193837,17.8892529 38.1211076,17.8890614 C38.1783249,17.8831098 38.2355421,17.8771993 38.2927183,17.8713161 C38.3020904,17.8703447 38.311435,17.8694006 38.3207797,17.8684429 C38.3675714,17.8636406 38.4143631,17.8588383 38.4611275,17.854077 C38.4766563,17.8525036 38.4921578,17.8509165 38.507673,17.8493431 C38.5372393,17.8463331 38.5668057,17.8433505 38.5963447,17.8403542 L38.5963447,18.2911008 C37.2652568,18.3470457 35.9399291,18.519874 34.6494215,18.8063571 C33.2292652,19.1216266 31.8338593,19.5781606 30.5019779,20.1632487 C29.1932735,20.738185 27.9322228,21.4431667 26.7538785,22.2586288 C25.5860008,23.0668396 24.488639,23.9909351 23.4922489,25.0052621 C22.4953662,26.020109 21.5908082,27.1341762 20.8036948,28.3165293 C20.0087827,29.510635 19.3262392,30.7856001 18.7750819,32.1060024 C17.628753,34.852239 17.0475094,37.7670352 17.0475094,40.7694222 C17.0475094,42.2953387 17.2012654,43.8206259 17.5044813,45.3029112 C17.8000627,46.7478178 18.2410952,48.1691918 18.8153337,49.5275748 C19.379133,50.8612211 20.0769043,52.1475831 20.8892744,53.3508966 C21.6939005,54.5427175 22.6178866,55.6634888 23.6356067,56.6820708 C24.6533952,57.7007623 25.7733182,58.625624 26.9642634,59.4310027 C28.1668655,60.2442757 29.4524887,60.942827 30.7854373,61.5072419 C32.143273,62.0822192 33.5641818,62.523799 35.0086779,62.8197362 C36.4907033,63.1233762 38.0158399,63.2773237 39.5417428,63.2773237 C41.0676593,63.2773237 42.5929875,63.1233762 44.0753822,62.8197498 C45.5202341,62.523799 46.9416491,62.0822329 48.3001005,61.5072829 C49.6336921,60.9428543 50.9200541,60.2443441 52.1234224,59.4310985 C53.3152022,58.6257061 54.4359599,57.7008581 55.4545692,56.682235 C56.4731923,55.6636256 57.3980403,54.542868 58.2034327,53.3510882 C59.0166647,52.1477199 59.7151885,50.8613716 60.2796172,49.5277663 C60.8545534,48.1693149 61.2961332,46.7479136 61.5920841,45.303048 C61.8957104,43.8206533 62.0496579,42.2953251 62.0496579,40.7694222 C62.0496579,39.258843 61.8988572,37.7486058 61.6014287,36.2806864 Z"
                  id="Fill-1" fill="#000000" mask="url(#mask-2)"></path>
        </g>
    </g>
</svg>
