<svg id="Layer_1" data-name="Layer 1" xmlns="http://www.w3.org/2000/svg" xmlns:xlink="http://www.w3.org/1999/xlink"
     width="64" height="64" viewBox="0 0 64 64">
    <defs>
        <clipPath id="clip-path">
            <circle cx="32" cy="32" r="32" fill="none"/>
        </clipPath>
        <linearGradient id="linear-gradient" x1="14.76" y1="2.63" x2="33.85" y2="13.78"
                        gradientTransform="matrix(1, 0, 0, -1, -7, 27)" gradientUnits="userSpaceOnUse">
            <stop offset="0" stop-color="#a52a22" stop-opacity="0.6"/>
            <stop offset="0.66" stop-color="#a52a22" stop-opacity="0"/>
        </linearGradient>
        <linearGradient id="linear-gradient-2" x1="44.41" y1="-29.91" x2="23.2" y2="-17.48"
                        gradientTransform="matrix(1, 0, 0, -1, -7, 27)" gradientUnits="userSpaceOnUse">
            <stop offset="0" stop-color="#0d562b" stop-opacity="0.4"/>
            <stop offset="0.33" stop-color="#0d562b" stop-opacity="0"/>
        </linearGradient>
        <clipPath id="clip-path-6">
            <polygon points="0 64 30.46 64 44.6 49.86 44.6 39.27 19.4 39.27 0 5.99 0 64" fill="none"/>
        </clipPath>
        <linearGradient id="linear-gradient-3" x1="48.4" y1="11.8" x2="53.74" y2="-11.59"
                        gradientTransform="matrix(1, 0, 0, -1, -7, 27)" gradientUnits="userSpaceOnUse">
            <stop offset="0" stop-color="#e86324" stop-opacity="0.3"/>
            <stop offset="0.66" stop-color="#e86324" stop-opacity="0"/>
        </linearGradient>
        <clipPath id="clip-path-9">
            <polygon points="32 17.45 44.6 39.27 30.46 64 64 64 64 17.45 32 17.45" fill="none"/>
        </clipPath>
        <radialGradient id="radial-gradient" cx="613.61" cy="9.56" r="30.57"
                        gradientTransform="matrix(1, 0, 0, -1, -583, 27)" gradientUnits="userSpaceOnUse">
            <stop offset="0" stop-color="#3e2823" stop-opacity="0.2"/>
            <stop offset="1" stop-color="#3e2823" stop-opacity="0"/>
        </radialGradient>
        <clipPath id="clip-path-12">
            <polygon points="5.08 0 5.08 14.67 19.4 39.27 32 17.45 64 17.45 64 0 5.08 0" fill="none"/>
        </clipPath>
        <radialGradient id="radial-gradient-2" cx="588.05" cy="12.27" r="28.38" xlink:href="#radial-gradient"/>
        <radialGradient id="radial-gradient-3" cx="614.94" cy="-5.05" r="31.95"
                        gradientTransform="matrix(1, 0, 0, -1, -583, 27)" gradientUnits="userSpaceOnUse">
            <stop offset="0" stop-color="#273339" stop-opacity="0.2"/>
            <stop offset="1" stop-color="#273339" stop-opacity="0"/>
        </radialGradient>
        <radialGradient id="radial-gradient-4" cx="16.56" cy="18.27" r="64.27"
                        gradientTransform="matrix(1, 0, 0, -1, -7, 27)" gradientUnits="userSpaceOnUse">
            <stop offset="0" stop-color="#fff" stop-opacity="0.1"/>
            <stop offset="1" stop-color="#fff" stop-opacity="0"/>
        </radialGradient>
    </defs>
    <title>chrome</title>
    <g clip-path="url(#clip-path)">
        <path d="M5.08,0V39.27H19.4L32,17.45H64V0Z" fill="#dc4537"/>
        <path d="M5.08,0V39.27H19.4L32,17.45H64V0Z" fill="url(#linear-gradient)"/>
    </g>
    <g clip-path="url(#clip-path)">
        <path d="M19.75,39.15,5.27,14.31l-.22.36L19.43,39.32Z" fill="#3e2823" fill-opacity="0.15"/>
    </g>
    <g clip-path="url(#clip-path)">
        <path d="M0,64H30.46L44.6,49.86V39.27H19.4L0,6Z" fill="#0f9d58"/>
        <path d="M0,64H30.46L44.6,49.86V39.27H19.4L0,6Z" fill="url(#linear-gradient-2)"/>
    </g>
    <g clip-path="url(#clip-path)">
        <path d="M44.31,39.76,44,39.58,30,64h.42L44.32,39.77Z" fill="#273339" fill-opacity="0.15"/>
    </g>
    <g clip-path="url(#clip-path)">
        <g clip-path="url(#clip-path-6)">
            <path d="M32,17.45,44.6,39.27,30.46,64H64V17.45Z" fill="#ffce41"/>
            <path d="M32,17.45,44.6,39.27,30.46,64H64V17.45Z" fill="url(#linear-gradient-3)"/>
        </g>
        <g clip-path="url(#clip-path)">
            <path d="M32,17.45,44.6,39.27,30.46,64H64V17.45Z" fill="#ffce41"/>
            <path d="M32,17.45,44.6,39.27,30.46,64H64V17.45Z" fill="url(#linear-gradient-3)"/>
        </g>
        <g clip-path="url(#clip-path)">
            <g clip-path="url(#clip-path-9)">
                <path d="M5.08,0V39.27H19.4L32,17.45H64V0Z" fill="#dc4537"/>
                <path d="M5.08,0V39.27H19.4L32,17.45H64V0Z" fill="url(#linear-gradient)"/>
            </g>
            <g clip-path="url(#clip-path)">
                <path d="M32,17.45v7.62l28.51-7.62Z" fill="url(#radial-gradient)"/>
            </g>
            <g clip-path="url(#clip-path)">
                <g clip-path="url(#clip-path-12)">
                    <path d="M0,64H30.46L44.6,49.86V39.27H19.4L0,6Z" fill="#0f9d58"/>
                    <path d="M0,64H30.46L44.6,49.86V39.27H19.4L0,6Z" fill="url(#linear-gradient-2)"/>
                </g>
                <g clip-path="url(#clip-path)">
                    <path d="M5.08,14.71,25.9,35.52l-6.5,3.75Z" fill="url(#radial-gradient-2)"/>
                </g>
                <g clip-path="url(#clip-path)">
                    <path d="M30.48,64l7.63-28.44,6.49,3.75Z" fill="url(#radial-gradient-3)"/>
                </g>
                <g clip-path="url(#clip-path)">
                    <circle cx="32" cy="32" r="14.55" fill="#f2f2f2"/>
                    <circle cx="32" cy="32" r="11.64" fill="#557ebf"/>
                </g>
                <g clip-path="url(#clip-path)">
                    <path d="M32,17.09A14.55,14.55,0,0,0,17.45,31.64V32A14.56,14.56,0,0,1,32,17.45H64v-.36Z"
                          fill="#3e2823" fill-opacity="0.2"/>
                    <path d="M44.58,39.27a14.52,14.52,0,0,1-25.17,0h0L0,6v.37L19.4,39.64h0a14.53,14.53,0,0,0,25.17,0h0v-.37Z"
                          fill="#fff" fill-opacity="0.1"/>
                    <path d="M32.36,17.45l-.18,0a14.53,14.53,0,0,1,0,29.06l.18,0a14.55,14.55,0,0,0,0-29.1Z"
                          fill="#3e2823" opacity="0.1" style="isolation:isolate"/>
                    <path d="M44.73,39.76A14.52,14.52,0,0,0,46,28.1a14.31,14.31,0,0,1-1.41,11.16v0L30.46,64h.42L44.73,39.77Z"
                          fill="#fff" fill-opacity="0.2"/>
                </g>
                <g clip-path="url(#clip-path)">
                    <path d="M32,.36A32,32,0,0,1,64,32.18V32A32,32,0,0,0,0,32v.18A32,32,0,0,1,32,.36Z" fill="#fff"
                          fill-opacity="0.2"/>
                    <path d="M32,63.64A32,32,0,0,0,64,31.82V32A32,32,0,0,1,0,32v-.18A32,32,0,0,0,32,63.64Z"
                          fill="#3e2823" fill-opacity="0.15"/>
                </g>
                <circle cx="32" cy="32" r="32" fill="url(#radial-gradient-4)"/>
            </g>
        </g>
    </g>
</svg>
