<svg id="Layer_1" data-name="Layer 1" xmlns="http://www.w3.org/2000/svg" width="64" height="64" viewBox="0 0 64 64">
    <title>yandex</title>
    <g id="Helvetica" opacity="0.8">
        <g id="Group">
            <g id="yandex">
                <path id="Fill-1" d="M32,0A32,32,0,1,1,0,32,32,32,0,0,1,32,0" fill="#f4f4f5"/>
                <path id="Fill-3" d="M31.69,1.24A30.45,30.45,0,1,1,1.24,31.69,30.45,30.45,0,0,1,31.69,1.24"
                      fill="#fff"/>
                <path id="Fill-5"
                      d="M52.15,18.63l-17,16.86v21c0,.38-1.61.68-3.45.71s-3.45-.33-3.45-.71v-21l-17-16.86c-.27-.28.6-1.59,1.94-2.95s2.66-2.24,2.91-2L31.67,29.15,47.26,13.72c.27-.28,1.57.6,2.91,2s2.23,2.67,2,2.95"
                      fill="#eb2227"/>
            </g>
        </g>
    </g>
</svg>
