<svg data-name="Layer 1" xmlns="http://www.w3.org/2000/svg" xmlns:xlink="http://www.w3.org/1999/xlink" width="1923.16" height="351.93">
  <defs>
    <linearGradient id="a" x1="436.28" y1="135.39" x2="684.54" y2="135.39" gradientUnits="userSpaceOnUse">
      <stop offset="0" stop-color="#373e99"/>
      <stop offset="1" stop-color="#662e91"/>
    </linearGradient>
    <linearGradient id="b" x1="1401.62" y1="196.11" x2="1566.34" y2="196.11" xlink:href="#a"/>
    <linearGradient id="c" x1="1025.88" y1="226.1" x2="1149.08" y2="226.1" xlink:href="#a"/>
    <linearGradient id="d" x1="1111.57" y1="199.23" x2="1114.11" y2="199.23" gradientTransform="rotate(54.15 1112.864 199.249)" xlink:href="#a"/>
    <linearGradient id="e" x1="1106.55" y1="206.43" x2="1109.1" y2="206.43" gradientTransform="rotate(54.2 1107.85 206.452)" xlink:href="#a"/>
    <linearGradient id="f" x1="1101.61" y1="213.7" x2="1104.15" y2="213.7" xlink:href="#a"/>
    <linearGradient id="g" x1="1096.62" y1="220.8" x2="1099.16" y2="220.8" xlink:href="#a"/>
    <linearGradient id="h" x1="1091.71" y1="227.95" x2="1094.26" y2="227.95" gradientTransform="rotate(54.18 1092.957 227.926)" xlink:href="#a"/>
    <linearGradient id="i" x1="1086.89" y1="234.87" x2="1089.43" y2="234.87" gradientTransform="rotate(53.8 1090.063 239.758)" xlink:href="#a"/>
    <linearGradient id="j" x1="1081.81" y1="242.05" x2="1084.36" y2="242.05" gradientTransform="rotate(54.21 1083.058 242.037)" xlink:href="#a"/>
    <linearGradient id="k" x1="1077.04" y1="249.2" x2="1079.58" y2="249.2" gradientTransform="rotate(54.14 1078.378 249.26)" xlink:href="#a"/>
    <linearGradient id="l" x1="1071.62" y1="256.85" x2="1074.16" y2="256.85" gradientTransform="rotate(54.15 1072.91 256.87)" xlink:href="#a"/>
    <linearGradient id="m" x1="1168.5" y1="226.1" x2="1284" y2="226.1" xlink:href="#a"/>
    <linearGradient id="n" x1="1203.47" y1="199.23" x2="1206.01" y2="199.23" gradientTransform="rotate(35.76 1204.723 199.226)" xlink:href="#a"/>
    <linearGradient id="o" x1="1208.48" y1="206.43" x2="1211.03" y2="206.43" gradientTransform="rotate(35.81 1209.85 206.481)" xlink:href="#a"/>
    <linearGradient id="p" x1="1213.43" y1="213.7" x2="1215.98" y2="213.7" gradientTransform="rotate(35.84 1214.755 213.727)" xlink:href="#a"/>
    <linearGradient id="q" x1="1218.42" y1="220.8" x2="1220.97" y2="220.8" xlink:href="#a"/>
    <linearGradient id="r" x1="1223.33" y1="227.95" x2="1225.87" y2="227.95" gradientTransform="rotate(35.79 1224.575 227.932)" xlink:href="#a"/>
    <linearGradient id="s" x1="1228.15" y1="234.87" x2="1230.69" y2="234.87" gradientTransform="rotate(35.77 1229.48 234.911)" xlink:href="#a"/>
    <linearGradient id="t" x1="1233.22" y1="242.05" x2="1235.77" y2="242.05" gradientTransform="rotate(35.8 1234.461 242.027)" xlink:href="#a"/>
    <linearGradient id="u" x1="1238" y1="249.2" x2="1240.54" y2="249.2" gradientTransform="rotate(35.77 1239.336 249.232)" xlink:href="#a"/>
    <linearGradient id="v" x1="1243.42" y1="256.85" x2="1245.96" y2="256.85" gradientTransform="rotate(35.79 1244.83 256.925)" xlink:href="#a"/>
    <linearGradient id="w" y1="198.42" x2="120.17" y2="198.42" xlink:href="#a"/>
    <linearGradient id="x" x1=".36" y1="196.26" x2="1923.16" y2="196.26" xlink:href="#a"/>
  </defs>
  <path d="M661.09 234.18a21.7 21.7 0 0 0 .18-2.69c0-10.23-7.61-18.94-18.26-22.22V209h.25a.42.42 0 0 0 .42-.42v-1.35a.42.42 0 0 0-.42-.42H643a.94.94 0 0 0-.62-.68v-.49a.87.87 0 0 0 .23-.6 1.52 1.52 0 0 0 0-.21.7.7 0 0 0 .26-.53.77.77 0 0 0-.67-.71v-.39a.42.42 0 0 0 .21-.36.39.39 0 0 0-.25-.37.17.17 0 0 0-.34 0 .4.4 0 0 0-.25.37.42.42 0 0 0 .21.36v.39a.77.77 0 0 0-.67.71.7.7 0 0 0 .26.53.76.76 0 0 0 0 .21.87.87 0 0 0 .23.6v.49a.94.94 0 0 0-.62.68h-.79V198a.47.47 0 0 0 .33-.44.46.46 0 0 0-.33-.43v-.93c.42 0 .36-.2.55-.37.52-.12.3-.72-.33-.87s-.62-1-.93-1.37c.31 0 .23-.63-.09-.62a5.34 5.34 0 0 0-2.22-5.39 4.29 4.29 0 0 1-1.92-2.51c.24-.9-.83-1.21-.83-1.21v-2a.75.75 0 0 0 .33-.53c.27 0 .46-.14.46-.26s-.26-.24-.6-.27a1 1 0 0 0-.34-.29V180a2.66 2.66 0 0 0 1.48-2.58.36.36 0 0 0 0-.66c-.35-1.58-1.88-2.91-2.46-4a5.05 5.05 0 0 1-.38-1.92c.18-.06.3-.15.3-.26s-.13-.21-.31-.27v-.61a1 1 0 0 0 .69-1 1 1 0 0 0-.92-1v-3.45a.43.43 0 0 0 .27-.27h.36a.27.27 0 0 0 .22.15.28.28 0 0 0 .27-.28.27.27 0 0 0-.27-.27.26.26 0 0 0-.22.14h-.36a.43.43 0 0 0-.27-.27v-.86a.26.26 0 0 0 .14-.22.28.28 0 0 0-.55 0 .26.26 0 0 0 .14.22v.86a.41.41 0 0 0-.26.27h-.37a.26.26 0 0 0-.22-.14.27.27 0 0 0-.27.27.28.28 0 0 0 .27.28.27.27 0 0 0 .22-.15h.37a.41.41 0 0 0 .26.27v3.45a1 1 0 0 0-.91 1 1 1 0 0 0 .68 1v.61c-.18.06-.31.16-.31.27s.13.2.3.26a4.87 4.87 0 0 1-.38 1.92c-.58 1.11-2.1 2.44-2.46 4a.36.36 0 0 0 0 .66 2.66 2.66 0 0 0 1.48 2.58v.52a1 1 0 0 0-.24.22c-.34 0-.59.14-.59.27s.19.22.46.26a.72.72 0 0 0 .22.46V184a1 1 0 0 0-.52.76H630v.6a4.23 4.23 0 0 1-1.8 2.21 5.35 5.35 0 0 0-2.22 5.39c-.32 0-.4.6-.09.62-.31.36-.29 1.21-.92 1.37s-.86.75-.34.87c.19.17.13.32.55.37v.93a.45.45 0 0 0 0 .87v8.83h-.79a1 1 0 0 0-.62-.68v-.49a.87.87 0 0 0 .23-.6 1.52 1.52 0 0 0 0-.21.7.7 0 0 0 .26-.53.77.77 0 0 0-.67-.71v-.39a.42.42 0 0 0 .21-.36.39.39 0 0 0-.25-.37.17.17 0 0 0-.16-.17.18.18 0 0 0-.17.17.39.39 0 0 0-.25.37.42.42 0 0 0 .21.36v.39a.77.77 0 0 0-.67.71.7.7 0 0 0 .26.53.78.78 0 0 0 0 .21.86.86 0 0 0 .24.6v.49a.94.94 0 0 0-.62.68H622a.42.42 0 0 0-.42.42v1.35a.42.42 0 0 0 .42.42h.25v.29c-10.65 3.28-18.26 12-18.26 22.22a21.25 21.25 0 0 0 .18 2.67v21h-22v-28.14h-2.7a10.36 10.36 0 0 1-.53-3.3h.4v-3.32h.25V220h-.25v-.38h.16v-1.13l.3-.14v-.18h.3v-1h-1.92a6 6 0 0 0-3.38-4h-7.08a6 6 0 0 0-3.38 4h-2.14v1h.31v.18l.3.14v1.13h.19v.38h-.25v.4h.25v2.15h-5.69v-4.06l-.43-.48v-1.28l.43-.23v-.3h-.43v-10.75l.66-.66v-1H557v-1c.06 0 .48.1.45-.26s-.64-.28-.64-.28l.1-.92s.25-.07.25-.29.1-.79.57-.89.48-.5.56-.76h.71V199h-.18a3.48 3.48 0 0 1-1.14-.76c-.89-.73-.89-3.43-.79-4.61a7.46 7.46 0 0 1 .22-1.55h.82l-.41-.8s-.34-.07-1-.17v-.34a.26.26 0 0 0 .13-.22.28.28 0 0 0-.17-.24v-.39a.44.44 0 0 0 .31-.41.39.39 0 0 0-.17-.32.53.53 0 0 0-.27-.5v-.16a.28.28 0 0 0 .12-.24c0-.15-.09-.28-.21-.28s-.21.13-.21.28a.28.28 0 0 0 .12.24v.16a.51.51 0 0 0-.26.5.41.41 0 0 0-.17.32.45.45 0 0 0 .31.41v.39a.28.28 0 0 0-.17.24.26.26 0 0 0 .13.22v.23l-.65-.1a11.58 11.58 0 0 0-6.83-5.95v-1.1h-.2v-6.91c.25-.08.34-.27-.11-.36a1.83 1.83 0 0 0-.88-1.22s-.53-.16-.13-.67a.76.76 0 0 0 .21-.46.28.28 0 0 0 .23-.26.29.29 0 0 0 .2.09.28.28 0 0 0 .28-.29.15.15 0 0 0 0-.09l.06-.05h.07a.29.29 0 0 0 .29-.29.36.36 0 0 0-.07-.17.14.14 0 0 1 0-.06.28.28 0 0 0 .24-.27.26.26 0 0 0-.17-.23.29.29 0 0 0 .29-.29.28.28 0 0 0-.26-.27.26.26 0 0 0 .16-.23.28.28 0 0 0-.27-.28.26.26 0 0 0 .14-.22.29.29 0 0 0-.29-.29.27.27 0 0 0 .08-.19.29.29 0 0 0-.29-.29h-.08c-.03 0 0-.06 0-.1a.29.29 0 0 0-.28-.28.18.18 0 0 0-.1 0 1.45 1.45 0 0 0-.79-.44 3.49 3.49 0 0 0-1-1.09 1.77 1.77 0 0 0-.7-1.38 4.55 4.55 0 0 1-.21-1.83.52.52 0 0 0-.23-.53v-.56a.91.91 0 0 0 .73-.88.92.92 0 0 0-.58-.86.41.41 0 0 0-.27-.39v-3.75h.68a.31.31 0 0 0 .28.25.32.32 0 1 0 0-.63.31.31 0 0 0-.28.24h-.68v-1.54a.3.3 0 0 0 .22-.28.31.31 0 1 0-.62 0 .3.3 0 0 0 .22.28v1.54h-.68a.31.31 0 0 0-.28-.24.32.32 0 1 0 0 .63.31.31 0 0 0 .28-.25h.68v3.75a.41.41 0 0 0-.27.39.92.92 0 0 0-.58.86.91.91 0 0 0 .73.88v.66a.52.52 0 0 0-.23.53 4.55 4.55 0 0 1-.22 1.83 1.8 1.8 0 0 0-.69 1.38 3.62 3.62 0 0 0-1 1.09 1.44 1.44 0 0 0-.78.44h-.1a.29.29 0 0 0-.28.28v.1c0 .04-.05 0-.08 0a.29.29 0 0 0-.29.29.27.27 0 0 0 .08.19.29.29 0 0 0-.28.29.27.27 0 0 0 .13.22.29.29 0 0 0-.27.28.26.26 0 0 1-.09.5.29.29 0 0 0 .28.29.25.25 0 0 0-.17.23.28.28 0 0 0 .24.27v.06a.28.28 0 0 0-.07.17.29.29 0 0 0 .29.29h.07l.06.05a.15.15 0 0 0 0 .09.28.28 0 0 0 .28.29.29.29 0 0 0 .2-.09.29.29 0 0 0 .23.26.79.79 0 0 0 .22.46c.4.51-.13.67-.13.67a1.83 1.83 0 0 0-.88 1.22c-.53.1-.32.34 0 .4a1 1 0 0 0 .31.24v6.63H541v1.1a11.58 11.58 0 0 0-6.83 5.95l-.76.12v-.28a.27.27 0 0 0 .12-.22.28.28 0 0 0-.17-.24v-.39a.44.44 0 0 0 .31-.41.39.39 0 0 0-.17-.32.51.51 0 0 0-.27-.5v-.16a.27.27 0 0 0 .12-.24c0-.15-.09-.28-.21-.28s-.21.13-.21.28a.28.28 0 0 0 .13.24v.16a.49.49 0 0 0-.27.5.41.41 0 0 0-.17.32.45.45 0 0 0 .31.41v.39a.28.28 0 0 0-.17.24.26.26 0 0 0 .13.22v.36l-.86.15-.41.8h.82a7.73 7.73 0 0 1 .23 1.55c.09 1.18.09 3.88-.8 4.61a3.67 3.67 0 0 1-1.13.76h-.18v.38h.66c.08.26.11.67.56.76s.57.67.57.89.25.29.25.29l.1.92s-.6-.1-.64.28.4.28.46.26v1H532v1l.67.66v10.78h-.43v.3l.43.23V218l-.43.48v4.06h-52.73v-2.07l.4-.21v-.23h.09v-.2h-.48v-1.14l1-.72v-.17h.78v-.4l.6-.17v-.41h.27v-.37h-2.47v-2.11h-.56v-1.93l.73-.67v-.19h-.73v-1h-.58v-15.83h.38v-1.06h.31v-.19h-1v-1h.68v-.27h-.68V190h1l.26-.6h.59l.44-.95h.42V188h-2.4v-1l-.3-.25v-2h-.11v-.84l.58-.63v-.17h.21v-.29h-1.26v-12.89l.32-.1v-.17h.17v-1h.16v-.34h-.41l.25-.51v-.06h.16v-.33h.2v-.31h-.72c0-.32 0-1.44.23-1.68a1.28 1.28 0 0 1 .57-.32l.16-.34s.66-.06.83-.34c0 0 .31-.09.34-.31.62 0 .9.05.66-.52s-.16-.61-.16-.61a.54.54 0 0 0 0-.61c.33-.58 0-.84 0-.84s.18-.7-.71-.75-1.69.52-1.44 1.1.22.87-.24 1c-.44-.21-1.34-.9-1.8-3.19-.61-3.08-1.13-9.25-5-10.86-.7-.29-1.47-.56-2.25-.8v-12.79c.1 0 .17 0 .18-.05a2.05 2.05 0 0 1 .47-.62s.28.18.51-.41c.65-.24.24-.76-.51-1.71s-1-4-1.61-7.76c-.48-2.85-1.77-3.42-2.35-3.53v-1.48a.4.4 0 0 0 0-.79v-5.5a.4.4 0 0 0 0-.79v-.75c1.11-1.16.35-1.86.06-2.59a1.37 1.37 0 0 0-.43-.66l-2.73-89.18a1.91 1.91 0 0 0 1.08-1.76 1.88 1.88 0 0 0-1.19-1.79.64.64 0 0 0 .07-.27.6.6 0 0 0-.45-.58v-2.25a2.6 2.6 0 0 0 1.44-1 4.94 4.94 0 0 0 .46-1.91c.28.15.37-.15.3-.41.09.06.19 0 .21-.22.12 0 .21 0 .26-.2.13.06.21 0 .23-.24.18.06.16-.11.13-.32.06 0 .16 0 .1-.24.17 0 .14-.12 0-.38a.65.65 0 0 0 .77-.12.4.4 0 0 0 .34-.24.46.46 0 0 0 .37-.34.31.31 0 0 0 .3-.28.7.7 0 0 0 .44-.41.47.47 0 0 0 .38-.39c.41-.24.21-.38.08-.36s-.9.32-1.27.42-1.69.4-1.69.4a1.86 1.86 0 0 1 0-.25c0-.1.05 0 .08-.13s0-.17 0-.24-.05-.09-.05-.09l-.1-.08s.09-.13.07-.21-.09.09-.19.21-.06.24-.08.28a5.74 5.74 0 0 0-.11.58 5 5 0 0 0-.61.18c-.52.18-.27.45-.13.56s-.08.46-.28.61-.27.2-.3.12.07-.14.15-.19.1-.1.09-.15 0-.08 0-.14.08-.07-.12-.23a.35.35 0 0 0-.41-.31c-.28 0-.3.16-.39.25s-.1.24-.15.32a.31.31 0 0 0-.05.16.42.42 0 0 0-.09.27c0 .06.09.24.09.24a.74.74 0 0 1-.19.08s-.12-.1-.17-.17v-.58c.08 0 .05-.09 0-.11V3.6h1.4a.22.22 0 1 0 .44 0 .21.21 0 0 0 .14-.19.21.21 0 0 0-.14-.18.21.21 0 0 0-.18-.2v-.7.7a.2.2 0 0 0-.19.2v.05h-1.42V1.35a.22.22 0 0 0 0-.44.2.2 0 0 0-.15-.12l-.04-.79v.81a.2.2 0 0 0-.15.12.22.22 0 0 0 0 .44v1.85h-1.37v-.05a.21.21 0 0 0-.19-.2v-.7.7a.2.2 0 0 0-.18.2.19.19 0 0 0-.14.18.2.2 0 0 0 .14.19.22.22 0 0 0 .22.23.22.22 0 0 0 .22-.23h1.35v3.94h-.13c-.84.23-1.2 1.36-1.42 1.93a8.12 8.12 0 0 1-.79 1.74c-.27.35 0 .39.13.26a1.18 1.18 0 0 0 .58-.36c.12 0 .2 0 .32-.21.13 0 .27-.2.37-.37s.22-.14.32-.42c.17-.05.28-.26.3-.25h.32v.29l-.63.3a4.77 4.77 0 0 0-.8.63c-.42.33-.37 1.24-.37 1.24s-.42 0-.39.59.71.62.71.62a.31.31 0 0 1-.11.17.26.26 0 0 0-.18.36c.07.16.3 0 .36-.16s.18-.3.18-.3l.1.13a1.07 1.07 0 0 0 .78.14c.07-.07 0-.33-.18-.49s.15-.31.44-.44V15a.62.62 0 0 0-.4.57.64.64 0 0 0 .07.27 1.88 1.88 0 0 0-1.19 1.79 1.9 1.9 0 0 0 1.07 1.76l-2.72 89.18a1.32 1.32 0 0 0-.43.66c-.29.73-1 1.43.06 2.59v.75a.4.4 0 0 0 0 .79v5.5a.4.4 0 0 0 0 .79v1.48c-.58.11-1.87.68-2.35 3.53-.62 3.73-.85 6.8-1.61 7.76s-1.16 1.47-.51 1.71c.23.59.51.41.51.41a2.05 2.05 0 0 1 .47.62s.08 0 .18.05v12.84c-.79.24-1.56.51-2.26.8-3.89 1.61-4.41 7.78-5 10.86-.45 2.29-1.35 3-1.79 3.19-.47-.17-.47-.53-.24-1s-.54-1.14-1.44-1.1-.72.75-.72.75-.28.26.05.84a.56.56 0 0 0 0 .61s.08 0-.16.61 0 .54.65.52c0 .22.34.31.34.31.18.28.84.34.84.34l.16.34a1.28 1.28 0 0 1 .57.32c.28.24.25 1.36.23 1.68h-.73v.31h.21v.33h.16v.06l.25.51h-.41v.34h.16v1h.16v.17l.33.1v12.86h-1.26v.29h.21v.17l.58.63v.84h-.11v2l-.31.25v1h-2.4v.46h.42l.45.95h.59l.26.6h1v2.23h-.68v.27h.68v1h-1v.19h.31v1.06h.37v15.84h-.58v1H444v.19l.72.67v1.93h-.55v2.11h-2.47v.37h.3v.41l.6.17v.4h.78v.17l1 .72v1.14h-.47v.2h.08v.23l.39.21v34.6h-8.06v15.67h248.22v-15.66h-23.45zm-183.28-65.85h-.17v-.57h.21zM462.07 9.87h.06-.06zM446 167.76h.21v.57H446z" fill-rule="evenodd" opacity=".8" fill="url(#a)"/>
  <path d="M1495.11 224.15h-1.6v-5.24l-7-1.89v-7.09l-7.74-2.1v-2.27h-1.53v-.19h-.24v-19.14h.26v-1h.2v-.75h.42v-.81h-.42v-.45h.26v-1.32l1.15-1.22v-.15h.38v-1h-1.91v-1.75h.54v-.56h-.54v-1.73h1V175H1477c.37-.6.09-.92.09-.92v-1.15a5.47 5.47 0 0 1 .24-1.68c.25-.77-.16-.53-.2-.86s-.13-1.14-.13-1.14.29-.74 0-1.15-.4-.33-.4-.57.16-1.23-.54-1.23-.41 1.23-.41 1.23c-.94 0-.57.61-1 1.14s.12 1.6-.14 1.72 0 1.15 0 1.15v.66a7.18 7.18 0 0 1 0 1.59 1.86 1.86 0 0 0 .23 1.21h-3.88c.37-.6.08-.92.08-.92v-1.15a5.27 5.27 0 0 1 .25-1.68c.25-.77-.17-.53-.2-.86s-.13-1.14-.13-1.14.29-.74 0-1.15-.41-.33-.41-.57a2.27 2.27 0 0 0-.09-1v-1.17h1.19v-.25h.37v-.82h-.58v-.8a.77.77 0 0 1 .7-.39v-.71l-1.9-.08a9.36 9.36 0 0 0-.51-3.25 3.36 3.36 0 0 1 1-1.82h.47v-1.1h-2.86a19.47 19.47 0 0 0-4-4.5v-13.35c.31 0 .8-.15.61-.48a1.59 1.59 0 0 0-1-.6l-1.21-1.42a8.91 8.91 0 0 0-1.32-.41c-.13-1.59-.72-1.55-.72-1.55a33.52 33.52 0 0 0-.93-3.28 1 1 0 0 0-.63-1.18h-.94l-.16-3-3-70.71a1.23 1.23 0 0 0-.69-2v-.83a1.45 1.45 0 0 0 0-2.85v-3.25h2.41v-.42a.31.31 0 0 1-.21-.42c.09-.34.61-.25.61-.25s.5-1 .62-1.35c.25-.07.06-.19-.15-.23s0 .21 0 .21l-.12.26h-.28l-.16-1.48s-.69-.59-.72-.63-.13-.35-.06-.44.12-.15-.11-.14-.14.09-.06.15 0 .2 0 .2a1.16 1.16 0 0 1-.44 0c-.31 0-.3.07-.2.16s-.1.13-.1.13-.85-1-1-1.18a.29.29 0 0 1 0-.41c.09-.11 0-.2-.22-.14s0 .25 0 .25a.26.26 0 0 1 0 .18c0 .06-.11 0-.42 0s-.44.05-.27.25c-.32.26.27.2.27.2l-.62.79h-.94c-.19 0-.07-.37 0-.53s0-.15-.15-.14-.07.15 0 .18a.18.18 0 0 1 0 .21c-.06.07-.4 0-.53 0s-.22.06-.06.21a.16.16 0 0 0-.1.22h.54l-.36.37h-.28c-.28 0 0 .14 0 .19a4.51 4.51 0 0 0-.25.43h-.59v1l1.27.88s.12.08 0 .17-.44-.17-.44-.17a.21.21 0 0 0-.15-.24c-.19 0-.25.52.31.7a.76.76 0 0 1 .52.77h2V50a1.46 1.46 0 0 0 0 2.85v.84a1.24 1.24 0 0 0-1 1.21 1.27 1.27 0 0 0 .29.78l-3 70.71-.16 3h-.94a1 1 0 0 0-.63 1.18 33.52 33.52 0 0 0-.93 3.28s-.58 0-.72 1.55a8.91 8.91 0 0 0-1.32.41l-1.2 1.42a1.6 1.6 0 0 0-1 .6c-.19.33.3.44.61.48v13.35a19.47 19.47 0 0 0-4 4.5h-2.85v1.1h.46a3.3 3.3 0 0 1 1 1.83 9.29 9.29 0 0 0-.51 3.24l-1.91.08v.71a.81.81 0 0 1 .73.41v.78h-.58v.82h.36v.25h1.19v.93c-.48.16-.35 1-.35 1.2s-.13.16-.41.57a4.23 4.23 0 0 0-.41 1.43 1.9 1.9 0 0 1 .28.86c0 .33-.45.09-.2.86a5.47 5.47 0 0 1 .24 1.68v1.15s-.28.32.08.92h-3.11c.37-.6.09-.92.09-.92v-1.15a5.27 5.27 0 0 1 .25-1.68c.25-.77-.16-.53-.2-.86a1.9 1.9 0 0 1 .28-.86 4.23 4.23 0 0 0-.41-1.43c-.28-.41-.41-.33-.41-.57s.17-1.23-.53-1.23-.41 1.23-.41 1.23c-.94 0-1.31 1.43-1.72 2s.86.78.6.9 0 1.15 0 1.15v.66a6.79 6.79 0 0 1 0 1.59 1.92 1.92 0 0 0 .24 1.21h-1.85v.52h1v1.73h-.54v.56h.54v1.75h-1.91v1h.37v.15l1.16 1.23v1.33h.26v.45h-.42v.81h.42v.75h.2v1h.26v19.14h-.26v.19h-1.53v2.27l-7.74 2.1v7l-7 1.89v5.24h-1.6v18.13h-11.23v109.2h164.72V242.28h-71.23zm-44.76-179.69v-.66h.47a1.77 1.77 0 0 0 .33.66 3.9 3.9 0 0 1 .49.87zm6.28-.36a2.19 2.19 0 0 0-.21.76c.06.17.61.09.61.09v.19h-.82c-.54 0-.4.14-.4.14h-.69l-.57-1.2 1 .05zm-2.44-2.31s.15-.08.29.12a7.51 7.51 0 0 0 .84.75s.27.34.15.46 0 .79 0 .79-.62 0-.78-.26.15-1.1.15-1.1a3.48 3.48 0 0 1-.57 0c-.27-.11-.08-.76-.08-.76zm-1.49 2.63s-.09 0-.35-.37.71-1.42.74-1.42l.68-.89s.16.09.16.13a8.34 8.34 0 0 0-.74 1.51c-.13.54.87.67.87.67v1.22a6.8 6.8 0 0 1-.9-.06zm21.73 161h-.27v.19h-2.56v-.19h-.26v-19.19h.26v-1h2.56v1h.27zm-40.9-19.14h.27v-1h2.55v1h.27v19.14h-.27v.19h-2.55v-.19h-.27z" fill-rule="evenodd" opacity=".8" fill="url(#b)"/>
  <path d="M1143.84 201.4l-21-16.81-.26.66 20 17.27-25-5.5.19-.28-22-17.37-.92.39 18.37 15.08-48.22 69.29h-39.15v8.7h86.39c5.49-21.08 36.81-68.89 36.81-68.89l-4.32-3.76zM1117 252.5l1.88.79c-1.38 2.78-2.66 5.48-3.79 8l-1.84-.79c1.07-2.5 2.34-5.22 3.75-8zm.47-1c1.12-2.25 2.31-4.54 3.54-6.85l1.9.8c-1.23 2.31-2.43 4.61-3.56 6.86zm4-7.79q1.8-3.36 3.68-6.71l1.92.81c-1.25 2.22-2.49 4.47-3.7 6.71zm-7.59-48.05l2.57 1.38-4.4 6.31-2.29-1.77zm-4.68 6.71l2.29 1.77-4.53 6.49-2.28-1.76zm-5.07 7.29l2.27 1.77-4.51 6.46-2.27-1.76zm-5.06 7.26l2.27 1.76-4.42 6.33-2.26-1.76zm-5 7.13l2.26 1.75-4.36 6.25-2.26-1.75zm-4.91 7l2.26 1.75-4.41 6.31-2.25-1.75zm-5 7.11l2.26 1.74-4.44 6.37-2.25-1.74zm-5 7.16l2.25 1.75-4.45 6.38-2.25-1.74zm-5 7.19l2.24 1.74-4.67 6.68-2.23-1.73zm-5.22 7.48l2.24 1.73-1.62 2.33h-1.09l.57-.79-.93-.67-1 1.46h-.94zm43 8.92l-2-.2c.71-2.22 1.65-4.67 2.75-7.26l1.84.77c-.92 2.45-1.81 4.7-2.53 6.78zm15.59-32.06l-1.92-.82q1.3-2.33 2.61-4.59l1.8 1q-1.18 2.28-2.43 4.49z" fill-rule="evenodd" opacity=".8" fill="url(#c)"/>
  <path transform="rotate(-54.15 1112.865 199.22)" opacity=".8" fill="url(#d)" d="M1111.46 198.66h2.76v1.15h-2.76z"/>
  <path transform="rotate(-54.2 1107.847 206.425)" opacity=".8" fill="url(#e)" d="M1106.45 205.86h2.76v1.15h-2.76z"/>
  <path fill-rule="evenodd" opacity=".8" fill="url(#f)" d="M1104.15 212.92l-.93-.67-1.61 2.24.93.67 1.61-2.24z"/>
  <path fill-rule="evenodd" opacity=".8" fill="url(#g)" d="M1099.16 220.02l-.93-.67-1.61 2.24.93.67 1.61-2.24z"/>
  <path transform="rotate(-54.18 1092.954 227.959)" opacity=".8" fill="url(#h)" d="M1091.6 227.37h2.76v1.15h-2.76z"/>
  <path transform="rotate(-54.14 1088.243 234.848)" opacity=".8" fill="url(#i)" d="M1086.78 234.3h2.76v1.15h-2.76z"/>
  <path transform="rotate(-54.21 1083.055 242.068)" opacity=".8" fill="url(#j)" d="M1081.71 241.48h2.76v1.15h-2.76z"/>
  <path transform="rotate(-54.14 1078.392 249.174)" opacity=".8" fill="url(#k)" d="M1076.93 248.62h2.76v1.15h-2.76z"/>
  <path transform="rotate(-54.15 1072.92 256.847)" opacity=".8" fill="url(#l)" d="M1071.51 256.28h2.76v1.15h-2.76z"/>
  <path d="M1204.28 194.84l18.37-15.08-.92-.39-22 17.37.2.28-25 5.5 20-17.27-.26-.66-21 16.81-.91-1.22-4.33 3.76s31.32 47.81 36.81 68.89H1284v-8.7h-31.45zm47.09 69.29h-.93l-1-1.46-.94.67.57.79h-1.09l-1.62-2.33 2.24-1.73zm-3.38-4.85l-2.23 1.73-4.67-6.68 2.24-1.74zm-5.21-7.49l-2.24 1.74-4.46-6.38 2.25-1.75zm-5-7.18l-2.24 1.74-4.45-6.37 2.26-1.74zm-5-7.17l-2.25 1.75-4.4-6.31 2.26-1.75zm-5-7.1l-2.26 1.75-4.36-6.25 2.27-1.75zm-4.91-7.05l-2.26 1.76-4.42-6.33 2.27-1.76zm-5-7.12l-2.27 1.76-4.51-6.46 2.27-1.77zm-5.06-7.26l-2.28 1.76-4.53-6.49 2.29-1.77zm-7.36-5.52l-4.41-6.31 2.57-1.38 4.12 5.92zm-8.93 41.3c1.23 2.31 2.42 4.6 3.54 6.85l-1.88.81c-1.13-2.25-2.33-4.55-3.56-6.86zm-2.4-.13c-1.2-2.24-2.45-4.49-3.7-6.71l1.92-.81q1.88 3.35 3.68 6.71zm6.41 7.94c1.37 2.78 2.64 5.48 3.75 8.05l-1.84.79a165.88 165.88 0 0 0-3.79-8zm-11.32-21q1.31 2.26 2.61 4.59l-1.91.82q-1.26-2.2-2.5-4.37zm16.37 37.5c-.72-2.07-1.61-4.33-2.63-6.69l1.84-.78c1.1 2.6 2 5.05 2.75 7.27z" fill-rule="evenodd" opacity=".8" fill="url(#m)"/>
  <path transform="rotate(-35.76 1204.72 199.239)" opacity=".8" fill="url(#n)" d="M1204.17 197.85h1.15v2.76h-1.15z"/>
  <path transform="rotate(-35.81 1209.864 206.41)" opacity=".8" fill="url(#o)" d="M1209.18 205.05h1.15v2.76h-1.15z"/>
  <path transform="rotate(-35.84 1214.753 213.701)" opacity=".8" fill="url(#p)" d="M1214.13 212.32h1.15v2.76h-1.15z"/>
  <path fill-rule="evenodd" opacity=".8" fill="url(#q)" d="M1220.04 222.26l.93-.67-1.62-2.24-.93.67 1.62 2.24z"/>
  <path transform="rotate(-35.79 1224.564 227.951)" opacity=".8" fill="url(#r)" d="M1224.02 226.57h1.15v2.76h-1.15z"/>
  <path transform="rotate(-35.77 1229.489 234.869)" opacity=".8" fill="url(#s)" d="M1228.84 233.49h1.15v2.76h-1.15z"/>
  <path transform="rotate(-35.8 1234.46 242.059)" opacity=".8" fill="url(#t)" d="M1233.92 240.67h1.15v2.76h-1.15z"/>
  <path transform="rotate(-35.77 1239.342 249.185)" opacity=".8" fill="url(#u)" d="M1238.7 247.82h1.15v2.76h-1.15z"/>
  <path transform="rotate(-35.79 1244.854 256.835)" opacity=".8" fill="url(#v)" d="M1244.12 255.48h1.15v2.76h-1.15z"/>
  <path d="M82.71 224.73h-.84V222l-3.67-1v-3.73l-4.07-1.1V215h-.81v-.1h-.14v-10.11h.14v-.52h.11v-.39h.22v-.43h-.22v-.23h.13v-.71l.61-.64v-.08h.2v-.53h-1v-.92h.28v-.29h-.28v-.92h.54v-.27h-.7c.19-.31 0-.48 0-.48v-.6a2.82 2.82 0 0 1 .13-.89c.13-.41-.09-.28-.11-.45s-.06-.6-.06-.6.15-.39 0-.61-.22-.17-.22-.3.09-.64-.28-.64-.21.64-.21.64c-.5 0-.3.33-.52.61s.06.84-.08.9 0 .6 0 .6v.35a2.94 2.94 0 0 1 0 .84.94.94 0 0 0 .13.63H70c.19-.31 0-.48 0-.48v-.6a2.82 2.82 0 0 1 .13-.89c.13-.41-.09-.28-.11-.45l-.07-.6s.16-.39 0-.61-.21-.17-.21-.3a1.38 1.38 0 0 0 0-.47v-.65h.62v-.13h.2v-.43h-.31v-.41a.44.44 0 0 1 .37-.21v-.38h-1a5 5 0 0 0-.27-1.71 1.78 1.78 0 0 1 .53-.95h.25V189h-1.5a10.45 10.45 0 0 0-2.11-2.37v-7c.16 0 .42-.08.32-.25a.88.88 0 0 0-.53-.32l-.63-.74a4.18 4.18 0 0 0-.69-.22c-.07-.84-.38-.82-.38-.82a17.72 17.72 0 0 0-.49-1.72.54.54 0 0 0-.33-.62h-.5l-.08-1.58-1.61-37.22a.64.64 0 0 0 .15-.41.67.67 0 0 0-.51-.64v-.45a.74.74 0 0 0 .61-.73.76.76 0 0 0-.61-.74v-1.74h1.27v-.22a.16.16 0 0 1-.11-.22c0-.18.32-.13.32-.13s.26-.55.33-.72 0-.09-.08-.12 0 .11 0 .11l-.06.14h-.15l-.08-.78s-.37-.31-.38-.33a.34.34 0 0 1 0-.23c0-.05.07-.08 0-.08s-.07 0 0 .09 0 .1 0 .1a.51.51 0 0 1-.23 0c-.16 0-.15 0-.1.08s0 .07 0 .07-.45-.53-.51-.62a.17.17 0 0 1 0-.22c0-.06 0-.11-.11-.07s0 .13 0 .13v.09c0 .03-.06 0-.22 0s-.23 0-.14.13c-.18.13.14.1.14.1l-.33.42h-.5c-.1 0 0-.2 0-.28s0-.08-.08-.08 0 .09 0 .1a.09.09 0 0 1 0 .11h-.28c-.07 0-.11 0 0 .11a.09.09 0 0 0 0 .12h.28l-.19.19h-.15c-.15 0 0 .07 0 .1l-.13.23h-.31v.5l.67.46s.06 0 0 .1-.23-.1-.23-.1a.11.11 0 0 0-.08-.12c-.1 0-.13.27.17.37a.4.4 0 0 1 .27.4h1v1.74a.76.76 0 0 0-.61.74.75.75 0 0 0 .61.73v.45a.67.67 0 0 0-.51.64.64.64 0 0 0 .15.41L59 173.33l-.08 1.58h-.5a.54.54 0 0 0-.33.62 17 17 0 0 0-.48 1.72s-.31 0-.39.82a4.18 4.18 0 0 0-.69.22l-.63.74a.88.88 0 0 0-.53.32c-.1.17.16.23.32.25v7a10.14 10.14 0 0 0-2.1 2.37h-1.5v.58h.24a1.71 1.71 0 0 1 .53.95 5 5 0 0 0-.27 1.71h-1v.38a.45.45 0 0 1 .38.23v.39h-.3v.43h.19v.13h.62v.52c-.23.09-.18.49-.18.6s-.07.09-.22.3a2.29 2.29 0 0 0-.21.76 1 1 0 0 1 .14.45c0 .17-.23 0-.1.45a2.82 2.82 0 0 1 .13.89v.6s-.15.17 0 .48h-1.62c.2-.31 0-.48 0-.48v-.6a2.64 2.64 0 0 1 .14-.89c.12-.41-.09-.28-.11-.45a1 1 0 0 1 .15-.45 2.39 2.39 0 0 0-.22-.76c-.15-.21-.21-.17-.21-.3s.08-.64-.28-.64-.22.64-.22.64c-.5 0-.69.76-.9 1s.45.41.31.47 0 .6 0 .6v.35a4 4 0 0 1 0 .84 1 1 0 0 0 .12.63h-1v.27h.55v.92h-.29v.29h.29v.92h-1v.53H48v.08l.61.65v.7h.13v.23h-.22v.43h.22v.39h.1v.52H49v10.06h-.14v.1H48v1.2l-4 1.18V221l-3.67 1v2.76h-.84v9.53L0 244.26v24.28h120.17v-34.28H82.71zm-23.53-94.49v-.35h.25a.88.88 0 0 0 .17.35 2.33 2.33 0 0 1 .26.46zM52 214.85h-.14v.1h-1.39v-.1h-.14v-10.06h.14v-.52h1.35v.53H52zm10.52-84.8s-.14.31-.11.4.32.05.32.05v.1h-.43c-.28 0-.21.08-.21.08h-.36l-.3-.64h.51zm-1.35.61a2.58 2.58 0 0 1-.48 0l-.24-.41-.18-.2c-.18-.2.37-.74.39-.74l.35-.47s.09 0 .09.06a4.2 4.2 0 0 0-.39.8c-.07.28.46.35.46.35zm.06-1.83s.08 0 .16.06a3.36 3.36 0 0 0 .44.4s.14.18.08.25 0 .41 0 .41-.33 0-.41-.14.08-.58.08-.58a2.38 2.38 0 0 1-.3 0c-.18-.05-.09-.4-.09-.4zm10.65 86h-.18v.1h-1.35v-.1h-.14v-10.04h.14v-.53h1.35v.52h.14z" fill-rule="evenodd" opacity=".8" fill="url(#w)"/>
  <path d="M1923.16 227.47V227h-.75v-9.33h.73v-1.45h-.34V216h-.39v-2h-.33v-.31h-45.91v.31h-.33v2h-.4v.26h-.32v1.45h.72v1.86c-16.8 6.38-33.52 11.54-50.42 13.65-16.11 2-32.36 2.14-48.55 2.39v-1.05h-1.68V233h.52v-2h-8.08v-1.27h-.63V229h.67v-1.13H1757v-13.69h.59v-3.74h-1.61v-6.13a.73.73 0 0 0 .64-.73v-1.1a.75.75 0 0 0-.74-.75h-.88c-.73-6-4.27-11-9-13v-.64h-.83v-.84a1.53 1.53 0 0 0-.9-1.39v-2.68a1.12 1.12 0 0 0-.17-.57c.38-.12.65-.32.65-.57s-.56-.66-1.25-.68v-.31h-.93v-3a1.49 1.49 0 0 0-1-2.62 1.51 1.51 0 0 0-1.51 1.5 1.53 1.53 0 0 0 .49 1.1v3.05h-.82v.3c-.73 0-1.32.31-1.32.69s.27.45.64.57a1.22 1.22 0 0 0-.16.57v2.68a1.53 1.53 0 0 0-.9 1.39v.84h-.72v.6c-4.79 1.91-8.38 6.9-9.11 13h-.88a.75.75 0 0 0-.74.75v1.1a.73.73 0 0 0 .64.73v6.13h-1.61v3.74h.58v13.69h-10.66V229h.67v.76h-.67V231h-8.08v2h.52v1.56h-1.68v1.05c-16.19-.25-32.44-.38-48.55-2.39-16.9-2.11-33.62-7.27-50.42-13.65v-1.86h.72v-1.45h-.33V216h-.39v-2h-.33v-.31H1561v.31h-.33v2h-.4v.26h-.27v1.45h.73V227h-.75v.45h.34v.29h-.34V229h.38v.45l.37.31v2h-.26v1l.26.27v5.23h-.75v.46h.38v.65l.37.32v24.18h-153.5v-3.35l-2.51-.89v-15.7l1.82-.6v-.25h.69v-.61h-2.51v-5h.53v-1.19h-5.66V235h.44v-1.87h-.61v-.41l-3.64-1.74V113.77l2.3-.69v-1.2h1.21v-3.2h-5.63v-8h.27v-1.2h.51v-.76h-1.16a5 5 0 0 0-2.43-3 2.12 2.12 0 0 1 1.37-1.6 4.33 4.33 0 0 0 2-1.36s-1.81-2.71-2.2-3.42a10.24 10.24 0 0 1-.67-1.81s.38.48.38-.42a1.5 1.5 0 0 1 .39-1.2l1 2.07a31.44 31.44 0 0 0 .64-6.84c-.19-2.78-1.22-5-2.68-4.94a2 2 0 0 0-1.74 1.52v-8h3.39v-1.04h-3.39v-4.23h-1v4.23h-3.36v1.13h3.36v7.82l-.81-.2s.26-1.48-.9-1.68-.68 1.46-.94 1.52-1.13-.84-1-2.2a10.25 10.25 0 0 0 .06-1.93s.71-.91.68-1.17a1.87 1.87 0 0 0-.33-.64s-1 1.22-.88 1.6a13.91 13.91 0 0 0 0 4.47c.51 2.61.69 3.07.89 4a24.05 24.05 0 0 1 .43 4.42c0 1.36-.25 2.68 0 2.75s.55 1.45.39 2.71-.33 3.29-.33 3.29a.77.77 0 0 0 .71.52.55.55 0 0 1 .45.21 5.15 5.15 0 0 0-3.66 3.48h-1.16v.76h.51v1.2h.27v8H1377v3.2h1.21v1.2l2.3.69V231l-3.64 1.74v.41h-.61V235h.44v1.25h-5.7v1.19h.53v5h-2.51v.61h.69v.25l1.82.6v15.7l-2.51.89v3.35h-10.69a51.14 51.14 0 0 0-6.55-6.38c-8.26-6.52-9.46-6.52-10.25-13s5.19-6.26 5.19-6.26 2-2.8 2-9.72-11.84-6.92-11.84-6.92-.14-1.46-14.65-.93a59.1 59.1 0 0 0-13.59 1.5 6.12 6.12 0 0 0-1.79-1.06 6.84 6.84 0 0 0-2.42-.33s-.83-.4-1.86-1a7.86 7.86 0 0 1-2-2 7.8 7.8 0 0 0 2.1-.8 13.79 13.79 0 0 0 3.1-2.56c.87-.89 1.7-2.31.79-3.19a2.38 2.38 0 0 1-.48-2.27 14.12 14.12 0 0 0 6.24-1.18 16.77 16.77 0 0 0 6.05-4.39 6.39 6.39 0 0 1 .81.92 4.2 4.2 0 0 1 1.27 2.43c0 1.13.74 1.61 1.33 1.13s.76-.11 2-.37a3.53 3.53 0 0 0 2.05-1.59 12.35 12.35 0 0 1-3-.09c-.83-.26-2.53-2.8-2.53-2.8l.87-1.16s1.64 0 2.86-.1 2.38-.81 4-1 1.68.84 1.83 1.73.22 2.69.42 3.43.66 1.16-.15 1.07-1.34.31-1.71 1.86.09 1.92.81 1.35 2-.79 2-1.07a4.71 4.71 0 0 1 .67-1.44 3.26 3.26 0 0 0 .37-2.43 13.05 13.05 0 0 1-1.06-4.67c0-2-1.34-1.88-2.36-1.81s-4.42-.16-4.42-.16a12.16 12.16 0 0 1 2.34-1.48 4.17 4.17 0 0 1 3.47.83 22.13 22.13 0 0 0 2.86 3c.53.29.4.72-.06.9s-.39.3-.37 1.13a8.29 8.29 0 0 0 1 2.56s.61-.81 1.35-1.62.06-1.85.26-3.14-1.11-1.57-1.57-1.84a49.21 49.21 0 0 1-3.73-3.51c-1.12-1.12-1.82-.42-2.49-.11a16.41 16.41 0 0 1-3.74.11 7 7 0 0 0-.65-2.06 14.81 14.81 0 0 1-1.14-3.45 19 19 0 0 0-2.72-5.11l2.43-2.19c.13.72 2.22.63 2.38.41s-.18-.87-.75-1.26.16-.46.66-.24.92.61 1.18.41a1.21 1.21 0 0 0 .22-1.18c-.11-.48.11-.43 0-1.11s-1.27-.9-1.27-.9a32.89 32.89 0 0 0-3.65-1.85c-1.61-.66-3.14-1.38-3.14-1.38v-.89c0-.9-.35-1.4-.37-1.12s-.35 1.44-.92 1a11.46 11.46 0 0 0-.22-1.9 3.29 3.29 0 0 1-.54.78c-.35.38-.33.46-.68 1.73-1.36.35-2.86 1.94-4.19 3.49s-.31 1.16-.31 1.16-.63.68-.92.94a.73.73 0 0 0-.08.92c-.51.28-.79 1.46-.79 1.46a1.27 1.27 0 0 0 .42.35 4 4 0 0 0-.27 1.95l.4-1a3.13 3.13 0 0 0 .15.81c.15.5.85 1.44.63 1.61a13.17 13.17 0 0 0-1 1.38 2 2 0 0 1-.59-.9 13.71 13.71 0 0 0-.77-3.18 16.73 16.73 0 0 0-2.68-3.67s2.31 0 2.79-.83-.35-.75-.65-.75a20.25 20.25 0 0 1-2.51.51c-1 0-1.25-.37-1.25-.37s0-.44.11-.44.37-.11.72-.63 0-.94-.13-1.56c.13-.28-.07-.45-.48-1.15a1.72 1.72 0 0 0-1.51-1.53 2.16 2.16 0 0 0-2.34 1.79c-.65.2-.63 1.66-.3 2.58 0 .67.22.26.86 1.36-1.35.55-1.42 1.58-2.22 7.19s-3.15 9.94-4.26 10.81-.08 1.66 1 2.92a6.3 6.3 0 0 0-3.24 4.19c-4.26-.24-6.47 5.92-6.87 10.5s-2.05 9.32-3.47 10.27-.63 3.31 0 4.42a1.9 1.9 0 0 0 1.5 1.1v1.51l-1.73.94c-5.19 2.79-4.92 6.78-9.32 8.38s-20.77 11.85-20.77 11.85a21.56 21.56 0 0 1-2.92 3.59 56.84 56.84 0 0 1-8.88 6.78h-151.4c.56-.18.88-.39.88-.63s-.62-.61-1.62-.83a10.36 10.36 0 0 0-.24-3.87 2.46 2.46 0 0 0-1.57-1.56c-.28-1.81-1.16-3.14-2.21-3.14-.74 0-1.39.66-1.81 1.67a11.13 11.13 0 0 0-7.77-7.82 3.28 3.28 0 0 0-2.82-3.09v-2.46c.31-.11.5-.26.5-.44s-.71-.59-1.58-.59h-.17v-8.68h.71v-1h.81v-1.32h.41v-.69h.43v-.31h-.46a8.23 8.23 0 0 0 .46-3 7.47 7.47 0 0 0-3.76-6.75 8.76 8.76 0 0 0-1.09-1.83 7.92 7.92 0 0 1-1-3.95 1.13 1.13 0 0 0 .74-1.06 1.11 1.11 0 0 0-.46-.89.37.37 0 0 0 .17-.27c0-.22-.29-.4-.66-.44v-2a.56.56 0 0 0 .36-.53.58.58 0 0 0-.36-.53v-1.53a.72.72 0 0 0 .24-.19l.8.23a.3.3 0 0 0 .26.18.32.32 0 0 0 .33-.32.31.31 0 0 0-.5-.26l-.78-.22a.58.58 0 0 0-.35-.48v-1.45a.62.62 0 0 0 .32-.32h1.43a.58.58 0 1 0 0-.43h-1.43a.57.57 0 0 0-.32-.31v-1.18h.51a.31.31 0 0 0 .24.12.33.33 0 0 0 0-.66.31.31 0 0 0-.24.12h-.51v-.75a.58.58 0 0 0 .36-.53.58.58 0 0 0-1.15 0 .58.58 0 0 0 .36.53v.75h-.51a.31.31 0 0 0-.24-.12.33.33 0 0 0 0 .66.31.31 0 0 0 .24-.12h.51v1.18a.53.53 0 0 0-.31.31h-1.33a.58.58 0 1 0 0 .43h1.33a.57.57 0 0 0 .31.32v1.41a.6.6 0 0 0-.23.19l-.8-.23a.3.3 0 0 0-.27-.2.33.33 0 0 0 0 .66.3.3 0 0 0 .15-.07l.8.23a.58.58 0 0 0 .35.48v1.53a.58.58 0 0 0-.36.53.56.56 0 0 0 .36.53v2c-.32.07-.55.23-.55.43a.37.37 0 0 0 .17.27 1.11 1.11 0 0 0-.46.89 1.13 1.13 0 0 0 .74 1.06 7.92 7.92 0 0 1-1 3.95 8.76 8.76 0 0 0-1.09 1.83 7.49 7.49 0 0 0-3.76 6.75v.05a8.16 8.16 0 0 0 .46 3h-.46v.31h.42v.69h.42v1.32h.81v1h.71v9a8.36 8.36 0 0 0-1.23-.24 9 9 0 0 0 .52-3.11c0-2.72-1-4.93-2.27-4.93-.61 0-1.16.53-1.56 1.36a4.14 4.14 0 0 0-.35-.67 3.17 3.17 0 0 0-1.89-1.59l.23-.84s.39-.13.86-.87c.34-.54-.56-.64-1.09-.65v-1.74a1.11 1.11 0 0 0 .66-.39c.59-.58-.51-.85-.51-.85l.23-1.24a.72.72 0 0 0 .27-.66c-.08-.39-1.35-.35-1.35-.35v-1.16a2 2 0 0 0 .85-1.55 4 4 0 0 0-1-1.71v-3.32c.93-.15 1.48-.33 1.48-.52s-.55-.37-1.48-.52v-.58a8 8 0 0 0 .93-1.34l1-.54-.34-1a8 8 0 0 0 .29-1.31l.75-.39-.42-1.47a9.18 9.18 0 0 0 .3-1.36l.82-.59-.71-1.35c0-.29 0-.59-.07-.89s-.1-.42-.15-.63l.38-.57-.7-.54a7.46 7.46 0 0 0-.27-.71l.12-.91-.82-.46a11.36 11.36 0 0 0-.85-1.19l-.07-1-1-.16a10 10 0 0 0-3-1.9 12.3 12.3 0 0 0-2-2.62 9.06 9.06 0 0 1-1.76-5.44 1.55 1.55 0 0 0 .26-2.63.47.47 0 0 0 .21-.35c0-.3-.39-.54-.9-.59v-2.74a.78.78 0 0 0 0-1.45v-2.05a.8.8 0 0 0 .32-.26l1.06.3a.43.43 0 0 0 .4.26.45.45 0 0 0 0-.89.4.4 0 0 0-.26.1l-1-.3a.77.77 0 0 0-.47-.66v-1.92a.81.81 0 0 0 .43-.44h2a.76.76 0 0 0 .72.49.78.78 0 1 0-.72-1.07h-2a.82.82 0 0 0-.43-.43v-1.6h.69a.45.45 0 1 0 0-.58h-.69v-1a.8.8 0 0 0 .49-.72.78.78 0 1 0-1.56 0 .77.77 0 0 0 .49.72v1h-.69a.48.48 0 0 0-.34-.16.45.45 0 0 0 0 .9.48.48 0 0 0 .34-.16h.69v1.6a.81.81 0 0 0-.44.43h-1.81a.78.78 0 1 0-.72 1.07.76.76 0 0 0 .72-.49h1.81a.79.79 0 0 0 .44.44v1.92a.85.85 0 0 0-.33.26l-1-.3a.46.46 0 0 0-.42-.28.45.45 0 0 0 0 .89.41.41 0 0 0 .25-.08l1.06.31a.78.78 0 0 0 .48.65v2.09a.78.78 0 0 0 0 1.45v2.75c-.44.09-.76.31-.76.58a.47.47 0 0 0 .21.35 1.57 1.57 0 0 0 .26 2.63 9.06 9.06 0 0 1-1.76 5.44 12.3 12.3 0 0 0-2 2.62 8.74 8.74 0 0 0-1.68.87l-1.4.12-.08 1.05a10.69 10.69 0 0 0-.91 1l-1.4.36.21 1.42a9 9 0 0 0-.6 1.37l-.94.57.54.81c0 .16-.09.32-.12.5s-.07.66-.08 1l-.78.82.85.66c0 .4.11.79.19 1.15l-.79 1.22 1.25.61c0 .27 0 .53.06.79l-.42.71.69.46a8.78 8.78 0 0 0 .43 1.11c-.2.38-.41.81-.35.81s.54.14 1 .27c.13.19.26.37.4.55v.67c-.93.15-1.47.33-1.47.52s.54.37 1.47.52v9.6a24.48 24.48 0 0 0-7.83-4.66v-7.16h.31v-.57h-.31v-3h.31v-.56h-.31v-3.07h.31V207h-.31v-1.58h1.1v-1h.21V204h-.68v-.75a2.18 2.18 0 0 0 .54-.26c0-2.71-2-8.29-2.94-9a28.14 28.14 0 0 0-.92-3.17l-.55-.09v-1.67a8.61 8.61 0 0 0 .3-2.28c0-2.9-1.28-5.25-2.84-5.25a1.26 1.26 0 0 0-.28.05c-.52-1.28-1.34-2.13-2.28-2.13a2.31 2.31 0 0 0-1.82 1.25v-.09l-1.47-1.16v-5.2l.74-1.14h.73l-.43-.57s.2-3.15-.3-3.84a3.41 3.41 0 0 1-.55-1.59h-4.06a2.14 2.14 0 0 0-1.32-1.75c-.42-1.1-1.48-5.07-2.3-8.2l.44-.84v-1.21h.19v-.31h-.58a2.44 2.44 0 0 0 .05-.48c0-.84-.44-1.52-1-1.52v-3.62l.87-.73v-3.28l.95-.49v-.86h.27v-.27h-.27v-.14l-.56-.57a3 3 0 0 0 1.08-1.75 1.46 1.46 0 0 0 1-1.94 1.83 1.83 0 0 0 .27-2.88c.19-.89.13-1.86-1.13-2.24-.11-1.16-.57-1.46-1.38-1.46-.35-1.07-.86-1.37-1.75-1.29-.22-.54-.43-.62-.84-.57 0-.51-.24-.64-.45-.64 0-.65-.3-.73-.42-.81a25.44 25.44 0 0 1-.8-5.13 1.54 1.54 0 0 0 .19-2.58.49.49 0 0 0 .21-.35c0-.3-.39-.54-.9-.6v-2.74a.77.77 0 0 0 0-1.44v-2.09a.82.82 0 0 0 .32-.26l1.06.3a.45.45 0 0 0 .85-.18.44.44 0 0 0-.71-.36l-1-.3a.8.8 0 0 0-.48-.65V111a.76.76 0 0 0 .43-.43h2a.78.78 0 1 0 0-.58h-2a.76.76 0 0 0-.43-.43v-1.6h.69a.45.45 0 1 0 .33-.74.42.42 0 0 0-.33.16h-.69v-1a.78.78 0 1 0-.58 0v1h-.69a.42.42 0 0 0-.33-.16.45.45 0 1 0 .33.74h.69v1.6a.76.76 0 0 0-.43.43h-1.82a.76.76 0 0 0-.72-.49.78.78 0 0 0 0 1.56.76.76 0 0 0 .72-.49h1.82a.76.76 0 0 0 .43.43v1.93a.74.74 0 0 0-.32.26l-1.05-.3a.43.43 0 0 0-.41-.28.45.45 0 1 0 0 .89.41.41 0 0 0 .24-.08l1.06.3a.78.78 0 0 0 .48.66v2.09a.77.77 0 0 0 0 1.44v2.76c-.44.08-.76.31-.76.58a.47.47 0 0 0 .22.35 1.54 1.54 0 0 0-.61 1.23 1.52 1.52 0 0 0 .87 1.39 33.92 33.92 0 0 1-.48 5.25 1.76 1.76 0 0 0-1.12 1.4 7.35 7.35 0 0 0-4.78 5.23 6.8 6.8 0 0 0 2.83 6.82l-.53.54v.14h-.27v.27h.27v.86l.94.49v3.28l.87.73v3.64h-.13c-.55 0-1 .68-1 1.52a1.86 1.86 0 0 0 .06.48h-.59v.31h.19v1.21l.53 1c-.81 3.1-1.84 6.95-2.25 8a2.14 2.14 0 0 0-1.32 1.75h-4.16a3.41 3.41 0 0 1-.55 1.59c-.5.69-.31 3.84-.31 3.84l-.43.57h.74l.73 1.14v5.2l-1.47 1.16c-.67 0-1.23 1.59-1.41 3.76a.73.73 0 0 0-.53-.36c-.81 0-1.47 2.35-1.47 5.25a18.61 18.61 0 0 0 .11 2c0-.05-.09-.1-.15-.15a9.15 9.15 0 0 1-1.76-5.45 1.55 1.55 0 0 0 .26-2.62.49.49 0 0 0 .21-.35c0-.3-.39-.54-.9-.6v-2.74a.77.77 0 0 0 0-1.44v-2.09a.82.82 0 0 0 .32-.26l1.06.3a.44.44 0 0 0 .4.26.45.45 0 1 0 0-.89.48.48 0 0 0-.26.09l-1-.3a.8.8 0 0 0-.48-.65v-1.93a.76.76 0 0 0 .43-.43h2a.78.78 0 1 0 0-.58h-2a.76.76 0 0 0-.43-.43v-1.61h.69a.42.42 0 0 0 .33.16.45.45 0 1 0 0-.89.42.42 0 0 0-.33.16h-.69v-1a.76.76 0 0 0 .49-.72.78.78 0 1 0-1.07.73v1h-.69a.42.42 0 0 0-.33-.16.45.45 0 1 0 0 .89.42.42 0 0 0 .33-.16h.69V171a.76.76 0 0 0-.43.43H984a.76.76 0 0 0-.72-.49.78.78 0 1 0 0 1.56.76.76 0 0 0 .72-.49h1.82a.76.76 0 0 0 .43.43v1.93a.74.74 0 0 0-.32.26l-1-.3a.42.42 0 0 0-.41-.28.45.45 0 1 0 0 .89.41.41 0 0 0 .24-.08l1.06.3a.78.78 0 0 0 .48.66V178a.77.77 0 0 0 0 1.44v2.76c-.44.08-.76.31-.76.58a.47.47 0 0 0 .22.35 1.55 1.55 0 0 0 .26 2.62 9.1 9.1 0 0 1-1.77 5.45 12.3 12.3 0 0 0-2 2.62 8.53 8.53 0 0 0-1.67.87l-1.41.11-.08 1.05a12.51 12.51 0 0 0-.91 1l-1.39.36.2 1.42a11.36 11.36 0 0 0-.6 1.36l-.93.58.53.8c0 .17-.08.33-.11.51a7.93 7.93 0 0 0-.09 1l-.78.82.85.65a9.14 9.14 0 0 0 .2 1.15l-.8 1.22 1.25.62a6.65 6.65 0 0 0 .07.78l-.43.71.7.47a6.94 6.94 0 0 0 .42 1.1c-.2.39-.41.82-.34.82s.53.13 1 .27a8.67 8.67 0 0 0 1.58 1.74v2.25h-3.15a10 10 0 0 0 .14-1.8 7.48 7.48 0 0 0-3.75-6.75 9.44 9.44 0 0 0-1.1-1.83 7.92 7.92 0 0 1-1-3.95 1.13 1.13 0 0 0 .74-1.06 1.08 1.08 0 0 0-.46-.89.37.37 0 0 0 .17-.27c0-.22-.29-.4-.66-.44v-2a.56.56 0 0 0 .36-.53.58.58 0 0 0-.36-.53v-1.53a.63.63 0 0 0 .24-.19l.8.23a.3.3 0 0 0 .27.18.32.32 0 0 0 .32-.32.32.32 0 0 0-.32-.33.36.36 0 0 0-.18.07l-.78-.22a.58.58 0 0 0-.35-.48v-1.41a.62.62 0 0 0 .32-.32h1.43a.58.58 0 1 0 0-.43h-1.43a.57.57 0 0 0-.32-.31v-1.18h.51a.31.31 0 0 0 .24.12.33.33 0 1 0 0-.66.31.31 0 0 0-.24.12h-.51v-.75a.58.58 0 0 0 .36-.53.58.58 0 1 0-.78.53v.75h-.52a.31.31 0 0 0-.24-.12.33.33 0 0 0 0 .66.31.31 0 0 0 .24-.12h.5v1.18a.54.54 0 0 0-.32.31h-1.38a.58.58 0 0 0-.53-.36.58.58 0 0 0 0 1.15.58.58 0 0 0 .53-.36h1.33a.59.59 0 0 0 .32.32v1.41a.57.57 0 0 0-.24.19l-.8-.23a.3.3 0 0 0-.27-.2.33.33 0 0 0 0 .66.33.33 0 0 0 .16-.07l.79.23a.57.57 0 0 0 .36.48v1.53a.57.57 0 0 0-.37.53.55.55 0 0 0 .37.53v2c-.33.07-.56.23-.56.43a.37.37 0 0 0 .17.27 1.11 1.11 0 0 0-.46.89 1.13 1.13 0 0 0 .74 1.06 7.92 7.92 0 0 1-1 3.95 9.26 9.26 0 0 0-1 1.65 22.23 22.23 0 0 1-1.24-2.6 8.23 8.23 0 0 0-1.55-2.47v-17.44a1.08 1.08 0 0 0 .33-.1c.75-.61 1.76-3.24 1.32-5.9-1.42-6.51-8-8.4-8-8.4a13 13 0 0 0-2.5-2.74 8.74 8.74 0 0 1-2.18-6.85 1.55 1.55 0 0 0 .66-1.27 1.53 1.53 0 0 0-.61-1.23.49.49 0 0 0 .21-.35c0-.3-.39-.54-.9-.6v-2.74a.77.77 0 0 0 0-1.44v-2.09a.82.82 0 0 0 .32-.26l1.06.3a.44.44 0 0 0 .4.26.45.45 0 1 0-.26-.8l-1-.3a.8.8 0 0 0-.48-.65v-1.93a.76.76 0 0 0 .43-.43h2a.78.78 0 1 0 0-.58h-2a.76.76 0 0 0-.43-.43v-1.61h.58a.42.42 0 0 0 .33.16.45.45 0 1 0 0-.89.42.42 0 0 0-.33.16h-.69v-1a.76.76 0 0 0 .49-.72.78.78 0 1 0-1.56 0 .76.76 0 0 0 .49.72v1h-.69a.42.42 0 0 0-.33-.16.45.45 0 1 0 0 .89.42.42 0 0 0 .33-.16h.69v1.61a.76.76 0 0 0-.43.43h-1.82a.76.76 0 0 0-.72-.49.78.78 0 1 0 0 1.56.76.76 0 0 0 .72-.49h1.82a.76.76 0 0 0 .43.43v1.93a.74.74 0 0 0-.32.26l-1-.3a.43.43 0 0 0-.41-.28.45.45 0 1 0 0 .89.49.49 0 0 0 .24-.08l1.06.3a.76.76 0 0 0 .48.65v2.1a.77.77 0 0 0 0 1.44v2.76c-.44.08-.76.31-.76.58a.47.47 0 0 0 .22.35 1.53 1.53 0 0 0-.61 1.23 1.56 1.56 0 0 0 .65 1.27 8.7 8.7 0 0 1-2.18 6.85 13.39 13.39 0 0 0-2.5 2.74s-6.61 1.89-8 8.4c-.45 2.66.56 5.29 1.32 5.9v17a.68.68 0 0 0-.43.63l-1.38.69-.59 3.24H938l-.64 2.12a8.71 8.71 0 0 1-1.94 0c-.46 1.81-1 9.83-1 9.83l-.25.74.45.93c0 .4.39.86.76 1.19v11.1h-1.65v5.17h-.83v2.11h-1.08v5.9h-.57v3.53l-1.21.31-.44 3.49h-.49l-.64 1v.54H928l-.59.89.83.1-.83 1.22.73.1.74 1.18V259l1.71 3.38v1.49h-11.4v-1.07l1.22-.57v-.63h.52v-.93h-1.74v-2.19l1-.45v-.51h-1V255l2.56-1.82v-.71h.76V251h1.23v-1.37h-.89l-4.43-6.09c.34-.19.77-.52.74-1a12.81 12.81 0 0 1-.31-2.27 2.59 2.59 0 0 1 .5-.51s.29-.31-.22-.59.08-1.72 0-2.25-.2-.85-.22-.93.93-1.21.25-1.83-1.8-.31-1.55.7.28 1.24.28 1.24-1-.53-1.23 1.35c-.14 1.3-.08 2.61-.12 3.42l-1.23-1.7h-3.21v-1.75h.64v-1.09h-.64v-.29l-1-.7a2.6 2.6 0 0 1 .2-1 1.46 1.46 0 0 0-.25-1.55 10.1 10.1 0 0 1-1-1.46 1.93 1.93 0 0 0 .65-.9c.2-.59-.87-.59-.87-.59a1.62 1.62 0 0 1 .17-.79c.19-.37 1-.51.45-1.35s-1.24.39-1.24.39a1 1 0 0 0-.67.43 7.11 7.11 0 0 0-.53 1.65h-1.42v-1.49h-2.29l5.16-4.16v-1h1.21v-1.41h-4.08v-1h-.93v-.88h-.92v-1.18h-12.53v1.18h-.85v.88h-.87v1h-25.9v-2h-.84v-.86h-.61v-17h.61v-.57h.84v-4.83h-.51v-.78h1.15v-.85h-.47v-.85h-.68v-.85h-3.26v-3h.52v-1.06h-2.07a6.82 6.82 0 0 0-5.27-4.41v-1h-.55v-3.15h.46v-1h-.36a1.46 1.46 0 0 0-1.26-1.25v-.88a.54.54 0 0 0 0-.94l-.31-5.87-.31 5.87a.54.54 0 0 0-.05.94v.88a1.46 1.46 0 0 0-1.26 1.25H850v1h.46v3.29h-.55v1.06a6.74 6.74 0 0 0-4.86 4.31h-2.07v1.06h.53v3h-3.27v.85h-.68v.85H839v.85h1.15v.78h-.5v4.83h.83v.57h.61v17h-.61v.86h-.83v2.74H831v-6.22c1.81-.41 2.93-1 2.93-1.57s-1.71-1.42-4.34-1.85v-28.47h.21v-.55h-.57v-2.63h.91v-2.5c.61-.14 1-.3 1-.48a.27.27 0 0 0-.12-.18c1.29-.26 2.1-.65 2.1-1.08 0-.76-2.56-1.38-5.78-1.42v-5c.68-.09 1.1-.21 1.1-.33 0-.3-2.33-.54-5.21-.54-.88 0-1.69 0-2.42.06V162h.78a1 1 0 1 0 0-1.93.79.79 0 0 0 0-.13 1.1 1.1 0 0 0-1.1-1.1h-.08v-2.15h.16V156H820v-.34a26 26 0 0 0-17.72-24.78v-.53h-.75v-1.17h-.37v-.27l-.58-.47v-.48H800v-1h-.29v-7.26h.35v-.7h.55v-3.67h-.55v-.63h-.35a5.18 5.18 0 0 0-4.38-5.11v-1.38a1.19 1.19 0 0 0 .4-.9 1.21 1.21 0 0 0-.89-1.16l-.36-7.93-.33 7.93a1.23 1.23 0 0 0-.88 1.16 1.19 1.19 0 0 0 .41.9v1.38a5.18 5.18 0 0 0-4.38 5.11h-.3v.63h-.55V119h.55v.7h.35v7.3H789v1h-.53v.48l-.58.47v.27h-.37v1.17h-.76v.53a26 26 0 0 0-17.71 24.78v.34h-1v.66h.16v2.15h-.09a1.09 1.09 0 0 0-1.09 1.1v.13a1 1 0 0 0 0 1.93h1.19v8.26c-.73 0-1.55-.06-2.43-.06-2.87 0-5.2.24-5.2.54 0 .12.42.24 1.1.33v5c-3.22 0-5.79.66-5.79 1.42 0 .43.82.82 2.11 1.08a.27.27 0 0 0-.12.18c0 .18.38.34 1 .48v2.5h.91v2.63h-.57v.55h.21v28.43c-2.64.43-4.34 1.1-4.34 1.85s1.12 1.16 2.93 1.57v6.22h-4.19v-2.74h-.83v-.86h-.62v-17h.62v-.57h.83v-4.83h-.51v-.78h1.15v-.85h-.47v-.85h-.68v-.85h-3.26v-3h.52v-1.06h-2.06a6.75 6.75 0 0 0-4.87-4.31v-1.06h-.54v-3.33h.45v-1h-.36a1.46 1.46 0 0 0-1.25-1.25v-.88a.56.56 0 0 0 .25-.46.55.55 0 0 0-.3-.48l-.31-5.87-.3 5.87a.53.53 0 0 0 0 .94v.88a1.44 1.44 0 0 0-1.25 1.25h-.37v1h.32v3.29h-.54v1a6.84 6.84 0 0 0-5.28 4.41h-2.07v1.06h.53v3h-3.26v.85h-.68v.85h-.48v.85h1.16v.78h-.51v4.83h.83v.57h.62v17h-.62v.86h-.83v2H703v-1h-.87v-.88h-.84v-1.18H688.8v1.18h-.93v.88h-.93v1h-4.08v1.41h1.21v1l5.16 4.16h-2.29v1.49h-1.42a6.71 6.71 0 0 0-.52-1.65 1 1 0 0 0-.68-.43s-.7-1.23-1.23-.39.25 1 .44 1.35a1.62 1.62 0 0 1 .17.79s-1.07 0-.87.59a1.93 1.93 0 0 0 .65.9 9.83 9.83 0 0 1-1 1.46 1.44 1.44 0 0 0-.26 1.55 2.6 2.6 0 0 1 .2 1l-1 .7v.29h-.65v1.09h.65v1.75h-3.21l-1.24 1.7c0-.81 0-2.12-.11-3.42-.2-1.88-1.24-1.35-1.24-1.35s0-.22.28-1.24-.87-1.32-1.55-.7.28 1.75.26 1.83a8.1 8.1 0 0 0-.23.93c-.11.53.48 2 0 2.25s-.22.59-.22.59a2.59 2.59 0 0 1 .5.51 11.92 11.92 0 0 1-.31 2.27c0 .44.41.77.74 1l-4.43 6.09h-.89V251H671v1.4h.76v.71l2.56 1.82v2.57h-1v.5l1 .45v2.19h-1.75v.93h.52v.63l1.23.57v1.06H460.15l-2.85-9.53c-3-.19-19.4-2.67-41.21-6.11s.57-3.25 1-10.54h-8v-.89h8.08c0-.67.08-1.38.12-2.11h-8.2v-.89h8.24c0-.68.06-1.39.09-2.11h-8.33v-.89h8.36c0-.68.05-1.39.07-2.11h-8.43v-.89h8.46c0-.69 0-1.39.05-2.11h-8.51v-.89h8.52v-2.11h-8.56v-.89h8.57v-2.11h-8.58v-.89h8.59v-2.11h-8.59v-.89h8.59v-2.11h-8.58v-.89h8.57v-2.11h-8.55v-.89h8.53v-2.11h-8.5v-.89h8.48c0-.7 0-1.4-.05-2.11h-8.43v-.89h8.41l-.06-2.11h-8.35v-.89h8.32l-.06-2.11h-8.26v-.89h8.22c0-.7-.05-1.4-.07-2.11h-8.15v-.89h8.11c0-.69-.06-1.41-.09-2.11h-8v-.89h8l-.09-2.11h-7.89v-.89h7.84c0-.71-.06-1.4-.1-2.11h-7.74v-.89h7.69c0-.7-.07-1.4-.11-2.11h-7.58v-.89h7.53c0-.69-.08-1.41-.12-2.11h-7.41v-.89h7.35c0-.7-.08-1.4-.13-2.11h-7.22v-.89h7.17c-.05-.7-.09-1.4-.14-2.11h-7v-.89h7c-.05-.7-.09-1.4-.14-2.11h-6.83v-.89h6.76c0-.7-.1-1.41-.15-2.11h-6.61v-.89h6.55c-2.3-31.1-6.92-72.51-15.68-126.44a.9.9 0 0 0-1.78 0c-3.63 20.85-16.7 102.61-16.7 201.37-50.73-8.17-108.07-17.63-108.07-17.63-2.58-1 14.86 36.54 15.91 38.79H263a5.41 5.41 0 0 0-.5-.35c-1-.75-1.22-.51-1.73-2.2s-3.71-20.47-3.19-26.66a12.22 12.22 0 0 0-1.92-.4V215c.31 0 .94.23 2.27 1.48a11.72 11.72 0 0 0 5.45 2.67l.4-3.16a4.39 4.39 0 0 1-3.95-2.39 6 6 0 0 0-4.17-2.85v-1.31a.43.43 0 0 0 .19-.35.45.45 0 0 0-.45-.45.45.45 0 0 0-.45.45.44.44 0 0 0 .18.35v24.76a42.91 42.91 0 0 0-6.15.45c-2.15.18-10.17 1.06-18.22 2l-.81-2.39-.45-1 1.73-.5-.06-.21 12.64-4-.18-.63-12.81 3.39v-.08l-1.92.55c-.12-.3-.23-.56-.3-.72-.27-.69-2.84-.59-2.84-.59a23 23 0 0 0-3.49-.2c-.17-.68-.83-1-2.37-1.12v-.09a3 3 0 0 0-1.88-2.9 1 1 0 0 0-.46-.79l-.4-7-.38 7a1.08 1.08 0 0 0-.48.81 3 3 0 0 0-1.88 2.9v.08h-.14a1.29 1.29 0 0 0-1.34 1.23h-1.26a1.51 1.51 0 0 0-1.13.59 10.63 10.63 0 0 0 0 2.7c-4.21.44-4.52 1.5-4.52 1.5v1a2.81 2.81 0 0 0-1.78 1.06l.92-.2v1l-.75.51.11 1.41c-3.52.52-5.95.92-5.95.92l.09-3.57-9.53-.52.1-7.23A13.83 13.83 0 0 0 186 229l-.14-2.16h-.52l.14-3.61a11.51 11.51 0 0 0-4.78-.66 10.62 10.62 0 0 0-3 .43l-.18.05V207l16.83 3.76.16-.69-17-3.79v-2.09h2.5v-.63h-.23V199h.23v-.62h-2.5v-3.27h-1.88v-21.6l12.58 3.35.17-.61-12.75-3.4v-17.39h-.79v17.18l-11.79-3.14-.16.61 11.95 3.18v25.11h-2.63v.6h.26v4.49h-.26v.63h2.63v1.49l-3.14-.7v-.51c.22-.06.38-.15.38-.26s-.41-.33-.92-.33h-.08v-.66h-5.43v.41l-8.54-1.91-.15.69 7.8 1.75s.11.18.29.24v26.27l-.25.08-.51 7.42-1.78 2.26V233a3.35 3.35 0 0 0 1-2.47c0-1.63-.95-2.95-2.12-2.95s-2.12 1.32-2.12 2.95v12.7h-.38v-31.76c.23-.06.38-.15.38-.26s-.41-.33-.91-.33h-.09v-.65h-5.42v.65c-.5 0-.91.15-.91.33s.12.18.3.25v32a4.06 4.06 0 0 0-1.73 1.06v-7.35a3.25 3.25 0 0 0 .93-2.39c0-1.58-.93-2.87-2.06-2.87a1.72 1.72 0 0 0-1.19.53v-15.5c.22-.06.38-.16.38-.27s-.41-.33-.92-.33h-.08v-.66h-5.42v.65c-.5 0-.91.15-.91.33s.12.19.3.25v32.24l-2.09.21v-10a3.25 3.25 0 0 0 .93-2.39c0-1.58-.93-2.87-2.06-2.87s-2.06 1.29-2.06 2.87v12.67l-3 .31v-1.35h-.42a2.35 2.35 0 0 0 .19-1 2.51 2.51 0 0 0-2.51-2.52h-.58v-3.4h-.81v-13.8l11.46 2.56.11-.47-11.57-2.58V226h1.7v-.43h-.15v-3h.15v-.43h-1.7v-2.23h-1.27v-14.8l8.56 2.29.11-.42-8.67-2.31v-11.85h-.54v11.7l-8-2.14-.11.42 8.14 2.17v17.09h-1.79v.43h.17v3h-.17v.51h1.79v1l-12.08-2.7-.1.47 12.18 2.72v15.76H124v1.93h3a2.51 2.51 0 0 0-2.38 1.74H121v2.52h.3v1.78l-.68.07a1.28 1.28 0 0 0 .06-.33 1.23 1.23 0 0 0-1.24-1.24h-1.76a1.23 1.23 0 0 0-1.24 1.24 1.22 1.22 0 0 0 .26.72l-1 .11-.24 3-2.46.21s.52 5.44.56 6.76a17.44 17.44 0 0 0 .25 2.13H.36v88.07h1922v-71.3h.05v-40.98l.37-.32v-.65h.38v-.46h-.75V233l.26-.27v-1h-.26v-2l.37-.31V229h.38v-1.27h-.34v-.29zM1319.39 182a1.87 1.87 0 0 1 1.83.09l-2.29 2.14-.07-.09a1.39 1.39 0 0 1 .53-2.14zm-17.61 39.55a4.41 4.41 0 0 1 1.65 1.94c-.57.16-1.13.34-1.68.51a7.71 7.71 0 0 0-.9-1.45c-.66-.78-1.69-2.14-1.69-2.14a24.75 24.75 0 0 1 2.62 1.12zm-11.26 6.77c-.62-1.4-5.25-.94-5.25-.94a22.37 22.37 0 0 0 1.58-3.91c.78-2.51 1.37-2.95 1.63-6.22s.24-5.77 1.1-7.36a9.52 9.52 0 0 1 2-2.56s0 .85 1.75 3.49 3.54 2.73 4.06 2.76 1 .74.85 1.52-1.37 2.41-1.53 2.25-.48 0-1.09.94.15 1.21 1.14 2c.75.66 2 3.29 2.55 4.48-3.2 1.12-6.16 2.34-8.77 3.52-.03.02-.02.02-.02.01zM171.78 205.66l3.14.7v17.55l-1 .32-.28 3.61-1.86.62zm1692 19.83l.61-.21v4.13l-.61.2zm-1.16.39l.58-.2v4.12l-.58.18zm-1.17.41l.58-.2v4.08l-.58.18zm-1.17.4l.58-.2v4l-.58.19zm-1.17.37l.58-.18v4l-.58.16zm-1.16.36l.58-.18v4l-.58.17zm-.57 18.43c.52-4.48 4.56-5.47 5.22-1.12v19.13h-5.22v-18zm-.61-18.06l.6-.19v4l-.6.18zm-1.16.35l.58-.18v3.93l-.58.18zm-3.16.9c.21 0 .4-.11.59-.17v3.88l-.59.14zm-1.17.32c.21-.05.4-.11.59-.17V233l-.59.15zm-1.16.31l.58-.16v3.82l-.58.15zm-1.17.31c.2 0 .39-.09.58-.15v3.8l-.58.14zm-1.17.27l.58-.13v3.78l-.58.12zm-1.17.28l.59-.14v3.76l-.59.13zm-.57 17.33c.53-4.19 4.57-5 5.23-.85v16.85H1846v-16zm-.6-17.06l.6-.13v3.74l-.6.12zm-1.15.29l.57-.14v3.71a5.78 5.78 0 0 1-.57.12zm-3.17.65l.59-.12v3.66l-.59.11zm-1.17.23l.59-.12v3.64c-.19 0-.38.08-.59.12zm-1.16.24l.58-.12v3.63c-.19 0-.38.06-.58.11zm-1.16.2l.57-.1v3.61l-.57.1zm-1.17.19l.57-.09v3.6l-.57.09zm-1.17.21l.59-.11v3.59c-.2 0-.39.06-.59.09zm-.57 16.52c.52-4 4.56-4.53 5.22-.61v15.14h-5.22v-14.53zm-.6-16.33l.59-.1v3.57l-.59.08zm-1.16.19l.58-.09v3.55l-.58.09zm-3.17.44l.6-.08v3.52l-.6.07zm-1.16.16l.59-.08v3.51l-.59.07zm-1.16.16l.57-.08v3.5l-.57.07zm-1.17.14l.58-.06v3.48l-.58.06zm-1.17.13l.58-.06v3.47l-.58.06zm-1.18.12l.59-.06v3.47l-.59.05zm4.66 15.57v14h-5.22v-13.59c.48-3.84 4.51-4.21 5.17-.41zm-5.82-15.43l.59-.07v3.46c-.2 0-.39 0-.59.06zm-1.17.12l.59-.06V238a5.61 5.61 0 0 1-.59.06zm-3.16.29h.58v3.42h-.58zm-1.17.1l.59-.05v3.42h-.59zm-1.16.1l.59-.05v3.41h-.59zm-1.17.09h.59v3.4h-.59zm-1.16.1h.58v3.39h-.58zm-1.17.07h.58v3.38h-.58zm4.65 15.35v13.16H1812V251c.54-3.78 4.56-4 5.23-.3zm-5.82-15.27h.58v3.38h-.58zm-1.17.07h.59v3.38h-.59zm-3.16.2h.59v3.3h-.59zm-1.17.05h.6v3.35h-.6zm-1.17.06h.6v3.35h-.6zm-1.15.05h.58v3.35h-.58zm-1.17.06h.57v3.34h-.57zm-1.17.05h.58v3.34h-.58zm4.66 15.23v12.66h-5.23v-12.5c.48-3.68 4.51-3.84 5.18-.16zm-5.88-15.2h.59v3.33h-.59zm-1.17 0h.59v3.33h-.59zm-3.16.1h.59v3.33h-.59zm-1.16 0h.58v3.33h-.58zm-1.17 0h.59v3.32h-.59zm-1.17 0h.59v3.32h-.59zm-1.16 0h.58v3.31h-.58zm-1.17 0h.58v3.32h-.58zm4.66 15.17v12.37h-5.23v-12.06c.53-3.65 4.56-3.75 5.23-.09zm-5.83-15.14h.58v3.32h-.58zm-1.2 0h.61v3.31h-.61zm-3.21 15.28v12.21h-5.22v-11.93c.53-3.63 4.55-3.69 5.22-.04zm-80.36 0v12.17h-5.22v-11.93c.67-3.65 4.69-3.59 5.24.04zm-9-15.33h.62v3.31h-.62zm-1.16 0h.58v3.31h-.58zm-1.17 0h.58v3.31h-.58zm-1.17 0h.58v3.32h-.58zm-1.17 0h.59v3.32h-.59zm-1.17 0h.59v3.31h-.59zm4.66 15.36v12.28h-5.22v-12.23c.62-3.66 4.64-3.56 5.17.09zm-5.82-15.4h.58v3.32h-.58zm-1.16 0h.57v3.33h-.57zm-3.17-.09h.59v3.33h-.59zm-1.17-.05h.59v3.34h-.59zm-1.16-.06h.58v3.34h-.58zm-1.17-.05h.58v3.34h-.58zm-1.17-.06h.58v3.35h-.58zm-1.17-.05h.59v3.35h-.59zm4.66 15.58v12.5h-5.23V251.2c.63-3.68 4.65-3.52 5.18.16zm-5.83-15.63h.59v3.36h-.59zm-1.15-.06h.58v3.36h-.58zm-3.17-.21h.59v3.38h-.59zm-1.17-.07h.59v3.37h-.59zm-1.16-.07h.58v3.39h-.58zm-1.17-.08h.58v3.39h-.58zm-1.16-.1h.57v3.4h-.57zm-1.18-.1l.59.05v3.4h-.59zm4.66 15.92v12.9h-5.22V250.7c.61-3.7 4.64-3.48 5.17.3zm-5.83-16l.6.05v3.41h-.6zm-1.15-.09h.58v3.42h-.58zm-3.17-.31l.59.06V238a5.9 5.9 0 0 1-.59-.06zm-1.17-.13l.59.07v3.45c-.2 0-.39-.05-.59-.06zm-1.15-.13l.57.06v3.46l-.57-.05zm-1.18-.12l.58.06v3.47l-.58-.06zm-1.17-.13l.59.06v3.48l-.59-.06zm-1.16-.16l.58.08v3.49l-.58-.07zm-.57 16c.67-3.8 4.69-3.43 5.22.41v13.54h-5.22v-14zm-.6-16.2l.59.08v3.5l-.59-.07zm-1.17-.16l.59.08v3.51l-.59-.07zm-3.16-.45l.58.09v3.55l-.58-.09zm-1.17-.2l.59.1v3.55l-.59-.08zm-1.17-.2l.59.11v3.57c-.2 0-.39-.07-.59-.09zm-1.15-.19l.57.09v3.6l-.57-.09zm-1.17-.2l.58.1V236l-.58-.1zm-1.17-.22l.58.12v3.62c-.2-.05-.39-.08-.58-.11zm-.57 16.63c.66-3.92 4.69-3.38 5.22.61v14.53h-5.22v-15.02zm-.6-16.87l.59.12v3.64c-.21 0-.4-.07-.59-.12zm-1.17-.23l.59.12v3.65l-.59-.11zm-3.16-.67l.58.14v3.69l-.58-.12zm-1.17-.28l.59.13v3.73l-.59-.12zm-1.16-.28l.58.14v3.75l-.58-.13zm-1.16-.27l.58.13V234l-.58-.12zm-1.17-.29c.19.06.38.1.58.15v3.79l-.58-.14zm-1.17-.32l.58.16v3.81l-.58-.15zm-.57 17.5c.66-4.11 4.7-3.34 5.22.85v16h-5.22V247zm-.6-17.82c.19.06.38.12.59.17v3.83l-.59-.15zm-1.17-.32l.59.17v3.85l-.59-.14zM1627 228l.57.18v3.93l-.57-.18zm-1.17-.36l.59.19v4l-.59-.18zm-1.17-.36l.59.18v4l-.59-.17zm-1.16-.36l.57.18v4l-.57-.16zm-1.17-.39l.58.2v4l-.58-.19zm-1.17-.4l.58.2v4.06l-.58-.18zm-1.17-.41l.58.2V230l-.58-.18zm-1.19-.4l.61.21v4.12l-.61-.2zm1.79 35.6v-16.19c.66-4.35 4.7-3.36 5.22 1.12v18h-5.22zM737.1 220.17v-13.31a4.29 4.29 0 0 1 8.49 0v13.31h-.34v2.74h-7.7v-2.74zm110.8 0v-13.31a4.29 4.29 0 0 1 8.5 0v13.31h-.4v2.74h-7.71v-2.74zm13.4-.86h-.62v.86h-.83v-.86h-.62v-17h.62v-.57h.83v.57h.62zm-18.41-17h.62v-.57h.83v.57h.66v17h-.62v.86h-.83v-.86h-.62zm-19.22 10.49v-27.31h.89v27.33zm-58.32-27.31v27.31h-.89v-27.31zM827.06 213v-27.51h.94v27.57zm-27.85-86h-.38v-7.3h.38zm-9.39-7.29h.38V127h-.38zm-28.77 65.79h.95V213l-.91.09zm-10.45 33.81h-.6v.86h-.83v-.86h-.62v-17h.62v-.57h.83v.57h.62zm-18.41-17h.62v-.57h.83v.57h.62v17h-.62v.86h-.83v-.86h-.62z" fill="url(#x)"/>
</svg>
