<svg xmlns="http://www.w3.org/2000/svg" xmlns:xlink="http://www.w3.org/1999/xlink" width="120" height="120" viewBox="0 0 120 120">
  <defs>
    <linearGradient id="linear-gradient" x1="7.03" y1="112.97" x2="112.97" y2="7.03" gradientUnits="userSpaceOnUse">
      <stop offset="0" stop-color="#30409a"/>
      <stop offset="1" stop-color="#662e91"/>
    </linearGradient>
    <linearGradient id="linear-gradient-2" x1="35.83" y1="84.17" x2="84.17" y2="35.83" xlink:href="#linear-gradient"/>
    <linearGradient id="linear-gradient-3" x1="27.88" y1="48.31" x2="92.12" y2="71.69" xlink:href="#linear-gradient"/>
    <linearGradient id="linear-gradient-4" x1="71.69" y1="92.12" x2="48.31" y2="27.88" xlink:href="#linear-gradient"/>
    <linearGradient id="linear-gradient-5" x1="73" y1="71" x2="85" y2="71" gradientUnits="userSpaceOnUse">
      <stop offset="0" stop-color="#373e99"/>
      <stop offset="1" stop-color="#662e91"/>
    </linearGradient>
    <linearGradient id="linear-gradient-6" x1="36" y1="48" x2="48" y2="48" xlink:href="#linear-gradient-5"/>
    <linearGradient id="linear-gradient-7" x1="54" y1="60" x2="66" y2="60" xlink:href="#linear-gradient-5"/>
  </defs>
  <title>investors_direction_biotechnology</title>
  <g id="Layer_1" data-name="Layer 1">
    <g>
      <path d="M112,120H24A24,24,0,0,1,0,96V8A8,8,0,0,1,8,0H96a24,24,0,0,1,24,24v88A8,8,0,0,1,112,120Z" fill="#fff"/>
      <path d="M96,2a22,22,0,0,1,22,22v88a6,6,0,0,1-6,6H24A22,22,0,0,1,2,96V8A6,6,0,0,1,8,2H96m0-2H8A8,8,0,0,0,0,8V96a24,24,0,0,0,24,24h88a8,8,0,0,0,8-8V24A24,24,0,0,0,96,0Z" fill="url(#linear-gradient)"/>
    </g>
    <path d="M60,19c4,0,8.2,4.06,11.41,11.13C75,38.06,77,48.67,77,60s-2,21.94-5.59,29.87C68.2,96.94,64,101,60,101s-8.2-4.06-11.41-11.13C45,81.94,43,71.33,43,60s2-21.94,5.59-29.87C51.8,23.06,56,19,60,19m0-3C49,16,40,35.7,40,60s9,44,20,44S80,84.3,80,60s-9-44-20-44Z" fill="url(#linear-gradient-2)"/>
    <path d="M82.66,39h0c7.54,0,12.83,2.06,14.5,5.64s-.21,9.15-5.26,15c-5.67,6.61-14.44,12.9-24.72,17.69C56.73,82.28,46.13,85,37.34,85c-7.54,0-12.83-2.06-14.5-5.64s.21-9.15,5.26-15c5.67-6.61,14.44-12.9,24.72-17.69C63.27,41.72,73.87,39,82.66,39m0-3c-8.82,0-19.92,2.62-31.11,7.84-22,10.27-36.1,26.71-31.43,36.73C22.42,85.52,28.81,88,37.34,88c8.82,0,19.92-2.62,31.11-7.84,22-10.27,36.1-26.71,31.43-36.73C97.58,38.48,91.19,36,82.66,36Z" fill="#fff"/>
    <path d="M82.66,37h0c7.54,0,12.83,2.06,14.5,5.64s-.21,9.15-5.26,15c-5.67,6.61-14.44,12.9-24.72,17.69C56.73,80.28,46.13,83,37.34,83c-7.54,0-12.83-2.06-14.5-5.64s.21-9.15,5.26-15c5.67-6.61,14.44-12.9,24.72-17.69C63.27,39.72,73.87,37,82.66,37m0-3c-8.82,0-19.92,2.62-31.11,7.84-22,10.27-36.1,26.71-31.43,36.73C22.42,83.52,28.81,86,37.34,86c8.82,0,19.92-2.62,31.11-7.84,22-10.27,36.1-26.71,31.43-36.73C97.58,36.48,91.19,34,82.66,34Z" fill="url(#linear-gradient-3)"/>
    <path d="M20.12,45.4c4.67-10,26.31-9.8,48.33.47s36.1,26.71,31.43,36.73" fill="none" stroke="#fff" stroke-width="2"/>
    <path d="M37.34,34v3h0c8.79,0,19.39,2.69,29.84,7.56,10.28,4.79,19,11.08,24.72,17.69,5,5.9,7,11.39,5.26,15S90.2,83,82.66,83c-8.79,0-19.39-2.69-29.84-7.56-10.28-4.79-19-11.08-24.72-17.69-5.05-5.9-7-11.39-5.26-15S29.8,37,37.34,37V34m0,0c-8.52,0-14.92,2.45-17.22,7.37-4.67,10,9.4,26.46,31.43,36.73C62.75,83.35,73.84,86,82.66,86c8.52,0,14.92-2.45,17.22-7.37,4.67-10-9.4-26.46-31.43-36.73C57.25,36.65,46.16,34,37.34,34Z" fill="url(#linear-gradient-4)"/>
    <circle cx="79" cy="71" r="6" fill="url(#linear-gradient-5)"/>
    <circle cx="42" cy="48" r="6" fill="url(#linear-gradient-6)"/>
    <circle cx="60" cy="60" r="6" fill="url(#linear-gradient-7)"/>
  </g>
</svg>
