<svg xmlns="http://www.w3.org/2000/svg" xmlns:xlink="http://www.w3.org/1999/xlink" width="122" height="122" viewBox="0 0 122 122"><defs><path id="f6boa" d="M912 1203h-88c-13.255 0-24-10.745-24-24v-88a8 8 0 0 1 8-8h88c13.255 0 24 10.745 24 24v88a8 8 0 0 1-8 8z"/><path id="f6bob" d="M820 1108a4 4 0 0 1 4-4h72a4 4 0 0 1 4 4v56a4 4 0 0 1-4 4h-72a4 4 0 0 1-4-4z"/><path id="f6boc" d="M827 1112a2 2 0 0 1 2-2h62a2 2 0 0 1 2 2v33a2 2 0 0 1-2 2h-62a2 2 0 0 1-2-2z"/><path id="f6boe" d="M833.5 1156a5.5 5.5 0 1 1 11 0 5.5 5.5 0 0 1-11 0z"/><path id="f6bof" d="M852.5 1153.5h11"/><path id="f6bog" d="M852.5 1159.5h11"/><path id="f6boh" d="M866.5 1153.5h11"/><path id="f6boi" d="M866.5 1159.5h11"/><path id="f6boj" d="M880.5 1153.5h11"/><path id="f6bok" d="M880.5 1159.5h11"/><path id="f6bol" d="M836 1128.5h10l5-9 8 16 8-12 5 5h12"/><path id="f6bom" d="M846 1181.5h28"/><path id="f6bon" d="M853 1181.5v-13"/><path id="f6boo" d="M867 1181.5v-13"/><linearGradient id="f6bod" x1="827" x2="893" y1="1128.5" y2="1128.5" gradientUnits="userSpaceOnUse"><stop offset="0" stop-color="#373e99"/><stop offset="1" stop-color="#662e91"/></linearGradient></defs><g><g transform="translate(-799 -1082)"><g><use fill="#fff" xlink:href="#f6boa"/><use fill="#fff" fill-opacity="0" stroke="#000" stroke-miterlimit="50" stroke-width="2" xlink:href="#f6boa"/></g><g><use fill="#fff" xlink:href="#f6bob"/><use fill="#fff" fill-opacity="0" stroke="#000" stroke-miterlimit="50" stroke-width="3" xlink:href="#f6bob"/></g><g><use fill="url(#f6bod)" xlink:href="#f6boc"/></g><g><use fill="#fff" xlink:href="#f6boe"/><use fill="#fff" fill-opacity="0" stroke="#000" stroke-miterlimit="50" stroke-width="3" xlink:href="#f6boe"/></g><g><use fill="#fff" fill-opacity="0" stroke="#000" stroke-miterlimit="50" stroke-width="3" xlink:href="#f6bof"/></g><g><use fill="#fff" fill-opacity="0" stroke="#000" stroke-miterlimit="50" stroke-width="3" xlink:href="#f6bog"/></g><g><use fill="#fff" fill-opacity="0" stroke="#000" stroke-miterlimit="50" stroke-width="3" xlink:href="#f6boh"/></g><g><use fill="#fff" fill-opacity="0" stroke="#000" stroke-miterlimit="50" stroke-width="3" xlink:href="#f6boi"/></g><g><use fill="#fff" fill-opacity="0" stroke="#000" stroke-miterlimit="50" stroke-width="3" xlink:href="#f6boj"/></g><g><use fill="#fff" fill-opacity="0" stroke="#000" stroke-miterlimit="50" stroke-width="3" xlink:href="#f6bok"/></g><g><use fill="#fff" fill-opacity="0" stroke="#fff" stroke-miterlimit="50" stroke-width="3" xlink:href="#f6bol"/></g><g><use fill="#fff" xlink:href="#f6bom"/><use fill="#fff" fill-opacity="0" stroke="#000" stroke-miterlimit="50" stroke-width="3" xlink:href="#f6bom"/></g><g><use fill="#fff" fill-opacity="0" stroke="#000" stroke-miterlimit="50" stroke-width="3" xlink:href="#f6bon"/></g><g><use fill="#fff" fill-opacity="0" stroke="#000" stroke-miterlimit="50" stroke-width="3" xlink:href="#f6boo"/></g></g></g></svg>