<svg xmlns="http://www.w3.org/2000/svg" xmlns:xlink="http://www.w3.org/1999/xlink" width="80" height="80" viewBox="0 0 80 80"><defs><linearGradient id="a" x1="11.72" y1="68.28" x2="68.28" y2="11.72" gradientUnits="userSpaceOnUse"><stop offset="0" stop-color="#373e99"/><stop offset="1" stop-color="#662e91"/></linearGradient></defs><title>map_airport-hover</title><circle cx="40" cy="40" r="40" style="fill:url(#a)"/><path d="M31.94,44.77l6.8-7.41A.86.86,0,0,0,38.52,36L26.8,29.38h0a1.1,1.1,0,0,1-.53-.69,1,1,0,0,1,1.14-1.09L44.1,30.87a.9.9,0,0,0,.74-.18l7.06-5.84.05,0a2.37,2.37,0,0,1,1.83-.7,2.45,2.45,0,0,1,1.74.92,2.37,2.37,0,0,1-.3,3.18l0,0-5.75,7a.92.92,0,0,0-.18.75L52.56,52.7a1,1,0,0,1-.22.79l-.18.13a.85.85,0,0,1-.74.26.93.93,0,0,1-.65-.48v0L44,41.54a.93.93,0,0,0-.62-.43.9.9,0,0,0-.74.22l-7.4,6.79a.9.9,0,0,0-.27.79l1,5.88a1,1,0,0,1-.26.83.94.94,0,0,1-.83.26.86.86,0,0,1-.7-.52l-3.05-6.1a.82.82,0,0,0-.39-.39l-6.32-3a.84.84,0,0,1-.48-.65.89.89,0,0,1,.26-.79l.22-.21A.84.84,0,0,1,25.1,44h.13l5.93,1a.66.66,0,0,0,.78-.22" style="fill:#fff;fill-rule:evenodd"/></svg>