<svg xmlns="http://www.w3.org/2000/svg" xmlns:xlink="http://www.w3.org/1999/xlink" width="80" height="80" viewBox="0 0 80 80"><defs><linearGradient id="a" x1="24.19" y1="41.12" x2="55.81" y2="41.12" gradientUnits="userSpaceOnUse"><stop offset="0" stop-color="#373e99"/><stop offset="1" stop-color="#662e91"/></linearGradient></defs><title>map_pin</title><circle cx="40" cy="40" r="39.5" style="fill:#fff"/><path d="M40,1A39,39,0,1,1,1,40,39.05,39.05,0,0,1,40,1m0-1A40,40,0,1,0,80,40,40,40,0,0,0,40,0Z" style="fill:#e2e3ed"/><path d="M40,20c-8.73,0-15.81,6.67-15.81,14.91C24.19,47.75,40,62.24,40,62.24S55.81,46.92,55.81,34.91C55.81,26.67,48.73,20,40,20m-.1,23.4a7.5,7.5,0,1,1,7.5-7.5,7.5,7.5,0,0,1-7.5,7.5" style="fill-rule:evenodd;fill:url(#a)"/></svg>

<svg xmlns="http://www.w3.org/2000/svg" width="80" height="80">
<defs>
    <linearGradient id="a" x1="24.19" y1="41.12" x2="55.81" y2="41.12" gradientUnits="userSpaceOnUse">
        <stop offset="0" stop-color="#373e99"/>
        <stop offset="1" stop-color="#662e91"/>
    </linearGradient>
</defs>
<circle cx="40" cy="40" r="39.5" fill="#fff"/>
<path d="M40 1A39 39 0 1 1 1 40 39.05 39.05 0 0 1 40 1m0-1a40 40 0 1 0 40 40A40 40 0 0 0 40 0z" fill="#e2e3ed"/>
<path d="M40 20c-8.73 0-15.81 6.67-15.81 14.91C24.19 47.75 40 62.24 40 62.24s15.81-15.32 15.81-27.33C55.81 26.67 48.73 20 40 20m-.1 23.4a7.5 7.5 0 1 1 7.5-7.5 7.5 7.5 0 0 1-7.5 7.5" fill-rule="evenodd" fill="url(#a)"/>
</svg>
