<svg xmlns="http://www.w3.org/2000/svg" xmlns:xlink="http://www.w3.org/1999/xlink" width="23" height="23" viewBox="0 0 23 23"><defs><path id="2evia" d="M1263 513v-23h23v23zm11.5-2a9.5 9.5 0 1 0 0-19 9.5 9.5 0 0 0 0 19z"/><path id="2evib" d="M1265 501.5a9.5 9.5 0 1 1 19 0 9.5 9.5 0 0 1-19 0z"/><path id="2evid" d="M1271.3 504.382l2.854-2.853-2.854-2.86.615-.609 2.854 2.854 2.86-2.854.609.61-2.854 2.859 2.854 2.853-.61.616-2.86-2.854-2.853 2.853z"/><clipPath id="2evic"><use fill="#fff" xlink:href="#2evia"/></clipPath></defs><g><g transform="translate(-1263 -490)"><use fill="#30409a" xlink:href="#2evib"/><use fill="#fff" fill-opacity="0" stroke="#fff" stroke-miterlimit="50" stroke-width="4" clip-path="url(&quot;#2evic&quot;)" xlink:href="#2evib"/></g><g transform="translate(-1263 -490)"><use fill="#fff" xlink:href="#2evid"/></g></g></svg>