<svg xmlns="http://www.w3.org/2000/svg" xmlns:xlink="http://www.w3.org/1999/xlink" width="160" height="65" viewBox="0 0 160 65"><defs><path id="b6gza" d="M1413 992.375h27.266l4.166-12.995-3.787 6.115-27.645 6.88z"/><path id="b6gzc" d="M1427.833 1030.074l8.427-26.17-10.96-8.014 4.594 5.523-2.06 28.661z"/><path id="b6gze" d="M1468.15 1027.335l-22.06-16.175-10.94 8.042 6.627-2.703 26.373 10.836z"/><path id="b6gzg" d="M1477.63 987.93l-22.06 16.175 4.196 12.983-.496-7.193 18.36-21.965z"/><path id="b6gzi" d="M1443.08 966.2l8.426 26.173 13.53-.019-6.933-1.743-15.023-24.411z"/><path id="b6gzk" d="M1494.499 968.606v3.107h2.677v2.294h-2.677v8.049h-2.977v-8.027h-1.742v-2.293h1.742v-4.368c0-.921.443-1.338 1.378-1.338h4.568v2.576zm16.882 3.104h2.969v10.356h-2.969z"/><path id="b6gzl" d="M1506.237 966.02h-8.127v2.587h7.336c1.393 0 2.143.67 2.143 2.076v6.704c0 1.39-.727 2.075-2.163 2.075h-4.26v-7.755h-3.056v10.343h8.127c2.848 0 4.427-1.53 4.427-4.346v-7.262c0-2.824-1.58-4.403-4.427-4.403zm8.1 4.048a.297.297 0 0 1-.295.29h-2.42a.3.3 0 0 1-.303-.29v-2.13a.304.304 0 0 1 .303-.301h2.42a.3.3 0 0 1 .295.302z"/><path id="b6gzm" d="M1490.32 987.1h6.438v1.212h-5.018v3.791h4.245v1.212h-4.245v5.03h-1.42z"/><path id="b6gzn" d="M1501.228 993.2l1.11-.74.565.975c1.511-.374 2.502-1.418 2.502-3.17 0-2.34-1.625-3.165-3.897-3.165h-3.488v11.244h1.416v-4.75h2.014zm4.517 5.14h-1.605l-2.69-4.746h.058c.5 0 .968-.053 1.395-.159zm-6.309-5.914v-4.163h1.863c1.73 0 2.683.546 2.683 2s-.952 2.163-2.683 2.163z"/><path id="b6gzo" d="M1507 987.1h6.438v1.212h-5.003v3.523h4.204v1.212h-4.204v4.086h5.173v1.211h-6.59z"/><path id="b6gzp" d="M1515.25 987.1h6.438v1.212h-5.007v3.523h4.22v1.212h-4.22v4.086h5.17v1.211h-6.601z"/><path id="b6gzq" d="M1525.47 997.492l5.866-9.173H1526V987.1h7.09v.852l-5.867 9.173h5.923v1.212h-7.676z"/><path id="b6gzr" d="M1541.779 992.683c0-2.798-1.31-4.526-3.299-4.526-1.988 0-3.294 1.728-3.294 4.526 0 2.797 1.306 4.61 3.294 4.61s3.299-1.809 3.299-4.61zm-8.059 0c0-3.6 1.962-5.783 4.76-5.783 2.799 0 4.76 2.19 4.76 5.783 0 3.592-1.961 5.87-4.76 5.87-2.798 0-4.76-2.27-4.76-5.87z"/><path id="b6gzs" d="M1544.96 987.1h1.462l4.048 7.07 1.2 2.325h.069c-.072-1.147-.178-2.4-.178-3.574V987.1h1.344v11.244h-1.462l-4.048-7.074-1.2-2.32h-.069c.069 1.146.178 2.335.178 3.508v5.886h-1.344z"/><path id="b6gzt" d="M1555.26 987.1h6.438v1.212h-5.022v3.523h4.219v1.212h-4.219v4.086h5.173v1.211h-6.589z"/><path id="b6gzu" d="M1562.71 996.883l.848-.982a4.322 4.322 0 0 0 3.072 1.391c1.461 0 2.329-.734 2.329-1.827s-.807-1.529-1.86-1.976l-1.598-.71c-1.038-.448-2.272-1.243-2.272-2.898 0-1.716 1.484-2.981 3.507-2.981 1.233 0 2.415.502 3.28 1.391l-.758.917a3.547 3.547 0 0 0-2.511-1.04c-1.25 0-2.075.635-2.075 1.64 0 1.082.97 1.487 1.844 1.862l1.587.692c1.287.561 2.295 1.334 2.295 3.008 0 1.773-1.455 3.195-3.787 3.195a5.32 5.32 0 0 1-3.901-1.682z"/><path id="b6gzv" d="M1497.725 1008.647c0-2.801-1.307-4.528-3.295-4.528s-3.298 1.727-3.298 4.528c0 2.8 1.31 4.608 3.298 4.608s3.295-1.811 3.295-4.608zm-8.055 0c0-3.6 1.962-5.787 4.76-5.787 2.799 0 4.76 2.19 4.76 5.787 0 3.596-1.965 5.866-4.76 5.866s-4.76-2.27-4.76-5.866z"/><path id="b6gzw" d="M1500.9 1003.07h6.438v1.208h-5.018v3.791h4.245v1.212h-4.245v5.026h-1.42z"/><path id="b6gzx" d="M1513.64 1004.274h-3.37v-1.204h8.157v1.208h-3.37v10.029h-1.417z"/><path id="b6gzy" d="M1519.74 1003.07h1.42v4.701h5.177v-4.701h1.409v11.237h-1.42v-5.286h-5.166v5.286h-1.42z"/><path id="b6gzz" d="M1530.131 1003.07h6.42v1.208h-5.015v3.524h4.219v1.211h-4.219v4.086h5.173v1.212h-6.589z"/><path id="b6gzA" d="M1542.908 1009.95l-3.348-6.88h1.515l1.439 3.172c.356.83.693 1.61 1.075 2.45h.057c.379-.84.758-1.62 1.114-2.45l1.435-3.172h1.47l-3.349 6.88v4.357h-1.416z"/><path id="b6gzB" d="M1548.32 1003.07h6.419v1.208h-5.003v3.524h4.223v1.211h-4.223v4.086h5.173v1.212h-6.589z"/><path id="b6gzC" d="M1557.08 1009.743h5.124v1.147h-5.123zm1.788-6.673h1.602l3.768 11.24h-1.515l-1.931-6.271a95.549 95.549 0 0 1-1.114-3.788h-.068a81.405 81.405 0 0 1-1.102 3.788l-1.965 6.28h-1.443z"/><path id="b6gzD" d="M1568.278 1009.162l1.126-.741.564.977c1.503-.378 2.487-1.42 2.487-3.167 0-2.34-1.625-3.161-3.897-3.161h-3.488v11.237h1.416v-4.747h2.018zm4.526 5.145h-1.602l-2.698-4.747h.054c.505 0 .979-.054 1.41-.162zm-6.318-5.91v-4.169h1.863c1.73 0 2.683.543 2.683 2.003s-.952 2.167-2.683 2.167z"/><path id="b6gzE" d="M1489.472 1029.447c3.253-3.276 5.093-5.24 5.093-7.018 0-1.246-.674-2.132-2.052-2.132-.909 0-1.685.58-2.303 1.31l-.81-.798c.905-1.002 1.893-1.659 3.283-1.659 2 0 3.25 1.273 3.25 3.214 0 2.053-1.867 4.09-4.42 6.8a24.973 24.973 0 0 1 1.822-.096h3.128v1.212h-6.991z"/><path id="b6gzF" d="M1502.872 1024.771c0-3.2-.854-4.487-2.108-4.487s-2.108 1.287-2.108 4.487.854 4.582 2.108 4.582 2.108-1.382 2.108-4.582zm-5.572.005c0-3.661 1.307-5.626 3.469-5.626s3.469 1.972 3.469 5.626c0 3.654-1.307 5.71-3.47 5.71-2.161 0-3.468-2.045-3.468-5.71z"/><path id="b6gzG" d="M1505.64 1029.105h2.48v-8.027h-1.957v-.905a6.493 6.493 0 0 0 2.302-.803h1.068v9.735h2.234v1.173h-6.127z"/><path id="b6gzH" d="M1518.19 1022.127c0 .822-.405 1.533-1.152 2.194-1.292-.52-2.49-1.07-2.49-2.373a1.7 1.7 0 0 1 .495-1.268c.333-.334.79-.51 1.258-.487a1.782 1.782 0 0 1 1.375.537c.36.37.548.879.513 1.397zm.267 5.414c0 1.119-.856 1.916-2.125 1.904-1.325 0-2.32-.881-2.32-2.088 0-1.003.647-1.811 1.514-2.386 1.564.643 2.931 1.141 2.931 2.559zm-2.14 2.945c2.09 0 3.484-1.28 3.484-2.92 0-1.46-.927-2.228-1.893-2.805v-.07c.666-.507 1.492-1.49 1.492-2.636 0-1.697-1.166-2.905-3.06-2.905-1.738 0-3.06 1.12-3.06 2.802 0 1.15.708 1.96 1.515 2.526v.065c-1.019.546-2.045 1.517-2.045 2.935 0 1.74 1.477 3.008 3.567 3.008z"/><path id="b6gzI" d="M1483.44 1029.45V966h.76v63.45z"/><linearGradient id="b6gzb" x1="1415.93" x2="1447.36" y1="985.88" y2="985.88" gradientUnits="userSpaceOnUse"><stop offset=".35" stop-color="#caa36f"/><stop offset="1" stop-color="#9e7c45"/></linearGradient><linearGradient id="b6gzd" x1="1422.62" x2="1432.33" y1="1025.25" y2="995.09" gradientUnits="userSpaceOnUse"><stop offset=".35" stop-color="#caa36f"/><stop offset="1" stop-color="#9e7c45"/></linearGradient><linearGradient id="b6gzf" x1="1462" x2="1436.57" y1="1030.86" y2="1012.21" gradientUnits="userSpaceOnUse"><stop offset=".35" stop-color="#caa36f"/><stop offset="1" stop-color="#9e7c45"/></linearGradient><linearGradient id="b6gzh" x1="1479.05" x2="1453.62" y1="994.92" y2="1013.57" gradientUnits="userSpaceOnUse"><stop offset=".35" stop-color="#caa36f"/><stop offset="1" stop-color="#9e7c45"/></linearGradient><linearGradient id="b6gzj" x1="1450.1" x2="1459.81" y1="967" y2="997.17" gradientUnits="userSpaceOnUse"><stop offset=".35" stop-color="#caa36f"/><stop offset="1" stop-color="#9e7c45"/></linearGradient></defs><g><g transform="translate(-1413 -966)"><g><use fill="url(#b6gzb)" xlink:href="#b6gza"/></g><g><use fill="url(#b6gzd)" xlink:href="#b6gzc"/></g><g><use fill="url(#b6gzf)" xlink:href="#b6gze"/></g><g><use fill="url(#b6gzh)" xlink:href="#b6gzg"/></g><g><use fill="url(#b6gzj)" xlink:href="#b6gzi"/></g><g><use fill="#fff" xlink:href="#b6gzk"/></g><g><use fill="#fff" xlink:href="#b6gzl"/></g><g><use fill="#fff" xlink:href="#b6gzm"/></g><g><use fill="#fff" xlink:href="#b6gzn"/></g><g><use fill="#fff" xlink:href="#b6gzo"/></g><g><use fill="#fff" xlink:href="#b6gzp"/></g><g><use fill="#fff" xlink:href="#b6gzq"/></g><g><use fill="#fff" xlink:href="#b6gzr"/></g><g><use fill="#fff" xlink:href="#b6gzs"/></g><g><use fill="#fff" xlink:href="#b6gzt"/></g><g><use fill="#fff" xlink:href="#b6gzu"/></g><g><use fill="#fff" xlink:href="#b6gzv"/></g><g><use fill="#fff" xlink:href="#b6gzw"/></g><g><use fill="#fff" xlink:href="#b6gzx"/></g><g><use fill="#fff" xlink:href="#b6gzy"/></g><g><use fill="#fff" xlink:href="#b6gzz"/></g><g><use fill="#fff" xlink:href="#b6gzA"/></g><g><use fill="#fff" xlink:href="#b6gzB"/></g><g><use fill="#fff" xlink:href="#b6gzC"/></g><g><use fill="#fff" xlink:href="#b6gzD"/></g><g><use fill="#fff" xlink:href="#b6gzE"/></g><g><use fill="#fff" xlink:href="#b6gzF"/></g><g><use fill="#fff" xlink:href="#b6gzG"/></g><g><use fill="#fff" xlink:href="#b6gzH"/></g><g><use fill="#fff" xlink:href="#b6gzI"/></g></g></g></svg>