<svg xmlns="http://www.w3.org/2000/svg" xmlns:xlink="http://www.w3.org/1999/xlink" width="120" height="120" viewBox="0 0 120 120"><defs><path id="zpuza" d="M1013 1734a8 8 0 0 1 8-8h88c13.255 0 24 10.745 24 24v88a8 8 0 0 1-8 8h-88c-13.255 0-24-10.745-24-24z"/><path id="zpuzb" d="M1033 1740h80v88.727h-80z"/><path id="zpuze" d="M1097.407 1814.546c.515 0 1.228.766 1.198 1.579-.01.241-.105.553-.43.661-.332.111-.729-.056-.897-.451-.317-.742-.009-1.789.13-1.789zm-1.027-11.87l-.104 1.146.991-.111v1.305l-.99-.11.103 1.197h-1.347l.104-1.198-.99.111v-1.305l.99.11-.104-1.145zm-.672 4.529c.27 0 .486.223.486.497a.49.49 0 0 1-.486.497.491.491 0 0 1-.485-.497c0-.274.218-.497.485-.497zm0 2.013a.49.49 0 0 1 .486.497.492.492 0 0 1-.486.497.492.492 0 0 1-.485-.497c0-.275.218-.497.485-.497zm0 2.041a.49.49 0 0 1 .486.497.492.492 0 0 1-.486.498.492.492 0 0 1-.485-.498c0-.275.218-.497.485-.497zm1.57.497a.49.49 0 0 1 .484-.497c.267 0 .485.222.485.497a.492.492 0 0 1-.485.498.49.49 0 0 1-.485-.498zm2.033 0a.49.49 0 0 1 .486-.497.49.49 0 0 1 .485.497.492.492 0 0 1-.485.498.492.492 0 0 1-.486-.498zm-3.603 2.236c.416 0 1.442 2.112.677 3.181-.147.204-.402.319-.677.319-.274 0-.53-.115-.677-.319-.763-1.069.262-3.181.677-3.181zm-1.69.554c.14 0 .449 1.047.13 1.789-.17.395-.568.562-.903.451-.328-.108-.424-.42-.432-.661-.032-.813.686-1.579 1.205-1.579zm-.799-2.79c0-.275.218-.497.486-.497s.486.222.486.497a.492.492 0 0 1-.486.498.492.492 0 0 1-.486-.498zm-1.984 0a.49.49 0 0 1 .485-.497c.267 0 .485.222.485.497a.492.492 0 0 1-.485.498.49.49 0 0 1-.485-.498zm-.479 0c0 .441.072.862.072.862h9.771c-.13.975-1.282 2.459-1.533 2.773-.31-.96-1.132-1.542-1.786-1.542-.194 0-.409.389-.458.753-.162-.567-.628-1.252-1.114-1.252-.526 0-1.006.819-1.063 1.116-.045-.319-.26-.645-.454-.654-.652-.033-1.65.864-1.885 1.702-.523-.385-.946-1.135-1.118-1.619-.21-.361-.642-.597-1.145-.803-1.619-.664-5.35-.829-6.443-.78-.698.03-.948-.386-.876-.72.247-1.155.278-3.056-.638-4.387.993.332 1.95 1.221 1.95 1.221.328-.695.466-2.219.398-2.954.904.325 1.71 1.187 1.71 1.187.353-.942.465-2.724.352-3.737 2.247.753.148 4.72 2.887 4.595-.77 1.117-1.694.662-2.53.662-.587 0-1.198.362-1.198 1.265 0 .644 3.013 1.189 4.502 1.371.258.03.623-.053.737-.215.465-1.946 2.022-3.452 3.97-3.793v4.143h-4.036s-.072.382-.072.806zm5.797-4.948c2.061.363 3.687 2.03 4.038 4.142h-4.038zm-47.644 3.411c-.44-.145-1.04-.864-1.053-1.269a.474.474 0 0 1 .028-.172c-.267.189-.475.149-.59.034-.128-.127-.045-.207.129-.358-.125.024-.272-.006-.455-.125-.893-.582-3.91-3.675-4.222-4.397-.186-.433.049-.584.049-.584s.14-.247.566-.069c.712.298 3.853 3.26 4.447 4.159.121.184.154.335.135.464.143-.184.216-.274.345-.146.117.116.162.327-.012.606a.444.444 0 0 1 .166-.035c.395.002 1.113.597 1.266 1.043.03.085.014.172-.026.26.367-.299.612-.296.73-.178.185.184-.138.334-.604.828-.467.496-.603.832-.787.649-.118-.116-.129-.366.143-.746-.084.045-.17.064-.255.036zm-7.548-8.763c.227 0 .485.122.691.326.336.333.44.804.228 1.027a.428.428 0 0 1-.32.124c-.227 0-.486-.122-.69-.325a1.147 1.147 0 0 1-.327-.578c-.037-.186-.002-.346.096-.45a.444.444 0 0 1 .322-.124zm9.765 10.995c-.073.183-1.257.934-1.992.889-.187-.011-.802-.093-.802-.728 0-.337.452-.999 1.496-.999.704 0 1.295.525 1.298.838zm-.905 1.59c.468-.605 1.354-1.039 1.687-1.039.134.153.117 1.552-.28 2.183-.185.295-.517.471-.886.471-.35 0-.743-.18-.83-.58-.072-.33.032-.678.31-1.035zm-9.138-14.512c.47.47-.395 1.106-.41 1.703-.58.038-1.17.948-1.64.478-.294-.293.112-.926-.097-1.289-.864.192.068.813-.54 1.461-.245.259-.64.138-.762-.003.251-.279.148-.694.004-.722-1.572.764-3.391-.571-3.21-1.915.34.251 1.497.292 1.806.167.361.498 1.164.109.911-.446-.157-.372-1.068-1.008-1.671-.224-.228-.014-.296-.433.236-.898-.99.36-.738-1.657-.51-2.076.4-.248 2.347-.572 2.03.461.432-.563.84-.506.862-.273-.742.648-.098 1.567.268 1.717.545.244.898-.597.405-.953.111-.322.035-1.513-.22-1.856 1.298-.229 2.649 1.604 1.958 3.247.03.149.436.242.699-.026.14.122.27.525.027.784-.61.648-1.24-.292-1.398.604.357.203.958-.234 1.252.059zm-4.866-2.068s.754.331 1.1.426c-.102-.356-.445-1.128-.445-1.128s-.22-.31-.595.083c-.364.4-.06.619-.06.619zm3.011 2.323c.017-.195.391-.668.167-.891l-1.026-1.025-.515.546-.513.546 1.026 1.023c.225.225.672-.175.861-.199zm17.007 15.687c-.035.15-.143.402-.469.748-.43.458-.717.526-.849.526a.29.29 0 0 1-.21-.08c-.026-.026-.04-.049-.04-.063 0-.062.15-.198.294-.329.121-.11.273-.247.437-.421.164-.174.292-.334.395-.462.124-.155.253-.315.311-.315.013 0 .036.015.061.04.08.079.104.202.07.356zm.01 1.221c.226-.237.384-.476.464-.609.14.137.448.673.128 1.196a.887.887 0 0 1-.508.159c-.32 0-.575-.161-.666-.251.127-.087.357-.256.582-.495zm-3.468-2.912c.177.13.666 1.158.563 1.805-.045.284-.19.424-.457.44-.258.014-.41-.104-.48-.381-.166-.648.21-1.71.374-1.864zm-.207-2.955c.207.678.186 1.709-.315 1.709-.712 0-.95-1.304-.95-1.899 0-.84.412-1.202.765-1.257.286-.044.54.112.79.458.518.72 1.21 1.04 2.244 1.04 1.477 0 5.154-.794 5.24-1.432.117-.88-.61-1.264-1.198-1.264-.836 0-1.76.454-2.53-.663 2.74.125.638-3.842 2.885-4.595-.11 1.013 0 2.795.354 3.737 0 0 .805-.862 1.71-1.187-.069.735.07 2.259.397 2.954 0 0 .957-.889 1.95-1.221-.916 1.331-.865 3.293-.637 4.387.07.335-.178.75-.876.72-1.16-.052-4.325.025-6.247.707-.157.072-.308.143-.429.206-.213.108-.423.075-.575-.071-.645-.614-2.569-2.31-2.578-2.329zm2.377 4.577c-.204.217-.526.51-.785.407a.956.956 0 0 1-.163-.091c.228-.805-.024-1.764-.698-2.656.048-.152.102-.375.134-.586 1 .961 1.762 1.813 1.883 2.106.083.203-.036.463-.37.82zm-4.863-4.853c.068-.074.268-.253.452-.295-.018.227-.005.491.01.685a2.801 2.801 0 0 0-.672-.096c.081-.165.205-.288.21-.294zm33.591 6.131c2.216 1.559.848 5.214 3.82 4.526-1.658 3.077-5.01 3.387-5.01 3.387.743-1.628-.183-6.594-4.632-8.851 2.738 2.731 3.986 6.041 3.26 8.376-.668 2.145-2.835 3.013-4.466 3.05 1.153-3.544.443-7.604-1.953-10.158 1.027 2.802 2.471 10.282-1.695 11.717-4.166-1.435-2.723-8.915-1.697-11.717-2.395 2.554-3.106 6.614-1.952 10.158-1.632-.037-3.799-.905-4.465-3.05-.728-2.335.52-5.645 3.26-8.376-4.45 2.257-5.375 7.223-4.633 8.851 0 0-3.353-.31-5.01-3.387 2.973.688 1.604-2.967 3.82-4.526-.632-.289-1.089-1.074-1.21-1.84.402.197.854.293 1.375.293 1.435 0 3.237-.798 4.871-1.521 0 0 .352.296.935.358-1.647.507-4.887 2.304-5.125 3.458-.159.77.344 1.065.344 1.065.721-1.176 2.578-3.002 5.056-3.915-.004.43.078.732.078.732s.503.123 1.571-.063c-.934.78-3.388 3.533-3.654 5.622-.178 1.395.797 1.46.797 1.46.138-2.098 1.24-4.268 3.224-6.448 0 0 .325.511.758.767 0 0 .734-.129 1.343-.532-.235 2.768-.373 6.363-.228 7.451.102.758.542 1.076.542 1.076s.44-.318.541-1.076c.145-1.088.007-4.683-.227-7.451.608.403 1.341.532 1.341.532.433-.256.758-.767.758-.767 1.986 2.18 3.086 4.35 3.225 6.448 0 0 .974-.065.797-1.46-.266-2.089-2.72-4.842-3.655-5.622 1.07.186 1.572.063 1.572.063s.083-.302.077-.732c2.48.913 4.336 2.739 5.057 3.915 0 0 .502-.295.343-1.065-.238-1.154-3.476-2.951-5.125-3.458a1.86 1.86 0 0 0 .936-.358c1.634.723 3.436 1.521 4.87 1.521.521 0 .975-.096 1.375-.293-.12.766-.576 1.551-1.209 1.84zm-10.322-61.651c0 .22-.173.399-.386.399a.393.393 0 0 1-.386-.399c0-.22.173-.399.386-.399.213 0 .386.179.386.399zm1.948 0c0 .22-.173.399-.387.399a.393.393 0 0 1-.386-.399c0-.22.173-.399.386-.399.214 0 .387.179.387.399zm-3.026-10.347c0-.411.324-.747.722-.747.4 0 .723.336.723.747a.736.736 0 0 1-.723.747.736.736 0 0 1-.722-.747zm.337-2.778l-1.068.114v-.942l1.068.114-.105-1.19h.983l-.106 1.19 1.07-.114v.942l-1.07-.114.106 1.191h-.983zm-1.207 13.125c0 .22-.173.399-.386.399a.393.393 0 0 1-.386-.399c0-.22.173-.399.386-.399.213 0 .386.179.386.399zm-2.318 1.477c-.229-.082-.368-.254-.423-.529h8.67c-.056.275-.194.447-.423.529a1.06 1.06 0 0 1-.368.058h-7.089c-.142 0-.262-.02-.367-.058zm.39-1.477c0 .22-.174.399-.387.399a.393.393 0 0 1-.386-.399c0-.22.173-.399.386-.399.213 0 .387.179.387.399zm7.753 0c0 .22-.174.399-.386.399a.394.394 0 0 1-.387-.399c0-.22.174-.399.387-.399.212 0 .386.179.386.399zm-8.923-.946c-.2-.249-1.195-2.174-1.195-4.118 0-1.749 2.196-2.712 3.501-2.756.15 2.522 1.192 6.422 2.391 6.422 1.267 0 2.24-3.923 2.391-6.422 1.307.044 3.501 1.007 3.501 2.756 0 1.944-.993 3.869-1.194 4.118zm4.687-1.693c-.585 0-1.385-2.648-1.558-4.844 0-.477.594-1.207 1.558-1.226.964.019 1.56.749 1.56 1.226-.198 2.355-.965 4.844-1.56 4.844zm-18.946 12.703c1.157-1.594 4.105-1.489 4.105-1.489.343 1.281 1.405 2.873 2.298 3.584.098.1.034.098-.069.07-4.84-1.295-5.682 1.164-5.674 1.246.011.095-.049.133-.118.048-.099-.12-1.698-1.865-.542-3.459zm2.596-.334c.447-.086.975-.069 1.354.1-.165-.237-.329-.668-.329-.668-.374 0-1.025.123-1.025.568zm2.57-2.082l5.551-.015c3.046 0 5.102-.636 6.405-1.275-.22.864-1.138 1.849-1.506 2.048.484.254 1.225.459 1.725.346-.357.664-1.604 1.136-2.179 1.176.374.431.994.886 1.506 1.01-.23.233-1.345.426-2.154.24.58.874 1.732 1.86 2.617 1.826-1.039.794-2.977.523-4.548-.852-.147.887.042 2.208.201 2.543-.666-.148-1.689-1.311-2.067-1.933-.556 1.208-.547 1.715-.547 1.715-1.197-1.626-4.23-2.515-5.342-6.268-.105-.355.015-.56.337-.56zm3.361 1.72c.862-.345 1.104-.402 1.104-.586h-2.669c-.445 0-.404.27-.273.49l.545.904s.432-.464 1.293-.809zm-9.113 6.108c-.049-.066.007-.073.046-.048.04.024.984.582 3.036-.753 2.051-1.335 3.638-1.895 4.455-2.028 0 0 .771.548 1.473 1.163-1.915.162-3.417 1.334-3.589 1.739-.016.037-.057.039-.068.003a1.6 1.6 0 0 1 .065-1.147s-.893.55-2.62 1.561c-1.73 1.011-2.519-.12-2.798-.49zm24.506 42.623a2.114 2.114 0 0 1-.637.102 1.6 1.6 0 0 1-.679-.141c.133.482.177 1.077.081 1.484a3.974 3.974 0 0 1-.305.011c-.42 0-.8-.065-1.128-.229-.052.44-.253.973-.582 1.333a1.564 1.564 0 0 1-.207.193c-.39 0-1.334-.456-1.512-.737-.178.281-1.12.737-1.512.737a1.504 1.504 0 0 1-.207-.193c-.329-.36-.53-.893-.583-1.333-.727.274-1.43.218-1.43.218-.098-.407-.054-1.002.078-1.484a1.59 1.59 0 0 1-.678.141c-.22 0-.439-.039-.637-.102-.295-.095-.543-.246-.67-.415 1.326-.058 2.42-1.204 2.82-1.911.44.729 1.225 1.3 1.225 1.3.56-.148 1.325-.759 1.594-1.226.27.467 1.034 1.078 1.594 1.226 0 0 .785-.571 1.226-1.3.4.707 1.494 1.853 2.82 1.911-.128.169-.375.32-.67.415zm3.297-28.305c.26 0 .42.166.42.433v16.228c0 1.547-.608 2.332-1.81 2.332l-3.004.012c-1.95 0-3.363.77-3.867 1.59-.592-.88-1.806-1.59-3.866-1.59l-3.006-.012c-1.2 0-1.81-.785-1.81-2.332v-16.228c0-.267.162-.433.42-.433zm-13.588 15.183c-.497.848.028 1.851 1.247 1.575-.154-.272-.192-.635-.172-.768-.687.206-1.104-.448-1.075-.807zm11.047-5.372c.27.288.012.826.045.903.085.205.614.408.686.217 0-.01-.039-.593-.006-.883a.675.675 0 0 0-.203-.463 7.705 7.705 0 0 0-.31-.288 3.223 3.223 0 0 1-.673-.849c-.205-.401-.36-.47-.692-.351-.372.133-.807.1-1.14.185-.104.026-.16.082-.14.192.047.25.048.642-.01.829a.612.612 0 0 1-.574-.495c-1.529.089-2.56-.834-2.542-2.078.241.734 1.033 1.605 2.286 1.765.371.048.641-.122.631-.152-.044-.308-.3-1.059-.587-1.466-.439-.554.137-1.214.444-1.106.045.217.067.423.133.612.065.19.123.365.065.569a.486.486 0 0 0 .165.534.532.532 0 0 0 .307.095c.12.001.113-.121.142-.21.117-.364.243-.725.368-1.088a.27.27 0 0 1 .06-.093c.196-.197.283-.441.31-.707a.442.442 0 0 1 .148-.305c.128-.111.252-.226.36-.381-.373-.017-.573-.274-.793-.516a3.585 3.585 0 0 0-.488-.449 1.463 1.463 0 0 0-.412-.212 2.475 2.475 0 0 0-.798-.137c-1.124 0-2.278.938-2.422 2.857-.192-.402-.082-1.124.14-1.586-.05-.241-.793-.816-.9-.866.054-.21.318-.15.531-.62.4-.323.207-.939-.337-1.094-.36-.102-.756.059-.972.387a1.216 1.216 0 0 1-.246.261c-.087.069-.09.132-.077.241.017.135.1.265.201.359-.378-.146-.766-.256-1.17-.186.021.042 4.365 7.275 4.365 7.275.144.227.113.308-.027.336l.06.094 1.16 1.791c-.137 0-.234.023-.248.076-.015.153.6.113.817.756.041.094.094.255.145.344.122.214.336.372.575.46.408.182.366 1.169-.366 1.169-.179-2.502-2.156-2.112-2.219-4.273-.82.842-.494 1.998.05 2.497-.412-.112-.699-.609-.77-1.557-.499.583-.55 1.647-.038 2.115-.34-.053-.61-.517-.574-1.077-.345.602-.427 1.741.683 1.755-.55.19-1.009-.176-1.145-.467a4.802 4.802 0 0 0-.753-.205c-.193-.352-.723-.895-.805-1.18-.073-.254.125-.394.285-.552a3.49 3.49 0 0 0 .784-1.07c-.299-.022-.59-.1-.787-.122a2.542 2.542 0 0 1-.6.574c.242-.261.405-.531.51-.788.504.049 2.248.016 3.212-.378 0 0-4.437-7.398-4.584-7.649-.092-.157-.116-.275.003-.396.038-.038.053-.116.048-.173a.575.575 0 0 0-.069-.212c-.11-.201-.195-.429-.47-.477-.027-.005-.052-.05-.07-.081l-.749-1.229c-.062-.071-.348.039-.255.194l.733 1.229c.032.061.051.14.044.207-.02.191.045.33.172.481.334.4-.484 2.316.897 2.666.06.015.123 0 .215 0-.708.44-1.737-.244-1.324-1.925-1.65.406-1.994 2.219-2.745 3.14.162-.032.453-.024.65-.002.227-.49.827-1.271 1.515-1.526-.489.506-.873.99-1.163 1.612.19.079.383.199.567.332.2-.385.473-.707.806-.992-.304.407-.645 1.024-.647 1.122.381.223.947.786 2.233.806 0-.27.083-.79.431-1.183.083.144.146.291.207.441.007.017 0 .047-.014.063-.193.242-.237.523-.205.838-.423.067-1.55.173-1.919.758-.139-.084-.62-.576-1.383-.576-.66 0-1.213.531-1.213 1.248 0 1.171 1.508 2.739.286 3.163 1.163.001 2.287-1.038 1.662-2.48-.064-.145-.176-.357-.189-.509-.04-.484.57-.512.57-.019 0 .449.131.853.312 1.252.025.056.051.111.062.17.085.448-.065.809-.427 1.087-.153.117-.317.221-.47.34-.098.072-.17.161-.147.296a4.74 4.74 0 0 1-.03 1.616c-.038.345.311.549.318 1.072 0 .116.723.102.723-.043-.034-.298-.187-.53-.326-.769-.037-.063-.085-.136-.084-.203.006-.289.014-.58.047-.866.03-.247.154-.462.39-.57.745-.227 1.284-.544 1.67-.891a.897.897 0 0 1-.022.159c-.052.226-.174.422-.29.622-.087.147-.073.241.063.355.274.23.464.513.563.862-.773.126-1.668.546-1.836 1.55a1.882 1.882 0 0 0-.023.316c0 .892.633 1.663 1.707 1.663.427 0 1.198-.175 1.198-.947a.918.918 0 0 0-.177-.517c-.239-.349-.594-.488-1.027-.424a.602.602 0 0 0-.397.22c-.126.149-.126.371.004.499a.37.37 0 0 0 .514.02l.095-.073c0 .184-.132.367-.395.367-.285 0-.549-.254-.549-.583 0-.67.696-.901 1.21-.795 1.108.231 1.732 1.588 2.451 1.853-.28.061-.583.208-.54.381.07.188 1.206-.08 1.388.06.034.05.123.113.192.128.06-.05.088-.18.1-.248.157-.022.355.056.465.134.015-.066.012-.211-.188-.295a.482.482 0 0 0-.31-.245c.57-.178.637-.971.127-1.46.62.08.862.987.461 1.359.092.087.267.153.692.112.314-.03.577-.187.735-.025-.043.121-.098.178-.102.289-.009.227.235.238.42.238.344 0 .668-.107.998-.188.123.111.56.139.691.07.096.058.168.112.261.099.035-.005.043-.232.01-.325a.436.436 0 0 0 .31.053.739.739 0 0 0-.215-.281c-.013-.142-.135-.268-.265-.268-.223 0-.459.116-.679.05 1.032-.742.542-2.441.243-2.515a.564.564 0 0 0-.409.043c-.067-.549.598-.003.83-.237-.226-.057-.35-.216-.46-.384.18.086.595.152.781-.041-1.495-.285-1.452-1.135-2.012-1.239-.29-.053-.646-.385-.826-.619-.149-.183-.544-.102-.58.094a.86.86 0 0 1 .274.578l-1.254-1.943c1.09-.457 1.26.029 2.357-.336.28-.097.505.004.605.272.075.201.176.572.23.779.067.259-.006.475-.27.822-.067.139.39.739.557.55.228-.642.393-.682.358-.819-.027-.349-.467-1.512-.49-2.064a.522.522 0 0 0-.234-.412c-.182-.136-.38-.145-.592-.12-.242.027-.486.044-.728.067.006-.04.018-.055.032-.061.23-.151.656-.37 1.054-.37.178 0 .302.075.475.269.163.181.33.362.497.541zm9.121-31.03s2.948-.105 4.105 1.489c1.157 1.594-.443 3.339-.542 3.459-.069.085-.129.047-.119-.048.01-.082-.832-2.541-5.673-1.246-.103.028-.167.03-.07-.07.895-.711 1.956-2.303 2.3-3.584zm.165 1.255c.377-.169.9-.186 1.345-.1 0-.445-.647-.568-1.018-.568 0 0-.164.431-.327.668zm4.525 5.646c-.278.37-1.066 1.501-2.796.49a145.9 145.9 0 0 1-2.62-1.561s.27.521.065 1.147c-.013.036-.053.034-.069-.003-.17-.405-1.673-1.577-3.589-1.739.703-.615 1.472-1.163 1.472-1.163.82.133 2.404.693 4.456 2.028 2.052 1.335 2.997.777 3.036.753.04-.025.095-.018.045.048zm-16.202-7.07c-.367-.2-1.285-1.184-1.505-2.048 1.303.64 3.36 1.275 6.406 1.275l5.551.015c.322 0 .443.206.337.56-1.112 3.754-4.144 4.643-5.342 6.27 0 0 .01-.508-.546-1.716-.378.622-1.403 1.785-2.068 1.933.16-.335.35-1.656.201-2.543-1.57 1.375-3.508 1.646-4.548.852.885.034 2.038-.952 2.618-1.827-.81.187-1.925-.006-2.156-.238.512-.125 1.133-.58 1.506-1.011-.574-.04-1.82-.512-2.177-1.176.5.113 1.241-.092 1.723-.346zm5.986.376c0 .184.243.24 1.104.585.86.345 1.292.809 1.292.809l.546-.904c.132-.22.173-.49-.273-.49zm-17.248 5.626c.638.848 1.643 1.331 3.06 1.193 0 0-.66-1.104-.779-2.065.661.65 2.133.872 3.047.78 0 0 1.076 1.69 1.705 4.341-.935-.283-2.317-1.08-2.983-1.715a26.156 26.156 0 0 0-.344 2.052 22.282 22.282 0 0 0-1.637-1.877c-.255 1.119-.652 2.516-1.543 3.758.173-1.261-.098-3.515-.657-4.73-.093-.705-.04-1.246.131-1.737zm15.855 0c.174.491.225 1.032.133 1.737-.56 1.215-.83 3.469-.657 4.73-.892-1.242-1.289-2.64-1.543-3.758a22.475 22.475 0 0 0-1.638 1.877 26.157 26.157 0 0 0-.344-2.052c-.666.635-2.048 1.432-2.983 1.715.63-2.65 1.706-4.34 1.706-4.34.914.09 2.385-.13 3.047-.781-.119.96-.78 2.065-.78 2.065 1.417.138 2.421-.345 3.06-1.193zm-12.193 8.366c-.408 1.674-1.977 3.302-3.597 3.425 1.054-1.368 1.098-3.733 1.022-4.52.702-1.092 1.164-2.076 1.385-2.745.477.471 1.212 1.385 1.873 2.442 0-.012.02-1.325.282-2.919.681.616 1.914 1.061 2.574 1.234.415.678.53 1.208.727 2.059.197-.851.312-1.381.728-2.059.66-.173 1.892-.618 2.573-1.234.264 1.594.282 2.907.282 2.919.66-1.057 1.397-1.971 1.872-2.442.222.669.684 1.653 1.385 2.745-.074.787-.03 3.152 1.022 4.52-1.619-.123-3.188-1.751-3.595-3.425-.535.86-1.01 1.894-1.176 2.816-.513-.621-1.055-1.7-1.422-2.989-.45.563-1.236 1.709-1.669 2.654-.433-.945-1.219-2.091-1.669-2.654-.367 1.289-.909 2.368-1.422 2.989-.165-.922-.64-1.956-1.175-2.816zm-14.676 19.79c-1.35.878-3.519.68-4.218-.288 1.188-.644 2.607-2.293 3.381-3.917.152.395.43 1.036.66 1.466a4.906 4.906 0 0 1-.496.688c.02.148.785.553 1.325-.49a8.856 8.856 0 0 0 1.487-.444c-.655 1.317-1.23 2.392-2.139 2.984zm2.81-2.735c.176.453.487.808.487.808-.179.69.058 1.022.488.944.03-.447.182-.793.182-.793s1.001-.807 1.616-.959c-.715.636-1.384 2.033-1.214 3.518-2.053-.06-2.204-2.156-1.56-3.518zm-10.162 1.554c-1.8 0-3.24-1.328-3.645-2.172 2.05-.296 4.982-1.819 6.543-3.387.013.627.086 1.255.2 1.71-.575.615-1.48 1.048-1.48 1.048s.238.46.798.46c.187 0 .382-.052.578-.164.387-.218.89-.805.89-.805a9.81 9.81 0 0 0 2.006-.408c-1.122 1.424-3.01 3.119-4.992 3.609a3.753 3.753 0 0 1-.898.109zm-3.968-3.325c-2.137 0-3.823-2.163-4.258-3.196 2.173-.03 5.838-.91 8.083-2.16-.154.51-.333 1.202-.436 1.977-1.03.48-2.108.795-3.043.909 0 0 .154.901 1.61.716.797-.101 1.755-.707 1.973-.853.63.088 1.954.058 2.458-.043-1.583 1.128-4.042 2.433-6.079 2.635a3.509 3.509 0 0 1-.308.015zm.321-7.343c-1.753.39-3.942.297-3.942.297s.13.931 1.346.997c.536.03 2.186-.246 2.876-.444.292.123 1.57.435 2.895.606-1.857.658-4.556 1.343-6.252 1.343a5.15 5.15 0 0 1-.467-.02c-2.72-.243-4.099-2.738-4.17-4.185.804.162 2.206.264 3.648.264 1.224 0 3.532-.103 5.326-.596-.452.533-.948 1.185-1.26 1.738zm-6.53-2.652c-.96-.31-4.015-1.666-3.462-6.167 2.42 1.281 6.723 2.617 10.095 2.587-.854.524-1.663 1.126-2.187 1.63-1.42-.084-3.343-.519-4.474-.974-.022.201-.042 1.095 1.266 1.495.888.273 2.273.301 3.293.322.816.519 2.071 1.042 3.09 1.389-.943.134-2.1.232-3.2.232-1.799 0-3.41-.187-4.42-.514zm7.413-9.332c-2.323-1.54-4.986-3.903-6.196-5.487-1.573-2.06-2.224-4.123-1.934-6.13.288-1.995 1.46-3.41 2.137-3.973.605 1.577 3.107 5.601 5.34 8.03-.266.879-.436 2.047-.452 3.063-1.92-1.59-4.037-4.76-4.362-5.891-.427.314-.649 1.227-.047 2.269 1.042 1.803 2.842 3.38 4.42 4.619.066 1.158.573 2.501 1.094 3.5zm-.651 5.116c-2.964-.466-6.538-1.646-8.273-3.357-3.295-3.246-1.537-7.205-1.105-8.047 2.134 2.664 6.216 5.49 10.02 6.996-1.284.158-2.601.43-3.55.8-1.518-.648-3.655-2.103-4.643-3.114-.13.17-.486 1.018.635 1.96.817.687 2.474 1.45 3.754 1.95.566.848 1.63 1.793 3.162 2.812zm49.488 14.512c.773 1.624 2.193 3.273 3.381 3.917-.699.969-2.867 1.166-4.217.287-.91-.592-1.485-1.667-2.14-2.984.382.16.933.329 1.487.445.54 1.042 1.305.637 1.325.49a4.906 4.906 0 0 1-.496-.69c.231-.43.508-1.07.66-1.465zm-3.646 1.47c.645 1.362.493 3.458-1.56 3.518.17-1.485-.499-2.882-1.213-3.518.615.152 1.616.959 1.616.959s.15.346.18.793c.431.078.668-.254.49-.944 0 0 .31-.355.487-.808zm7.063-2.295c.115-.455.187-1.083.2-1.71 1.561 1.568 4.494 3.091 6.544 3.387-.407.844-1.845 2.172-3.646 2.172-.3 0-.6-.036-.898-.109-1.982-.49-3.869-2.185-4.992-3.609a9.823 9.823 0 0 0 2.006.408s.502.587.89.805c.196.112.392.164.577.164.561 0 .8-.46.8-.46s-.905-.433-1.48-1.048zm3.68-2.855a12.687 12.687 0 0 0-.436-1.977c2.248 1.25 5.915 2.13 8.09 2.16-.435 1.033-2.122 3.196-4.262 3.196-.103 0-.206-.006-.308-.015-2.039-.202-4.5-1.507-6.085-2.635.505.101 1.831.131 2.46.043.218.146 1.178.752 1.977.853 1.456.185 1.61-.716 1.61-.716-.936-.114-2.015-.429-3.046-.909zm1.805-5.702c1.791.493 4.097.596 5.32.596 1.44 0 2.842-.102 3.644-.264-.07 1.447-1.448 3.942-4.165 4.185-.142.013-.299.02-.466.02-1.696 0-4.392-.685-6.247-1.343 1.323-.17 2.6-.483 2.892-.606.69.198 2.338.473 2.873.444 1.215-.066 1.345-.997 1.345-.997s-2.186.092-3.938-.297c-.313-.553-.808-1.205-1.258-1.738zm11.253-7.081c.552 4.501-2.503 5.857-3.463 6.167-1.01.327-2.622.514-4.422.514-1.098 0-2.256-.098-3.198-.232 1.017-.347 2.273-.87 3.09-1.389 1.02-.021 2.403-.049 3.293-.322 1.306-.4 1.288-1.294 1.264-1.495-1.13.455-3.053.89-4.473.974-.524-.504-1.333-1.106-2.187-1.63 3.372.03 7.677-1.306 10.096-2.587zm-5.408-13.553c-.326 1.131-2.444 4.301-4.363 5.891-.015-1.016-.186-2.184-.45-3.063 2.232-2.429 4.733-6.453 5.337-8.03.68.563 1.851 1.978 2.14 3.973.288 2.007-.363 4.07-1.936 6.13-1.21 1.584-3.873 3.947-6.195 5.487.52-.999 1.027-2.342 1.094-3.5 1.578-1.239 3.377-2.816 4.42-4.619.601-1.042.38-1.955-.047-2.269zm-1.915 11.896c-.95-.37-2.268-.642-3.552-.8 3.806-1.505 7.892-4.332 10.028-6.996.433.842 2.191 4.801-1.105 8.047-1.738 1.71-5.315 2.89-8.282 3.357 1.535-1.019 2.598-1.964 3.164-2.812 1.283-.5 2.941-1.263 3.757-1.95 1.122-.942.767-1.79.636-1.96-.987 1.011-3.127 2.466-4.646 3.114zm-8.88-4.561c.147 1.17.035 4.075-1.221 5.882.918.352 2.094.922 2.884 1.45-.5.569-1.664 1.552-2.447 2.087.64.569 1.63 1.658 2.151 2.371-.66.393-1.947.907-3.003 1.191.469.775 1.19 2.174 1.373 3.006-1.145.223-2.31.223-3.323.119.131.97.045 2.189-.057 3.077-1.055-.152-2.216-.58-2.985-.987-.147.67-.549 1.907-.91 2.569-1.002-.952-2.321-1.387-3.544-1.135-2.503.516-3.246 3.051-3.246 3.051l-.004-7.711v-.861c0-.48-.257-.734-.721-.734h-17.364c-.464 0-.722.254-.722.734v.861l-.004 7.711s-.744-2.535-3.246-3.051c-1.223-.252-2.543.183-3.543 1.135-.361-.662-.764-1.899-.91-2.569-.771.407-1.93.835-2.987.987-.102-.888-.188-2.107-.057-3.077-1.024.032-2.185.047-3.321-.119.181-.832.903-2.231 1.373-3.006-1.016-.322-2.345-.798-3.004-1.191.52-.713 1.511-1.802 2.15-2.371-.782-.535-1.947-1.518-2.447-2.087.791-.528 1.968-1.098 2.885-1.45-1.256-1.807-1.368-4.712-1.22-5.882 1.235 2.87 4.37 5.429 6.396 6.711.925.584.588 1.692.292 2.184-2.762 4.593 2.26 8.015 6.795 5.739-.988.011-1.988-.831-2.126-1.581.315.272 1.603.122 1.983-.23-.583-.306-.723-.616-.753-.906.721.444 2.182.505 2.613-.245 2.397-.065 3.991-1.937 4.167-2.477.178.575.465 1.579.56 2.571.649-.441 1.759-1.438 2.338-2.79a10.472 10.472 0 0 1 1.47 3.102c.32-1.111.814-2.166 1.47-3.102.578 1.352 1.688 2.349 2.338 2.79.094-.992.382-1.996.559-2.571.176.54 1.77 2.412 4.167 2.477.43.75 1.89.689 2.614.245-.03.29-.17.6-.754.906.381.352 1.669.502 1.983.23-.139.75-1.138 1.592-2.128 1.581 4.536 2.276 9.56-1.146 6.797-5.739-.296-.492-.634-1.6.292-2.184 2.027-1.282 5.16-3.841 6.397-6.711zm-31.556-9.026c2.36 0 3.891-1.781 4.303-4.39h2.324c-.778 3.621-3.695 4.66-6.73 4.66zm-13.119-5.89c.36-.402 2.006-1.602 2.66-1.147 0 0 .634.333.892 2.924.257 2.574 1.63 3.964 2.603 4.085l.101.319c-1.67 0-3.301-1.118-3.95-3.457-.648-2.339-2.306-2.724-2.306-2.724zm-4.853 1.054c-1.385.047-1.544.644-1.544.644h-.045c.075-.992 1.73-.712 3.34-1.776 1.145-.756 1.825-1.817 2.328-2.213.503-.396 1.965-.09 3.014.594 0 0-.975-.322-3.032 1.558-1.742 1.59-2.675 1.147-4.06 1.193zm1.275 6.205s-.255.766-1.218.944c1.317-1.491-.29-3.729-.934-4.692-.507-.758-.367-1.29-.216-1.505.483-.69 1.585-.456 2.6-.464-1.663 1.123.034 2.599.864 4.521.83 1.924-.177 3.733-.177 3.733s-.077-1.707-.919-2.537zm10.395-1.089s-.14-.346-.32-.846h6.353c-.18.5-.322.846-.322.846zm3.401-8.106a.555.555 0 0 1-.543.565.555.555 0 0 1-.545-.565c0-.312.244-.565.545-.565.3 0 .543.253.543.565zm-3.958 6.621c-.245-.766-.52-1.931-.52-2.493 0-1.027.568-2.164 2.564-2.514 0 1.264.602 4.282 1.33 4.282h.082c.726 0 1.329-3.041 1.329-4.281 1.99.349 2.541 1.487 2.541 2.513 0 .562-.275 1.727-.518 2.493zm3.42-1.576c-.38 0-.688-1.985-.688-2.974 0-.54.308-.894.688-.894.378 0 .686.354.686.894 0 .989-.308 2.974-.686 2.974zm-.272-7.304l-.92.094v-.753l.92.094-.092-.942h.737l-.092.942.92-.094v.753l-.92-.094.092.941h-.737zm15.06 5.695c.411 2.609 1.942 4.39 4.301 4.39l.103.27c-3.034 0-5.95-1.039-6.73-4.66zm11.256 4.362c.974-.121 2.345-1.511 2.602-4.085.26-2.591.893-2.924.893-2.924.655-.455 2.3.745 2.66 1.147 0 0-1.658.385-2.306 2.724-.649 2.339-2.278 3.457-3.95 3.457zm6.967-6.001c-2.056-1.88-3.033-1.558-3.033-1.558 1.05-.685 2.513-.99 3.016-.594.502.396 1.182 1.457 2.327 2.213 1.61 1.064 3.265.784 3.34 1.776h-.046s-.157-.597-1.543-.644c-1.386-.046-2.318.396-4.061-1.193zm5.144 2.145c.15.215.29.747-.217 1.505-.644.963-2.25 3.201-.934 4.692-.963-.178-1.217-.944-1.217-.944-.842.83-.919 2.537-.919 2.537s-1.008-1.809-.178-3.733c.831-1.922 2.527-3.398.863-4.521 1.017.008 2.118-.226 2.602.464zm-18.465 4.164s-.141-.346-.32-.846h6.352c-.18.5-.321.846-.321.846zm3.39-8.106a.558.558 0 0 1-.55.565.558.558 0 0 1-.55-.565c0-.312.245-.565.55-.565.303 0 .55.253.55.565zm-3.949 6.621c-.243-.766-.517-1.931-.517-2.493 0-1.026.551-2.164 2.544-2.513 0 1.24.602 4.281 1.331 4.281h.081c.728 0 1.33-3.018 1.33-4.282 2 .35 2.568 1.487 2.568 2.514 0 .562-.275 1.727-.519 2.493zm3.398-1.576c-.379 0-.687-1.985-.687-2.974 0-.54.308-.894.687-.894.38 0 .687.354.687.894 0 .989-.307 2.974-.687 2.974zm-.27-7.304l-.92.094v-.753l.92.094-.092-.942h.736l-.092.942.92-.094v.753l-.92-.094.092.941h-.736zm-37.403 23.57c-3.065-2.098-3.16-6.648-2.277-9.121.593 1.499 2.561 3.962 3.832 5.289-.113 1.264.298 3.506 1 4.874-1.006.382-2.2.959-3.044 1.602.56.706 1.766 1.801 2.523 2.394-.64.67-1.717 1.901-2.196 2.611.71.532 2.252 1.141 3.043 1.421-.39.799-.955 2.255-1.102 3.261.902.149 2.142.25 3.438.234-.063.962.072 2.454.24 3.346 1.202-.096 2.621-.589 3.254-.906.334 1.331 1.161 2.622 1.197 2.69 3.76-4.098 7.09-.232 7.09 3.38v4.922c0 2.328.733 3.392 2.844 3.392h2.731c1.7 0 3.124.721 3.835 2.107.711-1.386 2.135-2.107 3.835-2.107h2.732c2.11 0 2.842-1.064 2.842-3.392v-4.922c0-3.612 3.332-7.478 7.09-3.38.036-.068.863-1.359 1.198-2.69.633.317 2.051.81 3.254.906.167-.892.303-2.384.24-3.346 1.296.016 2.537-.085 3.437-.234-.145-1.006-.71-2.462-1.1-3.261.791-.28 2.333-.889 3.042-1.421-.479-.71-1.556-1.941-2.197-2.611.757-.593 1.963-1.688 2.525-2.394-.846-.643-2.038-1.22-3.044-1.602.702-1.368 1.112-3.61 1-4.874 1.27-1.327 3.238-3.79 3.832-5.289.883 2.473.788 7.023-2.278 9.121 1.481.036 4.09.332 5.414.753-.9 1.085-3.252 2.642-4.66 3.303 1.095.416 3.061 1.473 3.88 2.236-1.056.654-3.375 1.402-4.47 1.646.637.52 1.951 2.021 2.433 2.831-.908.284-2.773.531-3.959.6.38.795.813 2.196.927 3.111-.587.059-2.549-.043-3.52-.261.082.796.051 2.244-.08 2.868-.96-.139-2.328-.525-2.966-.773-.183.71-.842 2.239-1.074 2.602a9.258 9.258 0 0 1-2.359-.817c-.213.569-.697 1.42-.83 1.634-2.246-2.275-5.45-.43-5.45 1.992.23 1.595 2.475 1.506 3.658 2.256 1.554.987 1.286 3.273 2.886 3.624-1.512.959-1.952-.84-3.523-.892.21.971.19 2.694.032 3.417-.646-.501-1.552-.883-2.145-.922.146.566.26 1.892.05 2.718-.418-.318-1.976-1.674-5.67-.802-.449.106 2.506-.011 2.137.945-.29.753-.372 1.278-.024 2.347a1.577 1.577 0 0 1-.535.083c-.828 0-1.903-.482-2.33-1.239-.329.246-.329 1.997.775 2.431-1.18.087-2.079-.875-2.253-1.465 0 0-.577 1.376-1.262 1.827-.428-.151-1.194-.865-1.49-1.607-.296.742-1.06 1.456-1.49 1.607-.685-.451-1.262-1.827-1.262-1.827-.175.59-1.073 1.552-2.254 1.465 1.106-.434 1.106-2.185.776-2.431-.427.757-1.5 1.239-2.33 1.239-.196 0-.377-.026-.535-.083.348-1.069.266-1.594-.024-2.347-.369-.956 2.586-.839 2.138-.945-3.696-.872-5.252.484-5.669.802-.212-.826-.098-2.152.05-2.718-.594.039-1.5.421-2.147.922-.158-.723-.178-2.446.032-3.417-1.57.052-2.01 1.851-3.523.892 1.6-.351 1.331-2.637 2.887-3.624 1.182-.75 3.428-.661 3.66-2.256 0-2.422-3.207-4.267-5.452-1.992-.134-.214-.618-1.065-.83-1.634a9.252 9.252 0 0 1-2.36.817c-.23-.363-.89-1.892-1.075-2.602-.637.248-2.006.634-2.964.773-.132-.624-.163-2.072-.08-2.868-.972.218-2.934.32-3.52.261.114-.915.546-2.316.926-3.111-1.185-.069-3.05-.316-3.959-.6.482-.81 1.796-2.311 2.434-2.831-1.096-.244-3.415-.992-4.47-1.646.82-.763 2.784-1.82 3.88-2.236-1.409-.661-3.76-2.218-4.66-3.303 1.324-.421 3.932-.717 5.413-.753zm-8.183 23.208s.746.566.483 1.053c-.463.285-1.036-.465-1.036-.465l.276-.295z"/><clipPath id="zpuzc"><use fill="#fff" xlink:href="#zpuza"/></clipPath><radialGradient id="zpuzf" cx="1047.64" cy="1820.35" r="86.33" gradientUnits="userSpaceOnUse"><stop offset="0" stop-color="#30409a"/><stop offset="1" stop-color="#662e91"/></radialGradient><clipPath id="zpuzd"><use xlink:href="#zpuzb"/></clipPath></defs><g><g transform="translate(-1013 -1726)"><use fill="#fff" xlink:href="#zpuza"/><use fill="#fff" fill-opacity="0" stroke="#000" stroke-miterlimit="50" stroke-width="4" clip-path="url(&quot;#zpuzc&quot;)" xlink:href="#zpuza"/></g><g transform="translate(-1013 -1726)"><g/><g clip-path="url(#zpuzd)"><use fill="url(#zpuzf)" xlink:href="#zpuze"/></g></g></g></svg>