<svg xmlns="http://www.w3.org/2000/svg" xmlns:xlink="http://www.w3.org/1999/xlink" width="120" height="120" viewBox="0 0 120 120"><defs><path id="v0eja" d="M320 1754a8 8 0 0 1 8-8h88c13.255 0 24 10.745 24 24v88a8 8 0 0 1-8 8h-88c-13.255 0-24-10.745-24-24z"/><path id="v0ejc" d="M354.33 1806l26-26 26 26-26 26v-26.5"/><path id="v0ejd" d="M386 1780a6 6 0 1 1-12.002-.002A6 6 0 0 1 386 1780"/><path id="v0ejf" d="M386.33 1806a6 6 0 0 1-12 0 6 6 0 0 1 12 0"/><path id="v0ejg" d="M386 1832a6 6 0 1 1-12.002-.002A6 6 0 0 1 386 1832"/><path id="v0eji" d="M406 1812a6 6 0 1 1 0-12 6 6 0 0 1 0 12"/><path id="v0ejj" d="M354 1812a6 6 0 1 1 0-12 6 6 0 0 1 0 12"/><clipPath id="v0ejb"><use fill="#fff" xlink:href="#v0eja"/></clipPath><radialGradient id="v0eje" cx="376.2" cy="1784.87" r="12.18" gradientUnits="userSpaceOnUse"><stop offset="0" stop-color="#30409a"/><stop offset="1" stop-color="#662e91"/></radialGradient><radialGradient id="v0ejh" cx="376.2" cy="1836.87" r="12.18" gradientUnits="userSpaceOnUse"><stop offset="0" stop-color="#30409a"/><stop offset="1" stop-color="#662e91"/></radialGradient><radialGradient id="v0ejk" cx="350.2" cy="1810.87" r="12.18" gradientUnits="userSpaceOnUse"><stop offset="0" stop-color="#30409a"/><stop offset="1" stop-color="#662e91"/></radialGradient></defs><g><g transform="translate(-320 -1746)"><use fill="#fff" xlink:href="#v0eja"/><use fill="#fff" fill-opacity="0" stroke="#000" stroke-miterlimit="50" stroke-width="4" clip-path="url(&quot;#v0ejb&quot;)" xlink:href="#v0eja"/></g><g transform="translate(-320 -1746)"><g><use fill="#fff" fill-opacity="0" stroke="#000" stroke-miterlimit="50" stroke-width="3" xlink:href="#v0ejc"/></g><g><use fill="url(#v0eje)" xlink:href="#v0ejd"/><use fill="#fff" fill-opacity="0" stroke="#000" stroke-miterlimit="50" stroke-width="2" xlink:href="#v0ejd"/></g><g><use fill="#fff" xlink:href="#v0ejf"/><use fill="#fff" fill-opacity="0" stroke="#000" stroke-miterlimit="50" stroke-width="4" xlink:href="#v0ejf"/></g><g><use fill="url(#v0ejh)" xlink:href="#v0ejg"/><use fill="#fff" fill-opacity="0" stroke="#000" stroke-miterlimit="50" stroke-width="2" xlink:href="#v0ejg"/></g><g><g><use fill="#662d91" xlink:href="#v0eji"/><use fill="#fff" fill-opacity="0" stroke="#000" stroke-miterlimit="50" stroke-width="2" xlink:href="#v0eji"/></g></g><g><use fill="url(#v0ejk)" xlink:href="#v0ejj"/><use fill="#fff" fill-opacity="0" stroke="#000" stroke-miterlimit="50" stroke-width="2" xlink:href="#v0ejj"/></g></g></g></svg>