<svg xmlns="http://www.w3.org/2000/svg" xmlns:xlink="http://www.w3.org/1999/xlink" width="120" height="120" viewBox="0 0 120 120"><defs><path id="82hia" d="M1013 1314a8 8 0 0 1 8-8h88c13.255 0 24 10.745 24 24v88a8 8 0 0 1-8 8h-88c-13.255 0-24-10.745-24-24z"/><path id="82hic" d="M1095 1359h-17v11h27v-11z"/><path id="82hie" d="M1042 1378h11v-19h-11z"/><path id="82hig" d="M1042 1380v17h11v-17z"/><path id="82hii" d="M1055 1383h40v-11h-40z"/><path id="82hik" d="M1077.001 1385H1055v12h40.001v-12z"/><path id="82him" d="M1097 1397h8v-25h-8z"/><path id="82hio" d="M1060 1359h4v2h-4zm7 0h4v2h-4zm-7-4.999h4v2h-4zm7 0h4v2h-4zm-7-5.001h4v2h-4zm7 0h4v2h-4zm-9-11h14.999v8H1058zm-2-2v33h6.999v-5H1068v5h7v-33z"/><clipPath id="82hib"><use fill="#fff" xlink:href="#82hia"/></clipPath><radialGradient id="82hid" cx="1082.94" cy="1368.96" r="19.96" gradientUnits="userSpaceOnUse"><stop offset="0" stop-color="#30409a"/><stop offset="1" stop-color="#662e91"/></radialGradient><radialGradient id="82hif" cx="1044.01" cy="1376.21" r="16.25" gradientUnits="userSpaceOnUse"><stop offset="0" stop-color="#30409a"/><stop offset="1" stop-color="#662e91"/></radialGradient><radialGradient id="82hih" cx="1044.01" cy="1395.39" r="14.91" gradientUnits="userSpaceOnUse"><stop offset="0" stop-color="#30409a"/><stop offset="1" stop-color="#662e91"/></radialGradient><radialGradient id="82hij" cx="1062.32" cy="1381.96" r="28.11" gradientUnits="userSpaceOnUse"><stop offset="0" stop-color="#30409a"/><stop offset="1" stop-color="#662e91"/></radialGradient><radialGradient id="82hil" cx="1062.32" cy="1395.87" r="28.34" gradientUnits="userSpaceOnUse"><stop offset="0" stop-color="#30409a"/><stop offset="1" stop-color="#662e91"/></radialGradient><radialGradient id="82hin" cx="1098.46" cy="1394.64" r="19.8" gradientUnits="userSpaceOnUse"><stop offset="0" stop-color="#30409a"/><stop offset="1" stop-color="#662e91"/></radialGradient><radialGradient id="82hip" cx="1059.48" cy="1365.88" r="28.2" gradientUnits="userSpaceOnUse"><stop offset="0" stop-color="#30409a"/><stop offset="1" stop-color="#662e91"/></radialGradient></defs><g><g transform="translate(-1013 -1306)"><use fill="#fff" xlink:href="#82hia"/><use fill="#fff" fill-opacity="0" stroke="#000" stroke-miterlimit="50" stroke-width="4" clip-path="url(&quot;#82hib&quot;)" xlink:href="#82hia"/></g><g transform="translate(-1013 -1306)"><use fill="url(#82hid)" xlink:href="#82hic"/></g><g transform="translate(-1013 -1306)"><use fill="url(#82hif)" xlink:href="#82hie"/></g><g transform="translate(-1013 -1306)"><use fill="url(#82hih)" xlink:href="#82hig"/></g><g transform="translate(-1013 -1306)"><use fill="url(#82hij)" xlink:href="#82hii"/></g><g transform="translate(-1013 -1306)"><use fill="url(#82hil)" xlink:href="#82hik"/></g><g transform="translate(-1013 -1306)"><use fill="url(#82hin)" xlink:href="#82him"/></g><g transform="translate(-1013 -1306)"><use fill="url(#82hip)" xlink:href="#82hio"/></g></g></svg>