<svg xmlns="http://www.w3.org/2000/svg" xmlns:xlink="http://www.w3.org/1999/xlink" width="120" height="120" viewBox="0 0 120 120"><defs><path id="cnxja" d="M320 1509a8 8 0 0 1 8-8h88c13.255 0 24 10.745 24 24v88a8 8 0 0 1-8 8h-88c-13.255 0-24-10.745-24-24z"/><path id="cnxjc" d="M364.001 1546H380v2h-15.999zm0-5h11v2h-11zm0-5H380v2h-15.999zm-5.958-7v25h19.499v20H345v4h69.001v-4h-33.458v-20h19.499v-16.921l-9.041 9.042-6.061-6.061 2.121-2.12 3.94 3.939 8.939-8.94.102.103V1529z"/><path id="cnxje" d="M355 1586h49v-4h-49z"/><path id="cnxjg" d="M365 1594h29v-4h-29z"/><path id="cnxji" d="M399 1594h29.001v-4H399z"/><path id="cnxjk" d="M332 1594h29v-4h-29z"/><path id="cnxjm" d="M341 1586h9v-4h-9z"/><path id="cnxjo" d="M409 1586h9v-4h-9z"/><clipPath id="cnxjb"><use fill="#fff" xlink:href="#cnxja"/></clipPath><radialGradient id="cnxjd" cx="357.62" cy="1573.37" r="59.47" gradientUnits="userSpaceOnUse"><stop offset="0" stop-color="#30409a"/><stop offset="1" stop-color="#662e91"/></radialGradient><radialGradient id="cnxjf" cx="363.96" cy="1585.62" r="33.01" gradientUnits="userSpaceOnUse"><stop offset="0" stop-color="#30409a"/><stop offset="1" stop-color="#662e91"/></radialGradient><radialGradient id="cnxjh" cx="370.31" cy="1593.62" r="19.69" gradientUnits="userSpaceOnUse"><stop offset="0" stop-color="#30409a"/><stop offset="1" stop-color="#662e91"/></radialGradient><radialGradient id="cnxjj" cx="404.31" cy="1593.62" r="19.69" gradientUnits="userSpaceOnUse"><stop offset="0" stop-color="#30409a"/><stop offset="1" stop-color="#662e91"/></radialGradient><radialGradient id="cnxjl" cx="337.31" cy="1593.62" r="19.69" gradientUnits="userSpaceOnUse"><stop offset="0" stop-color="#30409a"/><stop offset="1" stop-color="#662e91"/></radialGradient><radialGradient id="cnxjn" cx="342.65" cy="1585.62" r="6.76" gradientUnits="userSpaceOnUse"><stop offset="0" stop-color="#30409a"/><stop offset="1" stop-color="#662e91"/></radialGradient><radialGradient id="cnxjp" cx="410.65" cy="1585.62" r="6.76" gradientUnits="userSpaceOnUse"><stop offset="0" stop-color="#30409a"/><stop offset="1" stop-color="#662e91"/></radialGradient></defs><g><g transform="translate(-320 -1501)"><use fill="#fff" xlink:href="#cnxja"/><use fill="#fff" fill-opacity="0" stroke="#000" stroke-miterlimit="50" stroke-width="4" clip-path="url(&quot;#cnxjb&quot;)" xlink:href="#cnxja"/></g><g transform="translate(-320 -1501)"><g><use fill="url(#cnxjd)" xlink:href="#cnxjc"/></g><g><use fill="url(#cnxjf)" xlink:href="#cnxje"/></g><g><use fill="url(#cnxjh)" xlink:href="#cnxjg"/></g><g><use fill="url(#cnxjj)" xlink:href="#cnxji"/></g><g><use fill="url(#cnxjl)" xlink:href="#cnxjk"/></g><g><use fill="url(#cnxjn)" xlink:href="#cnxjm"/></g><g><use fill="url(#cnxjp)" xlink:href="#cnxjo"/></g></g></g></svg>