<svg xmlns="http://www.w3.org/2000/svg" xmlns:xlink="http://www.w3.org/1999/xlink" width="120" height="120" viewBox="0 0 120 120"><defs><linearGradient id="a" x1="7.03" y1="112.97" x2="112.97" y2="7.03" gradientUnits="userSpaceOnUse"><stop offset="0" stop-color="#30409a"/><stop offset="1" stop-color="#662e91"/></linearGradient><radialGradient id="b" cx="60" cy="60" r="42.24" xlink:href="#a"/></defs><title>preference_06_garanty</title><path d="M112,120H24A24,24,0,0,1,0,96V8A8,8,0,0,1,8,0H96a24,24,0,0,1,24,24v88A8,8,0,0,1,112,120Z" style="fill:#fff"/><path d="M96,2a22,22,0,0,1,22,22v88a6,6,0,0,1-6,6H24A22,22,0,0,1,2,96V8A6,6,0,0,1,8,2H96m0-2H8A8,8,0,0,0,0,8V96a24,24,0,0,0,24,24h88a8,8,0,0,0,8-8V24A24,24,0,0,0,96,0Z" style="fill:url(#a)"/><path d="M84.41,90.18A2,2,0,0,0,84.28,92a.73.73,0,0,0,.89.45.66.66,0,0,0,.43-.66,1.57,1.57,0,0,0-1.19-1.58ZM82,78.31l.11,1.15-1-.11v1.31l1-.11L82,81.75h1.35l-.1-1.2,1,.11V79.35l-1,.11.1-1.15Zm.68,4.53a.49.49,0,0,0-.49.5.5.5,0,0,0,.49.5.49.49,0,0,0,.48-.5.48.48,0,0,0-.48-.5Zm0,2a.5.5,0,0,0-.49.5.49.49,0,0,0,.49.5.48.48,0,0,0,.48-.5.49.49,0,0,0-.48-.5Zm0,2.05a.5.5,0,0,0,0,1,.5.5,0,0,0,0-1Zm1.57.49a.48.48,0,0,0,.48.5.5.5,0,0,0,0-1,.48.48,0,0,0-.48.49Zm2,0a.49.49,0,0,0,.49.5.5.5,0,0,0,0-1,.49.49,0,0,0-.49.49Zm-3.6,2.24c-.42,0-1.44,2.11-.68,3.18a.84.84,0,0,0,.68.32.85.85,0,0,0,.68-.32c.76-1.07-.27-3.18-.68-3.18Zm-1.7.55a1.58,1.58,0,0,0-1.2,1.58.69.69,0,0,0,.43.66.74.74,0,0,0,.9-.45A2,2,0,0,0,81,90.18Zm-.79-2.79a.49.49,0,1,0,.49-.49.49.49,0,0,0-.49.49Zm-2,0a.48.48,0,0,0,.48.5.5.5,0,0,0,0-1,.48.48,0,0,0-.48.49Zm-.48,0a5,5,0,0,1,.07-.8h4V83.28h0v-.84a5,5,0,0,0-4,3.8.89.89,0,0,1-.73.21c-1.49-.18-4.5-.73-4.5-1.37a1.15,1.15,0,0,1,1.19-1.26c.84,0,1.76.45,2.53-.67-2.74.13-.64-3.84-2.88-4.59a10,10,0,0,1-.36,3.74,5.06,5.06,0,0,0-1.71-1.19,7.42,7.42,0,0,1-.39,3,6.46,6.46,0,0,0-2-1.22,6,6,0,0,1,.63,4.39c-.07.33.18.75.88.72a21.56,21.56,0,0,1,6.44.78,2.2,2.2,0,0,1,1.15.8,3.67,3.67,0,0,0,1.12,1.62,2.47,2.47,0,0,1,1.88-1.7c.2,0,.41.33.46.65,0-.29.53-1.11,1.06-1.11s1,.68,1.11,1.25c.05-.37.27-.75.46-.75A2.11,2.11,0,0,1,86.07,91a7.92,7.92,0,0,0,1.53-2.77H77.83a6.18,6.18,0,0,1-.07-.87Zm5.79-5v4.15h4a5,5,0,0,0-4-4.15ZM35.9,85.86a.4.4,0,0,0,.26,0c-.28.38-.26.63-.15.75s.32-.16.79-.65.79-.65.6-.83-.36-.12-.73.18a.35.35,0,0,0,0-.26A1.91,1.91,0,0,0,35.43,84a.42.42,0,0,0-.16,0c.17-.28.13-.49,0-.61s-.2,0-.34.15a.69.69,0,0,0-.14-.47,23.72,23.72,0,0,0-4.44-4.15c-.43-.18-.56.06-.56.06s-.24.16-.05.59A24.35,24.35,0,0,0,34,84a.64.64,0,0,0,.46.12c-.18.15-.26.23-.13.36s.32.15.59,0a.52.52,0,0,0,0,.18,1.93,1.93,0,0,0,1,1.27Zm-7.54-8.77a.42.42,0,0,0-.32.13.51.51,0,0,0-.1.45,1.18,1.18,0,0,0,.33.58,1,1,0,0,0,.69.33.45.45,0,0,0,.32-.12c.21-.23.11-.7-.23-1a1,1,0,0,0-.69-.33Zm9.76,11c0-.32-.6-.84-1.3-.84-1,0-1.49.66-1.49,1a.76.76,0,0,0,.8.73,3.39,3.39,0,0,0,2-.89Zm-.9,1.58a1.25,1.25,0,0,0-.31,1,.81.81,0,0,0,.83.57,1,1,0,0,0,.89-.47,3.41,3.41,0,0,0,.28-2.17,3,3,0,0,0-1.69,1Zm-9.13-14.5c-.29-.3-.89.14-1.25-.06.16-.9.79,0,1.4-.61a.59.59,0,0,0,0-.78c-.26.27-.67.17-.7,0,.69-1.64-.66-3.47-2-3.24a3.24,3.24,0,0,1,.22,1.85c.5.36.14,1.2-.4,1a1.07,1.07,0,0,1-.27-1.72c0-.23-.43-.29-.87.27.32-1-1.63-.71-2-.46-.23.42-.48,2.44.51,2.08-.53.46-.46.88-.23.9a1,1,0,0,1,1.67.22c.25.55-.55.94-.91.45a3.08,3.08,0,0,1-1.81-.17c-.18,1.34,1.64,2.68,3.21,1.91.15,0,.25.45,0,.73a.55.55,0,0,0,.76,0c.61-.65-.32-1.27.54-1.46.21.36-.19,1,.1,1.29.47.47,1.06-.44,1.64-.48,0-.6.88-1.23.41-1.7Zm-4.87-2.08s-.31-.22.06-.61.59-.09.59-.09.35.77.45,1.12a10.75,10.75,0,0,1-1.1-.42Zm3,2.33c-.19,0-.64.42-.86.2l-1-1,.51-.55.52-.55,1,1c.22.22-.15.7-.17.89Zm17,15.69a.38.38,0,0,0-.07-.36s-.05,0-.07,0-.18.16-.31.32l-.39.46-.44.42c-.14.13-.29.27-.29.33a.09.09,0,0,0,0,.06.29.29,0,0,0,.21.08c.13,0,.42-.07.85-.52a1.88,1.88,0,0,0,.47-.75Zm0,1.22a2.92,2.92,0,0,1-.58.49,1,1,0,0,0,.66.25.92.92,0,0,0,.51-.15,1,1,0,0,0-.13-1.2,4.16,4.16,0,0,1-.46.61Zm-3.46-2.91a2.84,2.84,0,0,0-.38,1.86.42.42,0,0,0,.48.38.44.44,0,0,0,.46-.44,2.84,2.84,0,0,0-.56-1.8Zm-.21-3s1.93,1.72,2.58,2.33a.46.46,0,0,0,.57.07l.43-.2A20.26,20.26,0,0,1,49.4,88c.7,0,.94-.39.87-.72a6.23,6.23,0,0,1,.64-4.39A6.46,6.46,0,0,0,49,84.06a7.61,7.61,0,0,1-.4-3,5.09,5.09,0,0,0-1.7,1.19,10,10,0,0,1-.36-3.74c-2.24.75-.14,4.72-2.88,4.59.77,1.12,1.69.67,2.53.67a1.11,1.11,0,0,1,1.19,1.26c-.08.64-3.76,1.43-5.24,1.43a2.5,2.5,0,0,1-2.24-1c-.25-.34-.5-.5-.79-.46s-.77.42-.77,1.26c0,.6.24,1.9,1,1.9.5,0,.52-1,.31-1.71ZM42,91c.33-.36.45-.62.37-.82a12,12,0,0,0-1.88-2.11,5.18,5.18,0,0,1-.14.59,3.06,3.06,0,0,1,.7,2.65l.16.1c.26.1.58-.19.79-.41Zm-4.86-4.85a.86.86,0,0,0-.21.29,2.72,2.72,0,0,1,.67.1,3.93,3.93,0,0,1,0-.69.93.93,0,0,0-.45.3Zm33.59,6.13a2.51,2.51,0,0,0,1.21-1.84,3.21,3.21,0,0,1-1.38.29,13.89,13.89,0,0,1-4.87-1.52,1.93,1.93,0,0,1-.94.36c1.65.5,4.89,2.3,5.13,3.45a1,1,0,0,1-.34,1.07,10.72,10.72,0,0,0-5.06-3.92,3.27,3.27,0,0,1-.08.74,4.31,4.31,0,0,1-1.57-.07c.93.78,3.39,3.54,3.65,5.63.18,1.39-.79,1.46-.79,1.46a10.93,10.93,0,0,0-3.23-6.45,2.72,2.72,0,0,1-.75.77,4,4,0,0,1-1.35-.54,53.3,53.3,0,0,1,.23,7.45,1.62,1.62,0,0,1-.54,1.08,1.62,1.62,0,0,1-.54-1.08,53.3,53.3,0,0,1,.23-7.45,4,4,0,0,1-1.35.54,2.72,2.72,0,0,1-.75-.77A10.93,10.93,0,0,0,54.36,98s-1-.07-.8-1.46c.27-2.09,2.72-4.85,3.66-5.63a4.31,4.31,0,0,1-1.57.07,2.7,2.7,0,0,1-.08-.74,10.67,10.67,0,0,0-5.06,3.92,1,1,0,0,1-.34-1.07c.24-1.15,3.48-3,5.12-3.45a1.92,1.92,0,0,1-.93-.36,13.89,13.89,0,0,1-4.87,1.52,3.18,3.18,0,0,1-1.38-.29,2.49,2.49,0,0,0,1.21,1.84c-2.21,1.56-.84,5.21-3.82,4.52a6.82,6.82,0,0,0,5,3.39c-.74-1.63.19-6.59,4.64-8.85-2.74,2.73-4,6-3.26,8.38a4.68,4.68,0,0,0,4.46,3A10.42,10.42,0,0,1,58.3,92.65c-1,2.8-2.47,10.28,1.7,11.71,4.17-1.43,2.72-8.91,1.7-11.71a10.42,10.42,0,0,1,1.95,10.16,4.68,4.68,0,0,0,4.46-3c.73-2.34-.52-5.65-3.26-8.38,4.45,2.26,5.38,7.22,4.64,8.85a6.82,6.82,0,0,0,5-3.39c-3,.69-1.61-3-3.82-4.52ZM60.35,30.67a.39.39,0,1,0-.77,0,.39.39,0,1,0,.77,0Zm1.95,0a.39.39,0,1,0-.77,0,.39.39,0,1,0,.77,0Zm-3-10.35a.72.72,0,1,0,.72-.75.74.74,0,0,0-.72.75Zm.23-1.59h1l-.1-1.19,1.06.11v-.94l-1.06.12.1-1.19h-1l.1,1.19-1.06-.12v.94l1.06-.11-.1,1.19Zm-1.1,11.94a.39.39,0,1,0-.78,0,.39.39,0,0,0,.78,0Zm-2.32,1.47a1,1,0,0,0,.37.06h7.08a1,1,0,0,0,.37-.06.62.62,0,0,0,.42-.53H55.67a.62.62,0,0,0,.42.53Zm.39-1.47a.39.39,0,1,0-.78,0,.39.39,0,0,0,.78,0Zm7.75,0a.39.39,0,1,0-.77,0,.39.39,0,1,0,.77,0Zm.46-1a8.64,8.64,0,0,0,1.2-4.12c0-1.75-2.2-2.71-3.5-2.75-.15,2.49-1.12,6.42-2.39,6.42s-2.24-3.9-2.39-6.42c-1.3,0-3.5,1-3.5,2.75a8.64,8.64,0,0,0,1.2,4.12ZM60,28c.6,0,1.37-2.49,1.56-4.85a1.61,1.61,0,0,0-3.12,0c.17,2.2,1,4.85,1.56,4.85Zm-19,12.7c-1.16,1.59.44,3.34.54,3.46s.13.05.12,0,.83-2.54,5.67-1.25c.11,0,.17,0,.07-.07a8.05,8.05,0,0,1-2.3-3.58s-2.94-.1-4.1,1.49Zm2.59-.33c0-.45.65-.57,1-.57a4.56,4.56,0,0,0,.33.67,2.36,2.36,0,0,0-1.35-.1Zm2.57-2.08c-.32,0-.44.2-.33.56C47,42.63,50,43.53,51.22,45.15a4.65,4.65,0,0,1,.55-1.71,5,5,0,0,0,2.06,1.93,6.1,6.1,0,0,1-.2-2.55c1.57,1.38,3.51,1.65,4.55.86-.89,0-2-1-2.62-1.83a3.26,3.26,0,0,0,2.16-.24,3.42,3.42,0,0,1-1.51-1,3.23,3.23,0,0,0,2.18-1.18,2.87,2.87,0,0,1-1.72-.35,4.25,4.25,0,0,0,1.5-2,14.37,14.37,0,0,1-6.4,1.28l-5.56,0ZM49.58,40a3.76,3.76,0,0,0-1.3.8l-.54-.9c-.13-.21-.17-.48.27-.48h2.67c0,.18-.24.24-1.1.58Zm-9.12,6.11a1.86,1.86,0,0,0,2.8.49c1.73-1,2.62-1.56,2.62-1.56a1.59,1.59,0,0,0-.06,1.15s0,0,.06,0a5.27,5.27,0,0,1,3.59-1.73c-.7-.62-1.47-1.17-1.47-1.17a13.31,13.31,0,0,0-4.46,2c-2,1.34-3,.78-3,.75s-.1,0,0,0ZM65,88.76a1.37,1.37,0,0,0,.67-.41,3.82,3.82,0,0,1-2.82-1.91,5.19,5.19,0,0,1-1.23,1.3A3.21,3.21,0,0,1,60,86.51a3.21,3.21,0,0,1-1.59,1.23,5.19,5.19,0,0,1-1.23-1.3,3.82,3.82,0,0,1-2.82,1.91,1.37,1.37,0,0,0,.67.41,2,2,0,0,0,.64.11,1.76,1.76,0,0,0,.68-.14,3.14,3.14,0,0,0-.08,1.48A3.59,3.59,0,0,0,57.7,90a2.55,2.55,0,0,0,.58,1.34,1.9,1.9,0,0,0,.21.19A2.8,2.8,0,0,0,60,90.78a2.8,2.8,0,0,0,1.51.74,1.9,1.9,0,0,0,.21-.19A2.55,2.55,0,0,0,62.3,90a2.43,2.43,0,0,0,1.13.23h.3a3.14,3.14,0,0,0-.08-1.48,1.76,1.76,0,0,0,.68.14,2,2,0,0,0,.64-.11ZM51.74,60.46a.4.4,0,0,0-.42.43V77.12c0,1.55.61,2.33,1.81,2.33l3,0c2,0,3.27.7,3.86,1.58a4.56,4.56,0,0,1,3.86-1.58l3,0c1.2,0,1.81-.78,1.81-2.33V60.89a.4.4,0,0,0-.42-.43Zm2.94,15.18a.84.84,0,0,0,1.07.81,1.51,1.51,0,0,0,.17.77c-1.21.27-1.74-.73-1.24-1.58Zm11-5.37-.49-.54c-.18-.19-.3-.27-.48-.27a2.11,2.11,0,0,0-1,.37s0,0,0,.06l.72-.07a.84.84,0,0,1,.6.12.55.55,0,0,1,.23.42c0,.55.46,1.71.49,2.06,0,.14-.13.18-.36.82-.17.19-.62-.41-.56-.55.27-.35.34-.56.28-.82s-.16-.58-.23-.78a.44.44,0,0,0-.61-.27c-1.1.36-1.27-.13-2.36.33l1.26,1.95a.85.85,0,0,0-.28-.58c0-.2.44-.28.58-.1a1.68,1.68,0,0,0,.83.62c.56.11.52,1,2,1.24a.78.78,0,0,1-.78,0,.78.78,0,0,0,.46.39c-.23.23-.9-.32-.83.23a.64.64,0,0,1,.41,0,1.86,1.86,0,0,1-.24,2.52c.22.06.45,0,.68,0a.28.28,0,0,1,.26.26.85.85,0,0,1,.22.28.39.39,0,0,1-.31,0,.57.57,0,0,1,0,.33.39.39,0,0,1-.26-.1,1,1,0,0,1-.7-.07,4.23,4.23,0,0,1-1,.19c-.19,0-.43,0-.42-.24a.72.72,0,0,1,.1-.29c-.16-.16-.42,0-.74,0s-.6,0-.69-.11A.85.85,0,0,0,62,76.23c.51.49.44,1.28-.13,1.46a.48.48,0,0,1,.31.25c.2.08.21.23.19.29a.73.73,0,0,0-.46-.13c0,.07,0,.2-.1.25a.46.46,0,0,1-.2-.13c-.18-.14-1.31.13-1.38-.06s.26-.32.54-.38c-.72-.27-1.35-1.63-2.46-1.86-.51-.1-1.21.13-1.21.8a.57.57,0,0,0,.55.58.36.36,0,0,0,.4-.36l-.1.07a.36.36,0,0,1-.51-.52.56.56,0,0,1,.39-.22,1,1,0,0,1,1.21.94c0,.77-.77,1-1.2,1a1.62,1.62,0,0,1-1.71-1.67c0-.1,0-.2,0-.31A2,2,0,0,1,58,74.63a1.73,1.73,0,0,0-.56-.86.24.24,0,0,1-.07-.36,2.37,2.37,0,0,0,.3-.62c0-.05,0-.1,0-.16a4.42,4.42,0,0,1-1.67.89.68.68,0,0,0-.39.57,8.46,8.46,0,0,0-.05.87.56.56,0,0,0,.08.2,1.9,1.9,0,0,1,.33.77c0,.14-.72.16-.72,0,0-.52-.36-.72-.32-1.07a4.84,4.84,0,0,0,0-1.61.3.3,0,0,1,.15-.3c.15-.12.31-.22.47-.34A1,1,0,0,0,56,71.56a.58.58,0,0,0-.06-.17,3,3,0,0,1-.31-1.25c0-.49-.61-.47-.57,0a1.77,1.77,0,0,0,.19.51,1.73,1.73,0,0,1-1.66,2.48c1.22-.43-.29-2-.29-3.17a1.21,1.21,0,0,1,1.21-1.24,2.32,2.32,0,0,1,1.39.57c.36-.58,1.49-.69,1.92-.76a1.06,1.06,0,0,1,.2-.83.09.09,0,0,0,0-.07,4.28,4.28,0,0,0-.2-.44,1.89,1.89,0,0,0-.43,1.19,3.67,3.67,0,0,1-2.24-.81,4.87,4.87,0,0,1,.65-1.12,3.24,3.24,0,0,0-.81,1,2.93,2.93,0,0,0-.56-.33,5.69,5.69,0,0,1,1.16-1.61A3.2,3.2,0,0,0,54.06,67a2.74,2.74,0,0,0-.64,0c.75-.92,1.09-2.73,2.74-3.14-.41,1.68.62,2.37,1.32,1.93a1.46,1.46,0,0,1-.21,0c-1.38-.35-.56-2.27-.9-2.67a.59.59,0,0,1-.17-.48.39.39,0,0,0,0-.21l-.74-1.22c-.09-.16.2-.27.26-.2l.75,1.23s0,.08.07.08c.27,0,.36.28.47.48a.74.74,0,0,1,.07.21.23.23,0,0,1,0,.17c-.12.12-.1.24,0,.4l4.59,7.65a9.07,9.07,0,0,1-3.21.38,2.81,2.81,0,0,1-.51.78,2.5,2.5,0,0,0,.6-.57c.19,0,.48.1.78.12a3.3,3.3,0,0,1-.78,1.07c-.16.16-.36.3-.29.55A14,14,0,0,0,59,74.78a5.41,5.41,0,0,1,.75.21,1,1,0,0,0,1.15.47c-1.11,0-1-1.16-.69-1.76,0,.56.24,1,.58,1.08a1.67,1.67,0,0,1,0-2.12c.07,1,.35,1.45.77,1.56a1.76,1.76,0,0,1,0-2.5c.06,2.16,2,1.77,2.22,4.28a.65.65,0,0,0,.36-1.17,1.09,1.09,0,0,1-.57-.46,3.68,3.68,0,0,1-.15-.35c-.22-.64-.83-.6-.82-.75s.12-.08.25-.08L61.65,71.4l-.06-.09c.14,0,.17-.11,0-.34L57.25,63.7a2.23,2.23,0,0,1,1.17.18.62.62,0,0,1-.2-.36c0-.11,0-.17.08-.24a1.24,1.24,0,0,0,.25-.26.89.89,0,0,1,1-.39.65.65,0,0,1,.34,1.1c-.22.47-.48.41-.54.62.11.05.85.62.9.86a2.18,2.18,0,0,0-.14,1.59c.15-1.92,1.3-2.86,2.43-2.86a2.44,2.44,0,0,1,.79.14,1.5,1.5,0,0,1,.42.21,5.23,5.23,0,0,1,.49.45,1.15,1.15,0,0,0,.79.52,2.18,2.18,0,0,1-.36.38.44.44,0,0,0-.15.3,1.12,1.12,0,0,1-.31.71.18.18,0,0,0-.06.09c-.12.37-.25.73-.37,1.09,0,.09,0,.21-.14.21A.56.56,0,0,1,63.3,68a.5.5,0,0,1-.16-.54.87.87,0,0,0-.07-.57,5,5,0,0,1-.13-.61c-.31-.11-.88.55-.44,1.11a4.42,4.42,0,0,1,.58,1.46.77.77,0,0,1-.63.16,2.78,2.78,0,0,1-2.28-1.77,2.16,2.16,0,0,0,2.54,2.08.6.6,0,0,0,.57.49,2.09,2.09,0,0,0,0-.83c0-.11,0-.16.14-.19a10.29,10.29,0,0,0,1.14-.18c.33-.12.49,0,.69.35a3.49,3.49,0,0,0,.68.85l.31.29a.67.67,0,0,1,.2.46,7.35,7.35,0,0,0,0,.88c-.08.19-.61,0-.69-.22s.23-.61,0-.9Zm9.13-31a8.05,8.05,0,0,1-2.3,3.58c-.1.1,0,.1.07.07,4.84-1.29,5.68,1.17,5.67,1.25s0,.13.12,0,1.7-1.87.54-3.46-4.1-1.49-4.1-1.49ZM75,40.5a4.56,4.56,0,0,0,.33-.67c.37,0,1,.12,1,.57a2.36,2.36,0,0,0-1.35.1Zm4.53,5.64c0-.06,0-.07-.05,0s-1,.59-3-.75a13.31,13.31,0,0,0-4.46-2s-.77.55-1.47,1.17a5.27,5.27,0,0,1,3.59,1.73s0,0,.06,0a1.59,1.59,0,0,0-.06-1.15s.89.55,2.62,1.56a1.86,1.86,0,0,0,2.8-.49ZM63.33,39.07a2.87,2.87,0,0,1-1.72.35,3.23,3.23,0,0,0,2.18,1.18,3.48,3.48,0,0,1-1.51,1,3.26,3.26,0,0,0,2.16.24c-.58.87-1.74,1.86-2.62,1.83,1,.79,3,.52,4.55-.86a6.1,6.1,0,0,1-.2,2.55,5,5,0,0,0,2.06-1.93,4.65,4.65,0,0,1,.55,1.71c1.2-1.62,4.23-2.52,5.34-6.27.11-.36,0-.56-.33-.56l-5.56,0A14.37,14.37,0,0,1,61.83,37a4.25,4.25,0,0,0,1.5,2Zm8.66.38c.44,0,.4.27.27.48l-.54.9a3.9,3.9,0,0,0-1.3-.8c-.86-.34-1.1-.4-1.1-.58ZM52.07,45.08a3.68,3.68,0,0,0-.13,1.73,10.61,10.61,0,0,1,.66,4.74,10.13,10.13,0,0,0,1.54-3.76,21.44,21.44,0,0,1,1.64,1.88c.08-.66.22-1.47.34-2.06a9,9,0,0,0,3,1.72A15.37,15.37,0,0,0,57.4,45a4.34,4.34,0,0,1-3-.78,6.53,6.53,0,0,0,.78,2.07,3.21,3.21,0,0,1-3.06-1.19Zm15.86,0a3.21,3.21,0,0,1-3.06,1.19,6.53,6.53,0,0,0,.78-2.07A4.34,4.34,0,0,1,62.6,45a15.55,15.55,0,0,0-1.71,4.35,9,9,0,0,0,3-1.72c.12.59.26,1.4.34,2.06a21.44,21.44,0,0,1,1.64-1.88,10.13,10.13,0,0,0,1.54,3.76,10.61,10.61,0,0,1,.66-4.74,3.68,3.68,0,0,0-.13-1.73Zm-12.2,8.36a8.52,8.52,0,0,1,1.18,2.82,8.86,8.86,0,0,0,1.42-3A14.86,14.86,0,0,1,60,55.92a14.86,14.86,0,0,1,1.67-2.65,8.86,8.86,0,0,0,1.42,3,8.52,8.52,0,0,1,1.18-2.82,4.54,4.54,0,0,0,3.59,3.42,7.46,7.46,0,0,1-1-4.52,12.86,12.86,0,0,1-1.38-2.74A14.3,14.3,0,0,0,63.58,52a22.3,22.3,0,0,0-.28-2.92,7.05,7.05,0,0,1-2.57,1.24A6,6,0,0,0,60,52.42a6,6,0,0,0-.73-2.06,7.05,7.05,0,0,1-2.57-1.24A22.3,22.3,0,0,0,56.42,52a14.3,14.3,0,0,0-1.88-2.44,12.86,12.86,0,0,1-1.38,2.74,7.46,7.46,0,0,1-1,4.52,4.54,4.54,0,0,0,3.59-3.42ZM41.06,73.24a7.3,7.3,0,0,0,2.14-3,8.35,8.35,0,0,1-1.49.44c-.54,1-1.31.64-1.33.49a4.08,4.08,0,0,0,.5-.69A14.26,14.26,0,0,1,40.22,69,9.49,9.49,0,0,1,36.84,73c.7,1,2.87,1.17,4.22.29Zm2.81-2.74c-.65,1.36-.5,3.45,1.56,3.51a4.31,4.31,0,0,1,1.21-3.51,6.22,6.22,0,0,0-1.62,1,2.71,2.71,0,0,0-.18.8c-.43.07-.66-.26-.49-1a2.92,2.92,0,0,1-.48-.8ZM33.71,72.05a3.8,3.8,0,0,0,.89-.11,10.31,10.31,0,0,0,5-3.61,10,10,0,0,1-2,.41,4.26,4.26,0,0,1-.89.8,1.1,1.1,0,0,1-.58.17.93.93,0,0,1-.8-.46,5.84,5.84,0,0,0,1.48-1,9,9,0,0,1-.2-1.71,13.62,13.62,0,0,1-6.54,3.39,4.4,4.4,0,0,0,3.65,2.17Zm-4-3.33h.31a14.34,14.34,0,0,0,6.07-2.64,10.41,10.41,0,0,1-2.45.05,5.69,5.69,0,0,1-2,.85c-1.45.18-1.61-.72-1.61-.72a10.31,10.31,0,0,0,3.05-.91,12.91,12.91,0,0,1,.43-2,20.29,20.29,0,0,1-8.08,2.16c.43,1,2.12,3.19,4.26,3.19Zm.32-7.34a12.91,12.91,0,0,1,1.26-1.74,22.06,22.06,0,0,1-5.33.6A21.53,21.53,0,0,1,22.34,60a4.73,4.73,0,0,0,4.17,4.19l.47,0a22.31,22.31,0,0,0,6.25-1.35,16.92,16.92,0,0,1-2.89-.6,14.53,14.53,0,0,1-2.88.44,1.28,1.28,0,0,1-1.34-1,18.08,18.08,0,0,0,3.94-.3Zm-6.53-2.65a15.6,15.6,0,0,0,4.42.51,24.31,24.31,0,0,0,3.2-.23,16.18,16.18,0,0,1-3.09-1.39,14,14,0,0,1-3.29-.32c-1.31-.4-1.29-1.29-1.27-1.5a16.53,16.53,0,0,0,4.48,1,13,13,0,0,1,2.18-1.63,24.27,24.27,0,0,1-10.09-2.59c-.56,4.5,2.5,5.86,3.46,6.17Zm7.41-9.33a9.35,9.35,0,0,1-1.09-3.5,17.68,17.68,0,0,1-4.42-4.62c-.6-1-.38-2,0-2.27a17.75,17.75,0,0,0,4.37,5.89,11.53,11.53,0,0,1,.45-3.06,34.8,34.8,0,0,1-5.34-8,6.6,6.6,0,0,0-2.14,4,8.09,8.09,0,0,0,1.94,6.13,29.76,29.76,0,0,0,6.19,5.49Zm-.64,5.1a11.36,11.36,0,0,1-3.16-2.81,15.91,15.91,0,0,1-3.76-1.94c-1.12-1-.77-1.79-.64-2a17.66,17.66,0,0,0,4.65,3.11,15.91,15.91,0,0,1,3.55-.8,26.55,26.55,0,0,1-10-7c-.43.84-2.19,4.8,1.11,8,1.74,1.71,5.31,2.89,8.28,3.35ZM79.78,69a14.26,14.26,0,0,1-.66,1.47,4.08,4.08,0,0,0,.5.69c0,.15-.79.56-1.33-.49a8.35,8.35,0,0,1-1.49-.44,7.3,7.3,0,0,0,2.14,3c1.35.88,3.52.68,4.22-.29A9.49,9.49,0,0,1,79.78,69ZM76.13,70.5a2.92,2.92,0,0,1-.48.8c.17.69-.06,1-.49,1a2.71,2.71,0,0,0-.18-.8,6.22,6.22,0,0,0-1.62-1A4.31,4.31,0,0,1,74.57,74c2.06-.06,2.21-2.15,1.56-3.51Zm7.07-2.3a5.84,5.84,0,0,0,1.48,1,.93.93,0,0,1-.8.46,1.1,1.1,0,0,1-.58-.17,4.26,4.26,0,0,1-.89-.8,10,10,0,0,1-2-.41,10.31,10.31,0,0,0,5,3.61,3.8,3.8,0,0,0,.89.11,4.4,4.4,0,0,0,3.65-2.17,13.62,13.62,0,0,1-6.54-3.39,9,9,0,0,1-.2,1.71Zm3.67-2.86a10.31,10.31,0,0,0,3,.91s-.16.9-1.61.72a5.69,5.69,0,0,1-2-.85,10.41,10.41,0,0,1-2.45-.05A14.34,14.34,0,0,0,90,68.71h.31c2.14,0,3.82-2.16,4.26-3.19a20.29,20.29,0,0,1-8.08-2.16,12.91,12.91,0,0,1,.43,2Zm1.81-5.7a12.91,12.91,0,0,1,1.26,1.74,18.08,18.08,0,0,0,3.94.3,1.28,1.28,0,0,1-1.34,1,14.53,14.53,0,0,1-2.88-.44,16.92,16.92,0,0,1-2.89.6A22.31,22.31,0,0,0,93,64.19l.47,0A4.73,4.73,0,0,0,97.66,60a21.53,21.53,0,0,1-3.65.26,22,22,0,0,1-5.33-.6Zm11.25-7.08a24.27,24.27,0,0,1-10.09,2.59A13,13,0,0,1,92,56.78a16.53,16.53,0,0,0,4.48-1c0,.21,0,1.1-1.27,1.5a14,14,0,0,1-3.29.32A16.18,16.18,0,0,1,88.85,59a24.31,24.31,0,0,0,3.2.23,15.6,15.6,0,0,0,4.42-.51c1-.31,4-1.67,3.46-6.17ZM94.53,39c.42.31.64,1.23,0,2.27a17.68,17.68,0,0,1-4.42,4.62,9.35,9.35,0,0,1-1.09,3.5,29.76,29.76,0,0,0,6.19-5.49,8.09,8.09,0,0,0,1.94-6.13,6.6,6.6,0,0,0-2.14-4,34.8,34.8,0,0,1-5.34,8,11.53,11.53,0,0,1,.45,3.06A17.75,17.75,0,0,0,94.53,39ZM92.61,50.9a17.66,17.66,0,0,0,4.65-3.11c.13.17.48,1-.64,2a15.91,15.91,0,0,1-3.76,1.94A11.36,11.36,0,0,1,89.7,54.5c3-.46,6.54-1.64,8.28-3.35,3.3-3.24,1.54-7.2,1.11-8a26.55,26.55,0,0,1-10,7,15.91,15.91,0,0,1,3.55.8Zm-8.87-4.56c-1.24,2.87-4.37,5.43-6.4,6.71a1.58,1.58,0,0,0-.29,2.19c2.76,4.59-2.26,8-6.8,5.74a2.3,2.3,0,0,0,2.13-1.58,2.29,2.29,0,0,1-2-.23c.58-.31.72-.62.75-.91-.72.44-2.18.51-2.61-.24a5.07,5.07,0,0,1-4.17-2.48,12.88,12.88,0,0,0-.56,2.57,6.92,6.92,0,0,1-2.34-2.79A10.4,10.4,0,0,0,60,58.42a10.4,10.4,0,0,0-1.47-3.1,6.92,6.92,0,0,1-2.34,2.79,12.88,12.88,0,0,0-.56-2.57A5.07,5.07,0,0,1,51.46,58c-.43.75-1.89.68-2.61.24,0,.29.17.6.75.91a2.29,2.29,0,0,1-2,.23A2.3,2.3,0,0,0,49.75,61c-4.54,2.27-9.56-1.15-6.8-5.74a1.58,1.58,0,0,0-.29-2.19c-2-1.28-5.16-3.84-6.4-6.71a9.76,9.76,0,0,0,1.22,5.89,15.85,15.85,0,0,0-2.88,1.45A16.17,16.17,0,0,0,37,55.76a18.69,18.69,0,0,0-2.15,2.37,16.84,16.84,0,0,0,3,1.19,12.9,12.9,0,0,0-1.38,3,18.92,18.92,0,0,0,3.33.12,13.15,13.15,0,0,0,0,3.08,10.11,10.11,0,0,0,3-1,12.34,12.34,0,0,0,.91,2.57A4,4,0,0,1,47.34,66a4.6,4.6,0,0,1,3.25,3V60.45a.65.65,0,0,1,.73-.73H68.68a.65.65,0,0,1,.73.73V69a4.6,4.6,0,0,1,3.25-3,4,4,0,0,1,3.54,1.14,12.34,12.34,0,0,0,.91-2.57,10.11,10.11,0,0,0,3,1,13.72,13.72,0,0,0,.05-3.08,11.79,11.79,0,0,0,3.33-.12,12.9,12.9,0,0,0-1.38-3,13.47,13.47,0,0,0,3-1.19A18.69,18.69,0,0,0,83,55.76a16.17,16.17,0,0,0,2.44-2.08,15.85,15.85,0,0,0-2.88-1.45,9.83,9.83,0,0,0,1.22-5.89Zm-31.56-9-.11.27c3,0,6-1,6.73-4.66H56.48c-.41,2.61-1.95,4.39-4.3,4.39ZM39.06,31.43a3.56,3.56,0,0,1,2.31,2.72c.65,2.34,2.28,3.46,4,3.46l-.1-.32c-1-.12-2.35-1.51-2.61-4.08s-.89-2.93-.89-2.93c-.66-.45-2.3.75-2.66,1.15Zm-4.86,1c1.39,0,2.32.4,4.06-1.19,2.05-1.87,3-1.55,3-1.55-1-.68-2.51-1-3-.59A18.52,18.52,0,0,1,36,31.34c-1.61,1.07-3.26.79-3.34,1.78h0s.16-.6,1.54-.65Zm1.28,6.22a4.47,4.47,0,0,1,.92,2.53,4.57,4.57,0,0,0,.17-3.73c-.83-1.92-2.52-3.4-.86-4.52-1,0-2.12-.23-2.6.46-.15.22-.29.75.22,1.51.64,1,2.25,3.2.93,4.69a1.58,1.58,0,0,0,1.22-.94ZM45.87,37.6h5.7s.15-.35.33-.85H45.55c.18.5.32.85.32.85Zm3.41-8.11a.55.55,0,1,0-1.09,0,.55.55,0,1,0,1.09,0Zm2.85,6.62a10.56,10.56,0,0,0,.52-2.49c0-1-.55-2.16-2.54-2.51,0,1.24-.61,4.28-1.33,4.28h-.09c-.72,0-1.33-3-1.33-4.28-2,.35-2.56,1.48-2.56,2.51a11,11,0,0,0,.51,2.49Zm-3.39-1.57c.37,0,.68-2,.68-3,0-.54-.31-.89-.68-.89s-.69.35-.69.89c0,1,.31,3,.69,3Zm-.37-6.37h.73L49,27.23l.92.1v-.76l-.92.1.09-.94h-.73l.09.94-.92-.1v.76l.92-.1-.09.94Zm15.15,4.76H61.2c.78,3.62,3.69,4.66,6.73,4.66l-.11-.27c-2.35,0-3.89-1.78-4.3-4.39Zm11.16,4.68c1.67,0,3.3-1.12,3.95-3.46a3.56,3.56,0,0,1,2.31-2.72c-.36-.4-2-1.6-2.66-1.15,0,0-.63.33-.89,2.93s-1.63,4-2.61,4.08l-.1.32Zm7.06-6.33c1.74,1.59,2.67,1.15,4.06,1.19s1.54.65,1.54.65h0c-.08-1-1.73-.71-3.34-1.78a18.52,18.52,0,0,1-2.32-2.2c-.51-.4-2-.09-3,.59,0,0,1-.32,3,1.55Zm5.15,2.15c-.48-.69-1.58-.45-2.6-.46,1.66,1.12,0,2.6-.86,4.52a4.57,4.57,0,0,0,.17,3.73,4.47,4.47,0,0,1,.92-2.53,1.58,1.58,0,0,0,1.22.94c-1.32-1.49.29-3.73.93-4.69.51-.76.37-1.29.22-1.51ZM74.13,37.6s.14-.35.32-.85H68.1c.18.5.33.85.33.85Zm-2.32-8.11a.55.55,0,1,0-1.09,0,.55.55,0,1,0,1.09,0Zm2.88,6.62a11,11,0,0,0,.51-2.49c0-1-.56-2.16-2.56-2.51,0,1.26-.61,4.28-1.33,4.28h-.09c-.72,0-1.33-3-1.33-4.28-2,.35-2.54,1.48-2.54,2.51a10.56,10.56,0,0,0,.52,2.49Zm-3.43-1.57c.38,0,.69-2,.69-3,0-.54-.31-.89-.69-.89s-.68.35-.68.89c0,1,.31,3,.68,3Zm-.36-6.37h.73l-.09-.94.92.1v-.76l-.92.1.09-.94H70.9l.09.94-.92-.1v.76l.92-.1-.09.94ZM33.59,50.8a24.43,24.43,0,0,0-5.41.76,17.16,17.16,0,0,0,4.66,3.3A15.45,15.45,0,0,0,29,57.09a18.47,18.47,0,0,0,4.47,1.65A15.41,15.41,0,0,0,31,61.57a20.74,20.74,0,0,0,4,.6A12.14,12.14,0,0,0,34,65.28,16.5,16.5,0,0,0,37.55,65a12.23,12.23,0,0,0,.08,2.87,17.28,17.28,0,0,0,3-.77,15.36,15.36,0,0,0,1.08,2.6A9.17,9.17,0,0,0,44,68.9a11.57,11.57,0,0,0,.83,1.64,3.13,3.13,0,0,1,5.45,2c-.23,1.59-2.48,1.5-3.66,2.25-1.56,1-1.29,3.28-2.89,3.63,1.51,1,2-.84,3.52-.89a11.18,11.18,0,0,0,0,3.41A4.61,4.61,0,0,1,49.4,80a6.8,6.8,0,0,0,0,2.72c.42-.32,2-1.68,5.67-.8.45.1-2.51,0-2.14.94a3,3,0,0,1,0,2.35,1.69,1.69,0,0,0,.53.08,2.86,2.86,0,0,0,2.33-1.24A1.86,1.86,0,0,1,55,86.49,2.34,2.34,0,0,0,57.25,85a5.06,5.06,0,0,0,1.26,1.83A3.33,3.33,0,0,0,60,85.25a3.33,3.33,0,0,0,1.49,1.61A5.2,5.2,0,0,0,62.75,85,2.34,2.34,0,0,0,65,86.49a1.86,1.86,0,0,1-.78-2.43,2.86,2.86,0,0,0,2.33,1.24,1.69,1.69,0,0,0,.53-.08,3,3,0,0,1,0-2.35c.37-1-2.59-.84-2.14-.94,3.7-.88,5.25.48,5.67.8A6.8,6.8,0,0,0,70.6,80a4.61,4.61,0,0,1,2.15.92,10.89,10.89,0,0,0,0-3.41c1.58,0,2,1.85,3.53.89-1.6-.35-1.33-2.64-2.89-3.63-1.18-.75-3.43-.66-3.66-2.25a3.13,3.13,0,0,1,5.45-2A11.57,11.57,0,0,0,76,68.9a9.17,9.17,0,0,0,2.36.82,15.36,15.36,0,0,0,1.08-2.6,17.28,17.28,0,0,0,3,.77A12.23,12.23,0,0,0,82.45,65a16.5,16.5,0,0,0,3.52.26,12.14,12.14,0,0,0-.92-3.11,20.74,20.74,0,0,0,4-.6,15.41,15.41,0,0,0-2.44-2.83A18.47,18.47,0,0,0,91,57.09a15.45,15.45,0,0,0-3.88-2.23,17.16,17.16,0,0,0,4.66-3.3,24.43,24.43,0,0,0-5.41-.76c3.06-2.09,3.16-6.65,2.28-9.12A22.28,22.28,0,0,1,84.85,47a10.5,10.5,0,0,1-1,4.87,13.07,13.07,0,0,1,3.05,1.61,18.62,18.62,0,0,1-2.53,2.39,26.24,26.24,0,0,1,2.2,2.61,14.46,14.46,0,0,1-3,1.42,13.59,13.59,0,0,1,1.1,3.26,21,21,0,0,1-3.44.24A16,16,0,0,1,81,66.71a10.36,10.36,0,0,1-3.25-.9,10.87,10.87,0,0,1-1.2,2.69c-3.76-4.1-7.09-.23-7.09,3.38V76.8c0,2.33-.73,3.39-2.84,3.39H63.84A4.09,4.09,0,0,0,60,82.3a4.09,4.09,0,0,0-3.84-2.11H53.43c-2.11,0-2.84-1.06-2.84-3.39V71.88c0-3.61-3.33-7.48-7.09-3.38a10.87,10.87,0,0,1-1.2-2.69,10.36,10.36,0,0,1-3.25.9,16,16,0,0,1-.24-3.34,21,21,0,0,1-3.44-.24,13.59,13.59,0,0,1,1.1-3.26,14.46,14.46,0,0,1-3-1.42,26.24,26.24,0,0,1,2.2-2.61,18.62,18.62,0,0,1-2.53-2.39,13.07,13.07,0,0,1,3-1.61,10.5,10.5,0,0,1-1-4.87,22.28,22.28,0,0,1-3.84-5.29c-.88,2.47-.78,7,2.28,9.12ZM25.13,74.3l-.27.3s.57.75,1,.46c.27-.48-.48-1-.48-1l-.28.29Z" style="fill-rule:evenodd;fill:url(#b)"/></svg>