<svg xmlns="http://www.w3.org/2000/svg" xmlns:xlink="http://www.w3.org/1999/xlink" width="120" height="120" viewBox="0 0 120 120"><defs><linearGradient id="a" x1="7.03" y1="112.97" x2="112.97" y2="7.03" gradientUnits="userSpaceOnUse"><stop offset="0" stop-color="#30409a"/><stop offset="1" stop-color="#662e91"/></linearGradient><linearGradient id="b" x1="26.26" y1="106.76" x2="92.78" y2="40.24" gradientUnits="userSpaceOnUse"><stop offset="0" stop-color="#373e99"/><stop offset="1" stop-color="#662e91"/></linearGradient></defs><title>preference_03_uchastok</title><path d="M112,120H24A24,24,0,0,1,0,96V8A8,8,0,0,1,8,0H96a24,24,0,0,1,24,24v88A8,8,0,0,1,112,120Z" style="fill:#fff"/><path d="M96,2a22,22,0,0,1,22,22v88a6,6,0,0,1-6,6H24A22,22,0,0,1,2,96V8A6,6,0,0,1,8,2H96m0-2H8A8,8,0,0,0,0,8V96a24,24,0,0,0,24,24h88a8,8,0,0,0,8-8V24A24,24,0,0,0,96,0Z" style="fill:url(#a)"/><path d="M94,72.5H60.54v-20H80V35.58l-9,9-6.06-6.06,2.12-2.12L71,40.38l8.94-8.94.1.1v-4H38v25h19.5v20H25v4H94Zm-50-38H60v2H44Zm0,5H55v2H44Zm0,5H60v2H44Zm-9,40v-4H84v4Zm10,4H74v4H45Zm63,0v4H79v-4Zm-96,0H41v4H12Zm18-4H21v-4h9Zm59-4h9v4H89Z" style="fill:url(#b)"/></svg>