<svg xmlns="http://www.w3.org/2000/svg" xmlns:xlink="http://www.w3.org/1999/xlink" width="120" height="120" viewBox="0 0 120 120"><defs><path id="dy9ma" d="M1013 1509a8 8 0 0 1 8-8h88c13.255 0 24 10.745 24 24v88a8 8 0 0 1-8 8h-88c-13.255 0-24-10.745-24-24z"/><path id="dy9mc" d="M1081.61 1576l9.818 9.819V1576z"/><path id="dy9me" d="M1094.968 1590.25h-4.658l3.768 2.738-1.439 4.43 3.768-2.738 3.767 2.738-1.439-4.43 3.769-2.738h-4.658l-1.439-4.43z"/><path id="dy9mg" d="M1050 1556.249h23v3.001h-23zm0-8h33v3.001h-33zm0-8h43v3.001h-43zm-9 35.751h64v-44h-64z"/><clipPath id="dy9mb"><use fill="#fff" xlink:href="#dy9ma"/></clipPath><radialGradient id="dy9md" cx="1083.41" cy="1584.89" r="9.97" gradientUnits="userSpaceOnUse"><stop offset="0" stop-color="#30409a"/><stop offset="1" stop-color="#662e91"/></radialGradient><radialGradient id="dy9mf" cx="1092.54" cy="1596.32" r="12.04" gradientUnits="userSpaceOnUse"><stop offset="0" stop-color="#30409a"/><stop offset="1" stop-color="#662e91"/></radialGradient><radialGradient id="dy9mh" cx="1052.71" cy="1571.84" r="54.47" gradientUnits="userSpaceOnUse"><stop offset="0" stop-color="#30409a"/><stop offset="1" stop-color="#662e91"/></radialGradient></defs><g><g transform="translate(-1013 -1501)"><use fill="#fff" xlink:href="#dy9ma"/><use fill="#fff" fill-opacity="0" stroke="#000" stroke-miterlimit="50" stroke-width="4" clip-path="url(&quot;#dy9mb&quot;)" xlink:href="#dy9ma"/></g><g transform="translate(-1013 -1501)"><g><use fill="url(#dy9md)" xlink:href="#dy9mc"/></g><g><use fill="url(#dy9mf)" xlink:href="#dy9me"/></g><g><use fill="url(#dy9mh)" xlink:href="#dy9mg"/></g></g></g></svg>