<svg xmlns="http://www.w3.org/2000/svg" xmlns:xlink="http://www.w3.org/1999/xlink" width="120" height="120" viewBox="0 0 120 120"><defs><linearGradient id="a" x1="7.03" y1="112.97" x2="112.97" y2="7.03" gradientUnits="userSpaceOnUse"><stop offset="0" stop-color="#30409a"/><stop offset="1" stop-color="#662e91"/></linearGradient><linearGradient id="b" x1="40.16" y1="79.84" x2="79.79" y2="40.2" gradientUnits="userSpaceOnUse"><stop offset="0" stop-color="#373e99"/><stop offset="1" stop-color="#662e91"/></linearGradient></defs><title>preference_01_nalog</title><path d="M112,120H24A24,24,0,0,1,0,96V8A8,8,0,0,1,8,0H96a24,24,0,0,1,24,24v88A8,8,0,0,1,112,120Z" style="fill:#fff"/><path d="M96,2a22,22,0,0,1,22,22v88a6,6,0,0,1-6,6H24A22,22,0,0,1,2,96V8A6,6,0,0,1,8,2H96m0-2H8A8,8,0,0,0,0,8V96a24,24,0,0,0,24,24h88a8,8,0,0,0,8-8V24A24,24,0,0,0,96,0Z" style="fill:url(#a)"/><path d="M35.5,49.68V46c0-3.19.93-5.66,2.79-7.39S42.76,36,46.1,36a11.59,11.59,0,0,1,8,2.62A9.32,9.32,0,0,1,57,46v3.69a9.33,9.33,0,0,1-3,7.37,11.63,11.63,0,0,1-8,2.61c-3.34,0-5.94-.86-7.81-2.6S35.5,52.87,35.5,49.68Zm7,.83a3.53,3.53,0,0,0,1,2.61,3.69,3.69,0,0,0,2.73,1,3.73,3.73,0,0,0,2.74-1,3.54,3.54,0,0,0,1-2.61V45.15a3.54,3.54,0,0,0-1-2.61,3.73,3.73,0,0,0-2.74-1,3.69,3.69,0,0,0-2.73,1,3.53,3.53,0,0,0-1,2.61ZM43.33,83V80.42L71,37h5.52V39.6L48.85,83ZM63,74V70.32a9.37,9.37,0,0,1,3-7.4,11.63,11.63,0,0,1,8-2.62c3.35,0,5.95.88,7.81,2.62s2.79,4.21,2.79,7.4V74q0,4.78-2.79,7.4T73.9,84a11.59,11.59,0,0,1-8-2.62A9.35,9.35,0,0,1,63,74Zm7,.86a3.58,3.58,0,0,0,1,2.62,3.74,3.74,0,0,0,2.75,1,3.67,3.67,0,0,0,2.72-1,3.57,3.57,0,0,0,1-2.62V69.46a3.53,3.53,0,0,0-1-2.61,3.67,3.67,0,0,0-2.72-1,3.74,3.74,0,0,0-2.75,1,3.54,3.54,0,0,0-1,2.61Z" style="fill-rule:evenodd;fill:url(#b)"/></svg>