<svg xmlns="http://www.w3.org/2000/svg" xmlns:xlink="http://www.w3.org/1999/xlink" width="120" height="120" viewBox="0 0 120 120"><defs><linearGradient id="a" x1="7.03" y1="112.97" x2="112.97" y2="7.03" gradientUnits="userSpaceOnUse"><stop offset="0" stop-color="#30409a"/><stop offset="1" stop-color="#662e91"/></linearGradient><linearGradient id="b" x1="32.5" y1="94.5" x2="83" y2="44" gradientUnits="userSpaceOnUse"><stop offset="0" stop-color="#373e99"/><stop offset="1" stop-color="#662e91"/></linearGradient></defs><title>preference_02_tamognya</title><path d="M112,120H24A24,24,0,0,1,0,96V8A8,8,0,0,1,8,0H96a24,24,0,0,1,24,24v88A8,8,0,0,1,112,120Z" style="fill:#fff"/><path d="M96,2a22,22,0,0,1,22,22v88a6,6,0,0,1-6,6H24A22,22,0,0,1,2,96V8A6,6,0,0,1,8,2H96m0-2H8A8,8,0,0,0,0,8V96a24,24,0,0,0,24,24h88a8,8,0,0,0,8-8V24A24,24,0,0,0,96,0Z" style="fill:url(#a)"/><path d="M91.5,52.5v11h-27v-11h27Zm-63,19h11v-19h-11Zm0,8v11h11v-17h-11Zm13-3h40v-11h-40Zm15,2h-15v12h40v-12h-25Zm27,12h8v-25h-8Zm-34-28h-7v-33h19v33h-7v-5h-5Zm-5-23h15v-8h-15Zm6.5,11H47v1h4Zm0-3H47v1h4Zm0-3H47v1h4Zm6,9H53v1h4Zm0-3H53v1h4Zm0-3H53v1h4Zm0-3H53v1h4Zm-10,10h4v-1H47Z" style="fill:url(#b)"/></svg>