<svg xmlns="http://www.w3.org/2000/svg" xmlns:xlink="http://www.w3.org/1999/xlink" width="120" height="120" viewBox="0 0 120 120"><defs><path id="mnuha" d="M320 1314a8 8 0 0 1 8-8h88c13.255 0 24 10.745 24 24v88a8 8 0 0 1-8 8h-88c-13.255 0-24-10.745-24-24z"/><path id="mnuhb" d="M356 1342h49v48h-49z"/><path id="mnuhe" d="M356 1351.986c0-3.19.93-5.652 2.793-7.386 1.862-1.732 4.462-2.6 7.805-2.6 3.342 0 5.996.872 7.97 2.617 1.97 1.744 2.955 4.2 2.955 7.369v3.692c0 3.167-.986 5.624-2.955 7.369-1.974 1.743-4.627 2.616-7.97 2.616s-5.943-.867-7.805-2.6c-1.864-1.735-2.793-4.196-2.793-7.385zm7.005 4.527c0 1.057.339 1.926 1.014 2.605.678.683 1.587 1.023 2.727 1.023 1.141 0 2.054-.34 2.744-1.023.683-.679 1.03-1.548 1.03-2.605v-5.362c0-1.058-.347-1.927-1.03-2.607-.69-.68-1.603-1.022-2.744-1.022-1.14 0-2.048.341-2.727 1.022-.675.68-1.014 1.549-1.014 2.607zm.823 32.503v-2.586l27.7-43.466h5.519v2.633l-27.7 43.419zm19.65-12.693c0-3.19.986-5.656 2.954-7.4 1.975-1.746 4.629-2.618 7.972-2.618 3.342 0 5.943.872 7.805 2.617 1.863 1.745 2.791 4.211 2.791 7.401v3.66c0 3.189-.928 5.656-2.791 7.401-1.862 1.744-4.463 2.616-7.805 2.616-3.343 0-5.997-.872-7.972-2.616-1.968-1.745-2.954-4.212-2.954-7.4zm7.004 4.519c0 1.059.347 1.93 1.03 2.614.692.68 1.606 1.022 2.748 1.022 1.143 0 2.052-.343 2.731-1.022.676-.684 1.015-1.555 1.015-2.614v-5.379c0-1.059-.339-1.928-1.015-2.61-.68-.683-1.588-1.025-2.73-1.025-1.143 0-2.057.342-2.748 1.024-.684.683-1.03 1.552-1.03 2.611z"/><clipPath id="mnuhc"><use fill="#fff" xlink:href="#mnuha"/></clipPath><radialGradient id="mnuhf" cx="364.96" cy="1385.47" r="49.18" gradientUnits="userSpaceOnUse"><stop offset="0" stop-color="#30409a"/><stop offset="1" stop-color="#662e91"/></radialGradient><clipPath id="mnuhd"><use xlink:href="#mnuhb"/></clipPath></defs><g><g transform="translate(-320 -1306)"><use fill="#fff" xlink:href="#mnuha"/><use fill="#fff" fill-opacity="0" stroke="#000" stroke-miterlimit="50" stroke-width="4" clip-path="url(&quot;#mnuhc&quot;)" xlink:href="#mnuha"/></g><g transform="translate(-320 -1306)"/><g clip-path="url(#mnuhd)" transform="translate(-320 -1306)"><use fill="url(#mnuhf)" xlink:href="#mnuhe"/></g></g></svg>