<svg xmlns="http://www.w3.org/2000/svg" xmlns:xlink="http://www.w3.org/1999/xlink" width="120" height="120" viewBox="0 0 120 120"><defs><linearGradient id="a" x1="7.03" y1="112.97" x2="112.97" y2="7.03" gradientUnits="userSpaceOnUse"><stop offset="0" stop-color="#30409a"/><stop offset="1" stop-color="#662e91"/></linearGradient><radialGradient id="b" cx="60" cy="60" r="33" xlink:href="#a"/></defs><title>preference_05_infrastrucutre</title><path d="M112,120H24A24,24,0,0,1,0,96V8A8,8,0,0,1,8,0H96a24,24,0,0,1,24,24v88A8,8,0,0,1,112,120Z" style="fill:#fff"/><path d="M96,2a22,22,0,0,1,22,22v88a6,6,0,0,1-6,6H24A22,22,0,0,1,2,96V8A6,6,0,0,1,8,2H96m0-2H8A8,8,0,0,0,0,8V96a24,24,0,0,0,24,24h88a8,8,0,0,0,8-8V24A24,24,0,0,0,96,0Z" style="fill:url(#a)"/><path d="M86,53a6.85,6.85,0,0,0-3.13.75L66.25,37.13A6.85,6.85,0,0,0,67,34a7,7,0,1,0-12.89,3.77L37.77,54.11a7,7,0,1,0,2.12,2.12L56.23,39.89a7,7,0,0,0,8.12-.41L80.52,55.65a7,7,0,0,0-.41,8.12L63.77,80.11a6.89,6.89,0,0,0-2.27-.93V68.36a8.5,8.5,0,1,0-3,0V79.17a7,7,0,1,0,7.39,3.06L82.23,65.89A7,7,0,1,0,86,53ZM54.5,60A5.5,5.5,0,1,1,60,65.5,5.51,5.51,0,0,1,54.5,60Z" style="fill:url(#b)"/></svg>