<svg xmlns="http://www.w3.org/2000/svg" xmlns:xlink="http://www.w3.org/1999/xlink" width="120" height="120" viewBox="0 0 120 120"><defs><linearGradient id="a" x1="7.03" y1="112.97" x2="112.97" y2="7.03" gradientUnits="userSpaceOnUse"><stop offset="0" stop-color="#30409a"/><stop offset="1" stop-color="#662e91"/></linearGradient><linearGradient id="b" x1="37.08" y1="84.5" x2="91.08" y2="30.5" gradientUnits="userSpaceOnUse"><stop offset="0" stop-color="#373e99"/><stop offset="1" stop-color="#662e91"/></linearGradient></defs><title>preference_04_dialog</title><path d="M112,120H24A24,24,0,0,1,0,96V8A8,8,0,0,1,8,0H96a24,24,0,0,1,24,24v88A8,8,0,0,1,112,120Z" style="fill:#fff"/><path d="M96,2a22,22,0,0,1,22,22v88a6,6,0,0,1-6,6H24A22,22,0,0,1,2,96V8A6,6,0,0,1,8,2H96m0-2H8A8,8,0,0,0,0,8V96a24,24,0,0,0,24,24h88a8,8,0,0,0,8-8V24A24,24,0,0,0,96,0Z" style="fill:url(#a)"/><path d="M89.5,89.42l-3.77,2.73,1.44,4.43L83.4,93.85l-3.76,2.73,1.43-4.43-3.76-2.73H82L83.4,85l1.44,4.43Zm2.5-58v44H78.43v9.81l-9.82-9.81H28v-44ZM60,55.67H37v3H60Zm10-8H37v3H70Zm10-8H37v3H80Z" style="fill-rule:evenodd;fill:url(#b)"/></svg>