<svg xmlns="http://www.w3.org/2000/svg" xmlns:xlink="http://www.w3.org/1999/xlink" width="1920" height="1600"
     viewBox="0 0 1920 1600">
    <defs>
        <clipPath id="a">
            <rect width="1920" height="1600" style="fill:none"/>
        </clipPath>
        <clipPath id="b">
            <rect x="2555" y="-971" width="1920" height="1600" style="fill:none"/>
        </clipPath>
        <clipPath id="c">
            <rect x="2525" y="-981" width="1920" height="1600" style="fill:none"/>
        </clipPath>
    </defs>
    <title>gov-talk copy 2</title>
    <g style="opacity:0.08">
        <g style="clip-path:url(#a)">
            <path d="M-144.35-242.64c33-39.28,81.64-64.59,135.8-64.59S93-280.8,127.26-242.64h0c28,29.89,43,70.94,43,114.2s-16.66,82.86-43,114.2C94.25,25,45.61,50.35-8.55,50.35h0c-54.16,0-101.5-26.43-135.8-64.59h0c-28-29.89-43-70.94-43-114.2S-170.67-211.3-144.35-242.64Z"
                  style="fill:none;stroke:#231f20;stroke-miterlimit:10"/>
            <path d="M-165.37-231.44c43.37-56.56,110.06-93,184.28-93s137.9,38.89,184.28,93h0C236.81-194,253-142.8,253-90.38S233.83,10.73,203.19,50.69c-43.37,56.55-110.07,93-184.28,93h0c-74.22,0-137.9-38.89-184.28-93h0C-199,13.2-215.17-38-215.17-90.38S-196-191.48-165.37-231.44Z"
                  style="fill:none;stroke:#231f20;stroke-miterlimit:10"/>
            <path d="M-186.39-220.25c53.56-74,138.48-121.43,232.75-121.43s174.26,51.3,232.76,121.43h0c39.32,45.12,56.61,106.35,56.61,167.93S314.22,67.14,279.12,115.62c-53.56,74-138.48,121.43-232.76,121.43h0c-94.27,0-174.25-51.31-232.75-121.43h0C-225.71,70.49-243,9.26-243-52.32S-221.49-171.77-186.39-220.25Z"
                  style="fill:none;stroke:#231f20;stroke-miterlimit:10"/>
            <path d="M-207.41-209.06c63.62-91.47,166.9-149.85,281.23-149.85S284.4-295.22,355.05-209.06h0c45,52.78,63.42,124.07,63.42,194.8s-23.8,137.85-63.42,194.81C291.42,272,188.15,330.39,73.82,330.39h0c-114.33,0-210.59-63.69-281.23-149.84h0c-45-52.78-63.42-124.07-63.42-194.81S-247-152.1-207.41-209.06Z"
                  style="fill:none;stroke:#231f20;stroke-miterlimit:10"/>
            <path d="M-228.43-197.87c73.62-109,195.32-178.27,329.7-178.27S348.18-300.07,431-197.87h0c50.76,60.45,70.23,141.78,70.23,221.67s-26,156.26-70.23,221.68c-73.62,109-195.32,178.26-329.71,178.26h0c-134.38,0-246.9-76.06-329.7-178.26h0C-279.19,185-298.67,103.7-298.67,23.8S-272.61-132.46-228.43-197.87Z"
                  style="fill:none;stroke:#231f20;stroke-miterlimit:10"/>
            <path d="M-249.45-186.68c83.56-126.56,223.74-206.68,378.18-206.68S412-304.93,506.91-186.68h0c56.49,68.13,77,159.49,77,248.54s-28.28,174.69-77,248.54C423.35,437,283.17,517.09,128.73,517.09h0c-154.44,0-283.22-88.43-378.18-206.69h0c-56.5-68.12-77.05-159.48-77.05-248.54S-298.21-112.82-249.45-186.68Z"
                  style="fill:none;stroke:#231f20;stroke-miterlimit:10"/>
            <path d="M-270.47-175.49C-177-319.64-18.31-410.59,156.18-410.59S475.71-309.8,582.84-175.49h0C645.07-99.68,666.7,1.71,666.7,99.92S636.2,293,582.84,375.33C489.37,519.49,330.68,610.44,156.18,610.44h0c-174.49,0-319.53-100.79-426.65-235.11h0c-62.24-75.8-83.86-177.2-83.86-275.41S-323.83-93.19-270.47-175.49Z"
                  style="fill:none;stroke:#231f20;stroke-miterlimit:10"/>
            <path d="M-291.49-164.29C-188.15-326-10.92-427.82,183.64-427.82S539.48-314.67,658.77-164.29h0c68,83.49,90.67,194.91,90.67,302.27s-32.71,211.56-90.67,302.28C555.42,602,378.19,703.79,183.64,703.79h0c-194.56,0-355.84-113.15-475.13-263.53h0c-68-83.49-90.67-194.91-90.67-302.28S-349.46-73.57-291.49-164.29Z"
                  style="fill:none;stroke:#231f20;stroke-miterlimit:10"/>
            <path d="M-312.52-153.1c113.2-179.36,309-292,523.61-292s392.15,125.51,523.61,292h0c73.72,91.18,97.48,212.62,97.48,329.15s-34.9,230-97.48,329.14c-113.2,179.36-309,292-523.61,292h0C-3.52,797.14-181,671.63-312.52,505.19h0C-386.24,414-410,292.57-410,176.05S-375.1-53.94-312.52-153.1Z"
                  style="fill:none;stroke:#231f20;stroke-miterlimit:10"/>
            <path d="M-333.54-141.91c123-197,337.42-320.36,572.09-320.36S667-324.41,810.63-141.91h0C890.09-43,914.92,88.42,914.92,214.11s-37.09,248.42-104.29,356c-123,197-337.42,320.36-572.08,320.36h0c-234.67,0-428.45-137.86-572.09-320.36h0c-79.46-98.88-104.29-230.33-104.29-356S-400.74-34.32-333.54-141.91Z"
                  style="fill:none;stroke:#231f20;stroke-miterlimit:10"/>
            <path d="M-354.56-130.72C-221.69-345.31,11.28-479.5,266-479.5S730.75-329.29,886.56-130.72h0c85.21,106.58,111.11,248,111.11,382.89S958.39,519,886.56,635.05C753.69,849.64,520.72,983.83,266,983.83h0c-254.72,0-464.75-150.21-620.56-348.78h0c-85.21-106.57-111.11-248-111.11-382.88S-426.39-14.7-354.56-130.72Z"
                  style="fill:none;stroke:#231f20;stroke-miterlimit:10"/>
            <path d="M-375.58-119.53c142.69-232.21,394.26-377.2,669-377.2s501.06,162.57,669,377.2h0c91,114.28,117.92,265.76,117.92,409.76S1039,575.54,962.49,700c-142.69,232.22-394.26,377.2-669,377.2h0c-274.77,0-501-162.56-669-377.2h0c-91-114.27-117.92-265.75-117.92-409.75S-452,4.92-375.58-119.53Z"
                  style="fill:none;stroke:#231f20;stroke-miterlimit:10"/>
            <path d="M-396.6-108.34C-244.11-358.18,26.08-513.95,320.91-513.95S858.27-339,1038.42-108.34h0c96.71,122,124.73,283.46,124.73,436.62S1119.51,632,1038.42,764.91c-152.5,249.85-422.68,405.62-717.51,405.62h0c-294.83,0-537.36-174.92-717.51-405.62h0c-96.72-122-124.73-283.46-124.73-436.62S-477.7,24.53-396.6-108.34Z"
                  style="fill:none;stroke:#231f20;stroke-miterlimit:10"/>
            <path d="M-417.62-97.14c162.3-267.48,451.1-434,766-434s573.66,187.26,766,434h0C1216.82,32.53,1245.89,204,1245.89,366.35s-45.81,322.19-131.54,463.49c-162.3,267.48-451.1,434-766,434h0c-314.88,0-573.66-187.27-766-434h0C-520.09,700.17-549.17,528.67-549.17,366.35S-503.35,44.15-417.62-97.14Z"
                  style="fill:none;stroke:#231f20;stroke-miterlimit:10"/>
            <path d="M-438.64-85.95C-266.55-371.07,40.87-548.41,375.82-548.41s610,199.62,814.46,462.46h0c108.22,137.37,138.36,318.88,138.36,490.36s-48,340.64-138.36,490.36c-172.09,285.11-479.52,462.46-814.46,462.46h0c-334.95,0-610-199.62-814.46-462.46h0C-546.86,757.4-577,575.88-577,404.41S-529,63.77-438.64-85.95Z"
                  style="fill:none;stroke:#231f20;stroke-miterlimit:10"/>
            <path d="M-459.66-74.76C-277.78-377.51,48.27-565.64,403.27-565.64s646.26,212,862.94,490.88h0c114,145.08,145.17,336.6,145.17,517.23s-50.16,359.08-145.17,517.23c-181.89,302.75-507.94,490.88-862.94,490.88h0c-355,0-646.26-212-862.93-490.88h0c-114-145.08-145.17-336.6-145.17-517.23S-554.67,83.39-459.66-74.76Z"
                  style="fill:none;stroke:#231f20;stroke-miterlimit:10"/>
            <path d="M-480.68-63.57C-289-384,55.67-582.86,430.73-582.86s682.56,224.31,911.41,519.29h0c119.73,152.78,152,354.31,152,544.1s-52.33,377.53-152,544.1C1150.47,1345,805.78,1543.92,430.73,1543.92h0c-375.06,0-682.57-224.31-911.41-519.29h0c-119.73-152.78-152-354.31-152-544.1S-580.33,103-480.68-63.57Z"
                  style="fill:none;stroke:#231f20;stroke-miterlimit:10"/>
            <path d="M-501.7-52.38c201.45-338,564.77-547.71,959.88-547.71S1177-363.43,1418.07-52.38h0c125.48,160.48,158.79,372,158.79,571s-54.5,396-158.79,571c-201.46,338-564.78,547.71-959.89,547.71h0c-395.11,0-718.86-236.66-959.88-547.71h0c-125.49-160.48-158.8-372-158.8-571S-606,122.62-501.7-52.38Z"
                  style="fill:none;stroke:#231f20;stroke-miterlimit:10"/>
            <path d="M-522.72-41.19C-311.49-396.85,70.47-617.32,485.64-617.32S1240.8-368.31,1494-41.19h0C1625.24,127,1659.61,348.54,1659.61,556.65S1602.93,971.07,1494,1154.49c-211.24,355.67-593.19,576.13-1008.36,576.13h0c-415.17,0-755.17-249-1008.36-576.13h0C-654,986.3-688.33,764.76-688.33,556.65S-631.66,142.24-522.72-41.19Z"
                  style="fill:none;stroke:#231f20;stroke-miterlimit:10"/>
            <path d="M-543.75-30c221-373.31,621.62-604.56,1056.84-604.56S1304.55-373.19,1569.93-30h0c137,175.89,172.42,407.44,172.42,624.7s-58.84,432.86-172.42,624.71C1348.92,1592.73,948.32,1824,513.09,1824h0c-435.22,0-791.46-261.36-1056.84-604.55h0c-137-175.89-172.42-407.44-172.42-624.71S-657.32,161.85-543.75-30Z"
                  style="fill:none;stroke:#231f20;stroke-miterlimit:10"/>
            <path d="M-564.77-18.8c230.79-390.95,650-633,1105.32-633s827.76,273.7,1105.31,633h0c142.75,183.59,179.23,425.15,179.23,651.57s-61,451.31-179.23,651.58c-230.79,391-650,633-1105.31,633h0c-455.28,0-827.76-273.71-1105.31-633h0C-707.52,1100.75-744,859.2-744,632.77S-683,181.47-564.77-18.8Z"
                  style="fill:none;stroke:#231f20;stroke-miterlimit:10"/>
            <path d="M-585.79-7.61C-345.23-416.21,92.66-669,568-669S1432.06-382.95,1721.79-7.61h0c148.5,191.3,186,442.86,186,678.44s-63.17,469.75-186,678.45C1481.23,1757.87,1043.34,2010.67,568,2010.67h0c-475.34,0-864.06-286.05-1153.79-661.39h0c-148.5-191.3-186-442.86-186-678.45S-708.66,201.08-585.79-7.61Z"
                  style="fill:none;stroke:#231f20;stroke-miterlimit:10"/>
            <path d="M-606.81,3.58C-356.48-422.66,100.06-686.23,595.46-686.23S1495.81-387.83,1797.72,3.58h0c154.26,199,192.86,460.57,192.86,705.31s-65.35,488.2-192.86,705.32C1547.39,1840.45,1090.85,2104,595.46,2104h0c-495.39,0-900.36-298.4-1202.26-689.81h0c-154.26-199-192.86-460.57-192.86-705.31S-734.32,220.7-606.81,3.58Z"
                  style="fill:none;stroke:#231f20;stroke-miterlimit:10"/>
            <path d="M-627.83,14.77c260.1-443.88,735.29-718.22,1250.74-718.22S1559.57-392.71,1873.65,14.77h0c160,206.7,199.67,478.28,199.67,732.17s-67.51,506.64-199.67,732.19c-260.1,443.88-735.29,718.22-1250.74,718.22h0c-515.45,0-936.66-310.74-1250.74-718.22h0C-787.85,1272.42-827.5,1000.85-827.5,747S-760,240.32-627.83,14.77Z"
                  style="fill:none;stroke:#231f20;stroke-miterlimit:10"/>
            <path d="M-648.85,26c269-462,763.71-746.65,1299.21-746.65S1623.32-397.59,1949.58,26h0C2115.35,240.38,2156.06,522,2156.06,785a1498.28,1498.28,0,0,1-206.48,759.05c-269,462-763.71,746.64-1299.22,746.64h0c-535.5,0-972.95-323.09-1299.21-746.64h0c-165.78-214.41-206.48-496-206.48-759A1498.22,1498.22,0,0,1-648.85,26Z"
                  style="fill:none;stroke:#231f20;stroke-miterlimit:10"/>
            <path d="M-669.87,37.16C-391-442.45,122.26-737.91,677.82-737.91S1687.08-402.47,2025.51,37.16h0C2197,259.28,2238.8,550.86,2238.8,823.08A1554.3,1554.3,0,0,1,2025.51,1609c-278.91,479.61-792.13,775.07-1347.69,775.07h0c-555.56,0-1009.26-335.44-1347.69-775.07h0c-171.53-222.12-213.3-513.7-213.3-785.91A1554.32,1554.32,0,0,1-669.87,37.16Z"
                  style="fill:none;stroke:#231f20;stroke-miterlimit:10"/>
            <path d="M-690.89,48.35C-402.12-448.84,129.66-755.14,705.27-755.14S1750.83-407.35,2101.44,48.35h0a1610.71,1610.71,0,0,1,0,1625.57c-288.77,497.2-820.55,803.49-1396.17,803.49h0c-575.61,0-1045.55-347.79-1396.16-803.49h0C-868.18,1444.09-911,1142.51-911,861.14A1610.32,1610.32,0,0,1-690.89,48.35Z"
                  style="fill:none;stroke:#231f20;stroke-miterlimit:10"/>
            <path d="M-711.91,59.54c298.64-514.78,849-831.9,1444.64-831.9S1814.58-412.23,2177.37,59.54h0c183,237.54,226.92,549.13,226.92,839.66a1666.39,1666.39,0,0,1-226.92,839.65c-298.64,514.78-849,831.91-1444.64,831.91h0c-595.68,0-1081.86-360.13-1444.64-831.91h0C-895,1501.32-938.83,1189.73-938.83,899.2A1666.32,1666.32,0,0,1-711.91,59.54Z"
                  style="fill:none;stroke:#231f20;stroke-miterlimit:10"/>
            <path d="M-732.93,70.73c308.5-532.36,877.38-860.32,1493.11-860.32S1878.34-417.11,2253.3,70.73h0a1723.13,1723.13,0,0,1,0,1733.05c-308.51,532.37-877.39,860.33-1493.12,860.33h0c-615.73,0-1118.15-372.48-1493.11-860.33h0C-921.74,1558.54-966.67,1237-966.67,937.26A1722.45,1722.45,0,0,1-732.93,70.73Z"
                  style="fill:none;stroke:#231f20;stroke-miterlimit:10"/>
            <path d="M-753.95,81.92C-435.58-468,151.85-806.82,787.64-806.82A1781.26,1781.26,0,0,1,2329.23,81.92h0A1782.13,1782.13,0,0,1,787.64,2757.45h0c-635.79,0-1223.22-338.79-1541.59-888.74h0a1779.33,1779.33,0,0,1,0-1786.79Z"
                  style="fill:none;stroke:#231f20;stroke-miterlimit:10"/>
            <path d="M-775,93.12a1836.91,1836.91,0,0,1,3180.14,0h0c200.32,260.65,247.36,602.25,247.36,920.26A1838.12,1838.12,0,0,1,815.09,2850.8h0A1836.85,1836.85,0,0,1-775,1933.64h0c-200.32-260.65-247.35-602.26-247.35-920.26A1834.62,1834.62,0,0,1-775,93.12Z"
                  style="fill:none;stroke:#231f20;stroke-miterlimit:10"/>
            <path d="M-796,104.31a1892.46,1892.46,0,0,1,3277.09,0h0A1892.71,1892.71,0,0,1,842.55,2944.15h0A1892.41,1892.41,0,0,1-796,1998.57h0a1891.76,1891.76,0,0,1,0-1894.26Z"
                  style="fill:none;stroke:#231f20;stroke-miterlimit:10"/>
            <path d="M870-858.5h0a1948,1948,0,0,0-1687,974h0a1948,1948,0,0,0,0,1948h0a1948,1948,0,0,0,1687,974h0a1948,1948,0,0,0,1687-974h0a1948,1948,0,0,0,0-1948h0A1948,1948,0,0,0,870-858.5Z"
                  style="fill:none;stroke:#231f20;stroke-miterlimit:10"/>
            <circle cx="235" cy="288.5" r="6" style="fill:#fff;stroke:#231f20;stroke-miterlimit:10"/>
            <circle cx="627" cy="292.5" r="6" style="fill:#fff;stroke:#231f20;stroke-miterlimit:10"/>
            <circle cx="483" cy="344.5" r="6" style="fill:#fff;stroke:#231f20;stroke-miterlimit:10"/>
            <circle cx="495" cy="88.5" r="6" style="fill:#fff;stroke:#231f20;stroke-miterlimit:10"/>
            <circle cx="223" cy="605.5" r="6" style="fill:#fff;stroke:#231f20;stroke-miterlimit:10"/>
            <circle cx="516" cy="593.5" r="6" style="fill:#fff;stroke:#231f20;stroke-miterlimit:10"/>
            <circle cx="914" cy="218.5" r="6" style="fill:#fff;stroke:#231f20;stroke-miterlimit:10"/>
            <circle cx="517" cy="1043.5" r="6" style="fill:#fff;stroke:#231f20;stroke-miterlimit:10"/>
            <circle cx="1242" cy="268.5" r="6" style="fill:#fff;stroke:#231f20;stroke-miterlimit:10"/>
            <circle cx="1340" cy="815.5" r="6" style="fill:#fff;stroke:#231f20;stroke-miterlimit:10"/>
            <circle cx="1049" cy="749.5" r="6" style="fill:#fff;stroke:#231f20;stroke-miterlimit:10"/>
            <circle cx="1741" cy="670.5" r="6" style="fill:#fff;stroke:#231f20;stroke-miterlimit:10"/>
            <circle cx="812" cy="1249.5" r="6" style="fill:#fff;stroke:#231f20;stroke-miterlimit:10"/>
            <circle cx="459" cy="1448.5" r="6" style="fill:#fff;stroke:#231f20;stroke-miterlimit:10"/>
        </g>
    </g>
    <g style="clip-path:url(#b)">
        <path d="M2053.3-1023.38c201.45-338,564.77-547.71,959.88-547.71s718.86,236.66,959.89,547.71h0c125.48,160.48,158.79,372,158.79,571s-54.5,396-158.79,571c-201.46,338-564.78,547.71-959.89,547.71h0c-395.11,0-718.86-236.66-959.88-547.71h0c-125.49-160.48-158.8-372-158.8-571S1949-848.38,2053.3-1023.38Z"
              style="fill:none;stroke:#fff;stroke-miterlimit:10"/>
        <path d="M2032.28-1012.19c211.23-355.66,593.19-576.13,1008.36-576.13s755.16,249,1008.36,576.13h0C4180.24-844,4214.61-622.46,4214.61-414.35S4157.93.07,4049,183.49c-211.24,355.67-593.19,576.13-1008.36,576.13h0c-415.17,0-755.17-249-1008.36-576.13h0C1901,15.3,1866.67-206.24,1866.67-414.35S1923.34-828.76,2032.28-1012.19Z"
              style="fill:none;stroke:#fff;stroke-miterlimit:10"/>
        <path d="M2011.25-1001c221-373.31,621.62-604.56,1056.84-604.56S3859.55-1344.19,4124.93-1001h0c137,175.89,172.42,407.44,172.42,624.7s-58.84,432.86-172.42,624.71C3903.92,621.73,3503.32,853,3068.09,853h0c-435.22,0-791.46-261.36-1056.84-604.55h0c-137-175.89-172.42-407.44-172.42-624.71S1897.68-809.15,2011.25-1001Z"
              style="fill:none;stroke:#fff;stroke-miterlimit:10"/>
        <path d="M1990.23-989.8c230.79-391,650-633,1105.32-633s827.76,273.7,1105.31,633h0c142.75,183.59,179.23,425.15,179.23,651.57s-61,451.31-179.23,651.58c-230.79,390.95-650,633-1105.31,633h0c-455.28,0-827.76-273.71-1105.31-633h0C1847.48,129.75,1811-111.8,1811-338.23S1872-789.53,1990.23-989.8Z"
              style="fill:none;stroke:#fff;stroke-miterlimit:10"/>
        <path d="M1969.21-978.61C2209.77-1387.21,2647.66-1640,3123-1640s864.06,286,1153.79,661.39h0c148.5,191.3,186,442.86,186,678.44s-63.17,469.75-186,678.45C4036.23,786.87,3598.34,1039.67,3123,1039.67h0c-475.34,0-864.06-286.05-1153.79-661.39h0c-148.5-191.3-186-442.86-186-678.45S1846.34-769.92,1969.21-978.61Z"
              style="fill:none;stroke:#fff;stroke-miterlimit:10"/>
        <path d="M1948.19-967.42c250.33-426.24,706.87-689.81,1202.27-689.81s900.35,298.4,1202.26,689.81h0c154.26,199,192.86,460.57,192.86,705.31s-65.35,488.2-192.86,705.32C4102.39,869.45,3645.85,1133,3150.46,1133h0c-495.39,0-900.36-298.4-1202.26-689.81h0c-154.26-199-192.86-460.57-192.86-705.31S1820.68-750.3,1948.19-967.42Z"
              style="fill:none;stroke:#fff;stroke-miterlimit:10"/>
        <path d="M1927.17-956.23c260.1-443.88,735.29-718.22,1250.74-718.22s936.66,310.74,1250.74,718.22h0c160,206.7,199.67,478.28,199.67,732.17s-67.51,506.64-199.67,732.19c-260.1,443.88-735.29,718.22-1250.74,718.22h0c-515.45,0-936.66-310.74-1250.74-718.22h0C1767.15,301.42,1727.5,29.85,1727.5-224S1795-730.68,1927.17-956.23Z"
              style="fill:none;stroke:#fff;stroke-miterlimit:10"/>
        <path d="M1906.15-945c269-462,763.71-746.65,1299.21-746.65s973,323.09,1299.22,746.65h0C4670.35-730.62,4711.06-449,4711.06-186a1498.28,1498.28,0,0,1-206.48,759.05c-269,462-763.71,746.64-1299.22,746.64h0c-535.5,0-973-323.09-1299.21-746.64h0c-165.78-214.41-206.48-496-206.48-759A1498.22,1498.22,0,0,1,1906.15-945Z"
              style="fill:none;stroke:#fff;stroke-miterlimit:10"/>
        <path d="M1885.13-933.84c278.9-479.61,792.13-775.07,1347.69-775.07s1009.26,335.44,1347.69,775.07h0C4752-711.72,4793.8-420.14,4793.8-147.92A1554.3,1554.3,0,0,1,4580.51,638c-278.91,479.61-792.13,775.07-1347.69,775.07h0c-555.56,0-1009.26-335.44-1347.69-775.07h0c-171.53-222.12-213.3-513.7-213.3-785.91A1554.32,1554.32,0,0,1,1885.13-933.84Z"
              style="fill:none;stroke:#fff;stroke-miterlimit:10"/>
        <path d="M1864.11-922.65c288.77-497.19,820.55-803.49,1396.16-803.49s1045.56,347.79,1396.17,803.49h0a1610.32,1610.32,0,0,1,220.11,812.79,1610.31,1610.31,0,0,1-220.11,812.78c-288.77,497.2-820.55,803.49-1396.17,803.49h0c-575.61,0-1045.55-347.79-1396.16-803.49h0C1686.82,473.09,1644,171.51,1644-109.86A1610.32,1610.32,0,0,1,1864.11-922.65Z"
              style="fill:none;stroke:#fff;stroke-miterlimit:10"/>
        <path d="M1843.09-911.46c298.64-514.78,849-831.9,1444.64-831.9s1081.85,360.13,1444.64,831.9h0c183.05,237.54,226.92,549.13,226.92,839.66a1666.39,1666.39,0,0,1-226.92,839.65c-298.64,514.78-849,831.91-1444.64,831.91h0c-595.68,0-1146-317.13-1444.64-831.91h0C1660,530.32,1616.17,218.73,1616.17-71.8A1666.32,1666.32,0,0,1,1843.09-911.46Z"
              style="fill:none;stroke:#fff;stroke-miterlimit:10"/>
        <path d="M1822.07-900.27c308.5-532.36,877.38-860.32,1493.11-860.32S4433.34-1388.11,4808.3-900.27h0A1722.44,1722.44,0,0,1,5042-33.74,1722.41,1722.41,0,0,1,4808.3,832.78c-308.51,532.37-877.39,860.33-1493.12,860.33h0c-615.73,0-1118.15-372.48-1493.11-860.33h0A1722.42,1722.42,0,0,1,1588.33-33.74,1722.45,1722.45,0,0,1,1822.07-900.27Z"
              style="fill:none;stroke:#fff;stroke-miterlimit:10"/>
        <path d="M1801.05-889.08c318.37-549.95,905.8-888.74,1541.59-888.74A1781.26,1781.26,0,0,1,4884.23-889.08h0A1778.51,1778.51,0,0,1,5124.77,4.32a1778.51,1778.51,0,0,1-240.54,893.39,1781.26,1781.26,0,0,1-1541.59,888.74h0c-635.79,0-1223.22-338.79-1541.59-888.74h0A1778.51,1778.51,0,0,1,1560.5,4.32,1778.48,1778.48,0,0,1,1801.05-889.08Z"
              style="fill:none;stroke:#fff;stroke-miterlimit:10"/>
        <path d="M1780-877.88a1836.91,1836.91,0,0,1,3180.14,0h0c200.32,260.65,247.36,602.25,247.36,920.26A1838.12,1838.12,0,0,1,3370.09,1879.8h0A1836.85,1836.85,0,0,1,1780,962.64h0A1834.67,1834.67,0,0,1,1532.67,42.38,1834.62,1834.62,0,0,1,1780-877.88Z"
              style="fill:none;stroke:#fff;stroke-miterlimit:10"/>
        <path d="M1759-866.69a1892.46,1892.46,0,0,1,3277.09,0h0A1892.71,1892.71,0,0,1,3397.55,1973.15h0A1892.41,1892.41,0,0,1,1759,1027.57h0a1891.76,1891.76,0,0,1,0-1894.26Z"
              style="fill:none;stroke:#fff;stroke-miterlimit:10"/>
        <path d="M3425-1829.5h0a1948,1948,0,0,0-1687,974h0a1948,1948,0,0,0,0,1948h0a1948,1948,0,0,0,1687,974h0a1948,1948,0,0,0,1687-974h0a1948,1948,0,0,0,0-1948h0A1948,1948,0,0,0,3425-1829.5Z"
              style="fill:none;stroke:#fff;stroke-miterlimit:10"/>
    </g>
    <g style="opacity:0.5">
        <g style="clip-path:url(#c)">
            <path d="M2065.34-1055.76c181.88-302.75,507.93-490.88,862.93-490.88s646.26,212,862.94,490.88h0c114,145.08,145.17,336.6,145.17,517.23S3886.22-179.45,3791.21-21.3c-181.89,302.75-507.94,490.88-862.94,490.88h0c-355,0-646.26-212-862.93-490.88h0c-114-145.08-145.17-336.6-145.17-517.23S1970.33-897.61,2065.34-1055.76Z"
                  style="fill:none;stroke:#fff;stroke-miterlimit:10"/>
            <path d="M2044.32-1044.57C2236-1365,2580.67-1563.86,2955.73-1563.86s682.56,224.31,911.41,519.29h0c119.73,152.78,152,354.31,152,544.1s-52.33,377.53-152,544.1C3675.47,364,3330.78,562.92,2955.73,562.92h0c-375.06,0-682.57-224.31-911.41-519.29h0c-119.73-152.78-152-354.31-152-544.1S1944.67-878,2044.32-1044.57Z"
                  style="fill:none;stroke:#fff;stroke-miterlimit:10"/>
            <path d="M2023.3-1033.38c201.45-338,564.77-547.71,959.88-547.71s718.86,236.66,959.89,547.71h0c125.48,160.48,158.79,372,158.79,571s-54.5,396-158.79,571c-201.46,338-564.78,547.71-959.89,547.71h0c-395.11,0-718.86-236.66-959.88-547.71h0c-125.49-160.48-158.8-372-158.8-571S1919-858.38,2023.3-1033.38Z"
                  style="fill:none;stroke:#fff;stroke-miterlimit:10"/>
            <path d="M2002.28-1022.19c211.23-355.66,593.19-576.13,1008.36-576.13s755.16,249,1008.36,576.13h0C4150.24-854,4184.61-632.46,4184.61-424.35S4127.93-9.93,4019,173.49c-211.24,355.67-593.19,576.13-1008.36,576.13h0c-415.17,0-755.17-249-1008.36-576.13h0C1871,5.3,1836.67-216.24,1836.67-424.35S1893.34-838.76,2002.28-1022.19Z"
                  style="fill:none;stroke:#fff;stroke-miterlimit:10"/>
            <path d="M1981.25-1011c221-373.31,621.62-604.56,1056.84-604.56S3829.55-1354.19,4094.93-1011h0c137,175.89,172.42,407.44,172.42,624.7s-58.84,432.86-172.42,624.71C3873.92,611.73,3473.32,843,3038.09,843h0c-435.22,0-791.46-261.36-1056.84-604.55h0c-137-175.89-172.42-407.44-172.42-624.71S1867.68-819.15,1981.25-1011Z"
                  style="fill:none;stroke:#fff;stroke-miterlimit:10"/>
            <path d="M1960.23-999.8c230.79-391,650-633,1105.32-633s827.76,273.7,1105.31,633h0c142.75,183.59,179.23,425.15,179.23,651.57s-61,451.31-179.23,651.58c-230.79,390.95-650,633-1105.31,633h0c-455.28,0-827.76-273.71-1105.31-633h0C1817.48,119.75,1781-121.8,1781-348.23S1842-799.53,1960.23-999.8Z"
                  style="fill:none;stroke:#fff;stroke-miterlimit:10"/>
            <path d="M1939.21-988.61C2179.77-1397.21,2617.66-1650,3093-1650s864.06,286,1153.79,661.39h0c148.5,191.3,186,442.86,186,678.44s-63.17,469.75-186,678.45C4006.23,776.87,3568.34,1029.67,3093,1029.67h0c-475.34,0-864.06-286.05-1153.79-661.39h0c-148.5-191.3-186-442.86-186-678.45S1816.34-779.92,1939.21-988.61Z"
                  style="fill:none;stroke:#fff;stroke-miterlimit:10"/>
            <path d="M1918.19-977.42c250.33-426.24,706.87-689.81,1202.27-689.81s900.35,298.4,1202.26,689.81h0c154.26,199,192.86,460.57,192.86,705.31s-65.35,488.2-192.86,705.32C4072.39,859.45,3615.85,1123,3120.46,1123h0c-495.39,0-900.36-298.4-1202.26-689.81h0c-154.26-199-192.86-460.57-192.86-705.31S1790.68-760.3,1918.19-977.42Z"
                  style="fill:none;stroke:#fff;stroke-miterlimit:10"/>
            <path d="M1897.17-966.23c260.1-443.88,735.29-718.22,1250.74-718.22s936.66,310.74,1250.74,718.22h0c160,206.7,199.67,478.28,199.67,732.17s-67.51,506.64-199.67,732.19c-260.1,443.88-735.29,718.22-1250.74,718.22h0c-515.45,0-936.66-310.74-1250.74-718.22h0C1737.15,291.42,1697.5,19.85,1697.5-234S1765-740.68,1897.17-966.23Z"
                  style="fill:none;stroke:#fff;stroke-miterlimit:10"/>
            <path d="M1876.15-955c269-462,763.71-746.65,1299.21-746.65s973,323.09,1299.22,746.65h0C4640.35-740.62,4681.06-459,4681.06-196a1498.28,1498.28,0,0,1-206.48,759.05c-269,462-763.71,746.64-1299.22,746.64h0c-535.5,0-973-323.09-1299.21-746.64h0c-165.78-214.41-206.48-496-206.48-759A1498.22,1498.22,0,0,1,1876.15-955Z"
                  style="fill:none;stroke:#fff;stroke-miterlimit:10"/>
            <path d="M1855.13-943.84c278.9-479.61,792.13-775.07,1347.69-775.07s1009.26,335.44,1347.69,775.07h0C4722-721.72,4763.8-430.14,4763.8-157.92A1554.3,1554.3,0,0,1,4550.51,628c-278.91,479.61-792.13,775.07-1347.69,775.07h0c-555.56,0-1009.26-335.44-1347.69-775.07h0c-171.53-222.12-213.3-513.7-213.3-785.91A1554.32,1554.32,0,0,1,1855.13-943.84Z"
                  style="fill:none;stroke:#fff;stroke-miterlimit:10"/>
            <path d="M1834.11-932.65c288.77-497.19,820.55-803.49,1396.16-803.49s1045.56,347.79,1396.17,803.49h0a1610.32,1610.32,0,0,1,220.11,812.79,1610.31,1610.31,0,0,1-220.11,812.78c-288.77,497.2-820.55,803.49-1396.17,803.49h0c-575.61,0-1045.55-347.79-1396.16-803.49h0C1656.82,463.09,1614,161.51,1614-119.86A1610.32,1610.32,0,0,1,1834.11-932.65Z"
                  style="fill:none;stroke:#fff;stroke-miterlimit:10"/>
            <path d="M1813.09-921.46c298.64-514.78,849-831.9,1444.64-831.9s1081.85,360.13,1444.64,831.9h0c183,237.54,226.92,549.13,226.92,839.66a1666.39,1666.39,0,0,1-226.92,839.65c-298.64,514.78-849,831.91-1444.64,831.91h0c-595.68,0-1146-317.13-1444.64-831.91h0C1630,520.32,1586.17,208.73,1586.17-81.8A1666.32,1666.32,0,0,1,1813.09-921.46Z"
                  style="fill:none;stroke:#fff;stroke-miterlimit:10"/>
            <path d="M1792.07-910.27c308.5-532.36,877.38-860.32,1493.11-860.32S4403.34-1398.11,4778.3-910.27h0A1722.44,1722.44,0,0,1,5012-43.74,1722.41,1722.41,0,0,1,4778.3,822.78c-308.51,532.37-877.39,860.33-1493.12,860.33h0c-615.73,0-1118.15-372.48-1493.11-860.33h0A1722.42,1722.42,0,0,1,1558.33-43.74,1722.45,1722.45,0,0,1,1792.07-910.27Z"
                  style="fill:none;stroke:#fff;stroke-miterlimit:10"/>
            <path d="M1771.05-899.08c318.37-549.95,905.8-888.74,1541.59-888.74A1781.26,1781.26,0,0,1,4854.23-899.08h0A1778.51,1778.51,0,0,1,5094.77-5.68a1778.51,1778.51,0,0,1-240.54,893.39,1781.26,1781.26,0,0,1-1541.59,888.74h0c-635.79,0-1223.22-338.79-1541.59-888.74h0A1778.51,1778.51,0,0,1,1530.5-5.68,1778.48,1778.48,0,0,1,1771.05-899.08Z"
                  style="fill:none;stroke:#fff;stroke-miterlimit:10"/>
            <path d="M1750-887.88a1836.91,1836.91,0,0,1,3180.14,0h0c200.32,260.65,247.36,602.25,247.36,920.26a1834.58,1834.58,0,0,1-247.36,920.26A1836.83,1836.83,0,0,1,3340.09,1869.8h0A1836.85,1836.85,0,0,1,1750,952.64h0A1834.67,1834.67,0,0,1,1502.67,32.38,1834.62,1834.62,0,0,1,1750-887.88Z"
                  style="fill:none;stroke:#fff;stroke-miterlimit:10"/>
            <path d="M1729-876.69a1892.46,1892.46,0,0,1,3277.09,0h0A1892.71,1892.71,0,0,1,3367.55,1963.15h0A1892.41,1892.41,0,0,1,1729,1017.57h0a1891.76,1891.76,0,0,1,0-1894.26Z"
                  style="fill:none;stroke:#fff;stroke-miterlimit:10"/>
            <path d="M3395-1839.5h0a1948,1948,0,0,0-1687,974h0a1948,1948,0,0,0,0,1948h0a1948,1948,0,0,0,1687,974h0a1948,1948,0,0,0,1687-974h0a1948,1948,0,0,0,0-1948h0A1948,1948,0,0,0,3395-1839.5Z"
                  style="fill:none;stroke:#fff;stroke-miterlimit:10"/>
        </g>
    </g>
</svg>