<svg xmlns="http://www.w3.org/2000/svg" xmlns:xlink="http://www.w3.org/1999/xlink" width="320" height="104.89" viewBox="0 0 320 104.89"><defs><radialGradient id="a" cx="88.93" cy="43.62" fx="57.789004223711636" fy="82.72149648280906" r="88.75" gradientUnits="userSpaceOnUse"><stop offset="0.22" stop-color="#662d91"/><stop offset="0.59" stop-color="#662f90" stop-opacity="0"/></radialGradient><radialGradient id="b" cx="51.84" cy="73.46" r="69.27" gradientUnits="userSpaceOnUse"><stop offset="0.25" stop-color="#374ea2"/><stop offset="0.7" stop-color="#374fa2" stop-opacity="0"/></radialGradient><radialGradient id="c" cx="65.7" cy="68.94" r="46.01" gradientUnits="userSpaceOnUse"><stop offset="0.34" stop-color="#32409a"/><stop offset="1" stop-color="#643e98"/></radialGradient></defs><title>Logo-color</title><g style="isolation:isolate"><path d="M146.82-29.93c-20.65-13.42-58,2.49-83.52,35.54-11.22,14.56-18.25,30-20.85,43.89-3.3,17.63.56,32.73,12.11,40.24a28.28,28.28,0,0,0,7.89,3.5c21.34,5.94,53.13-9.86,75.63-39C163.55,21.15,167.47-16.51,146.82-29.93Z" style="fill:url(#a)"/><path d="M72.17,71.85c-2-10.9-14.56-19.18-31-22a77.36,77.36,0,0,0-21.41-.64c-26.07,2.76-44.86,17.4-42,32.69s26.36,25.46,52.42,22.69c12.55-1.33,23.41-5.41,31-11C69.32,87.53,73.66,79.78,72.17,71.85Z" style="fill:url(#b)"/><path d="M72.17,71.85c-2-10.63-14-18.77-29.81-21.83-3.12,17.41.76,32.28,12.2,39.72A28.5,28.5,0,0,0,61.81,93C69.54,87.1,73.62,79.56,72.17,71.85Z" style="fill:url(#c)"/><g style="mix-blend-mode:hard-light"><path d="M148,72.87a2.42,2.42,0,0,1,2.65-2.58,2.34,2.34,0,0,1,2.51,2.6,2.43,2.43,0,0,1-2.64,2.61A2.38,2.38,0,0,1,148,72.87Zm4.38,0a1.81,1.81,0,1,0-3.61,0,1.81,1.81,0,1,0,3.61,0Z" style="fill:#58595b"/><path d="M153.87,73.45a1.85,1.85,0,0,1,1.93-2,2.36,2.36,0,0,1,1.11.23l-.21.58a2.08,2.08,0,0,0-.9-.19c-.67,0-1.16.46-1.16,1.41s.29,1.42,1.36,1.42a4.4,4.4,0,0,0,.77-.1l.12.59a3.54,3.54,0,0,1-.95.13C154.48,75.48,153.87,74.88,153.87,73.45Z" style="fill:#58595b"/><path d="M157.42,73.5a1.85,1.85,0,0,1,1.87-2.09c1.23,0,1.81.76,1.81,2a1.8,1.8,0,0,1-1.86,2A1.75,1.75,0,0,1,157.42,73.5Zm2.92,0c0-.69-.2-1.45-1.07-1.45s-1.09.75-1.09,1.46.26,1.42,1.1,1.42S160.34,74.2,160.34,73.46Z" style="fill:#58595b"/><path d="M161.89,73.23a4.2,4.2,0,0,1,.6-2.48,6.54,6.54,0,0,1,2.66-.85l.13.67a7,7,0,0,0-2.29.59,1.84,1.84,0,0,0-.34,1,2.72,2.72,0,0,1,1.32-.35c.94,0,1.54.46,1.54,1.65a1.79,1.79,0,0,1-1.89,2C162.55,75.48,161.89,74.81,161.89,73.23Zm2.87.26c0-.62-.27-1.1-1-1.1a2.62,2.62,0,0,0-1.17.33v.45c0,1.16.35,1.71,1.06,1.71S164.76,74.16,164.76,73.49Z" style="fill:#58595b"/><path d="M166.2,74.35c0-1,.87-1.18,1.55-1.18l.86,0v-.43c0-.55-.29-.66-.92-.66a4.36,4.36,0,0,0-1,.18l-.14-.57a3.77,3.77,0,0,1,1.34-.25c1,0,1.48.3,1.48,1.1v2c0,.25.17.29.36.31l0,.58h-.16c-.36,0-.77-.13-.83-.48a2.09,2.09,0,0,1-1.29.49A1,1,0,0,1,166.2,74.35Zm2.41.18v-.9l-.84,0c-.53,0-.84.26-.84.61s.26.6.63.6A2.71,2.71,0,0,0,168.61,74.53Z" style="fill:#58595b"/><path d="M170.44,74.88a1.12,1.12,0,0,0,.82-.55l.26-.42a1.11,1.11,0,0,1-.73-1.08,1.33,1.33,0,0,1,1.48-1.32h1.45v3.9H173V74.09h-.71l-.46.68a1.43,1.43,0,0,1-1.26.71ZM173,73.53V72.1h-.64a.69.69,0,0,0-.78.73c0,.49.41.7.88.7Z" style="fill:#58595b"/><path d="M176,75.26l.18-.59a4.15,4.15,0,0,0,1.18.16,1.79,1.79,0,0,0,2-1.66h-2.57v-.6h2.58A1.68,1.68,0,0,0,177.46,71a4,4,0,0,0-1.27.19l-.21-.59a3.43,3.43,0,0,1,1.5-.26,2.36,2.36,0,0,1,2.64,2.57,2.44,2.44,0,0,1-2.67,2.61A3.92,3.92,0,0,1,176,75.26Z" style="fill:#58595b"/><path d="M181.09,71.51h.75v3.9h-.75ZM183,74.74l-1.09-1.33,1.53-1.9h.85l-1.57,1.84.75.86a2.13,2.13,0,0,0,1,.71l-.12.56A1.68,1.68,0,0,1,183,74.74Z" style="fill:#58595b"/><path d="M184.86,73.5a1.85,1.85,0,0,1,1.86-2.09c1.23,0,1.82.76,1.82,2a1.8,1.8,0,0,1-1.87,2A1.75,1.75,0,0,1,184.86,73.5Zm2.92,0c0-.69-.21-1.45-1.08-1.45s-1.09.75-1.09,1.46.27,1.42,1.11,1.42S187.78,74.2,187.78,73.46Z" style="fill:#58595b"/><path d="M189.5,71.51h.75v1.65h1.84V71.51h.75v3.9h-.75V73.75h-1.84v1.66h-.75Z" style="fill:#58595b"/><path d="M193.8,73.5a1.86,1.86,0,0,1,1.87-2.09c1.23,0,1.82.76,1.82,2a1.81,1.81,0,0,1-1.87,2A1.75,1.75,0,0,1,193.8,73.5Zm2.93,0c0-.69-.21-1.45-1.08-1.45s-1.09.75-1.09,1.46.27,1.42,1.1,1.42S196.73,74.2,196.73,73.46Z" style="fill:#58595b"/><path d="M198.45,71.51h1l1.13,3.33,1.26-3.33h1v3.9h-.71V73.22l0-.76-1.09,3h-.9l-1-3,0,.77v2.19h-.71Z" style="fill:#58595b"/><path d="M204,71.51h.74v2.91l.33-.53,1.67-2.38h.74v3.9h-.74V72.5l-.33.55-1.67,2.36H204Z" style="fill:#58595b"/><path d="M210.78,73.77a3.63,3.63,0,0,1-1.13.2c-1,0-1.26-.43-1.26-1.24V71.51h.74v1.16c0,.45.14.7.75.7a2.55,2.55,0,0,0,.9-.19V71.51h.75v3.9h-.75Z" style="fill:#58595b"/><path d="M212.51,73.53c0-1.59.78-2.12,1.82-2.12s1.5.7,1.5,2v.27h-2.57c0,1.07.58,1.24,1.34,1.24a5.33,5.33,0,0,0,1-.16l.12.59a4.39,4.39,0,0,1-1.3.19C213.26,75.5,212.51,75,212.51,73.53Zm2.54-.41c0-.7-.25-1.17-.81-1.17s-.91.4-1,1.17Z" style="fill:#58595b"/><path d="M216.55,73.45a1.85,1.85,0,0,1,1.93-2,2.33,2.33,0,0,1,1.11.23l-.21.58a2,2,0,0,0-.9-.19c-.67,0-1.16.46-1.16,1.41s.29,1.42,1.36,1.42a4.4,4.4,0,0,0,.78-.1l.11.59a3.52,3.52,0,0,1-.94.13C217.16,75.48,216.55,74.88,216.55,73.45Z" style="fill:#58595b"/><path d="M220.42,71.51h.74v3.9h-.74Zm1.86,3.23-1.09-1.33,1.52-1.9h.85L222,73.35l.75.86a2.06,2.06,0,0,0,1,.71l-.12.56A1.65,1.65,0,0,1,222.28,74.74Z" style="fill:#58595b"/><path d="M224.28,74.35c0-1,.87-1.18,1.55-1.18l.86,0v-.43c0-.55-.29-.66-.92-.66a4.36,4.36,0,0,0-1,.18l-.15-.57a3.77,3.77,0,0,1,1.34-.25c1,0,1.48.3,1.48,1.1v2c0,.25.18.29.36.31l0,.58h-.16c-.37,0-.77-.13-.84-.48a2,2,0,0,1-1.28.49A1,1,0,0,1,224.28,74.35Zm2.41.18v-.9l-.84,0c-.54,0-.84.26-.84.61s.25.6.63.6A2.71,2.71,0,0,0,226.69,74.53Z" style="fill:#58595b"/><path d="M228.52,74.88a1.12,1.12,0,0,0,.82-.55l.26-.42a1.11,1.11,0,0,1-.73-1.08,1.33,1.33,0,0,1,1.48-1.32h1.45v3.9h-.75V74.09h-.71l-.46.68a1.43,1.43,0,0,1-1.26.71Zm2.53-1.35V72.1h-.64a.69.69,0,0,0-.78.73c0,.49.41.7.88.7Z" style="fill:#58595b"/><path d="M234,75.12l.26-.6a2.92,2.92,0,0,0,1.26.31c.62,0,1.12-.23,1.12-.85s-.52-.82-1.19-.82h-.57v-.59h.57c.6,0,1-.31,1-.83s-.33-.78-.91-.78a3,3,0,0,0-1.06.23l-.25-.53a3,3,0,0,1,1.39-.33c1.05,0,1.62.55,1.62,1.26a1.35,1.35,0,0,1-.76,1.23h0a1.2,1.2,0,0,1,1,1.17c0,.68-.44,1.47-1.85,1.47A3.41,3.41,0,0,1,234,75.12Z" style="fill:#58595b"/><path d="M238.19,73.5a1.86,1.86,0,0,1,1.87-2.09c1.23,0,1.82.76,1.82,2a1.81,1.81,0,0,1-1.87,2A1.75,1.75,0,0,1,238.19,73.5Zm2.93,0c0-.69-.21-1.45-1.08-1.45s-1.09.75-1.09,1.46.26,1.42,1.1,1.42S241.12,74.2,241.12,73.46Z" style="fill:#58595b"/><path d="M242.84,71.51h.74v1.65h1.85V71.51h.74v3.9h-.74V73.75h-1.85v1.66h-.74Z" style="fill:#58595b"/><path d="M247.05,74.35c0-1,.87-1.18,1.55-1.18l.86,0v-.43c0-.55-.28-.66-.91-.66a4.27,4.27,0,0,0-1,.18l-.15-.57a3.77,3.77,0,0,1,1.34-.25c1,0,1.48.3,1.48,1.1v2c0,.25.17.29.36.31l0,.58h-.15c-.37,0-.78-.13-.84-.48a2,2,0,0,1-1.29.49A1,1,0,0,1,247.05,74.35Zm2.41.18v-.9l-.83,0c-.54,0-.85.26-.85.61s.26.6.63.6A2.65,2.65,0,0,0,249.46,74.53Z" style="fill:#58595b"/></g><g style="mix-blend-mode:hard-light"><path d="M147.39,57.75c0-4.7,2.6-7.28,7.5-7.28a10,10,0,0,1,4.25.77l-.71,2a10.43,10.43,0,0,0-3.5-.54c-2.68,0-4.76,1.45-4.76,4.83s2.18,5,5.16,5a11.08,11.08,0,0,0,3.28-.44l.59,2.09a11.82,11.82,0,0,1-4.23.63C150,64.88,147.39,62.2,147.39,57.75Z" style="fill:#662d91"/><path d="M160.53,61.67c0-2.72,2.46-3.28,4.47-3.3l2.14,0v-1c0-1.25-.72-1.55-2.28-1.55a13.17,13.17,0,0,0-3,.48l-.54-2a11.51,11.51,0,0,1,4-.77c3,0,4.39.89,4.39,3.21v5.28c0,.52.44.64,1,.68l-.12,2H170c-1.15,0-2.4-.28-2.64-1.23A5.54,5.54,0,0,1,164,64.86C161.8,64.86,160.53,63.75,160.53,61.67Zm6.61.43V60l-2,.08c-1.25,0-2,.53-2,1.43s.68,1.31,1.51,1.31A8.71,8.71,0,0,0,167.14,62.1Z" style="fill:#662d91"/><path d="M173,53.84h2.64v4.39h4.55V53.84h2.64V64.68H180.2V60.26h-4.55v4.42H173Z" style="fill:#662d91"/><path d="M185.77,53.84h2.64v4.91l3.69-4.91h3l-4.19,5.09L192.7,61a5.44,5.44,0,0,0,2.72,1.89l-.36,2A5,5,0,0,1,191,62.82l-2.56-3.2v5.06h-2.64Z" style="fill:#662d91"/><path d="M199.91,55.87h-3.52v-2H206v2h-3.51v8.81h-2.62Z" style="fill:#662d91"/><path d="M206.13,57.91h5.92v2.17h-5.92Z" style="fill:#662d91"/><path d="M214.64,50.65h11.83v14h-2.7V52.75h-6.43V64.68h-2.7Z" style="fill:#662d91"/><path d="M229,59.44c0-4.42,2.24-5.85,5.3-5.85s4.4,2.06,4.4,5.45v1h-7.06c0,2.38,1.48,2.78,3.41,2.78a18.55,18.55,0,0,0,2.94-.44l.41,2a13.72,13.72,0,0,1-3.83.54C231.14,64.92,229,63.69,229,59.44Zm7-1.21c0-1.63-.63-2.76-1.94-2.76s-2.22,1-2.34,2.76Z" style="fill:#662d91"/><path d="M243.41,55.87h-3.52v-2h9.65v2H246v8.81h-2.62Z" style="fill:#662d91"/><path d="M250.7,59.44c0-4.42,2.24-5.85,5.3-5.85s4.4,2.06,4.4,5.45v1h-7.06c0,2.38,1.49,2.78,3.41,2.78a18.55,18.55,0,0,0,2.94-.44l.42,2a13.84,13.84,0,0,1-3.83.54C252.86,64.92,250.7,63.69,250.7,59.44Zm7-1.21c0-1.63-.64-2.76-1.95-2.76s-2.22,1-2.34,2.76Z" style="fill:#662d91"/><path d="M262.77,53.84h2.63v.82a5.22,5.22,0,0,1,2.77-1.07c2.92,0,4.65,1.58,4.65,5.24,0,4.52-2.76,6-5.76,6-.65,0-1.21-.06-1.66-.1v4.27h-2.63Zm7.37,5.2c0-2.06-.7-3.23-2.72-3.23a5.93,5.93,0,0,0-2,.58v6.29a12.6,12.6,0,0,0,1.74.16C269.09,62.84,270.14,61.21,270.14,59Z" style="fill:#662d91"/><path d="M274.64,58.75c0-2.35.41-5.82,1.8-7,1.15-1,4.23-1.79,7.63-2.38l.41,2.36c-3,.48-5.62.89-6.31,1.47a3.72,3.72,0,0,0-.93,2.44,7.26,7.26,0,0,1,3.61-.89c2.68,0,4.29,1.33,4.29,4.52,0,3.89-2.37,5.62-5.52,5.62S274.64,63,274.64,58.75Zm7.84.63c0-1.51-.68-2.62-2.44-2.62a6.46,6.46,0,0,0-2.88.78c0,.31,0,.87,0,1.17,0,2.8.91,4.07,2.66,4.07C281.88,62.78,282.48,61,282.48,59.38Z" style="fill:#662d91"/><path d="M290.54,64.68h-1L285.9,53.84h2.84l2.06,6.93.5,1.83.57-1.81,2.37-6.95h2.68l-5.3,15.21h-2.54Z" style="fill:#662d91"/><path d="M298.67,53.84h2.62v.82a5.22,5.22,0,0,1,2.78-1.07c2.92,0,4.64,1.58,4.64,5.24,0,4.52-2.76,6-5.75,6-.66,0-1.22-.06-1.67-.1v4.27h-2.62ZM306,59c0-2.06-.69-3.23-2.72-3.23a6,6,0,0,0-2,.58v6.29a12.79,12.79,0,0,0,1.75.16C305,62.84,306,61.21,306,59Z" style="fill:#662d91"/><path d="M311.08,53.84h7.59v2h-4.95v8.81h-2.64Z" style="fill:#662d91"/></g><g style="mix-blend-mode:hard-light"><path d="M149.12,80.33h-1.69V79.7h4.14v.63h-1.69v4.43h-.76Z" style="fill:#58595b"/><path d="M151.4,82.87c0-1.58.78-2.12,1.82-2.12s1.5.7,1.5,2V83h-2.57c0,1.07.59,1.24,1.34,1.24a5.33,5.33,0,0,0,1-.16l.12.6a4.48,4.48,0,0,1-1.3.18C152.15,84.84,151.4,84.38,151.4,82.87Zm2.54-.41c0-.69-.25-1.16-.8-1.16s-.92.4-1,1.16Z" style="fill:#58595b"/><path d="M156.66,82.76l-1.31-1.91h.87l.86,1.42.86-1.42h.85l-1.29,1.9,1.39,2H158l-.91-1.51-.93,1.51h-.88Z" style="fill:#58595b"/><path d="M159.64,80.85h.75V82.5h1.84V80.85H163v3.91h-.75V83.1h-1.84v1.66h-.75Z" style="fill:#58595b"/><path d="M163.94,82.85a1.85,1.85,0,0,1,1.86-2.1c1.24,0,1.82.76,1.82,2a1.8,1.8,0,0,1-1.87,2A1.74,1.74,0,0,1,163.94,82.85Zm2.92,0c0-.69-.21-1.45-1.08-1.45s-1.08.75-1.08,1.46.26,1.42,1.1,1.42S166.86,83.55,166.86,82.8Z" style="fill:#58595b"/><path d="M168,84.25a1.35,1.35,0,0,0,.74-.57,8.31,8.31,0,0,0,.4-2.83h2.51v3.91h-.74V81.44h-1.12a7.15,7.15,0,0,1-.5,2.67,1.72,1.72,0,0,1-1.07.77Z" style="fill:#58595b"/><path d="M172.64,82.85a1.86,1.86,0,0,1,1.87-2.1c1.23,0,1.82.76,1.82,2a1.81,1.81,0,0,1-1.87,2A1.75,1.75,0,0,1,172.64,82.85Zm2.93,0c0-.69-.21-1.45-1.08-1.45s-1.09.75-1.09,1.46.27,1.42,1.1,1.42S175.57,83.55,175.57,82.8Z" style="fill:#58595b"/><path d="M177.29,80.85h2.57v.6H178v3.31h-.74Z" style="fill:#58595b"/><path d="M180.68,80.85h.75v2.39l0,.52.34-.53,1.66-2.38h.75v3.91h-.75V82.38l0-.53-.34.54-1.66,2.37h-.75Z" style="fill:#58595b"/><path d="M185.35,80.85h.74v2.39l0,.52.34-.53,1.67-2.38h.74v3.91h-.74V81.85l-.34.54-1.66,2.37h-.74Z" style="fill:#58595b"/></g><g style="mix-blend-mode:hard-light"><path d="M111,64.07a2.5,2.5,0,0,1,2.67-2.66,2.42,2.42,0,0,1,2.53,2.67,2.48,2.48,0,0,1-2.66,2.66A2.42,2.42,0,0,1,111,64.07Zm4.69,0a2.1,2.1,0,1,0-2.13,2.24A2,2,0,0,0,115.71,64.07Zm-1.59,1c-.08-.08-.46-.6-.51-.66h-.47v1.06h-.53V62.53h1c.6,0,1,.24,1,.91a.83.83,0,0,1-.52.81c.26.32.51.73.92.85l-.11.4A1.18,1.18,0,0,1,114.12,65.05ZM113.44,64c.42,0,.66-.13.66-.51s-.17-.51-.56-.51h-.4v1Z" style="fill:#fff"/><path d="M33.86,61.72h5.27c3,0,5.23,1.84,5.23,5,0,2.74-2.18,5-6.22,5h-1v4H33.86Zm3.28,7.43h1.11c2,0,2.76-1.09,2.76-2.39s-.56-2.41-2.3-2.41H37.14Z" style="fill:#fff"/><path d="M45.18,68.67c0-4.72,2.83-7.16,7.45-7.16,4.92,0,7,2.84,7,7.2,0,4.64-2.59,7.2-7.41,7.2S45.18,73.15,45.18,68.67Zm11.18,0c0-2.61-1.16-4.54-3.9-4.54s-4,1.93-4,4.5,1.09,4.62,3.85,4.62C55.31,73.27,56.36,71.3,56.36,68.69Z" style="fill:#fff"/><path d="M60.78,68.79c0-4.86,2.51-7.26,7.43-7.26a9.11,9.11,0,0,1,4.21.85l-.86,2.42a10.49,10.49,0,0,0-3.31-.51c-2.45,0-4.16,1.38-4.16,4.3s1.8,4.48,4.54,4.48a11,11,0,0,0,3.14-.39l.69,2.52a10.62,10.62,0,0,1-4.17.67C63.33,75.87,60.78,73.37,60.78,68.79Z" style="fill:#fff"/><path d="M72.77,68.67c0-4.72,2.83-7.16,7.45-7.16,4.92,0,7,2.84,7,7.2,0,4.64-2.59,7.2-7.41,7.2S72.77,73.15,72.77,68.67Zm11.19,0c0-2.61-1.17-4.54-3.91-4.54s-4,1.93-4,4.5,1.1,4.62,3.85,4.62C82.9,73.27,84,71.3,84,68.69Z" style="fill:#fff"/><path d="M87.66,75.2l.7-2.52a11,11,0,0,0,3.14.39c2.31,0,3.94-1.1,4.4-3.2H89.72V67.45h6.22a3.7,3.7,0,0,0-4.06-3.12,10.47,10.47,0,0,0-3.31.47l-.87-2.42a9.23,9.23,0,0,1,4.22-.81c4.92,0,7.43,2.36,7.43,7.22,0,4.58-2.55,7.08-7.51,7.08A10.67,10.67,0,0,1,87.66,75.2Z" style="fill:#fff"/><path d="M99.47,74.61l1.06-2.47a8.32,8.32,0,0,0,3.54,1c1.36,0,2.36-.49,2.36-1.68s-1.07-1.65-2.49-1.65H102.1V67.41H104c1.24,0,2-.65,2-1.58s-.63-1.5-1.94-1.5a7.67,7.67,0,0,0-2.89.69l-1-2.27a9.18,9.18,0,0,1,4.27-1.1c3.28,0,4.88,1.59,4.88,3.53a3.56,3.56,0,0,1-1.83,3.25v0a3.36,3.36,0,0,1,2.39,3.32c0,1.87-1.25,4-5.38,4A9.71,9.71,0,0,1,99.47,74.61Z" style="fill:#fff"/></g></g></svg>