<svg id="Layer_1" data-name="Layer 1" xmlns="http://www.w3.org/2000/svg" xmlns:xlink="http://www.w3.org/1999/xlink" width="292" height="171" viewBox="0 0 292 171">
  <defs>
    <radialGradient id="radial-gradient" cx="89.25" cy="76.45" r="5.63" gradientUnits="userSpaceOnUse">
      <stop offset="0.25" stop-color="#fff" stop-opacity="0.8"/>
      <stop offset="0.7" stop-color="#fff" stop-opacity="0"/>
    </radialGradient>
    <radialGradient id="radial-gradient-2" cx="66.37" cy="93.53" r="86.38" xlink:href="#radial-gradient"/>
    <radialGradient id="radial-gradient-3" cx="110.47" cy="40.51" fx="71.63631232022789" fy="89.26828705128611" r="110.67" gradientUnits="userSpaceOnUse">
      <stop offset="0.22" stop-color="#fff" stop-opacity="0.8"/>
      <stop offset="0.59" stop-color="#fff" stop-opacity="0"/>
    </radialGradient>
    <radialGradient id="radial-gradient-4" cx="89.23" cy="76.43" r="5.98" gradientUnits="userSpaceOnUse">
      <stop offset="0.34" stop-color="#fff"/>
      <stop offset="1" stop-color="#fff"/>
    </radialGradient>
    <radialGradient id="radial-gradient-5" cx="83.73" cy="85.73" r="57.37" xlink:href="#radial-gradient-4"/>
  </defs>
  <title>Logo-white-footer</title>
  <g>
    <g>
      <g>
        <path d="M50.57,73.73H48.45v5.42H50c2.61,0,3.72-1.08,3.72-2.81S52.92,73.73,50.57,73.73Z" fill="#fff"/>
        <path d="M84.55,75c0,1.51,3.42,2.08,6,3.7a24.78,24.78,0,0,0-2.85-5.14c-.25,0-.48,0-.75,0C85.12,73.55,84.55,74.24,84.55,75Z" fill="url(#radial-gradient)"/>
      </g>
      <path d="M90.11,88l0,0c-.25.11-.51.21-.77.3h0a10.74,10.74,0,0,1-1.65.39l-.2,0-.65.07-.22,0q-.42,0-.84,0a12.06,12.06,0,0,1-6.12-1.29l1.24-3.15a12.88,12.88,0,0,0,4.83.83c2.2,0,3.2-.68,3.2-1.79,0-3-8.68-2.17-8.68-8.36a5,5,0,0,1,.09-.89l0-.18a4.5,4.5,0,0,1,.24-.76.54.54,0,0,0,0-.11,4.19,4.19,0,0,1,.36-.62l.06-.1a4,4,0,0,1,.51-.58l.09-.09A5.64,5.64,0,0,1,83,70.81l.08,0a7.61,7.61,0,0,1,1.73-.56c-6.93-7.16-18.29-12.39-31.73-14.7a96.33,96.33,0,0,0-26.7-.79C-6.14,58.16-29.57,76.41-26,95.48s32.87,31.75,65.36,28.29C55,122.12,68.56,117,78,110.06c8.9-6.63,14.16-14.88,14.06-23.48h0A5.93,5.93,0,0,1,90.11,88Zm-29.93.9c-3.56-.18-5.5-2-7.41-4.26l-2.06-2.4c-.31,0-.65,0-1,0H48.38v6.31H44V70.27h7.1c4.1,0,7,1.89,7,6a5.46,5.46,0,0,1-2.95,4.92l1.86,2a7.75,7.75,0,0,0,4.14,2.32Zm18.26-8.39c0,6.38-4.29,8.39-8.37,8.39S61.58,87,61.58,81.09V70.27H66V80.93c0,2.79,1.26,4.34,4,4.34s4.06-1.62,4.06-4.88V70.27h4.31Z" fill="url(#radial-gradient-2)"/>
      <g>
        <path d="M143.55,70.37a2.61,2.61,0,0,0-2.73,2.88,2.72,2.72,0,1,0,2.73-2.88Zm1.71,4.75a1.52,1.52,0,0,1-1.07-.58c-.1-.11-.6-.78-.66-.87a1.09,1.09,0,0,1-.26,0h-.35v1.37h-.69V71.25h1.31c.77,0,1.34.32,1.34,1.19a1.08,1.08,0,0,1-.68,1c.33.41.66,1,1.2,1.11Z" fill="#fff"/>
        <path d="M143.44,71.8h-.52v1.33h.39c.53,0,.85-.16.85-.66S143.94,71.8,143.44,71.8Z" fill="#fff"/>
        <path d="M184.88-44C159.13-60.71,112.56-40.87,80.73.35c-14,18.15-22.75,37.41-26,54.73a79,79,0,0,0-1.4,15.42c2.91.59,4.86,2.44,4.86,5.74a5.46,5.46,0,0,1-2.95,4.92l1.86,2a7.75,7.75,0,0,0,4.14,2.32l-1,3.36a8.3,8.3,0,0,1-4-1.18,34.46,34.46,0,0,0,13.57,17.58,35.26,35.26,0,0,0,9.84,4.36C106.28,117,145.93,97.32,174,61,205.74,19.72,210.63-27.24,184.88-44ZM78.51,80.47c0,6.38-4.29,8.39-8.37,8.39S61.65,87,61.65,81.09V70.27h4.44V80.93c0,2.79,1.26,4.34,4,4.34s4.06-1.62,4.06-4.88V70.27h4.31Zm7.28,8.34a12.06,12.06,0,0,1-6.12-1.29l1.24-3.15a12.85,12.85,0,0,0,4.83.83c2.2,0,3.2-.68,3.2-1.79,0-3-8.68-2.17-8.68-8.36,0-3.52,3.34-5,6.56-5a12.2,12.2,0,0,1,5.71,1.24l-1.26,3A13.61,13.61,0,0,0,87,73.55c-1.83,0-2.4.69-2.4,1.47,0,2.43,8.83,2.43,8.83,8.24C93.38,87.26,89.56,88.81,85.79,88.81Zm14.57,0a12,12,0,0,1-6.12-1.29l1.24-3.15a12.81,12.81,0,0,0,4.83.83c2.19,0,3.2-.68,3.2-1.79,0-3-8.68-2.17-8.68-8.36,0-3.52,3.33-5,6.56-5a12.23,12.23,0,0,1,5.71,1.24l-1.26,3a13.61,13.61,0,0,0-4.32-.75c-1.83,0-2.4.69-2.4,1.47,0,2.43,8.83,2.43,8.83,8.24C108,87.26,104.13,88.81,100.36,88.81Zm22.39-.28H110.17V70.27h12V73.7h-7.59v4.06h7V81h-7v4.13h8.19Zm16.19,0H124.6v-3L133,73.91h-7.72V70.27h13.11v2.79L129.9,84.88h9Zm4.52-11.79a3.17,3.17,0,0,1-3.31-3.48,3.25,3.25,0,0,1,3.48-3.45,3.14,3.14,0,0,1,3.29,3.46A3.23,3.23,0,0,1,143.46,76.74Z" fill="url(#radial-gradient-3)"/>
      </g>
    </g>
    <g>
      <path d="M90.52,78.7a24.23,24.23,0,0,0-2.86-5.12c-.23,0-.45,0-.71,0-1.83,0-2.4.69-2.4,1.47C84.55,76.53,87.94,77.1,90.52,78.7Z" fill="url(#radial-gradient-4)"/>
      <path d="M85.79,88.81a12.06,12.06,0,0,1-6.12-1.29l1.24-3.15a12.85,12.85,0,0,0,4.83.83c2.2,0,3.2-.68,3.2-1.79,0-3-8.68-2.17-8.68-8.36,0-2.78,2.1-4.31,4.57-4.83-6.69-6.9-17.45-12-30.21-14.49A78.16,78.16,0,0,0,53.35,70.5c2.9.6,4.84,2.44,4.84,5.74a5.46,5.46,0,0,1-2.95,4.92l1.86,2a7.75,7.75,0,0,0,4.14,2.32l-1,3.36a8.41,8.41,0,0,1-4-1.17,34.45,34.45,0,0,0,13.56,17.57,35.74,35.74,0,0,0,9,4.06c8.42-6.43,13.36-14.42,13.27-22.75C90.72,88.14,88.25,88.81,85.79,88.81Zm-7.28-8.34c0,6.38-4.29,8.39-8.37,8.39S61.65,87,61.65,81.09V70.27h4.44V80.93c0,2.79,1.26,4.34,4,4.34s4.06-1.62,4.06-4.88V70.27h4.31Z" fill="url(#radial-gradient-5)"/>
    </g>
  </g>
  <g>
    <path d="M84.29,162.69l-2.15.8V169a1.43,1.43,0,0,1-1.52,1.54H79l-.73-1.62a5.7,5.7,0,0,0,1.47.17c.61,0,.92-.17.92-.52v-4.48l-2.33.86-1-1.25,3.33-1.15v-4.29H78v-1.42h2.62v-3.77h1.48v3.77h2v1.42h-2V162l2.15-.76Zm10.93,6.36-1,1.3a13.73,13.73,0,0,1-5.11-2.72,15.56,15.56,0,0,1-5,2.8L83,169.14a13,13,0,0,0,5.06-2.54,13,13,0,0,1-2.52-4.51h-1v-1.43h3.71v-3.23h-4V156h4v-3H89.8v3h4.51v1.42H89.8v3.23h3.42a10.39,10.39,0,0,1-3,6A13.55,13.55,0,0,0,95.22,169.05Zm-3.8-7H87.14a10.72,10.72,0,0,0,2.06,3.54A9.14,9.14,0,0,0,91.42,162.09Z" fill="#fff"/>
    <path d="M114.65,167.58l-1.05,1.19a12.08,12.08,0,0,1-3.79-3.35,16.51,16.51,0,0,1-2.93-6.38h-.43v11.39H105V159h-.43q-1.55,6.9-6.67,9.71l-1.05-1.14a13.12,13.12,0,0,0,6.29-8.57H97.35v-1.43H105v-4.45h1.48v4.45H114V159h-5.73Q110.23,165.18,114.65,167.58Zm-2.85-11.2-1.14.92a7.45,7.45,0,0,0-3.08-2.68l1-1A7.88,7.88,0,0,1,111.8,156.38Z" fill="#fff"/>
    <path d="M124.33,157.75a59.23,59.23,0,0,1-5.2,6.37l.05,0,4.2-.88v1.31l-5.89,1.33-.68-1.31a25.5,25.5,0,0,0,1.88-2c.73-.86,1.26-1.47,1.58-1.83-.51.07-1.44.24-2.8.53l-.66-1.31a62.54,62.54,0,0,0,4.09-6.9l1.21.84q-2.06,3.66-3.43,5.73c.09,0,.46-.06,1.12-.17s1.21-.18,1.64-.21c.36-.48.91-1.28,1.66-2.4Zm-.41,9.32-6.25,2.41-.84-1.46c1.18-.35,2.52-.8,4-1.35s2.53-.91,3-1.09ZM134,169.73H122.32v-1.35h5v-4h-3.49V163h8.46v1.42h-3.48v4H134Zm0-7.76-1,1a18.58,18.58,0,0,0-4.81-2.95,12.38,12.38,0,0,1-4.86,2.74l-1-1.26a12.67,12.67,0,0,0,7.53-6.2h-6.56V154h8.48v1.25a20.47,20.47,0,0,1-2.62,3.69A19,19,0,0,1,134,162Z" fill="#fff"/>
    <path d="M140.89,163q-1.77,5.18-3.81,7l-1.14-.9a17.23,17.23,0,0,0,3.6-6.7Zm-.58-2.63-1.06.9a10.51,10.51,0,0,0-3.19-2.93l.95-.88A10.21,10.21,0,0,1,140.31,160.41Zm.61-4.36-1.13.86a8.44,8.44,0,0,0-3.12-2.76l1-.9A10.86,10.86,0,0,1,140.92,156.05Zm12.92,5.33-1.07,1.35a17.4,17.4,0,0,1-5.58-2.19,14.6,14.6,0,0,1-5.8,2.15l-.89-1.31a15.1,15.1,0,0,0,5.44-1.68,18.93,18.93,0,0,1-2.63-3h-1.9v-1.36h5a5,5,0,0,0-1.85-1.83l1-.72a7.26,7.26,0,0,1,2.18,2.12l-.84.4v0h5.89v1.36h-1.73a10.58,10.58,0,0,1-2.68,3A16.83,16.83,0,0,0,153.84,161.38Zm-8,2.89a6.16,6.16,0,0,1-3.95,6.06L141,169.1A5.34,5.34,0,0,0,142.8,168a5,5,0,0,0,1.22-1.54,4.91,4.91,0,0,0,.34-2v-2.19h1.49Zm3.5-7.59h-4.44a16.87,16.87,0,0,0,2.28,2.2A8.51,8.51,0,0,0,149.35,156.68Zm1.11,13.54H149v-7.94h1.48Z" fill="#fff"/>
    <path d="M163.15,162.54l-1.92.84v7h-1.49v-6.35l-2.4,1-1.09-1.22,3.49-1.44v-4h-1.36a15.53,15.53,0,0,1-1.25,3l-1.38-.72a13,13,0,0,0,1.83-5.75l1.42.39c0,.45-.1,1-.21,1.64h1V153h1.49V157H163v1.43h-1.76v3.25l1.92-.75Zm10.08,1.7H171v4.26a1.76,1.76,0,0,1-.46,1.31,2.57,2.57,0,0,1-1.73.49h-1.44l-.65-1.5c.93.07,1.58.1,1.95.1.56,0,.84-.18.84-.53v-4.14h-6.62v-1.43h6.62v-1.76H171v1.76h2.27Zm-.4-3.4h-9.59v-1.43h3.94v-2.62H164v-1.43h3.21v-2.52h1.49v2.52h3.47v1.43h-3.47v2.62h4.16Zm-5,6.14-1.13,1a7.34,7.34,0,0,0-3.1-2.46l1-1A7.6,7.6,0,0,1,167.83,167Z" fill="#fff"/>
    <path d="M192.56,169.08H178.41v1.12h-1.49V153.76h15v1.41h-13.5v12.51h14.15Zm-2-2.7-1.28.86a28,28,0,0,0-3.51-4.84,22.08,22.08,0,0,1-5.2,5l-1.15-1.25a18.79,18.79,0,0,0,5.36-4.87,37.15,37.15,0,0,0-5-4.53l1.12-.93a42.26,42.26,0,0,1,4.73,4.19,41.87,41.87,0,0,0,2.66-4.25l1.25.69c-.41.83-1.36,2.4-2.86,4.69A24.62,24.62,0,0,1,190.52,166.38Z" fill="#fff"/>
  </g>
  <g>
    <path d="M106.13,133.51,104.56,136a46,46,0,0,1-12.68-4,76.46,76.46,0,0,1-8.83,3.22,23.53,23.53,0,0,1-4.13.66l-1.59-2.36a34.4,34.4,0,0,0,12-3.15,28.57,28.57,0,0,1-6-6.33H80.11v-2.54h21.46v2.34a34.37,34.37,0,0,1-7.13,6.53A28.88,28.88,0,0,0,102,132.8Zm-.71,13.79H78.09v-2.55H90.41v-4.39H81.14v-2.44h9.27V134H93v3.94h9.32v2.44H93v4.39h12.4Zm-7.94-23.24H86.62a23.53,23.53,0,0,0,5.32,4.9A27.78,27.78,0,0,0,97.48,124.06Z" fill="#fff"/>
    <path d="M119.11,128.63a39.22,39.22,0,0,1-3.27,4.45v15.48H113.4V135.68a16.78,16.78,0,0,1-2.47,1.77L109,135.87a21.89,21.89,0,0,0,8.27-9Zm-1-7.65a23.25,23.25,0,0,1-6.7,8.16l-1.83-1.89a17.64,17.64,0,0,0,6.64-7.62Zm20.08,25.62-1.76,2.05a27.48,27.48,0,0,1-7.4-4.74,29.25,29.25,0,0,1-7.31,4.82l-1.72-1.9a24.27,24.27,0,0,0,7.31-4.55,20.32,20.32,0,0,1-3.85-8.1h-1.19q.18,9.1-3.88,14.28l-2.08-1.63a14.07,14.07,0,0,0,2.92-6,27,27,0,0,0,.61-4.84V124.25H127v-4.71h2.5v4.71h7.67a25.63,25.63,0,0,1-1.74,6.3c-.15,0-.5-.14-1.07-.33s-1-.31-1.23-.37c.64-1.64,1-2.73,1.21-3.27h-4.78v5.25H135a18.58,18.58,0,0,1-4.54,10.39A23.25,23.25,0,0,0,138.19,146.6ZM127,131.83v-5.25h-4.77v5.25Zm5.22,2.35h-6.42a16.37,16.37,0,0,0,3,6.3A18.44,18.44,0,0,0,132.26,134.18Z" fill="#fff"/>
    <path d="M151,128.74a26.28,26.28,0,0,1-2.69,4.28v15.6h-2.43V135.78a27.82,27.82,0,0,1-2.92,2.37l-2-1.44a21.88,21.88,0,0,0,8.15-9.59ZM150.6,121a26.25,26.25,0,0,1-7.12,8.43l-1.92-1.67a20.24,20.24,0,0,0,7-8.08Zm19.18,19.22h-4.35v5.42a2.78,2.78,0,0,1-.81,1.93,2.41,2.41,0,0,1-1.82.88h-3.21l-1-2.5a26.09,26.09,0,0,0,3.45.2c.64,0,1-.37,1-1.12v-4.81H149.72v-2.34H163v-2H151.52v-2.33h16.94v2.33h-3v2h4.35ZM159.37,144l-1.64,1.77a12.85,12.85,0,0,0-5.88-3.64l1.53-1.58A12.72,12.72,0,0,1,159.37,144Zm7.46-12H152.32V121.29h14.51Zm-2.43-6.58v-1.8h-9.64v1.8Zm0,4.25v-1.92h-9.64v1.92Z" fill="#fff"/>
    <path d="M182,120.59a29.57,29.57,0,0,1-1.34,3.69l-.94,2.08V139h-2.43v-9a26.75,26.75,0,0,1-2.69,2.77l-1.89-1.64a22.53,22.53,0,0,0,7.15-11.31ZM201.14,147h-27.7v-2.35h12.65v-2.33h-10V140h10v-2.88h2.54V140h9.9v2.34h-9.9v2.33h12.51Zm.23-10.54L200,138.56a14.93,14.93,0,0,1-8-5.79l.06,6.12h-2.44v-6.18q-2.41,3.76-8.26,5.69L180,136.35q5-1.74,7.07-4.19h-5.57v-2.22h8.19v-1.5h-6v-7.18H198.1v7.18h-6v1.5h8.17v2.22h-5.6A14.63,14.63,0,0,0,201.37,136.45Zm-5.71-10.22v-2.75h-9.6v2.75Z" fill="#fff"/>
    <path d="M233.25,126.3H220.69v4.28h9V142c0,1.87-.86,2.8-2.57,2.8h-2.88l-.83-2.47,2.85.13c.67,0,1-.24,1-.8v-8.68h-6.54v15.63h-2.44V132.93H212v12.32h-2.47V130.58h8.74V126.3H205.82V124h12.43v-4h2.44v4h12.56Z" fill="#fff"/>
  </g>
</svg>
