<svg xmlns="http://www.w3.org/2000/svg" xmlns:xlink="http://www.w3.org/1999/xlink" width="320" height="105" viewBox="0 0 320 105"><defs><radialGradient id="a" cx="51.63" cy="69.68" r="6.02" gradientUnits="userSpaceOnUse"><stop offset="0.22" stop-color="#fff" stop-opacity="0.8"/><stop offset="0.59" stop-color="#fff" stop-opacity="0"/></radialGradient><radialGradient id="b" cx="88.92" cy="43.62" fx="57.78063516570138" fy="82.72457607061921" r="88.75" xlink:href="#a"/><radialGradient id="c" cx="70.62" cy="69.07" r="11.67" gradientUnits="userSpaceOnUse"><stop offset="0.34" stop-color="#fff"/><stop offset="1" stop-color="#fff"/></radialGradient><radialGradient id="d" cx="54.64" cy="68.16" r="9.9" xlink:href="#c"/><radialGradient id="e" cx="65.68" cy="68.95" r="46.01" xlink:href="#c"/><radialGradient id="f" cx="54.64" cy="68.16" r="9.9" gradientUnits="userSpaceOnUse"><stop offset="0.25" stop-color="#fff" stop-opacity="0.8"/><stop offset="0.7" stop-color="#fff" stop-opacity="0"/></radialGradient><radialGradient id="g" cx="70.63" cy="69.07" r="11.68" xlink:href="#f"/><radialGradient id="h" cx="51.82" cy="73.47" r="69.27" xlink:href="#f"/></defs><title>Logo-white-nav-top</title><path d="M80,64.16c-2.88,0-4,1.93-4,4.49s1.1,4.62,3.85,4.62c3,0,4-2,4-4.58S82.78,64.16,80,64.16Z" style="fill:#fff"/><path d="M52.45,64.16c-2.88,0-4,1.93-4,4.49s1.09,4.62,3.85,4.62c3,0,4-2,4-4.58S55.19,64.16,52.45,64.16Z" style="fill:url(#a)"/><path d="M113.53,63h-.4v1h.3c.42,0,.66-.12.66-.5S113.92,63,113.53,63Z" style="fill:#fff"/><path d="M146.81-29.93c-20.65-13.41-58,2.5-83.52,35.54C52.07,20.17,45,35.62,42.44,49.5a62.09,62.09,0,0,0-1.12,12.61,4.57,4.57,0,0,1,3,4.57,4.66,4.66,0,0,1-2.11,3.92c1.7,8.2,5.77,14.89,12.31,19.14a28.3,28.3,0,0,0,7.89,3.51c21.34,5.94,53.13-9.87,75.63-39C163.54,21.16,167.46-16.51,146.81-29.93ZM52.26,75.92c-4.76,0-7.09-2.77-7.09-7.25,0-4.71,2.83-7.16,7.45-7.16,4.92,0,7.05,2.84,7.05,7.2C59.67,73.35,57.08,75.92,52.26,75.92Zm16,0c-5,0-7.51-2.51-7.51-7.09,0-4.85,2.51-7.26,7.43-7.26a9.11,9.11,0,0,1,4.21.85l-.86,2.43a10.21,10.21,0,0,0-3.31-.52c-2.45,0-4.16,1.38-4.16,4.3s1.8,4.48,4.54,4.48a10.66,10.66,0,0,0,3.14-.39l.69,2.53A10.8,10.8,0,0,1,68.28,75.88Zm11.57,0c-4.75,0-7.09-2.77-7.09-7.25,0-4.71,2.83-7.16,7.45-7.16,4.92,0,7.05,2.84,7.05,7.2C87.26,73.35,84.67,75.92,79.85,75.92Zm12,0a10.8,10.8,0,0,1-4.17-.67l.69-2.53a10.62,10.62,0,0,0,3.14.39c2.31,0,3.94-1.1,4.4-3.19H89.71V67.45h6.22a3.7,3.7,0,0,0-4.06-3.12,10.19,10.19,0,0,0-3.31.48l-.87-2.43a9.26,9.26,0,0,1,4.22-.81c4.92,0,7.43,2.37,7.43,7.22C99.34,73.37,96.79,75.88,91.83,75.88Zm12.54,0a9.6,9.6,0,0,1-4.91-1.23l1.06-2.46a8.47,8.47,0,0,0,3.54,1c1.36,0,2.36-.49,2.36-1.67s-1.07-1.66-2.49-1.66h-1.84V67.41H104c1.24,0,2-.65,2-1.58s-.63-1.5-1.93-1.5a7.87,7.87,0,0,0-2.9.69l-1-2.27a9.18,9.18,0,0,1,4.27-1.1c3.28,0,4.88,1.6,4.88,3.53a3.57,3.57,0,0,1-1.83,3.26v0a3.34,3.34,0,0,1,2.39,3.31C109.75,73.67,108.51,75.84,104.37,75.84Zm9.18-9.09A2.43,2.43,0,0,1,111,64.07a2.49,2.49,0,0,1,2.67-2.65,2.41,2.41,0,0,1,2.53,2.66A2.49,2.49,0,0,1,113.55,66.75Z" style="fill:url(#b)"/><path d="M113.62,61.85a2,2,0,0,0-2.1,2.21,2.09,2.09,0,1,0,2.1-2.21Zm1.31,3.65a1.14,1.14,0,0,1-.82-.45c-.08-.08-.46-.59-.51-.66l-.2,0h-.27v1h-.53V62.53h1c.6,0,1,.24,1,.91a.83.83,0,0,1-.52.81c.26.32.51.73.92.86Z" style="fill:#fff"/><path d="M68.83,64.31l-.59,0c-2.45,0-4.16,1.38-4.16,4.3s1.8,4.48,4.54,4.48a10.66,10.66,0,0,0,3.14-.39l.68,2.47a16.85,16.85,0,0,0-.28-3.3A18.78,18.78,0,0,0,68.83,64.31Z" style="fill:url(#c)"/><path d="M52.45,64.16c-2.88,0-4,1.93-4,4.49s1.09,4.62,3.85,4.62c3,0,4-2,4-4.58S55.19,64.16,52.45,64.16Z" style="fill:url(#d)"/><path d="M68.28,75.88c-5,0-7.51-2.51-7.51-7.09,0-4.28,2-6.66,5.8-7.16C61.22,56.11,52.61,52,42.36,50a61.69,61.69,0,0,0-1,12.08,4.58,4.58,0,0,1,3,4.57,4.66,4.66,0,0,1-2.1,3.91c1.7,8.2,5.76,14.9,12.3,19.15A27.83,27.83,0,0,0,61.8,93C68.4,88,72.33,81.73,72.44,75.21A10.78,10.78,0,0,1,68.28,75.88Zm-16,0c-4.76,0-7.09-2.77-7.09-7.25,0-4.71,2.83-7.16,7.45-7.16,4.92,0,7.05,2.84,7.05,7.2C59.67,73.35,57.08,75.92,52.26,75.92Z" style="fill:url(#e)"/><path d="M52.45,64.16c-2.88,0-4,1.93-4,4.49s1.09,4.62,3.85,4.62c3,0,4-2,4-4.58S55.19,64.16,52.45,64.16Z" style="fill:url(#f)"/><path d="M38.7,64.35H37.13v4.8h1.11c2,0,2.76-1.09,2.76-2.39S40.44,64.35,38.7,64.35Z" style="fill:#fff"/><path d="M68.83,64.31l-.59,0c-2.45,0-4.16,1.38-4.16,4.3s1.8,4.48,4.54,4.48a10.66,10.66,0,0,0,3.14-.39l.68,2.48a16.88,16.88,0,0,0-.28-3.31A18.78,18.78,0,0,0,68.83,64.31Z" style="fill:url(#g)"/><path d="M68.28,75.88c-5,0-7.51-2.51-7.51-7.09,0-4.29,2-6.66,5.81-7.16C61,55.89,51.93,51.68,41.15,49.8a78.14,78.14,0,0,0-21.41-.64c-26.07,2.76-44.86,17.4-42,32.7s26.35,25.45,52.41,22.69c12.55-1.33,23.41-5.42,31-11,7-5.16,11.18-11.6,11.29-18.34A10.78,10.78,0,0,1,68.28,75.88ZM38.13,71.73h-1v4H33.85v-14h5.27c3.05,0,5.23,1.83,5.23,5C44.35,69.42,42.17,71.73,38.13,71.73Zm14.13,4.19c-4.76,0-7.09-2.77-7.09-7.25,0-4.71,2.83-7.16,7.45-7.16,4.92,0,7.05,2.84,7.05,7.2C59.67,73.35,57.08,75.92,52.26,75.92Z" style="fill:url(#h)"/><path d="M147.94,68.88a2.43,2.43,0,0,1,2.65-2.59,2.35,2.35,0,0,1,2.51,2.6,2.42,2.42,0,0,1-2.64,2.61A2.38,2.38,0,0,1,147.94,68.88Zm4.38,0a1.81,1.81,0,1,0-1.84,2A1.76,1.76,0,0,0,152.32,68.89Z" style="fill:#fff"/><path d="M153.86,69.45a1.85,1.85,0,0,1,1.93-2,2.31,2.31,0,0,1,1.11.24l-.21.57a2.08,2.08,0,0,0-.9-.19c-.67,0-1.16.46-1.16,1.41s.29,1.43,1.36,1.43a5.81,5.81,0,0,0,.78-.1l.11.58a3.46,3.46,0,0,1-.94.14C154.47,71.49,153.86,70.89,153.86,69.45Z" style="fill:#fff"/><path d="M157.41,69.51a1.85,1.85,0,0,1,1.87-2.1c1.23,0,1.81.76,1.81,2a1.8,1.8,0,0,1-1.86,2A1.74,1.74,0,0,1,157.41,69.51Zm2.93-.05c0-.69-.21-1.45-1.08-1.45s-1.09.75-1.09,1.46.26,1.42,1.1,1.42S160.34,70.21,160.34,69.46Z" style="fill:#fff"/><path d="M161.88,69.24a4.25,4.25,0,0,1,.6-2.49,6.54,6.54,0,0,1,2.66-.85l.13.68a6.81,6.81,0,0,0-2.29.58,1.84,1.84,0,0,0-.34,1,2.72,2.72,0,0,1,1.32-.35c.94,0,1.54.47,1.54,1.65a1.78,1.78,0,0,1-1.89,2C162.54,71.48,161.88,70.81,161.88,69.24Zm2.87.25c0-.62-.27-1.1-1-1.1a2.5,2.5,0,0,0-1.17.34v.44c0,1.17.35,1.71,1.06,1.71S164.75,70.16,164.75,69.49Z" style="fill:#fff"/><path d="M166.19,70.35c0-1,.87-1.17,1.55-1.18h.86v-.44c0-.54-.29-.66-.92-.66a4.36,4.36,0,0,0-1,.18l-.14-.56a3.52,3.52,0,0,1,1.34-.26c1,0,1.48.3,1.48,1.1v2c0,.24.17.29.36.3l0,.58h-.16c-.36,0-.77-.13-.83-.47a2.1,2.1,0,0,1-1.29.48A1,1,0,0,1,166.19,70.35Zm2.41.19v-.9l-.84,0c-.53,0-.84.26-.84.62s.26.59.63.59A2.92,2.92,0,0,0,168.6,70.54Z" style="fill:#fff"/><path d="M170.43,70.89a1.18,1.18,0,0,0,.82-.55l.26-.42a1.12,1.12,0,0,1-.73-1.08,1.33,1.33,0,0,1,1.48-1.33h1.45v3.91H173V70.09h-.71l-.46.68a1.44,1.44,0,0,1-1.26.7ZM173,69.53V68.11h-.64a.69.69,0,0,0-.78.73c0,.48.41.69.88.69Z" style="fill:#fff"/><path d="M176,71.27l.18-.6a4.15,4.15,0,0,0,1.18.16,1.79,1.79,0,0,0,2-1.66h-2.57v-.59h2.58A1.68,1.68,0,0,0,177.45,67a4,4,0,0,0-1.27.19l-.21-.59a3.59,3.59,0,0,1,1.5-.26,2.36,2.36,0,0,1,2.64,2.58,2.44,2.44,0,0,1-2.67,2.61A4.14,4.14,0,0,1,176,71.27Z" style="fill:#fff"/><path d="M181.08,67.51h.75v3.91h-.75Zm1.86,3.23-1.09-1.33,1.53-1.9h.85l-1.57,1.85.75.86a2.1,2.1,0,0,0,1,.7l-.12.56A1.68,1.68,0,0,1,182.94,70.74Z" style="fill:#fff"/><path d="M184.85,69.51a1.85,1.85,0,0,1,1.86-2.1c1.23,0,1.82.76,1.82,2a1.8,1.8,0,0,1-1.87,2A1.74,1.74,0,0,1,184.85,69.51Zm2.92-.05c0-.69-.21-1.45-1.08-1.45s-1.09.75-1.09,1.46.27,1.42,1.11,1.42S187.77,70.21,187.77,69.46Z" style="fill:#fff"/><path d="M189.49,67.51h.75v1.65h1.84V67.51h.75v3.91h-.75V69.76h-1.84v1.66h-.75Z" style="fill:#fff"/><path d="M193.79,69.51a1.86,1.86,0,0,1,1.87-2.1c1.23,0,1.82.76,1.82,2a1.81,1.81,0,0,1-1.87,2A1.74,1.74,0,0,1,193.79,69.51Zm2.93-.05c0-.69-.21-1.45-1.08-1.45s-1.09.75-1.09,1.46.27,1.42,1.1,1.42S196.72,70.21,196.72,69.46Z" style="fill:#fff"/><path d="M198.44,67.51h1l1.13,3.33,1.26-3.33h.95v3.91h-.71V69.23l0-.77-1.09,3h-.9l-1-3,0,.78v2.19h-.71Z" style="fill:#fff"/><path d="M204,67.51h.74v2.91l.33-.53,1.67-2.38h.74v3.91h-.74V68.51l-.33.54-1.67,2.37H204Z" style="fill:#fff"/><path d="M210.77,69.77a3.62,3.62,0,0,1-1.12.2c-1,0-1.27-.43-1.27-1.24V67.51h.74v1.16c0,.45.14.7.75.7a2.56,2.56,0,0,0,.9-.18V67.51h.75v3.91h-.75Z" style="fill:#fff"/><path d="M212.5,69.53c0-1.58.78-2.12,1.82-2.12s1.5.7,1.5,2v.26h-2.57c0,1.07.58,1.24,1.34,1.24a5.33,5.33,0,0,0,1-.16l.12.6a4.48,4.48,0,0,1-1.3.18C213.25,71.5,212.5,71,212.5,69.53Zm2.54-.41c0-.69-.25-1.16-.8-1.16s-.92.4-1,1.16Z" style="fill:#fff"/><path d="M216.54,69.45a1.85,1.85,0,0,1,1.93-2,2.31,2.31,0,0,1,1.11.24l-.21.57a2,2,0,0,0-.9-.19c-.67,0-1.16.46-1.16,1.41s.29,1.43,1.36,1.43a5.59,5.59,0,0,0,.78-.1l.11.58a3.4,3.4,0,0,1-.94.14C217.15,71.49,216.54,70.89,216.54,69.45Z" style="fill:#fff"/><path d="M220.41,67.51h.74v3.91h-.74Zm1.86,3.23-1.09-1.33,1.52-1.9h.85L222,69.36l.75.86a2,2,0,0,0,1,.7l-.13.56A1.65,1.65,0,0,1,222.27,70.74Z" style="fill:#fff"/><path d="M224.27,70.35c0-1,.87-1.17,1.55-1.18h.86v-.44c0-.54-.29-.66-.92-.66a4.36,4.36,0,0,0-1,.18l-.15-.56a3.54,3.54,0,0,1,1.35-.26c1,0,1.48.3,1.48,1.1v2c0,.24.17.29.35.3l0,.58h-.16c-.37,0-.77-.13-.84-.47a2,2,0,0,1-1.28.48A1,1,0,0,1,224.27,70.35Zm2.41.19v-.9l-.84,0c-.54,0-.84.26-.84.62s.25.59.63.59A2.92,2.92,0,0,0,226.68,70.54Z" style="fill:#fff"/><path d="M228.51,70.89a1.18,1.18,0,0,0,.82-.55s.23-.39.26-.42a1.12,1.12,0,0,1-.73-1.08,1.33,1.33,0,0,1,1.48-1.33h1.45v3.91H231V70.09h-.71l-.46.68a1.44,1.44,0,0,1-1.26.7ZM231,69.53V68.11h-.64a.69.69,0,0,0-.78.73c0,.48.41.69.88.69Z" style="fill:#fff"/><path d="M234,71.12l.26-.6a2.92,2.92,0,0,0,1.26.31c.62,0,1.12-.23,1.12-.85s-.52-.82-1.19-.82h-.57v-.59h.57c.6,0,1-.31,1-.83s-.33-.78-.91-.78a2.81,2.81,0,0,0-1.06.24l-.25-.54a3,3,0,0,1,1.39-.33c1,0,1.62.55,1.62,1.26a1.34,1.34,0,0,1-.76,1.23v0a1.2,1.2,0,0,1,1,1.17c0,.68-.44,1.46-1.85,1.46A3.45,3.45,0,0,1,234,71.12Z" style="fill:#fff"/><path d="M238.18,69.51a1.86,1.86,0,0,1,1.87-2.1c1.23,0,1.82.76,1.82,2a1.81,1.81,0,0,1-1.87,2A1.74,1.74,0,0,1,238.18,69.51Zm2.93-.05c0-.69-.21-1.45-1.08-1.45s-1.09.75-1.09,1.46.27,1.42,1.1,1.42S241.11,70.21,241.11,69.46Z" style="fill:#fff"/><path d="M242.83,67.51h.74v1.65h1.85V67.51h.74v3.91h-.74V69.76h-1.85v1.66h-.74Z" style="fill:#fff"/><path d="M247,70.35c0-1,.88-1.17,1.55-1.18h.86v-.44c0-.54-.28-.66-.91-.66a4.27,4.27,0,0,0-1,.18l-.15-.56a3.52,3.52,0,0,1,1.34-.26c1,0,1.48.3,1.48,1.1v2c0,.24.17.29.36.3l0,.58h-.15c-.37,0-.78-.13-.84-.47a2,2,0,0,1-1.29.48A1,1,0,0,1,247,70.35Zm2.41.19v-.9l-.83,0c-.54,0-.85.26-.85.62s.26.59.63.59A2.85,2.85,0,0,0,249.45,70.54Z" style="fill:#fff"/><path d="M147.38,53.76c0-4.71,2.6-7.29,7.5-7.29a9.79,9.79,0,0,1,4.25.78l-.71,2a10.46,10.46,0,0,0-3.5-.53c-2.68,0-4.76,1.45-4.76,4.82s2.18,5,5.16,5a11.08,11.08,0,0,0,3.28-.44l.59,2.09a11.6,11.6,0,0,1-4.23.63C150,60.88,147.38,58.2,147.38,53.76Z" style="fill:#fff"/><path d="M160.52,57.67c0-2.72,2.46-3.28,4.47-3.3l2.14,0v-1c0-1.25-.72-1.55-2.28-1.55a13.17,13.17,0,0,0-3,.48l-.54-2a11.75,11.75,0,0,1,4-.77c3,0,4.39.89,4.39,3.22v5.28c0,.51.44.63,1,.67l-.12,2H170c-1.15,0-2.4-.28-2.64-1.24A5.54,5.54,0,0,1,164,60.87C161.79,60.87,160.52,59.75,160.52,57.67Zm6.61.44V56l-2,.08c-1.26,0-2,.54-2,1.43s.68,1.31,1.51,1.31A9.05,9.05,0,0,0,167.13,58.11Z" style="fill:#fff"/><path d="M173,49.85h2.64v4.38h4.55V49.85h2.64V60.69h-2.64V56.26h-4.55v4.43H173Z" style="fill:#fff"/><path d="M185.76,49.85h2.64v4.9l3.69-4.9h3l-4.19,5.08L192.69,57a5.38,5.38,0,0,0,2.72,1.89l-.36,2A5,5,0,0,1,191,58.82l-2.56-3.2v5.07h-2.64Z" style="fill:#fff"/><path d="M199.9,51.87h-3.52v-2H206v2h-3.51v8.82H199.9Z" style="fill:#fff"/><path d="M206.12,53.92H212v2.16h-5.92Z" style="fill:#fff"/><path d="M214.63,46.65h11.83v14h-2.7V48.76h-6.43V60.69h-2.7Z" style="fill:#fff"/><path d="M229,55.45c0-4.43,2.24-5.86,5.3-5.86s4.4,2.06,4.4,5.46v1h-7.06c0,2.38,1.48,2.78,3.41,2.78a18.55,18.55,0,0,0,2.94-.44l.42,2a13.88,13.88,0,0,1-3.83.53C231.13,60.92,229,59.69,229,55.45Zm7-1.22c0-1.62-.63-2.75-1.94-2.75s-2.22,1-2.34,2.75Z" style="fill:#fff"/><path d="M243.4,51.87h-3.52v-2h9.65v2H246v8.82H243.4Z" style="fill:#fff"/><path d="M250.69,55.45c0-4.43,2.24-5.86,5.3-5.86s4.4,2.06,4.4,5.46v1h-7.06c0,2.38,1.49,2.78,3.41,2.78a18.55,18.55,0,0,0,2.94-.44l.42,2a13.88,13.88,0,0,1-3.83.53C252.85,60.92,250.69,59.69,250.69,55.45Zm7-1.22c0-1.62-.64-2.75-2-2.75s-2.22,1-2.34,2.75Z" style="fill:#fff"/><path d="M262.77,49.85h2.62v.81a5.22,5.22,0,0,1,2.77-1.07c2.92,0,4.65,1.59,4.65,5.24,0,4.53-2.76,6.05-5.76,6.05-.65,0-1.21-.06-1.66-.09v4.26h-2.62Zm7.36,5.2c0-2.07-.69-3.24-2.72-3.24a5.93,5.93,0,0,0-2,.58v6.29a12.6,12.6,0,0,0,1.74.16C269.08,58.84,270.13,57.21,270.13,55.05Z" style="fill:#fff"/><path d="M274.63,54.75c0-2.34.41-5.82,1.8-7,1.15-1,4.23-1.78,7.63-2.38l.41,2.36c-3,.48-5.62.9-6.31,1.47a3.72,3.72,0,0,0-.93,2.44,7.37,7.37,0,0,1,3.61-.89c2.68,0,4.29,1.33,4.29,4.53,0,3.89-2.37,5.61-5.52,5.61S274.63,59,274.63,54.75Zm7.84.64c0-1.51-.68-2.62-2.44-2.62a6.45,6.45,0,0,0-2.88.77c0,.32,0,.87,0,1.17,0,2.8.91,4.07,2.66,4.07C281.87,58.78,282.47,57,282.47,55.39Z" style="fill:#fff"/><path d="M290.53,60.69h-1l-3.63-10.84h2.84l2.06,6.93.5,1.82.57-1.81,2.37-6.94h2.68l-5.3,15.2h-2.54Z" style="fill:#fff"/><path d="M298.66,49.85h2.62v.81a5.25,5.25,0,0,1,2.78-1.07c2.92,0,4.64,1.59,4.64,5.24,0,4.53-2.76,6.05-5.75,6.05-.66,0-1.22-.06-1.67-.09v4.26h-2.62Zm7.36,5.2c0-2.07-.69-3.24-2.72-3.24a6,6,0,0,0-2,.58v6.29a12.79,12.79,0,0,0,1.75.16C305,58.84,306,57.21,306,55.05Z" style="fill:#fff"/><path d="M311.07,49.85h7.59v2h-5v8.82h-2.64Z" style="fill:#fff"/><path d="M149.11,76.33h-1.69V75.7h4.14v.63h-1.69v4.43h-.76Z" style="fill:#fff"/><path d="M151.39,78.87c0-1.58.79-2.11,1.82-2.11s1.5.7,1.5,2V79h-2.57c0,1.06.59,1.23,1.34,1.23a6.29,6.29,0,0,0,1-.15l.12.59a4.48,4.48,0,0,1-1.3.18C152.14,80.84,151.39,80.39,151.39,78.87Zm2.54-.41c0-.69-.25-1.16-.8-1.16s-.92.4-1,1.16Z" style="fill:#fff"/><path d="M156.65,78.76l-1.31-1.9h.87l.86,1.41.86-1.41h.85l-1.29,1.89,1.39,2H158l-.91-1.5-.93,1.5h-.88Z" style="fill:#fff"/><path d="M159.63,76.86h.75v1.65h1.84V76.86H163v3.9h-.75V79.1h-1.84v1.66h-.75Z" style="fill:#fff"/><path d="M163.93,78.85a1.85,1.85,0,0,1,1.87-2.09c1.23,0,1.81.75,1.81,2a1.8,1.8,0,0,1-1.87,2A1.74,1.74,0,0,1,163.93,78.85Zm2.92,0c0-.7-.2-1.45-1.08-1.45s-1.08.75-1.08,1.45.26,1.43,1.1,1.43S166.85,79.55,166.85,78.81Z" style="fill:#fff"/><path d="M168,80.25a1.35,1.35,0,0,0,.74-.57,8.29,8.29,0,0,0,.4-2.82h2.51v3.9h-.74V77.44h-1.12a7.15,7.15,0,0,1-.5,2.67,1.65,1.65,0,0,1-1.07.77Z" style="fill:#fff"/><path d="M172.63,78.85a1.85,1.85,0,0,1,1.87-2.09c1.23,0,1.82.75,1.82,2a1.8,1.8,0,0,1-1.87,2A1.75,1.75,0,0,1,172.63,78.85Zm2.93,0c0-.7-.21-1.45-1.08-1.45s-1.09.75-1.09,1.45.27,1.43,1.1,1.43S175.56,79.55,175.56,78.81Z" style="fill:#fff"/><path d="M177.28,76.86h2.57v.59H178v3.31h-.74Z" style="fill:#fff"/><path d="M180.67,76.86h.75v2.38l0,.53.34-.53,1.66-2.38h.75v3.9h-.75V78.39l0-.54-.34.54-1.66,2.37h-.75Z" style="fill:#fff"/><path d="M185.34,76.86h.74v2.38l0,.53.34-.53,1.67-2.38h.74v3.9h-.74V77.85l-.33.54-1.67,2.37h-.74Z" style="fill:#fff"/></svg>