<svg xmlns="http://www.w3.org/2000/svg" xmlns:xlink="http://www.w3.org/1999/xlink" width="317.58" height="98.65" viewBox="0 0 317.58 98.65">
  <defs>
    <radialGradient id="radial-gradient" cx="86.57" cy="36.29" fx="55.427187677521005" fy="75.39220130807057" r="88.75" gradientUnits="userSpaceOnUse">
      <stop offset="0.22" stop-color="#662483"/>
      <stop offset="0.59" stop-color="#672783" stop-opacity="0"/>
    </radialGradient>
    <radialGradient id="radial-gradient-2" cx="49.48" cy="66.13" r="69.27" gradientUnits="userSpaceOnUse">
      <stop offset="0.25" stop-color="#3b4395"/>
      <stop offset="0.7" stop-color="#3c4496" stop-opacity="0"/>
    </radialGradient>
    <radialGradient id="radial-gradient-3" cx="63.34" cy="61.61" r="46.01" gradientUnits="userSpaceOnUse">
      <stop offset="0.34" stop-color="#37348b"/>
      <stop offset="1" stop-color="#66348b"/>
    </radialGradient>
  </defs>
  <title>rus</title>
  <g style="isolation: isolate">
    <g id="Layer_1" data-name="Layer 1">
      <g>
        <g>
          <path d="M144.46-37.26c-20.65-13.42-58,2.49-83.52,35.54-11.22,14.56-18.25,30-20.85,43.89-3.3,17.63.56,32.73,12.11,40.24a28,28,0,0,0,7.89,3.5c21.34,5.94,53.12-9.86,75.63-39C161.19,13.82,165.11-23.84,144.46-37.26Z" fill="url(#radial-gradient)"/>
          <path d="M69.81,64.52c-2-10.9-14.56-19.18-31-22a77.36,77.36,0,0,0-21.41-.64c-26.07,2.76-44.87,17.4-42,32.69S1.75,100,27.82,97.21c12.55-1.33,23.4-5.41,31-11C67,80.2,71.3,72.45,69.81,64.52Z" fill="url(#radial-gradient-2)"/>
          <path d="M69.81,64.52c-2-10.63-14-18.77-29.81-21.83C36.88,60.1,40.76,75,52.2,82.41a28,28,0,0,0,7.25,3.3C67.18,79.77,71.26,72.23,69.81,64.52Z" fill="url(#radial-gradient-3)"/>
        </g>
        <g style="mix-blend-mode: hard-light">
          <path d="M145.59,61.55A2.43,2.43,0,0,1,148.24,59a2.34,2.34,0,0,1,2.51,2.6,2.43,2.43,0,0,1-2.65,2.61A2.37,2.37,0,0,1,145.59,61.55Zm4.38,0a1.81,1.81,0,1,0-1.84,2A1.76,1.76,0,0,0,150,61.55Z" fill="#585857"/>
          <path d="M151.51,62.12a1.85,1.85,0,0,1,1.92-2,2.24,2.24,0,0,1,1.12.24l-.22.57a2,2,0,0,0-.9-.19c-.66,0-1.16.46-1.16,1.41s.3,1.42,1.37,1.42a4.4,4.4,0,0,0,.77-.1l.12.59a3.48,3.48,0,0,1-.95.14C152.12,64.16,151.51,63.55,151.51,62.12Z" fill="#585857"/>
          <path d="M155.06,62.17a1.85,1.85,0,0,1,1.87-2.09c1.23,0,1.81.76,1.81,2.05a1.8,1.8,0,0,1-1.87,2A1.75,1.75,0,0,1,155.06,62.17Zm2.92,0c0-.69-.2-1.45-1.08-1.45s-1.08.75-1.08,1.46.26,1.42,1.1,1.42S158,62.88,158,62.13Z" fill="#585857"/>
          <path d="M159.53,61.9a4.2,4.2,0,0,1,.6-2.48,6.54,6.54,0,0,1,2.66-.85l.12.67a7,7,0,0,0-2.28.59,1.84,1.84,0,0,0-.34,1,2.72,2.72,0,0,1,1.32-.35c.94,0,1.54.46,1.54,1.65a1.79,1.79,0,0,1-1.89,2C160.19,64.15,159.53,63.48,159.53,61.9Zm2.87.26c0-.62-.27-1.1-1-1.1a2.62,2.62,0,0,0-1.17.33c0,.13,0,.32,0,.45,0,1.16.35,1.71,1.07,1.71S162.4,62.83,162.4,62.16Z" fill="#585857"/>
          <path d="M163.84,63c0-1,.87-1.17,1.55-1.18l.86,0v-.43c0-.55-.29-.66-.92-.66a4.36,4.36,0,0,0-1,.18l-.15-.57a3.79,3.79,0,0,1,1.35-.25c1,0,1.48.3,1.48,1.1v2c0,.25.17.3.36.31l0,.58h-.16c-.36,0-.77-.13-.83-.48a2.09,2.09,0,0,1-1.29.49A1,1,0,0,1,163.84,63Zm2.41.18v-.9l-.84,0c-.54,0-.84.26-.84.61s.26.6.63.6A2.71,2.71,0,0,0,166.25,63.2Z" fill="#585857"/>
          <path d="M168.08,63.55a1.12,1.12,0,0,0,.82-.55l.25-.42a1.11,1.11,0,0,1-.72-1.08,1.33,1.33,0,0,1,1.48-1.32h1.45v3.9h-.75V62.76h-.71l-.46.68a1.44,1.44,0,0,1-1.27.71Zm2.53-1.35V60.77H170a.69.69,0,0,0-.78.73c0,.49.41.7.88.7Z" fill="#585857"/>
          <path d="M173.6,63.93l.18-.59a4.15,4.15,0,0,0,1.18.16,1.79,1.79,0,0,0,2-1.66h-2.57v-.59H177a1.68,1.68,0,0,0-1.85-1.62,3.91,3.91,0,0,0-1.27.19l-.21-.59a3.39,3.39,0,0,1,1.5-.26,2.36,2.36,0,0,1,2.63,2.58,2.44,2.44,0,0,1-2.66,2.61A3.86,3.86,0,0,1,173.6,63.93Z" fill="#585857"/>
          <path d="M178.73,60.18h.74v3.9h-.74Zm1.86,3.23-1.09-1.33,1.53-1.9h.85L180.31,62l.75.86a2.08,2.08,0,0,0,1,.71l-.12.56A1.67,1.67,0,0,1,180.59,63.41Z" fill="#585857"/>
          <path d="M182.5,62.17a1.85,1.85,0,0,1,1.86-2.09c1.23,0,1.82.76,1.82,2.05a1.81,1.81,0,0,1-1.87,2A1.75,1.75,0,0,1,182.5,62.17Zm2.92,0c0-.69-.21-1.45-1.08-1.45s-1.09.75-1.09,1.46.27,1.42,1.1,1.42S185.42,62.88,185.42,62.13Z" fill="#585857"/>
          <path d="M187.14,60.18h.75v1.65h1.84V60.18h.74v3.9h-.74V62.42h-1.84v1.66h-.75Z" fill="#585857"/>
          <path d="M191.44,62.17a1.85,1.85,0,0,1,1.87-2.09c1.23,0,1.81.76,1.81,2.05a1.8,1.8,0,0,1-1.86,2A1.75,1.75,0,0,1,191.44,62.17Zm2.93,0c0-.69-.21-1.45-1.08-1.45s-1.09.75-1.09,1.46.26,1.42,1.1,1.42S194.37,62.88,194.37,62.13Z" fill="#585857"/>
          <path d="M196.09,60.18h1l1.13,3.33,1.26-3.33h.95v3.9h-.71V61.9l0-.77-1.09,2.95h-.9l-1-3,.05.78v2.18h-.71Z" fill="#585857"/>
          <path d="M201.6,60.18h.74v2.91l.33-.53,1.67-2.38h.74v3.9h-.74V61.17l-.33.55-1.67,2.36h-.74Z" fill="#585857"/>
          <path d="M208.42,62.44a3.68,3.68,0,0,1-1.13.2c-1,0-1.26-.43-1.26-1.24V60.18h.74v1.16c0,.45.14.7.74.7a2.36,2.36,0,0,0,.91-.19V60.18h.75v3.9h-.75Z" fill="#585857"/>
          <path d="M210.15,62.2c0-1.58.78-2.12,1.82-2.12s1.49.7,1.49,2v.26H210.9c0,1.07.58,1.24,1.34,1.24a5.33,5.33,0,0,0,1-.16l.12.59a4.46,4.46,0,0,1-1.3.19C210.9,64.17,210.15,63.71,210.15,62.2Zm2.54-.41c0-.7-.26-1.17-.81-1.17s-.91.4-1,1.17Z" fill="#585857"/>
          <path d="M214.19,62.12a1.85,1.85,0,0,1,1.93-2,2.2,2.2,0,0,1,1.11.24l-.21.57a2.08,2.08,0,0,0-.9-.19c-.67,0-1.16.46-1.16,1.41s.29,1.42,1.36,1.42a4.4,4.4,0,0,0,.78-.1l.11.59a3.46,3.46,0,0,1-.94.14C214.8,64.16,214.19,63.55,214.19,62.12Z" fill="#585857"/>
          <path d="M218.06,60.18h.74v3.9h-.74Zm1.86,3.23-1.09-1.33,1.52-1.9h.85L219.64,62l.75.86a2.06,2.06,0,0,0,1,.71l-.12.56A1.65,1.65,0,0,1,219.92,63.41Z" fill="#585857"/>
          <path d="M221.91,63c0-1,.88-1.17,1.56-1.18l.85,0v-.43c0-.55-.28-.66-.91-.66a4.36,4.36,0,0,0-1,.18l-.15-.57a3.77,3.77,0,0,1,1.34-.25c1,0,1.48.3,1.48,1.1v2c0,.25.18.3.36.31l0,.58h-.16c-.37,0-.78-.13-.84-.48a2,2,0,0,1-1.29.49A1,1,0,0,1,221.91,63Zm2.41.18v-.9l-.83,0c-.54,0-.85.26-.85.61s.26.6.63.6A2.65,2.65,0,0,0,224.32,63.2Z" fill="#585857"/>
          <path d="M226.15,63.55A1.12,1.12,0,0,0,227,63l.25-.42a1.1,1.1,0,0,1-.72-1.08A1.33,1.33,0,0,1,228,60.18h1.45v3.9h-.75V62.76H228l-.46.68a1.44,1.44,0,0,1-1.27.71Zm2.54-1.35V60.77h-.64a.69.69,0,0,0-.78.73c0,.49.41.7.88.7Z" fill="#585857"/>
          <path d="M231.64,63.79l.26-.6a2.89,2.89,0,0,0,1.26.31c.61,0,1.11-.23,1.11-.85s-.51-.82-1.18-.82h-.57v-.59h.57c.6,0,1-.31,1-.83s-.33-.78-.91-.78a3.09,3.09,0,0,0-1.07.23l-.25-.53a3.09,3.09,0,0,1,1.4-.33c1,0,1.61.55,1.61,1.26a1.33,1.33,0,0,1-.75,1.23h0a1.21,1.21,0,0,1,1,1.18c0,.67-.44,1.46-1.85,1.46A3.41,3.41,0,0,1,231.64,63.79Z" fill="#585857"/>
          <path d="M235.83,62.17a1.85,1.85,0,0,1,1.87-2.09c1.23,0,1.81.76,1.81,2.05a1.8,1.8,0,0,1-1.86,2A1.75,1.75,0,0,1,235.83,62.17Zm2.92,0c0-.69-.2-1.45-1.07-1.45s-1.09.75-1.09,1.46.26,1.42,1.1,1.42S238.75,62.88,238.75,62.13Z" fill="#585857"/>
          <path d="M240.48,60.18h.74v1.65h1.85V60.18h.74v3.9h-.74V62.42h-1.85v1.66h-.74Z" fill="#585857"/>
          <path d="M244.69,63c0-1,.87-1.17,1.55-1.18l.86,0v-.43c0-.55-.29-.66-.91-.66a4.18,4.18,0,0,0-1,.18l-.15-.57a3.77,3.77,0,0,1,1.34-.25c1,0,1.48.3,1.48,1.1v2c0,.25.17.3.36.31l0,.58H248c-.36,0-.77-.13-.83-.48a2.09,2.09,0,0,1-1.29.49A1,1,0,0,1,244.69,63Zm2.41.18v-.9l-.84,0c-.53,0-.84.26-.84.61s.26.6.63.6A2.71,2.71,0,0,0,247.1,63.2Z" fill="#585857"/>
        </g>
        <g style="mix-blend-mode: hard-light">
          <path d="M145,46.43c0-4.71,2.6-7.29,7.5-7.29a10,10,0,0,1,4.25.77l-.71,2a10.48,10.48,0,0,0-3.5-.54c-2.68,0-4.76,1.45-4.76,4.83s2.18,5,5.16,5a11,11,0,0,0,3.27-.44l.6,2.09a11.82,11.82,0,0,1-4.23.63C147.67,53.55,145,50.87,145,46.43Z" fill="#652581"/>
          <path d="M158.17,50.34c0-2.72,2.46-3.28,4.46-3.3l2.15,0v-1c0-1.25-.72-1.55-2.29-1.55a13.17,13.17,0,0,0-3,.48l-.54-2a11.42,11.42,0,0,1,4-.77c3,0,4.39.89,4.39,3.21v5.28c0,.52.43.64,1,.68l-.12,2h-.57c-1.16,0-2.41-.28-2.64-1.23a5.54,5.54,0,0,1-3.38,1.31C159.44,53.53,158.17,52.42,158.17,50.34Zm6.61.43V48.63l-2,.08c-1.25,0-2,.53-2,1.43s.67,1.31,1.51,1.31A8.71,8.71,0,0,0,164.78,50.77Z" fill="#652581"/>
          <path d="M170.65,42.52h2.64V46.9h4.55V42.52h2.64V53.35h-2.64V48.93h-4.55v4.42h-2.64Z" fill="#652581"/>
          <path d="M183.41,42.52h2.64v4.9l3.69-4.9h3l-4.19,5.08,1.83,2.08a5.42,5.42,0,0,0,2.71,1.89l-.35,2a5,5,0,0,1-4.09-2.08l-2.56-3.2v5.06h-2.64Z" fill="#652581"/>
          <path d="M197.55,44.54H194v-2h9.65v2h-3.51v8.81h-2.62Z" fill="#652581"/>
          <path d="M203.77,46.58h5.92v2.17h-5.92Z" fill="#652581"/>
          <path d="M212.28,39.32h11.83v14h-2.7V41.42H215V53.35h-2.7Z" fill="#652581"/>
          <path d="M226.61,48.11c0-4.42,2.25-5.85,5.3-5.85s4.41,2.06,4.41,5.46v1h-7.06c0,2.38,1.48,2.78,3.41,2.78a18.9,18.9,0,0,0,2.94-.44l.41,2.05a14.15,14.15,0,0,1-3.83.53C228.78,53.59,226.61,52.36,226.61,48.11Zm7-1.21c0-1.63-.63-2.76-1.94-2.76s-2.23,1-2.35,2.76Z" fill="#652581"/>
          <path d="M241,44.54h-3.51v-2h9.65v2h-3.52v8.81H241Z" fill="#652581"/>
          <path d="M248.34,48.11c0-4.42,2.24-5.85,5.3-5.85s4.4,2.06,4.4,5.46v1H251c0,2.38,1.48,2.78,3.41,2.78a18.55,18.55,0,0,0,2.94-.44l.41,2.05a14.15,14.15,0,0,1-3.83.53C250.5,53.59,248.34,52.36,248.34,48.11Zm7-1.21c0-1.63-.63-2.76-1.94-2.76s-2.22,1-2.34,2.76Z" fill="#652581"/>
          <path d="M260.41,42.52H263v.81a5.28,5.28,0,0,1,2.78-1.07c2.92,0,4.65,1.59,4.65,5.24,0,4.52-2.76,6-5.76,6-.65,0-1.21-.06-1.67-.1v4.27h-2.62Zm7.37,5.2c0-2.07-.7-3.24-2.72-3.24a6,6,0,0,0-2,.58v6.29a13,13,0,0,0,1.75.16C266.73,51.51,267.78,49.88,267.78,47.72Z" fill="#652581"/>
          <path d="M272.27,47.42c0-2.34.42-5.82,1.81-7,1.15-1,4.23-1.79,7.62-2.38l.42,2.36c-3,.48-5.62.89-6.31,1.47a3.73,3.73,0,0,0-.94,2.44,7.33,7.33,0,0,1,3.62-.89c2.68,0,4.29,1.33,4.29,4.52,0,3.89-2.37,5.62-5.52,5.62S272.27,51.69,272.27,47.42Zm7.84.63c0-1.51-.67-2.62-2.44-2.62a6.53,6.53,0,0,0-2.88.78c0,.31,0,.87,0,1.17,0,2.8.92,4.07,2.66,4.07C279.52,51.45,280.11,49.68,280.11,48.05Z" fill="#652581"/>
          <path d="M288.18,53.35h-1l-3.63-10.83h2.84l2.06,6.92.5,1.83.57-1.81,2.36-6.94h2.69l-5.31,15.2h-2.54Z" fill="#652581"/>
          <path d="M296.31,42.52h2.62v.81a5.22,5.22,0,0,1,2.78-1.07c2.91,0,4.64,1.59,4.64,5.24,0,4.52-2.76,6-5.76,6-.65,0-1.21-.06-1.66-.1v4.27h-2.62Zm7.36,5.2c0-2.07-.69-3.24-2.72-3.24a5.93,5.93,0,0,0-2,.58v6.29a12.6,12.6,0,0,0,1.74.16C302.62,51.51,303.67,49.88,303.67,47.72Z" fill="#652581"/>
          <path d="M308.72,42.52h7.58v2h-4.94v8.81h-2.64Z" fill="#652581"/>
        </g>
        <g style="mix-blend-mode: hard-light">
          <path d="M146.76,69h-1.69v-.63h4.14V69h-1.69v4.43h-.76Z" fill="#585857"/>
          <path d="M149,71.54c0-1.58.78-2.12,1.82-2.12s1.49.7,1.49,2v.26h-2.56c0,1.07.58,1.24,1.34,1.24a5.33,5.33,0,0,0,1-.16l.12.6a4.54,4.54,0,0,1-1.3.18C149.79,73.51,149,73.05,149,71.54Zm2.54-.41c0-.69-.26-1.16-.81-1.16s-.91.4-1,1.16Z" fill="#585857"/>
          <path d="M154.29,71.43,153,69.52h.87l.86,1.42.86-1.42h.84l-1.28,1.9,1.38,2h-.89l-.91-1.5-.93,1.5h-.88Z" fill="#585857"/>
          <path d="M157.28,69.52H158v1.65h1.84V69.52h.74v3.91h-.74V71.77H158v1.66h-.75Z" fill="#585857"/>
          <path d="M161.58,71.52a1.85,1.85,0,0,1,1.86-2.1c1.23,0,1.82.76,1.82,2.06a1.8,1.8,0,0,1-1.87,2A1.74,1.74,0,0,1,161.58,71.52Zm2.92,0c0-.7-.21-1.46-1.08-1.46s-1.09.75-1.09,1.46.27,1.42,1.11,1.42S164.5,72.22,164.5,71.48Z" fill="#585857"/>
          <path d="M165.67,72.92a1.35,1.35,0,0,0,.74-.57,8.58,8.58,0,0,0,.4-2.83h2.51v3.91h-.74V70.11h-1.12a7.36,7.36,0,0,1-.5,2.67,1.68,1.68,0,0,1-1.07.77Z" fill="#585857"/>
          <path d="M170.28,71.52a1.85,1.85,0,0,1,1.87-2.1c1.23,0,1.82.76,1.82,2.06a1.81,1.81,0,0,1-1.87,2A1.74,1.74,0,0,1,170.28,71.52Zm2.93,0c0-.7-.21-1.46-1.08-1.46s-1.09.75-1.09,1.46.26,1.42,1.1,1.42S173.21,72.22,173.21,71.48Z" fill="#585857"/>
          <path d="M174.93,69.52h2.56v.6h-1.82v3.31h-.74Z" fill="#585857"/>
          <path d="M178.32,69.52h.74v2.91l.33-.53,1.67-2.38h.75v3.91h-.75V71.05l0-.53-.34.54-1.67,2.37h-.74Z" fill="#585857"/>
          <path d="M183,69.52h.75v2.39l0,.52.34-.53,1.66-2.38h.75v3.91h-.75V71.05l0-.53-.34.54-1.66,2.37H183Z" fill="#585857"/>
        </g>
        <g style="mix-blend-mode: hard-light">
          <path d="M108.65,56.74a2.51,2.51,0,0,1,2.68-2.66,2.42,2.42,0,0,1,2.53,2.67,2.48,2.48,0,0,1-2.66,2.66A2.43,2.43,0,0,1,108.65,56.74Zm4.7,0A2.1,2.1,0,1,0,111.22,59,2,2,0,0,0,113.35,56.74Zm-1.59,1c-.08-.08-.46-.6-.51-.66l-.2,0h-.27v1.05h-.53V55.2h1c.6,0,1,.24,1,.91a.83.83,0,0,1-.52.81c.25.32.5.73.92.85l-.11.4A1.16,1.16,0,0,1,111.76,57.72Zm-.68-1.08c.42,0,.66-.12.66-.51s-.17-.51-.56-.51h-.4v1Z" fill="#fff"/>
          <g>
            <path d="M31.5,54.4h5.27c3,0,5.23,1.83,5.23,5,0,2.74-2.19,5.05-6.23,5.05h-1v3.95H31.5Zm3.28,7.42h1.11c2,0,2.76-1.09,2.76-2.39S38.09,57,36.35,57H34.78Z" fill="#fff"/>
            <path d="M42.82,61.34c0-4.72,2.83-7.16,7.45-7.16,4.92,0,7,2.84,7,7.2,0,4.64-2.59,7.2-7.42,7.2S42.82,65.82,42.82,61.34Zm11.18,0c0-2.6-1.17-4.54-3.91-4.54s-4,1.94-4,4.5S47.2,65.94,50,65.94C53,65.94,54,64,54,61.36Z" fill="#fff"/>
            <path d="M58.42,61.46c0-4.85,2.51-7.26,7.43-7.26a9.11,9.11,0,0,1,4.21.85l-.86,2.42A10.49,10.49,0,0,0,65.89,57c-2.45,0-4.16,1.38-4.16,4.3s1.8,4.48,4.54,4.48a11,11,0,0,0,3.14-.39l.69,2.53a10.8,10.8,0,0,1-4.17.67C61,68.55,58.42,66,58.42,61.46Z" fill="#fff"/>
            <path d="M70.41,61.34c0-4.72,2.83-7.16,7.45-7.16,4.92,0,7,2.84,7,7.2,0,4.64-2.59,7.2-7.42,7.2S70.41,65.82,70.41,61.34Zm11.19,0c0-2.6-1.18-4.54-3.91-4.54s-4,1.94-4,4.5,1.09,4.62,3.85,4.62C80.54,65.94,81.6,64,81.6,61.36Z" fill="#fff"/>
            <path d="M85.3,67.88,86,65.35a11.05,11.05,0,0,0,3.14.39c2.32,0,4-1.1,4.41-3.19H87.35V60.12h6.23A3.71,3.71,0,0,0,89.52,57a10.58,10.58,0,0,0-3.32.47l-.86-2.42a9.23,9.23,0,0,1,4.22-.81c4.92,0,7.43,2.37,7.43,7.22,0,4.58-2.55,7.09-7.51,7.09A10.85,10.85,0,0,1,85.3,67.88Z" fill="#fff"/>
            <path d="M97.11,67.28l1.06-2.47a8.27,8.27,0,0,0,3.54,1c1.36,0,2.36-.49,2.36-1.68s-1.08-1.65-2.49-1.65H99.74V60.08h1.86c1.24,0,2-.65,2-1.58s-.63-1.5-1.94-1.5a7.62,7.62,0,0,0-2.89.69l-1-2.27a9.18,9.18,0,0,1,4.27-1.1c3.28,0,4.88,1.59,4.88,3.53A3.59,3.59,0,0,1,105,61.11v0a3.36,3.36,0,0,1,2.39,3.32c0,1.87-1.25,4-5.38,4A9.68,9.68,0,0,1,97.11,67.28Z" fill="#fff"/>
          </g>
        </g>
      </g>
    </g>
  </g>
</svg>
