<svg xmlns="http://www.w3.org/2000/svg" xmlns:xlink="http://www.w3.org/1999/xlink" width="292.63" height="170.86" viewBox="0 0 292.63 170.86"><defs><radialGradient id="a" cx="87.24" cy="70.31" r="7.76" gradientUnits="userSpaceOnUse"><stop offset="0.25" stop-color="#fff"/><stop offset="0.7" stop-color="#fff" stop-opacity="0"/></radialGradient><radialGradient id="b" cx="70.22" cy="68.13" r="12.42" xlink:href="#a"/><radialGradient id="c" cx="66.69" cy="84.78" r="86.85" gradientUnits="userSpaceOnUse"><stop offset="0.25" stop-color="#fff" stop-opacity="0.8"/><stop offset="0.7" stop-color="#fff" stop-opacity="0"/></radialGradient><radialGradient id="d" cx="113.23" cy="47.36" fx="74.20722494344272" fy="96.36815059304817" r="111.24" gradientUnits="userSpaceOnUse"><stop offset="0.22" stop-color="#fff" stop-opacity="0.8"/><stop offset="0.59" stop-color="#fff" stop-opacity="0"/></radialGradient><radialGradient id="e" cx="84.09" cy="79.11" r="57.68" gradientUnits="userSpaceOnUse"><stop offset="0.34" stop-color="#fff"/><stop offset="1" stop-color="#fff"/></radialGradient><radialGradient id="f" cx="87.23" cy="70.31" r="7.76" xlink:href="#e"/><radialGradient id="g" cx="70.22" cy="68.13" r="12.42" xlink:href="#e"/></defs><title>Logo-white-footer</title><g style="isolation:isolate"><g style="mix-blend-mode:hard-light"><path d="M77.69,155.75A3.05,3.05,0,0,1,81,152.49a3,3,0,0,1,3.17,3.28,3.06,3.06,0,0,1-3.34,3.28A3,3,0,0,1,77.69,155.75Zm5.51,0a2.28,2.28,0,1,0-2.32,2.5A2.22,2.22,0,0,0,83.2,155.76Z" style="fill:#fff"/><path d="M85.14,156.47a2.33,2.33,0,0,1,2.42-2.57,3,3,0,0,1,1.41.3l-.27.72a2.56,2.56,0,0,0-1.14-.23c-.83,0-1.46.57-1.46,1.77s.37,1.79,1.72,1.79a5.31,5.31,0,0,0,1-.13l.14.74a4.59,4.59,0,0,1-1.19.17C85.91,159,85.14,158.28,85.14,156.47Z" style="fill:#fff"/><path d="M89.61,156.54A2.33,2.33,0,0,1,92,153.9c1.55,0,2.29,1,2.29,2.59a2.27,2.27,0,0,1-2.35,2.56A2.2,2.2,0,0,1,89.61,156.54Zm3.68,0c0-.88-.26-1.83-1.36-1.83s-1.37.94-1.37,1.83.34,1.8,1.39,1.8S93.29,157.42,93.29,156.49Z" style="fill:#fff"/><path d="M95.24,156.2c0-1,.19-2.59.76-3.13A8.25,8.25,0,0,1,99.35,152l.15.85a8.55,8.55,0,0,0-2.88.74,2.23,2.23,0,0,0-.42,1.26,3.37,3.37,0,0,1,1.66-.44c1.18,0,1.94.58,1.94,2.08A2.25,2.25,0,0,1,97.42,159C96.07,159,95.24,158.18,95.24,156.2Zm3.61.32c0-.78-.34-1.38-1.22-1.38a3.08,3.08,0,0,0-1.47.42c0,.16,0,.39,0,.56,0,1.46.44,2.15,1.34,2.15C98.56,158.27,98.85,157.37,98.85,156.52Z" style="fill:#fff"/><path d="M100.67,157.6c0-1.21,1.09-1.47,2-1.48l1.08,0v-.55c0-.68-.36-.83-1.15-.83a5.25,5.25,0,0,0-1.3.23l-.19-.71a4.45,4.45,0,0,1,1.69-.33c1.22,0,1.87.38,1.87,1.39v2.57c0,.31.21.37.45.39l0,.73h-.2c-.46,0-1-.16-1-.6a2.58,2.58,0,0,1-1.62.62A1.31,1.31,0,0,1,100.67,157.6Zm3,.24V156.7l-1,.05c-.68,0-1.07.32-1.07.77s.33.75.8.75A3.55,3.55,0,0,0,103.7,157.84Z" style="fill:#fff"/><path d="M106,158.28a1.44,1.44,0,0,0,1-.7s.3-.48.33-.53a1.38,1.38,0,0,1-.91-1.36,1.67,1.67,0,0,1,1.86-1.66h1.82v4.91h-.94v-1.66h-.9l-.57.85a1.83,1.83,0,0,1-1.6.9Zm3.19-1.71v-1.79h-.81a.86.86,0,0,0-1,.91c0,.62.52.88,1.11.88Z" style="fill:#fff"/><path d="M113,158.75l.22-.74a5.36,5.36,0,0,0,1.49.2,2.26,2.26,0,0,0,2.49-2.09h-3.23v-.75h3.24a2.12,2.12,0,0,0-2.32-2,4.67,4.67,0,0,0-1.61.25l-.26-.75a4.38,4.38,0,0,1,1.88-.32,3,3,0,0,1,3.33,3.24,3.07,3.07,0,0,1-3.36,3.28A4.86,4.86,0,0,1,113,158.75Z" style="fill:#fff"/><path d="M119.42,154h.93v4.91h-.93Zm2.34,4.07-1.37-1.68,1.92-2.39h1.07l-2,2.32.94,1.08a2.57,2.57,0,0,0,1.22.89l-.16.7A2.08,2.08,0,0,1,121.76,158.1Z" style="fill:#fff"/><path d="M124.16,156.54a2.33,2.33,0,0,1,2.34-2.64c1.55,0,2.29,1,2.29,2.59a2.27,2.27,0,0,1-2.35,2.56A2.2,2.2,0,0,1,124.16,156.54Zm3.68,0c0-.88-.26-1.83-1.36-1.83s-1.37.94-1.37,1.83.33,1.8,1.39,1.8S127.84,157.42,127.84,156.49Z" style="fill:#fff"/><path d="M130,154h.93v2.08h2.33V154h.93v4.91h-.93v-2.08h-2.33v2.08H130Z" style="fill:#fff"/><path d="M135.42,156.54a2.33,2.33,0,0,1,2.35-2.64c1.55,0,2.29,1,2.29,2.59a2.27,2.27,0,0,1-2.35,2.56A2.2,2.2,0,0,1,135.42,156.54Zm3.68,0c0-.88-.26-1.83-1.36-1.83s-1.37.94-1.37,1.83.34,1.8,1.39,1.8S139.1,157.42,139.1,156.49Z" style="fill:#fff"/><path d="M141.27,154h1.23l1.43,4.19,1.58-4.19h1.2v4.91h-.89v-2.75l0-1-1.37,3.71h-1.13l-1.24-3.73,0,1v2.75h-.89Z" style="fill:#fff"/><path d="M148.21,154h.93v3l0,.65.43-.66,2.09-3h.94v4.91h-.94v-3l0-.67-.42.68-2.1,3h-.93Z" style="fill:#fff"/><path d="M156.79,156.87a4.38,4.38,0,0,1-1.41.26c-1.23,0-1.6-.55-1.6-1.56V154h.94v1.46c0,.56.17.88.94.88a3,3,0,0,0,1.13-.24V154h1v4.91h-1Z" style="fill:#fff"/><path d="M159,156.57c0-2,1-2.67,2.3-2.67s1.88.88,1.88,2.48v.33h-3.23c0,1.34.73,1.56,1.69,1.56a7.32,7.32,0,0,0,1.27-.2l.15.75a5.64,5.64,0,0,1-1.64.23C159.92,159.05,159,158.48,159,156.57Zm3.2-.52c0-.87-.32-1.46-1-1.46s-1.16.5-1.23,1.46Z" style="fill:#fff"/><path d="M164.07,156.47a2.32,2.32,0,0,1,2.42-2.57,3,3,0,0,1,1.4.3l-.27.72a2.52,2.52,0,0,0-1.13-.23c-.84,0-1.46.57-1.46,1.77s.37,1.79,1.72,1.79a5.31,5.31,0,0,0,1-.13l.14.74a4.59,4.59,0,0,1-1.19.17C164.83,159,164.07,158.28,164.07,156.47Z" style="fill:#fff"/><path d="M168.93,154h.94v4.91h-.94Zm2.34,4.07-1.37-1.68,1.92-2.39h1.07l-2,2.32.94,1.08a2.62,2.62,0,0,0,1.22.89l-.15.7A2.08,2.08,0,0,1,171.27,158.1Z" style="fill:#fff"/><path d="M173.79,157.6c0-1.21,1.1-1.47,2-1.48l1.08,0v-.55c0-.68-.36-.83-1.15-.83a5.25,5.25,0,0,0-1.3.23l-.19-.71a4.47,4.47,0,0,1,1.7-.33c1.21,0,1.86.38,1.86,1.39v2.57c0,.31.22.37.45.39l0,.73H178c-.46,0-1-.16-1.06-.6a2.58,2.58,0,0,1-1.62.62A1.31,1.31,0,0,1,173.79,157.6Zm3,.24V156.7l-1,.05c-.68,0-1.06.32-1.06.77s.32.75.79.75A3.55,3.55,0,0,0,176.82,157.84Z" style="fill:#fff"/><path d="M179.13,158.28a1.46,1.46,0,0,0,1-.7s.3-.48.33-.53a1.37,1.37,0,0,1-.91-1.36,1.67,1.67,0,0,1,1.86-1.66h1.82v4.91h-.94v-1.66h-.9l-.58.85a1.81,1.81,0,0,1-1.59.9Zm3.19-1.71v-1.79h-.81a.86.86,0,0,0-1,.91c0,.62.51.88,1.11.88Z" style="fill:#fff"/><path d="M186,158.58l.33-.76a3.68,3.68,0,0,0,1.59.39c.77,0,1.4-.29,1.4-1.08s-.65-1-1.49-1h-.72v-.75h.72c.75,0,1.23-.39,1.23-1s-.42-1-1.14-1a3.8,3.8,0,0,0-1.35.3l-.31-.67a3.83,3.83,0,0,1,1.75-.42c1.33,0,2,.7,2,1.59a1.71,1.71,0,0,1-1,1.55h0a1.52,1.52,0,0,1,1.22,1.48c0,.86-.56,1.85-2.33,1.85A4.37,4.37,0,0,1,186,158.58Z" style="fill:#fff"/><path d="M191.31,156.54a2.33,2.33,0,0,1,2.35-2.64c1.55,0,2.29,1,2.29,2.59a2.27,2.27,0,0,1-2.35,2.56A2.2,2.2,0,0,1,191.31,156.54Zm3.68,0c0-.88-.26-1.83-1.36-1.83s-1.37.94-1.37,1.83.34,1.8,1.39,1.8S195,157.42,195,156.49Z" style="fill:#fff"/><path d="M197.16,154h.94v2.08h2.32V154h.94v4.91h-.94v-2.08H198.1v2.08h-.94Z" style="fill:#fff"/><path d="M202.47,157.6c0-1.21,1.09-1.47,1.95-1.48l1.08,0v-.55c0-.68-.36-.83-1.15-.83a5.25,5.25,0,0,0-1.3.23l-.19-.71a4.45,4.45,0,0,1,1.69-.33c1.22,0,1.87.38,1.87,1.39v2.57c0,.31.21.37.45.39l-.05.73h-.2c-.45,0-1-.16-1.05-.6A2.58,2.58,0,0,1,204,159,1.31,1.31,0,0,1,202.47,157.6Zm3,.24V156.7l-1.05.05c-.68,0-1.07.32-1.07.77s.33.75.8.75A3.55,3.55,0,0,0,205.5,157.84Z" style="fill:#fff"/></g><g style="mix-blend-mode:hard-light"><path d="M77,136.71c0-5.92,3.28-9.17,9.45-9.17a12.57,12.57,0,0,1,5.35,1l-.9,2.55a13.37,13.37,0,0,0-4.4-.67c-3.38,0-6,1.82-6,6.07s2.75,6.35,6.5,6.35a13.93,13.93,0,0,0,4.12-.55l.75,2.62a14.54,14.54,0,0,1-5.32.8C80.31,145.68,77,142.31,77,136.71Z" style="fill:#fff"/><path d="M93.52,141.63c0-3.42,3.1-4.12,5.63-4.14l2.7,0v-1.2c0-1.57-.9-1.95-2.88-1.95a16.81,16.81,0,0,0-3.8.6l-.67-2.47a14.43,14.43,0,0,1,5.07-1c3.78,0,5.53,1.13,5.53,4v6.65c0,.65.55.8,1.24.85l-.14,2.55h-.73c-1.45,0-3-.35-3.32-1.55a7,7,0,0,1-4.25,1.65C95.12,145.66,93.52,144.26,93.52,141.63Zm8.33.55v-2.69l-2.53.09c-1.57,0-2.57.68-2.57,1.8s.85,1.65,1.9,1.65A10.8,10.8,0,0,0,101.85,142.18Z" style="fill:#fff"/><path d="M109.24,131.79h3.33v5.52h5.72v-5.52h3.33v13.64h-3.33v-5.57h-5.72v5.57h-3.33Z" style="fill:#fff"/><path d="M125.3,131.79h3.33V138l4.65-6.17H137l-5.27,6.4,2.3,2.62a6.79,6.79,0,0,0,3.42,2.37l-.45,2.53a6.24,6.24,0,0,1-5.15-2.63l-3.22-4v6.37H125.3Z" style="fill:#fff"/><path d="M143.1,134.34h-4.42v-2.55h12.15v2.55H146.4v11.09h-3.3Z" style="fill:#fff"/><path d="M150.94,136.91h7.45v2.72h-7.45Z" style="fill:#fff"/><path d="M161.65,127.76h14.9v17.67h-3.4v-15h-8.1v15h-3.4Z" style="fill:#fff"/><path d="M179.71,138.83c0-5.57,2.82-7.37,6.67-7.37s5.55,2.6,5.55,6.87v1.21H183c0,3,1.87,3.49,4.3,3.49a23.2,23.2,0,0,0,3.7-.55l.52,2.58a17.43,17.43,0,0,1-4.82.67C182.43,145.73,179.71,144.18,179.71,138.83Zm8.79-1.52c0-2.05-.8-3.47-2.45-3.47s-2.8,1.22-3,3.47Z" style="fill:#fff"/><path d="M197.87,134.34h-4.42v-2.55H205.6v2.55h-4.43v11.09h-3.3Z" style="fill:#fff"/><path d="M207.06,138.83c0-5.57,2.82-7.37,6.67-7.37s5.55,2.6,5.55,6.87v1.21h-8.9c0,3,1.87,3.49,4.3,3.49a23.2,23.2,0,0,0,3.7-.55l.52,2.58a17.43,17.43,0,0,1-4.82.67C209.78,145.73,207.06,144.18,207.06,138.83Zm8.79-1.52c0-2.05-.8-3.47-2.45-3.47s-2.8,1.22-3,3.47Z" style="fill:#fff"/><path d="M222.26,131.79h3.3v1a6.72,6.72,0,0,1,3.5-1.35c3.67,0,5.85,2,5.85,6.6,0,5.7-3.48,7.62-7.25,7.62-.83,0-1.52-.07-2.1-.12v5.37h-3.3Zm9.27,6.54c0-2.59-.87-4.07-3.42-4.07a7.53,7.53,0,0,0-2.55.73v7.92a16.3,16.3,0,0,0,2.2.2C230.21,143.11,231.53,141.06,231.53,138.33Z" style="fill:#fff"/><path d="M237.19,138c0-3,.53-7.32,2.28-8.82,1.45-1.28,5.32-2.25,9.6-3l.52,3c-3.8.6-7.07,1.13-8,1.85a4.73,4.73,0,0,0-1.17,3.08,9.14,9.14,0,0,1,4.55-1.13c3.37,0,5.4,1.68,5.4,5.7,0,4.9-3,7.07-6.95,7.07S237.19,143.33,237.19,138Zm9.88.8c0-1.9-.85-3.3-3.08-3.3a8.16,8.16,0,0,0-3.62,1c0,.4,0,1.1,0,1.47,0,3.52,1.15,5.12,3.35,5.12C246.32,143,247.07,140.81,247.07,138.76Z" style="fill:#fff"/><path d="M257.23,145.43H256l-4.57-13.64H255l2.6,8.72.62,2.3.73-2.28,3-8.74h3.38l-6.67,19.14h-3.2Z" style="fill:#fff"/><path d="M267.45,131.79h3.3v1a6.72,6.72,0,0,1,3.5-1.35c3.68,0,5.85,2,5.85,6.6,0,5.7-3.47,7.62-7.25,7.62-.82,0-1.52-.07-2.1-.12v5.37h-3.3Zm9.28,6.54c0-2.59-.88-4.07-3.43-4.07a7.6,7.6,0,0,0-2.55.73v7.92a16.3,16.3,0,0,0,2.2.2C275.4,143.11,276.73,141.06,276.73,138.33Z" style="fill:#fff"/><path d="M283.08,131.79h9.55v2.55h-6.22v11.09h-3.33Z" style="fill:#fff"/></g><g style="mix-blend-mode:hard-light"><path d="M79.16,165.14H77v-.8h5.22v.8H80.12v5.57h-1Z" style="fill:#fff"/><path d="M82,168.33c0-2,1-2.66,2.29-2.66s1.88.88,1.88,2.47v.34H83c0,1.34.74,1.55,1.7,1.55a6.48,6.48,0,0,0,1.27-.2l.15.75a5.56,5.56,0,0,1-1.64.24C83,170.82,82,170.24,82,168.33Zm3.19-.51c0-.88-.31-1.47-1-1.47s-1.16.5-1.23,1.47Z" style="fill:#fff"/><path d="M88.65,168.2,87,165.79H88.1l1.08,1.79,1.09-1.79h1.06l-1.62,2.39,1.75,2.53H90.33l-1.15-1.89L88,170.71H86.9Z" style="fill:#fff"/><path d="M92.41,165.79h.94v2.08h2.32v-2.08h.94v4.92h-.94v-2.09H93.35v2.09h-.94Z" style="fill:#fff"/><path d="M97.82,168.3a2.33,2.33,0,0,1,2.35-2.63c1.55,0,2.28,1,2.28,2.58a2.28,2.28,0,0,1-2.35,2.57C98.66,170.82,97.82,169.89,97.82,168.3Zm3.68-.05c0-.87-.26-1.83-1.36-1.83s-1.37,1-1.37,1.84.33,1.79,1.39,1.79S101.5,169.19,101.5,168.25Z" style="fill:#fff"/><path d="M103,170.07a1.7,1.7,0,0,0,.93-.72,10.87,10.87,0,0,0,.51-3.56h3.16v4.92h-.94v-4.18h-1.4a9.5,9.5,0,0,1-.63,3.36,2.14,2.14,0,0,1-1.35,1Z" style="fill:#fff"/><path d="M108.78,168.3a2.33,2.33,0,0,1,2.35-2.63c1.55,0,2.29,1,2.29,2.58a2.28,2.28,0,0,1-2.35,2.57A2.2,2.2,0,0,1,108.78,168.3Zm3.68-.05c0-.87-.26-1.83-1.36-1.83s-1.37,1-1.37,1.84.34,1.79,1.39,1.79S112.46,169.19,112.46,168.25Z" style="fill:#fff"/><path d="M114.63,165.79h3.23v.75h-2.3v4.17h-.93Z" style="fill:#fff"/><path d="M118.9,165.79h.93v3.67l.42-.67,2.1-3h.93v4.92h-.93v-3l0-.68-.43.69-2.1,3h-.93Z" style="fill:#fff"/><path d="M124.77,165.79h.94v3l0,.66.42-.67,2.1-3h.94v4.92h-.94v-3l0-.68-.43.69-2.09,3h-.94Z" style="fill:#fff"/></g><path d="M87.74,74.29c.34,0,.65,0,.94,0A32.42,32.42,0,0,0,82.2,67.2a7.38,7.38,0,0,0-.15,1.47C82.05,72.33,84.31,74.29,87.74,74.29Z" style="fill:url(#a)"/><path d="M50.23,63.35h-2v6h1.4c2.54,0,3.45-1.36,3.45-3S52.42,63.35,50.23,63.35Z" style="fill:#fff;opacity:0.7"/><path d="M62.47,68.74c0,3.2,1.37,5.79,4.83,5.79,3.75,0,5.07-2.47,5.07-5.74s-1.47-5.69-4.9-5.69C63.86,63.1,62.47,65.53,62.47,68.74Z" style="fill:url(#b)"/><path d="M90.5,77.54a16.47,16.47,0,0,1-3.18.26c-6.23,0-9.42-3.14-9.42-8.88a11.88,11.88,0,0,1,.73-4.36A52.13,52.13,0,0,0,74,61.83c1.74,1.58,2.54,4,2.54,7,0,5.81-3.24,9-9.29,9s-8.89-3.47-8.89-9.08c0-5.92,3.55-9,9.34-9a13.31,13.31,0,0,1,2.46.22,75.69,75.69,0,0,0-16.84-4.9,97.2,97.2,0,0,0-26.83-.8c-32.69,3.46-56.25,21.81-52.65,41s33,31.91,65.72,28.44C55.28,122.07,68.88,117,78.38,110c10.22-7.53,15.68-17.25,13.8-27.2A22.63,22.63,0,0,0,90.5,77.54Zm-41-4.94H48.26v5h-4.1V60.06h6.6c3.82,0,6.56,2.3,6.56,6.21C57.32,69.71,54.58,72.6,49.51,72.6Z" style="fill:url(#c)"/><path d="M144.05,61.59h-.5v1.28h.38c.52,0,.82-.15.82-.63S144.54,61.59,144.05,61.59Z" style="fill:#fff"/><path d="M102.06,63.1c-3.6,0-5,2.43-5,5.64s1.37,5.79,4.83,5.79c3.75,0,5.07-2.47,5.07-5.74S105.49,63.1,102.06,63.1Z" style="fill:#fff;opacity:0.7"/><path d="M144.16,60.22A2.51,2.51,0,0,0,141.53,63a2.62,2.62,0,1,0,2.63-2.76Zm1.65,4.57a1.47,1.47,0,0,1-1-.56c-.1-.1-.58-.75-.63-.83l-.25,0h-.34v1.32h-.66V61.06h1.26c.75,0,1.29.31,1.29,1.15a1,1,0,0,1-.65,1c.32.4.63.92,1.15,1.07Z" style="fill:#fff"/><path d="M185.77-44.85C159.89-61.67,113-41.72,81.07-.29,67,18,58.18,37.33,54.92,54.73c-.38,2-.66,4-.89,6a5.78,5.78,0,0,1,3.29,5.53,6,6,0,0,1-3.75,5.55c.56,14.54,6,26.49,16.53,33.36A35.6,35.6,0,0,0,80,109.57c26.76,7.45,66.61-12.36,94.82-48.95C206.75,19.19,211.66-28,185.77-44.85ZM67.23,77.85c-6,0-8.89-3.47-8.89-9.08,0-5.92,3.55-9,9.34-9,6.17,0,8.84,3.56,8.84,9C76.52,74.63,73.28,77.85,67.23,77.85Zm20.09,0c-6.23,0-9.42-3.14-9.42-8.88,0-6.09,3.15-9.11,9.32-9.11a11.46,11.46,0,0,1,5.28,1.07l-1.08,3a12.74,12.74,0,0,0-4.16-.64c-3.07-.05-5.21,1.73-5.21,5.39s2.26,5.62,5.69,5.62a13.38,13.38,0,0,0,3.94-.5L92.55,77A13.45,13.45,0,0,1,87.32,77.8Zm14.5,0c-6,0-8.89-3.47-8.89-9.08,0-5.92,3.56-9,9.35-9,6.17,0,8.83,3.56,8.83,9C111.11,74.63,107.87,77.85,101.82,77.85Zm15,0a13.45,13.45,0,0,1-5.23-.84l.86-3.17a13.42,13.42,0,0,0,3.94.5c2.91,0,5-1.39,5.52-4h-7.75v-3H122c-.5-2.68-2.45-3.94-5.09-3.92a13,13,0,0,0-4.15.6l-1.09-3a11.63,11.63,0,0,1,5.29-1c6.17,0,9.32,3,9.32,9.06C126.26,74.66,123.06,77.8,116.84,77.8Zm15.72,0a12,12,0,0,1-6.15-1.54l1.33-3.09a10.51,10.51,0,0,0,4.44,1.26c1.7,0,2.95-.61,2.95-2.1S133.79,70.2,132,70.2H129.7v-3H132c1.56,0,2.48-.81,2.48-2s-.8-1.89-2.43-1.89a9.54,9.54,0,0,0-3.62.87l-1.33-2.85A11.61,11.61,0,0,1,132.49,60c4.11,0,6.12,2,6.12,4.43a4.47,4.47,0,0,1-2.3,4.08v0a4.2,4.2,0,0,1,3,4.16C139.31,75,137.75,77.75,132.56,77.75Zm11.51-11.4A3.05,3.05,0,0,1,140.88,63a3.14,3.14,0,0,1,3.36-3.32A3,3,0,0,1,147.41,63,3.12,3.12,0,0,1,144.07,66.35Z" style="fill:url(#d)"/><path d="M90.5,77.54a16.47,16.47,0,0,1-3.18.26c-6.23,0-9.42-3.14-9.42-8.88a11.88,11.88,0,0,1,.73-4.36A51.64,51.64,0,0,0,74,61.85c1.72,1.58,2.52,4,2.52,7,0,5.81-3.24,9-9.29,9s-8.89-3.47-8.89-9.08c0-5.92,3.55-9,9.34-9a12.47,12.47,0,0,1,2.46.23,73.9,73.9,0,0,0-15.33-4.63c-.32,1.81-.56,3.59-.77,5.36a5.76,5.76,0,0,1,3.28,5.52,6,6,0,0,1-3.74,5.55c.55,14.54,6,26.49,16.52,33.36a35.3,35.3,0,0,0,9.09,4.14c9.69-7.45,14.81-16.9,13-26.57A22.63,22.63,0,0,0,90.5,77.54Z" style="fill:url(#e)"/><path d="M87.74,74.29l.93,0A32.18,32.18,0,0,0,82.2,67.2a7.38,7.38,0,0,0-.15,1.47C82.05,72.33,84.31,74.29,87.74,74.29Z" style="fill:url(#f)"/><path d="M62.47,68.74c0,3.2,1.37,5.79,4.83,5.79,3.75,0,5.07-2.47,5.07-5.74s-1.47-5.69-4.9-5.69C63.86,63.1,62.47,65.53,62.47,68.74Z" style="fill:url(#g)"/></g></svg>