<svg xmlns="http://www.w3.org/2000/svg" xmlns:xlink="http://www.w3.org/1999/xlink" width="80" height="80" viewBox="0 0 80 80"><defs><linearGradient id="a" x1="30.6" y1="50.66" x2="49.4" y2="31.86" gradientUnits="userSpaceOnUse"><stop offset="0" stop-color="#373e99"/><stop offset="1" stop-color="#662e91"/></linearGradient></defs><title>map_anchor</title><circle cx="40" cy="40" r="39.5" style="fill:#fff"/><path d="M40,1A39,39,0,1,1,1,40,39.05,39.05,0,0,1,40,1m0-1A40,40,0,1,0,80,40,40,40,0,0,0,40,0Z" style="fill:#e2e3ed"/><path d="M53.1,46.11l-2-7a.14.14,0,0,0-.09-.08.15.15,0,0,0-.13,0l-5,5.2a.16.16,0,0,0-.05.15.14.14,0,0,0,.1.11l1.93.48a8.3,8.3,0,0,1-6.23,7.21V32.8a4.41,4.41,0,1,0-3.2,0V52.26a8.3,8.3,0,0,1-6.23-7.21l1.92-.48a.14.14,0,0,0,.11-.11.16.16,0,0,0-.05-.15l-5-5.2a.15.15,0,0,0-.13,0,.14.14,0,0,0-.09.08l-2,7a.12.12,0,0,0,0,.15.12.12,0,0,0,.15.05l2-.48a11.47,11.47,0,0,0,10.64,9.86v0h.64v0A11.47,11.47,0,0,0,51,45.83l2,.48a.12.12,0,0,0,.15-.05.12.12,0,0,0,0-.15M40,27.08a1.62,1.62,0,1,1-1.61,1.62A1.62,1.62,0,0,1,40,27.08" style="fill-rule:evenodd;fill:url(#a)"/></svg>

<svg xmlns="http://www.w3.org/2000/svg" width="80" height="80">
<defs>
    <linearGradient id="a" x1="30.6" y1="50.66" x2="49.4" y2="31.86" gradientUnits="userSpaceOnUse">
        <stop offset="0" stop-color="#373e99"/>
        <stop offset="1" stop-color="#662e91"/>
    </linearGradient>
</defs>
<circle cx="40" cy="40" r="39.5" fill="#fff"/>
<path d="M40 1A39 39 0 1 1 1 40 39.05 39.05 0 0 1 40 1m0-1a40 40 0 1 0 40 40A40 40 0 0 0 40 0z" fill="#e2e3ed"/>
<path d="M53.1 46.11l-2-7a.14.14 0 0 0-.09-.08.15.15 0 0 0-.13 0l-5 5.2a.16.16 0 0 0-.05.15.14.14 0 0 0 .1.11l1.93.48a8.3 8.3 0 0 1-6.23 7.21V32.8a4.41 4.41 0 1 0-3.2 0v19.46a8.3 8.3 0 0 1-6.23-7.21l1.92-.48a.14.14 0 0 0 .11-.11.16.16 0 0 0-.05-.15l-5-5.2a.15.15 0 0 0-.13 0 .14.14 0 0 0-.09.08l-2 7a.12.12 0 0 0 0 .15.12.12 0 0 0 .15.05l2-.48a11.47 11.47 0 0 0 10.64 9.86h.64A11.47 11.47 0 0 0 51 45.83l2 .48a.12.12 0 0 0 .15-.05.12.12 0 0 0 0-.15M40 27.08a1.62 1.62 0 1 1-1.61 1.62A1.62 1.62 0 0 1 40 27.08" fill-rule="evenodd" fill="url(#a)"/>
</svg>
