<svg xmlns="http://www.w3.org/2000/svg" xmlns:xlink="http://www.w3.org/1999/xlink" width="80" height="80"
     viewBox="0 0 80 80">
    <defs>
        <linearGradient id="a" x1="11.72" y1="68.28" x2="68.28" y2="11.72" gradientUnits="userSpaceOnUse">
            <stop offset="0" stop-color="#373e99"/>
            <stop offset="1" stop-color="#662e91"/>
        </linearGradient>
    </defs>
    <title>map_train-hover</title>
    <circle cx="40" cy="40" r="40" style="fill:url(#a)"/>
    <path d="M40.07,24.19a25.33,25.33,0,0,0-8.42,1.5l-.07,0-.07,0h0a5.32,5.32,0,0,0-1.64.84,2.4,2.4,0,0,0-.95,1.86V47.92a2.86,2.86,0,0,0,2.91,2.77h1.11l-3.85,3.9c-.54.54-.08,1.22.61,1.22H50.33a.73.73,0,0,0,.56-1.29L47,50.69h1.23a2.86,2.86,0,0,0,2.91-2.77V28.44a2.38,2.38,0,0,0-1-1.85,6.26,6.26,0,0,0-1.7-.88,23.52,23.52,0,0,0-8.37-1.52Zm-9.72,14.6h8.82v-7.2H30.35Zm10.26,0h9v-7.2h-9Zm-6.38,4.09A2.16,2.16,0,1,1,32.07,45,2.17,2.17,0,0,1,34.23,42.88Zm11.51,0a2.16,2.16,0,1,1-2.15,2.16A2.17,2.17,0,0,1,45.74,42.89ZM35,50.69h9.92l1.07,1h-12Zm-2.44,2.47H47.43l1.25,1.22H31.32Z"
          style="fill:#fff;fill-rule:evenodd"/>
</svg>
