<svg xmlns="http://www.w3.org/2000/svg" xmlns:xlink="http://www.w3.org/1999/xlink" width="32" height="32" viewBox="0 0 32 32"><defs><mask id="a" x="-0.48" y="-1.48" width="32.97" height="33.17" maskUnits="userSpaceOnUse"><circle cx="16" cy="15" r="16.48" style="fill:#fff"/></mask></defs><title>user-not-auth</title><g style="mask:url(#a)"><path d="M12,20.29V18.56a6.37,6.37,0,0,1-.81-2.36c-.26,0-.61-.41-1-1.7-.51-1.83,0-2.07.49-2a4.54,4.54,0,0,1-.11-2.8A5.07,5.07,0,0,1,12,7.23a6.42,6.42,0,0,1,1.26-1,5,5,0,0,1,2.42-.89,4.84,4.84,0,0,1,2.91.6,3.71,3.71,0,0,1,1.45,1.3s2.57.18,1.45,5.53c.33.12.56.61.2,2-.49,1.73-.93,1.82-1.22,1.64a7.52,7.52,0,0,1-.58,1.87v2a.23.23,0,0,0,.12.18,38.24,38.24,0,0,1,6.24,3.88,4.22,4.22,0,0,1,1.35,2c-.24.27-.5.53-.76.79a15.31,15.31,0,0,1-21.76,0c-.26-.26-.52-.55-.76-.79a4.22,4.22,0,0,1,1.35-2A38.24,38.24,0,0,1,12,20.44.23.23,0,0,0,12,20.29Z" style="fill:#d3d4e0"/></g><path d="M16,1A15,15,0,1,1,1,16,15,15,0,0,1,16,1m0-1A16,16,0,1,0,32,16,16,16,0,0,0,16,0Z" style="fill:#d3d4e0"/></svg>