<svg id="Layer_1" data-name="Layer 1" xmlns="http://www.w3.org/2000/svg" xmlns:xlink="http://www.w3.org/1999/xlink" width="32" height="32" viewBox="0 0 32 32">
  <defs>
    <linearGradient id="linear-gradient" x1="-913.5" y1="540.16" x2="-912.56" y2="540.16" gradientTransform="matrix(32, 0, 0, -32, 29233, 17301)" gradientUnits="userSpaceOnUse">
      <stop offset="0" stop-color="#373e99"/>
      <stop offset="1" stop-color="#662e91"/>
    </linearGradient>
    <linearGradient id="linear-gradient-2" x1="1" y1="16" x2="31" y2="16" gradientTransform="matrix(1, 0, 0, 1, 0, 0)" xlink:href="#linear-gradient"/>
  </defs>
  <title>Artboard 1</title>
  <g>
    <circle cx="16" cy="16" r="15" fill="url(#linear-gradient)"/>
    <path d="M12,20.29V18.56a6.43,6.43,0,0,1-.81-2.36c-.26,0-.61-.41-1-1.7-.51-1.83,0-2.07.49-2a4.54,4.54,0,0,1-.11-2.8A5.11,5.11,0,0,1,12,7.23a6.76,6.76,0,0,1,1.26-1,5,5,0,0,1,2.42-.89,4.84,4.84,0,0,1,2.91.6A3.79,3.79,0,0,1,20,7.24s2.57.18,1.45,5.53c.33.12.56.61.2,2-.49,1.73-.93,1.82-1.22,1.64a7.65,7.65,0,0,1-.58,1.87v2a.23.23,0,0,0,.12.18,38.24,38.24,0,0,1,6.24,3.88,4.23,4.23,0,0,1,1.35,2c-.24.27-.5.53-.76.79a15.31,15.31,0,0,1-21.76,0c-.26-.26-.52-.55-.76-.79a4.23,4.23,0,0,1,1.35-2A38.46,38.46,0,0,1,12,20.44.19.19,0,0,0,12,20.29Z" fill="#fff"/>
    <path d="M16,2A14,14,0,1,1,2,16,14,14,0,0,1,16,2Zm0-2A16,16,0,1,0,27.31,4.69,16,16,0,0,0,16,0Z" fill="#fff"/>
    <path d="M16,2.88A13.12,13.12,0,1,1,2.88,16,13.11,13.11,0,0,1,16,2.88ZM16,1A15,15,0,1,0,26.61,5.39,15,15,0,0,0,16,1Z" fill="url(#linear-gradient-2)"/>
  </g>
</svg>
