<svg width="39" height="39" viewBox="0 0 39 39" fill="none" xmlns="http://www.w3.org/2000/svg">
<path d="M38.5235 36.2267L27.433 25.1362C29.5812 22.4827 30.8747 19.1108 30.8747 15.4383C30.8747 6.92668 23.949 0.000976562 15.4373 0.000976562C6.92563 0.000976562 0 6.92661 0 15.4383C0 23.9499 6.92571 30.8756 15.4374 30.8756C19.1098 30.8756 22.4817 29.5822 25.1353 27.4339L36.2258 38.5244C36.5426 38.8413 36.9586 39.0006 37.3747 39.0006C37.7907 39.0006 38.2067 38.8413 38.5235 38.5244C39.1589 37.8891 39.1589 36.8621 38.5235 36.2267ZM15.4374 27.6257C8.71642 27.6257 3.24999 22.1592 3.24999 15.4383C3.24999 8.71731 8.71642 3.25089 15.4374 3.25089C22.1583 3.25089 27.6248 8.71731 27.6248 15.4383C27.6248 22.1592 22.1583 27.6257 15.4374 27.6257Z" fill="#443997"/>
</svg>
