<svg id="Layer_1" data-name="Layer 1" xmlns="http://www.w3.org/2000/svg" width="24" height="24" viewBox="0 0 24 24"><title>cafe</title><circle cx="12" cy="12" r="12" fill="#fff"/><path d="M18.37,10.84a2.92,2.92,0,0,0-2.74-1.33h-.34a1.14,1.14,0,0,0-.28,0H5.82c-.42,0-.57.11-.55.67s.15,3.89,1,5.62,1.58,2.16,2.1,2.16h4.14c.49,0,1.19-.4,2-1.9l.2,0a4.75,4.75,0,0,0,3.64-2.39A2.71,2.71,0,0,0,18.37,10.84ZM17,12.91a3.72,3.72,0,0,1-2,1.56A21.85,21.85,0,0,0,15.52,11h.11c1.1,0,1.37.45,1.45.59A1.26,1.26,0,0,1,17,12.91Z"/><path d="M7.26,8.25A.76.76,0,0,0,8,7.5V6.83a.75.75,0,0,0-1.5,0V7.5A.76.76,0,0,0,7.26,8.25Z"/><path d="M10.17,8.25a.76.76,0,0,0,.75-.75V6.83a.75.75,0,0,0-1.5,0V7.5A.75.75,0,0,0,10.17,8.25Z"/><path d="M13.12,8.25a.76.76,0,0,0,.75-.75V6.83a.75.75,0,0,0-1.5,0V7.5A.76.76,0,0,0,13.12,8.25Z"/></svg>