<svg id="Layer_1" data-name="Layer 1" xmlns="http://www.w3.org/2000/svg" width="24" height="24" viewBox="0 0 24 24">
    <title>spa</title>
    <circle id="_Ellipse_" data-name="&lt;Ellipse&gt;" cx="12" cy="12" r="12" fill="#fff"/>
    <path d="M12.07,6.8a8,8,0,0,0-2,5.14,7.93,7.93,0,0,0,2,5.1,8,8,0,0,0,2-5.1A8.15,8.15,0,0,0,12.07,6.8Z"/>
    <path d="M19.63,10.36h0a7.14,7.14,0,0,0-4,1,6.77,6.77,0,0,1,.09,1.12A7.26,7.26,0,0,1,14,17.17a6.52,6.52,0,0,0,3.75-1.8A7,7,0,0,0,19.63,10.36Z"/>
    <path d="M8.47,11.49a7.22,7.22,0,0,0-4.1-1.13h0a6.94,6.94,0,0,0,1.89,5,6.61,6.61,0,0,0,3.92,1.83,7.3,7.3,0,0,1-1.8-4.68A5.72,5.72,0,0,1,8.47,11.49Z"/>
</svg>