<svg xmlns="http://www.w3.org/2000/svg" xmlns:xlink="http://www.w3.org/1999/xlink" width="72" height="80" viewBox="0 0 72 80"><defs><path id="gmg1a" d="M270.072 4712.214c.465 0 1.108.69 1.08 1.424-.008.217-.094.498-.388.595-.298.1-.656-.05-.808-.406-.286-.67-.008-1.613.116-1.613zm-.918-10.703l-.094 1.036.896-.1v1.18l-.896-.1.094 1.083h-1.22l.095-1.083-.897.1v-1.18l.897.1-.094-1.036zm-.613 4.084c.242 0 .438.203.438.453s-.196.453-.438.453a.446.446 0 0 1-.438-.453c0-.25.197-.453.438-.453zm0 1.815c.242 0 .438.2.438.448a.443.443 0 0 1-.438.448.444.444 0 0 1-.438-.448c0-.248.197-.448.438-.448zm0 1.84c.242 0 .438.2.438.448a.443.443 0 0 1-.438.45.444.444 0 0 1-.438-.45c0-.248.197-.448.438-.448zm1.414.448c0-.248.195-.448.438-.448.24 0 .437.2.437.448a.444.444 0 0 1-.437.45.443.443 0 0 1-.438-.45zm1.834 0c0-.248.196-.448.438-.448s.438.2.438.448a.443.443 0 0 1-.438.45.443.443 0 0 1-.438-.45zm-3.248 2.016c.375 0 1.3 1.905.61 2.868a.744.744 0 0 1-.61.288.745.745 0 0 1-.61-.288c-.689-.963.235-2.868.61-2.868zm-1.532.5c.125 0 .402.944.117 1.613-.153.356-.51.507-.809.406-.294-.097-.38-.378-.387-.595-.029-.734.614-1.424 1.079-1.424zm-.713-2.516c0-.248.197-.448.439-.448.241 0 .438.2.438.448a.444.444 0 0 1-.438.45.444.444 0 0 1-.439-.45zm-1.789 0c0-.248.195-.448.438-.448.24 0 .437.2.437.448a.444.444 0 0 1-.437.45.443.443 0 0 1-.438-.45zm-.431.007c0 .398.065.778.065.778h8.81c-.118.88-1.156 2.22-1.383 2.503-.28-.867-1.02-1.392-1.61-1.392-.175 0-.369.351-.413.68-.146-.512-.566-1.13-1.004-1.13-.475 0-.908.739-.959 1.007-.04-.288-.234-.582-.41-.59-.587-.03-1.488.78-1.699 1.536-.471-.348-.853-1.025-1.008-1.461-.19-.326-.579-.54-1.032-.725-1.46-.6-4.824-.748-5.81-.704-.629.027-.854-.348-.79-.65.223-1.042.251-2.758-.575-3.959.896.3 1.759 1.102 1.759 1.102.295-.627.42-2.002.358-2.666.816.294 1.542 1.072 1.542 1.072.319-.85.42-2.459.318-3.373 2.026.68.133 4.26 2.603 4.147-.695 1.008-1.528.597-2.282.597-.529 0-1.08.327-1.08 1.142 0 .581 2.717 1.073 4.06 1.237.232.027.561-.048.664-.194.42-1.756 1.823-3.115 3.579-3.423v3.739h-3.638s-.065.345-.065.727zm5.226-4.468c1.859.327 3.325 1.83 3.641 3.735h-3.64zm-42.965 3.075c-.395-.13-.936-.779-.948-1.144a.428.428 0 0 1 .025-.155c-.24.17-.427.134-.532.03-.114-.114-.04-.186.116-.322-.111.022-.244-.005-.409-.113-.804-.524-3.52-3.313-3.802-3.964-.167-.39.044-.527.044-.527s.126-.222.51-.062c.641.269 3.47 2.94 4.005 3.75.109.166.138.302.121.418.13-.166.195-.247.31-.131.106.104.147.294-.01.546a.4.4 0 0 1 .15-.032c.355.002 1.002.539 1.14.94a.307.307 0 0 1-.024.235c.33-.27.551-.267.658-.16.166.166-.125.301-.545.746-.42.448-.543.75-.709.586-.105-.105-.115-.33.13-.673-.076.04-.154.058-.23.032zm-6.798-7.9c.205 0 .437.11.623.295.303.302.397.73.206.932a.385.385 0 0 1-.29.113c-.204 0-.437-.11-.622-.295a1.043 1.043 0 0 1-.294-.525c-.033-.168-.002-.313.087-.408a.399.399 0 0 1 .29-.113zm8.796 9.913c-.066.165-1.13.842-1.79.801-.169-.01-.72-.083-.72-.656 0-.304.405-.9 1.343-.9.633 0 1.164.473 1.167.755zm-.807 1.434c.422-.546 1.22-.937 1.52-.937.121.137.106 1.4-.253 1.969a.928.928 0 0 1-.798.425c-.315 0-.67-.162-.748-.524-.065-.298.029-.61.279-.933zm-8.232-13.085c.424.424-.356.997-.37 1.535-.524.035-1.056.855-1.48.431-.266-.264.1-.835-.088-1.162-.78.173.061.733-.488 1.317-.22.234-.577.125-.688-.002.227-.252.134-.626.004-.651-1.42.689-3.062-.515-2.898-1.727.307.226 1.351.263 1.63.15.326.45 1.051.099.823-.401-.142-.336-.964-.91-1.51-.202-.205-.013-.266-.39.214-.81-.894.324-.667-1.494-.461-1.872.362-.224 2.12-.516 1.833.416.39-.508.76-.457.779-.246-.67.584-.088 1.412.242 1.548.492.22.811-.539.366-.86.1-.29.031-1.364-.199-1.673 1.172-.206 2.392 1.446 1.768 2.928.028.134.394.218.63-.024.128.11.245.474.025.707-.55.584-1.119-.263-1.262.545.323.183.865-.211 1.13.053zm-4.395-1.871s.68.297.992.381c-.092-.318-.401-1.009-.401-1.009s-.199-.276-.537.074c-.328.358-.054.554-.054.554zm2.715 2.092c.015-.175.352-.6.15-.8l-.925-.919-.464.49-.463.49.925.918c.203.201.606-.157.777-.179zm15.324 14.153c-.031.135-.128.362-.42.674-.386.413-.642.475-.76.475a.258.258 0 0 1-.189-.073c-.022-.023-.036-.044-.036-.056.001-.056.136-.179.264-.297.109-.1.245-.223.392-.38.147-.157.261-.3.353-.416.111-.14.227-.284.279-.284.011 0 .032.013.054.036.072.071.094.182.063.32zm.015 1.1c.201-.213.343-.428.415-.548.125.123.4.606.115 1.078a.79.79 0 0 1-.456.143.906.906 0 0 1-.595-.226c.114-.078.32-.23.52-.446zm-3.123-2.625c.16.117.6 1.044.508 1.628-.04.256-.172.382-.412.396-.233.013-.37-.093-.434-.343-.149-.584.19-1.542.338-1.68zm-.186-2.664c.186.611.167 1.54-.285 1.54-.641 0-.857-1.175-.857-1.712 0-.757.372-1.083.69-1.133.259-.04.488.101.713.413.467.65 1.091.938 2.023.938 1.332 0 4.647-.716 4.724-1.291.106-.794-.55-1.14-1.08-1.14-.753 0-1.587.41-2.281-.598 2.47.113.576-3.464 2.602-4.143-.1.913-.001 2.52.319 3.37 0 0 .726-.778 1.542-1.07-.062.662.062 2.036.358 2.663 0 0 .863-.802 1.758-1.101-.826 1.2-.78 2.969-.574 3.955.062.302-.16.677-.79.65-1.047-.047-3.9.022-5.633.637a9.089 9.089 0 0 0-.387.186c-.192.097-.381.067-.518-.064-.582-.554-2.316-2.083-2.325-2.1zm2.15 4.127c-.184.195-.476.46-.71.367a.868.868 0 0 1-.149-.082c.207-.726-.021-1.591-.632-2.395.043-.137.092-.338.121-.529.906.867 1.597 1.635 1.707 1.9.075.182-.033.417-.336.739zm-4.39-4.373c.062-.068.244-.23.412-.269-.016.207-.004.448.01.624a2.554 2.554 0 0 0-.613-.087c.074-.15.187-.263.191-.268zm30.285 5.525c1.998 1.406.765 4.701 3.443 4.08-1.494 2.775-4.516 3.055-4.516 3.055.67-1.468-.165-5.946-4.176-7.98 2.468 2.462 3.594 5.446 2.938 7.551-.601 1.934-2.555 2.717-4.026 2.75 1.04-3.195.4-6.856-1.76-9.159.925 2.527 2.227 9.271-1.529 10.565-3.756-1.294-2.455-8.038-1.53-10.565-2.16 2.303-2.8 5.964-1.76 9.16-1.471-.034-3.425-.817-4.026-2.75-.656-2.106.47-5.09 2.94-7.553-4.013 2.035-4.847 6.513-4.178 7.98 0 0-3.023-.279-4.517-3.053 2.68.62 1.446-2.675 3.444-4.081-.57-.26-.982-.968-1.09-1.66.362.179.77.265 1.24.265 1.293 0 2.918-.72 4.391-1.371 0 0 .317.267.843.322-1.485.458-4.406 2.078-4.62 3.118-.144.695.31.96.31.96.65-1.06 2.324-2.706 4.558-3.53-.004.388.07.66.07.66s.454.112 1.417-.056c-.842.703-3.055 3.185-3.295 5.069-.16 1.258.719 1.316.719 1.316.124-1.891 1.117-3.848 2.907-5.813 0 0 .293.46.683.691 0 0 .662-.116 1.211-.48-.212 2.496-.336 5.738-.206 6.719.092.683.49.97.49.97s.396-.287.487-.97c.13-.981.006-4.223-.205-6.719.548.364 1.21.48 1.21.48.39-.23.683-.691.683-.691 1.79 1.965 2.782 3.922 2.908 5.813 0 0 .878-.058.718-1.316-.24-1.884-2.452-4.366-3.295-5.07.964.169 1.417.058 1.417.058s.075-.273.07-.66c2.235.823 3.909 2.47 4.56 3.53 0 0 .452-.266.308-.96-.214-1.041-3.134-2.661-4.62-3.119.526-.055.843-.322.843-.322 1.474.652 3.098 1.371 4.391 1.371.47 0 .88-.086 1.24-.264-.108.69-.52 1.398-1.09 1.659zm-9.307-55.587c0 .198-.156.36-.348.36a.354.354 0 0 1-.348-.36c0-.199.156-.36.348-.36.192 0 .348.161.348.36zm1.765 0c0 .198-.158.36-.353.36a.356.356 0 0 1-.352-.36c0-.199.158-.36.352-.36.195 0 .353.161.353.36zm-2.737-9.33c0-.37.295-.673.656-.673.363 0 .657.303.657.673 0 .371-.294.674-.657.674a.666.666 0 0 1-.656-.674zm.308-2.504l-.967.103v-.85l.967.103-.095-1.073h.89l-.096 1.073.967-.103v.85l-.967-.103.096 1.074h-.89zm-1.092 11.834c0 .198-.156.36-.348.36a.354.354 0 0 1-.348-.36c0-.199.156-.36.348-.36.192 0 .348.161.348.36zm-2.09 1.332c-.207-.074-.332-.23-.381-.477h7.806c-.05.247-.174.403-.38.477a.954.954 0 0 1-.332.052h-6.383a.96.96 0 0 1-.33-.052zm.352-1.332c0 .198-.157.36-.35.36a.354.354 0 0 1-.347-.36c0-.199.156-.36.348-.36.192 0 .349.161.349.36zm6.99 0c0 .198-.157.36-.348.36a.355.355 0 0 1-.349-.36c0-.199.157-.36.349-.36.191 0 .348.161.348.36zm-8.047-.853c-.18-.225-1.076-1.96-1.076-3.713 0-1.577 1.977-2.445 3.151-2.485.135 2.274 1.073 5.79 2.152 5.79 1.14 0 2.015-3.537 2.152-5.79 1.176.04 3.151.908 3.151 2.485 0 1.753-.894 3.488-1.075 3.713zm4.232-1.527c-.53 0-1.253-2.387-1.41-4.367 0-.43.537-1.088 1.41-1.106.872.018 1.41.676 1.41 1.106-.178 2.123-.872 4.367-1.41 4.367zm-17.086 11.454c1.045-1.437 3.707-1.343 3.707-1.343.31 1.155 1.269 2.59 2.075 3.232.089.09.031.088-.062.063-4.372-1.168-5.131 1.05-5.124 1.123.01.086-.044.12-.107.044-.09-.109-1.533-1.682-.49-3.12zm2.34-.301c.4-.078.872-.062 1.212.09-.148-.214-.295-.602-.295-.602-.335 0-.917.11-.917.512zm2.316-1.876l5.001-.013c2.744 0 4.596-.575 5.77-1.152-.198.78-1.025 1.67-1.356 1.849.436.23 1.103.415 1.554.313-.322.6-1.445 1.025-1.963 1.06.336.39.895.8 1.356.913-.207.21-1.211.384-1.94.216.522.79 1.56 1.68 2.357 1.649-.936.717-2.681.472-4.097-.77-.132.801.038 1.994.181 2.296-.6-.133-1.521-1.183-1.862-1.744-.5 1.09-.492 1.548-.492 1.548-1.079-1.468-3.811-2.27-4.813-5.659-.094-.32.014-.506.304-.506zm3.031 1.545c.778-.309.996-.359.996-.524h-2.407c-.4 0-.364.242-.246.438l.492.81s.39-.416 1.165-.724zm-8.216 5.52c-.044-.06.006-.067.041-.044.035.021.887.526 2.738-.681 1.849-1.207 3.28-1.714 4.016-1.834 0 0 .696.495 1.329 1.052-1.727.146-3.081 1.206-3.236 1.572-.015.034-.052.035-.062.003-.185-.566.059-1.037.059-1.037s-.805.497-2.363 1.411c-1.56.915-2.27-.108-2.522-.443zm22.095 38.422a1.906 1.906 0 0 1-.574.092c-.21 0-.422-.038-.612-.127.12.435.16.971.073 1.338a3.58 3.58 0 0 1-.275.01c-.379 0-.722-.059-1.017-.206-.047.396-.228.877-.525 1.201a1.41 1.41 0 0 1-.187.175c-.352 0-1.202-.412-1.363-.665-.16.253-1.01.665-1.363.665a1.355 1.355 0 0 1-.187-.175c-.296-.324-.478-.805-.525-1.201-.656.247-1.29.196-1.29.196-.088-.367-.048-.903.07-1.338-.189.09-.4.127-.61.127-.2 0-.397-.035-.575-.092-.266-.085-.49-.222-.604-.374 1.195-.052 2.18-1.085 2.542-1.723.397.657 1.105 1.172 1.105 1.172.505-.133 1.195-.684 1.437-1.105.244.42.932.972 1.437 1.105 0 0 .708-.515 1.106-1.172.36.638 1.347 1.67 2.542 1.723-.115.152-.338.289-.605.374zm2.964-25.52c.234 0 .379.149.379.39v14.632c0 1.394-.548 2.102-1.631 2.102l-2.708.011c-1.756 0-3.03.694-3.484 1.434-.534-.794-1.627-1.434-3.484-1.434l-2.708-.01c-1.082 0-1.631-.709-1.631-2.103v-14.632c0-.241.146-.39.378-.39zm-12.242 13.689c-.449.77.025 1.68 1.124 1.43a1.34 1.34 0 0 1-.155-.697c-.62.187-.996-.407-.97-.733zm9.96-4.844c.243.26.01.745.04.815.077.184.554.367.62.195 0-.009-.036-.535-.006-.796a.609.609 0 0 0-.183-.417 6.94 6.94 0 0 0-.28-.26 2.906 2.906 0 0 1-.607-.766c-.184-.361-.325-.423-.624-.316-.335.12-.727.09-1.028.167-.093.023-.145.074-.126.173.043.225.044.579-.009.747a.552.552 0 0 1-.517-.446c-1.379.08-2.31-.752-2.292-1.874.217.662.931 1.447 2.061 1.592.334.043.578-.11.569-.137-.04-.278-.271-.955-.53-1.322-.395-.5.124-1.095.401-.997.04.195.06.381.12.551.058.172.11.33.058.514a.438.438 0 0 0 .15.481.48.48 0 0 0 .276.086c.108 0 .102-.11.128-.19.106-.328.22-.653.332-.98a.244.244 0 0 1 .054-.085c.177-.177.255-.397.279-.637a.399.399 0 0 1 .134-.275c.115-.1.227-.204.325-.344-.337-.015-.517-.247-.715-.465a3.232 3.232 0 0 0-.44-.405 1.32 1.32 0 0 0-.372-.19 2.232 2.232 0 0 0-.72-.124c-1.013 0-2.053.845-2.183 2.576-.173-.363-.074-1.014.125-1.43-.044-.218-.714-.736-.811-.781.05-.19.287-.135.48-.56.36-.29.186-.846-.305-.986-.325-.091-.681.054-.876.35a1.096 1.096 0 0 1-.222.235c-.078.062-.082.119-.07.217a.56.56 0 0 0 .182.324c-.34-.132-.69-.231-1.055-.168.02.038 3.936 6.56 3.936 6.56.13.204.102.277-.025.302l.055.085 1.045 1.615c-.123 0-.21.02-.223.069-.014.137.54.101.736.681.037.085.085.23.131.31a.98.98 0 0 0 .519.415c.368.164.33 1.054-.33 1.054-.162-2.256-1.944-1.904-2.001-3.853-.74.76-.445 1.802.044 2.252-.37-.101-.63-.55-.693-1.404-.45.526-.496 1.485-.035 1.907-.307-.048-.55-.466-.517-.971-.311.543-.385 1.57.616 1.582-.497.172-.91-.158-1.033-.42a4.33 4.33 0 0 0-.679-.186c-.174-.317-.651-.807-.725-1.064-.066-.229.112-.355.257-.497.307-.284.547-.624.706-.965-.27-.02-.532-.09-.71-.11a2.292 2.292 0 0 1-.54.517c.218-.235.365-.478.46-.71.454.044 2.027.014 2.896-.34 0 0-4-6.671-4.133-6.897-.083-.142-.105-.248.002-.358.035-.034.048-.104.044-.156a.518.518 0 0 0-.063-.19c-.1-.182-.175-.387-.423-.43-.025-.005-.047-.046-.064-.074l-.675-1.108c-.056-.064-.314.035-.23.175l.661 1.108a.348.348 0 0 1 .04.187c-.018.172.04.297.155.433.301.361-.436 2.089.809 2.404.053.014.11 0 .194 0-.639.397-1.567-.22-1.194-1.735-1.488.366-1.798 2-2.475 2.83.146-.028.408-.02.586-.001.205-.442.746-1.146 1.366-1.376-.441.456-.787.893-1.049 1.453.172.072.346.18.512.3a2.98 2.98 0 0 1 .726-.895c-.274.367-.581.924-.583 1.012.343.201.854.709 2.013.727 0-.244.075-.713.389-1.067.075.13.131.262.186.398.007.015 0 .042-.012.057-.174.218-.214.471-.185.755-.381.06-1.398.156-1.73.684-.126-.076-.56-.52-1.247-.52-.595 0-1.094.479-1.094 1.125 0 1.056 1.36 2.47.258 2.852 1.049.001 2.062-.936 1.499-2.236-.058-.13-.16-.322-.17-.459-.037-.436.513-.461.513-.017 0 .405.118.77.281 1.13.023.05.046.1.056.152.077.404-.058.73-.385.98-.138.106-.286.2-.424.307-.088.065-.153.145-.132.267.08.488.06.973-.028 1.457-.033.311.281.495.288.966 0 .105.651.092.651-.038-.03-.269-.168-.478-.293-.694-.034-.056-.077-.122-.076-.183.005-.26.012-.523.042-.78.027-.223.14-.417.352-.514.672-.205 1.158-.49 1.505-.804a.809.809 0 0 1-.02.144c-.046.203-.156.38-.262.56-.077.133-.065.218.058.32.247.208.418.463.508.778-.697.113-1.504.492-1.656 1.397-.016.096-.02.191-.02.285 0 .804.57 1.5 1.539 1.5.385 0 1.08-.158 1.08-.854a.828.828 0 0 0-.16-.466c-.215-.315-.535-.44-.926-.383a.543.543 0 0 0-.358.199c-.113.134-.113.334.004.45.134.13.32.138.463.018l.086-.066c0 .166-.119.33-.356.33-.257 0-.495-.228-.495-.525 0-.604.627-.812 1.09-.717 1 .208 1.562 1.432 2.21 1.671-.252.055-.525.187-.486.343.063.17 1.087-.072 1.251.055.031.045.111.101.173.115.054-.045.08-.162.09-.224.142-.02.32.05.42.121.013-.06.01-.19-.17-.266a.435.435 0 0 0-.28-.22c.515-.161.575-.876.115-1.317.56.072.778.89.416 1.225.083.079.24.138.624.101.283-.027.52-.168.663-.022-.04.109-.089.16-.092.26-.008.205.212.215.378.215.31 0 .603-.097.9-.17.111.1.504.126.623.063.087.053.152.101.236.09.031-.005.038-.21.009-.293.074.048.209.07.28.047a.666.666 0 0 0-.195-.253c-.011-.128-.121-.242-.239-.242-.2 0-.414.105-.612.046.93-.67.489-2.201.22-2.268a.509.509 0 0 0-.37.039c-.06-.495.54-.003.748-.214-.203-.051-.316-.195-.415-.346.163.077.538.137.705-.037-1.348-.257-1.309-1.024-1.814-1.117-.262-.048-.582-.347-.745-.558-.134-.165-.49-.092-.523.084a.775.775 0 0 1 .247.521l-1.13-1.751c.982-.412 1.135.026 2.125-.303.252-.088.455.003.545.245.068.181.16.516.208.702.06.234-.006.429-.244.741-.06.126.351.667.503.496.205-.579.354-.615.322-.738-.024-.315-.42-1.363-.441-1.861a.47.47 0 0 0-.211-.372c-.164-.122-.343-.13-.534-.108-.218.025-.438.04-.657.06.006-.035.017-.049.03-.054.206-.137.59-.334.95-.334.16 0 .272.068.428.243.147.163.297.326.448.487zm8.227-27.978s2.663-.094 3.708 1.343c1.044 1.437-.4 3.01-.49 3.119-.062.076-.116.042-.107-.044.008-.074-.752-2.29-5.124-1.123-.093.025-.15.027-.063-.063.808-.641 1.767-2.077 2.076-3.232zm.146 1.132c.34-.152.811-.168 1.212-.09 0-.401-.583-.512-.917-.512 0 0-.148.388-.295.602zm4.08 5.098c-.251.335-.962 1.358-2.521.443-1.56-.914-2.364-1.411-2.364-1.411s.245.47.06 1.037c-.012.032-.048.03-.062-.003-.154-.366-1.509-1.426-3.236-1.572a19.498 19.498 0 0 1 1.327-1.052c.738.12 2.167.627 4.018 1.834 1.85 1.207 2.702.702 2.737.68.035-.022.086-.015.04.044zm-14.61-6.38c-.33-.18-1.158-1.069-1.356-1.849 1.174.577 3.026 1.152 5.77 1.152l5.001.013c.29 0 .4.186.304.506-1.002 3.389-3.733 4.191-4.812 5.659 0 0 .008-.458-.492-1.548-.34.56-1.264 1.611-1.863 1.744.143-.302.314-1.494.181-2.295-1.415 1.241-3.16 1.486-4.097.769.797.03 1.836-.86 2.358-1.65-.73.17-1.734-.005-1.942-.215.461-.112 1.02-.523 1.357-.912-.517-.036-1.64-.462-1.961-1.061.45.102 1.118-.083 1.552-.313zm5.398.337c0 .165.22.215.996.524.775.308 1.165.724 1.165.724s.373-.612.492-.81c.12-.196.156-.438-.246-.438zm-15.551 5.072c.575.765 1.481 1.2 2.759 1.076 0 0-.596-.996-.702-1.862.596.586 1.923.786 2.747.704 0 0 .97 1.524 1.537 3.913-.843-.255-2.089-.973-2.69-1.546a23.573 23.573 0 0 0-.31 1.85 20.088 20.088 0 0 0-1.476-1.692c-.23 1.008-.587 2.268-1.39 3.388.155-1.137-.09-3.17-.593-4.264-.084-.636-.037-1.124.118-1.567zm14.295 0c.157.443.203.931.12 1.567-.505 1.095-.748 3.127-.592 4.264-.804-1.12-1.162-2.38-1.391-3.388-.462.47-1.06 1.145-1.477 1.691-.071-.591-.2-1.321-.31-1.849-.6.573-1.847 1.291-2.69 1.546.568-2.39 1.538-3.913 1.538-3.913.824.082 2.15-.118 2.748-.704-.108.866-.705 1.862-.705 1.862 1.279.124 2.184-.311 2.76-1.076zm-10.996 7.544c-.367 1.51-1.78 2.977-3.24 3.088.95-1.234.989-3.366.92-4.076.633-.984 1.05-1.871 1.248-2.475.43.425 1.092 1.25 1.688 2.202 0-.01.017-1.194.254-2.632.614.556 1.724.957 2.32 1.113.373.611.476 1.09.654 1.856.178-.767.281-1.245.656-1.856.594-.156 1.705-.557 2.318-1.113.238 1.438.254 2.621.254 2.632.595-.953 1.26-1.777 1.687-2.202.2.604.616 1.49 1.248 2.475-.067.71-.028 2.842.92 4.076-1.458-.111-2.872-1.579-3.238-3.088-.482.775-.911 1.707-1.06 2.539-.462-.56-.95-1.533-1.281-2.695-.406.507-1.114 1.54-1.504 2.393-.39-.852-1.098-1.886-1.504-2.393-.33 1.162-.819 2.135-1.28 2.695-.15-.832-.578-1.764-1.06-2.54zm-13.23 17.842c-1.218.792-3.173.614-3.803-.26 1.071-.58 2.35-2.067 3.049-3.53.137.356.387.934.595 1.321a4.423 4.423 0 0 1-.448.621c.018.133.708.498 1.195-.442a7.986 7.986 0 0 0 1.34-.4c-.59 1.187-1.108 2.156-1.928 2.69zm2.533-2.465c.16.409.44.729.44.729-.161.622.052.921.44.851.027-.403.164-.715.164-.715s.903-.728 1.457-.865c-.645.574-1.248 1.833-1.094 3.172-1.852-.054-1.988-1.944-1.407-3.172zm-9.162 1.401c-1.623 0-2.92-1.197-3.286-1.958 1.847-.267 4.492-1.64 5.9-3.054.011.566.077 1.132.18 1.542-.519.555-1.335.945-1.335.945s.215.415.72.415c.168 0 .344-.047.52-.148.35-.197.803-.726.803-.726a8.844 8.844 0 0 0 1.809-.368c-1.012 1.284-2.714 2.812-4.501 3.254-.267.066-.54.098-.81.098zm-3.577-2.998c-1.927 0-3.447-1.95-3.84-2.881 1.96-.027 5.264-.82 7.288-1.948-.138.46-.3 1.084-.393 1.783-.928.433-1.9.717-2.743.82 0 0 .138.812 1.451.645.719-.091 1.583-.637 1.78-.77.566.08 1.761.053 2.215-.038-1.427 1.017-3.644 2.194-5.48 2.376a3.162 3.162 0 0 1-.278.013zm.29-6.617c-1.581.352-3.555.268-3.555.268s.117.842 1.213.902c.484.026 1.971-.223 2.594-.401.263.11 1.415.393 2.61.547-1.675.594-4.108 1.213-5.637 1.213-.152 0-.294-.006-.421-.018-2.453-.22-3.696-2.474-3.76-3.781.725.146 1.989.238 3.289.238 1.104 0 3.185-.093 4.802-.538-.407.481-.855 1.07-1.136 1.57zm-5.889-2.385c-.865-.28-3.62-1.505-3.121-5.57 2.18 1.157 6.062 2.364 9.102 2.337-.77.473-1.5 1.016-1.972 1.472-1.281-.076-3.014-.47-4.034-.88-.02.182-.038.989 1.142 1.35.8.247 2.049.272 2.969.291.735.469 1.867.941 2.785 1.254-.85.121-1.894.21-2.884.21-1.623 0-3.076-.169-3.987-.464zm6.694-8.424c-2.097-1.388-4.501-3.519-5.594-4.947-1.42-1.857-2.008-3.717-1.746-5.527.26-1.799 1.317-3.075 1.93-3.582.546 1.422 2.805 5.05 4.82 7.24-.24.793-.393 1.846-.407 2.762-1.734-1.434-3.645-4.292-3.939-5.312-.385.283-.586 1.107-.042 2.046.94 1.626 2.566 3.048 3.99 4.165.06 1.044.518 2.255.988 3.155zm-.58 4.604c-2.677-.42-5.906-1.483-7.473-3.024-2.977-2.924-1.388-6.49-.999-7.25 1.928 2.401 5.616 4.947 9.052 6.303-1.16.143-2.35.387-3.206.72-1.372-.583-3.302-1.894-4.195-2.804-.118.153-.438.917.574 1.766.738.619 2.235 1.306 3.391 1.756.512.764 1.472 1.615 2.857 2.533zm44.604 13.094c.697 1.463 1.977 2.95 3.048 3.53-.63.874-2.585 1.052-3.802.26-.82-.534-1.339-1.503-1.93-2.69.345.143.842.296 1.341.4.487.94 1.177.575 1.195.442a4.423 4.423 0 0 1-.447-.62c.208-.388.458-.966.595-1.322zm-3.288 1.325c.582 1.228.445 3.118-1.406 3.172.153-1.339-.45-2.598-1.094-3.172.555.137 1.457.865 1.457.865s.135.312.162.715c.389.07.603-.23.442-.851 0 0 .28-.32.44-.729zm6.369-2.069c.103-.41.168-.976.18-1.542 1.407 1.414 4.052 2.787 5.9 3.054-.367.761-1.663 1.958-3.287 1.958a3.39 3.39 0 0 1-.81-.098c-1.787-.442-3.488-1.97-4.5-3.254a8.857 8.857 0 0 0 1.808.368s.453.53.802.726c.177.1.354.148.52.148.506 0 .721-.415.721-.415s-.815-.39-1.334-.945zm3.315-2.574a11.448 11.448 0 0 0-.393-1.783c2.025 1.127 5.329 1.92 7.288 1.948-.392.931-1.912 2.881-3.84 2.881-.092 0-.185-.005-.277-.013-1.837-.182-4.054-1.359-5.481-2.376.454.091 1.649.118 2.216.039.196.132 1.06.678 1.78.769 1.312.167 1.45-.646 1.45-.646-.842-.102-1.814-.386-2.743-.82zm1.631-5.141c1.617.445 3.698.538 4.801.538 1.3 0 2.565-.092 3.29-.238-.065 1.307-1.308 3.561-3.76 3.781-.128.012-.27.018-.42.018-1.53 0-3.964-.619-5.638-1.213 1.194-.154 2.346-.437 2.61-.547.623.178 2.11.427 2.593.4 1.096-.059 1.213-.9 1.213-.9s-1.972.083-3.553-.269c-.283-.5-.73-1.089-1.136-1.57zm10.145-6.385c.498 4.065-2.256 5.29-3.122 5.57-.912.295-2.364.464-3.987.464-.99 0-2.034-.088-2.884-.21.917-.313 2.05-.785 2.786-1.254.92-.019 2.167-.044 2.97-.29 1.177-.362 1.16-1.17 1.14-1.351-1.02.411-2.753.804-4.034.88-.472-.455-1.202-1-1.972-1.472 3.04.027 6.922-1.18 9.103-2.337zm-4.876-12.22c-.294 1.02-2.203 3.878-3.934 5.312-.013-.916-.167-1.97-.406-2.762 2.013-2.19 4.268-5.818 4.813-7.24.613.507 1.669 1.783 1.928 3.582.26 1.81-.326 3.67-1.744 5.527-1.091 1.428-3.492 3.559-5.586 4.947.468-.9.926-2.111.986-3.155 1.423-1.117 3.045-2.54 3.985-4.165.542-.94.342-1.763-.042-2.046zm-1.726 10.72c-.857-.334-2.045-.578-3.203-.72 3.432-1.357 7.116-3.903 9.042-6.303.39.758 1.975 4.325-.997 7.25-1.567 1.54-4.792 2.603-7.467 3.023 1.384-.918 2.342-1.769 2.853-2.533 1.157-.45 2.651-1.137 3.387-1.756 1.012-.85.692-1.613.574-1.766-.89.91-2.82 2.221-4.19 2.805zm-7.999-4.106c.133 1.055.032 3.674-1.1 5.303.827.318 1.887.831 2.6 1.308-.451.513-1.5 1.399-2.207 1.881.577.513 1.47 1.495 1.94 2.138-.595.354-1.756.818-2.708 1.074.423.699 1.074 1.96 1.238 2.71-1.032.201-2.083.201-2.996.108.118.874.04 1.973-.052 2.774-.952-.137-1.998-.523-2.692-.89-.132.604-.495 1.72-.821 2.316-.903-.858-2.093-1.25-3.196-1.023-2.256.465-2.927 2.75-2.927 2.75l-.004-6.952v-.776c0-.433-.232-.662-.65-.662h-15.659c-.418 0-.65.23-.65.662v.776l-.004 6.953s-.671-2.286-2.928-2.751c-1.103-.227-2.293.165-3.195 1.023-.326-.597-.69-1.712-.821-2.316-.695.367-1.741.753-2.693.89-.092-.8-.17-1.9-.052-2.774-.924.028-1.97.042-2.995-.108.163-.75.814-2.011 1.238-2.71-.916-.29-2.114-.72-2.708-1.074a16.683 16.683 0 0 1 1.938-2.138c-.705-.482-1.755-1.368-2.206-1.881.713-.477 1.774-.99 2.601-1.308-1.132-1.63-1.233-4.248-1.1-5.303 1.114 2.587 3.94 4.895 5.768 6.05.834.527.53 1.526.263 1.97-2.49 4.141 2.039 7.226 6.129 5.174-.892.01-1.794-.749-1.918-1.425.284.245 1.445.11 1.789-.208-.527-.275-.653-.555-.68-.816.65.4 1.968.455 2.357-.221 2.161-.059 3.6-1.747 3.758-2.234.16.519.419 1.424.505 2.318.585-.397 1.586-1.296 2.108-2.515a9.44 9.44 0 0 1 1.325 2.797 9.44 9.44 0 0 1 1.326-2.797c.522 1.219 1.522 2.118 2.108 2.515.085-.894.345-1.8.505-2.318.158.487 1.596 2.175 3.758 2.234.387.676 1.705.62 2.357.22-.028.262-.153.542-.68.817.344.318 1.505.453 1.788.208-.125.676-1.026 1.435-1.918 1.425 4.09 2.052 8.62-1.033 6.13-5.174-.268-.444-.573-1.443.262-1.97 1.828-1.155 4.654-3.463 5.77-6.05zm-28.46-8.139c2.123 0 3.502-1.605 3.873-3.958h2.092c-.7 3.265-3.326 4.202-6.058 4.202zm-11.829-5.31c.325-.363 1.812-1.445 2.402-1.034 0 0 .573.3.805 2.636.233 2.32 1.472 3.574 2.35 3.683l.093.288c-1.51 0-2.982-1.008-3.568-3.117-.585-2.109-2.082-2.456-2.082-2.456zm-4.377.943c-1.248.041-1.39.579-1.39.579h-.041c.067-.893 1.557-.64 3.008-1.598 1.03-.68 1.643-1.634 2.096-1.99.453-.356 1.77-.082 2.715.534 0 0-.878-.29-2.731 1.401-1.57 1.43-2.41 1.032-3.657 1.074zm1.157 5.602s-.23.69-1.1.851c1.19-1.344-.263-3.362-.845-4.23-.459-.684-.332-1.164-.196-1.357.437-.623 1.434-.412 2.351-.419-1.503 1.013.031 2.344.781 4.076.75 1.735-.16 3.366-.16 3.366s-.07-1.539-.83-2.287zm9.366-.982s-.126-.312-.289-.763h5.72c-.162.451-.29.763-.29.763zm3.076-7.309c0 .282-.222.51-.494.51a.503.503 0 0 1-.496-.51c0-.281.222-.51.496-.51.272 0 .494.229.494.51zm-3.578 5.97c-.22-.69-.468-1.741-.468-2.248 0-.926.512-1.95 2.314-2.267 0 1.14.544 3.861 1.2 3.861h.075c.656 0 1.2-2.742 1.2-3.86 1.795.315 2.294 1.341 2.294 2.266 0 .507-.249 1.557-.468 2.248zm3.084-1.421c-.343 0-.62-1.79-.62-2.681 0-.487.277-.807.62-.807.34 0 .619.32.619.807 0 .891-.278 2.681-.619 2.681zm-.249-6.592l-.826.085v-.676l.826.084-.083-.845h.662l-.083.845.826-.084v.676l-.826-.085.083.845h-.662zm13.578 5.141c.371 2.353 1.75 3.958 3.873 3.958l.092.244c-2.73 0-5.356-.937-6.058-4.202zm10.153 3.933c.88-.109 2.118-1.362 2.35-3.683.235-2.336.806-2.636.806-2.636.592-.41 2.078.671 2.403 1.034 0 0-1.498.347-2.083 2.456-.586 2.109-2.057 3.117-3.568 3.117zm6.279-5.416c-1.852-1.69-2.732-1.401-2.732-1.401.945-.616 2.264-.89 2.716-.534.453.356 1.065 1.31 2.096 1.99 1.45.958 2.94.705 3.008 1.598h-.041s-.142-.538-1.39-.579c-1.248-.042-2.088.356-3.657-1.074zm4.65 1.94c.136.193.263.673-.195 1.357-.583.868-2.036 2.886-.845 4.23-.87-.16-1.1-.851-1.1-.851-.762.748-.831 2.287-.831 2.287s-.912-1.63-.161-3.366c.751-1.732 2.285-3.063.78-4.076.92.007 1.915-.204 2.353.419zm-16.659 3.754s-.127-.312-.288-.763h5.72c-.163.451-.29.763-.29.763zm3.057-7.309c0 .282-.222.51-.496.51a.503.503 0 0 1-.496-.51c0-.281.222-.51.496-.51s.496.229.496.51zm-3.56 5.97c-.219-.69-.466-1.741-.466-2.248 0-.925.497-1.95 2.294-2.266 0 1.118.543 3.86 1.2 3.86h.073c.657 0 1.2-2.72 1.2-3.86 1.802.315 2.315 1.34 2.315 2.266 0 .507-.248 1.557-.468 2.248zm3.064-1.421c-.342 0-.62-1.79-.62-2.681 0-.487.278-.807.62-.807.343 0 .62.32.62.807 0 .891-.277 2.681-.62 2.681zm-.248-6.592l-.826.085v-.676l.826.084-.082-.845h.661l-.083.845.826-.084v.676l-.826-.085.083.845h-.66zm-33.719 21.258c-2.764-1.892-2.85-5.994-2.053-8.224.535 1.352 2.31 3.573 3.456 4.77-.102 1.139.268 3.16.902 4.394-.908.344-1.984.864-2.746 1.444.505.637 1.593 1.624 2.276 2.159-.577.604-1.549 1.714-1.98 2.354.639.48 2.03 1.029 2.744 1.281-.352.72-.862 2.033-.994 2.94a18.56 18.56 0 0 0 3.1.211c-.057.868.065 2.213.217 3.017 1.084-.086 2.363-.53 2.934-.817.301 1.2 1.047 2.364 1.08 2.426 3.39-3.695 6.393-.21 6.393 3.047v4.438c0 2.1.661 3.059 2.565 3.059h2.463c1.532 0 2.817.65 3.458 1.9.641-1.25 1.925-1.9 3.459-1.9h2.463c1.902 0 2.563-.96 2.563-3.059v-4.438c0-3.256 3.005-6.742 6.394-3.047.032-.062.778-1.226 1.08-2.426.571.286 1.85.73 2.935.817.15-.804.273-2.15.216-3.017a18.533 18.533 0 0 0 3.1-.21c-.131-.908-.642-2.22-.992-2.941.713-.252 2.104-.802 2.743-1.281-.432-.64-1.403-1.75-1.981-2.354.682-.535 1.77-1.522 2.277-2.159-.763-.58-1.838-1.1-2.745-1.444.633-1.234 1.002-3.255.901-4.395 1.145-1.196 2.92-3.417 3.456-4.769.796 2.23.71 6.333-2.054 8.224 1.335.033 3.687.3 4.882.68-.812.977-2.932 2.381-4.203 2.977.988.375 2.761 1.328 3.5 2.016-.952.59-3.044 1.264-4.032 1.484.575.47 1.76 1.823 2.195 2.553-.819.256-2.5.479-3.57.54.342.718.733 1.98.836 2.806-.53.053-2.3-.039-3.176-.235.075.717.047 2.023-.072 2.586a15.099 15.099 0 0 1-2.674-.697c-.165.64-.759 2.018-.968 2.346a8.35 8.35 0 0 1-2.127-.737c-.193.513-.63 1.28-.75 1.473-2.024-2.051-4.915-.387-4.915 1.796.208 1.438 2.233 1.358 3.3 2.034 1.401.89 1.16 2.952 2.603 3.268-1.364.865-1.76-.757-3.177-.804.189.875.17 2.429.028 3.08-.582-.451-1.4-.796-1.934-.83.132.51.234 1.705.044 2.45-.376-.287-1.78-1.51-5.112-.723-.405.095 2.26-.01 1.927.852-.261.679-.335 1.152-.022 2.116a1.422 1.422 0 0 1-.482.075c-.747 0-1.716-.435-2.101-1.117-.297.222-.297 1.8.699 2.192-1.064.078-1.875-.79-2.032-1.321 0 0-.52 1.24-1.138 1.647-.386-.136-1.077-.78-1.344-1.449-.267.67-.957 1.313-1.344 1.449-.617-.407-1.138-1.647-1.138-1.647-.157.532-.967 1.4-2.032 1.32.997-.39.997-1.97.7-2.191-.386.682-1.354 1.117-2.102 1.117-.176 0-.34-.024-.482-.075.314-.964.24-1.437-.022-2.116-.332-.862 2.332-.757 1.928-.852-3.333-.786-4.736.436-5.112.723-.191-.745-.088-1.94.044-2.45-.535.034-1.352.379-1.935.83-.143-.651-.16-2.205.029-3.08-1.417.047-1.814 1.669-3.177.804 1.443-.317 1.2-2.378 2.603-3.268 1.066-.676 3.092-.596 3.3-2.034 0-2.183-2.891-3.847-4.916-1.796-.12-.193-.557-.96-.748-1.473a8.344 8.344 0 0 1-2.129.737c-.208-.328-.802-1.706-.969-2.346-.574.223-1.809.571-2.673.697-.119-.563-.147-1.869-.072-2.586-.877.196-2.646.288-3.175.235.103-.825.493-2.088.836-2.805-1.069-.062-2.752-.285-3.57-.541.434-.73 1.62-2.084 2.194-2.553-.988-.22-3.08-.894-4.031-1.484.739-.688 2.511-1.64 3.499-2.016-1.27-.596-3.391-2-4.203-2.978 1.195-.38 3.547-.646 4.882-.679zm-7.379 20.925s.673.51.436.95c-.418.257-.934-.42-.934-.42l.249-.265z"/></defs><g><g clip-path="url(#clip-C48CAE28-F525-4434-94B9-0E0AA5A1DE7C)" transform="translate(-212 -4645)"><use fill="#30409a" xlink:href="#gmg1a"/></g></g></svg>