<svg xmlns="http://www.w3.org/2000/svg" xmlns:xlink="http://www.w3.org/1999/xlink" width="67" height="80" viewBox="0 0 67 80"><defs><path id="sbyda" d="M806.718 4645h-64.794a.924.924 0 0 0-.924.924v67.918a6.018 6.018 0 0 0 6.018 6.018h22.064l4.571 4.598a.93.93 0 0 0 1.306 0l4.598-4.598h22.054a6.015 6.015 0 0 0 6.014-6.018v-67.918a.924.924 0 0 0-.907-.924z"/><path id="sbydc" d="M775.506 4689.739v-6.54l14.367-14.384c1.702-1.702 1.493-2.812.921-3.383-.571-.572-1.704-.846-3.419.868l.653.653a.173.173 0 0 1-.078.288l-4.725 1.263a.17.17 0 0 1-.209-.209l1.264-4.724a.173.173 0 0 1 .29-.076l.673.673a6.684 6.684 0 0 1 4.441-2.064 4.62 4.62 0 0 0-6.335.17l.653.653a.173.173 0 0 1-.075.29l-4.725 1.265a.17.17 0 0 1-.209-.213l1.264-4.744a.173.173 0 0 1 .287-.078l.68.679a7.618 7.618 0 0 1 12.986 5.606c0 .591.235.823.826.823a7.618 7.618 0 0 1 5.603 13l.68.675a.176.176 0 0 1-.08.29l-4.724 1.264a.17.17 0 0 1-.209-.209l1.28-4.698a.173.173 0 0 1 .29-.075l.654.653a4.617 4.617 0 0 0 .166-6.335 6.665 6.665 0 0 1-2.06 4.44l.672.673a.17.17 0 0 1-.075.288l-4.725 1.267a.17.17 0 0 1-.209-.213l1.264-4.721a.173.173 0 0 1 .288-.079l.653.654c1.714-1.715 1.469-2.822.868-3.42-.6-.597-1.685-.78-3.383.922l-15.55 15.542 10.603 10.593 4.043-4.052a.327.327 0 0 1 .457 0l1.587 1.584a.327.327 0 0 1 0 .46l-4.036 4.036 1.29 1.306a6.374 6.374 0 1 1-2.123 2.12l-1.286-1.29-4.04 4.035a.327.327 0 0 1-.457 0l-1.586-1.583a.327.327 0 0 1 0-.46l4.035-4.037-9.446-9.446zm-8.741-30.208a.372.372 0 0 1 .62.167l1.597 5.91a.183.183 0 0 1-.225.225l-5.937-1.596a.372.372 0 0 1-.166-.62l.924-.918a9.339 9.339 0 0 0-9.241-1 1.385 1.385 0 0 0-.405 2.244l19.233 19.265v6.53l-12.8 12.794a6.364 6.364 0 1 1-2.123-2.119l13.956-13.96-20.385-20.384a1.388 1.388 0 0 0-2.247.404 9.345 9.345 0 0 0 1.003 9.241l.914-.924a.372.372 0 0 1 .62.167l1.607 5.93a.186.186 0 0 1-.225.228l-5.927-1.59a.369.369 0 0 1-.166-.617l1.051-1.052a12.333 12.333 0 0 1-.232-14.955v-2.286c0-.146.119-.264.265-.264h2.286a12.336 12.336 0 0 1 14.951.216l1.052-1.052zm29.316 43.915a3.37 3.37 0 0 0-5.496 3.678 3.37 3.37 0 0 0 6.227 0 3.377 3.377 0 0 0-.731-3.678zm-43.537 0a3.377 3.377 0 0 0-.731 3.678 3.37 3.37 0 0 0 6.227 0 3.377 3.377 0 0 0-.732-3.678 3.373 3.373 0 0 0-4.764 0z"/><path id="sbydd" d="M777.08 4656.565a3.683 3.683 0 0 0 3.491-6.181l-2.703 2.703h-.947l-1.075 1.075-.297-.3a.304.304 0 0 1 0-.429l.895-.894a.434.434 0 0 1 .307-.128h.519l.274.271v-.698a.428.428 0 0 0-.127-.304l-.376-.376a1 1 0 0 0 .245-.597c0-.392-.382-.516-.872-.529a.173.173 0 0 0 .098-.157.18.18 0 0 0-.359 0c0 .067.038.128.098.157-.49 0-.872.137-.872.529a.96.96 0 0 0 .22.565h-.135l-.503-.513.138-.147a1.1 1.1 0 0 0 .293-.685c0-.438-.424-.578-.98-.591a.2.2 0 0 0-.09-.376c-.111 0-.201.089-.203.2 0 .074.043.143.111.176-.542 0-.98.153-.98.59.017.256.12.498.294.686l.128.147-.513.513h-.124a.96.96 0 0 0 .219-.565c0-.392-.382-.516-.869-.529a.18.18 0 1 0-.264-.157.18.18 0 0 0 .098.157c-.487 0-.872.137-.872.529a.98.98 0 0 0 .248.597l-.379.376a.425.425 0 0 0-.124.304v.698l.278-.27h.522c.114 0 .224.046.304.127l.898.894a.304.304 0 0 1 0 .428l-.3.3-1.072-1.074h-.943l-2.7-2.703a3.687 3.687 0 0 0 3.49 6.184l.385.382a.13.13 0 0 1 0 .183l-1.257 1.254h-.536l-1.306-1.306a.49.49 0 0 0 0-.121.464.464 0 1 0-.457.447.49.49 0 0 0 .12 0l1.307 1.306v.36c0 .113.045.222.124.303l.327.327a.44.44 0 0 0 .303.127h.366l.176.177a.088.088 0 0 0 .121 0l.203-.203a.088.088 0 0 0 0-.12l-.18-.18v-.526l1.28-1.244a.13.13 0 0 1 .183 0l.415.418-.918.92a.258.258 0 0 0 0 .366l.94.944v49.228a2.217 2.217 0 1 0 2.316 0v-49.238l.943-.943a.258.258 0 0 0 0-.366l-.92-.921.417-.408a.13.13 0 0 1 .183 0l1.57 1.57c.08.082.19.128.305.128h.437a1.228 1.228 0 1 0-1.133-1.698l-.588-.591a.127.127 0 0 1 0-.183l.386-.385z"/><linearGradient id="sbydb" x1="774.32" x2="774.32" y1="4645" y2="4724.73" gradientUnits="userSpaceOnUse"><stop offset="0" stop-color="#f73c4a"/><stop offset="1" stop-color="#ed1c24"/></linearGradient></defs><g><g transform="translate(-741 -4645)"><g><use fill="url(#sbydb)" xlink:href="#sbyda"/></g><g><use fill="#fff" xlink:href="#sbydc"/></g><g><use fill="#fd0" xlink:href="#sbydd"/></g></g></g></svg>