<?xml version="1.0" standalone="no"?>
<!DOCTYPE svg PUBLIC "-//W3C//DTD SVG 1.1//EN" "http://www.w3.org/Graphics/SVG/1.1/DTD/svg11.dtd" >
<svg xmlns="http://www.w3.org/2000/svg">
    <defs>
        <font id="">
            <font-face font-family=""
                       units-per-em="1000"
                       ascent="955"
                       descent="-277"
                       bbox="-7 -172 996 888"
                    />
            <missing-glyph horiz-adv-x="0" />
            
            <glyph glyph-name="!" unicode="&#x21;" horiz-adv-x="222" d=" M92,700 L222,700 L222,220 L92,220 M92,130 L222,130 L222,0 L92,0"/> 
            <glyph glyph-name="&quot;" unicode="&#x22;" horiz-adv-x="376" d=" M50,653 L50,705 L180,705 L180,653 L154,447 L76,447 M246,653 L246,705 L376,705 L376,653 L350,447 L272,447"/> 
            <glyph glyph-name="#" unicode="&#x23;" horiz-adv-x="651" d=" M88,47 L112,159 L34,159 L34,277 L137,277 L168,423 L80,423 L80,541 L193,541 L227,700 L342,700 L342,653 L318,541 L447,541 L481,700 L597,700 L597,653 L573,541 L651,541 L651,423 L548,423 L517,277 L605,277 L605,159 L493,159 L459,0 L343,0 L343,47 L367,159 L238,159 L204,0 L88,0 M391,277 L423,423 L293,423 L262,277"/> 
            <glyph glyph-name="$" unicode="&#x24;" horiz-adv-x="542" d=" M173,227 Q173,191 183.5,167 Q194,143 212,129 Q230,115 253,109 Q276,103 301,103 Q352,103 378.5,127 Q405,151 405,188 Q405,207 398,219.5 Q391,232 379,241.5 Q367,251 351,258.5 Q335,266 317,274 L236,310 Q194,328 161.5,346.5 Q129,365 106.5,387.5 Q84,410 72.5,440 Q61,470 61,512 Q61,552 74,585.5 Q87,619 110.5,645 Q134,671 166,688 Q198,705 237,711 L237,803 L367,803 L367,708 Q398,701 428.5,683.5 Q459,666 483,637.5 Q507,609 521.5,569.5 Q536,530 536,479 L406,479 Q406,512 397,535 Q388,558 373,571.5 Q358,585 337,591 Q316,597 292,597 Q248,597 221,575.5 Q194,554 194,518 Q194,498 201,484.5 Q208,471 221.5,460.5 Q235,450 254.5,440.5 Q274,431 299,420 L365,391 Q402,374 434.5,357 Q467,340 491,318 Q515,296 528.5,267 Q542,238 542,198 Q542,122 500,65 Q458,8 367,-11 L367,-118 L237,-118 L237,-12 Q196,-6 161,11.5 Q126,29 99.5,59 Q73,89 58,131 Q43,173 43,227"/> 
            <glyph glyph-name="%" unicode="&#x25;" horiz-adv-x="754" d=" M196,449 Q217,449 228.5,462 Q240,475 240,494 L240,577 Q240,596 228.5,609 Q217,622 196,622 Q174,622 163,608.5 Q152,595 152,577 L152,494 Q152,476 163,462.5 Q174,449 196,449 M196,356 Q123,356 80.5,395 Q38,434 38,512 L38,559 Q38,637 80.5,676 Q123,715 196,715 Q269,715 311.5,676 Q354,637 354,559 L354,512 Q354,434 311.5,395 Q269,356 196,356 M596,78 Q617,78 628.5,91 Q640,104 640,123 L640,206 Q640,224 628.5,237.5 Q617,251 596,251 Q574,251 563,237.5 Q552,224 552,206 L552,123 Q552,105 563,91.5 Q574,78 596,78 M596,-15 Q523,-15 480.5,24 Q438,63 438,141 L438,188 Q438,266 480.5,305 Q523,344 596,344 Q669,344 711.5,305 Q754,266 754,188 L754,141 Q754,63 711.5,24 Q669,-15 596,-15 M146,47 L555,700 L647,700 L647,653 L238,0 L146,0"/> 
            <glyph glyph-name="&amp;" unicode="&#x26;" horiz-adv-x="654" d=" M53,175 Q53,200 58,222 Q63,244 75,266.5 Q87,289 107,312 Q127,335 157,362 L166,370 L152,385 Q140,397 127,411 Q114,425 103,443.5 Q92,462 85,484.5 Q78,507 78,535 Q78,573 92,605 Q106,637 130.5,659.5 Q155,682 189.5,694.5 Q224,707 266,707 Q306,707 339.5,695.5 Q373,684 397.5,662.5 Q422,641 436,610.5 Q450,580 450,542 Q450,495 426,461 Q402,427 369,398 L342,373 L461,254 Q483,315 483,376 L606,376 Q606,324 592.5,269 Q579,214 552,163 L654,61 L654,0 L540,0 L476,63 Q438,28 390,8 Q342,-12 282,-12 Q176,-12 114.5,37 Q53,86 53,175 M281,106 Q313,106 340.5,117 Q368,128 391,148 L248,289 L238,280 Q208,253 195.5,230.5 Q183,208 183,183 Q183,147 208.5,126.5 Q234,106 281,106 M262,454 L289,478 Q306,493 315.5,505 Q325,517 325,537 Q325,562 308,575.5 Q291,589 268,589 Q239,589 223.5,573.5 Q208,558 208,535 Q208,516 217,503 Q226,490 243,473"/> 
            <glyph glyph-name="'" unicode="&#x27;" horiz-adv-x="180" d=" M50,653 L50,705 L180,705 L180,653 L154,447 L76,447"/> 
            <glyph glyph-name="(" unicode="&#x28;" horiz-adv-x="274" d=" M274,-160 Q186,-160 137,-108.5 Q88,-57 88,40 L88,572 Q88,669 137,720.5 Q186,772 274,772 L274,654 Q244,654 229.5,631 Q215,608 215,579 L215,33 Q215,4 229.5,-19 Q244,-42 274,-42 L274,-160"/> 
            <glyph glyph-name=")" unicode="&#x29;" horiz-adv-x="231" d=" M44,-160 Q132,-160 181,-108.5 Q230,-57 230,40 L230,572 Q230,669 181,720.5 Q132,772 44,772 L44,654 Q74,654 88.5,631 Q103,608 103,579 L103,33 Q103,4 88.5,-19 Q74,-42 44,-42 L44,-160"/> 
            <glyph glyph-name="*" unicode="&#x2A;" horiz-adv-x="414" d=" M185,446 L93,381 L42,471 L144,519 L42,567 L93,657 L185,592 L177,705 L279,705 L270,592 L364,657 L414,567 L311,519 L414,471 L364,381 L270,446 L279,333 L177,333"/> 
            <glyph glyph-name="+" unicode="&#x2B;" horiz-adv-x="510" d=" M227,259 L62,259 L62,367 L227,367 L227,534 L345,534 L345,367 L510,367 L510,259 L345,259 L345,92 L227,92"/> 
            <glyph glyph-name="," unicode="&#x2C;" horiz-adv-x="210" d=" M82,143 L210,143 L210,88 L124,-119 L32,-119"/> 
            <glyph glyph-name="-" unicode="&#x2D;" horiz-adv-x="386" d=" M58,372 L386,372 L386,254 L58,254"/> 
            <glyph glyph-name="." unicode="&#x2E;" horiz-adv-x="211" d=" M68,143 L211,143 L211,0 L68,0"/> 
            <glyph glyph-name="/" unicode="&#x2F;" horiz-adv-x="421" d=" M38,-53 L315,772 L421,772 L421,725 L144,-100 L38,-100"/> 
            <glyph glyph-name="0" unicode="&#x30;" horiz-adv-x="547" d=" M307,103 Q364,103 390.5,136 Q417,169 417,217 L417,483 Q417,531 390.5,564 Q364,597 307,597 Q251,597 224.5,564 Q198,531 198,483 L198,217 Q198,169 224.5,136 Q251,103 307,103 M307,-15 Q197,-15 132.5,45.5 Q68,106 68,224 L68,476 Q68,594 132.5,654.5 Q197,715 307,715 Q418,715 482.5,654.5 Q547,594 547,476 L547,224 Q547,106 482.5,45.5 Q418,-15 307,-15"/> 
            <glyph glyph-name="1" unicode="&#x31;" horiz-adv-x="242" d=" M112,524 L43,524 L43,593 L209,700 L242,700 L242,0 L112,0"/> 
            <glyph glyph-name="2" unicode="&#x32;" horiz-adv-x="503" d=" M46,106 L257,319 Q292,355 314.5,379 Q337,403 350,422 Q363,441 368,458 Q373,475 373,496 Q373,515 368,533 Q363,551 351.5,565 Q340,579 321.5,588 Q303,597 276,597 Q246,597 226.5,587 Q207,577 195,560 Q183,543 177.5,520.5 Q172,498 172,473 L48,473 Q48,530 65,575 Q82,620 112,651 Q142,682 184,698.5 Q226,715 276,715 Q333,715 376,697 Q419,679 447,649 Q475,619 489,580.5 Q503,542 503,501 Q503,462 493.5,431 Q484,400 465.5,370.5 Q447,341 419.5,311.5 Q392,282 355,246 L222,118 L502,118 L502,0 L46,0"/> 
            <glyph glyph-name="3" unicode="&#x33;" horiz-adv-x="533" d=" M288,-15 Q177,-15 112.5,48.5 Q48,112 46,230 L171,230 Q173,176 202.5,139.5 Q232,103 292,103 Q323,103 344,111.5 Q365,120 378,135 Q391,150 397,169.5 Q403,189 403,212 Q403,258 373,280.5 Q343,303 289,303 L245,303 L245,421 L280,421 Q327,421 355.5,441 Q384,461 384,509 Q384,523 380,538.5 Q376,554 365.5,567 Q355,580 337,588.5 Q319,597 291,597 Q234,597 209.5,562.5 Q185,528 184,478 L60,478 Q60,593 122,654 Q184,715 290,715 Q344,715 385.5,700 Q427,685 454.5,658.5 Q482,632 496.5,596.5 Q511,561 511,521 Q511,466 489,430 Q467,394 429,368 Q450,359 469,343.5 Q488,328 502,306.5 Q516,285 524.5,258 Q533,231 533,201 Q533,101 469.5,43 Q406,-15 288,-15"/> 
            <glyph glyph-name="4" unicode="&#x34;" horiz-adv-x="539" d=" M330,129 L28,129 L28,229 L260,700 L374,700 L374,653 L175,247 L330,247 L330,411 L460,411 L460,247 L539,247 L539,129 L460,129 L460,0 L330,0"/> 
            <glyph glyph-name="5" unicode="&#x35;" horiz-adv-x="533" d=" M291,-15 Q190,-15 125.5,39.5 Q61,94 50,196 L177,196 Q183,156 213.5,129.5 Q244,103 294,103 Q351,103 377,140 Q403,177 403,240 Q403,299 374,334.5 Q345,370 297,370 Q255,370 231.5,352.5 Q208,335 197,317 L72,317 L109,700 L494,700 L494,582 L210,582 L196,444 Q210,452 223,458 Q236,464 250.5,468 Q265,472 282,474 Q299,476 321,476 Q361,476 399,463.5 Q437,451 467,423 Q497,395 515,350 Q533,305 533,240 Q533,177 515.5,129.5 Q498,82 466,49.5 Q434,17 389.5,1 Q345,-15 291,-15"/> 
            <glyph glyph-name="6" unicode="&#x36;" horiz-adv-x="540" d=" M295,-15 Q239,-15 194,1 Q149,17 117,47.5 Q85,78 67.5,121 Q50,164 50,218 Q50,266 66.5,313.5 Q83,361 118,418 L297,700 L416,700 L416,653 L280,444 Q294,446 307.5,447.5 Q321,449 339,449 Q380,449 416.5,435.5 Q453,422 480.5,394.5 Q508,367 524,326.5 Q540,286 540,232 Q540,173 522.5,127 Q505,81 473,49.5 Q441,18 395.5,1.5 Q350,-15 295,-15 M295,103 Q352,103 381,136 Q410,169 410,224 Q410,279 382,311.5 Q354,344 294,344 Q262,344 240.5,334.5 Q219,325 205.5,309 Q192,293 186,271 Q180,249 180,224 Q180,169 209,136 Q238,103 295,103"/> 
            <glyph glyph-name="7" unicode="&#x37;" horiz-adv-x="494" d=" M153,47 L360,582 L156,582 L156,497 L36,497 L36,700 L494,700 L494,590 L270,0 L153,0"/> 
            <glyph glyph-name="8" unicode="&#x38;" horiz-adv-x="560" d=" M309,-15 Q191,-15 124.5,42 Q58,99 58,198 Q58,228 66.5,254.5 Q75,281 89.5,303.5 Q104,326 123,342 Q142,358 163,367 Q144,380 128,395 Q112,410 100.5,428 Q89,446 82.5,468.5 Q76,491 76,520 Q76,559 91,594.5 Q106,630 135.5,657 Q165,684 208.5,699.5 Q252,715 309,715 Q366,715 409.5,699.5 Q453,684 482.5,657 Q512,630 527,594.5 Q542,559 542,520 Q542,462 517.5,427.5 Q493,393 456,367 Q477,358 496,342 Q515,326 529,303.5 Q543,281 551.5,254.5 Q560,228 560,198 Q560,99 493.5,42 Q427,-15 309,-15 M309,101 Q340,101 362.5,110 Q385,119 400,134 Q415,149 422,168.5 Q429,188 429,210 Q429,260 396,287.5 Q363,315 309,315 Q255,315 222,287.5 Q189,260 189,210 Q189,188 196,168.5 Q203,149 218,134 Q233,119 255.5,110 Q278,101 309,101 M309,414 Q353,414 383,437 Q413,460 413,510 Q413,548 388.5,575 Q364,602 309,602 Q255,602 230,575 Q205,548 205,510 Q205,460 235,437 Q265,414 309,414"/> 
            <glyph glyph-name="9" unicode="&#x39;" horiz-adv-x="538" d=" M293,715 Q348,715 393.5,699 Q439,683 471,652.5 Q503,622 520.5,579 Q538,536 538,482 Q538,434 521.5,386.5 Q505,339 470,282 L291,0 L172,0 L172,47 L308,256 Q294,254 280.5,252.5 Q267,251 249,251 Q208,251 171.5,264.5 Q135,278 107.5,305.5 Q80,333 64,373.5 Q48,414 48,468 Q48,527 65.5,573 Q83,619 115,650.5 Q147,682 192,698.5 Q237,715 293,715 M293,597 Q236,597 207,564 Q178,531 178,476 Q178,421 206,388.5 Q234,356 294,356 Q325,356 347,365.5 Q369,375 382.5,391 Q396,407 402,429 Q408,451 408,476 Q408,531 379,564 Q350,597 293,597"/> 
            <glyph glyph-name=":" unicode="&#x3A;" horiz-adv-x="211" d=" M68,143 L211,143 L211,0 L68,0 M68,524 L211,524 L211,381 L68,381"/> 
            <glyph glyph-name=";" unicode="&#x3B;" horiz-adv-x="211" d=" M82,143 L210,143 L210,88 L124,-119 L32,-119 M68,524 L211,524 L211,381 L68,381"/> 
            <glyph glyph-name="&lt;" unicode="&#x3C;" horiz-adv-x="470" d=" M62,260 L62,366 L408,545 L470,545 L470,453 L191,313 L470,173 L470,80 L408,80"/> 
            <glyph glyph-name="=" unicode="&#x3D;" horiz-adv-x="511" d=" M62,259 L511,259 L511,151 L62,151 M62,475 L511,475 L511,367 L62,367"/> 
            <glyph glyph-name="&gt;" unicode="&#x3E;" horiz-adv-x="470" d=" M62,173 L342,313 L62,453 L62,545 L124,545 L470,366 L470,260 L124,80 L62,80"/> 
            <glyph glyph-name="?" unicode="&#x3F;" horiz-adv-x="487" d=" M184,335 L284,406 Q318,430 337.5,451.5 Q357,473 357,512 Q357,548 333,572.5 Q309,597 263,597 Q209,597 180.5,564.5 Q152,532 152,478 L28,478 Q28,535 46,579.5 Q64,624 96,654 Q128,684 171,699.5 Q214,715 264,715 Q320,715 362,698 Q404,681 431.5,653.5 Q459,626 473,590 Q487,554 487,515 Q487,473 473.5,442 Q460,411 439,387 Q418,363 393,345 Q368,327 345,312 L314,291 L314,220 L184,220 M184,130 L314,130 L314,0 L184,0"/> 
            <glyph glyph-name="@" unicode="&#x40;" horiz-adv-x="924" d=" M570,355 Q555,370 533,383.5 Q511,397 481,397 Q456,397 435,381 Q414,365 414,333 L414,231 Q414,199 435,183 Q456,167 481,167 Q511,167 533,180.5 Q555,194 570,208 M587,114 Q564,94 534.5,78.5 Q505,63 457,63 Q425,63 397,72.5 Q369,82 348,101 Q327,120 314.5,149 Q302,178 302,217 L302,348 Q302,387 314.5,416 Q327,445 348,464 Q369,483 397,492 Q425,501 457,501 Q505,501 534.5,486 Q564,471 587,450 L619,492 L682,492 L682,221 Q682,194 695,177.5 Q708,161 736,161 Q752,161 766.5,169 Q781,177 791.5,195.5 Q802,214 808,245 Q814,276 814,322 Q814,392 789,447 Q764,502 722,540 Q680,578 624,598.5 Q568,619 505,619 Q434,619 374,595.5 Q314,572 270.5,528 Q227,484 203,422 Q179,360 179,283 Q179,206 203,144 Q227,82 270.5,38.5 Q314,-5 374,-28.5 Q434,-52 505,-52 L530,-52 L530,-151 L505,-151 Q408,-151 327.5,-119 Q247,-87 189.5,-29.5 Q132,28 100,107.5 Q68,187 68,282 Q68,379 100,459 Q132,539 189.5,596 Q247,653 327.5,684 Q408,715 505,715 Q593,715 669.5,687.5 Q746,660 802.5,609 Q859,558 891.5,485.5 Q924,413 924,322 Q924,263 910.5,215 Q897,167 870.5,133 Q844,99 806,81 Q768,63 720,63 Q672,63 640.5,76 Q609,89 587,114"/> 
            <glyph glyph-name="A" unicode="&#x41;" horiz-adv-x="642" d=" M18,47 L260,700 L399,700 L642,47 L642,0 L502,0 L446,164 L207,164 L149,0 L18,0 M403,282 L327,510 L249,282"/> 
            <glyph glyph-name="B" unicode="&#x42;" horiz-adv-x="619" d=" M88,700 L384,700 Q480,700 535.5,652 Q591,604 591,507 Q591,406 513,363 Q535,354 554,340.5 Q573,327 587.5,307 Q602,287 610.5,260 Q619,233 619,197 Q619,98 563.5,49 Q508,0 412,0 L88,0 M376,409 Q404,409 426,428.5 Q448,448 448,493 Q448,537 426,556.5 Q404,576 376,576 L230,576 L230,409 M405,124 Q433,124 455,143.5 Q477,163 477,208 Q477,252 455,271.5 Q433,291 405,291 L230,291 L230,124"/> 
            <glyph glyph-name="C" unicode="&#x43;" horiz-adv-x="603" d=" M343,-15 Q209,-15 138.5,51 Q68,117 68,237 L68,463 Q68,583 138.5,649 Q209,715 343,715 Q395,715 442,701 Q489,687 525,657.5 Q561,628 582,581.5 Q603,535 603,470 L603,460 L461,460 L461,470 Q461,501 450.5,523 Q440,545 422,558.5 Q404,572 381,578.5 Q358,585 334,585 Q271,585 240.5,555 Q210,525 210,473 L210,227 Q210,175 240.5,145 Q271,115 334,115 Q358,115 381,121 Q404,127 422,140.5 Q440,154 450.5,176 Q461,198 461,230 L461,240 L603,240 L603,230 Q603,165 582,118.5 Q561,72 525,42.5 Q489,13 442,-1 Q395,-15 343,-15"/> 
            <glyph glyph-name="D" unicode="&#x44;" horiz-adv-x="621" d=" M342,124 Q376,124 401.5,133 Q427,142 444.5,158 Q462,174 470.5,194 Q479,214 479,237 L479,463 Q479,485 470.5,505.5 Q462,526 444.5,542 Q427,558 401.5,567 Q376,576 342,576 L230,576 L230,124 M88,700 L342,700 Q406,700 457.5,684 Q509,668 545.5,637.5 Q582,607 601.5,562 Q621,517 621,459 L621,241 Q621,183 601.5,138 Q582,93 545.5,62.5 Q509,32 457.5,16 Q406,0 342,0 L88,0"/> 
            <glyph glyph-name="E" unicode="&#x45;" horiz-adv-x="546" d=" M88,700 L544,700 L544,576 L230,576 L230,410 L498,410 L498,292 L230,292 L230,124 L546,124 L546,0 L88,0"/> 
            <glyph glyph-name="F" unicode="&#x46;" horiz-adv-x="552" d=" M88,700 L552,700 L552,576 L230,576 L230,401 L504,401 L504,283 L230,283 L230,0 L88,0"/> 
            <glyph glyph-name="G" unicode="&#x47;" horiz-adv-x="613" d=" M324,-15 Q264,-15 216.5,2 Q169,19 136,51.5 Q103,84 85.5,130 Q68,176 68,234 L68,463 Q68,583 141,649 Q214,715 347,715 Q404,715 452.5,699.5 Q501,684 536.5,653.5 Q572,623 592.5,577.5 Q613,532 613,472 L471,472 Q471,526 434.5,555.5 Q398,585 339,585 Q273,585 241.5,554 Q210,523 210,469 L210,235 Q210,178 242.5,146.5 Q275,115 337,115 Q378,115 414.5,133.5 Q451,152 471,184 L471,260 L347,260 L347,378 L613,378 L613,0 L537,0 L498,58 Q466,22 421.5,3.5 Q377,-15 324,-15"/> 
            <glyph glyph-name="H" unicode="&#x48;" horiz-adv-x="628" d=" M88,700 L230,700 L230,412 L486,412 L486,700 L628,700 L628,0 L486,0 L486,288 L230,288 L230,0 L88,0"/> 
            <glyph glyph-name="I" unicode="&#x49;" horiz-adv-x="230" d=" M88,700 L230,700 L230,0 L88,0"/> 
            <glyph glyph-name="J" unicode="&#x4A;" horiz-adv-x="507" d=" M263,-15 Q211,-15 166.5,-4 Q122,7 89,33 Q56,59 37,102 Q18,145 18,209 L18,240 L160,240 L160,209 Q160,158 187.5,136.5 Q215,115 263,115 Q282,115 300.5,120 Q319,125 333.5,136.5 Q348,148 356.5,167 Q365,186 365,214 L365,700 L507,700 L507,209 Q507,147 487.5,104.5 Q468,62 435,35.5 Q402,9 357.5,-3 Q313,-15 263,-15"/> 
            <glyph glyph-name="K" unicode="&#x4B;" horiz-adv-x="620" d=" M88,700 L230,700 L230,412 L304,412 L473,700 L605,700 L605,653 L428,358 L620,47 L620,0 L479,0 L304,288 L230,288 L230,0 L88,0"/> 
            <glyph glyph-name="L" unicode="&#x4C;" horiz-adv-x="550" d=" M88,700 L230,700 L230,124 L550,124 L550,0 L88,0"/> 
            <glyph glyph-name="M" unicode="&#x4D;" horiz-adv-x="726" d=" M363,218 L225,448 L225,0 L88,0 L88,700 L225,700 L409,391 L593,700 L726,700 L726,0 L589,0 L589,448 L451,218"/> 
            <glyph glyph-name="N" unicode="&#x4E;" horiz-adv-x="628" d=" M88,700 L218,700 L486,264 L486,700 L628,700 L628,0 L498,0 L230,436 L230,0 L88,0"/> 
            <glyph glyph-name="O" unicode="&#x4F;" horiz-adv-x="626" d=" M347,115 Q383,115 408.5,124.5 Q434,134 451,150.5 Q468,167 476,187.5 Q484,208 484,231 L484,469 Q484,491 476,512 Q468,533 451,549.5 Q434,566 408.5,575.5 Q383,585 347,585 Q311,585 285.5,575.5 Q260,566 243,549.5 Q226,533 218,512 Q210,491 210,469 L210,231 Q210,208 218,187.5 Q226,167 243,150.5 Q260,134 285.5,124.5 Q311,115 347,115 M347,-15 Q283,-15 231.5,2 Q180,19 143.5,51.5 Q107,84 87.5,131 Q68,178 68,238 L68,462 Q68,522 87.5,569 Q107,616 143.5,648.5 Q180,681 231.5,698 Q283,715 347,715 Q411,715 462.5,698 Q514,681 550.5,648.5 Q587,616 606.5,569 Q626,522 626,462 L626,238 Q626,178 606.5,131 Q587,84 550.5,51.5 Q514,19 462.5,2 Q411,-15 347,-15"/> 
            <glyph glyph-name="P" unicode="&#x50;" horiz-adv-x="602" d=" M88,700 L401,700 Q496,700 549,640.5 Q602,581 602,479 Q602,378 549,318.5 Q496,259 401,259 L230,259 L230,0 L88,0 M375,383 Q407,383 432.5,406 Q458,429 458,480 Q458,505 451,523 Q444,541 432.5,553 Q421,565 406,570.5 Q391,576 375,576 L230,576 L230,383"/> 
            <glyph glyph-name="Q" unicode="&#x51;" horiz-adv-x="626" d=" M347,-15 Q283,-15 231.5,2 Q180,19 143.5,51.5 Q107,84 87.5,131 Q68,178 68,238 L68,462 Q68,522 87.5,569 Q107,616 143.5,648.5 Q180,681 231.5,698 Q283,715 347,715 Q411,715 462.5,698 Q514,681 550.5,648.5 Q587,616 606.5,569 Q626,522 626,462 L626,238 Q626,172 605,126.5 Q584,81 547,48 L625,-71 L625,-119 L488,-119 L416,-8 Q403,-11 382,-13 Q361,-15 347,-15 M347,115 Q383,115 408.5,124.5 Q434,134 451,150.5 Q468,167 476,187.5 Q484,208 484,231 L484,469 Q484,491 476,512 Q468,533 451,549.5 Q434,566 408.5,575.5 Q383,585 347,585 Q311,585 285.5,575.5 Q260,566 243,549.5 Q226,533 218,512 Q210,491 210,469 L210,231 Q210,208 218,187.5 Q226,167 243,150.5 Q260,134 285.5,124.5 Q311,115 347,115"/> 
            <glyph glyph-name="R" unicode="&#x52;" horiz-adv-x="622" d=" M88,700 L391,700 Q499,700 553.5,642.5 Q608,585 608,482 Q608,407 576.5,356.5 Q545,306 493,280 L622,47 L622,0 L484,0 L338,263 L230,263 L230,0 L88,0 M365,383 Q412,383 437.5,404.5 Q463,426 463,480 Q463,533 437.5,554.5 Q412,576 365,576 L230,576 L230,383"/> 
            <glyph glyph-name="S" unicode="&#x53;" horiz-adv-x="590" d=" M317,-15 Q261,-15 211,0 Q161,15 123.5,45 Q86,75 64.5,120.5 Q43,166 43,227 L185,227 Q185,193 198.5,171 Q212,149 233,136.5 Q254,124 278.5,119.5 Q303,115 325,115 Q382,115 411,136.5 Q440,158 440,191 Q440,210 429.5,223 Q419,236 398.5,247 Q378,258 347.5,269 Q317,280 277,295 L248,306 Q215,319 181.5,334.5 Q148,350 121,373 Q94,396 77.5,427.5 Q61,459 61,504 Q61,552 79,590.5 Q97,629 130.5,657 Q164,685 212,700 Q260,715 320,715 Q377,715 425,702 Q473,689 508.5,660.5 Q544,632 564,587 Q584,542 584,479 L442,479 Q442,509 431.5,529.5 Q421,550 404,562 Q387,574 364.5,579.5 Q342,585 318,585 Q265,585 234.5,565.5 Q204,546 204,512 Q204,492 213,479.5 Q222,467 238,457.5 Q254,448 275.5,440.5 Q297,433 322,424 L350,414 Q397,397 440.5,379 Q484,361 517,337 Q550,313 570,279.5 Q590,246 590,198 Q590,152 573,113 Q556,74 521.5,45.5 Q487,17 436,1 Q385,-15 317,-15"/> 
            <glyph glyph-name="T" unicode="&#x54;" horiz-adv-x="553" d=" M215,576 L18,576 L18,700 L553,700 L553,576 L357,576 L357,0 L215,0"/> 
            <glyph glyph-name="U" unicode="&#x55;" horiz-adv-x="619" d=" M619,700 L619,230 Q619,172 600,126.5 Q581,81 546,49.5 Q511,18 461,1.5 Q411,-15 349,-15 Q287,-15 237,1.5 Q187,18 151.5,49.5 Q116,81 97,126.5 Q78,172 78,230 L78,700 L220,700 L220,224 Q220,203 227.5,183.5 Q235,164 250.5,148.5 Q266,133 290.5,124 Q315,115 349,115 Q382,115 406,124 Q430,133 445.5,148.5 Q461,164 468.5,183.5 Q476,203 476,224 L476,700"/> 
            <glyph glyph-name="V" unicode="&#x56;" horiz-adv-x="643" d=" M18,653 L18,700 L154,700 L333,190 L508,700 L643,700 L643,653 L401,0 L261,0"/> 
            <glyph glyph-name="W" unicode="&#x57;" horiz-adv-x="804" d=" M38,653 L38,700 L176,700 L273,227 L378,532 L467,532 L575,224 L669,700 L804,700 L804,653 L663,0 L531,0 L421,314 L311,0 L179,0"/> 
            <glyph glyph-name="X" unicode="&#x58;" horiz-adv-x="632" d=" M28,47 L242,364 L48,653 L48,700 L193,700 L330,475 L476,700 L612,700 L612,653 L416,365 L632,47 L632,0 L488,0 L327,250 L164,0 L28,0"/> 
            <glyph glyph-name="Y" unicode="&#x59;" horiz-adv-x="610" d=" M238,277 L8,653 L8,700 L148,700 L310,410 L479,700 L610,700 L610,653 L380,283 L380,0 L238,0"/> 
            <glyph glyph-name="Z" unicode="&#x5A;" horiz-adv-x="554" d=" M38,123 L380,576 L53,576 L53,700 L543,700 L543,578 L200,124 L554,124 L554,0 L38,0"/> 
            <glyph glyph-name="[" unicode="&#x5B;" horiz-adv-x="292" d=" M88,772 L292,772 L292,654 L215,654 L215,-42 L292,-42 L292,-160 L88,-160"/> 
            <glyph glyph-name="]" unicode="&#x5D;" horiz-adv-x="253" d=" M252,772 L48,772 L48,654 L125,654 L125,-42 L48,-42 L48,-160 L252,-160"/> 
            <glyph glyph-name="^" unicode="&#x5E;" horiz-adv-x="475" d=" M62,434 L213,705 L322,705 L475,434 L475,387 L364,387 L267,558 L173,387 L62,387"/> 
            <glyph glyph-name="_" unicode="&#x5F;" horiz-adv-x="569" d=" M-1,-30 L569,-30 L569,-138 L-1,-138"/> 
            <glyph glyph-name="a" unicode="&#x61;" horiz-adv-x="493" d=" M219,-12 Q184,-12 152,-2 Q120,8 96,27.5 Q72,47 57.5,76 Q43,105 43,144 Q43,225 95.5,269.5 Q148,314 255,314 L363,314 L363,347 Q363,381 343,399.5 Q323,418 279,418 Q234,418 214.5,401 Q195,384 195,358 L68,358 Q68,397 80.5,429.5 Q93,462 119.5,485.5 Q146,509 185.5,522.5 Q225,536 279,536 Q333,536 373,522.5 Q413,509 440,485 Q467,461 480,428 Q493,395 493,356 L493,0 L418,0 L380,51 Q351,25 314.5,6.5 Q278,-12 219,-12 M246,106 Q284,106 312,118.5 Q340,131 363,157 L363,215 L255,215 Q229,215 213,209.5 Q197,204 188,196 Q179,188 176,178.5 Q173,169 173,161 Q173,106 246,106"/> 
            <glyph glyph-name="b" unicode="&#x62;" horiz-adv-x="533" d=" M78,705 L208,705 L208,487 Q216,494 228.5,502.5 Q241,511 258.5,518.5 Q276,526 298,531 Q320,536 347,536 Q385,536 419,524.5 Q453,513 478.5,489 Q504,465 518.5,429 Q533,393 533,344 L533,180 Q533,131 518.5,95 Q504,59 478.5,35 Q453,11 419,-0.5 Q385,-12 347,-12 Q290,-12 254,7 Q218,26 191,52 L153,0 L78,0 M208,161 Q228,141 255,123.5 Q282,106 320,106 Q335,106 350,111.5 Q365,117 376.5,127.5 Q388,138 395.5,153.5 Q403,169 403,190 L403,334 Q403,355 395.5,370.5 Q388,386 376.5,396.5 Q365,407 350,412.5 Q335,418 320,418 Q282,418 255,400.5 Q228,383 208,363"/> 
            <glyph glyph-name="c" unicode="&#x63;" horiz-adv-x="492" d=" M277,-12 Q227,-12 186,1.5 Q145,15 116,40 Q87,65 71,101 Q55,137 55,182 L55,342 Q55,387 71,423 Q87,459 116,484 Q145,509 186,522.5 Q227,536 277,536 Q326,536 365.5,523 Q405,510 433,485 Q461,460 476.5,423.5 Q492,387 492,340 L492,334 L362,334 L362,340 Q362,375 340.5,396.5 Q319,418 277,418 Q229,418 207,397.5 Q185,377 185,344 L185,180 Q185,147 207,126.5 Q229,106 277,106 Q319,106 340.5,127 Q362,148 362,183 L362,193 L492,193 L492,186 Q492,140 476,103 Q460,66 431.5,40.5 Q403,15 363.5,1.5 Q324,-12 277,-12"/> 
            <glyph glyph-name="d" unicode="&#x64;" horiz-adv-x="518" d=" M518,0 L443,0 L405,52 Q378,26 342,7 Q306,-12 249,-12 Q211,-12 177,-0.5 Q143,11 117.5,35 Q92,59 77.5,95 Q63,131 63,180 L63,344 Q63,393 77.5,429 Q92,465 117.5,489 Q143,513 177,524.5 Q211,536 249,536 Q276,536 298,531 Q320,526 337.5,518.5 Q355,511 367.5,502.5 Q380,494 388,487 L388,705 L518,705 M388,363 Q368,383 341,400.5 Q314,418 276,418 Q261,418 246,412.5 Q231,407 219.5,396.5 Q208,386 200.5,370.5 Q193,355 193,334 L193,190 Q193,169 200.5,153.5 Q208,138 219.5,127.5 Q231,117 246,111.5 Q261,106 276,106 Q314,106 341,123.5 Q368,141 388,161"/> 
            <glyph glyph-name="e" unicode="&#x65;" horiz-adv-x="501" d=" M283,-12 Q232,-12 190,0.5 Q148,13 118,37.5 Q88,62 71.5,98 Q55,134 55,180 L55,342 Q55,387 71.5,423 Q88,459 118,484 Q148,509 190,522.5 Q232,536 283,536 Q331,536 371.5,523.5 Q412,511 440.5,486.5 Q469,462 485,426 Q501,390 501,344 L501,219 L185,219 L185,182 Q185,149 208.5,127.5 Q232,106 283,106 Q321,106 342,120 Q363,134 370,159 L500,159 Q492,78 436,33 Q380,-12 283,-12 M371,318 L371,344 Q371,378 347,398 Q323,418 278,418 Q231,418 208,397.5 Q185,377 185,344 L185,318"/> 
            <glyph glyph-name="f" unicode="&#x66;" horiz-adv-x="334" d=" M90,411 L13,411 L13,524 L90,524 Q90,559 101,592 Q112,625 136.5,650.5 Q161,676 200,691.5 Q239,707 296,707 Q304,707 314.5,706.5 Q325,706 334,705 L334,589 L313,589 Q265,589 244,574.5 Q223,560 220,524 L326,524 L326,411 L220,411 L220,0 L90,0"/> 
            <glyph glyph-name="g" unicode="&#x67;" horiz-adv-x="518" d=" M518,32 Q518,-19 501.5,-57.5 Q485,-96 455.5,-121.5 Q426,-147 384.5,-159.5 Q343,-172 294,-172 Q194,-172 135,-127 Q76,-82 76,-1 L76,3 L206,3 L206,0 Q206,-9 210.5,-18.5 Q215,-28 225,-36 Q235,-44 251.5,-49 Q268,-54 293,-54 Q344,-54 366,-30 Q388,-6 388,32 L388,92 Q380,85 367.5,76.5 Q355,68 337.5,60.5 Q320,53 298,48 Q276,43 249,43 Q211,43 177,54.5 Q143,66 117.5,90 Q92,114 77.5,150 Q63,186 63,235 L63,344 Q63,393 77.5,429 Q92,465 117.5,489 Q143,513 177,524.5 Q211,536 249,536 Q306,536 342,517 Q378,498 405,472 L443,524 L518,524 M388,363 Q368,383 341,400.5 Q314,418 276,418 Q261,418 246,412.5 Q231,407 219.5,396.5 Q208,386 200.5,370.5 Q193,355 193,334 L193,245 Q193,224 200.5,208.5 Q208,193 219.5,182.5 Q231,172 246,166.5 Q261,161 276,161 Q314,161 341,178.5 Q368,196 388,216"/> 
            <glyph glyph-name="h" unicode="&#x68;" horiz-adv-x="528" d=" M78,705 L208,705 L208,487 Q232,507 265.5,521.5 Q299,536 346,536 Q431,536 479.5,482.5 Q528,429 528,333 L528,0 L398,0 L398,325 Q398,373 374.5,395.5 Q351,418 317,418 Q298,418 281,412 Q264,406 249.5,397.5 Q235,389 224.5,379.5 Q214,370 208,363 L208,0 L78,0"/> 
            <glyph glyph-name="i" unicode="&#x69;" horiz-adv-x="208" d=" M78,524 L208,524 L208,0 L78,0 M78,705 L208,705 L208,595 L78,595"/> 
            <glyph glyph-name="j" unicode="&#x6A;" horiz-adv-x="209" d=" M209,524 L209,20 Q209,-13 200,-47 Q191,-81 170,-109 Q149,-137 114.5,-154.5 Q80,-172 30,-172 Q21,-172 12.5,-172 Q4,-172 -7,-170 L-7,-54 L15,-54 Q28,-54 39.5,-50.5 Q51,-47 60,-38.5 Q69,-30 74,-15.5 Q79,-1 79,22 L79,524 M79,705 L209,705 L209,595 L79,595"/> 
            <glyph glyph-name="k" unicode="&#x6B;" horiz-adv-x="515" d=" M78,705 L208,705 L208,325 L263,325 L390,524 L502,524 L502,463 L380,272 L515,61 L515,0 L399,0 L263,212 L208,212 L208,0 L78,0"/> 
            <glyph glyph-name="l" unicode="&#x6C;" horiz-adv-x="208" d=" M78,705 L208,705 L208,0 L78,0"/> 
            <glyph glyph-name="m" unicode="&#x6D;" horiz-adv-x="806" d=" M507,0 L377,0 L377,335 Q377,378 356,398 Q335,418 305,418 Q271,418 247.5,400 Q224,382 208,360 L208,0 L78,0 L78,524 L153,524 L191,472 Q214,496 249.5,516 Q285,536 336,536 Q385,536 421.5,516.5 Q458,497 479,461 Q504,489 542,512.5 Q580,536 635,536 Q678,536 710,522 Q742,508 763.5,482.5 Q785,457 795.5,422 Q806,387 806,346 L806,0 L676,0 L676,335 Q676,378 655,398 Q634,418 604,418 Q570,418 546.5,400 Q523,382 507,360"/> 
            <glyph glyph-name="n" unicode="&#x6E;" horiz-adv-x="528" d=" M78,524 L153,524 L191,472 Q216,496 253.5,516 Q291,536 346,536 Q431,536 479.5,482.5 Q528,429 528,333 L528,0 L398,0 L398,325 Q398,373 374.5,395.5 Q351,418 317,418 Q298,418 281,412 Q264,406 249.5,397.5 Q235,389 224.5,379.5 Q214,370 208,363 L208,0 L78,0"/> 
            <glyph glyph-name="o" unicode="&#x6F;" horiz-adv-x="510" d=" M283,106 Q332,106 356,130 Q380,154 380,188 L380,336 Q380,370 356,394 Q332,418 283,418 Q232,418 208.5,393.5 Q185,369 185,336 L185,188 Q185,155 208.5,130.5 Q232,106 283,106 M283,-12 Q226,-12 183,3 Q140,18 111.5,44 Q83,70 69,105.5 Q55,141 55,182 L55,342 Q55,383 69,418.5 Q83,454 111.5,480 Q140,506 183,521 Q226,536 283,536 Q340,536 382.5,521 Q425,506 453.5,480 Q482,454 496,418.5 Q510,383 510,342 L510,182 Q510,141 496,105.5 Q482,70 453.5,44 Q425,18 382.5,3 Q340,-12 283,-12"/> 
            <glyph glyph-name="p" unicode="&#x70;" horiz-adv-x="533" d=" M78,524 L153,524 L191,472 Q218,498 254,517 Q290,536 347,536 Q385,536 419,524.5 Q453,513 478.5,489 Q504,465 518.5,429 Q533,393 533,344 L533,180 Q533,131 518.5,95 Q504,59 478.5,35 Q453,11 419,-0.5 Q385,-12 347,-12 Q320,-12 298,-7 Q276,-2 258.5,5.5 Q241,13 228.5,21.5 Q216,30 208,37 L208,-160 L78,-160 M208,161 Q228,141 255,123.5 Q282,106 320,106 Q335,106 350,111.5 Q365,117 376.5,127.5 Q388,138 395.5,153.5 Q403,169 403,190 L403,334 Q403,355 395.5,370.5 Q388,386 376.5,396.5 Q365,407 350,412.5 Q335,418 320,418 Q282,418 255,400.5 Q228,383 208,363"/> 
            <glyph glyph-name="q" unicode="&#x71;" horiz-adv-x="518" d=" M518,-160 L388,-160 L388,37 Q380,30 367.5,21.5 Q355,13 337.5,5.5 Q320,-2 298,-7 Q276,-12 249,-12 Q211,-12 177,-0.5 Q143,11 117.5,35 Q92,59 77.5,95 Q63,131 63,180 L63,344 Q63,393 77.5,429 Q92,465 117.5,489 Q143,513 177,524.5 Q211,536 249,536 Q306,536 342,517 Q378,498 405,472 L443,524 L518,524 M388,363 Q368,383 341,400.5 Q314,418 276,418 Q261,418 246,412.5 Q231,407 219.5,396.5 Q208,386 200.5,370.5 Q193,355 193,334 L193,190 Q193,169 200.5,153.5 Q208,138 219.5,127.5 Q231,117 246,111.5 Q261,106 276,106 Q314,106 341,123.5 Q368,141 388,161"/> 
            <glyph glyph-name="r" unicode="&#x72;" horiz-adv-x="354" d=" M78,524 L153,524 L191,472 Q210,494 242.5,515 Q275,536 327,536 L354,536 L354,411 L327,411 Q285,411 257.5,400 Q230,389 208,363 L208,0 L78,0"/> 
            <glyph glyph-name="s" unicode="&#x73;" horiz-adv-x="503" d=" M284,-12 Q232,-12 189.5,1.5 Q147,15 116,40 Q85,65 67.5,100.5 Q50,136 49,180 L178,180 Q183,145 215,125.5 Q247,106 300,106 Q335,106 356,118 Q377,130 377,150 Q377,178 342,186 L197,223 Q172,229 147.5,239.5 Q123,250 103.5,266.5 Q84,283 72,308 Q60,333 60,368 Q60,446 116,491 Q172,536 273,536 Q374,536 432.5,489.5 Q491,443 494,356 L364,356 Q362,387 335.5,402.5 Q309,418 263,418 Q220,418 203,405 Q186,392 186,376 Q186,361 197.5,352.5 Q209,344 231,339 L380,302 Q406,296 428.5,285 Q451,274 467.5,257 Q484,240 493.5,216.5 Q503,193 503,160 Q503,120 487.5,88 Q472,56 443,34 Q414,12 373.5,0 Q333,-12 284,-12"/> 
            <glyph glyph-name="t" unicode="&#x74;" horiz-adv-x="344" d=" M287,0 Q229,0 191.5,17 Q154,34 132.5,62 Q111,90 103,125.5 Q95,161 95,199 L95,411 L18,411 L18,524 L95,524 L95,633 L225,633 L225,524 L344,524 L344,411 L225,411 L225,199 Q225,148 245.5,130.5 Q266,113 301,113 L344,113 L344,0 L287,0"/> 
            <glyph glyph-name="u" unicode="&#x75;" horiz-adv-x="519" d=" M519,0 L444,0 L406,51 Q381,28 344,8 Q307,-12 253,-12 Q168,-12 120.5,41 Q73,94 73,189 L73,524 L203,524 L203,197 Q203,149 226,127.5 Q249,106 282,106 Q301,106 317.5,112 Q334,118 348,126.5 Q362,135 372.5,144 Q383,153 389,160 L389,524 L519,524"/> 
            <glyph glyph-name="v" unicode="&#x76;" horiz-adv-x="496" d=" M18,463 L18,524 L139,524 L262,178 L378,524 L496,524 L496,463 L316,0 L198,0"/> 
            <glyph glyph-name="w" unicode="&#x77;" horiz-adv-x="681" d=" M43,463 L43,524 L161,524 L235,178 L319,432 L406,432 L491,178 L564,524 L681,524 L681,463 L571,0 L449,0 L363,228 L277,0 L152,0"/> 
            <glyph glyph-name="x" unicode="&#x78;" horiz-adv-x="492" d=" M38,61 L183,262 L40,463 L40,524 L157,524 L264,361 L373,524 L483,524 L483,463 L344,267 L492,61 L492,0 L376,0 L262,174 L149,0 L38,0"/> 
            <glyph glyph-name="y" unicode="&#x79;" horiz-adv-x="497" d=" M149,-113 L198,0 L18,463 L18,524 L138,524 L262,177 L379,524 L497,524 L497,463 L255,-160 L149,-160"/> 
            <glyph glyph-name="z" unicode="&#x7A;" horiz-adv-x="474" d=" M48,113 L304,411 L55,411 L55,524 L460,524 L460,411 L201,113 L474,113 L474,0 L48,0"/> 
            <glyph glyph-name="{" unicode="&#x7B;" horiz-adv-x="295" d=" M295,-160 Q207,-160 158,-112.5 Q109,-65 109,32 L109,174 Q109,216 95.5,234.5 Q82,253 53,253 L28,253 L28,371 L53,371 Q83,371 96,391.5 Q109,412 109,450 L109,579 Q109,676 158,724 Q207,772 295,772 L295,654 Q265,654 250.5,631 Q236,608 236,579 L236,415 Q236,392 229.5,375.5 Q223,359 213.5,346.5 Q204,334 193,325.5 Q182,317 172,312 Q182,307 193,298.5 Q204,290 213.5,277.5 Q223,265 229.5,248 Q236,231 236,209 L236,33 Q236,4 250.5,-19 Q265,-42 295,-42 L295,-160"/> 
            <glyph glyph-name="|" unicode="&#x7C;" horiz-adv-x="215" d=" M88,772 L215,772 L215,-100 L88,-100"/> 
            <glyph glyph-name="}" unicode="&#x7D;" horiz-adv-x="316" d=" M48,-160 Q136,-160 185,-112.5 Q234,-65 234,32 L234,174 Q234,216 247.5,234.5 Q261,253 290,253 L315,253 L315,371 L290,371 Q260,371 247,391.5 Q234,412 234,450 L234,579 Q234,676 185,724 Q136,772 48,772 L48,654 Q78,654 92.5,631 Q107,608 107,579 L107,415 Q107,392 113.5,375.5 Q120,359 129.5,346.5 Q139,334 150,325.5 Q161,317 171,312 Q161,307 150,298.5 Q139,290 129.5,277.5 Q120,265 113.5,248 Q107,231 107,209 L107,33 Q107,4 92.5,-19 Q78,-42 48,-42 L48,-160"/> 
            <glyph glyph-name="«" unicode="&#xAB;" horiz-adv-x="489" d=" M249,314 L377,524 L489,524 L489,487 L385,314 L489,140 L489,103 L377,103 M36,314 L164,524 L276,524 L276,487 L172,314 L276,140 L276,103 L164,103"/> 
            <glyph glyph-name="»" unicode="&#xBB;" horiz-adv-x="514" d=" M513,314 L385,524 L273,524 L273,487 L377,314 L273,140 L273,103 L385,103 M300,314 L172,524 L60,524 L60,487 L164,314 L60,140 L60,103 L172,103"/> 
            <glyph glyph-name="Ё" unicode="&#x401;" horiz-adv-x="546" d=" M138,886 L277,886 L277,768 L138,768 M355,886 L494,886 L494,768 L355,768 M88,700 L544,700 L544,576 L230,576 L230,410 L498,410 L498,292 L230,292 L230,124 L546,124 L546,0 L88,0"/> 
            <glyph glyph-name="А" unicode="&#x410;" horiz-adv-x="642" d=" M18,47 L260,700 L399,700 L642,47 L642,0 L502,0 L446,164 L207,164 L149,0 L18,0 M403,282 L327,510 L249,282"/> 
            <glyph glyph-name="Б" unicode="&#x411;" horiz-adv-x="620" d=" M88,700 L577,700 L577,576 L230,576 L230,436 L420,436 Q515,436 567.5,377 Q620,318 620,218 Q620,118 567.5,59 Q515,0 420,0 L88,0 M395,124 Q410,124 424.5,129.5 Q439,135 450.5,146.5 Q462,158 469,175.5 Q476,193 476,218 Q476,267 450.5,289.5 Q425,312 395,312 L230,312 L230,124"/> 
            <glyph glyph-name="В" unicode="&#x412;" horiz-adv-x="619" d=" M88,700 L384,700 Q480,700 535.5,652 Q591,604 591,507 Q591,406 513,363 Q535,354 554,340.5 Q573,327 587.5,307 Q602,287 610.5,260 Q619,233 619,197 Q619,98 563.5,49 Q508,0 412,0 L88,0 M376,409 Q404,409 426,428.5 Q448,448 448,493 Q448,537 426,556.5 Q404,576 376,576 L230,576 L230,409 M405,124 Q433,124 455,143.5 Q477,163 477,208 Q477,252 455,271.5 Q433,291 405,291 L230,291 L230,124"/> 
            <glyph glyph-name="Г" unicode="&#x413;" horiz-adv-x="528" d=" M88,700 L528,700 L528,576 L230,576 L230,0 L88,0"/> 
            <glyph glyph-name="Д" unicode="&#x414;" horiz-adv-x="688" d=" M23,124 L78,124 Q91,142 104,163.5 Q117,185 127.5,215 Q138,245 144,286.5 Q150,328 150,385 L150,700 L609,700 L609,124 L688,124 L688,-138 L558,-138 L558,0 L153,0 L153,-138 L23,-138 M467,124 L467,576 L280,576 L280,385 Q280,329 275.5,289 Q271,249 264,219 Q257,189 248,166.5 Q239,144 230,124"/> 
            <glyph glyph-name="Е" unicode="&#x415;" horiz-adv-x="546" d=" M88,700 L544,700 L544,576 L230,576 L230,410 L498,410 L498,292 L230,292 L230,124 L546,124 L546,0 L88,0"/> 
            <glyph glyph-name="Ж" unicode="&#x416;" horiz-adv-x="919" d=" M403,288 L318,288 L172,0 L29,0 L29,47 L197,360 L43,653 L43,700 L173,700 L321,412 L403,412 L403,700 L545,700 L545,412 L627,412 L775,700 L905,700 L905,653 L751,360 L919,47 L919,0 L776,0 L630,288 L545,288 L545,0 L403,0"/> 
            <glyph glyph-name="З" unicode="&#x417;" horiz-adv-x="582" d=" M325,-15 Q270,-15 220,-1 Q170,13 131.5,42.5 Q93,72 70.5,118.5 Q48,165 48,230 L190,230 Q190,198 201,176 Q212,154 231,140.5 Q250,127 274,121 Q298,115 325,115 Q379,115 409,136.5 Q439,158 439,203 Q439,248 409.5,269 Q380,290 328,290 L238,290 L238,408 L328,408 Q374,408 399,429.5 Q424,451 424,492 Q424,531 398,558 Q372,585 321,585 Q299,585 278.5,579 Q258,573 242.5,559.5 Q227,546 217.5,524 Q208,502 208,470 L66,470 Q66,535 86.5,581.5 Q107,628 142.5,657.5 Q178,687 224,701 Q270,715 321,715 Q381,715 427,699.5 Q473,684 504.5,656.5 Q536,629 552,591 Q568,553 568,507 Q568,453 542.5,415.5 Q517,378 481,354 Q523,335 552.5,299 Q582,263 582,203 Q582,154 565,113.5 Q548,73 515,44.5 Q482,16 434,0.5 Q386,-15 325,-15"/> 
            <glyph glyph-name="И" unicode="&#x418;" horiz-adv-x="633" d=" M88,700 L230,700 L230,254 L503,700 L633,700 L633,0 L491,0 L491,446 L218,0 L88,0"/> 
            <glyph glyph-name="Й" unicode="&#x419;" horiz-adv-x="633" d=" M362,742 Q289,742 243,775.5 Q197,809 197,875 L197,888 L308,888 L308,876 Q308,857 320.5,844.5 Q333,832 362,832 Q391,832 403.5,844.5 Q416,857 416,876 L416,888 L526,888 L526,875 Q526,809 480.5,775.5 Q435,742 362,742 M88,700 L230,700 L230,254 L503,700 L633,700 L633,0 L491,0 L491,446 L218,0 L88,0"/> 
            <glyph glyph-name="К" unicode="&#x41A;" horiz-adv-x="620" d=" M88,700 L230,700 L230,412 L304,412 L473,700 L605,700 L605,653 L428,358 L620,47 L620,0 L479,0 L304,288 L230,288 L230,0 L88,0"/> 
            <glyph glyph-name="Л" unicode="&#x41B;" horiz-adv-x="601" d=" M20,130 Q57,130 81.5,139.5 Q106,149 120,175 Q134,201 140,247 Q146,293 146,366 L146,700 L601,700 L601,0 L459,0 L459,576 L276,576 L276,342 Q276,247 260.5,182 Q245,117 213,76.5 Q181,36 133,18 Q85,0 20,0"/> 
            <glyph glyph-name="М" unicode="&#x41C;" horiz-adv-x="726" d=" M363,218 L225,448 L225,0 L88,0 L88,700 L225,700 L409,391 L593,700 L726,700 L726,0 L589,0 L589,448 L451,218"/> 
            <glyph glyph-name="Н" unicode="&#x41D;" horiz-adv-x="628" d=" M88,700 L230,700 L230,412 L486,412 L486,700 L628,700 L628,0 L486,0 L486,288 L230,288 L230,0 L88,0"/> 
            <glyph glyph-name="О" unicode="&#x41E;" horiz-adv-x="626" d=" M347,115 Q383,115 408.5,124.5 Q434,134 451,150.5 Q468,167 476,187.5 Q484,208 484,231 L484,469 Q484,491 476,512 Q468,533 451,549.5 Q434,566 408.5,575.5 Q383,585 347,585 Q311,585 285.5,575.5 Q260,566 243,549.5 Q226,533 218,512 Q210,491 210,469 L210,231 Q210,208 218,187.5 Q226,167 243,150.5 Q260,134 285.5,124.5 Q311,115 347,115 M347,-15 Q283,-15 231.5,2 Q180,19 143.5,51.5 Q107,84 87.5,131 Q68,178 68,238 L68,462 Q68,522 87.5,569 Q107,616 143.5,648.5 Q180,681 231.5,698 Q283,715 347,715 Q411,715 462.5,698 Q514,681 550.5,648.5 Q587,616 606.5,569 Q626,522 626,462 L626,238 Q626,178 606.5,131 Q587,84 550.5,51.5 Q514,19 462.5,2 Q411,-15 347,-15"/> 
            <glyph glyph-name="П" unicode="&#x41F;" horiz-adv-x="622" d=" M88,700 L622,700 L622,0 L480,0 L480,576 L230,576 L230,0 L88,0"/> 
            <glyph glyph-name="Р" unicode="&#x420;" horiz-adv-x="602" d=" M88,700 L401,700 Q496,700 549,640.5 Q602,581 602,479 Q602,378 549,318.5 Q496,259 401,259 L230,259 L230,0 L88,0 M375,383 Q407,383 432.5,406 Q458,429 458,480 Q458,505 451,523 Q444,541 432.5,553 Q421,565 406,570.5 Q391,576 375,576 L230,576 L230,383"/> 
            <glyph glyph-name="С" unicode="&#x421;" horiz-adv-x="603" d=" M343,-15 Q209,-15 138.5,51 Q68,117 68,237 L68,463 Q68,583 138.5,649 Q209,715 343,715 Q395,715 442,701 Q489,687 525,657.5 Q561,628 582,581.5 Q603,535 603,470 L603,460 L461,460 L461,470 Q461,501 450.5,523 Q440,545 422,558.5 Q404,572 381,578.5 Q358,585 334,585 Q271,585 240.5,555 Q210,525 210,473 L210,227 Q210,175 240.5,145 Q271,115 334,115 Q358,115 381,121 Q404,127 422,140.5 Q440,154 450.5,176 Q461,198 461,230 L461,240 L603,240 L603,230 Q603,165 582,118.5 Q561,72 525,42.5 Q489,13 442,-1 Q395,-15 343,-15"/> 
            <glyph glyph-name="Т" unicode="&#x422;" horiz-adv-x="553" d=" M215,576 L18,576 L18,700 L553,700 L553,576 L357,576 L357,0 L215,0"/> 
            <glyph glyph-name="У" unicode="&#x423;" horiz-adv-x="589" d=" M241,206 L8,653 L8,700 L139,700 L313,358 L465,700 L589,700 L589,653 L298,0 L162,0 L162,47"/> 
            <glyph glyph-name="Ф" unicode="&#x424;" horiz-adv-x="837" d=" M371,77 L332,77 Q276,77 225,93 Q174,109 134.5,140.5 Q95,172 71.5,218.5 Q48,265 48,326 L48,398 Q48,459 71.5,505.5 Q95,552 134.5,583.5 Q174,615 225,631 Q276,647 332,647 L371,647 L371,724 L513,724 L513,647 L553,647 Q608,647 659.5,631 Q711,615 750.5,583.5 Q790,552 813.5,505.5 Q837,459 837,398 L837,326 Q837,265 813.5,218.5 Q790,172 750.5,140.5 Q711,109 659.5,93 Q608,77 553,77 L513,77 L513,-12 L371,-12 M371,201 L371,523 L326,523 Q294,523 269,512.5 Q244,502 226.5,484.5 Q209,467 199.5,444 Q190,421 190,396 L190,329 Q190,304 199.5,281 Q209,258 226.5,240 Q244,222 269,211.5 Q294,201 326,201 M559,201 Q590,201 615.5,211.5 Q641,222 658.5,240 Q676,258 685.5,281 Q695,304 695,329 L695,396 Q695,421 685.5,444 Q676,467 658.5,484.5 Q641,502 615.5,512.5 Q590,523 559,523 L513,523 L513,201"/> 
            <glyph glyph-name="Х" unicode="&#x425;" horiz-adv-x="632" d=" M28,47 L242,364 L48,653 L48,700 L193,700 L330,475 L476,700 L612,700 L612,653 L416,365 L632,47 L632,0 L488,0 L327,250 L164,0 L28,0"/> 
            <glyph glyph-name="Ц" unicode="&#x426;" horiz-adv-x="695" d=" M565,0 L88,0 L88,700 L230,700 L230,124 L474,124 L474,700 L616,700 L616,124 L695,124 L695,-138 L565,-138"/> 
            <glyph glyph-name="Ч" unicode="&#x427;" horiz-adv-x="575" d=" M433,254 Q405,249 376.5,246 Q348,243 318,243 Q270,243 223.5,251.5 Q177,260 140.5,283.5 Q104,307 81,348 Q58,389 58,454 L58,700 L200,700 L200,470 Q200,423 230,398 Q260,373 329,373 Q361,373 384,375.5 Q407,378 433,384 L433,700 L575,700 L575,0 L433,0"/> 
            <glyph glyph-name="Ш" unicode="&#x428;" horiz-adv-x="917" d=" M88,700 L230,700 L230,124 L432,124 L432,700 L574,700 L574,124 L775,124 L775,700 L917,700 L917,0 L88,0"/> 
            <glyph glyph-name="Щ" unicode="&#x429;" horiz-adv-x="996" d=" M866,0 L88,0 L88,700 L230,700 L230,124 L432,124 L432,700 L574,700 L574,124 L775,124 L775,700 L917,700 L917,124 L996,124 L996,-138 L866,-138"/> 
            <glyph glyph-name="Ъ" unicode="&#x42A;" horiz-adv-x="672" d=" M163,576 L8,576 L8,700 L305,700 L305,436 L473,436 Q567,436 619.5,377 Q672,318 672,218 Q672,118 619.5,59 Q567,0 473,0 L163,0 M447,124 Q462,124 477,129.5 Q492,135 503,146.5 Q514,158 521,175.5 Q528,193 528,218 Q528,267 503,289.5 Q478,312 447,312 L305,312 L305,124"/> 
            <glyph glyph-name="Ы" unicode="&#x42B;" horiz-adv-x="812" d=" M670,700 L812,700 L812,0 L670,0 M88,700 L230,700 L230,436 L398,436 Q492,436 544.5,377 Q597,318 597,218 Q597,118 544.5,59 Q492,0 398,0 L88,0 M372,124 Q387,124 402,129.5 Q417,135 428,146.5 Q439,158 446,175.5 Q453,193 453,218 Q453,267 428,289.5 Q403,312 372,312 L230,312 L230,124"/> 
            <glyph glyph-name="Ь" unicode="&#x42C;" horiz-adv-x="597" d=" M88,700 L230,700 L230,436 L398,436 Q492,436 544.5,377 Q597,318 597,218 Q597,118 544.5,59 Q492,0 398,0 L88,0 M372,124 Q387,124 402,129.5 Q417,135 428,146.5 Q439,158 446,175.5 Q453,193 453,218 Q453,267 428,289.5 Q403,312 372,312 L230,312 L230,124"/> 
            <glyph glyph-name="Э" unicode="&#x42D;" horiz-adv-x="594" d=" M313,-15 Q266,-15 220.5,-1.5 Q175,12 139,41.5 Q103,71 81,117 Q59,163 59,228 L189,228 Q190,197 201.5,175.5 Q213,154 231.5,140.5 Q250,127 273.5,121 Q297,115 322,115 Q388,115 420,146.5 Q452,178 452,232 L452,291 L230,291 L230,409 L452,409 L452,468 Q452,522 420,553.5 Q388,585 322,585 Q269,585 230,557.5 Q191,530 189,472 L59,472 Q59,537 81,583 Q103,629 139,658.5 Q175,688 220.5,701.5 Q266,715 313,715 Q447,715 520.5,649 Q594,583 594,463 L594,237 Q594,117 520.5,51 Q447,-15 313,-15"/> 
            <glyph glyph-name="Ю" unicode="&#x42E;" horiz-adv-x="882" d=" M88,700 L230,700 L230,412 L344,412 L344,471 Q344,529 363,574 Q382,619 417,650.5 Q452,682 501.5,698.5 Q551,715 613,715 Q675,715 724.5,698.5 Q774,682 809,650.5 Q844,619 863,574 Q882,529 882,471 L882,229 Q882,171 863,126 Q844,81 809,49.5 Q774,18 724.5,1.5 Q675,-15 613,-15 Q551,-15 501.5,1.5 Q452,18 417,49.5 Q382,81 363,126 Q344,171 344,229 L344,288 L230,288 L230,0 L88,0 M613,115 Q646,115 670,124 Q694,133 709.5,148 Q725,163 732.5,182.5 Q740,202 740,223 L740,477 Q740,498 732.5,517.5 Q725,537 709.5,552 Q694,567 670,576 Q646,585 613,585 Q580,585 556,576 Q532,567 516.5,552 Q501,537 493.5,517.5 Q486,498 486,477 L486,223 Q486,202 493.5,182.5 Q501,163 516.5,148 Q532,133 556,124 Q580,115 613,115"/> 
            <glyph glyph-name="Я" unicode="&#x42F;" horiz-adv-x="564" d=" M39,47 L171,269 Q117,295 85.5,347 Q54,399 54,471 Q54,577 109,638.5 Q164,700 272,700 L564,700 L564,0 L422,0 L422,250 L309,250 L171,0 L39,0 M422,370 L422,576 L303,576 Q253,576 226,553 Q199,530 199,474 Q199,417 228.5,393.5 Q258,370 308,370"/> 
            <glyph glyph-name="а" unicode="&#x430;" horiz-adv-x="493" d=" M219,-12 Q184,-12 152,-2 Q120,8 96,27.5 Q72,47 57.5,76 Q43,105 43,144 Q43,225 95.5,269.5 Q148,314 255,314 L363,314 L363,347 Q363,381 343,399.5 Q323,418 279,418 Q234,418 214.5,401 Q195,384 195,358 L68,358 Q68,397 80.5,429.5 Q93,462 119.5,485.5 Q146,509 185.5,522.5 Q225,536 279,536 Q333,536 373,522.5 Q413,509 440,485 Q467,461 480,428 Q493,395 493,356 L493,0 L418,0 L380,51 Q351,25 314.5,6.5 Q278,-12 219,-12 M246,106 Q284,106 312,118.5 Q340,131 363,157 L363,215 L255,215 Q229,215 213,209.5 Q197,204 188,196 Q179,188 176,178.5 Q173,169 173,161 Q173,106 246,106"/> 
            <glyph glyph-name="б" unicode="&#x431;" horiz-adv-x="518" d=" M291,-12 Q240,-12 198,0.5 Q156,13 126,37.5 Q96,62 79.5,98 Q63,134 63,180 L63,363 Q63,471 96.5,535 Q130,599 210,622 L337,660 Q360,668 363.5,681.5 Q367,695 367,700 L367,705 L497,705 L497,700 Q497,658 487.5,632 Q478,606 460,589.5 Q442,573 416.5,563 Q391,553 359,544 L266,518 Q225,507 203.5,483.5 Q182,460 182,407 L182,392 Q191,405 204.5,418.5 Q218,432 237,443 Q256,454 279.5,461 Q303,468 331,468 Q369,468 403,457 Q437,446 462.5,423 Q488,400 503,363.5 Q518,327 518,276 L518,182 Q518,137 501.5,101 Q485,65 455,40 Q425,15 383.5,1.5 Q342,-12 291,-12 M291,106 Q340,106 364,130 Q388,154 388,188 L388,267 Q388,308 361,329 Q334,350 296,350 Q261,350 236,335 Q211,320 193,299 L193,188 Q193,155 216.5,130.5 Q240,106 291,106"/> 
            <glyph glyph-name="в" unicode="&#x432;" horiz-adv-x="526" d=" M78,524 L320,524 Q403,524 452.5,491.5 Q502,459 502,384 Q502,345 488,317 Q474,289 450,270 Q487,253 506.5,225 Q526,197 526,154 Q526,107 512,77.5 Q498,48 472,30.5 Q446,13 409.5,6.5 Q373,0 328,0 L78,0 M315,312 Q342,312 353.5,326.5 Q365,341 365,361 Q365,384 353.5,397.5 Q342,411 315,411 L208,411 L208,312 M336,113 Q364,113 375.5,128 Q387,143 387,163 Q387,186 375.5,199.5 Q364,213 336,213 L208,213 L208,113"/> 
            <glyph glyph-name="г" unicode="&#x433;" horiz-adv-x="436" d=" M78,524 L436,524 L436,411 L208,411 L208,0 L78,0"/> 
            <glyph glyph-name="д" unicode="&#x434;" horiz-adv-x="609" d=" M26,113 L75,113 Q103,138 114,186 Q125,234 125,294 L125,524 L533,524 L533,113 L609,113 L609,-124 L482,-124 L482,0 L154,0 L154,-124 L26,-124 M403,113 L403,411 L248,411 L248,273 Q248,255 246,234.5 Q244,214 240,192.5 Q236,171 230,150.5 Q224,130 216,113"/> 
            <glyph glyph-name="е" unicode="&#x435;" horiz-adv-x="501" d=" M283,-12 Q232,-12 190,0.5 Q148,13 118,37.5 Q88,62 71.5,98 Q55,134 55,180 L55,342 Q55,387 71.5,423 Q88,459 118,484 Q148,509 190,522.5 Q232,536 283,536 Q331,536 371.5,523.5 Q412,511 440.5,486.5 Q469,462 485,426 Q501,390 501,344 L501,219 L185,219 L185,182 Q185,149 208.5,127.5 Q232,106 283,106 Q321,106 342,120 Q363,134 370,159 L500,159 Q492,78 436,33 Q380,-12 283,-12 M371,318 L371,344 Q371,378 347,398 Q323,418 278,418 Q231,418 208,397.5 Q185,377 185,344 L185,318"/> 
            <glyph glyph-name="ж" unicode="&#x436;" horiz-adv-x="758" d=" M38,61 L169,266 L46,463 L46,524 L153,524 L281,318 L333,318 L333,524 L463,524 L463,318 L516,318 L643,524 L750,524 L750,463 L627,266 L758,61 L758,0 L643,0 L519,205 L463,205 L463,0 L333,0 L333,205 L278,205 L154,0 L38,0"/> 
            <glyph glyph-name="з" unicode="&#x437;" horiz-adv-x="497" d=" M280,-12 Q225,-12 182,2.5 Q139,17 109.5,44 Q80,71 64,108.5 Q48,146 48,193 L174,193 Q174,155 196,130.5 Q218,106 276,106 Q316,106 337.5,121.5 Q359,137 359,163 Q359,186 344.5,199.5 Q330,213 302,213 L223,213 L223,317 L301,317 Q326,317 338,331 Q350,345 350,365 Q350,391 330,404.5 Q310,418 275,418 Q249,418 231.5,411.5 Q214,405 203.5,394 Q193,383 189,367.5 Q185,352 185,334 L58,334 Q59,430 114,483 Q169,536 279,536 Q326,536 364.5,525 Q403,514 430.5,493.5 Q458,473 473,444 Q488,415 488,378 Q488,342 472.5,315 Q457,288 433,271 Q497,235 497,159 Q497,76 441,32 Q385,-12 280,-12"/> 
            <glyph glyph-name="и" unicode="&#x438;" horiz-adv-x="539" d=" M78,524 L208,524 L208,201 L409,524 L539,524 L539,0 L409,0 L409,323 L208,0 L78,0"/> 
            <glyph glyph-name="й" unicode="&#x439;" horiz-adv-x="539" d=" M308,571 Q235,571 189.5,606.5 Q144,642 144,708 L144,720 L255,720 L255,709 Q255,689 267,677 Q279,665 308,665 Q338,665 350.5,677 Q363,689 363,709 L363,720 L472,720 L472,708 Q472,642 426.5,606.5 Q381,571 308,571 M78,524 L208,524 L208,201 L409,524 L539,524 L539,0 L409,0 L409,323 L208,0 L78,0"/> 
            <glyph glyph-name="к" unicode="&#x43A;" horiz-adv-x="523" d=" M78,524 L208,524 L208,318 L263,318 L405,524 L516,524 L516,463 L380,266 L523,61 L523,0 L404,0 L262,205 L208,205 L208,0 L78,0"/> 
            <glyph glyph-name="л" unicode="&#x43B;" horiz-adv-x="531" d=" M32,118 L45,118 Q90,118 108.5,143.5 Q127,169 127,216 L127,524 L531,524 L531,0 L401,0 L401,411 L249,411 L249,217 Q249,161 233.5,120 Q218,79 192.5,52.5 Q167,26 133.5,13 Q100,0 64,0 L32,0"/> 
            <glyph glyph-name="м" unicode="&#x43C;" horiz-adv-x="623" d=" M623,0 L493,0 L493,323 L380,137 L320,137 L208,323 L208,0 L78,0 L78,524 L208,524 L353,293 L493,524 L623,524"/> 
            <glyph glyph-name="н" unicode="&#x43D;" horiz-adv-x="528" d=" M78,524 L208,524 L208,319 L398,319 L398,524 L528,524 L528,0 L398,0 L398,206 L208,206 L208,0 L78,0"/> 
            <glyph glyph-name="о" unicode="&#x43E;" horiz-adv-x="510" d=" M283,106 Q332,106 356,130 Q380,154 380,188 L380,336 Q380,370 356,394 Q332,418 283,418 Q232,418 208.5,393.5 Q185,369 185,336 L185,188 Q185,155 208.5,130.5 Q232,106 283,106 M283,-12 Q226,-12 183,3 Q140,18 111.5,44 Q83,70 69,105.5 Q55,141 55,182 L55,342 Q55,383 69,418.5 Q83,454 111.5,480 Q140,506 183,521 Q226,536 283,536 Q340,536 382.5,521 Q425,506 453.5,480 Q482,454 496,418.5 Q510,383 510,342 L510,182 Q510,141 496,105.5 Q482,70 453.5,44 Q425,18 382.5,3 Q340,-12 283,-12"/> 
            <glyph glyph-name="п" unicode="&#x43F;" horiz-adv-x="523" d=" M78,524 L523,524 L523,0 L393,0 L393,411 L208,411 L208,0 L78,0"/> 
            <glyph glyph-name="р" unicode="&#x440;" horiz-adv-x="533" d=" M78,524 L153,524 L191,472 Q218,498 254,517 Q290,536 347,536 Q385,536 419,524.5 Q453,513 478.5,489 Q504,465 518.5,429 Q533,393 533,344 L533,180 Q533,131 518.5,95 Q504,59 478.5,35 Q453,11 419,-0.5 Q385,-12 347,-12 Q320,-12 298,-7 Q276,-2 258.5,5.5 Q241,13 228.5,21.5 Q216,30 208,37 L208,-160 L78,-160 M208,161 Q228,141 255,123.5 Q282,106 320,106 Q335,106 350,111.5 Q365,117 376.5,127.5 Q388,138 395.5,153.5 Q403,169 403,190 L403,334 Q403,355 395.5,370.5 Q388,386 376.5,396.5 Q365,407 350,412.5 Q335,418 320,418 Q282,418 255,400.5 Q228,383 208,363"/> 
            <glyph glyph-name="с" unicode="&#x441;" horiz-adv-x="492" d=" M277,-12 Q227,-12 186,1.5 Q145,15 116,40 Q87,65 71,101 Q55,137 55,182 L55,342 Q55,387 71,423 Q87,459 116,484 Q145,509 186,522.5 Q227,536 277,536 Q326,536 365.5,523 Q405,510 433,485 Q461,460 476.5,423.5 Q492,387 492,340 L492,334 L362,334 L362,340 Q362,375 340.5,396.5 Q319,418 277,418 Q229,418 207,397.5 Q185,377 185,344 L185,180 Q185,147 207,126.5 Q229,106 277,106 Q319,106 340.5,127 Q362,148 362,183 L362,193 L492,193 L492,186 Q492,140 476,103 Q460,66 431.5,40.5 Q403,15 363.5,1.5 Q324,-12 277,-12"/> 
            <glyph glyph-name="т" unicode="&#x442;" horiz-adv-x="477" d=" M183,411 L18,411 L18,524 L477,524 L477,411 L313,411 L313,0 L183,0"/> 
            <glyph glyph-name="у" unicode="&#x443;" horiz-adv-x="497" d=" M149,-113 L198,0 L18,463 L18,524 L138,524 L262,177 L379,524 L497,524 L497,463 L255,-160 L149,-160"/> 
            <glyph glyph-name="ф" unicode="&#x444;" horiz-adv-x="758" d=" M345,39 Q329,21 298.5,4.5 Q268,-12 223,-12 Q191,-12 162,-1 Q133,10 111,32.5 Q89,55 76,88.5 Q63,122 63,167 L63,357 Q63,402 76,435.5 Q89,469 111,491.5 Q133,514 162,525 Q191,536 223,536 Q268,536 298.5,519.5 Q329,503 345,485 L345,705 L475,705 L475,485 Q492,503 522,519.5 Q552,536 598,536 Q630,536 659,525 Q688,514 710,491.5 Q732,469 745,435.5 Q758,402 758,357 L758,167 Q758,122 745,88.5 Q732,55 710,32.5 Q688,10 659,-1 Q630,-12 598,-12 Q552,-12 522,4.5 Q492,21 475,39 L475,-160 L345,-160 M266,106 Q294,106 312.5,115 Q331,124 345,137 L345,387 Q331,400 312.5,409 Q294,418 266,418 Q237,418 215,396.5 Q193,375 193,339 L193,185 Q193,149 215,127.5 Q237,106 266,106 M555,106 Q584,106 606,127.5 Q628,149 628,185 L628,339 Q628,375 606,396.5 Q584,418 555,418 Q527,418 508,409 Q489,400 475,387 L475,137 Q489,124 508,115 Q527,106 555,106"/> 
            <glyph glyph-name="х" unicode="&#x445;" horiz-adv-x="492" d=" M38,61 L183,262 L40,463 L40,524 L157,524 L264,361 L373,524 L483,524 L483,463 L344,267 L492,61 L492,0 L376,0 L262,174 L149,0 L38,0"/> 
            <glyph glyph-name="ц" unicode="&#x446;" horiz-adv-x="594" d=" M466,0 L78,0 L78,524 L208,524 L208,113 L387,113 L387,524 L517,524 L517,113 L594,113 L594,-124 L466,-124"/> 
            <glyph glyph-name="ч" unicode="&#x447;" horiz-adv-x="495" d=" M365,178 Q346,174 320,170 Q294,166 260,166 Q212,166 173,176 Q134,186 106,207 Q78,228 63,261 Q48,294 48,341 L48,524 L178,524 L178,355 Q178,315 206,299.5 Q234,284 282,284 Q311,284 330.5,287.5 Q350,291 365,293 L365,524 L495,524 L495,0 L365,0"/> 
            <glyph glyph-name="ш" unicode="&#x448;" horiz-adv-x="740" d=" M78,524 L208,524 L208,113 L344,113 L344,524 L474,524 L474,113 L610,113 L610,524 L740,524 L740,0 L78,0"/> 
            <glyph glyph-name="щ" unicode="&#x449;" horiz-adv-x="817" d=" M689,0 L78,0 L78,524 L208,524 L208,113 L344,113 L344,524 L474,524 L474,113 L610,113 L610,524 L740,524 L740,113 L817,113 L817,-124 L689,-124"/> 
            <glyph glyph-name="ъ" unicode="&#x44A;" horiz-adv-x="563" d=" M397,362 Q475,362 519,313 Q563,264 563,181 Q563,98 519,49 Q475,0 397,0 L134,0 L134,411 L-2,411 L-2,524 L264,524 L264,362 M364,113 Q402,113 417.5,133 Q433,153 433,181 Q433,213 417.5,231 Q402,249 364,249 L264,249 L264,113"/> 
            <glyph glyph-name="ы" unicode="&#x44B;" horiz-adv-x="693" d=" M563,524 L693,524 L693,0 L563,0 M331,362 Q409,362 453,313 Q497,264 497,181 Q497,98 453,49 Q409,0 331,0 L78,0 L78,524 L208,524 L208,362 M298,113 Q336,113 351.5,133 Q367,153 367,181 Q367,213 351.5,231 Q336,249 298,249 L208,249 L208,113"/> 
            <glyph glyph-name="ь" unicode="&#x44C;" horiz-adv-x="507" d=" M341,362 Q419,362 463,313 Q507,264 507,181 Q507,98 463,49 Q419,0 341,0 L78,0 L78,524 L208,524 L208,362 M308,113 Q346,113 361.5,133 Q377,153 377,181 Q377,213 361.5,231 Q346,249 308,249 L208,249 L208,113"/> 
            <glyph glyph-name="э" unicode="&#x44D;" horiz-adv-x="495" d=" M181,187 Q181,150 205.5,128 Q230,106 273,106 Q324,106 344.5,128 Q365,150 365,185 L365,209 L225,209 L225,313 L365,313 L365,339 Q365,374 344.5,396 Q324,418 273,418 Q230,418 205.5,396 Q181,374 181,337 L181,334 L51,334 L51,337 Q51,385 67,422 Q83,459 111.5,484.5 Q140,510 180.5,523 Q221,536 271,536 Q374,536 434.5,483.5 Q495,431 495,339 L495,185 Q495,93 434.5,40.5 Q374,-12 271,-12 Q222,-12 181.5,2 Q141,16 112,42 Q83,68 67,105 Q51,142 51,189 L51,193 L181,193"/> 
            <glyph glyph-name="ю" unicode="&#x44E;" horiz-adv-x="736" d=" M291,346 Q291,386 305,421 Q319,456 346.5,481.5 Q374,507 416,521.5 Q458,536 514,536 Q569,536 611,521.5 Q653,507 680.5,481.5 Q708,456 722,421 Q736,386 736,346 L736,178 Q736,138 722,103 Q708,68 680.5,42.5 Q653,17 611,2.5 Q569,-12 514,-12 Q458,-12 416,2.5 Q374,17 346.5,42.5 Q319,68 305,103 Q291,138 291,178 L291,205 L208,205 L208,0 L78,0 L78,524 L208,524 L208,319 L291,319 M514,106 Q561,106 583.5,129 Q606,152 606,184 L606,340 Q606,372 583.5,395 Q561,418 514,418 Q466,418 443.5,395 Q421,372 421,340 L421,184 Q421,152 443.5,129 Q466,106 514,106"/> 
            <glyph glyph-name="я" unicode="&#x44F;" horiz-adv-x="481" d=" M48,61 L143,193 Q98,210 71.5,247.5 Q45,285 45,354 Q45,396 57,428 Q69,460 90,481 Q111,502 139,513 Q167,524 199,524 L481,524 L481,0 L351,0 L351,186 L289,186 L169,0 L48,0 M351,290 L351,411 L236,411 Q202,411 188.5,394.5 Q175,378 175,350 Q175,326 188.5,308 Q202,290 236,290"/> 
            <glyph glyph-name="ё" unicode="&#x451;" horiz-adv-x="501" d=" M117,705 L247,705 L247,595 L117,595 M320,705 L450,705 L450,595 L320,595 M283,-12 Q232,-12 190,0.5 Q148,13 118,37.5 Q88,62 71.5,98 Q55,134 55,180 L55,342 Q55,387 71.5,423 Q88,459 118,484 Q148,509 190,522.5 Q232,536 283,536 Q331,536 371.5,523.5 Q412,511 440.5,486.5 Q469,462 485,426 Q501,390 501,344 L501,219 L185,219 L185,182 Q185,149 208.5,127.5 Q232,106 283,106 Q321,106 342,120 Q363,134 370,159 L500,159 Q492,78 436,33 Q380,-12 283,-12 M371,318 L371,344 Q371,378 347,398 Q323,418 278,418 Q231,418 208,397.5 Q185,377 185,344 L185,318"/> 
            <glyph glyph-name="₽" unicode="&#x20BD;" horiz-adv-x="597" d=" M111,103 L28,103 L28,206 L111,206 L111,281 L28,281 L28,394 L111,394 L111,700 L397,700 Q492,700 544.5,643.5 Q597,587 597,490 Q597,393 544.5,337 Q492,281 397,281 L241,281 L241,206 L411,206 L411,103 L241,103 L241,0 L111,0 M381,394 Q397,394 412.5,399.5 Q428,405 440,416.5 Q452,428 459.5,446 Q467,464 467,490 Q467,515 459.5,533.5 Q452,552 440,564 Q428,576 412.5,581.5 Q397,587 381,587 L241,587 L241,394"/> 
            <glyph glyph-name="№" unicode="&#x2116;" horiz-adv-x="984" d=" M88,700 L207,700 L452,265 L452,700 L582,700 L582,0 L462,0 L218,435 L218,0 L88,0 M826,449 Q847,449 858.5,462 Q870,475 870,494 L870,577 Q870,596 858.5,609 Q847,622 826,622 Q804,622 793,608.5 Q782,595 782,577 L782,494 Q782,476 793,462.5 Q804,449 826,449 M826,356 Q753,356 710.5,395 Q668,434 668,512 L668,559 Q668,637 710.5,676 Q753,715 826,715 Q899,715 941.5,676 Q984,637 984,559 L984,512 Q984,434 941.5,395 Q899,356 826,356 M668,295 L984,295 L984,196 L668,196"/> 
            <glyph glyph-name="	" unicode="&#x9;" horiz-adv-x="222" d=" M92,700 L222,700 L222,220 L92,220 M92,130 L222,130 L222,0 L92,0"/> 
            <glyph glyph-name="" unicode="&#xD;" horiz-adv-x="222" d=" M92,700 L222,700 L222,220 L92,220 M92,130 L222,130 L222,0 L92,0"/> 
            <glyph glyph-name="!" unicode="&#x21;" horiz-adv-x="376" d=" M50,653 L50,705 L180,705 L180,653 L154,447 L76,447 M246,653 L246,705 L376,705 L376,653 L350,447 L272,447"/> 
            <glyph glyph-name="&quot;" unicode="&#x22;" horiz-adv-x="651" d=" M88,47 L112,159 L34,159 L34,277 L137,277 L168,423 L80,423 L80,541 L193,541 L227,700 L342,700 L342,653 L318,541 L447,541 L481,700 L597,700 L597,653 L573,541 L651,541 L651,423 L548,423 L517,277 L605,277 L605,159 L493,159 L459,0 L343,0 L343,47 L367,159 L238,159 L204,0 L88,0 M391,277 L423,423 L293,423 L262,277"/> 
            <glyph glyph-name="#" unicode="&#x23;" horiz-adv-x="542" d=" M173,227 Q173,191 183.5,167 Q194,143 212,129 Q230,115 253,109 Q276,103 301,103 Q352,103 378.5,127 Q405,151 405,188 Q405,207 398,219.5 Q391,232 379,241.5 Q367,251 351,258.5 Q335,266 317,274 L236,310 Q194,328 161.5,346.5 Q129,365 106.5,387.5 Q84,410 72.5,440 Q61,470 61,512 Q61,552 74,585.5 Q87,619 110.5,645 Q134,671 166,688 Q198,705 237,711 L237,803 L367,803 L367,708 Q398,701 428.5,683.5 Q459,666 483,637.5 Q507,609 521.5,569.5 Q536,530 536,479 L406,479 Q406,512 397,535 Q388,558 373,571.5 Q358,585 337,591 Q316,597 292,597 Q248,597 221,575.5 Q194,554 194,518 Q194,498 201,484.5 Q208,471 221.5,460.5 Q235,450 254.5,440.5 Q274,431 299,420 L365,391 Q402,374 434.5,357 Q467,340 491,318 Q515,296 528.5,267 Q542,238 542,198 Q542,122 500,65 Q458,8 367,-11 L367,-118 L237,-118 L237,-12 Q196,-6 161,11.5 Q126,29 99.5,59 Q73,89 58,131 Q43,173 43,227"/> 
            <glyph glyph-name="$" unicode="&#x24;" horiz-adv-x="754" d=" M196,449 Q217,449 228.5,462 Q240,475 240,494 L240,577 Q240,596 228.5,609 Q217,622 196,622 Q174,622 163,608.5 Q152,595 152,577 L152,494 Q152,476 163,462.5 Q174,449 196,449 M196,356 Q123,356 80.5,395 Q38,434 38,512 L38,559 Q38,637 80.5,676 Q123,715 196,715 Q269,715 311.5,676 Q354,637 354,559 L354,512 Q354,434 311.5,395 Q269,356 196,356 M596,78 Q617,78 628.5,91 Q640,104 640,123 L640,206 Q640,224 628.5,237.5 Q617,251 596,251 Q574,251 563,237.5 Q552,224 552,206 L552,123 Q552,105 563,91.5 Q574,78 596,78 M596,-15 Q523,-15 480.5,24 Q438,63 438,141 L438,188 Q438,266 480.5,305 Q523,344 596,344 Q669,344 711.5,305 Q754,266 754,188 L754,141 Q754,63 711.5,24 Q669,-15 596,-15 M146,47 L555,700 L647,700 L647,653 L238,0 L146,0"/> 
            <glyph glyph-name="%" unicode="&#x25;" horiz-adv-x="654" d=" M53,175 Q53,200 58,222 Q63,244 75,266.5 Q87,289 107,312 Q127,335 157,362 L166,370 L152,385 Q140,397 127,411 Q114,425 103,443.5 Q92,462 85,484.5 Q78,507 78,535 Q78,573 92,605 Q106,637 130.5,659.5 Q155,682 189.5,694.5 Q224,707 266,707 Q306,707 339.5,695.5 Q373,684 397.5,662.5 Q422,641 436,610.5 Q450,580 450,542 Q450,495 426,461 Q402,427 369,398 L342,373 L461,254 Q483,315 483,376 L606,376 Q606,324 592.5,269 Q579,214 552,163 L654,61 L654,0 L540,0 L476,63 Q438,28 390,8 Q342,-12 282,-12 Q176,-12 114.5,37 Q53,86 53,175 M281,106 Q313,106 340.5,117 Q368,128 391,148 L248,289 L238,280 Q208,253 195.5,230.5 Q183,208 183,183 Q183,147 208.5,126.5 Q234,106 281,106 M262,454 L289,478 Q306,493 315.5,505 Q325,517 325,537 Q325,562 308,575.5 Q291,589 268,589 Q239,589 223.5,573.5 Q208,558 208,535 Q208,516 217,503 Q226,490 243,473"/> 
            <glyph glyph-name="&amp;" unicode="&#x26;" horiz-adv-x="180" d=" M50,653 L50,705 L180,705 L180,653 L154,447 L76,447"/> 
            <glyph glyph-name="'" unicode="&#x27;" horiz-adv-x="274" d=" M274,-160 Q186,-160 137,-108.5 Q88,-57 88,40 L88,572 Q88,669 137,720.5 Q186,772 274,772 L274,654 Q244,654 229.5,631 Q215,608 215,579 L215,33 Q215,4 229.5,-19 Q244,-42 274,-42 L274,-160"/> 
            <glyph glyph-name="(" unicode="&#x28;" horiz-adv-x="231" d=" M44,-160 Q132,-160 181,-108.5 Q230,-57 230,40 L230,572 Q230,669 181,720.5 Q132,772 44,772 L44,654 Q74,654 88.5,631 Q103,608 103,579 L103,33 Q103,4 88.5,-19 Q74,-42 44,-42 L44,-160"/> 
            <glyph glyph-name=")" unicode="&#x29;" horiz-adv-x="414" d=" M185,446 L93,381 L42,471 L144,519 L42,567 L93,657 L185,592 L177,705 L279,705 L270,592 L364,657 L414,567 L311,519 L414,471 L364,381 L270,446 L279,333 L177,333"/> 
            <glyph glyph-name="*" unicode="&#x2A;" horiz-adv-x="510" d=" M227,259 L62,259 L62,367 L227,367 L227,534 L345,534 L345,367 L510,367 L510,259 L345,259 L345,92 L227,92"/> 
            <glyph glyph-name="+" unicode="&#x2B;" horiz-adv-x="210" d=" M82,143 L210,143 L210,88 L124,-119 L32,-119"/> 
            <glyph glyph-name="," unicode="&#x2C;" horiz-adv-x="386" d=" M58,372 L386,372 L386,254 L58,254"/> 
            <glyph glyph-name="-" unicode="&#x2D;" horiz-adv-x="211" d=" M68,143 L211,143 L211,0 L68,0"/> 
            <glyph glyph-name="." unicode="&#x2E;" horiz-adv-x="421" d=" M38,-53 L315,772 L421,772 L421,725 L144,-100 L38,-100"/> 
            <glyph glyph-name="/" unicode="&#x2F;" horiz-adv-x="547" d=" M307,103 Q364,103 390.5,136 Q417,169 417,217 L417,483 Q417,531 390.5,564 Q364,597 307,597 Q251,597 224.5,564 Q198,531 198,483 L198,217 Q198,169 224.5,136 Q251,103 307,103 M307,-15 Q197,-15 132.5,45.5 Q68,106 68,224 L68,476 Q68,594 132.5,654.5 Q197,715 307,715 Q418,715 482.5,654.5 Q547,594 547,476 L547,224 Q547,106 482.5,45.5 Q418,-15 307,-15"/> 
            <glyph glyph-name="0" unicode="&#x30;" horiz-adv-x="242" d=" M112,524 L43,524 L43,593 L209,700 L242,700 L242,0 L112,0"/> 
            <glyph glyph-name="1" unicode="&#x31;" horiz-adv-x="503" d=" M46,106 L257,319 Q292,355 314.5,379 Q337,403 350,422 Q363,441 368,458 Q373,475 373,496 Q373,515 368,533 Q363,551 351.5,565 Q340,579 321.5,588 Q303,597 276,597 Q246,597 226.5,587 Q207,577 195,560 Q183,543 177.5,520.5 Q172,498 172,473 L48,473 Q48,530 65,575 Q82,620 112,651 Q142,682 184,698.5 Q226,715 276,715 Q333,715 376,697 Q419,679 447,649 Q475,619 489,580.5 Q503,542 503,501 Q503,462 493.5,431 Q484,400 465.5,370.5 Q447,341 419.5,311.5 Q392,282 355,246 L222,118 L502,118 L502,0 L46,0"/> 
            <glyph glyph-name="2" unicode="&#x32;" horiz-adv-x="533" d=" M288,-15 Q177,-15 112.5,48.5 Q48,112 46,230 L171,230 Q173,176 202.5,139.5 Q232,103 292,103 Q323,103 344,111.5 Q365,120 378,135 Q391,150 397,169.5 Q403,189 403,212 Q403,258 373,280.5 Q343,303 289,303 L245,303 L245,421 L280,421 Q327,421 355.5,441 Q384,461 384,509 Q384,523 380,538.5 Q376,554 365.5,567 Q355,580 337,588.5 Q319,597 291,597 Q234,597 209.5,562.5 Q185,528 184,478 L60,478 Q60,593 122,654 Q184,715 290,715 Q344,715 385.5,700 Q427,685 454.5,658.5 Q482,632 496.5,596.5 Q511,561 511,521 Q511,466 489,430 Q467,394 429,368 Q450,359 469,343.5 Q488,328 502,306.5 Q516,285 524.5,258 Q533,231 533,201 Q533,101 469.5,43 Q406,-15 288,-15"/> 
            <glyph glyph-name="3" unicode="&#x33;" horiz-adv-x="539" d=" M330,129 L28,129 L28,229 L260,700 L374,700 L374,653 L175,247 L330,247 L330,411 L460,411 L460,247 L539,247 L539,129 L460,129 L460,0 L330,0"/> 
            <glyph glyph-name="4" unicode="&#x34;" horiz-adv-x="533" d=" M291,-15 Q190,-15 125.5,39.5 Q61,94 50,196 L177,196 Q183,156 213.5,129.5 Q244,103 294,103 Q351,103 377,140 Q403,177 403,240 Q403,299 374,334.5 Q345,370 297,370 Q255,370 231.5,352.5 Q208,335 197,317 L72,317 L109,700 L494,700 L494,582 L210,582 L196,444 Q210,452 223,458 Q236,464 250.5,468 Q265,472 282,474 Q299,476 321,476 Q361,476 399,463.5 Q437,451 467,423 Q497,395 515,350 Q533,305 533,240 Q533,177 515.5,129.5 Q498,82 466,49.5 Q434,17 389.5,1 Q345,-15 291,-15"/> 
            <glyph glyph-name="5" unicode="&#x35;" horiz-adv-x="540" d=" M295,-15 Q239,-15 194,1 Q149,17 117,47.5 Q85,78 67.5,121 Q50,164 50,218 Q50,266 66.5,313.5 Q83,361 118,418 L297,700 L416,700 L416,653 L280,444 Q294,446 307.5,447.5 Q321,449 339,449 Q380,449 416.5,435.5 Q453,422 480.5,394.5 Q508,367 524,326.5 Q540,286 540,232 Q540,173 522.5,127 Q505,81 473,49.5 Q441,18 395.5,1.5 Q350,-15 295,-15 M295,103 Q352,103 381,136 Q410,169 410,224 Q410,279 382,311.5 Q354,344 294,344 Q262,344 240.5,334.5 Q219,325 205.5,309 Q192,293 186,271 Q180,249 180,224 Q180,169 209,136 Q238,103 295,103"/> 
            <glyph glyph-name="6" unicode="&#x36;" horiz-adv-x="494" d=" M153,47 L360,582 L156,582 L156,497 L36,497 L36,700 L494,700 L494,590 L270,0 L153,0"/> 
            <glyph glyph-name="7" unicode="&#x37;" horiz-adv-x="560" d=" M309,-15 Q191,-15 124.5,42 Q58,99 58,198 Q58,228 66.5,254.5 Q75,281 89.5,303.5 Q104,326 123,342 Q142,358 163,367 Q144,380 128,395 Q112,410 100.5,428 Q89,446 82.5,468.5 Q76,491 76,520 Q76,559 91,594.5 Q106,630 135.5,657 Q165,684 208.5,699.5 Q252,715 309,715 Q366,715 409.5,699.5 Q453,684 482.5,657 Q512,630 527,594.5 Q542,559 542,520 Q542,462 517.5,427.5 Q493,393 456,367 Q477,358 496,342 Q515,326 529,303.5 Q543,281 551.5,254.5 Q560,228 560,198 Q560,99 493.5,42 Q427,-15 309,-15 M309,101 Q340,101 362.5,110 Q385,119 400,134 Q415,149 422,168.5 Q429,188 429,210 Q429,260 396,287.5 Q363,315 309,315 Q255,315 222,287.5 Q189,260 189,210 Q189,188 196,168.5 Q203,149 218,134 Q233,119 255.5,110 Q278,101 309,101 M309,414 Q353,414 383,437 Q413,460 413,510 Q413,548 388.5,575 Q364,602 309,602 Q255,602 230,575 Q205,548 205,510 Q205,460 235,437 Q265,414 309,414"/> 
            <glyph glyph-name="8" unicode="&#x38;" horiz-adv-x="538" d=" M293,715 Q348,715 393.5,699 Q439,683 471,652.5 Q503,622 520.5,579 Q538,536 538,482 Q538,434 521.5,386.5 Q505,339 470,282 L291,0 L172,0 L172,47 L308,256 Q294,254 280.5,252.5 Q267,251 249,251 Q208,251 171.5,264.5 Q135,278 107.5,305.5 Q80,333 64,373.5 Q48,414 48,468 Q48,527 65.5,573 Q83,619 115,650.5 Q147,682 192,698.5 Q237,715 293,715 M293,597 Q236,597 207,564 Q178,531 178,476 Q178,421 206,388.5 Q234,356 294,356 Q325,356 347,365.5 Q369,375 382.5,391 Q396,407 402,429 Q408,451 408,476 Q408,531 379,564 Q350,597 293,597"/> 
            <glyph glyph-name="9" unicode="&#x39;" horiz-adv-x="211" d=" M68,143 L211,143 L211,0 L68,0 M68,524 L211,524 L211,381 L68,381"/> 
            <glyph glyph-name=":" unicode="&#x3A;" horiz-adv-x="211" d=" M82,143 L210,143 L210,88 L124,-119 L32,-119 M68,524 L211,524 L211,381 L68,381"/> 
            <glyph glyph-name=";" unicode="&#x3B;" horiz-adv-x="470" d=" M62,260 L62,366 L408,545 L470,545 L470,453 L191,313 L470,173 L470,80 L408,80"/> 
            <glyph glyph-name="&lt;" unicode="&#x3C;" horiz-adv-x="511" d=" M62,259 L511,259 L511,151 L62,151 M62,475 L511,475 L511,367 L62,367"/> 
            <glyph glyph-name="=" unicode="&#x3D;" horiz-adv-x="470" d=" M62,173 L342,313 L62,453 L62,545 L124,545 L470,366 L470,260 L124,80 L62,80"/> 
            <glyph glyph-name="&gt;" unicode="&#x3E;" horiz-adv-x="487" d=" M184,335 L284,406 Q318,430 337.5,451.5 Q357,473 357,512 Q357,548 333,572.5 Q309,597 263,597 Q209,597 180.5,564.5 Q152,532 152,478 L28,478 Q28,535 46,579.5 Q64,624 96,654 Q128,684 171,699.5 Q214,715 264,715 Q320,715 362,698 Q404,681 431.5,653.5 Q459,626 473,590 Q487,554 487,515 Q487,473 473.5,442 Q460,411 439,387 Q418,363 393,345 Q368,327 345,312 L314,291 L314,220 L184,220 M184,130 L314,130 L314,0 L184,0"/> 
            <glyph glyph-name="?" unicode="&#x3F;" horiz-adv-x="924" d=" M570,355 Q555,370 533,383.5 Q511,397 481,397 Q456,397 435,381 Q414,365 414,333 L414,231 Q414,199 435,183 Q456,167 481,167 Q511,167 533,180.5 Q555,194 570,208 M587,114 Q564,94 534.5,78.5 Q505,63 457,63 Q425,63 397,72.5 Q369,82 348,101 Q327,120 314.5,149 Q302,178 302,217 L302,348 Q302,387 314.5,416 Q327,445 348,464 Q369,483 397,492 Q425,501 457,501 Q505,501 534.5,486 Q564,471 587,450 L619,492 L682,492 L682,221 Q682,194 695,177.5 Q708,161 736,161 Q752,161 766.5,169 Q781,177 791.5,195.5 Q802,214 808,245 Q814,276 814,322 Q814,392 789,447 Q764,502 722,540 Q680,578 624,598.5 Q568,619 505,619 Q434,619 374,595.5 Q314,572 270.5,528 Q227,484 203,422 Q179,360 179,283 Q179,206 203,144 Q227,82 270.5,38.5 Q314,-5 374,-28.5 Q434,-52 505,-52 L530,-52 L530,-151 L505,-151 Q408,-151 327.5,-119 Q247,-87 189.5,-29.5 Q132,28 100,107.5 Q68,187 68,282 Q68,379 100,459 Q132,539 189.5,596 Q247,653 327.5,684 Q408,715 505,715 Q593,715 669.5,687.5 Q746,660 802.5,609 Q859,558 891.5,485.5 Q924,413 924,322 Q924,263 910.5,215 Q897,167 870.5,133 Q844,99 806,81 Q768,63 720,63 Q672,63 640.5,76 Q609,89 587,114"/> 
            <glyph glyph-name="@" unicode="&#x40;" horiz-adv-x="642" d=" M18,47 L260,700 L399,700 L642,47 L642,0 L502,0 L446,164 L207,164 L149,0 L18,0 M403,282 L327,510 L249,282"/> 
            <glyph glyph-name="A" unicode="&#x41;" horiz-adv-x="619" d=" M88,700 L384,700 Q480,700 535.5,652 Q591,604 591,507 Q591,406 513,363 Q535,354 554,340.5 Q573,327 587.5,307 Q602,287 610.5,260 Q619,233 619,197 Q619,98 563.5,49 Q508,0 412,0 L88,0 M376,409 Q404,409 426,428.5 Q448,448 448,493 Q448,537 426,556.5 Q404,576 376,576 L230,576 L230,409 M405,124 Q433,124 455,143.5 Q477,163 477,208 Q477,252 455,271.5 Q433,291 405,291 L230,291 L230,124"/> 
            <glyph glyph-name="B" unicode="&#x42;" horiz-adv-x="603" d=" M343,-15 Q209,-15 138.5,51 Q68,117 68,237 L68,463 Q68,583 138.5,649 Q209,715 343,715 Q395,715 442,701 Q489,687 525,657.5 Q561,628 582,581.5 Q603,535 603,470 L603,460 L461,460 L461,470 Q461,501 450.5,523 Q440,545 422,558.5 Q404,572 381,578.5 Q358,585 334,585 Q271,585 240.5,555 Q210,525 210,473 L210,227 Q210,175 240.5,145 Q271,115 334,115 Q358,115 381,121 Q404,127 422,140.5 Q440,154 450.5,176 Q461,198 461,230 L461,240 L603,240 L603,230 Q603,165 582,118.5 Q561,72 525,42.5 Q489,13 442,-1 Q395,-15 343,-15"/> 
            <glyph glyph-name="C" unicode="&#x43;" horiz-adv-x="621" d=" M342,124 Q376,124 401.5,133 Q427,142 444.5,158 Q462,174 470.5,194 Q479,214 479,237 L479,463 Q479,485 470.5,505.5 Q462,526 444.5,542 Q427,558 401.5,567 Q376,576 342,576 L230,576 L230,124 M88,700 L342,700 Q406,700 457.5,684 Q509,668 545.5,637.5 Q582,607 601.5,562 Q621,517 621,459 L621,241 Q621,183 601.5,138 Q582,93 545.5,62.5 Q509,32 457.5,16 Q406,0 342,0 L88,0"/> 
            <glyph glyph-name="D" unicode="&#x44;" horiz-adv-x="546" d=" M88,700 L544,700 L544,576 L230,576 L230,410 L498,410 L498,292 L230,292 L230,124 L546,124 L546,0 L88,0"/> 
            <glyph glyph-name="E" unicode="&#x45;" horiz-adv-x="552" d=" M88,700 L552,700 L552,576 L230,576 L230,401 L504,401 L504,283 L230,283 L230,0 L88,0"/> 
            <glyph glyph-name="F" unicode="&#x46;" horiz-adv-x="613" d=" M324,-15 Q264,-15 216.5,2 Q169,19 136,51.5 Q103,84 85.5,130 Q68,176 68,234 L68,463 Q68,583 141,649 Q214,715 347,715 Q404,715 452.5,699.5 Q501,684 536.5,653.5 Q572,623 592.5,577.5 Q613,532 613,472 L471,472 Q471,526 434.5,555.5 Q398,585 339,585 Q273,585 241.5,554 Q210,523 210,469 L210,235 Q210,178 242.5,146.5 Q275,115 337,115 Q378,115 414.5,133.5 Q451,152 471,184 L471,260 L347,260 L347,378 L613,378 L613,0 L537,0 L498,58 Q466,22 421.5,3.5 Q377,-15 324,-15"/> 
            <glyph glyph-name="G" unicode="&#x47;" horiz-adv-x="628" d=" M88,700 L230,700 L230,412 L486,412 L486,700 L628,700 L628,0 L486,0 L486,288 L230,288 L230,0 L88,0"/> 
            <glyph glyph-name="H" unicode="&#x48;" horiz-adv-x="230" d=" M88,700 L230,700 L230,0 L88,0"/> 
            <glyph glyph-name="I" unicode="&#x49;" horiz-adv-x="507" d=" M263,-15 Q211,-15 166.5,-4 Q122,7 89,33 Q56,59 37,102 Q18,145 18,209 L18,240 L160,240 L160,209 Q160,158 187.5,136.5 Q215,115 263,115 Q282,115 300.5,120 Q319,125 333.5,136.5 Q348,148 356.5,167 Q365,186 365,214 L365,700 L507,700 L507,209 Q507,147 487.5,104.5 Q468,62 435,35.5 Q402,9 357.5,-3 Q313,-15 263,-15"/> 
            <glyph glyph-name="J" unicode="&#x4A;" horiz-adv-x="620" d=" M88,700 L230,700 L230,412 L304,412 L473,700 L605,700 L605,653 L428,358 L620,47 L620,0 L479,0 L304,288 L230,288 L230,0 L88,0"/> 
            <glyph glyph-name="K" unicode="&#x4B;" horiz-adv-x="550" d=" M88,700 L230,700 L230,124 L550,124 L550,0 L88,0"/> 
            <glyph glyph-name="L" unicode="&#x4C;" horiz-adv-x="726" d=" M363,218 L225,448 L225,0 L88,0 L88,700 L225,700 L409,391 L593,700 L726,700 L726,0 L589,0 L589,448 L451,218"/> 
            <glyph glyph-name="M" unicode="&#x4D;" horiz-adv-x="628" d=" M88,700 L218,700 L486,264 L486,700 L628,700 L628,0 L498,0 L230,436 L230,0 L88,0"/> 
            <glyph glyph-name="N" unicode="&#x4E;" horiz-adv-x="626" d=" M347,115 Q383,115 408.5,124.5 Q434,134 451,150.5 Q468,167 476,187.5 Q484,208 484,231 L484,469 Q484,491 476,512 Q468,533 451,549.5 Q434,566 408.5,575.5 Q383,585 347,585 Q311,585 285.5,575.5 Q260,566 243,549.5 Q226,533 218,512 Q210,491 210,469 L210,231 Q210,208 218,187.5 Q226,167 243,150.5 Q260,134 285.5,124.5 Q311,115 347,115 M347,-15 Q283,-15 231.5,2 Q180,19 143.5,51.5 Q107,84 87.5,131 Q68,178 68,238 L68,462 Q68,522 87.5,569 Q107,616 143.5,648.5 Q180,681 231.5,698 Q283,715 347,715 Q411,715 462.5,698 Q514,681 550.5,648.5 Q587,616 606.5,569 Q626,522 626,462 L626,238 Q626,178 606.5,131 Q587,84 550.5,51.5 Q514,19 462.5,2 Q411,-15 347,-15"/> 
            <glyph glyph-name="O" unicode="&#x4F;" horiz-adv-x="602" d=" M88,700 L401,700 Q496,700 549,640.5 Q602,581 602,479 Q602,378 549,318.5 Q496,259 401,259 L230,259 L230,0 L88,0 M375,383 Q407,383 432.5,406 Q458,429 458,480 Q458,505 451,523 Q444,541 432.5,553 Q421,565 406,570.5 Q391,576 375,576 L230,576 L230,383"/> 
            <glyph glyph-name="P" unicode="&#x50;" horiz-adv-x="626" d=" M347,-15 Q283,-15 231.5,2 Q180,19 143.5,51.5 Q107,84 87.5,131 Q68,178 68,238 L68,462 Q68,522 87.5,569 Q107,616 143.5,648.5 Q180,681 231.5,698 Q283,715 347,715 Q411,715 462.5,698 Q514,681 550.5,648.5 Q587,616 606.5,569 Q626,522 626,462 L626,238 Q626,172 605,126.5 Q584,81 547,48 L625,-71 L625,-119 L488,-119 L416,-8 Q403,-11 382,-13 Q361,-15 347,-15 M347,115 Q383,115 408.5,124.5 Q434,134 451,150.5 Q468,167 476,187.5 Q484,208 484,231 L484,469 Q484,491 476,512 Q468,533 451,549.5 Q434,566 408.5,575.5 Q383,585 347,585 Q311,585 285.5,575.5 Q260,566 243,549.5 Q226,533 218,512 Q210,491 210,469 L210,231 Q210,208 218,187.5 Q226,167 243,150.5 Q260,134 285.5,124.5 Q311,115 347,115"/> 
            <glyph glyph-name="Q" unicode="&#x51;" horiz-adv-x="622" d=" M88,700 L391,700 Q499,700 553.5,642.5 Q608,585 608,482 Q608,407 576.5,356.5 Q545,306 493,280 L622,47 L622,0 L484,0 L338,263 L230,263 L230,0 L88,0 M365,383 Q412,383 437.5,404.5 Q463,426 463,480 Q463,533 437.5,554.5 Q412,576 365,576 L230,576 L230,383"/> 
            <glyph glyph-name="R" unicode="&#x52;" horiz-adv-x="590" d=" M317,-15 Q261,-15 211,0 Q161,15 123.5,45 Q86,75 64.5,120.5 Q43,166 43,227 L185,227 Q185,193 198.5,171 Q212,149 233,136.5 Q254,124 278.5,119.5 Q303,115 325,115 Q382,115 411,136.5 Q440,158 440,191 Q440,210 429.5,223 Q419,236 398.5,247 Q378,258 347.5,269 Q317,280 277,295 L248,306 Q215,319 181.5,334.5 Q148,350 121,373 Q94,396 77.5,427.5 Q61,459 61,504 Q61,552 79,590.5 Q97,629 130.5,657 Q164,685 212,700 Q260,715 320,715 Q377,715 425,702 Q473,689 508.5,660.5 Q544,632 564,587 Q584,542 584,479 L442,479 Q442,509 431.5,529.5 Q421,550 404,562 Q387,574 364.5,579.5 Q342,585 318,585 Q265,585 234.5,565.5 Q204,546 204,512 Q204,492 213,479.5 Q222,467 238,457.5 Q254,448 275.5,440.5 Q297,433 322,424 L350,414 Q397,397 440.5,379 Q484,361 517,337 Q550,313 570,279.5 Q590,246 590,198 Q590,152 573,113 Q556,74 521.5,45.5 Q487,17 436,1 Q385,-15 317,-15"/> 
            <glyph glyph-name="S" unicode="&#x53;" horiz-adv-x="553" d=" M215,576 L18,576 L18,700 L553,700 L553,576 L357,576 L357,0 L215,0"/> 
            <glyph glyph-name="T" unicode="&#x54;" horiz-adv-x="619" d=" M619,700 L619,230 Q619,172 600,126.5 Q581,81 546,49.5 Q511,18 461,1.5 Q411,-15 349,-15 Q287,-15 237,1.5 Q187,18 151.5,49.5 Q116,81 97,126.5 Q78,172 78,230 L78,700 L220,700 L220,224 Q220,203 227.5,183.5 Q235,164 250.5,148.5 Q266,133 290.5,124 Q315,115 349,115 Q382,115 406,124 Q430,133 445.5,148.5 Q461,164 468.5,183.5 Q476,203 476,224 L476,700"/> 
            <glyph glyph-name="U" unicode="&#x55;" horiz-adv-x="643" d=" M18,653 L18,700 L154,700 L333,190 L508,700 L643,700 L643,653 L401,0 L261,0"/> 
            <glyph glyph-name="V" unicode="&#x56;" horiz-adv-x="804" d=" M38,653 L38,700 L176,700 L273,227 L378,532 L467,532 L575,224 L669,700 L804,700 L804,653 L663,0 L531,0 L421,314 L311,0 L179,0"/> 
            <glyph glyph-name="W" unicode="&#x57;" horiz-adv-x="632" d=" M28,47 L242,364 L48,653 L48,700 L193,700 L330,475 L476,700 L612,700 L612,653 L416,365 L632,47 L632,0 L488,0 L327,250 L164,0 L28,0"/> 
            <glyph glyph-name="X" unicode="&#x58;" horiz-adv-x="610" d=" M238,277 L8,653 L8,700 L148,700 L310,410 L479,700 L610,700 L610,653 L380,283 L380,0 L238,0"/> 
            <glyph glyph-name="Y" unicode="&#x59;" horiz-adv-x="554" d=" M38,123 L380,576 L53,576 L53,700 L543,700 L543,578 L200,124 L554,124 L554,0 L38,0"/> 
            <glyph glyph-name="Z" unicode="&#x5A;" horiz-adv-x="292" d=" M88,772 L292,772 L292,654 L215,654 L215,-42 L292,-42 L292,-160 L88,-160"/> 
            <glyph glyph-name="[" unicode="&#x5B;" horiz-adv-x="253" d=" M252,772 L48,772 L48,654 L125,654 L125,-42 L48,-42 L48,-160 L252,-160"/> 
            <glyph glyph-name="]" unicode="&#x5D;" horiz-adv-x="475" d=" M62,434 L213,705 L322,705 L475,434 L475,387 L364,387 L267,558 L173,387 L62,387"/> 
            <glyph glyph-name="^" unicode="&#x5E;" horiz-adv-x="569" d=" M-1,-30 L569,-30 L569,-138 L-1,-138"/> 
            <glyph glyph-name="_" unicode="&#x5F;" horiz-adv-x="493" d=" M219,-12 Q184,-12 152,-2 Q120,8 96,27.5 Q72,47 57.5,76 Q43,105 43,144 Q43,225 95.5,269.5 Q148,314 255,314 L363,314 L363,347 Q363,381 343,399.5 Q323,418 279,418 Q234,418 214.5,401 Q195,384 195,358 L68,358 Q68,397 80.5,429.5 Q93,462 119.5,485.5 Q146,509 185.5,522.5 Q225,536 279,536 Q333,536 373,522.5 Q413,509 440,485 Q467,461 480,428 Q493,395 493,356 L493,0 L418,0 L380,51 Q351,25 314.5,6.5 Q278,-12 219,-12 M246,106 Q284,106 312,118.5 Q340,131 363,157 L363,215 L255,215 Q229,215 213,209.5 Q197,204 188,196 Q179,188 176,178.5 Q173,169 173,161 Q173,106 246,106"/> 
            <glyph glyph-name="a" unicode="&#x61;" horiz-adv-x="533" d=" M78,705 L208,705 L208,487 Q216,494 228.5,502.5 Q241,511 258.5,518.5 Q276,526 298,531 Q320,536 347,536 Q385,536 419,524.5 Q453,513 478.5,489 Q504,465 518.5,429 Q533,393 533,344 L533,180 Q533,131 518.5,95 Q504,59 478.5,35 Q453,11 419,-0.5 Q385,-12 347,-12 Q290,-12 254,7 Q218,26 191,52 L153,0 L78,0 M208,161 Q228,141 255,123.5 Q282,106 320,106 Q335,106 350,111.5 Q365,117 376.5,127.5 Q388,138 395.5,153.5 Q403,169 403,190 L403,334 Q403,355 395.5,370.5 Q388,386 376.5,396.5 Q365,407 350,412.5 Q335,418 320,418 Q282,418 255,400.5 Q228,383 208,363"/> 
            <glyph glyph-name="b" unicode="&#x62;" horiz-adv-x="492" d=" M277,-12 Q227,-12 186,1.5 Q145,15 116,40 Q87,65 71,101 Q55,137 55,182 L55,342 Q55,387 71,423 Q87,459 116,484 Q145,509 186,522.5 Q227,536 277,536 Q326,536 365.5,523 Q405,510 433,485 Q461,460 476.5,423.5 Q492,387 492,340 L492,334 L362,334 L362,340 Q362,375 340.5,396.5 Q319,418 277,418 Q229,418 207,397.5 Q185,377 185,344 L185,180 Q185,147 207,126.5 Q229,106 277,106 Q319,106 340.5,127 Q362,148 362,183 L362,193 L492,193 L492,186 Q492,140 476,103 Q460,66 431.5,40.5 Q403,15 363.5,1.5 Q324,-12 277,-12"/> 
            <glyph glyph-name="c" unicode="&#x63;" horiz-adv-x="518" d=" M518,0 L443,0 L405,52 Q378,26 342,7 Q306,-12 249,-12 Q211,-12 177,-0.5 Q143,11 117.5,35 Q92,59 77.5,95 Q63,131 63,180 L63,344 Q63,393 77.5,429 Q92,465 117.5,489 Q143,513 177,524.5 Q211,536 249,536 Q276,536 298,531 Q320,526 337.5,518.5 Q355,511 367.5,502.5 Q380,494 388,487 L388,705 L518,705 M388,363 Q368,383 341,400.5 Q314,418 276,418 Q261,418 246,412.5 Q231,407 219.5,396.5 Q208,386 200.5,370.5 Q193,355 193,334 L193,190 Q193,169 200.5,153.5 Q208,138 219.5,127.5 Q231,117 246,111.5 Q261,106 276,106 Q314,106 341,123.5 Q368,141 388,161"/> 
            <glyph glyph-name="d" unicode="&#x64;" horiz-adv-x="501" d=" M283,-12 Q232,-12 190,0.5 Q148,13 118,37.5 Q88,62 71.5,98 Q55,134 55,180 L55,342 Q55,387 71.5,423 Q88,459 118,484 Q148,509 190,522.5 Q232,536 283,536 Q331,536 371.5,523.5 Q412,511 440.5,486.5 Q469,462 485,426 Q501,390 501,344 L501,219 L185,219 L185,182 Q185,149 208.5,127.5 Q232,106 283,106 Q321,106 342,120 Q363,134 370,159 L500,159 Q492,78 436,33 Q380,-12 283,-12 M371,318 L371,344 Q371,378 347,398 Q323,418 278,418 Q231,418 208,397.5 Q185,377 185,344 L185,318"/> 
            <glyph glyph-name="e" unicode="&#x65;" horiz-adv-x="334" d=" M90,411 L13,411 L13,524 L90,524 Q90,559 101,592 Q112,625 136.5,650.5 Q161,676 200,691.5 Q239,707 296,707 Q304,707 314.5,706.5 Q325,706 334,705 L334,589 L313,589 Q265,589 244,574.5 Q223,560 220,524 L326,524 L326,411 L220,411 L220,0 L90,0"/> 
            <glyph glyph-name="f" unicode="&#x66;" horiz-adv-x="518" d=" M518,32 Q518,-19 501.5,-57.5 Q485,-96 455.5,-121.5 Q426,-147 384.5,-159.5 Q343,-172 294,-172 Q194,-172 135,-127 Q76,-82 76,-1 L76,3 L206,3 L206,0 Q206,-9 210.5,-18.5 Q215,-28 225,-36 Q235,-44 251.5,-49 Q268,-54 293,-54 Q344,-54 366,-30 Q388,-6 388,32 L388,92 Q380,85 367.5,76.5 Q355,68 337.5,60.5 Q320,53 298,48 Q276,43 249,43 Q211,43 177,54.5 Q143,66 117.5,90 Q92,114 77.5,150 Q63,186 63,235 L63,344 Q63,393 77.5,429 Q92,465 117.5,489 Q143,513 177,524.5 Q211,536 249,536 Q306,536 342,517 Q378,498 405,472 L443,524 L518,524 M388,363 Q368,383 341,400.5 Q314,418 276,418 Q261,418 246,412.5 Q231,407 219.5,396.5 Q208,386 200.5,370.5 Q193,355 193,334 L193,245 Q193,224 200.5,208.5 Q208,193 219.5,182.5 Q231,172 246,166.5 Q261,161 276,161 Q314,161 341,178.5 Q368,196 388,216"/> 
            <glyph glyph-name="g" unicode="&#x67;" horiz-adv-x="528" d=" M78,705 L208,705 L208,487 Q232,507 265.5,521.5 Q299,536 346,536 Q431,536 479.5,482.5 Q528,429 528,333 L528,0 L398,0 L398,325 Q398,373 374.5,395.5 Q351,418 317,418 Q298,418 281,412 Q264,406 249.5,397.5 Q235,389 224.5,379.5 Q214,370 208,363 L208,0 L78,0"/> 
            <glyph glyph-name="h" unicode="&#x68;" horiz-adv-x="208" d=" M78,524 L208,524 L208,0 L78,0 M78,705 L208,705 L208,595 L78,595"/> 
            <glyph glyph-name="i" unicode="&#x69;" horiz-adv-x="209" d=" M209,524 L209,20 Q209,-13 200,-47 Q191,-81 170,-109 Q149,-137 114.5,-154.5 Q80,-172 30,-172 Q21,-172 12.5,-172 Q4,-172 -7,-170 L-7,-54 L15,-54 Q28,-54 39.5,-50.5 Q51,-47 60,-38.5 Q69,-30 74,-15.5 Q79,-1 79,22 L79,524 M79,705 L209,705 L209,595 L79,595"/> 
            <glyph glyph-name="j" unicode="&#x6A;" horiz-adv-x="515" d=" M78,705 L208,705 L208,325 L263,325 L390,524 L502,524 L502,463 L380,272 L515,61 L515,0 L399,0 L263,212 L208,212 L208,0 L78,0"/> 
            <glyph glyph-name="k" unicode="&#x6B;" horiz-adv-x="208" d=" M78,705 L208,705 L208,0 L78,0"/> 
            <glyph glyph-name="l" unicode="&#x6C;" horiz-adv-x="806" d=" M507,0 L377,0 L377,335 Q377,378 356,398 Q335,418 305,418 Q271,418 247.5,400 Q224,382 208,360 L208,0 L78,0 L78,524 L153,524 L191,472 Q214,496 249.5,516 Q285,536 336,536 Q385,536 421.5,516.5 Q458,497 479,461 Q504,489 542,512.5 Q580,536 635,536 Q678,536 710,522 Q742,508 763.5,482.5 Q785,457 795.5,422 Q806,387 806,346 L806,0 L676,0 L676,335 Q676,378 655,398 Q634,418 604,418 Q570,418 546.5,400 Q523,382 507,360"/> 
            <glyph glyph-name="m" unicode="&#x6D;" horiz-adv-x="528" d=" M78,524 L153,524 L191,472 Q216,496 253.5,516 Q291,536 346,536 Q431,536 479.5,482.5 Q528,429 528,333 L528,0 L398,0 L398,325 Q398,373 374.5,395.5 Q351,418 317,418 Q298,418 281,412 Q264,406 249.5,397.5 Q235,389 224.5,379.5 Q214,370 208,363 L208,0 L78,0"/> 
            <glyph glyph-name="n" unicode="&#x6E;" horiz-adv-x="510" d=" M283,106 Q332,106 356,130 Q380,154 380,188 L380,336 Q380,370 356,394 Q332,418 283,418 Q232,418 208.5,393.5 Q185,369 185,336 L185,188 Q185,155 208.5,130.5 Q232,106 283,106 M283,-12 Q226,-12 183,3 Q140,18 111.5,44 Q83,70 69,105.5 Q55,141 55,182 L55,342 Q55,383 69,418.5 Q83,454 111.5,480 Q140,506 183,521 Q226,536 283,536 Q340,536 382.5,521 Q425,506 453.5,480 Q482,454 496,418.5 Q510,383 510,342 L510,182 Q510,141 496,105.5 Q482,70 453.5,44 Q425,18 382.5,3 Q340,-12 283,-12"/> 
            <glyph glyph-name="o" unicode="&#x6F;" horiz-adv-x="533" d=" M78,524 L153,524 L191,472 Q218,498 254,517 Q290,536 347,536 Q385,536 419,524.5 Q453,513 478.5,489 Q504,465 518.5,429 Q533,393 533,344 L533,180 Q533,131 518.5,95 Q504,59 478.5,35 Q453,11 419,-0.5 Q385,-12 347,-12 Q320,-12 298,-7 Q276,-2 258.5,5.5 Q241,13 228.5,21.5 Q216,30 208,37 L208,-160 L78,-160 M208,161 Q228,141 255,123.5 Q282,106 320,106 Q335,106 350,111.5 Q365,117 376.5,127.5 Q388,138 395.5,153.5 Q403,169 403,190 L403,334 Q403,355 395.5,370.5 Q388,386 376.5,396.5 Q365,407 350,412.5 Q335,418 320,418 Q282,418 255,400.5 Q228,383 208,363"/> 
            <glyph glyph-name="p" unicode="&#x70;" horiz-adv-x="518" d=" M518,-160 L388,-160 L388,37 Q380,30 367.5,21.5 Q355,13 337.5,5.5 Q320,-2 298,-7 Q276,-12 249,-12 Q211,-12 177,-0.5 Q143,11 117.5,35 Q92,59 77.5,95 Q63,131 63,180 L63,344 Q63,393 77.5,429 Q92,465 117.5,489 Q143,513 177,524.5 Q211,536 249,536 Q306,536 342,517 Q378,498 405,472 L443,524 L518,524 M388,363 Q368,383 341,400.5 Q314,418 276,418 Q261,418 246,412.5 Q231,407 219.5,396.5 Q208,386 200.5,370.5 Q193,355 193,334 L193,190 Q193,169 200.5,153.5 Q208,138 219.5,127.5 Q231,117 246,111.5 Q261,106 276,106 Q314,106 341,123.5 Q368,141 388,161"/> 
            <glyph glyph-name="q" unicode="&#x71;" horiz-adv-x="354" d=" M78,524 L153,524 L191,472 Q210,494 242.5,515 Q275,536 327,536 L354,536 L354,411 L327,411 Q285,411 257.5,400 Q230,389 208,363 L208,0 L78,0"/> 
            <glyph glyph-name="r" unicode="&#x72;" horiz-adv-x="503" d=" M284,-12 Q232,-12 189.5,1.5 Q147,15 116,40 Q85,65 67.5,100.5 Q50,136 49,180 L178,180 Q183,145 215,125.5 Q247,106 300,106 Q335,106 356,118 Q377,130 377,150 Q377,178 342,186 L197,223 Q172,229 147.5,239.5 Q123,250 103.5,266.5 Q84,283 72,308 Q60,333 60,368 Q60,446 116,491 Q172,536 273,536 Q374,536 432.5,489.5 Q491,443 494,356 L364,356 Q362,387 335.5,402.5 Q309,418 263,418 Q220,418 203,405 Q186,392 186,376 Q186,361 197.5,352.5 Q209,344 231,339 L380,302 Q406,296 428.5,285 Q451,274 467.5,257 Q484,240 493.5,216.5 Q503,193 503,160 Q503,120 487.5,88 Q472,56 443,34 Q414,12 373.5,0 Q333,-12 284,-12"/> 
            <glyph glyph-name="s" unicode="&#x73;" horiz-adv-x="344" d=" M287,0 Q229,0 191.5,17 Q154,34 132.5,62 Q111,90 103,125.5 Q95,161 95,199 L95,411 L18,411 L18,524 L95,524 L95,633 L225,633 L225,524 L344,524 L344,411 L225,411 L225,199 Q225,148 245.5,130.5 Q266,113 301,113 L344,113 L344,0 L287,0"/> 
            <glyph glyph-name="t" unicode="&#x74;" horiz-adv-x="519" d=" M519,0 L444,0 L406,51 Q381,28 344,8 Q307,-12 253,-12 Q168,-12 120.5,41 Q73,94 73,189 L73,524 L203,524 L203,197 Q203,149 226,127.5 Q249,106 282,106 Q301,106 317.5,112 Q334,118 348,126.5 Q362,135 372.5,144 Q383,153 389,160 L389,524 L519,524"/> 
            <glyph glyph-name="u" unicode="&#x75;" horiz-adv-x="496" d=" M18,463 L18,524 L139,524 L262,178 L378,524 L496,524 L496,463 L316,0 L198,0"/> 
            <glyph glyph-name="v" unicode="&#x76;" horiz-adv-x="681" d=" M43,463 L43,524 L161,524 L235,178 L319,432 L406,432 L491,178 L564,524 L681,524 L681,463 L571,0 L449,0 L363,228 L277,0 L152,0"/> 
            <glyph glyph-name="w" unicode="&#x77;" horiz-adv-x="492" d=" M38,61 L183,262 L40,463 L40,524 L157,524 L264,361 L373,524 L483,524 L483,463 L344,267 L492,61 L492,0 L376,0 L262,174 L149,0 L38,0"/> 
            <glyph glyph-name="x" unicode="&#x78;" horiz-adv-x="497" d=" M149,-113 L198,0 L18,463 L18,524 L138,524 L262,177 L379,524 L497,524 L497,463 L255,-160 L149,-160"/> 
            <glyph glyph-name="y" unicode="&#x79;" horiz-adv-x="474" d=" M48,113 L304,411 L55,411 L55,524 L460,524 L460,411 L201,113 L474,113 L474,0 L48,0"/> 
            <glyph glyph-name="z" unicode="&#x7A;" horiz-adv-x="295" d=" M295,-160 Q207,-160 158,-112.5 Q109,-65 109,32 L109,174 Q109,216 95.5,234.5 Q82,253 53,253 L28,253 L28,371 L53,371 Q83,371 96,391.5 Q109,412 109,450 L109,579 Q109,676 158,724 Q207,772 295,772 L295,654 Q265,654 250.5,631 Q236,608 236,579 L236,415 Q236,392 229.5,375.5 Q223,359 213.5,346.5 Q204,334 193,325.5 Q182,317 172,312 Q182,307 193,298.5 Q204,290 213.5,277.5 Q223,265 229.5,248 Q236,231 236,209 L236,33 Q236,4 250.5,-19 Q265,-42 295,-42 L295,-160"/> 
            <glyph glyph-name="{" unicode="&#x7B;" horiz-adv-x="215" d=" M88,772 L215,772 L215,-100 L88,-100"/> 
            <glyph glyph-name="|" unicode="&#x7C;" horiz-adv-x="316" d=" M48,-160 Q136,-160 185,-112.5 Q234,-65 234,32 L234,174 Q234,216 247.5,234.5 Q261,253 290,253 L315,253 L315,371 L290,371 Q260,371 247,391.5 Q234,412 234,450 L234,579 Q234,676 185,724 Q136,772 48,772 L48,654 Q78,654 92.5,631 Q107,608 107,579 L107,415 Q107,392 113.5,375.5 Q120,359 129.5,346.5 Q139,334 150,325.5 Q161,317 171,312 Q161,307 150,298.5 Q139,290 129.5,277.5 Q120,265 113.5,248 Q107,231 107,209 L107,33 Q107,4 92.5,-19 Q78,-42 48,-42 L48,-160"/> 
            <glyph glyph-name="}" unicode="&#x7D;" horiz-adv-x="489" d=" M249,314 L377,524 L489,524 L489,487 L385,314 L489,140 L489,103 L377,103 M36,314 L164,524 L276,524 L276,487 L172,314 L276,140 L276,103 L164,103"/> 
            <glyph glyph-name="Ç" unicode="&#xC7;" horiz-adv-x="514" d=" M513,314 L385,524 L273,524 L273,487 L377,314 L273,140 L273,103 L385,103 M300,314 L172,524 L60,524 L60,487 L164,314 L60,140 L60,103 L172,103"/> 
            <glyph glyph-name="È" unicode="&#xC8;" horiz-adv-x="546" d=" M138,886 L277,886 L277,768 L138,768 M355,886 L494,886 L494,768 L355,768 M88,700 L544,700 L544,576 L230,576 L230,410 L498,410 L498,292 L230,292 L230,124 L546,124 L546,0 L88,0"/> 
            <glyph glyph-name="!" unicode="&#x21;" horiz-adv-x="651" d=" M88,47 L112,159 L34,159 L34,277 L137,277 L168,423 L80,423 L80,541 L193,541 L227,700 L342,700 L342,653 L318,541 L447,541 L481,700 L597,700 L597,653 L573,541 L651,541 L651,423 L548,423 L517,277 L605,277 L605,159 L493,159 L459,0 L343,0 L343,47 L367,159 L238,159 L204,0 L88,0 M391,277 L423,423 L293,423 L262,277"/> 
            <glyph glyph-name="&quot;" unicode="&#x22;" horiz-adv-x="542" d=" M173,227 Q173,191 183.5,167 Q194,143 212,129 Q230,115 253,109 Q276,103 301,103 Q352,103 378.5,127 Q405,151 405,188 Q405,207 398,219.5 Q391,232 379,241.5 Q367,251 351,258.5 Q335,266 317,274 L236,310 Q194,328 161.5,346.5 Q129,365 106.5,387.5 Q84,410 72.5,440 Q61,470 61,512 Q61,552 74,585.5 Q87,619 110.5,645 Q134,671 166,688 Q198,705 237,711 L237,803 L367,803 L367,708 Q398,701 428.5,683.5 Q459,666 483,637.5 Q507,609 521.5,569.5 Q536,530 536,479 L406,479 Q406,512 397,535 Q388,558 373,571.5 Q358,585 337,591 Q316,597 292,597 Q248,597 221,575.5 Q194,554 194,518 Q194,498 201,484.5 Q208,471 221.5,460.5 Q235,450 254.5,440.5 Q274,431 299,420 L365,391 Q402,374 434.5,357 Q467,340 491,318 Q515,296 528.5,267 Q542,238 542,198 Q542,122 500,65 Q458,8 367,-11 L367,-118 L237,-118 L237,-12 Q196,-6 161,11.5 Q126,29 99.5,59 Q73,89 58,131 Q43,173 43,227"/> 
            <glyph glyph-name="#" unicode="&#x23;" horiz-adv-x="754" d=" M196,449 Q217,449 228.5,462 Q240,475 240,494 L240,577 Q240,596 228.5,609 Q217,622 196,622 Q174,622 163,608.5 Q152,595 152,577 L152,494 Q152,476 163,462.5 Q174,449 196,449 M196,356 Q123,356 80.5,395 Q38,434 38,512 L38,559 Q38,637 80.5,676 Q123,715 196,715 Q269,715 311.5,676 Q354,637 354,559 L354,512 Q354,434 311.5,395 Q269,356 196,356 M596,78 Q617,78 628.5,91 Q640,104 640,123 L640,206 Q640,224 628.5,237.5 Q617,251 596,251 Q574,251 563,237.5 Q552,224 552,206 L552,123 Q552,105 563,91.5 Q574,78 596,78 M596,-15 Q523,-15 480.5,24 Q438,63 438,141 L438,188 Q438,266 480.5,305 Q523,344 596,344 Q669,344 711.5,305 Q754,266 754,188 L754,141 Q754,63 711.5,24 Q669,-15 596,-15 M146,47 L555,700 L647,700 L647,653 L238,0 L146,0"/> 
            <glyph glyph-name="$" unicode="&#x24;" horiz-adv-x="654" d=" M53,175 Q53,200 58,222 Q63,244 75,266.5 Q87,289 107,312 Q127,335 157,362 L166,370 L152,385 Q140,397 127,411 Q114,425 103,443.5 Q92,462 85,484.5 Q78,507 78,535 Q78,573 92,605 Q106,637 130.5,659.5 Q155,682 189.5,694.5 Q224,707 266,707 Q306,707 339.5,695.5 Q373,684 397.5,662.5 Q422,641 436,610.5 Q450,580 450,542 Q450,495 426,461 Q402,427 369,398 L342,373 L461,254 Q483,315 483,376 L606,376 Q606,324 592.5,269 Q579,214 552,163 L654,61 L654,0 L540,0 L476,63 Q438,28 390,8 Q342,-12 282,-12 Q176,-12 114.5,37 Q53,86 53,175 M281,106 Q313,106 340.5,117 Q368,128 391,148 L248,289 L238,280 Q208,253 195.5,230.5 Q183,208 183,183 Q183,147 208.5,126.5 Q234,106 281,106 M262,454 L289,478 Q306,493 315.5,505 Q325,517 325,537 Q325,562 308,575.5 Q291,589 268,589 Q239,589 223.5,573.5 Q208,558 208,535 Q208,516 217,503 Q226,490 243,473"/> 
            <glyph glyph-name="%" unicode="&#x25;" horiz-adv-x="180" d=" M50,653 L50,705 L180,705 L180,653 L154,447 L76,447"/> 
            <glyph glyph-name="&amp;" unicode="&#x26;" horiz-adv-x="274" d=" M274,-160 Q186,-160 137,-108.5 Q88,-57 88,40 L88,572 Q88,669 137,720.5 Q186,772 274,772 L274,654 Q244,654 229.5,631 Q215,608 215,579 L215,33 Q215,4 229.5,-19 Q244,-42 274,-42 L274,-160"/> 
            <glyph glyph-name="'" unicode="&#x27;" horiz-adv-x="231" d=" M44,-160 Q132,-160 181,-108.5 Q230,-57 230,40 L230,572 Q230,669 181,720.5 Q132,772 44,772 L44,654 Q74,654 88.5,631 Q103,608 103,579 L103,33 Q103,4 88.5,-19 Q74,-42 44,-42 L44,-160"/> 
            <glyph glyph-name="(" unicode="&#x28;" horiz-adv-x="414" d=" M185,446 L93,381 L42,471 L144,519 L42,567 L93,657 L185,592 L177,705 L279,705 L270,592 L364,657 L414,567 L311,519 L414,471 L364,381 L270,446 L279,333 L177,333"/> 
            <glyph glyph-name=")" unicode="&#x29;" horiz-adv-x="510" d=" M227,259 L62,259 L62,367 L227,367 L227,534 L345,534 L345,367 L510,367 L510,259 L345,259 L345,92 L227,92"/> 
            <glyph glyph-name="*" unicode="&#x2A;" horiz-adv-x="210" d=" M82,143 L210,143 L210,88 L124,-119 L32,-119"/> 
            <glyph glyph-name="+" unicode="&#x2B;" horiz-adv-x="386" d=" M58,372 L386,372 L386,254 L58,254"/> 
            <glyph glyph-name="," unicode="&#x2C;" horiz-adv-x="211" d=" M68,143 L211,143 L211,0 L68,0"/> 
            <glyph glyph-name="-" unicode="&#x2D;" horiz-adv-x="421" d=" M38,-53 L315,772 L421,772 L421,725 L144,-100 L38,-100"/> 
            <glyph glyph-name="." unicode="&#x2E;" horiz-adv-x="547" d=" M307,103 Q364,103 390.5,136 Q417,169 417,217 L417,483 Q417,531 390.5,564 Q364,597 307,597 Q251,597 224.5,564 Q198,531 198,483 L198,217 Q198,169 224.5,136 Q251,103 307,103 M307,-15 Q197,-15 132.5,45.5 Q68,106 68,224 L68,476 Q68,594 132.5,654.5 Q197,715 307,715 Q418,715 482.5,654.5 Q547,594 547,476 L547,224 Q547,106 482.5,45.5 Q418,-15 307,-15"/> 
            <glyph glyph-name="/" unicode="&#x2F;" horiz-adv-x="242" d=" M112,524 L43,524 L43,593 L209,700 L242,700 L242,0 L112,0"/> 
            <glyph glyph-name="0" unicode="&#x30;" horiz-adv-x="503" d=" M46,106 L257,319 Q292,355 314.5,379 Q337,403 350,422 Q363,441 368,458 Q373,475 373,496 Q373,515 368,533 Q363,551 351.5,565 Q340,579 321.5,588 Q303,597 276,597 Q246,597 226.5,587 Q207,577 195,560 Q183,543 177.5,520.5 Q172,498 172,473 L48,473 Q48,530 65,575 Q82,620 112,651 Q142,682 184,698.5 Q226,715 276,715 Q333,715 376,697 Q419,679 447,649 Q475,619 489,580.5 Q503,542 503,501 Q503,462 493.5,431 Q484,400 465.5,370.5 Q447,341 419.5,311.5 Q392,282 355,246 L222,118 L502,118 L502,0 L46,0"/> 
            <glyph glyph-name="1" unicode="&#x31;" horiz-adv-x="533" d=" M288,-15 Q177,-15 112.5,48.5 Q48,112 46,230 L171,230 Q173,176 202.5,139.5 Q232,103 292,103 Q323,103 344,111.5 Q365,120 378,135 Q391,150 397,169.5 Q403,189 403,212 Q403,258 373,280.5 Q343,303 289,303 L245,303 L245,421 L280,421 Q327,421 355.5,441 Q384,461 384,509 Q384,523 380,538.5 Q376,554 365.5,567 Q355,580 337,588.5 Q319,597 291,597 Q234,597 209.5,562.5 Q185,528 184,478 L60,478 Q60,593 122,654 Q184,715 290,715 Q344,715 385.5,700 Q427,685 454.5,658.5 Q482,632 496.5,596.5 Q511,561 511,521 Q511,466 489,430 Q467,394 429,368 Q450,359 469,343.5 Q488,328 502,306.5 Q516,285 524.5,258 Q533,231 533,201 Q533,101 469.5,43 Q406,-15 288,-15"/> 
            <glyph glyph-name="2" unicode="&#x32;" horiz-adv-x="539" d=" M330,129 L28,129 L28,229 L260,700 L374,700 L374,653 L175,247 L330,247 L330,411 L460,411 L460,247 L539,247 L539,129 L460,129 L460,0 L330,0"/> 
            <glyph glyph-name="3" unicode="&#x33;" horiz-adv-x="533" d=" M291,-15 Q190,-15 125.5,39.5 Q61,94 50,196 L177,196 Q183,156 213.5,129.5 Q244,103 294,103 Q351,103 377,140 Q403,177 403,240 Q403,299 374,334.5 Q345,370 297,370 Q255,370 231.5,352.5 Q208,335 197,317 L72,317 L109,700 L494,700 L494,582 L210,582 L196,444 Q210,452 223,458 Q236,464 250.5,468 Q265,472 282,474 Q299,476 321,476 Q361,476 399,463.5 Q437,451 467,423 Q497,395 515,350 Q533,305 533,240 Q533,177 515.5,129.5 Q498,82 466,49.5 Q434,17 389.5,1 Q345,-15 291,-15"/> 
            <glyph glyph-name="4" unicode="&#x34;" horiz-adv-x="540" d=" M295,-15 Q239,-15 194,1 Q149,17 117,47.5 Q85,78 67.5,121 Q50,164 50,218 Q50,266 66.5,313.5 Q83,361 118,418 L297,700 L416,700 L416,653 L280,444 Q294,446 307.5,447.5 Q321,449 339,449 Q380,449 416.5,435.5 Q453,422 480.5,394.5 Q508,367 524,326.5 Q540,286 540,232 Q540,173 522.5,127 Q505,81 473,49.5 Q441,18 395.5,1.5 Q350,-15 295,-15 M295,103 Q352,103 381,136 Q410,169 410,224 Q410,279 382,311.5 Q354,344 294,344 Q262,344 240.5,334.5 Q219,325 205.5,309 Q192,293 186,271 Q180,249 180,224 Q180,169 209,136 Q238,103 295,103"/> 
            <glyph glyph-name="5" unicode="&#x35;" horiz-adv-x="494" d=" M153,47 L360,582 L156,582 L156,497 L36,497 L36,700 L494,700 L494,590 L270,0 L153,0"/> 
            </font>
</defs>
</svg>
